<?xml version="1.0" encoding="UTF-8" standalone="no"?><!DOCTYPE svg PUBLIC "-//W3C//DTD SVG 1.1//EN" "http://www.w3.org/Graphics/SVG/1.1/DTD/svg11.dtd"><svg width="100%" height="100%" viewBox="0 0 134 134" version="1.1" xmlns="http://www.w3.org/2000/svg" xmlns:xlink="http://www.w3.org/1999/xlink" xml:space="preserve" xmlns:serif="http://www.serif.com/" style="fill-rule:evenodd;clip-rule:evenodd;stroke-linejoin:round;stroke-miterlimit:2;"><g id="Icon"></g><path d="M22.917,18.852l0,95.626c0,3.316 1.317,6.496 3.662,8.84c2.345,2.345 5.525,3.662 8.84,3.662c16.01,0 46.486,0 62.496,0c3.316,0 6.496,-1.317 8.84,-3.662c2.345,-2.345 3.662,-5.524 3.662,-8.84l-0,-95.626c-0,-3.316 -1.317,-6.496 -3.662,-8.84c-2.345,-2.345 -5.525,-3.662 -8.84,-3.662c-16.01,-0 -46.486,-0 -62.496,-0c-3.316,-0 -6.496,1.317 -8.84,3.662c-2.345,2.345 -3.662,5.524 -3.662,8.84Z"/><path d="M27.083,111.296l0,3.182c0,2.211 0.878,4.331 2.441,5.894c1.563,1.563 3.683,2.441 5.894,2.441l62.496,0c2.211,0 4.331,-0.878 5.894,-2.441c1.563,-1.563 2.441,-3.683 2.441,-5.894l-0,-3.182c-2.286,2.045 -5.252,3.184 -8.335,3.184l-62.496,-0c-3.083,0 -6.049,-1.139 -8.335,-3.184Z" style="fill:#888;"/><path d="M95.833,114.48l2.081,0c3.083,0 6.049,-1.139 8.335,-3.184l0,3.182c-0,2.211 -0.878,4.331 -2.441,5.894c-1.563,1.563 -3.683,2.441 -5.894,2.441l-10.417,-0c2.211,0 4.331,-0.878 5.894,-2.441c1.563,-1.563 2.441,-3.682 2.441,-5.892Z" style="fill:#6f6f6f;"/><path d="M62.5,120.967l8.333,0c1.15,0 2.083,-0.934 2.083,-2.083c0,-1.15 -0.934,-2.083 -2.083,-2.083l-8.333,0c-1.15,0 -2.083,0.934 -2.083,2.083c0,1.15 0.934,2.083 2.083,2.083Z"/><path d="M40.643,23.017l-5.224,-0c-2.211,-0 -4.331,0.878 -5.894,2.441c-1.563,1.563 -2.441,3.683 -2.441,5.894l0,70.626c0,2.211 0.878,4.331 2.441,5.894c1.563,1.563 3.683,2.441 5.894,2.441l5.003,0l6.857,-12.738c-8.22,-5.994 -13.566,-15.699 -13.566,-26.642c0,-18.187 14.766,-32.953 32.953,-32.953c18.187,0 32.953,14.766 32.953,32.953c0,10.943 -5.346,20.648 -13.566,26.642l6.857,12.738l5.003,0c2.211,0 4.331,-0.878 5.894,-2.441c1.563,-1.563 2.441,-3.683 2.441,-5.894l-0,-70.626c-0,-2.211 -0.878,-4.331 -2.441,-5.894c-1.563,-1.563 -3.683,-2.441 -5.894,-2.441l-5.224,-0l-7.708,9.986c-0.201,0.261 -0.453,0.461 -0.73,0.597c-0.277,0.137 -0.589,0.213 -0.919,0.213l-33.333,0c-0.33,-0 -0.642,-0.077 -0.919,-0.213c-0.277,-0.136 -0.529,-0.336 -0.73,-0.597l-7.708,-9.986Z" style="fill:#fff;"/><path d="M91.778,24.199l0.913,-1.183l5.224,0c2.211,-0 4.331,0.878 5.894,2.441c1.563,1.563 2.441,3.683 2.441,5.894l0,70.626c-0,2.211 -0.878,4.331 -2.441,5.894c-1.563,1.563 -3.683,2.441 -5.894,2.441l-5.003,-0l-0.763,-1.418c0.444,-0.298 0.86,-0.64 1.244,-1.024c1.563,-1.563 2.441,-3.683 2.441,-5.894l-0,-15.703c2.418,-4.584 3.787,-9.804 3.787,-15.341c0,-5.538 -1.369,-10.759 -3.787,-15.342l-0,-24.24c-0,-2.211 -0.878,-4.331 -2.441,-5.894c-0.488,-0.488 -1.031,-0.91 -1.614,-1.259Z" style="fill:#efefef;"/><path d="M50.803,99.819l-5.649,10.495l43.025,0l-5.649,-10.495c-4.707,2.593 -10.114,4.068 -15.863,4.068c-5.749,0 -11.156,-1.475 -15.863,-4.068Z" style="fill:#efefef;"/><path d="M75.117,102.791l4.049,7.522l9.013,0l-5.649,-10.495c-2.315,1.275 -4.8,2.28 -7.412,2.972Z" style="fill:#dedbdb;"/><path d="M82.226,95.151c7.955,-5.125 13.227,-14.061 13.227,-24.218c0,-15.888 -12.899,-28.787 -28.787,-28.787c-15.888,0 -28.787,12.899 -28.787,28.787c0,10.157 5.272,19.093 13.227,24.218c0.015,0.009 0.029,0.018 0.043,0.028c4.48,2.874 9.805,4.541 15.517,4.541c5.712,0 11.037,-1.667 15.517,-4.541c0.014,-0.009 0.029,-0.019 0.043,-0.028Z" style="fill:#efefef;"/><path d="M63.156,42.359c1.151,-0.14 2.322,-0.212 3.511,-0.212c15.888,0 28.787,12.899 28.787,28.787c0,10.157 -5.272,19.093 -13.227,24.218c-0.015,0.009 -0.029,0.018 -0.043,0.028c-4.48,2.874 -9.805,4.541 -15.517,4.541c-1.189,0 -2.36,-0.072 -3.511,-0.213c4.381,-0.534 8.459,-2.053 12.006,-4.329c0.014,-0.009 0.029,-0.019 0.043,-0.028c7.955,-5.125 13.227,-14.061 13.227,-24.218c0,-14.699 -11.041,-26.84 -25.276,-28.574Z" style="fill:#d3d3d3;"/><circle cx="66.667" cy="70.934" r="25.932"/><circle cx="66.667" cy="70.934" r="21.765" style="fill:#fbd59a;"/><path d="M63.156,49.451c1.143,-0.186 2.315,-0.282 3.511,-0.282c12.013,0 21.765,9.753 21.765,21.765c0,12.013 -9.753,21.765 -21.765,21.765c-1.195,0 -2.368,-0.097 -3.511,-0.282c10.346,-1.681 18.254,-10.666 18.254,-21.483c0,-10.817 -7.908,-19.802 -18.254,-21.483Z" style="fill:#f0bf73;"/><path d="M70.76,76.468l-0,-14.124c-0,-0.088 -0.004,-0.153 -0.011,-0.2c-0.107,-1.049 -0.995,-1.869 -2.072,-1.869c-1.15,-0 -2.083,0.934 -2.083,2.083c-0,0 -0,9.082 -0,14.109c-0,0.271 -0.191,0.486 -0.417,0.663c-0.418,0.329 -1.004,0.508 -1.642,0.508c-0,0 -0.002,0 -0.002,0c-0.639,-0 -1.224,-0.18 -1.642,-0.508c-0.226,-0.177 -0.417,-0.393 -0.417,-0.663c0,-5.028 0,-14.109 0,-14.109c-0,-1.15 -0.934,-2.083 -2.083,-2.083l-0.003,0c-2.317,-0 -4.531,0.747 -6.169,2.034c-1.838,1.444 -2.818,3.431 -2.818,5.474c0,0.001 0,0.003 0,0.004c0,2.043 0.98,4.029 2.818,5.474c1.138,0.894 2.554,1.527 4.088,1.831l-0,1.376c0,2.798 2.664,5.338 6.226,5.338l0.002,-0c1.623,-0 3.06,-0.527 4.143,-1.366c1.083,0.839 2.52,1.366 4.143,1.366l0.002,-0c3.562,-0 6.226,-2.54 6.226,-5.338l0,-14.109c0,-1.15 -0.934,-2.083 -2.083,-2.083c-1.15,-0 -2.083,0.934 -2.083,2.083l-0,14.109c-0,0.271 -0.191,0.486 -0.417,0.663c-0.418,0.329 -1.004,0.508 -1.642,0.508c-0,0 -0.002,0 -0.002,0c-0.639,-0 -1.224,-0.18 -1.642,-0.508c-0.226,-0.177 -0.417,-0.393 -0.417,-0.663Z"/><path d="M58.306,64.778c-0.559,0.191 -1.074,0.462 -1.514,0.808c-0.751,0.59 -1.226,1.362 -1.226,2.197c0,0.001 0,0.003 0,0.004c0,0.835 0.475,1.607 1.226,2.197c0.44,0.346 0.955,0.617 1.514,0.808l0,-6.014Z" style="fill:#fbd59a;"/><path d="M51.024,29.647l31.286,0l5.117,-6.63l-41.521,-0l5.117,6.63Z" style="fill:#efefef;"/><path d="M82.31,29.647l-9.731,0l5.117,-6.63l9.731,-0l-5.117,6.63Z" style="fill:#dedbdb;"/><path d="M53.137,10.517l-17.718,-0c-2.211,-0 -4.331,0.878 -5.894,2.441c-1.563,1.563 -2.441,3.683 -2.441,5.894l0,3.182c2.286,-2.045 5.252,-3.184 8.335,-3.184c16.01,0 46.486,0 62.496,0c3.083,-0 6.049,1.139 8.335,3.184l-0,-3.182c-0,-2.211 -0.878,-4.331 -2.441,-5.894c-1.563,-1.563 -3.683,-2.441 -5.894,-2.441l-17.718,-0l-3.541,4.634c-0.394,0.516 -1.006,0.818 -1.655,0.818l-16.667,0c-0.649,-0 -1.261,-0.303 -1.655,-0.818l-3.541,-4.634Z" style="fill:#888;"/><path d="M87.498,10.517c0,-0 10.417,0 10.417,0c2.211,-0 4.331,0.878 5.894,2.441c1.563,1.563 2.441,3.683 2.441,5.894l0,3.182c-2.286,-2.045 -5.252,-3.184 -8.335,-3.184l-2.081,-0c-0.001,-2.21 -0.879,-4.329 -2.441,-5.892c-1.563,-1.563 -3.683,-2.441 -5.894,-2.441Z" style="fill:#6f6f6f;"/><path d="M58.381,10.517l0.983,1.286c0,0 14.607,0 14.607,0l0.983,-1.286l-16.572,-0Z" style="fill:#6f6f6f;"/></svg>