<?xml version="1.0" encoding="UTF-8" standalone="no"?><!DOCTYPE svg PUBLIC "-//W3C//DTD SVG 1.1//EN" "http://www.w3.org/Graphics/SVG/1.1/DTD/svg11.dtd"><svg width="100%" height="100%" viewBox="0 0 134 134" version="1.1" xmlns="http://www.w3.org/2000/svg" xmlns:xlink="http://www.w3.org/1999/xlink" xml:space="preserve" xmlns:serif="http://www.serif.com/" style="fill-rule:evenodd;clip-rule:evenodd;stroke-linejoin:round;stroke-miterlimit:2;"><g id="Icon"><path d="M94.227,12.897c-8.264,-4.248 -17.634,-6.647 -27.56,-6.647c-6.99,0 -13.704,1.19 -19.951,3.377c-0.278,-0.605 -0.659,-1.162 -1.129,-1.644c-1.086,-1.113 -2.56,-1.734 -4.096,-1.734c-1.536,-0 -3.01,0.621 -4.096,1.734c-1.068,1.094 -1.672,2.577 -1.672,4.124l-0,2.668c-1.091,0.652 -2.159,1.338 -3.205,2.056l-0.001,-4.738c-0.001,-3.241 -2.591,-5.843 -5.754,-5.843l-0.003,-0c-3.175,0 -5.774,2.612 -5.774,5.865l-0,15.026c-1.123,1.296 -2.191,2.641 -3.202,4.029l-0,-19.062c0,-1.547 -0.604,-3.03 -1.672,-4.124c-1.086,-1.113 -2.56,-1.734 -4.096,-1.734c-3.171,-0 -5.767,2.609 -5.768,5.858l-0,23.675c0,5.068 1.63,7.589 3.872,9.573c-2.502,6.628 -3.872,13.811 -3.872,21.311c-0,14.356 5.018,27.549 13.394,37.92c-1.547,9.149 -3.66,14.979 -3.66,14.979c-0.355,0.977 0.065,2.067 0.984,2.553l8.925,4.722c0.609,0.322 1.338,0.323 1.947,0.001l8.947,-4.722c0.86,-0.454 1.283,-1.435 1.046,-2.358c8.572,4.668 18.395,7.321 28.834,7.321c10.778,0 20.9,-2.828 29.663,-7.782c-0.112,0.366 -0.175,0.557 -0.175,0.557c-0.324,0.98 0.119,2.05 1.041,2.515l8.907,4.487c0.589,0.297 1.283,0.297 1.873,0.001l8.93,-4.487c0.923,-0.464 1.367,-1.535 1.043,-2.516c0,0 -2.081,-6.307 -3.666,-16.018c8.019,-10.255 12.801,-23.16 12.801,-37.174c0,-6.006 -0.879,-11.808 -2.514,-17.285c1.595,-4.165 2.514,-8.986 2.514,-14.125c0,-9.499 -3.147,-17.906 -7.898,-23.128c-3.396,-3.733 -7.615,-5.879 -12.145,-5.879c-4.53,0 -8.749,2.146 -12.145,5.879c-0.227,0.249 -0.45,0.505 -0.668,0.768Z"/><path d="M100.282,100.801c-8.653,8.522 -20.525,13.782 -33.615,13.782c-12.87,0 -24.563,-5.085 -33.174,-13.353c0.704,5.128 1.675,9.442 2.513,12.592c8.821,5.751 19.353,9.094 30.661,9.094c11.553,0 22.297,-3.49 31.234,-9.473c0.774,-3.243 1.668,-7.57 2.381,-12.642Z" style="fill:#fbd59a;"/><path d="M100.257,100.973c-0.709,4.997 -1.592,9.263 -2.357,12.47c-8.937,5.983 -19.681,9.473 -31.234,9.473c-1.538,0 -3.061,-0.062 -4.566,-0.183c9.813,-0.79 18.919,-4.103 26.666,-9.29c1.656,-1.109 10.81,-8.482 11.491,-12.47Z" style="fill:#f1c889;"/><path d="M120.509,48.33c1.533,-3.818 2.407,-8.293 2.407,-13.073c0,-8.332 -2.647,-15.744 -6.814,-20.324c-2.549,-2.802 -5.663,-4.516 -9.063,-4.516c-3.4,0 -6.514,1.715 -9.063,4.516c-4.167,4.58 -6.814,11.992 -6.814,20.324c0,6.497 1.615,12.432 4.304,16.915l0,0.001c0.022,0.037 11.054,18.521 10.112,37.036c-0.095,1.871 -0.228,3.694 -0.39,5.459c-1.089,11.85 -3.49,21.097 -4.553,24.774c0,0 6.406,3.227 6.406,3.227c0,0 6.426,-3.229 6.426,-3.228c-1.222,-4.226 -4.209,-15.803 -4.944,-30.231c-0.876,-17.207 8.59,-34.387 9.95,-36.759c0.038,-0.095 0.085,-0.188 0.139,-0.278c0.652,-1.087 1.24,-2.259 1.758,-3.504c0.036,-0.117 0.082,-0.23 0.138,-0.338Z" style="fill:#d8d8d8;"/><path d="M104.622,10.71c0.787,-0.193 1.594,-0.293 2.418,-0.293c3.4,0 6.514,1.715 9.063,4.516c4.167,4.58 6.814,11.992 6.814,20.324c0,4.78 -0.874,9.255 -2.407,13.073c-0.056,0.108 -0.102,0.222 -0.138,0.338c-0.518,1.245 -1.107,2.417 -1.758,3.504c-0.054,0.09 -0.1,0.183 -0.139,0.278c-1.36,2.372 -10.827,19.552 -9.95,36.759c0.735,14.428 3.722,26.005 4.944,30.231c-0,-0.001 -6.426,3.228 -6.426,3.228l-2.415,-1.217c1.821,-0.915 4.004,-2.012 4.004,-2.011c-0.908,-3.138 -2.788,-10.33 -3.997,-19.733c0.208,-1.617 0.396,-3.3 0.556,-5.04c0.162,-1.765 0.295,-3.588 0.39,-5.459c0.215,-4.214 -0.191,-8.427 -0.946,-12.421c2.328,-12.313 7.977,-22.547 9.004,-24.338c0.038,-0.095 0.085,-0.188 0.139,-0.278c0.652,-1.087 1.24,-2.259 1.758,-3.504c0.036,-0.117 0.082,-0.23 0.138,-0.338c1.533,-3.818 2.407,-8.293 2.407,-13.073c0,-8.332 -2.647,-15.744 -6.814,-20.324c-1.931,-2.122 -4.187,-3.621 -6.645,-4.223Z" style="fill:#bfbfbf;"/><path d="M39.89,12.108l-0,19.902c0,1.547 -0.604,3.03 -1.672,4.124c-1.086,1.113 -2.56,1.734 -4.096,1.734c-0.001,0 -0.003,0 -0.004,0c-3.169,-0 -5.764,-2.607 -5.764,-5.853l-0.003,-19.921c-0,-0.913 -0.697,-1.677 -1.587,-1.677c0,0 -0.003,0 -0.003,0c-0.902,0 -1.607,0.774 -1.607,1.698l-0,19.895c0,1.547 -0.604,3.03 -1.672,4.124c-1.086,1.113 -2.56,1.734 -4.096,1.734c-1.536,0 -3.01,-0.621 -4.096,-1.734c-1.068,-1.094 -1.672,-2.577 -1.672,-4.124l-0,-19.902c0,-0.455 -0.173,-0.892 -0.487,-1.214c-0.296,-0.303 -0.696,-0.477 -1.114,-0.477c-0.898,0 -1.601,0.771 -1.601,1.691l0,23.675c0,5.198 2.51,6.568 5.163,8.517c2.347,1.725 4.817,3.774 6.607,7.794l0,0c4.263,9.576 3.667,15.994 3.324,29.558c0.035,0.239 0.028,0.477 -0.017,0.706c-0.037,1.536 -0.07,3.16 -0.091,4.888c-0.192,15.357 -3.56,27.635 -4.929,32.013c0,0 6.396,3.384 6.396,3.384c0,0 6.396,-3.376 6.396,-3.375c-1.43,-4.401 -4.909,-16.685 -4.909,-32.048c0,-13.964 -1.353,-24.214 2.347,-34.958c1.462,-4.243 4.009,-6.375 6.579,-8.125c2.832,-1.929 5.811,-3.162 5.811,-8.35l0,-23.679c0,-0.455 -0.173,-0.892 -0.487,-1.214c-0.296,-0.303 -0.696,-0.477 -1.114,-0.477c-0.419,0 -0.818,0.174 -1.114,0.477c-0.314,0.322 -0.487,0.759 -0.487,1.214Z" style="fill:#d8d8d8;"/><path d="M37.109,37.022c0.401,-0.246 0.774,-0.543 1.11,-0.888c1.068,-1.094 1.672,-2.577 1.672,-4.124l0,-19.902c-0,-0.455 0.173,-0.892 0.487,-1.214c0.296,-0.303 0.696,-0.477 1.114,-0.477c0.419,0 0.818,0.174 1.114,0.477c0.314,0.322 0.487,0.759 0.487,1.214l-0,23.679c-0,5.188 -2.979,6.421 -5.811,8.35c-2.57,1.751 -5.117,3.882 -6.579,8.125c-3.7,10.743 -2.347,20.994 -2.347,34.958c0,15.363 3.479,27.647 4.909,32.048c-0,-0.001 -6.396,3.375 -6.396,3.375l-2.957,-1.565c1.673,-0.883 3.431,-1.811 3.431,-1.811c-0.83,-2.552 -2.348,-7.757 -3.478,-14.675c0.817,-5.004 1.456,-10.904 1.537,-17.347c0.022,-1.728 0.054,-3.352 0.091,-4.888c0.045,-0.229 0.053,-0.468 0.017,-0.706c0.295,-11.674 0.778,-18.055 -1.812,-25.712c0.301,-1.224 0.658,-2.447 1.082,-3.678c1.462,-4.243 4.009,-6.375 6.579,-8.125c2.593,-1.766 5.308,-2.949 5.749,-7.116Z" style="fill:#bfbfbf;"/><path d="M87.585,28.239c-6.215,-3.394 -13.343,-5.323 -20.918,-5.323c-6.968,0 -13.558,1.632 -19.408,4.536l-0,8.335c-0,6.123 -2.726,8.491 -5.97,10.683c-2.403,1.624 -5.239,3.061 -6.647,7.149c-3.556,10.324 -2.12,20.183 -2.12,33.601c0,2.455 0.092,4.828 0.253,7.1c8.025,9.821 20.232,16.096 33.892,16.096c13.97,0 26.419,-6.562 34.43,-16.767c0.132,-1.511 0.241,-3.064 0.321,-4.653c0.884,-17.363 -9.525,-34.683 -9.525,-34.683c0.329,0.55 0.33,0.55 0,0.001c-3.031,-5.055 -4.897,-11.733 -4.897,-19.058c0,-2.421 0.205,-4.772 0.588,-7.017Z" style="fill:#fef1da;"/><path d="M83.704,26.363c1.329,0.563 2.623,1.189 3.881,1.876c-0.384,2.245 -0.588,4.596 -0.588,7.017c0,7.325 1.866,14.003 4.897,19.058c0.329,0.549 0.329,0.549 -0,-0.001c-0,0 10.409,17.319 9.525,34.683c-0.081,1.589 -0.19,3.142 -0.321,4.653c-1.345,1.713 -2.815,3.324 -4.398,4.819c0.132,-1.512 0.401,-7.883 0.482,-9.471c0.884,-17.363 -9.525,-34.683 -9.525,-34.683c0.329,0.55 0.33,0.55 0,0.001c-3.031,-5.055 -4.897,-11.733 -4.897,-19.058c0,-2.421 0.561,-6.648 0.944,-8.893Z" style="fill:#ece2cf;"/><path d="M60.417,37.5l0,8.333l-10.417,0c-1.15,-0 -2.083,0.934 -2.083,2.083c-0,1.15 0.934,2.083 2.083,2.083l2.083,0l0,8.333l-6.25,0c-1.15,-0 -2.083,0.934 -2.083,2.083c-0,1.15 0.934,2.083 2.083,2.083l14.583,0l0,8.333l-10.417,0c-1.15,0 -2.083,0.934 -2.083,2.083c0,1.15 0.934,2.083 2.083,2.083l22.917,0l0,8.333l-27.083,0c-1.15,-0 -2.083,0.934 -2.083,2.083c-0,1.15 0.934,2.083 2.083,2.083l18.75,0l0,10.417l-12.175,0c-1.15,0 -2.083,0.934 -2.083,2.083c0,1.15 0.934,2.083 2.083,2.083l28.516,0c1.15,0 2.083,-0.934 2.083,-2.083c0,-1.15 -0.934,-2.083 -2.083,-2.083l-12.175,0c0,-0 0,-10.417 0,-10.417l18.75,0c1.15,-0 2.083,-0.934 2.083,-2.083c-0,-1.15 -0.934,-2.083 -2.083,-2.083l-10.417,0l0,-8.333l6.25,0c1.15,0 2.083,-0.934 2.083,-2.083c0,-1.15 -0.934,-2.083 -2.083,-2.083l-18.75,0l0,-8.333l22.917,0c1.15,-0 2.083,-0.934 2.083,-2.083c-0,-1.15 -0.934,-2.083 -2.083,-2.083l-31.25,0l0,-8.333l27.083,0c1.15,-0 2.083,-0.934 2.083,-2.083c-0,-1.15 -0.934,-2.083 -2.083,-2.083l-18.75,0l0,-8.333l14.583,0c1.15,0 2.083,-0.934 2.083,-2.083c0,-1.15 -0.934,-2.083 -2.083,-2.083l-25,0c-1.15,0 -2.083,0.934 -2.083,2.083c0,1.15 0.934,2.083 2.083,2.083l6.25,0Z"/><path d="M13.593,48c-2.057,5.842 -3.176,12.125 -3.176,18.667c0,11.927 3.72,22.992 10.061,32.095c0.418,-3.558 0.706,-7.447 0.758,-11.567c0.022,-1.765 0.059,-3.415 0.101,-4.97c-1.676,-4.879 -2.587,-10.113 -2.587,-15.557c0,-3.266 0.328,-6.456 0.952,-9.539c-0.371,-1.078 -0.808,-2.184 -1.322,-3.339l-0,-0c-1.291,-2.899 -3.061,-4.496 -4.787,-5.789Z" style="fill:#fbd59a;"/><path d="M121.734,55.146c-2.028,3.648 -9.819,18.733 -9.049,33.851c0.159,3.121 0.426,6.105 0.759,8.903c5.982,-8.936 9.472,-19.68 9.472,-31.233c-0,-3.948 -0.407,-7.802 -1.183,-11.521Z" style="fill:#f1c889;"/><path d="M107.04,16.198c-2.709,0 -5.261,1.37 -7.292,3.835c-2.64,3.204 -4.418,8.356 -4.418,14.185c0,5.829 1.778,10.981 4.418,14.185c2.031,2.465 4.583,3.835 7.292,3.835c2.709,0 5.261,-1.37 7.292,-3.835c2.64,-3.204 4.418,-8.356 4.418,-14.185c0,-5.829 -1.778,-10.981 -4.418,-14.185c-2.031,-2.465 -4.583,-3.835 -7.292,-3.835Z"/><path d="M107.04,20.364c1.542,0 2.92,0.915 4.076,2.318c2.14,2.598 3.467,6.81 3.467,11.536c0,4.726 -1.327,8.938 -3.467,11.536c-1.156,1.403 -2.534,2.318 -4.076,2.318c-1.542,0 -2.92,-0.915 -4.076,-2.318c-2.14,-2.598 -3.467,-6.81 -3.467,-11.536c0,-4.726 1.327,-8.938 3.467,-11.536c1.156,-1.403 2.534,-2.318 4.076,-2.318Z" style="fill:#fff;"/><path d="M104.622,21.145c0.748,-0.496 1.558,-0.781 2.418,-0.781c1.542,0 2.92,0.915 4.076,2.318c2.14,2.598 3.467,6.81 3.467,11.536c0,4.726 -1.327,8.938 -3.467,11.536c-1.156,1.403 -2.534,2.318 -4.076,2.318c-0.86,0 -1.67,-0.285 -2.418,-0.781c0.592,-0.392 1.147,-0.917 1.657,-1.537c2.14,-2.598 3.467,-6.81 3.467,-11.536c0,-4.726 -1.327,-8.938 -3.467,-11.536c-0.511,-0.62 -1.065,-1.145 -1.657,-1.537Z" style="fill:#efefef;"/><path d="M35.724,19.696c-1.095,0.723 -2.164,1.484 -3.204,2.28l0.001,10.037c0,0.302 0.076,0.589 0.21,0.837c0.958,-0.961 1.956,-1.882 2.992,-2.759l0,-10.395Z" style="fill:#fbd59a;"/><path d="M91.812,16.344c-7.569,-3.793 -16.11,-5.927 -25.145,-5.927c-6.82,0 -13.357,1.216 -19.408,3.443l-0,8.99c5.934,-2.635 12.501,-4.1 19.408,-4.1c7.88,0 15.317,1.906 21.878,5.282c0.814,-2.824 1.924,-5.415 3.267,-7.688Z" style="fill:#fbd59a;"/><path d="M62.099,10.6c1.506,-0.121 3.03,-0.183 4.568,-0.183c9.035,0 17.576,2.134 25.145,5.927c-0.86,1.457 -1.625,3.044 -2.278,4.74c-2.915,-2.346 -5.935,-4.278 -6.856,-4.74c-6.281,-3.147 -13.231,-5.153 -20.578,-5.744Z" style="fill:#f1c889;"/></g></svg>