<?xml version="1.0" encoding="UTF-8" standalone="no"?><!DOCTYPE svg PUBLIC "-//W3C//DTD SVG 1.1//EN" "http://www.w3.org/Graphics/SVG/1.1/DTD/svg11.dtd"><svg width="100%" height="100%" viewBox="0 0 134 134" version="1.1" xmlns="http://www.w3.org/2000/svg" xmlns:xlink="http://www.w3.org/1999/xlink" xml:space="preserve" xmlns:serif="http://www.serif.com/" style="fill-rule:evenodd;clip-rule:evenodd;stroke-linejoin:round;stroke-miterlimit:2;"><g id="Icon"><g><path d="M94.417,46.35c2.778,0.967 5.972,0.58 8.5,-1.316c0.92,-0.69 1.107,-1.997 0.417,-2.917c-0.69,-0.92 -1.997,-1.107 -2.917,-0.417c-2.197,1.648 -5.319,1.202 -6.966,-0.996c-1.648,-2.197 -1.202,-5.319 0.996,-6.966c0.92,-0.69 1.107,-1.997 0.417,-2.917c-0.69,-0.92 -1.997,-1.107 -2.917,-0.417c-4.037,3.027 -4.857,8.763 -1.829,12.8c0.044,0.059 0.088,0.116 0.133,0.173l0,6.329c-12.363,0.99 -22.227,10.717 -23.246,22.891l-2.311,0c-1.151,0 -2.083,0.933 -2.083,2.083l0,12.923c0,1.151 0.933,2.083 2.083,2.083l2.224,0l0,9.977c-9.799,-7.666 -16.103,-19.602 -16.103,-32.998c0,-23.113 18.765,-41.878 41.878,-41.878c8.632,0 16.657,2.617 23.323,7.1c0.854,0.575 2.001,0.439 2.697,-0.32c0.697,-0.758 0.734,-1.912 0.089,-2.714c-11.075,-13.779 -28.07,-22.604 -47.109,-22.604c-33.345,0 -60.417,27.072 -60.417,60.417c-0,33.345 27.072,60.417 60.417,60.417c19.039,0 36.034,-8.825 47.109,-22.604c0.645,-0.803 0.607,-1.956 -0.089,-2.714c-0.268,-0.292 -0.603,-0.492 -0.962,-0.594l0,-11.483l2.224,0c1.151,0 2.083,-0.933 2.083,-2.083l0,-12.923c0,-1.151 -0.933,-2.083 -2.083,-2.083l-2.311,0c-1.018,-12.172 -10.881,-21.9 -23.246,-22.891l-0,-3.357Z"/><path d="M80.858,11.161c-2.982,-0.49 -6.044,-0.744 -9.165,-0.744c-11.496,0 -22.191,3.456 -31.1,9.384l5.511,6.364c0.753,0.869 0.658,2.186 -0.211,2.939c-0.869,0.753 -2.186,0.658 -2.939,-0.211l-5.756,-6.647c-11.137,8.664 -18.935,21.421 -21.127,36.001l11.298,0c1.15,-0 2.083,0.934 2.083,2.083c0,1.15 -0.934,2.083 -2.083,2.083l-11.766,0c-0.105,1.404 -0.159,2.823 -0.159,4.254c0,16.1 6.779,30.629 17.636,40.887l6.951,-8.842c0.711,-0.904 2.021,-1.061 2.925,-0.35c0.904,0.711 1.061,2.021 0.35,2.925l-7.09,9.018c9.04,7.36 20.406,11.97 32.819,12.549l0.662,-4.654c0.162,-1.138 1.218,-1.931 2.356,-1.769c1.138,0.162 1.931,1.218 1.769,2.356l-0.585,4.108c12.774,-0.345 24.492,-4.958 33.776,-12.462l-0.017,0.009c-4.503,1.472 -9.311,2.268 -14.303,2.268c-25.413,0 -46.045,-20.632 -46.045,-46.045c0,-25.413 20.632,-46.045 46.045,-46.045c4.994,0 9.803,0.797 14.317,2.275c-6.362,-5.141 -13.866,-8.925 -22.068,-10.908l-0.744,3.563c-0.235,1.126 -1.34,1.849 -2.465,1.613c-1.126,-0.235 -1.849,-1.34 -1.613,-2.465l0.739,-3.539Z" style="fill:#fbd59a;"/><path d="M88.526,112.525c-1.373,0.123 -2.763,0.186 -4.167,0.186c-25.413,0 -46.045,-20.632 -46.045,-46.045c0,-25.413 20.632,-46.045 46.045,-46.045c1.404,0 2.794,0.063 4.167,0.186c-23.465,2.11 -41.878,21.851 -41.878,45.858c0,24.007 18.413,43.748 41.879,45.858Z" style="fill:#f0bf73;"/><path d="M113.583,93.75l0,-4.062l-42.5,0l0,4.062l24.75,0c1.15,0 2.083,0.934 2.083,2.083c-0,1.15 -0.934,2.083 -2.083,2.083l-24.75,0l0,4.622c6.312,3.813 13.706,6.006 21.609,6.006c7.606,0 14.742,-2.032 20.891,-5.582l0,-5.046l-5.25,0c-1.15,0 -2.083,-0.934 -2.083,-2.083c-0,-1.15 0.934,-2.083 2.083,-2.083l5.25,0Z" style="fill:#fef1da;"/><path d="M113.583,89.688l0,4.062l-5.25,0c-1.15,0 -2.083,0.934 -2.083,2.083c0,1.15 0.934,2.083 2.083,2.083l5.25,0l0,5.046c-6.149,3.55 -13.285,5.582 -20.891,5.582c-1.406,0 -2.796,-0.069 -4.167,-0.205c6.045,-0.598 11.712,-2.483 16.724,-5.377l0,-13.275l8.333,0Z" style="fill:#f4dfba;"/><path d="M114.519,85.521l3.372,-0l0,-8.756l-51.115,0c0,0 0,8.756 0,8.756l3.372,-0l0,-1.226c0,-1.15 0.934,-2.083 2.083,-2.083c1.15,0 2.083,0.934 2.083,2.083l0,1.226l5.885,-0l0,-1.226c-0,-1.15 0.934,-2.083 2.083,-2.083c1.15,-0 2.083,0.934 2.083,2.083l0,1.226l5.885,-0l0,-1.226c0,-1.15 0.934,-2.083 2.083,-2.083c1.15,0 2.083,0.934 2.083,2.083l0,1.226l5.885,-0l0,-1.226c-0,-1.15 0.934,-2.083 2.083,-2.083c1.15,-0 2.083,0.934 2.083,2.083l0,1.226l5.885,-0l0,-1.226c0,-1.15 0.934,-2.083 2.083,-2.083c1.15,0 2.083,0.934 2.083,2.083l0,1.226Z" style="fill:#fbd59a;"/><path d="M109.558,76.765l0,8.756l0,0l0.795,-0l0,-1.226c0,-1.15 0.934,-2.083 2.083,-2.083c1.15,0 2.083,0.934 2.083,2.083l0,1.226l3.372,-0l0,-8.756l-8.333,0Z" style="fill:#f0bf73;"/><path d="M113.479,72.598c-1.064,-10.56 -10.14,-18.808 -21.145,-18.808c-11.006,0 -20.081,8.248 -21.145,18.808l42.291,0Z" style="fill:#fff;"/><path d="M88.167,54.193c1.349,-0.264 2.741,-0.402 4.167,-0.402c11.006,0 20.081,8.248 21.145,18.808l-8.333,0c-0.927,-9.193 -7.924,-16.633 -16.979,-18.405Z" style="fill:#efefef;"/></g></g></svg>