<?xml version="1.0" encoding="UTF-8" standalone="no"?><!DOCTYPE svg PUBLIC "-//W3C//DTD SVG 1.1//EN" "http://www.w3.org/Graphics/SVG/1.1/DTD/svg11.dtd"><svg width="100%" height="100%" viewBox="0 0 134 134" version="1.1" xmlns="http://www.w3.org/2000/svg" xmlns:xlink="http://www.w3.org/1999/xlink" xml:space="preserve" xmlns:serif="http://www.serif.com/" style="fill-rule:evenodd;clip-rule:evenodd;stroke-linejoin:round;stroke-miterlimit:2;"><g id="Icon"><path d="M74.423,35.059c-0,0 -0,0.358 -0,0.358l-15.513,0l0,-0.358c-0,-3.819 -0.963,-7.429 -2.668,-10.614l-0.082,-0.153c-4.051,-7.431 -12.165,-12.52 -21.53,-12.52c-13.427,0 -24.281,10.461 -24.281,23.287c-0,0 -0,59.818 -0,59.818c-2.4,0.951 -4.098,3.293 -4.098,6.031l-0,7.526c0,1.151 0.933,2.083 2.083,2.083l24.213,0l0,8.961c-0,1.15 0.934,2.083 2.083,2.083c1.15,0 2.083,-0.934 2.083,-2.083l0,-8.961l24.213,0c1.151,0 2.083,-0.933 2.083,-2.083l-0,-7.526c-0,-2.739 -1.698,-5.081 -4.098,-6.031l0,-21.96l15.513,0l0,21.96c-2.4,0.951 -4.098,3.293 -4.098,6.031l-0,7.526c0,1.151 0.933,2.083 2.083,2.083l24.213,0l0,8.961c-0,1.15 0.934,2.083 2.083,2.083c1.15,0 2.083,-0.934 2.083,-2.083l0,-8.961l24.213,0c1.151,0 2.083,-0.933 2.083,-2.083l-0,-7.526c-0,-2.739 -1.698,-5.081 -4.098,-6.031l0,-59.818c-0,-3.819 -0.963,-7.429 -2.668,-10.614l-0.082,-0.153c-4.051,-7.431 -12.165,-12.52 -21.53,-12.52c-13.427,0 -24.281,10.461 -24.281,23.287Z"/><path d="M120.599,98.59l-43.789,0c-1.28,0 -2.318,1.038 -2.318,2.318c0,0 -0,5.442 -0,5.442l3.005,-0l0,-0.971c0,-1.15 0.934,-2.083 2.083,-2.083c1.15,0 2.083,0.934 2.083,2.083l0,0.971l5.395,-0l0,-0.971c-0,-1.15 0.934,-2.083 2.083,-2.083c1.15,-0 2.083,0.934 2.083,2.083l0,0.971l5.395,-0l0,-0.971c-0,-1.15 0.934,-2.083 2.083,-2.083c1.15,-0 2.083,0.934 2.083,2.083l0,0.971l5.395,-0l0,-0.971c-0,-1.15 0.934,-2.083 2.083,-2.083c1.15,-0 2.083,0.934 2.083,2.083l0,0.971l5.395,-0l0,-0.971c-0,-1.15 0.934,-2.083 2.083,-2.083c1.15,-0 2.083,0.934 2.083,2.083l0,0.971l3.005,-0l-0,-5.442c-0,-1.28 -1.038,-2.318 -2.318,-2.318Z" style="fill:#fbd59a;"/><path d="M110.327,98.59l10.272,-0c1.28,0 2.318,1.038 2.318,2.318l0,5.442l-3.005,0l0,-0.971c-0,-1.15 -0.934,-2.083 -2.083,-2.083c-1.15,0 -2.083,0.934 -2.083,2.083l0,0.971l-3.101,0l-0,-0l-0,-5.442c-0,-1.28 -1.038,-2.318 -2.318,-2.318Z" style="fill:#f1c889;"/><path d="M56.524,98.59l-43.789,0c-1.28,0 -2.318,1.038 -2.318,2.318c0,0 -0,5.442 -0,5.442l3.005,-0l0,-0.971c0,-1.15 0.934,-2.083 2.083,-2.083c1.15,0 2.083,0.934 2.083,2.083l0,0.971l5.395,-0l0,-0.971c0,-1.15 0.934,-2.083 2.083,-2.083c1.15,0 2.083,0.934 2.083,2.083l0,0.971l5.395,-0l0,-0.971c-0,-1.15 0.934,-2.083 2.083,-2.083c1.15,-0 2.083,0.934 2.083,2.083l0,0.971l5.395,-0l0,-0.971c-0,-1.15 0.934,-2.083 2.083,-2.083c1.15,-0 2.083,0.934 2.083,2.083l0,0.971l5.395,-0l0,-0.971c-0,-1.15 0.934,-2.083 2.083,-2.083c1.15,-0 2.083,0.934 2.083,2.083l0,0.971l3.005,-0l-0,-5.442c-0,-1.28 -1.038,-2.318 -2.318,-2.318Z" style="fill:#fbd59a;"/><path d="M50.478,94.424l4.266,0l0,-2.362l-4.266,2.362Z" style="fill:#d8d8d8;"/><path d="M114.553,94.424l4.266,0l0,-2.362l-4.266,2.362Z" style="fill:#ece2cf;"/><path d="M43.75,81.551l-23.253,12.872l21.378,0l1.876,-1.038l0,-11.834Z" style="fill:#fff;"/><path d="M107.825,81.551l-23.253,12.872l21.378,0l1.876,-1.038l0,-11.834Z" style="fill:#fff;"/><path d="M78.59,81.76l0,11.213l8.402,-4.651l0,-11.213l-8.402,4.651Z" style="fill:#d8d8d8;"/><path d="M14.515,81.76l0,11.213l8.402,-4.651l0,-11.213l-8.402,4.651Z" style="fill:#d8d8d8;"/><path d="M111.992,79.245l0,11.834l6.827,-3.779l0,-11.834l-6.827,3.779Z" style="fill:#a2a2a2;"/><path d="M47.917,79.245l0,11.834l6.827,-3.779l0,-11.834l-6.827,3.779Z" style="fill:#d8d8d8;"/><path d="M118.819,59.49l-27.66,15.312l0,11.213l27.66,-15.312l0,-11.213Z" style="fill:#fff;"/><path d="M118.819,59.49l-6.827,3.779l0,11.213l6.827,-3.779l0,-11.213Z" style="fill:#ece2cf;"/><path d="M54.744,59.49l-27.66,15.312l0,11.213l27.66,-15.312l0,-11.213Z" style="fill:#fff;"/><path d="M99.492,54.206l-20.902,11.571l0,11.221l20.902,-11.571l0,-11.221Z" style="fill:#fff;"/><path d="M35.417,54.206l-20.902,11.571l0,11.221l20.902,-11.571l0,-11.221Z" style="fill:#fff;"/><rect x="58.91" y="56.25" width="15.513" height="12.5" style="fill:#d8d8d8;"/><path d="M103.658,51.899l0,11.221l15.16,-8.392l0,-11.221l-15.16,8.392Z" style="fill:#d8d8d8;"/><path d="M111.992,47.265l0,11.242l6.827,-3.779l0,-11.221l-6.827,3.759Z" style="fill:#a2a2a2;"/><path d="M54.744,54.728l0,-11.221l-15.16,8.392l0,11.221l15.16,-8.392Z" style="fill:#d8d8d8;"/><path d="M14.515,49.801l0,11.213l8.402,-4.651l0,-11.213l-8.402,4.651Z" style="fill:#d8d8d8;"/><path d="M78.59,49.801l0,11.213l8.402,-4.651l0,-11.213l-8.402,4.651Z" style="fill:#d8d8d8;"/><path d="M117.508,28.257l-26.35,14.586l0,11.213l27.66,-15.312l0,-3.686c0,-2.397 -0.464,-4.69 -1.311,-6.802Z" style="fill:#fff;"/><path d="M110.688,32.032l6.82,-3.775c0.847,2.112 1.311,4.404 1.311,6.802l0,3.686l-6.806,3.768l-0.021,-0.01l0,-3.686c0,-2.391 -0.462,-4.677 -1.304,-6.784Z" style="fill:#ece2cf;"/><path d="M53.433,28.257l-26.35,14.586l0,11.213l27.66,-15.312l0,-3.686c0,-2.397 -0.464,-4.69 -1.311,-6.802Z" style="fill:#fff;"/><rect x="58.91" y="39.583" width="15.513" height="12.5" style="fill:#d8d8d8;"/><rect x="66.611" y="56.25" width="7.813" height="12.5" style="fill:#a2a2a2;"/><rect x="66.611" y="39.583" width="7.813" height="12.5" style="fill:#a2a2a2;"/><path d="M35.417,21.029l-20.723,11.472c-0.118,0.837 -0.178,1.691 -0.178,2.558l0,9.98l20.906,-11.573c-0.003,-0.044 -0.004,-0.088 -0.004,-0.132l0,-12.304Z" style="fill:#fff;"/><path d="M99.492,21.029l-20.723,11.472c-0.118,0.837 -0.178,1.691 -0.178,2.558l0,9.98l20.906,-11.573c-0.003,-0.044 -0.004,-0.088 -0.004,-0.132l0,-12.304Z" style="fill:#fff;"/><path d="M42.127,17.314l-2.544,1.408l0,12.439l11.876,-6.574c-2.242,-3.248 -5.497,-5.806 -9.332,-7.273Z" style="fill:#d8d8d8;"/><path d="M106.202,17.314l-2.544,1.408l0,12.439l11.876,-6.574c-2.242,-3.248 -5.497,-5.806 -9.332,-7.273Z" style="fill:#d8d8d8;"/><path d="M103.658,23.322l0,-4.599l2.544,-1.408c3.835,1.467 7.089,4.025 9.332,7.273l-6.774,3.75l-0.053,0.008c-1.348,-1.953 -3.063,-3.657 -5.049,-5.023Z" style="fill:#a2a2a2;"/><path d="M35.937,15.979c-0.433,-0.026 -0.869,-0.04 -1.307,-0.04c-7.947,0 -14.845,4.397 -18.108,10.787l19.415,-10.747Z" style="fill:#d8d8d8;"/><path d="M100.012,15.979c-0.433,-0.026 -0.869,-0.04 -1.307,-0.04c-7.947,0 -14.845,4.397 -18.108,10.787l19.415,-10.747Z" style="fill:#d8d8d8;"/><path d="M85.422,20.705c3.548,-2.968 8.201,-4.766 13.283,-4.766c0.439,0 0.874,0.013 1.307,0.04l-6.749,3.736l-0.078,0.022c-0.433,-0.026 -0.869,-0.04 -1.307,-0.04c-2.256,0 -4.428,0.354 -6.456,1.008Z" style="fill:#a2a2a2;"/><path d="M50.478,94.424l4.266,0l0,-2.362l-4.266,2.362Z" style="fill:#ece2cf;"/><path d="M47.917,79.245l0,11.834l6.827,-3.779l0,-11.834l-6.827,3.779Z" style="fill:#a2a2a2;"/><path d="M54.744,59.49l-6.827,3.779l0,11.213l6.827,-3.779l0,-11.213Z" style="fill:#ece2cf;"/><path d="M47.917,47.265l0,11.242l6.827,-3.779l0,-11.221l-6.827,3.759Z" style="fill:#a2a2a2;"/><path d="M46.613,32.032l6.82,-3.775c0.847,2.112 1.311,4.404 1.311,6.802l0,3.686l-6.806,3.768l-0.021,-0.01l0,-3.686c0,-2.391 -0.462,-4.677 -1.304,-6.784Z" style="fill:#ece2cf;"/><path d="M39.583,23.322l0,-4.599l2.544,-1.408c3.835,1.467 7.089,4.025 9.332,7.273l-6.774,3.75l-0.053,0.008c-1.348,-1.953 -3.063,-3.657 -5.049,-5.023Z" style="fill:#a2a2a2;"/><path d="M21.347,20.705c3.548,-2.968 8.201,-4.766 13.283,-4.766c0.439,0 0.874,0.013 1.307,0.04l-6.749,3.736l-0.078,0.022c-0.433,-0.026 -0.869,-0.04 -1.307,-0.04c-2.256,0 -4.428,0.354 -6.456,1.008Z" style="fill:#a2a2a2;"/><path d="M46.32,98.59l10.272,-0c1.28,0 2.318,1.038 2.318,2.318l0,5.442l-3.005,0l0,-0.971c-0,-1.15 -0.934,-2.083 -2.083,-2.083c-1.15,0 -2.083,0.934 -2.083,2.083l0,0.971l-3.101,0l-0,-0l-0,-5.442c-0,-1.28 -1.038,-2.318 -2.318,-2.318Z" style="fill:#f1c889;"/></g></svg>