<?xml version="1.0" encoding="UTF-8" standalone="no"?><!DOCTYPE svg PUBLIC "-//W3C//DTD SVG 1.1//EN" "http://www.w3.org/Graphics/SVG/1.1/DTD/svg11.dtd"><svg width="100%" height="100%" viewBox="0 0 134 134" version="1.1" xmlns="http://www.w3.org/2000/svg" xmlns:xlink="http://www.w3.org/1999/xlink" xml:space="preserve" xmlns:serif="http://www.serif.com/" style="fill-rule:evenodd;clip-rule:evenodd;stroke-linejoin:round;stroke-miterlimit:2;"><g id="Icon"><path d="M41.561,14.583l-24.895,0c-1.151,0 -2.083,0.933 -2.083,2.083l0,24.895l-7.723,7.723c-0.391,0.391 -0.61,0.921 -0.61,1.473l0,31.818c0,0.553 0.219,1.082 0.61,1.473l7.723,7.723l0,24.895c0,1.151 0.933,2.083 2.083,2.083l24.895,0l7.723,7.723c0.391,0.391 0.921,0.61 1.473,0.61l31.818,0c0.553,0 1.082,-0.219 1.473,-0.61l7.723,-7.723l24.895,0c1.151,0 2.083,-0.933 2.083,-2.083l0,-24.895l7.723,-7.723c0.391,-0.391 0.61,-0.921 0.61,-1.473l0,-31.818c0,-0.553 -0.219,-1.082 -0.61,-1.473l-7.723,-7.723l0,-24.895c0,-1.151 -0.933,-2.083 -2.083,-2.083l-24.895,0l-7.723,-7.723c-0.391,-0.391 -0.921,-0.61 -1.473,-0.61l-31.818,0c-0.553,0 -1.082,0.219 -1.473,0.61l-7.723,7.723Z"/><path d="M56.688,111.174l-3.202,11.742l26.363,0l-3.202,-11.742l-19.958,0Z" style="fill:#d8d8d8;"/><path d="M12.345,83.641l37.347,37.347l3.076,-11.279l-29.144,-29.144l-11.279,3.076Z" style="fill:#d8d8d8;"/><path d="M80.565,109.709l3.076,11.279l37.347,-37.347l-11.279,-3.076l-29.144,29.144Z" style="fill:#d8d8d8;"/><path d="M114.583,95.939l-18.645,18.645l18.645,0l0,-18.645Z" style="fill:#fbd59a;"/><path d="M37.395,114.583l-18.645,-18.645l-0,18.645l18.645,0Z" style="fill:#fbd59a;"/><path d="M77.374,26.326l29.634,29.634c-0,-0 -0,21.415 -0,21.415c0,-0 -29.634,29.634 -29.634,29.634c0,-0 -21.415,-0 -21.415,-0c0,0 -29.634,-29.634 -29.634,-29.634c0,0 0,-21.415 0,-21.415c-0,0 29.634,-29.634 29.634,-29.634l21.415,-0Z" style="fill:#fff;"/><path d="M71.518,26.326l29.634,29.634c-0,-0 -0,21.415 -0,21.415c0,-0 -29.634,29.634 -29.634,29.634c0,-0 6.246,0 6.246,0l29.243,-29.634c0,0 0,-21.415 0,-21.415c0,0 -29.634,-29.634 -29.634,-29.634c-0,0 -5.856,0 -5.856,0Z" style="fill:#efecec;"/><circle cx="66.667" cy="66.667" r="27.083"/><circle cx="66.667" cy="66.667" r="22.917" style="fill:#fbd59a;"/><path d="M61.947,44.238c1.524,-0.32 3.102,-0.488 4.72,-0.488c12.648,0 22.917,10.269 22.917,22.917c0,12.648 -10.269,22.917 -22.917,22.917c-1.618,0 -3.196,-0.168 -4.72,-0.488c10.387,-2.178 18.197,-11.399 18.197,-22.429c0,-11.03 -7.81,-20.251 -18.197,-22.429Z" style="fill:#f1c889;"/><path d="M70.528,75.261l0,-16.928c0,-1.141 -0.919,-2.069 -2.056,-2.083l-0.027,-0c-1.15,-0 -2.083,0.934 -2.083,2.083c-0,0 -0,10.896 -0,16.928c-0,1.141 -1.319,1.822 -2.723,1.822c-0,0 -0.002,0 -0.002,0c-1.405,-0 -2.723,-0.681 -2.723,-1.822c0,-6.032 0,-16.928 0,-16.928c-0,-1.15 -0.934,-2.083 -2.083,-2.083l-0.003,0c-2.62,-0 -5.125,0.867 -6.977,2.373c-2.023,1.643 -3.116,3.894 -3.116,6.219c0,0.002 0,0.003 0,0.005c0,2.324 1.093,4.575 3.116,6.219c1.354,1.1 3.056,1.859 4.897,2.188l-0,2.008c0,3.179 2.977,5.989 6.89,5.989l0.002,-0c1.901,-0 3.582,-0.663 4.807,-1.71c1.225,1.047 2.905,1.71 4.807,1.71l0.002,-0c3.913,-0 6.89,-2.809 6.89,-5.989l0,-16.928c0,-1.15 -0.934,-2.083 -2.083,-2.083c-1.15,-0 -2.083,0.934 -2.083,2.083l-0,16.928c-0,1.141 -1.319,1.822 -2.723,1.822c-0,0 -0.002,0 -0.002,0c-1.405,-0 -2.723,-0.681 -2.723,-1.822Z"/><path d="M10.417,79.848l11.742,-3.202l0,-19.958l-11.742,-3.202l-0,26.363Z" style="fill:#d8d8d8;"/><path d="M111.174,56.688l0,19.958l11.742,3.202l0,-26.363l-11.742,3.202Z" style="fill:#d8d8d8;"/><path d="M56.746,60.702c-0.846,0.24 -1.624,0.629 -2.27,1.155c-0.982,0.798 -1.576,1.857 -1.576,2.985c0,0.002 0,0.003 0,0.005c0,1.128 0.595,2.187 1.576,2.985c0.646,0.525 1.424,0.914 2.27,1.155l0,-8.284Z" style="fill:#fbd59a;"/><path d="M12.345,49.692l11.279,3.076l29.144,-29.144l-3.076,-11.279l-37.347,37.347Z" style="fill:#d8d8d8;"/><path d="M80.565,23.624l29.144,29.144l11.279,-3.076l-37.347,-37.347l-3.076,11.279Z" style="fill:#d8d8d8;"/><path d="M114.583,18.75l-18.645,0l18.645,18.645l0,-18.645Z" style="fill:#fbd59a;"/><path d="M114.583,18.75l-6.25,-0l0,12.395l6.25,6.25l0,-18.645Z" style="fill:#f1c889;"/><path d="M114.583,114.583l-6.25,0l0,-12.395l6.25,-6.25l0,18.645Z" style="fill:#f1c889;"/><path d="M18.75,37.395l18.645,-18.645l-18.645,-0l0,18.645Z" style="fill:#fbd59a;"/><path d="M53.485,10.417l3.202,11.742l19.958,0l3.202,-11.742l-26.363,0Z" style="fill:#d8d8d8;"/><path d="M56.688,111.174l-3.202,11.742l26.363,0l-3.202,-11.742l-19.958,0Z" style="fill:#d8d8d8;"/><path d="M80.565,109.709l3.076,11.279l37.347,-37.347l-11.279,-3.076l-29.144,29.144Z" style="fill:#d8d8d8;"/><path d="M111.174,56.688l0,19.958l11.742,3.202l0,-26.363l-11.742,3.202Z" style="fill:#d8d8d8;"/><path d="M118.521,54.684l-0,23.965l4.396,1.199l0,-26.363l-4.396,1.199Z" style="fill:#bfbfbf;"/><path d="M82.462,16.667l34.164,34.215l4.362,-1.19l-37.347,-37.347l-1.179,4.322Z" style="fill:#bfbfbf;"/><path d="M82.462,116.667l34.164,-34.215l4.362,1.19l-37.347,37.347l-1.179,-4.322Z" style="fill:#bfbfbf;"/><path d="M53.485,10.417l25.179,4.34l1.184,-4.34l-26.363,0Z" style="fill:#bfbfbf;"/><path d="M53.485,122.917l25.179,-4.34l1.184,4.34l-26.363,-0Z" style="fill:#bfbfbf;"/></g></svg>