<?xml version="1.0" encoding="UTF-8" standalone="no"?><!DOCTYPE svg PUBLIC "-//W3C//DTD SVG 1.1//EN" "http://www.w3.org/Graphics/SVG/1.1/DTD/svg11.dtd"><svg width="100%" height="100%" viewBox="0 0 134 134" version="1.1" xmlns="http://www.w3.org/2000/svg" xmlns:xlink="http://www.w3.org/1999/xlink" xml:space="preserve" xmlns:serif="http://www.serif.com/" style="fill-rule:evenodd;clip-rule:evenodd;stroke-linejoin:round;stroke-miterlimit:2;"><g id="Icon"><path d="M75.83,57.608c0.03,-0.237 0.092,-0.73 0.102,-0.832c0.141,-1.429 0.386,-2.839 0.66,-4.248c0.673,-3.467 1.22,-7.93 3.836,-10.546c0.763,-0.763 1.71,-1.284 2.635,-1.828c1.249,-0.734 2.472,-1.496 3.462,-2.548c2.182,-2.318 2.088,-5.05 1.164,-7.964c-0.501,-1.58 -1.254,-3.221 -1.672,-4.837c-0.29,-1.12 -0.443,-2.227 0.124,-3.249c0.639,-1.15 1.94,-1.224 3.242,-1.328c2.256,-0.181 4.668,-0.129 6.439,-0.881c1.737,-0.738 3.088,-2.074 4.153,-3.709c1.317,-2.023 2.181,-4.526 3.011,-6.496c0.446,-1.06 -0.052,-2.282 -1.112,-2.729c-1.06,-0.446 -2.282,0.052 -2.729,1.112c-0.632,1.5 -1.266,3.346 -2.158,4.988c-0.695,1.278 -1.523,2.458 -2.795,2.999c-0.752,0.319 -1.675,0.377 -2.634,0.429c-1.291,0.071 -2.636,0.092 -3.869,0.293c-2.197,0.359 -4.062,1.267 -5.19,3.298c-0.943,1.697 -1.067,3.497 -0.732,5.344c0.27,1.483 0.854,3.001 1.41,4.491c0.364,0.976 0.716,1.935 0.881,2.86c0.162,0.907 0.135,1.777 -0.567,2.523c-0.719,0.764 -1.633,1.279 -2.54,1.812c-1.23,0.723 -2.455,1.46 -3.47,2.474c-3.179,3.179 -4.162,8.484 -4.98,12.698c-0.298,1.536 -0.563,3.076 -0.716,4.634c-0.024,0.245 -0.171,1.22 -0.122,1.722c0.071,0.717 0.393,1.2 0.667,1.474c0.813,0.813 2.133,0.813 2.946,0c0.53,-0.53 0.715,-1.276 0.553,-1.956Z"/><path d="M60.464,54.506c-0.253,0.553 -0.263,1.212 0.03,1.799c0.514,1.028 1.767,1.446 2.795,0.932c0.431,-0.216 1.119,-0.801 1.297,-1.958c0.151,-0.983 -0.026,-3.182 -0.036,-3.529c-0.092,-3.329 -0.497,-6.851 0.39,-10.103c0.51,-1.871 1.615,-3.678 3.162,-4.868c1.041,-0.801 2.241,-1.485 3.335,-2.277c1.379,-0.999 2.597,-2.158 3.382,-3.702c1.356,-2.669 0.991,-5.244 0.185,-7.803c-0.374,-1.189 -0.843,-2.371 -1.145,-3.563c-0.335,-1.319 -0.464,-2.656 0.372,-4.031c0.41,-0.675 1.001,-1.203 1.616,-1.693c0.946,-0.754 2.026,-1.279 3.128,-1.764c1.052,-0.463 1.531,-1.693 1.068,-2.746c-0.463,-1.052 -1.693,-1.531 -2.746,-1.068c-1.431,0.63 -2.819,1.34 -4.048,2.32c-0.997,0.795 -1.912,1.692 -2.578,2.786c-1.99,3.272 -1.206,6.4 -0.137,9.527c0.692,2.024 1.646,4.031 0.572,6.146c-0.479,0.942 -1.269,1.606 -2.111,2.215c-1.127,0.816 -2.36,1.525 -3.432,2.349c-2.255,1.734 -3.897,4.346 -4.641,7.074c-0.994,3.644 -0.638,7.585 -0.535,11.315l0.079,2.641Z"/><path d="M53.439,50.52c-0.066,-0.417 -0.291,-1.866 -0.322,-2.181c-0.207,-2.104 0.841,-3.678 1.704,-5.324c0.815,-1.556 1.549,-3.148 1.759,-4.976c0.426,-3.712 -1.654,-6.396 -3.998,-9.026c-1.583,-1.776 -3.376,-3.49 -3.244,-6.102c0.088,-1.736 0.914,-2.879 1.942,-3.847c0.884,-0.833 1.909,-1.55 2.887,-2.307c2.078,-1.608 3.926,-3.403 4.656,-6.124c0.298,-1.111 -0.362,-2.254 -1.472,-2.552c-1.111,-0.298 -2.254,0.362 -2.552,1.472c-0.629,2.345 -2.675,3.514 -4.474,4.893c-2.629,2.015 -4.946,4.257 -5.148,8.254c-0.192,3.798 1.993,6.502 4.295,9.085c1.542,1.73 3.249,3.336 2.969,5.778c-0.194,1.694 -1.091,3.079 -1.839,4.522c-1.043,2.012 -1.885,4.093 -1.632,6.661c0.058,0.591 0.238,2.634 0.709,3.646c0.335,0.719 0.827,1.172 1.302,1.409c1.028,0.514 2.281,0.097 2.795,-0.932c0.399,-0.799 0.237,-1.732 -0.337,-2.35Z"/><path d="M8.654,23.346l31.696,40.752l-5.544,0c-1.151,0 -2.083,0.933 -2.083,2.083l0,25.112c-0,5.592 2.222,10.956 6.176,14.91c0.73,0.73 1.508,1.401 2.326,2.009l-30.926,0c-1.15,-0 -2.083,0.934 -2.083,2.083c0,0 0,2.213 0,2.213c-0,3.866 1.536,7.573 4.269,10.306c2.733,2.733 6.441,4.269 10.306,4.269l87.753,0c3.866,-0 7.573,-1.536 10.306,-4.269c2.733,-2.733 4.269,-6.441 4.269,-10.306l0,-2.213c-0,-1.15 -0.934,-2.083 -2.083,-2.083l-35.828,0c0.818,-0.608 1.596,-1.279 2.326,-2.009c3.604,-3.604 5.769,-8.378 6.124,-13.43l2.87,0c7.913,-0 14.337,-6.424 14.337,-14.337c0,-7.897 -6.399,-14.312 -14.291,-14.337l-43.096,-0l-35.473,-49.08c-0.324,-0.449 -0.814,-0.75 -1.36,-0.837c-0.547,-0.087 -1.105,0.047 -1.553,0.372l-8.018,5.828c-0.456,0.332 -0.759,0.835 -0.838,1.393c-0.079,0.559 0.072,1.126 0.418,1.571Zm87.055,58.478c0.71,-0.001 1.56,-0.052 2.41,-0.222c1.549,-0.31 3.227,-1.028 3.227,-3.166c0,-0.911 -0.197,-1.603 -0.585,-2.106c-0.617,-0.799 -1.619,-1.106 -2.583,-1.27c-0.875,-0.149 -1.75,-0.159 -2.469,-0.121l-0,6.885Z"/><path d="M36.89,78.802l32.228,0c1.15,0 2.083,0.934 2.083,2.083c-0,1.15 -0.934,2.083 -2.083,2.083l-17.034,0l-0,10.781l31.25,0c1.15,0 2.083,0.934 2.083,2.083c-0,1.15 -0.934,2.083 -2.083,2.083l-33.333,0c-1.151,0 -2.083,-0.933 -2.083,-2.083l0,-12.864l-11.027,0l-0,8.324c-0,4.487 1.783,8.791 4.956,11.964c3.173,3.173 7.476,4.956 11.964,4.956l20.814,0c4.487,0 8.791,-1.783 11.964,-4.956c3.173,-3.173 4.956,-7.476 4.956,-11.964l0,-8.324l-7.72,0c-1.15,0 -2.083,-0.934 -2.083,-2.083c-0,-1.15 0.934,-2.083 2.083,-2.083l7.72,0l0,-10.538c0,0 -54.652,0 -54.652,-0l-0,10.538Z" style="fill:#fdfdfd;"/><path d="M81.007,68.264l-0,0l-0,23.028c0,0.827 -0.061,1.649 -0.179,2.457l2.506,0c1.15,0 2.083,0.934 2.083,2.083c-0,1.15 -0.934,2.083 -2.083,2.083l-3.677,0c-0.841,1.976 -2.057,3.792 -3.605,5.34c-3.173,3.173 -7.476,4.956 -11.964,4.956l10.535,0c4.487,0 8.791,-1.783 11.964,-4.956c3.173,-3.173 4.956,-7.476 4.956,-11.964l0,-8.324l-7.72,0c-1.15,0 -2.083,-0.934 -2.083,-2.083c-0,-1.15 0.934,-2.083 2.083,-2.083l7.72,0l0,-10.538l-10.535,-0Z" style="fill:#efefef;"/><path d="M98.527,68.264l-2.818,0l-0,2.511c0.941,-0.039 2.055,-0.013 3.168,0.176c1.978,0.337 3.916,1.191 5.182,2.831c0.866,1.122 1.454,2.622 1.454,4.652c0,3.794 -2.168,5.773 -4.807,6.756c-1.67,0.622 -3.551,0.779 -4.997,0.784l-0,2.631l2.818,0c5.613,-0 10.171,-4.557 10.171,-10.171c0,-5.604 -4.542,-10.155 -10.143,-10.171c0,0 -0.028,-0 -0.028,-0Z" style="fill:#efefef;"/><path d="M20.124,31.307l25.504,32.791l4.708,0l-26.004,-35.979l-4.208,3.188Z" style="fill:#efefef;"/><path d="M21.891,24.741l-4.04,-5.59c0,0 -4.587,3.335 -4.587,3.335l4.302,5.531l4.325,-3.276Z" style="fill:#bfbfbf;"/><path d="M120.952,112.379l-108.57,0l0,0.13c-0,2.76 1.097,5.408 3.049,7.36c1.952,1.952 4.599,3.048 7.36,3.049l8.46,-0l0,-4.176c0,-1.15 0.934,-2.083 2.083,-2.083c1.15,0 2.083,0.934 2.083,2.083l0,4.176l29.167,-0l0,-4.176c0,-1.15 0.934,-2.083 2.083,-2.083c1.15,0 2.083,0.934 2.083,2.083l0,4.176l29.167,-0l0,-4.176c0,-1.15 0.934,-2.083 2.083,-2.083c1.15,0 2.083,0.934 2.083,2.083l0,4.176l8.46,-0c2.76,-0 5.408,-1.097 7.36,-3.049c1.952,-1.952 3.049,-4.599 3.049,-7.36l0,-0.13Z" style="fill:#83878b;"/><path d="M120.952,112.379l-0,0.13c0,2.76 -1.097,5.408 -3.049,7.36c-1.952,1.952 -4.599,3.048 -7.36,3.049l-8.46,0l0,-0.209c1.988,-0.404 3.829,-1.384 5.285,-2.84c1.952,-1.952 3.049,-4.599 3.049,-7.36l0,-0.13l10.535,0Z" style="fill:#6a6a6a;"/></g></svg>