<?xml version="1.0" encoding="UTF-8" standalone="no"?><!DOCTYPE svg PUBLIC "-//W3C//DTD SVG 1.1//EN" "http://www.w3.org/Graphics/SVG/1.1/DTD/svg11.dtd"><svg width="100%" height="100%" viewBox="0 0 134 134" version="1.1" xmlns="http://www.w3.org/2000/svg" xmlns:xlink="http://www.w3.org/1999/xlink" xml:space="preserve" xmlns:serif="http://www.serif.com/" style="fill-rule:evenodd;clip-rule:evenodd;stroke-linejoin:round;stroke-miterlimit:2;"><g id="Icon"><g><path d="M53.813,24.664c-11.442,3.184 -21.167,10.51 -27.45,20.258l-9.563,0c-4.57,0 -8.62,2.943 -10.033,7.289c-1.412,4.346 0.135,9.108 3.832,11.794l8.159,5.928c-0.006,0.299 -0.008,0.599 -0.008,0.9c0,11.25 3.885,21.599 10.386,29.779l-3.321,10.221c-1.412,4.346 0.135,9.108 3.832,11.794c3.697,2.686 8.704,2.686 12.401,0l8.95,-6.503c4.911,1.701 10.183,2.625 15.669,2.625c5.486,0 10.758,-0.924 15.669,-2.625l8.95,6.503c3.697,2.686 8.704,2.686 12.401,-0c3.697,-2.686 5.244,-7.448 3.832,-11.794l-3.321,-10.221c6.5,-8.18 10.386,-18.529 10.386,-29.779c0,-0.301 -0.003,-0.601 -0.008,-0.9l8.159,-5.928c3.697,-2.686 5.244,-7.448 3.832,-11.794c-1.412,-4.346 -5.463,-7.289 -10.033,-7.289l-9.563,-0c-6.283,-9.748 -16.007,-17.075 -27.45,-20.258l-2.821,-8.683c-1.412,-4.346 -5.463,-7.289 -10.033,-7.289c-4.57,0 -8.62,2.943 -10.033,7.289l-2.821,8.683Z"/><path d="M68.75,50.502l0,1.812c9.901,0.964 17.777,8.734 18.769,18.483l1.507,0c1.151,-0 2.083,0.933 2.083,2.083l0,10.454c-0,1.151 -0.933,2.083 -2.083,2.083l-1.401,0l0,29.4l6.111,4.44c2.237,1.625 5.266,1.625 7.503,-0c2.237,-1.625 3.173,-4.506 2.318,-7.136l-9.871,-30.381c-0.279,-0.858 0.027,-1.799 0.757,-2.329c0,0 25.843,-18.776 25.844,-18.777c2.237,-1.625 3.173,-4.506 2.318,-7.135c-0.854,-2.63 -3.305,-4.41 -6.07,-4.41l-31.944,-0c-0.903,-0 -1.702,-0.581 -1.981,-1.44c0,0 -9.871,-30.381 -9.871,-30.381c-0.854,-2.63 -3.305,-4.41 -6.07,-4.41c-2.765,0 -5.215,1.78 -6.07,4.41l-9.871,30.381c-0.279,0.858 -1.079,1.44 -1.981,1.44c0,0 -31.944,0 -31.945,0c-2.765,0 -5.215,1.78 -6.07,4.41c-0.854,2.63 0.082,5.51 2.319,7.136l25.843,18.776c0.73,0.531 1.036,1.471 0.757,2.329c0,0 -9.871,30.381 -9.871,30.381c-0.854,2.63 0.082,5.51 2.319,7.135c2.237,1.625 5.266,1.625 7.503,-0l6.11,-4.439l0,-29.4l-1.401,0c-1.151,0 -2.083,-0.933 -2.083,-2.083l0,-10.454c0,-1.151 0.933,-2.083 2.083,-2.083l1.507,0c0.992,-9.749 8.868,-17.519 18.769,-18.483l-0,-4.619l-0.028,-0.037c-2.581,-3.441 -1.882,-8.33 1.559,-10.911c0.92,-0.69 2.227,-0.503 2.917,0.417c0.69,0.92 0.503,2.227 -0.417,2.917c-1.601,1.201 -1.927,3.476 -0.726,5.078c1.201,1.601 3.476,1.927 5.078,0.726c0.92,-0.69 2.227,-0.503 2.917,0.417c0.69,0.92 0.503,2.227 -0.417,2.917c-1.996,1.497 -4.479,1.89 -6.716,1.285Z" style="fill:#fbd59a;"/><path d="M63.542,13.675c0.933,-0.524 2.003,-0.817 3.125,-0.817c2.765,0 5.215,1.78 6.07,4.41c0,0 9.871,30.381 9.871,30.381c0.279,0.858 1.079,1.44 1.981,1.44l31.944,0c2.765,0 5.216,1.78 6.07,4.41c0.854,2.63 -0.082,5.51 -2.318,7.135c-0,0 -25.844,18.777 -25.844,18.777c-0.73,0.531 -1.036,1.471 -0.757,2.329l9.871,30.381c0.854,2.63 -0.082,5.511 -2.318,7.136c-2.034,1.478 -4.723,1.612 -6.876,0.402c0.215,-0.12 0.424,-0.254 0.626,-0.402c2.237,-1.625 3.173,-4.506 2.318,-7.136l-8.677,-26.704l0.396,0c1.151,0 2.083,-0.933 2.083,-2.083l0,-6.042l22.927,-16.657c2.237,-1.625 3.173,-4.506 2.318,-7.135c-0.854,-2.63 -3.305,-4.41 -6.07,-4.41l-31.944,-0c-0.903,-0 -1.702,-0.581 -1.981,-1.44l-0.061,-0.187c-0.015,-0.37 -0.128,-0.739 -0.347,-1.066l-9.464,-29.128c-0.508,-1.562 -1.579,-2.825 -2.945,-3.593Z" style="fill:#f1c889;"/><path d="M55.209,113.065c3.653,0.99 7.494,1.518 11.458,1.518c3.964,0 7.805,-0.528 11.458,-1.518l-11.458,-8.325l-11.458,8.325Z" style="fill:#fef1da;"/><path d="M83.458,89.583l0,-4.167l-33.582,0l0,4.167l20.958,0c1.15,-0 2.083,0.934 2.083,2.083c0,1.15 -0.934,2.083 -2.083,2.083l-20.958,0l0,18.04l15.566,-11.31c0.73,-0.531 1.719,-0.531 2.449,0l15.566,11.31l0,-18.04l-4.291,0c-1.15,-0 -2.083,-0.934 -2.083,-2.083c0,-1.15 0.934,-2.083 2.083,-2.083l4.291,0Z" style="fill:#fbd59a;"/><path d="M83.458,85.417l-8.333,0l0,20.319l8.333,6.054l0,-18.04l-4.291,0c-1.15,-0 -2.083,-0.934 -2.083,-2.083c0,-1.15 0.934,-2.083 2.083,-2.083l4.291,0l0,-4.167Z" style="fill:#f1c889;"/><path d="M98.115,81.892l4.504,13.863c4.531,-6.521 7.334,-14.33 7.745,-22.763l-12.249,8.899Z" style="fill:#ece2cf;"/><path d="M22.969,72.992c0.411,8.434 3.214,16.243 7.744,22.763l4.504,-13.863l-12.249,-8.899Z" style="fill:#fef1da;"/><path d="M86.942,74.963l-40.551,-0c0,0 0,6.287 -0,6.287l1.931,0l0,-0.593c-0,-1.15 0.934,-2.083 2.083,-2.083c1.15,-0 2.083,0.934 2.083,2.083l0,0.593l3.964,0l0,-0.593c-0,-1.15 0.934,-2.083 2.083,-2.083c1.15,-0 2.083,0.934 2.083,2.083l0,0.593l3.964,0l0,-0.593c0,-1.15 0.934,-2.083 2.083,-2.083c1.15,0 2.083,0.934 2.083,2.083l0,0.593l3.964,0l0,-0.593c-0,-1.15 0.934,-2.083 2.083,-2.083c1.15,-0 2.083,0.934 2.083,2.083l0,0.593l3.964,0l0,-0.593c-0,-1.15 0.934,-2.083 2.083,-2.083c1.15,-0 2.083,0.934 2.083,2.083l0,0.593l1.931,0l0,-6.287Z" style="fill:#fbd59a;"/><path d="M78.609,74.963l-0,0l0,6.287l2.235,0l0,-0.593c-0,-1.15 0.934,-2.083 2.083,-2.083c1.15,-0 2.083,0.934 2.083,2.083l0,0.593l1.931,0l0,-6.287l-8.333,-0Z" style="fill:#f1c889;"/><path d="M83.325,70.796c-1.044,-8.132 -8.117,-14.417 -16.658,-14.417c-8.542,0 -15.615,6.286 -16.658,14.417l33.317,0Z" style="fill:#fff;"/><path d="M62.5,56.892c1.333,-0.335 2.729,-0.513 4.167,-0.513c8.542,0 15.615,6.286 16.658,14.417l-8.333,0c-0.868,-6.763 -5.907,-12.249 -12.492,-13.904Z" style="fill:#efefef;"/><path d="M86.103,44.922l15.809,0c-5.181,-7.032 -12.414,-12.461 -20.812,-15.398l5.003,15.398Z" style="fill:#ece2cf;"/><path d="M52.234,29.523c-8.398,2.937 -15.631,8.367 -20.812,15.398l15.809,-0l5.003,-15.398Z" style="fill:#fef1da;"/></g></g></svg>