<?xml version="1.0" encoding="UTF-8" standalone="no"?><!DOCTYPE svg PUBLIC "-//W3C//DTD SVG 1.1//EN" "http://www.w3.org/Graphics/SVG/1.1/DTD/svg11.dtd"><svg width="100%" height="100%" viewBox="0 0 134 134" version="1.1" xmlns="http://www.w3.org/2000/svg" xmlns:xlink="http://www.w3.org/1999/xlink" xml:space="preserve" xmlns:serif="http://www.serif.com/" style="fill-rule:evenodd;clip-rule:evenodd;stroke-linejoin:round;stroke-miterlimit:2;"><g id="Icon"><path d="M6.25,17.146l-0,99.042c-0,1.652 0.656,3.237 1.824,4.405c1.168,1.168 2.753,1.824 4.405,1.824l108.375,0c1.652,0 3.237,-0.656 4.405,-1.824c1.168,-1.168 1.824,-2.753 1.824,-4.405l-0,-99.042c0,-1.652 -0.656,-3.237 -1.824,-4.405c-1.168,-1.168 -2.753,-1.824 -4.405,-1.824c-18.119,-0 -90.255,-0 -108.375,-0c-1.652,-0 -3.237,0.656 -4.405,1.824c-1.168,1.168 -1.824,2.753 -1.824,4.405Z"/><path d="M122.917,110.417l-0,5.771c0,0.547 -0.217,1.072 -0.604,1.458c-0.387,0.387 -0.911,0.604 -1.458,0.604l-60.437,-0l0,-7.833l62.5,0Z" style="fill:#525252;"/><path d="M113.002,110.417l9.915,0l-0,5.771c0,0.547 -0.217,1.072 -0.604,1.458c-0.387,0.387 -0.911,0.604 -1.458,0.604l-7.779,-0c-0.048,-0.342 -0.073,-0.706 -0.073,-1.076l-0,-6.757Z" style="fill:#474747;"/><rect x="22.917" y="77.083" width="33.333" height="41.167" style="fill:#fbd59a;"/><rect x="50" y="77.083" width="6.25" height="41.167" style="fill:#f1c889;"/><path d="M10.417,110.417l8.333,0l0,7.833l-6.271,-0c-0.547,0 -1.072,-0.217 -1.458,-0.604c-0.387,-0.387 -0.604,-0.911 -0.604,-1.458l0,-5.771Z" style="fill:#525252;"/><path d="M122.917,43.75l-112.5,0l-0,62.5l8.333,0l-0,-35.436c0,-1.653 0.657,-3.238 1.825,-4.406c1.169,-1.169 2.754,-1.825 4.406,-1.825c7.214,0 21.99,0 29.204,0c1.653,-0 3.238,0.656 4.406,1.825c1.169,1.169 1.825,2.753 1.825,4.406l0,35.436l62.5,0l0,-25l-23.12,0c-3.34,-0 -6.047,-2.707 -6.047,-6.047l0,-8.739c0,-3.34 2.707,-6.047 6.047,-6.047l23.12,0l0,-16.667Z" style="fill:#83878b;"/><path d="M113.002,81.25l-0,25l9.915,0l0,-25l-9.915,0Zm9.915,-37.5l-9.915,0l-0,16.667l9.915,0l0,-16.667Z" style="fill:#717477;"/><circle cx="47.442" cy="92.648" r="6.25"/><circle cx="47.442" cy="92.648" r="2.083" style="fill:#e19974;"/><path d="M122.917,64.583l-23.12,-0c-1.039,0 -1.88,0.842 -1.88,1.881c0,0 -0,8.739 0,8.739c0,1.038 0.842,1.88 1.88,1.88l23.12,-0l0,-12.5Z" style="fill:#fef1da;"/><rect x="113.002" y="64.583" width="9.915" height="12.5" style="fill:#e3d2b4;"/><path d="M56.25,72.917l-0,-2.102c-0,-0.547 -0.218,-1.073 -0.605,-1.46c-0.387,-0.387 -0.912,-0.605 -1.46,-0.605l-29.204,-0c-0.548,-0 -1.073,0.217 -1.46,0.605c-0.387,0.387 -0.605,0.912 -0.605,1.46l0,2.102l33.333,0Z" style="fill:#e19974;"/><path d="M47.936,68.75c0,-0 6.25,0 6.25,0c0.548,-0 1.073,0.217 1.46,0.605c0.387,0.387 0.605,0.912 0.605,1.46l0,2.102l-6.25,0l-0,-2.102c-0,-0.547 -0.218,-1.073 -0.605,-1.46c-0.387,-0.387 -0.912,-0.605 -1.46,-0.605Z" style="fill:#c5825f;"/><path d="M122.917,29.75l-10.919,0l5.853,9.833l5.066,0l0,-9.833Z" style="fill:#f0bf73;"/><path d="M15.482,39.583l5.853,-9.833l-10.919,0l-0,9.833l5.066,0Z" style="fill:#fbd59a;"/><path d="M20.331,39.583l9.338,0l-4.669,-7.844l-4.669,7.844Z" style="fill:#fbd59a;"/><path d="M36.998,39.583l9.338,0l-4.669,-7.844l-4.669,7.844Z" style="fill:#fbd59a;"/><path d="M53.665,39.583l9.338,0l-4.669,-7.844l-4.669,7.844Z" style="fill:#fbd59a;"/><path d="M70.331,39.583l9.338,0l-4.669,-7.844l-4.669,7.844Z" style="fill:#fbd59a;"/><path d="M86.998,39.583l9.338,0l-4.669,-7.844l-4.669,7.844Z" style="fill:#fbd59a;"/><path d="M103.665,39.583l9.338,0l-4.669,-7.844l-4.669,7.844Z" style="fill:#fbd59a;"/><path d="M71.335,29.75l-9.338,0l4.669,7.844l4.669,-7.844Z" style="fill:#fbd59a;"/><path d="M38.002,29.75l-9.338,0l4.669,7.844l4.669,-7.844Z" style="fill:#fbd59a;"/><path d="M104.669,29.75l-9.338,0l4.669,7.844l4.669,-7.844Z" style="fill:#fbd59a;"/><path d="M88.002,29.75l-9.338,0l4.669,7.844l4.669,-7.844Z" style="fill:#fbd59a;"/><path d="M54.669,29.75l-9.338,0l4.669,7.844l4.669,-7.844Z" style="fill:#fbd59a;"/><path d="M122.917,25.583l-112.5,0l0,-8.437c-0,-0.547 0.217,-1.072 0.604,-1.458c0.387,-0.387 0.911,-0.604 1.458,-0.604l108.375,0c0.547,-0 1.072,0.217 1.458,0.604c0.387,0.387 0.604,0.911 0.604,1.458l-0,8.437Z" style="fill:#888;"/><path d="M110.94,15.083c0,-0 9.915,0 9.915,0c0.547,-0 1.072,0.217 1.458,0.604c0.387,0.387 0.604,0.911 0.604,1.458l-0,8.437l-9.915,0l0,-8.437c0,-0.547 -0.217,-1.072 -0.604,-1.458c-0.387,-0.387 -0.911,-0.604 -1.458,-0.604Z" style="fill:#717477;"/></g></svg>