<?xml version="1.0" encoding="UTF-8" standalone="no"?><!DOCTYPE svg PUBLIC "-//W3C//DTD SVG 1.1//EN" "http://www.w3.org/Graphics/SVG/1.1/DTD/svg11.dtd"><svg width="100%" height="100%" viewBox="0 0 134 134" version="1.1" xmlns="http://www.w3.org/2000/svg" xmlns:xlink="http://www.w3.org/1999/xlink" xml:space="preserve" xmlns:serif="http://www.serif.com/" style="fill-rule:evenodd;clip-rule:evenodd;stroke-linejoin:round;stroke-miterlimit:2;"><g id="Icon"><path d="M24.022,45.926l1.939,-7.35c-0,0 13.012,-13.012 13.012,-13.012c0.813,-0.813 0.813,-2.133 0,-2.946c-0.813,-0.813 -2.133,-0.813 -2.946,-0l-13.41,13.41c-0.261,0.261 -0.447,0.585 -0.541,0.942l-4.079,15.461c-1.057,2.048 -1.061,4.498 -0.013,6.549l4.09,15.639c0.094,0.358 0.281,0.684 0.542,0.946l13.41,13.41c0.813,0.813 2.133,0.813 2.946,0c0.813,-0.813 0.813,-2.133 -0,-2.946l-13.011,-13.011l-1.973,-7.542l29.589,29.589l-15.858,11.629c-0.726,0.533 -1.028,1.472 -0.748,2.328c0.28,0.856 1.079,1.435 1.98,1.435l14.545,0c0,0 0,14.545 0,14.545c0,0.948 0.64,1.776 1.557,2.016c0.917,0.239 1.881,-0.171 2.344,-0.998l9.268,-16.55l9.268,16.55c0.463,0.827 1.426,1.237 2.344,0.998c0.917,-0.239 1.557,-1.068 1.557,-2.016l0,-14.545c0,-0 14.545,-0 14.545,-0c0.901,0 1.7,-0.579 1.98,-1.435c0.28,-0.856 -0.021,-1.795 -0.748,-2.328l-15.858,-11.629l29.696,-29.696l-1.943,7.655c-0,0 -13.005,13.005 -13.005,13.005c-0.813,0.813 -0.813,2.133 0,2.946c0.813,0.813 2.133,0.813 2.946,-0l13.41,-13.41c0.265,-0.265 0.454,-0.597 0.546,-0.961l3.987,-15.71c0.991,-2.004 0.987,-4.375 -0.012,-6.377l-3.976,-15.532c-0.093,-0.362 -0.281,-0.692 -0.545,-0.957l-13.41,-13.41c-0.813,-0.813 -2.133,-0.813 -2.946,-0c-0.813,0.813 -0.813,2.133 0,2.946l13.006,13.006l1.911,7.465l-37.685,-37.685c-2.799,-2.799 -7.338,-2.799 -10.137,0l-37.576,37.576Z"/><path d="M76.774,98.044l-5.038,5.038c-0.837,0.837 -1.829,1.423 -2.884,1.76l6.817,12.174l0,-8.644c0,-1.151 0.933,-2.083 2.083,-2.083c0,0 10.264,0 10.264,-0l-11.243,-8.245Z" style="fill:#fef1da;"/><path d="M72.956,101.861l6.037,4.427l9.023,-0l-11.243,-8.245l-3.817,3.817Z" style="fill:#f4dfba;"/><path d="M56.56,98.044l-11.243,8.245l10.264,0c1.151,-0 2.083,0.933 2.083,2.083c0,0 0,8.644 0,8.644l6.817,-12.174c-1.055,-0.337 -2.047,-0.923 -2.884,-1.76l-5.038,-5.038Z" style="fill:#fef1da;"/><path d="M78.567,90.358l-9.778,9.778c-1.172,1.172 -3.073,1.172 -4.245,0l-9.778,-9.778l11.9,-11.9l11.9,11.9Z" style="fill:#fbd59a;"/><path d="M74.384,86.175l4.183,4.183l-9.778,9.778c-1.172,1.172 -3.073,1.172 -4.245,0l-2.061,-2.061l11.9,-11.9Z" style="fill:#f0bf73;"/><path d="M69.613,75.511l11.9,11.9l16.849,-16.849l-11.9,-11.9l-16.849,16.849Z" style="fill:#fef1da;"/><path d="M94.18,66.379l-16.849,16.849l4.183,4.183l16.849,-16.849l-4.183,-4.183Z" style="fill:#f4dfba;"/><path d="M34.971,70.562l16.849,16.849l11.9,-11.9l-16.849,-16.849l-11.9,11.9Z" style="fill:#fef1da;"/><path d="M49.817,55.716l16.849,16.849l16.849,-16.849l-16.849,-16.849l-16.849,16.849Z" style="fill:#fbd59a;"/><path d="M32.025,43.815l11.9,11.9l-11.9,11.9l-9.778,-9.778c-1.172,-1.172 -1.172,-3.073 -0,-4.245l9.778,-9.778Z" style="fill:#fbd59a;"/><path d="M101.309,43.815l9.778,9.778c1.172,1.172 1.172,3.073 0,4.245l-9.778,9.778l-11.9,-11.9l11.9,-11.9Z" style="fill:#fbd59a;"/><path d="M97.126,47.998l4.183,-4.183l9.778,9.778c1.172,1.172 1.172,3.073 0,4.245l-9.778,9.778l-4.183,-4.183l5.595,-5.595c1.172,-1.172 1.172,-3.073 -0,-4.245l-5.595,-5.595Z" style="fill:#f0bf73;"/><path d="M69.613,35.92l16.849,16.849l11.9,-11.9l-16.849,-16.849l-11.9,11.9Z" style="fill:#fef1da;"/><path d="M77.33,28.203l16.849,16.849l4.183,-4.183l-16.849,-16.849l-4.183,4.183Z" style="fill:#f4dfba;"/><path d="M34.971,40.869l11.9,11.9l16.849,-16.849l-11.9,-11.9l-16.849,16.849Z" style="fill:#fef1da;"/><path d="M78.567,21.074l-11.9,11.9l-11.9,-11.9l9.778,-9.778c1.172,-1.172 3.073,-1.172 4.245,-0l9.778,9.778Z" style="fill:#fbd59a;"/><path d="M62.484,13.356l2.061,-2.061c1.172,-1.172 3.073,-1.172 4.245,-0l9.778,9.778l-4.183,4.183l-11.9,-11.9Z" style="fill:#f0bf73;"/></g></svg>