<?xml version="1.0" encoding="UTF-8" standalone="no"?><!DOCTYPE svg PUBLIC "-//W3C//DTD SVG 1.1//EN" "http://www.w3.org/Graphics/SVG/1.1/DTD/svg11.dtd"><svg width="100%" height="100%" viewBox="0 0 134 134" version="1.1" xmlns="http://www.w3.org/2000/svg" xmlns:xlink="http://www.w3.org/1999/xlink" xml:space="preserve" xmlns:serif="http://www.serif.com/" style="fill-rule:evenodd;clip-rule:evenodd;stroke-linejoin:round;stroke-miterlimit:2;"><g id="Icon"></g><path d="M63.399,36.942c-1.637,-8.52 -3.319,-16.762 -4.422,-20.821c-0.301,-1.11 -1.447,-1.766 -2.557,-1.464c-1.11,0.301 -1.766,1.447 -1.464,2.557c1.042,3.835 2.603,11.431 4.15,19.44c-6.026,-10.708 -15.814,-21.428 -31.565,-25.665c-0.626,-0.168 -1.294,-0.036 -1.809,0.358c-0.514,0.394 -0.816,1.005 -0.816,1.653c-0,0 0.014,15.315 6.132,29.502l-9.124,-5.61c-0.979,-0.602 -2.264,-0.296 -2.866,0.683c-0.602,0.979 -0.296,2.264 0.683,2.866l9.317,5.729c-5.819,0.351 -10.87,2.369 -14.579,6.111l-0,0c-4.763,4.806 -6.663,11.8 -5.832,19.766c1.181,11.305 7.913,24.652 19.279,35.918c0.987,0.978 1.989,1.921 3.003,2.827l-18.67,-6.778c-1.081,-0.392 -2.277,0.167 -2.669,1.247c-0.392,1.081 0.167,2.277 1.247,2.669l18.324,6.653l-20.828,0c-1.15,0 -2.083,0.934 -2.083,2.083l0,0c0,5.753 4.664,10.417 10.417,10.417c21.476,-0 78.524,-0 100,-0c5.753,0 10.417,-4.664 10.417,-10.417l0,-0c0,-1.151 -0.933,-2.083 -2.083,-2.083l-21.299,-0l17.986,-6.53c1.081,-0.392 1.64,-1.588 1.247,-2.669c-0.392,-1.081 -1.588,-1.64 -2.669,-1.247l-17.542,6.369c0.906,-0.819 1.801,-1.666 2.683,-2.54c11.366,-11.265 18.098,-24.613 19.279,-35.918c0.832,-7.967 -1.068,-14.961 -5.832,-19.767c-4.585,-4.626 -11.219,-6.618 -18.821,-6.081c-3.68,0.26 -7.597,1.117 -11.604,2.543l11.717,-14.076c0.736,-0.884 0.615,-2.198 -0.268,-2.934c-0.884,-0.736 -2.198,-0.615 -2.934,0.268l-11.949,14.355c3.174,-25.017 -14.67,-39.631 -14.67,-39.631c-0.539,-0.443 -1.263,-0.587 -1.93,-0.384c-0.667,0.203 -1.189,0.726 -1.389,1.395c-2.494,8.314 -3.544,17.708 -3.605,29.207Z"/><path d="M22.917,122.917l0,-4.167l-12.144,0c0.858,2.427 3.173,4.167 5.894,4.167l6.25,-0Z" style="fill:#fff;"/><path d="M41.551,118.75l-14.467,0l0,4.167l22.359,-0c-2.625,-1.157 -5.269,-2.549 -7.891,-4.167Z" style="fill:#fff;"/><path d="M74.819,121.713c2.266,-0.811 4.278,-2.043 5.95,-3.73c3.94,-3.975 5.335,-9.811 4.647,-16.401c-1.099,-10.529 -7.482,-22.899 -18.068,-33.391c-10.586,-10.492 -23.012,-16.764 -33.551,-17.77c-6.595,-0.629 -12.419,0.817 -16.359,4.792l-0,0c-3.94,3.975 -5.335,9.811 -4.647,16.401c1.099,10.529 7.482,22.899 18.068,33.391c10.586,10.492 23.012,16.764 33.551,17.77c0.911,0.087 1.807,0.134 2.684,0.141l0.424,-0c2.546,-0.019 4.938,-0.388 7.104,-1.135c0.064,-0.026 0.129,-0.049 0.197,-0.069Z" style="fill:#fbd59a;"/><path d="M26.248,50.707c2.342,-0.455 4.883,-0.54 7.55,-0.285c10.538,1.006 22.965,7.278 33.551,17.77c10.586,10.492 16.968,22.862 18.068,33.391c0.688,6.59 -0.707,12.426 -4.647,16.401c-1.672,1.687 -3.683,2.919 -5.95,3.73c-0.067,0.02 -0.133,0.043 -0.197,0.069c-2.165,0.747 -4.557,1.115 -7.104,1.135l-0.424,0c-0.71,-0.005 -1.432,-0.037 -2.164,-0.096c-0.041,-0.333 -0.067,-0.681 -0.079,-1.039c0.064,-0.026 0.129,-0.049 0.197,-0.069c2.266,-0.811 4.278,-2.043 5.95,-3.73c3.94,-3.975 5.335,-9.811 4.647,-16.401c-1.099,-10.529 -7.482,-22.899 -18.068,-33.391c-9.851,-9.764 -21.296,-15.873 -31.33,-17.485Z" style="fill:#f1c889;"/><path d="M83.905,122.917l22.345,-0l0,-4.167l-14.461,0c-2.62,1.618 -5.262,3.01 -7.884,4.167Z" style="fill:#fff;"/><path d="M110.417,118.75l0,4.167l6.25,-0c2.716,0 5.028,-1.733 5.89,-4.167l-12.14,0Z" style="fill:#efefef;"/><path d="M86.815,116.834c5.369,-2.951 10.715,-6.929 15.658,-11.828c10.586,-10.492 16.968,-22.862 18.068,-33.391c0.688,-6.59 -0.707,-12.426 -4.647,-16.401c-3.781,-3.815 -9.3,-5.3 -15.568,-4.858c-5.627,0.397 -11.832,2.335 -18.028,5.648c-0.087,0.055 -0.177,0.104 -0.271,0.146c-4.161,2.251 -8.314,5.12 -12.282,8.557c0.178,0.173 0.357,0.349 0.536,0.526c2.401,2.379 4.594,4.851 6.571,7.376c0.751,-0.911 1.565,-1.804 2.438,-2.67c5.207,-5.161 11.366,-8.159 16.55,-8.654c3.887,-0.371 7.272,0.635 9.594,2.977c2.322,2.342 3.297,5.737 2.892,9.62c-0.541,5.18 -3.594,11.312 -8.801,16.473c-3.296,3.266 -6.97,5.671 -10.532,7.116c0.251,1.246 0.44,2.475 0.566,3.68c0.62,5.936 -0.277,11.332 -2.745,15.684Z" style="fill:#fbd59a;"/><path d="M97.312,50.707c1.02,-0.164 2.026,-0.281 3.014,-0.351c6.268,-0.442 11.787,1.044 15.568,4.858c3.94,3.975 5.335,9.811 4.647,16.401c-1.099,10.529 -7.482,22.899 -18.068,33.391c-4.944,4.9 -10.29,8.877 -15.658,11.828c1.487,-2.624 2.404,-5.626 2.762,-8.898c1.057,-0.937 2.101,-1.914 3.126,-2.93c10.586,-10.492 16.968,-22.862 18.068,-33.391c0.688,-6.59 -0.707,-12.426 -4.647,-16.401c-2.347,-2.368 -5.363,-3.838 -8.812,-4.507Z" style="fill:#f1c889;"/><path d="M69.946,110.173c-2.848,-4.33 -7.595,-6.942 -11.889,-6.141c-1.13,0.211 -1.877,1.3 -1.666,2.43c0.211,1.13 1.3,1.877 2.43,1.666c2.819,-0.526 5.773,1.492 7.644,4.335c0.632,0.961 1.925,1.228 2.885,0.596c0.961,-0.632 1.228,-1.925 0.596,-2.885Z"/><path d="M46.964,97.314c-1.549,-4.946 -5.396,-8.762 -9.744,-9.171c-1.145,-0.108 -2.162,0.734 -2.269,1.879c-0.108,1.145 0.734,2.162 1.879,2.269c2.855,0.269 5.142,3.02 6.159,6.268c0.344,1.097 1.513,1.709 2.611,1.365c1.097,-0.344 1.709,-1.513 1.365,-2.611Z"/><path d="M61.43,89.096c1.549,4.946 5.396,8.762 9.744,9.171c1.145,0.108 2.162,-0.734 2.269,-1.879c0.108,-1.145 -0.734,-2.162 -1.879,-2.269c-2.855,-0.269 -5.142,-3.02 -6.159,-6.268c-0.344,-1.097 -1.513,-1.709 -2.611,-1.365c-1.097,0.344 -1.709,1.513 -1.365,2.611Z"/><path d="M87.969,93.383c2.929,-1.276 5.918,-3.306 8.624,-5.988c4.427,-4.388 7.13,-9.543 7.59,-13.946c0.262,-2.506 -0.209,-4.742 -1.707,-6.254c-1.498,-1.512 -3.73,-2.002 -6.238,-1.763c-4.407,0.421 -9.586,3.078 -14.013,7.466c-1.033,1.024 -1.972,2.091 -2.81,3.181c0.451,0.65 0.888,1.303 1.311,1.957c2.492,-3.11 7.368,-8.119 14.425,-10.567c1.086,-0.377 2.274,0.199 2.651,1.285c0.377,1.086 -0.199,2.274 -1.285,2.651c-7.272,2.523 -11.868,8.188 -13.483,10.467c2.153,3.863 3.808,7.743 4.936,11.51Z" style="fill:#d6a65c;"/><path d="M91.854,66.493c1.506,-0.568 2.984,-0.928 4.383,-1.061c2.508,-0.239 4.74,0.251 6.238,1.763c1.498,1.512 1.969,3.748 1.707,6.254c-0.46,4.403 -3.163,9.558 -7.59,13.946c-2.706,2.682 -5.695,4.713 -8.624,5.988c-0.52,-1.737 -1.152,-3.498 -1.894,-5.27c0.252,-0.234 0.501,-0.473 0.748,-0.718c4.427,-4.388 7.13,-9.543 7.59,-13.946c0.044,-0.418 0.067,-0.828 0.068,-1.229c0.654,-0.297 1.332,-0.571 2.035,-0.815c1.086,-0.377 1.662,-1.565 1.285,-2.651c-0.377,-1.086 -1.565,-1.662 -2.651,-1.285c-0.583,0.202 -1.151,0.422 -1.704,0.657c-0.212,-0.334 -0.458,-0.645 -0.741,-0.931c-0.262,-0.265 -0.547,-0.498 -0.852,-0.701Z" style="fill:#cc9848;"/><path d="M22.467,64.662c1.814,3.898 2.804,9.587 2.157,14.304c-0.156,1.139 0.642,2.191 1.781,2.347c1.139,0.156 2.191,-0.642 2.347,-1.781c0.753,-5.484 -0.398,-12.098 -2.507,-16.629c-0.485,-1.042 -1.726,-1.495 -2.768,-1.009c-1.042,0.485 -1.495,1.726 -1.009,2.768Z"/><path d="M36.561,65.175c2.793,4.145 7.865,8.543 12.951,10.728c1.056,0.454 2.283,-0.035 2.736,-1.092c0.454,-1.056 -0.035,-2.283 -1.092,-2.736c-4.375,-1.879 -8.737,-5.663 -11.14,-9.228c-0.643,-0.954 -1.938,-1.206 -2.892,-0.564c-0.954,0.643 -1.206,1.938 -0.564,2.892Z"/><path d="M79.419,52.841c5.897,-20.852 -4.411,-35.159 -9.338,-40.534c-3.011,12.375 -3.04,27.33 -1.632,48.041c3.567,-2.941 7.26,-5.451 10.97,-7.507Z" style="fill:#fee45a;"/><path d="M68.906,18.156c0.326,-2.017 0.715,-3.963 1.174,-5.849c4.927,5.375 15.235,19.682 9.338,40.534c-2.413,1.338 -4.82,2.867 -7.189,4.583c0.603,-1.417 1.133,-2.994 1.532,-4.583c4.386,-15.51 -0.193,-27.398 -4.855,-34.685Z" style="fill:#f5d62d;"/><path d="M63.243,58.989c-2.457,-11.018 -10.441,-35.214 -34.05,-43.152c0.365,5.883 1.94,19.796 8.737,30.98c8.109,1.568 17.006,5.739 25.322,12.223l-0.009,-0.051Z" style="fill:#fee45a;"/><path d="M29.529,19.711c-0.166,-1.508 -0.271,-2.82 -0.336,-3.874c23.609,7.938 31.592,32.134 34.05,43.152l0.009,0.051c-3.228,-2.517 -6.544,-4.686 -9.867,-6.489c-3.214,-10.258 -9.993,-24.622 -23.856,-32.84Z" style="fill:#f5d62d;"/><rect x="27.083" y="118.75" width="6.25" height="4.166" style="fill:#efefef;"/></svg>