<?xml version="1.0" encoding="UTF-8" standalone="no"?><!DOCTYPE svg PUBLIC "-//W3C//DTD SVG 1.1//EN" "http://www.w3.org/Graphics/SVG/1.1/DTD/svg11.dtd"><svg width="100%" height="100%" viewBox="0 0 134 134" version="1.1" xmlns="http://www.w3.org/2000/svg" xmlns:xlink="http://www.w3.org/1999/xlink" xml:space="preserve" xmlns:serif="http://www.serif.com/" style="fill-rule:evenodd;clip-rule:evenodd;stroke-linejoin:round;stroke-miterlimit:2;"><g id="Icon"><path d="M60.512,72.113c-1.821,-1.982 -3.896,-3.729 -6.172,-5.189l-29.812,-36.412c-0.493,-0.602 -1.281,-0.879 -2.043,-0.719l-14.583,3.081c-0.773,0.163 -1.388,0.75 -1.586,1.516c-0.198,0.765 0.053,1.577 0.65,2.095l29.38,25.532c-16.715,0.608 -30.097,14.368 -30.097,31.229l0,0.01c0,17.254 13.987,31.24 31.24,31.24c17.817,0 40.524,0 58.343,0c17.259,-0 31.25,-13.991 31.25,-31.25l0,-0c0,-1.15 -0.934,-2.083 -2.083,-2.083l-7.735,0c0.469,-0.961 0.732,-2.039 0.732,-3.179c0,-2.802 -1.59,-5.236 -3.917,-6.447c1.206,-1.387 1.937,-3.198 1.937,-5.179c0,-4.36 -3.539,-7.899 -7.899,-7.899c-2.192,0 -4.177,0.895 -5.609,2.339c-0.903,-3.368 -3.979,-5.85 -7.63,-5.85c-3.304,0 -6.136,2.033 -7.315,4.914c-2.414,-1.883 -5.45,-3.005 -8.745,-3.005c-3.01,0 -5.803,0.936 -8.104,2.533l-16.709,-40.139c-0.323,-0.777 -1.082,-1.283 -1.923,-1.283l-14.583,0c-0.752,0 -1.446,0.405 -1.815,1.06c-0.369,0.655 -0.357,1.458 0.032,2.102l24.795,40.983Zm29.214,18.126c-0.269,0.321 -0.552,0.629 -0.848,0.924l1.417,0c-0.207,-0.296 -0.397,-0.605 -0.57,-0.924Z"/><path d="M122.838,95.33l-112.343,0c1.06,13.984 12.741,25 26.995,25c17.817,0 40.524,0 58.343,0c14.256,-0 25.94,-11.015 27.004,-25Z" style="fill:#fdfdfd;"/><path d="M122.838,95.33c-1.065,13.985 -12.748,25 -27.004,25l-14.184,-0c14.256,-0 25.94,-11.015 27.004,-25l14.184,0Z" style="fill:#efefef;"/><path d="M21.053,103.9c3.332,6.664 10.143,10.874 17.594,10.874c11.505,0 28.019,0 28.019,0c1.15,-0 2.083,-0.934 2.083,-2.083c-0,-1.15 -0.934,-2.083 -2.083,-2.083c0,0 -16.514,0 -28.019,-0c-5.873,0 -11.241,-3.318 -13.867,-8.57c-0.514,-1.028 -1.767,-1.446 -2.795,-0.932c-1.028,0.514 -1.446,1.767 -0.932,2.795Z"/><path d="M72.917,101.925l-0,4.244c0,4.647 3.767,8.414 8.414,8.414l12.338,-0c4.647,-0 8.414,-3.767 8.414,-8.414l-0.006,-4.41l-0.009,-0.084c-0.123,-1.033 -1.002,-1.833 -2.068,-1.833l-25,0c-1.15,0 -2.083,0.934 -2.083,2.083Z"/><path d="M97.917,104.009l-20.833,0l0,2.16c0,2.346 1.902,4.247 4.248,4.247c0,0 12.338,-0 12.338,-0c2.346,-0 4.247,-1.902 4.248,-4.248l0,-2.16Z" style="fill:#efefef;"/><path d="M97.917,104.009l-0,2.16c-0,2.346 -1.902,4.248 -4.248,4.248l-7.894,0c2.346,-0 4.247,-1.902 4.248,-4.248l0,-2.16l7.894,0Z" style="fill:#ddd;"/><path d="M51.803,70.249c-4.15,-2.589 -9.053,-4.086 -14.303,-4.086c-14.247,0 -25.939,11.024 -27.004,25l3.28,0c1.063,-12.064 11.282,-21.548 23.724,-21.548c12.442,0 22.661,9.485 23.724,21.548l3.28,0c-0.671,-8.799 -5.554,-16.428 -12.635,-20.873c-0.022,-0.013 -0.045,-0.027 -0.066,-0.042Z" style="fill:#f5d62d;"/><path d="M57.038,91.163c-1.051,-9.769 -9.408,-17.381 -19.538,-17.381c-10.13,0 -18.486,7.612 -19.538,17.381l3,0c1.027,-8.217 8.044,-14.583 16.537,-14.583c8.493,0 15.511,6.366 16.537,14.583l3,0Z" style="fill:#f5d62d;"/><path d="M49.827,91.163c-0.993,-5.909 -6.138,-10.417 -12.327,-10.417c-6.189,0 -11.334,4.508 -12.327,10.417l3.124,0c0.936,-4.311 4.714,-7.525 9.203,-7.525c4.49,0 8.268,3.214 9.203,7.525l3.124,0Z" style="fill:#f5d62d;"/><path d="M42.359,91.163c-0.789,-1.966 -2.661,-3.358 -4.859,-3.358c-2.198,0 -4.07,1.393 -4.859,3.358l9.718,0Z" style="fill:#f5d62d;"/><path d="M68.676,91.078l0.006,0.085l0.078,0c-0.028,-0.028 -0.056,-0.056 -0.084,-0.085Z" style="fill:#ffc5b3;"/><circle cx="78.819" cy="81.094" r="10.069" style="fill:#ffc5b3;"/><circle cx="110.735" cy="87.984" r="3.096" style="fill:#ffc5b3;"/><circle cx="98.113" cy="85.721" r="5.359" style="fill:#ffc5b3;"/><circle cx="108.118" cy="76.358" r="3.732" style="fill:#ffc5b3;"/><circle cx="94.879" cy="72.847" r="3.732" style="fill:#ffc5b3;"/><path d="M76.697,71.249c0.685,-0.147 1.395,-0.225 2.123,-0.225c5.557,0 10.069,4.512 10.069,10.069c0,5.557 -4.512,10.069 -10.069,10.069c-0.728,0 -1.438,-0.077 -2.123,-0.225c4.539,-0.975 7.947,-5.015 7.947,-9.845c0,-4.829 -3.407,-8.869 -7.947,-9.845Z" style="fill:#ffb8a2;"/><path d="M109.447,85.168c0.392,-0.18 0.828,-0.28 1.288,-0.28c1.709,0 3.096,1.387 3.096,3.096c0,1.709 -1.387,3.096 -3.096,3.096c-0.459,0 -0.895,-0.1 -1.288,-0.28c1.067,-0.489 1.808,-1.566 1.808,-2.816c0,-1.249 -0.742,-2.327 -1.808,-2.816Z" style="fill:#ffb8a2;"/><path d="M96.511,80.607c0.506,-0.159 1.045,-0.244 1.603,-0.244c2.958,0 5.359,2.401 5.359,5.359c0,2.958 -2.401,5.359 -5.359,5.359c-0.558,0 -1.096,-0.086 -1.603,-0.244c2.176,-0.682 3.756,-2.715 3.756,-5.115c0,-2.4 -1.58,-4.433 -3.756,-5.115Z" style="fill:#ffb8a2;"/><path d="M106.83,72.854c0.402,-0.148 0.835,-0.228 1.288,-0.228c2.06,0 3.732,1.672 3.732,3.732c0,2.06 -1.672,3.732 -3.732,3.732c-0.452,0 -0.886,-0.081 -1.288,-0.228c1.426,-0.525 2.445,-1.896 2.445,-3.504c0,-1.608 -1.019,-2.979 -2.445,-3.504Z" style="fill:#ffb8a2;"/><path d="M93.276,69.476c0.486,-0.232 1.029,-0.361 1.603,-0.361c2.06,0 3.732,1.672 3.732,3.732c0,2.06 -1.672,3.732 -3.732,3.732c-0.573,0 -1.117,-0.13 -1.603,-0.361c1.259,-0.6 2.13,-1.885 2.13,-3.371c0,-1.486 -0.871,-2.771 -2.13,-3.371Z" style="fill:#ffb8a2;"/><path d="M67.488,72.479l-16.794,-40.344c0,0 -9.498,0 -9.498,0l25.304,41.824c0.299,-0.515 0.63,-1.01 0.988,-1.481Z" style="fill:#efefef;"/><path d="M45.845,63.125l-23.738,-28.993c0,0 -9.248,1.954 -9.248,1.954l30.433,26.447c0.865,0.162 1.717,0.36 2.553,0.592Z" style="fill:#efefef;"/><path d="M16.629,39.362l8.345,-1.729l-2.866,-3.501c0,0 -9.248,1.954 -9.248,1.954l3.77,3.276Z" style="fill:#ddd;"/><path d="M98.918,59.296c-0.237,-0.409 -0.135,-0.934 0.048,-1.475c0.456,-1.346 1.637,-2.726 3.206,-3.635c2.206,-1.279 4.822,-1.473 7.061,-2.154c3.053,-0.929 5.57,-2.497 6.603,-6.628c0.667,-2.668 0.216,-5.388 -0.231,-8.088c-0.341,-2.062 -0.71,-4.112 0.013,-6.094c0.169,-0.464 0.533,-0.75 0.895,-1.037c0.443,-0.352 0.919,-0.678 1.365,-1.037c1.09,-0.877 1.984,-1.929 2.835,-3.033c1.353,-1.754 2.584,-3.625 3.54,-5.628c0.685,-1.435 1.117,-3.072 2.01,-4.397c0.643,-0.954 0.39,-2.249 -0.563,-2.892c-0.954,-0.643 -2.249,-0.39 -2.892,0.563c-1.006,1.493 -1.545,3.314 -2.316,4.932c-0.829,1.737 -1.905,3.355 -3.078,4.877c-0.65,0.843 -1.315,1.661 -2.148,2.331c-1.402,1.128 -2.912,2.107 -3.563,3.894c-0.973,2.669 -0.668,5.425 -0.209,8.201c0.353,2.138 0.827,4.287 0.299,6.398c-0.727,2.908 -2.863,3.469 -5.122,4.011c-2.194,0.526 -4.533,0.985 -6.589,2.177c-2.517,1.459 -4.331,3.742 -5.062,5.903c-0.609,1.799 -0.496,3.54 0.293,4.902c0.577,0.995 1.852,1.334 2.847,0.758c0.995,-0.577 1.334,-1.852 0.758,-2.847Z"/><path d="M84.367,56.16c0.131,-0.436 1.155,-3.821 1.617,-4.753c1.214,-2.455 3.766,-3.052 6.219,-3.81c3.532,-1.092 6.969,-2.335 8.79,-5.781c2.108,-3.99 1.377,-10.071 -2.761,-12.467c-1.179,-0.683 -2.452,-1.068 -3.607,-1.526c-0.938,-0.372 -1.802,-0.777 -2.023,-2.092c-0.047,-0.28 -0.045,-0.576 0.03,-0.85c0.083,-0.302 0.351,-0.445 0.616,-0.561c0.365,-0.16 0.773,-0.243 1.162,-0.286c1.527,-0.171 3.04,0.042 4.549,0.155c1.909,0.142 3.809,0.145 5.718,-0.487c2.341,-0.775 4.584,-2.368 5.926,-4.456c0.779,-1.211 1.311,-2.545 1.884,-3.854c0.439,-1.004 0.896,-1.997 1.654,-2.834c0.771,-0.853 0.706,-2.171 -0.147,-2.943c-0.853,-0.771 -2.171,-0.706 -2.943,0.147c-1.066,1.179 -1.763,2.546 -2.381,3.96c-0.485,1.108 -0.913,2.246 -1.572,3.271c-0.839,1.306 -2.267,2.268 -3.731,2.753c-1.367,0.453 -2.732,0.39 -4.099,0.288c-1.766,-0.132 -3.537,-0.341 -5.323,-0.141c-2.285,0.256 -4.662,1.437 -5.332,3.887c-0.234,0.853 -0.267,1.771 -0.121,2.643c0.457,2.711 1.872,3.992 3.678,4.873c1.201,0.586 2.66,0.899 3.973,1.659c1.053,0.61 1.59,1.729 1.783,2.915c0.222,1.359 -0.003,2.836 -0.618,4c-1.274,2.411 -3.865,2.983 -6.336,3.747c-3.55,1.097 -6.966,2.39 -8.723,5.944c-0.592,1.197 -1.793,4.96 -1.967,5.76c-0.273,1.256 0.431,1.938 0.546,2.053c0.813,0.813 2.133,0.813 2.946,0c0.34,-0.34 0.538,-0.77 0.593,-1.213Z"/><path d="M73.051,52.937c-0.029,-0.055 -0.234,-0.444 -0.341,-0.733c-0.305,-0.825 -0.557,-1.928 -0.609,-2.989c-0.025,-0.508 -0.007,-1.005 0.095,-1.443c0.048,-0.205 0.091,-0.402 0.22,-0.53c1.877,-1.877 3.353,-1.968 5.563,-2.86c2.467,-0.996 5.238,-3.416 6.131,-5.972c0.989,-2.83 0.376,-4.877 -0.859,-6.727c-0.911,-1.366 -2.275,-2.59 -3.375,-4.095c-0.767,-1.05 -1.314,-2.516 -1.303,-3.82c0.006,-0.655 0.37,-1.063 0.797,-1.417c0.522,-0.432 1.142,-0.79 1.746,-1.165c1.734,-1.075 3.42,-2.254 4.742,-3.829c1.408,-1.677 2.494,-3.67 3.246,-5.72c0.396,-1.08 -0.159,-2.277 -1.239,-2.673c-1.08,-0.396 -2.277,0.159 -2.673,1.239c-0.587,1.602 -1.425,3.165 -2.525,4.476c-1.036,1.235 -2.387,2.123 -3.747,2.966c-2.324,1.441 -4.486,3.006 -4.514,6.085c-0.02,2.151 0.84,4.585 2.105,6.317c0.885,1.211 1.94,2.241 2.797,3.307c0.82,1.019 1.429,2.075 0.868,3.682c-0.534,1.529 -2.28,2.886 -3.757,3.482c-2.795,1.128 -4.577,1.404 -6.95,3.778c-1.117,1.117 -1.633,3.049 -1.53,5.125c0.135,2.739 1.309,5.604 2.115,6.41c0.813,0.813 2.133,0.813 2.946,0c0.796,-0.796 0.813,-2.078 0.05,-2.894Z"/><path d="M44.448,37.512l8.479,-0.012l-2.233,-5.365c0,0 -9.498,0 -9.498,0l3.253,5.377Z" style="fill:#ddd;"/><path d="M35.071,66.271c0.799,-0.071 1.61,-0.108 2.429,-0.108c5.25,0 10.152,1.497 14.303,4.086c0.022,0.014 0.044,0.028 0.066,0.042c7.081,4.444 11.964,12.074 12.635,20.873l-3.28,0c-0.569,-6.458 -3.762,-12.176 -8.516,-16.098c-1.667,-1.839 -3.585,-3.449 -5.697,-4.775c-0.022,-0.013 -0.045,-0.027 -0.066,-0.042c-3.503,-2.185 -7.542,-3.592 -11.873,-3.978Z" style="fill:#e8c712;"/><path d="M35.071,73.929c0.796,-0.097 1.607,-0.148 2.429,-0.148c10.13,-0 18.486,7.612 19.538,17.381l-3,0c-0.662,-5.297 -3.814,-9.826 -8.247,-12.375c-2.917,-2.605 -6.625,-4.357 -10.72,-4.859Z" style="fill:#e8c712;"/><path d="M35.071,80.983c0.786,-0.155 1.598,-0.236 2.429,-0.236c6.189,0 11.334,4.508 12.327,10.417l-3.124,0c-0.62,-2.859 -2.491,-5.235 -4.989,-6.511c-1.748,-1.845 -4.053,-3.158 -6.643,-3.669Z" style="fill:#e8c712;"/><path d="M35.071,88.419c0.726,-0.392 1.551,-0.614 2.429,-0.614c2.198,0 4.07,1.393 4.859,3.358l-4.859,0c-0.474,-1.181 -1.338,-2.154 -2.429,-2.744Z" style="fill:#e8c712;"/></g></svg>