<?xml version="1.0" encoding="UTF-8" standalone="no"?><!DOCTYPE svg PUBLIC "-//W3C//DTD SVG 1.1//EN" "http://www.w3.org/Graphics/SVG/1.1/DTD/svg11.dtd"><svg width="100%" height="100%" viewBox="0 0 134 134" version="1.1" xmlns="http://www.w3.org/2000/svg" xmlns:xlink="http://www.w3.org/1999/xlink" xml:space="preserve" xmlns:serif="http://www.serif.com/" style="fill-rule:evenodd;clip-rule:evenodd;stroke-linejoin:round;stroke-miterlimit:2;"><g id="Icon"><g><path d="M64.583,22.671l0,5.369c-10.983,0.977 -19.731,9.606 -20.737,20.421l-1.859,0c-1.151,0 -2.083,0.933 -2.083,2.083l0,9.455l-9.295,0l0,-9.457c0,-0.529 -0.197,-1.012 -0.522,-1.379c-0.129,-0.157 -0.226,-0.286 -0.23,-0.431c-0.005,-0.187 0.103,-0.351 0.205,-0.531c0.213,-0.377 0.5,-0.751 0.804,-1.144c1.527,-1.977 3.237,-4.266 2.844,-7.456c-0.354,-2.879 -1.613,-4.454 -3.355,-5.797c-1.855,-1.43 -4.505,-2.45 -6.803,-5.756c-0.006,-0.008 -0.011,-0.016 -0.017,-0.024c-0.144,-0.22 -0.332,-0.415 -0.561,-0.573c-0.947,-0.652 -2.246,-0.411 -2.897,0.536c-2.3,3.344 -4.962,4.371 -6.827,5.803c-1.752,1.346 -3.018,2.922 -3.374,5.811c-0.394,3.202 1.476,5.518 3.101,7.503c0.26,0.318 0.506,0.625 0.705,0.931c0.124,0.191 0.264,0.356 0.266,0.552c0.003,0.173 -0.171,0.294 -0.367,0.492c-0.419,0.424 -0.619,0.983 -0.601,1.536l0,58.825c-1.455,0.27 -2.796,0.818 -3.878,1.582c-1.883,1.329 -2.853,3.182 -2.853,5.062c0,1.88 0.97,3.733 2.853,5.062c1.583,1.118 3.722,1.773 5.961,1.773l103.205,0c2.239,0 4.378,-0.656 5.961,-1.773c1.883,-1.329 2.853,-3.182 2.853,-5.062c-0,0 -0,-0 -0,-0c-0,-1.88 -0.97,-3.733 -2.853,-5.062c-1.082,-0.764 -2.423,-1.311 -3.878,-1.582l0,-58.895c0,-0.267 -0.05,-0.522 -0.142,-0.757c-0.078,-0.201 -0.19,-0.393 -0.334,-0.569c-0.15,-0.182 -0.269,-0.323 -0.274,-0.485c-0.005,-0.187 0.103,-0.351 0.205,-0.531c0.213,-0.377 0.5,-0.751 0.804,-1.144c1.527,-1.977 3.237,-4.266 2.844,-7.456c-0.354,-2.879 -1.613,-4.454 -3.355,-5.797c-1.855,-1.43 -4.505,-2.45 -6.803,-5.756c-0.006,-0.008 -0.011,-0.016 -0.017,-0.024c-0.144,-0.22 -0.332,-0.415 -0.561,-0.573c-0.947,-0.652 -2.246,-0.411 -2.897,0.536c-2.3,3.344 -4.962,4.371 -6.827,5.803c-1.752,1.346 -3.018,2.922 -3.374,5.811c-0.394,3.202 1.476,5.518 3.101,7.503c0.26,0.318 0.506,0.625 0.705,0.931c0.124,0.191 0.264,0.356 0.266,0.552c0.002,0.165 -0.155,0.282 -0.339,0.464c-0.389,0.378 -0.631,0.908 -0.631,1.493l0,9.457l-9.295,0l0,-9.455c0,-1.151 -0.933,-2.083 -2.083,-2.083l-1.859,0c-1.005,-10.814 -9.754,-19.443 -20.737,-20.421l-0,-2.484c2.477,0.76 5.271,0.367 7.5,-1.304c0.92,-0.69 1.107,-1.997 0.417,-2.917c-0.69,-0.92 -1.997,-1.107 -2.917,-0.417c-1.863,1.397 -4.51,1.019 -5.907,-0.844c-1.397,-1.863 -1.019,-4.51 0.844,-5.907c0.92,-0.69 1.107,-1.997 0.417,-2.917c-0.69,-0.92 -1.997,-1.107 -2.917,-0.417c-3.703,2.777 -4.455,8.038 -1.678,11.741c0.024,0.033 0.049,0.065 0.074,0.097Z"/><path d="M106.891,113.413l0,5.337l11.378,0c1.331,0 2.616,-0.346 3.558,-1.01c0.643,-0.454 1.09,-1.016 1.09,-1.658c-0,-0.642 -0.447,-1.204 -1.09,-1.658c-0.941,-0.665 -2.226,-1.01 -3.558,-1.01l-11.378,-0Z" style="fill:#fef1da;"/><path d="M113.641,113.413c0,-0 4.628,0 4.628,0c1.331,-0 2.616,0.346 3.558,1.01c0.643,0.454 1.09,1.016 1.09,1.658c-0,0.642 -0.447,1.204 -1.09,1.658c-0.941,0.665 -2.226,1.01 -3.558,1.01l-4.628,-0c1.331,0 2.616,-0.346 3.558,-1.01c0.643,-0.454 1.09,-1.016 1.09,-1.658c-0,-0.642 -0.447,-1.204 -1.09,-1.658c-0.941,-0.665 -2.226,-1.01 -3.558,-1.01Z" style="fill:#f4dfba;"/><rect x="30.609" y="113.413" width="72.115" height="5.337" style="fill:#fef1da;"/><path d="M26.442,113.413l-11.378,-0c-1.331,-0 -2.616,0.346 -3.558,1.01c-0.643,0.454 -1.09,1.016 -1.09,1.658c0,0.642 0.447,1.204 1.09,1.658c0.941,0.665 2.226,1.01 3.558,1.01l11.378,0l0,-5.337Z" style="fill:#fef1da;"/><rect x="106.891" y="102.083" width="9.295" height="7.163" style="fill:#fbd59a;"/><rect x="111.558" y="102.083" width="4.628" height="7.163" style="fill:#f0bf73;"/><rect x="17.147" y="102.083" width="9.295" height="7.163" style="fill:#fbd59a;"/><path d="M102.724,64.166l-16.026,0l0,10.834c-0,1.151 -0.933,2.083 -2.083,2.083l-35.897,0c-1.151,0 -2.083,-0.933 -2.083,-2.083l0,-10.834l-16.026,0l0,45.08l4.631,-0l0,-10.593c0,-4.651 3.77,-8.421 8.421,-8.421c4.651,-0 8.421,3.77 8.421,8.421l0,10.593l3.526,-0l0,-15.865c0,-6.107 4.951,-11.058 11.058,-11.058c6.107,-0 11.058,4.951 11.058,11.058l0,15.865l3.526,-0l0,-10.593c0,-4.651 3.77,-8.421 8.421,-8.421c4.651,-0 8.421,3.77 8.421,8.421l0,10.593l4.631,-0l0,-45.08Z" style="fill:#fef1da;"/><rect x="98.093" y="64.166" width="4.631" height="45.08" style="fill:#f4dfba;"/><path d="M43.662,94.399c-2.35,0 -4.255,1.905 -4.255,4.255l-0,10.593l8.51,-0l-0,-10.593c-0,-2.35 -1.905,-4.255 -4.255,-4.255Z" style="fill:#e19974;"/><path d="M41.579,94.943c0.616,-0.346 1.326,-0.544 2.083,-0.544c2.35,0 4.255,1.905 4.255,4.255l0,10.593l-4.167,0c-0,-0 -0,-10.593 -0,-10.593c-0,-1.593 -0.875,-2.981 -2.171,-3.711Z" style="fill:#c5825f;"/><path d="M66.667,86.49c-3.806,0 -6.891,3.085 -6.891,6.891l-0,15.865l13.782,-0l-0,-15.866c-0,-3.806 -3.085,-6.891 -6.891,-6.891Z" style="fill:#e19974;"/><path d="M64.583,86.811c0.657,-0.208 1.357,-0.321 2.083,-0.321c3.806,0 6.891,3.085 6.891,6.891l0,15.866l-4.167,0c-0,-0 -0,-15.866 -0,-15.866c-0,-3.08 -2.02,-5.687 -4.808,-6.57Z" style="fill:#c5825f;"/><path d="M89.671,94.399c-2.35,0 -4.255,1.905 -4.255,4.255l-0,10.593l8.51,-0l-0,-10.593c-0,-2.35 -1.905,-4.255 -4.255,-4.255Z" style="fill:#e19974;"/><path d="M87.588,94.943c0.616,-0.346 1.326,-0.544 2.083,-0.544c2.35,0 4.255,1.905 4.255,4.255l0,10.593l-4.167,0c-0,-0 -0,-10.593 -0,-10.593c-0,-1.593 -0.875,-2.981 -2.171,-3.711Z" style="fill:#c5825f;"/><path d="M17.147,97.917l9.295,0l0,-45.291l-2.564,-0l-0,26.541c-0,1.15 -0.934,2.083 -2.083,2.083c-1.15,-0 -2.083,-0.934 -2.083,-2.083l0,-26.541l-2.564,-0l0,45.291Z" style="fill:#fef1da;"/><path d="M106.891,52.626l0,45.291l9.295,0l0,-45.291l-2.564,-0l-0,26.541c0,1.15 -0.934,2.083 -2.083,2.083c-1.15,0 -2.083,-0.934 -2.083,-2.083l0,-26.541l-2.564,-0Z" style="fill:#fef1da;"/><path d="M111.558,81.25l-0,16.667l4.628,0l0,-45.291l-2.564,-0l-0,26.541c0,1.143 -0.923,2.073 -2.064,2.083Z" style="fill:#f4dfba;"/><path d="M82.532,64.166l-31.731,0l0,8.751c0,0 31.731,0 31.731,-0l0,-8.751Z" style="fill:#fbd59a;"/><path d="M77.564,64.166l4.968,0l0,8.751c0,0 -4.968,0 -4.968,-0l-0,-8.751Z" style="fill:#f0bf73;"/><path d="M89.263,59.999c0,-2.784 0,-7.372 0,-7.372c0,0 -45.192,-0 -45.192,0l0,7.372l2.564,0l0,-0.871c-0,-1.15 0.934,-2.083 2.083,-2.083c1.15,-0 2.083,0.934 2.083,2.083l0,0.871l4.808,0l0,-0.871c-0,-1.15 0.934,-2.083 2.083,-2.083c1.15,-0 2.083,0.934 2.083,2.083l0,0.871l4.808,0l0,-0.871c0,-1.15 0.934,-2.083 2.083,-2.083c1.15,0 2.083,0.934 2.083,2.083l0,0.871l4.808,0l0,-0.871c-0,-1.15 0.934,-2.083 2.083,-2.083c1.15,-0 2.083,0.934 2.083,2.083l0,0.871l4.808,0l0,-0.871c-0,-1.15 0.934,-2.083 2.083,-2.083c1.15,-0 2.083,0.934 2.083,2.083l0,0.871l2.564,0Z" style="fill:#fbd59a;"/><path d="M89.263,59.999c0,-2.784 0,-7.372 0,-7.372c0,0 -1.786,0 -4.647,0l-0,4.417c1.15,-0 2.083,0.934 2.083,2.083l0,0.871l2.564,0Z" style="fill:#f0bf73;"/><path d="M85.298,48.461c-1.055,-9.199 -9.007,-16.346 -18.631,-16.346c-9.624,0 -17.577,7.147 -18.631,16.346l37.263,0Z" style="fill:#fff;"/><path d="M63.601,32.36c0.997,-0.162 2.021,-0.246 3.066,-0.246c9.624,0 17.577,7.147 18.631,16.346l-6.131,0c-0.94,-8.201 -7.363,-14.771 -15.566,-16.1Z" style="fill:#efefef;"/><path d="M111.539,32.482c-1.745,1.855 -3.527,2.927 -5.06,3.945c-1.351,0.898 -2.477,1.691 -2.722,3.682c-0.153,1.242 0.474,2.18 1.113,3.025c0.652,0.861 1.37,1.639 1.894,2.396c0.67,0.967 1.063,1.942 1.094,2.929l7.587,0c0.063,-0.984 0.461,-1.944 1.103,-2.902c0.5,-0.747 1.165,-1.513 1.76,-2.362c0.602,-0.859 1.167,-1.823 1.012,-3.086c-0.244,-1.981 -1.359,-2.775 -2.701,-3.668c-1.536,-1.022 -3.327,-2.095 -5.08,-3.959Z" style="fill:#fff;"/><path d="M109.225,34.548c0.762,-0.578 1.542,-1.245 2.314,-2.066c1.753,1.864 3.544,2.937 5.08,3.959c1.342,0.893 2.457,1.687 2.701,3.668c0.155,1.263 -0.409,2.227 -1.012,3.086c-0.595,0.849 -1.26,1.615 -1.76,2.362c-0.641,0.958 -1.039,1.918 -1.103,2.902l-4.628,0c0.063,-0.984 0.461,-1.944 1.103,-2.902c0.5,-0.747 1.165,-1.513 1.76,-2.362c0.602,-0.859 1.167,-1.823 1.012,-3.086c-0.244,-1.981 -1.359,-2.775 -2.701,-3.668c-0.86,-0.572 -1.799,-1.16 -2.766,-1.893Z" style="fill:#efefef;"/><path d="M21.793,32.482c-1.745,1.855 -3.527,2.927 -5.06,3.945c-1.351,0.898 -2.477,1.691 -2.722,3.682c-0.153,1.242 0.474,2.18 1.113,3.025c0.652,0.861 1.37,1.639 1.894,2.396c0.67,0.967 1.063,1.942 1.094,2.929l7.587,0c0.063,-0.984 0.461,-1.944 1.103,-2.902c0.5,-0.747 1.165,-1.513 1.76,-2.362c0.602,-0.859 1.167,-1.823 1.012,-3.086c-0.244,-1.981 -1.359,-2.775 -2.701,-3.668c-1.536,-1.022 -3.327,-2.095 -5.08,-3.959Z" style="fill:#fff;"/><rect x="21.826" y="113.413" width="4.628" height="5.337" style="fill:#f4dfba;"/><rect x="21.826" y="102.083" width="4.628" height="7.163" style="fill:#f0bf73;"/><path d="M21.826,81.25l-0,16.667l4.628,0l0,-45.291l-2.564,-0l-0,26.541c0,1.143 -0.923,2.073 -2.064,2.083Z" style="fill:#f4dfba;"/><path d="M19.492,34.548c0.762,-0.578 1.542,-1.245 2.314,-2.066c1.753,1.864 3.544,2.937 5.08,3.959c1.342,0.893 2.457,1.687 2.701,3.668c0.155,1.263 -0.409,2.227 -1.012,3.086c-0.595,0.849 -1.26,1.615 -1.76,2.362c-0.641,0.958 -1.039,1.918 -1.103,2.902l-4.628,0c0.063,-0.984 0.461,-1.944 1.103,-2.902c0.5,-0.747 1.165,-1.513 1.76,-2.362c0.602,-0.859 1.167,-1.823 1.012,-3.086c-0.244,-1.981 -1.359,-2.775 -2.701,-3.668c-0.86,-0.572 -1.799,-1.16 -2.766,-1.893Z" style="fill:#efefef;"/></g></g></svg>