<?xml version="1.0" encoding="UTF-8" standalone="no"?><!DOCTYPE svg PUBLIC "-//W3C//DTD SVG 1.1//EN" "http://www.w3.org/Graphics/SVG/1.1/DTD/svg11.dtd"><svg width="100%" height="100%" viewBox="0 0 134 134" version="1.1" xmlns="http://www.w3.org/2000/svg" xmlns:xlink="http://www.w3.org/1999/xlink" xml:space="preserve" xmlns:serif="http://www.serif.com/" style="fill-rule:evenodd;clip-rule:evenodd;stroke-linejoin:round;stroke-miterlimit:2;"><g id="Icon"></g><path d="M37.395,18.75l-16.561,0c-1.151,0 -2.083,0.933 -2.083,2.083l0,16.561l-11.89,11.89c-0.391,0.391 -0.61,0.921 -0.61,1.473l0,31.818c0,0.553 0.219,1.082 0.61,1.473l11.89,11.89l0,16.561c0,1.151 0.933,2.083 2.083,2.083l16.561,0l11.89,11.89c0.391,0.391 0.921,0.61 1.473,0.61l31.818,0c0.553,0 1.082,-0.219 1.473,-0.61l11.89,-11.89l16.561,0c1.151,0 2.083,-0.933 2.083,-2.083l0,-16.561l11.89,-11.89c0.391,-0.391 0.61,-0.921 0.61,-1.473l0,-31.818c0,-0.553 -0.219,-1.082 -0.61,-1.473l-11.89,-11.89l0,-16.561c0,-1.151 -0.933,-2.083 -2.083,-2.083l-16.561,0l-11.89,-11.89c-0.12,-0.12 -0.25,-0.222 -0.389,-0.306l-0.368,-0.178l-0.225,-0.068c-0.157,-0.039 -0.322,-0.059 -0.491,-0.059l-31.818,0c-0.553,0 -1.082,0.219 -1.473,0.61l-11.89,11.89Z"/><path d="M53.485,122.917l26.363,0l-1.38,-5.06l-23.603,-0l-1.38,5.06Z" style="fill:#d8d8d8;"/><path d="M12.345,83.641l37.347,37.347l1.254,-4.596l-34.004,-34.004l-4.596,1.254Z" style="fill:#d8d8d8;"/><path d="M82.388,116.392l1.254,4.596l37.347,-37.347l-4.596,-1.254l-34.004,34.004Z" style="fill:#bfbfbf;"/><path d="M89.584,93.75l0,-4.167l-45.833,0l0,4.167l27.083,0c1.15,-0 2.083,0.934 2.083,2.083c0,1.15 -0.934,2.083 -2.083,2.083l-27.083,-0l0,5.387l10.387,10.387c0,0 25.06,0 25.06,-0l10.387,-10.387l0,-5.387l-6.25,-0c-1.15,-0 -2.083,-0.934 -2.083,-2.083c0,-1.15 0.934,-2.083 2.083,-2.083l6.25,0Z" style="fill:#fbd59a;"/><path d="M89.584,89.583l0,4.167l-6.25,-0c-1.15,-0 -2.083,0.934 -2.083,2.083c-0,1.15 0.934,2.083 2.083,2.083l6.25,0l0,5.387l-10.387,10.387l-8.955,0c-0,-0 10.387,-10.387 10.387,-10.387l0,-13.72l8.955,0Z" style="fill:#f1c889;"/><path d="M33.228,110.417l-10.311,-10.311c0,4.473 0,10.311 0,10.311l10.311,0Z" style="fill:#fbd59a;"/><path d="M110.417,100.105l-10.311,10.311c4.473,-0 10.311,-0 10.311,-0l0,-10.311Z" style="fill:#f1c889;"/><path d="M68.75,44.348l0,3.71c12.918,0.996 23.227,11.163 24.251,23.88l2.493,0l0.317,0.024l0.399,0.103c0.797,0.292 1.367,1.059 1.367,1.957l0,13.478c0,1.151 -0.933,2.083 -2.083,2.083l-1.744,0l0,9.554l19.94,-19.941c0,0 0,-25.06 -0,-25.06l-34.494,-34.494l-25.06,0c0,0 -34.494,34.494 -34.494,34.494c0,0 0,25.06 0,25.06l19.94,19.94l0,-9.554l-1.744,0c-1.151,0 -2.083,-0.933 -2.083,-2.083l0,-13.478c0,-1.151 0.933,-2.083 2.083,-2.083l2.493,0c1.023,-12.717 11.334,-22.886 24.251,-23.88l-0,-6.714c-0.053,-0.067 -0.105,-0.135 -0.157,-0.203c-3.128,-4.171 -2.281,-10.096 1.89,-13.224c0.92,-0.69 2.227,-0.503 2.917,0.417c0.69,0.92 0.503,2.227 -0.417,2.917c-2.331,1.748 -2.804,5.06 -1.056,7.39c1.748,2.331 5.06,2.804 7.39,1.056c0.92,-0.69 2.227,-0.503 2.917,0.417c0.69,0.92 0.503,2.227 -0.417,2.917c-2.648,1.986 -6.003,2.369 -8.9,1.317Z" style="fill:#fff;"/><path d="M73.839,19.643l5.357,-0l34.494,34.494c0,0 0,25.06 0,25.06l-19.94,19.941l0,-5.357l16.005,-16.005c0,0 0,-22.216 0,-22.216l-35.916,-35.916Z" style="fill:#efecec;"/><path d="M93.411,76.106l-53.488,-0c0,0 0,9.311 -0,9.311l3.695,0l0,-1.368c-0,-1.15 0.934,-2.083 2.083,-2.083c1.15,-0 2.083,0.934 2.083,2.083l0,1.368l6.316,0l0,-1.368c-0,-1.15 0.934,-2.083 2.083,-2.083c1.15,-0 2.083,0.934 2.083,2.083l0,1.368l6.316,0l0,-1.368c0,-1.15 0.934,-2.083 2.083,-2.083c1.15,0 2.083,0.934 2.083,2.083l0,1.368l6.316,0l0,-1.368c-0,-1.15 0.934,-2.083 2.083,-2.083c1.15,-0 2.083,0.934 2.083,2.083l0,1.368l6.316,0l0,-1.368c-0,-1.15 0.934,-2.083 2.083,-2.083c1.15,-0 2.083,0.934 2.083,2.083l0,1.368l3.695,0l0,-9.311Z" style="fill:#fbd59a;"/><path d="M84.456,76.106l-0,0l0,9.311l1.093,0l0,-1.368c-0,-1.15 0.934,-2.083 2.083,-2.083c1.15,-0 2.083,0.934 2.083,2.083l0,1.368l3.695,0l0,-9.311l-8.955,-0Z" style="fill:#f1c889;"/><path d="M10.417,79.848l5.06,-1.38l-0,-23.603l-5.06,-1.38l-0,26.363Z" style="fill:#d8d8d8;"/><path d="M117.857,54.865l0,23.603l5.06,1.38l0,-26.363l-5.06,1.38Z" style="fill:#bfbfbf;"/><path d="M88.819,71.939c-1.07,-11.107 -10.594,-19.794 -22.152,-19.794c-11.558,0 -21.082,8.687 -22.152,19.794l44.303,0Z" style="fill:#fff;"/><path d="M62.189,52.589c1.446,-0.291 2.944,-0.444 4.478,-0.444c11.558,0 21.082,8.687 22.152,19.794l-8.955,-0c-0.928,-9.633 -8.215,-17.446 -17.674,-19.35Z" style="fill:#efefef;"/><path d="M12.345,49.692l4.596,1.254l34.004,-34.004l-1.254,-4.596l-37.347,37.347Z" style="fill:#d8d8d8;"/><path d="M82.388,16.941l34.004,34.004l4.596,-1.254l-37.347,-37.347l-1.254,4.596Z" style="fill:#bfbfbf;"/><path d="M33.228,22.917c-4.473,0 -10.311,0 -10.311,0l0,10.311l10.311,-10.311Z" style="fill:#fbd59a;"/><path d="M110.417,33.228c-0,-4.473 -0,-10.311 -0,-10.311l-10.311,0l10.311,10.311Z" style="fill:#f1c889;"/><path d="M54.865,15.476l23.603,0l1.38,-5.06l-26.363,-0l1.38,5.06Z" style="fill:#d8d8d8;"/><path d="M53.485,122.917l26.363,0l-1.38,-5.06l-24.983,5.06Z" style="fill:#bfbfbf;"/><path d="M53.485,10.417l24.983,5.06l1.38,-5.06l-26.363,-0Z" style="fill:#bfbfbf;"/></svg>