<?xml version="1.0" encoding="UTF-8" standalone="no"?><!DOCTYPE svg PUBLIC "-//W3C//DTD SVG 1.1//EN" "http://www.w3.org/Graphics/SVG/1.1/DTD/svg11.dtd"><svg width="100%" height="100%" viewBox="0 0 134 134" version="1.1" xmlns="http://www.w3.org/2000/svg" xmlns:xlink="http://www.w3.org/1999/xlink" xml:space="preserve" xmlns:serif="http://www.serif.com/" style="fill-rule:evenodd;clip-rule:evenodd;stroke-linejoin:round;stroke-miterlimit:2;"><g id="Icon"></g><path d="M34.864,22.917l-26.531,0c-1.15,0 -2.083,0.934 -2.083,2.083l-0,100c0,1.151 0.933,2.083 2.083,2.083l116.667,0c1.151,0 2.083,-0.933 2.083,-2.083l0,-100c-0,-1.15 -0.934,-2.083 -2.083,-2.083l-26.531,0c-6.539,-9.982 -18.325,-16.667 -31.803,-16.667c-13.477,0 -25.264,6.685 -31.803,16.667Z"/><path d="M54.083,122.917l10.5,0c0,0 0,-20.135 -0,-20.135c0,0 -11.879,-7.92 -11.879,-7.92c-2.853,1.844 -10.45,5.774 -23.371,5.774c-8.232,0 -12.332,4.825 -14.39,10.143l-0.793,2.382c-1.044,3.679 -1.309,7.327 -1.377,9.757l18.477,0l0,-8.232c0,-3.599 2.918,-6.517 6.518,-6.517l9.798,0c3.599,0 6.517,2.918 6.518,6.517l0,8.232Z" style="fill:#fff;"/><path d="M49.917,122.917l-14.5,-0l-0,-8.231c0,-1.298 1.053,-2.351 2.351,-2.351c0,-0 9.798,-0 9.798,-0c1.298,0 2.351,1.052 2.351,2.351l-0,8.232Z" style="fill:#efefef;"/><path d="M68.75,122.917l0,-20.135c-0,-0 11.879,-7.92 11.879,-7.92c2.852,1.843 10.45,5.773 23.371,5.773c8.232,0 12.332,4.825 14.39,10.143c1.713,4.425 2.088,9.183 2.17,12.139l-51.81,-0Z" style="fill:#fff;"/><path d="M75.327,98.397l5.303,-3.535c2.852,1.843 10.45,5.773 23.371,5.773c8.232,0 12.332,4.825 14.39,10.143c1.713,4.425 2.088,9.183 2.17,12.139l-7.198,-0c-0.219,-2.796 -0.751,-6.312 -2.039,-9.639c-2.058,-5.317 -6.158,-10.143 -14.39,-10.143c-10.827,0 -17.915,-2.759 -21.606,-4.738Z" style="fill:#efefef;"/><path d="M87.943,106.675c3.143,1.672 6.785,1.877 10.336,2.05c2.85,0.139 5.639,0.205 7.825,1.672c2.816,1.89 2.948,5.355 2.948,5.355c0.047,1.149 1.017,2.044 2.166,1.997c1.149,-0.047 2.044,-1.017 1.997,-2.166c0,0 -0.236,-5.59 -4.79,-8.645c-2.794,-1.875 -6.303,-2.196 -9.944,-2.374c-2.94,-0.143 -5.98,-0.183 -8.582,-1.567c-1.015,-0.54 -2.278,-0.154 -2.818,0.861c-0.54,1.015 -0.154,2.278 0.861,2.818Z"/><path d="M45.579,93.75l-35.163,0l0,16.667l0.226,0c0.13,-0.382 0.268,-0.763 0.415,-1.143c2.609,-6.74 7.842,-12.805 18.276,-12.805c7.247,0 12.624,-1.337 16.246,-2.719Z" style="fill:#888;"/><path d="M122.917,93.75l-35.163,0c3.622,1.382 8.999,2.719 16.246,2.719c10.435,0 15.668,6.065 18.276,12.805c0.147,0.379 0.285,0.761 0.415,1.143l0.226,0l0,-16.667Z" style="fill:#888;"/><path d="M78.583,87.931c-3.74,1.179 -7.748,1.819 -11.917,1.819c-4.08,0 -8.006,-0.613 -11.677,-1.744l0,3.372l11.677,7.784l11.917,-7.944l0,-3.287Z" style="fill:#ffc5b3;"/><path d="M71.315,89.482l-9.585,6.39l4.937,3.291l11.917,-7.944l0,-3.287c-2.328,0.734 -4.759,1.259 -7.268,1.551Z" style="fill:#ffb8a2;"/><rect x="110.417" y="81.25" width="12.5" height="8.333" style="fill:#888;"/><path d="M100.877,68.75c-0.224,0.483 -0.459,0.961 -0.706,1.433l0,19.4l6.079,0l0,-20.833l-5.373,0Z" style="fill:#888;"/><path d="M96.005,76.398c-3.52,4.195 -8.052,7.62 -13.255,9.95l0,3.235c3.597,-0 13.255,-0 13.255,-0l0,-13.185Z" style="fill:#888;"/><path d="M22.917,68.75l-12.5,0l0,20.833l12.5,-0l0,-20.833Z" style="fill:#888;"/><path d="M43.75,82.387l0,7.196l6.833,-0l0,-3.235c-2.437,-1.091 -4.726,-2.423 -6.833,-3.961Z" style="fill:#6f6f6f;"/><path d="M31.25,68.75l-4.167,0l0,20.833l4.167,-0l0,-20.833Z" style="fill:#888;"/><path d="M35.417,73.901l0,15.682l4.167,-0l0,-10.74c-1.542,-1.525 -2.938,-3.179 -4.167,-4.943Z" style="fill:#888;"/><path d="M93.817,37.527c-0.841,0.257 -1.864,0.202 -2.944,-0.156c-0.757,-0.251 -1.566,-0.645 -2.311,-0.998c-0.156,-0.074 -0.345,-0.155 -0.521,-0.228c-0.056,0.115 -0.11,0.234 -0.171,0.35c-0.261,0.491 -0.526,0.982 -0.835,1.403c-0.841,1.146 -1.944,1.886 -3.651,1.748c-1.251,-0.101 -2.306,-0.715 -3.229,-1.62c-0.767,-0.752 -1.393,-1.794 -2.203,-2.376c-0.194,-0.139 -0.464,-0.331 -0.732,-0.371c-0.075,0.174 -0.175,0.417 -0.232,0.589c-0.227,0.686 -0.451,1.39 -0.743,1.931c-0.687,1.274 -1.7,1.946 -3.099,1.849c-1.283,-0.089 -2.582,-1.06 -3.491,-1.861c-1.036,-0.913 -1.927,-2.337 -2.846,-3.697c-0.14,-0.207 -0.277,-0.415 -0.417,-0.616c-0.094,0.565 -0.219,1.148 -0.416,1.626c-0.399,0.97 -1.044,1.655 -1.836,1.996c-0.743,0.32 -1.543,0.332 -2.327,0.092c-0.691,-0.211 -1.373,-0.65 -1.866,-1.028c-0.657,-0.503 -1.222,-1.116 -1.789,-1.72c-0.478,-0.509 -0.92,-1.06 -1.627,-1.264c-1.018,-0.293 -1.729,0.055 -2.344,0.601c-0.677,0.6 -1.27,1.376 -1.894,2.124c-0.66,0.792 -1.486,1.717 -2.435,2.313c-0.896,0.564 -1.894,0.867 -2.974,0.774c-1.779,-0.154 -3.426,-1.589 -4.712,-2.688c-0.219,-0.187 -0.613,-0.468 -1.008,-0.778c-3.283,3.668 -5.659,8.059 -6.806,12.878c-0.009,0.047 -0.02,0.094 -0.033,0.14c-0.484,2.081 -0.738,4.24 -0.738,6.455c0,8.325 3.596,15.86 9.421,21.369c0.058,0.049 0.114,0.101 0.166,0.156c2.921,2.724 6.392,4.942 10.242,6.502l0.284,0.114c3.985,1.573 8.369,2.443 12.967,2.443c4.684,0 9.145,-0.903 13.191,-2.532c0.02,-0.008 0.04,-0.017 0.061,-0.024c7.045,-2.854 12.819,-7.913 16.283,-14.239c0.034,-0.073 0.073,-0.144 0.115,-0.212c2.196,-4.089 3.431,-8.697 3.431,-13.576c0,-2.215 -0.255,-4.375 -0.738,-6.455c-0.013,-0.046 -0.024,-0.093 -0.033,-0.14c-0.945,-3.972 -2.725,-7.653 -5.159,-10.877Z" style="fill:#ffc5b3;"/><path d="M85.48,39.282c0.619,-0.31 1.121,-0.793 1.554,-1.383c0.309,-0.421 0.574,-0.912 0.835,-1.403c0.061,-0.115 0.115,-0.235 0.171,-0.35c0.176,0.072 0.364,0.154 0.521,0.228c0.745,0.353 1.554,0.747 2.311,0.998c1.081,0.358 2.103,0.412 2.944,0.156c2.434,3.224 4.214,6.905 5.159,10.877c0.009,0.047 0.02,0.094 0.033,0.14c0.484,2.081 0.738,4.24 0.738,6.455c0,4.879 -1.235,9.487 -3.431,13.576c-0.042,0.068 -0.081,0.139 -0.115,0.212c-3.464,6.327 -9.238,11.386 -16.283,14.239c-0.02,0.008 -0.041,0.016 -0.061,0.024c-4.045,1.629 -8.507,2.532 -13.191,2.532c-1.624,0 -3.221,-0.109 -4.783,-0.318c2.944,-0.395 5.764,-1.149 8.407,-2.214c0.02,-0.008 0.04,-0.017 0.061,-0.024c7.045,-2.854 12.819,-7.913 16.283,-14.239c0.034,-0.073 0.073,-0.144 0.115,-0.212c2.196,-4.089 3.431,-8.697 3.431,-13.576c0,-2.215 -0.255,-4.375 -0.738,-6.455c-0.013,-0.046 -0.024,-0.093 -0.033,-0.14c-0.778,-3.269 -2.121,-6.34 -3.929,-9.122Z" style="fill:#ffb8a2;"/><rect x="110.417" y="68.75" width="12.5" height="8.333" style="fill:#888;"/><path d="M102.475,64.583l20.442,0l0,-8.333l-9.151,0c-2.002,3.297 -5.626,5.5 -9.766,5.5l-0.791,-0.001c-0.203,0.959 -0.448,1.903 -0.734,2.834Z" style="fill:#888;"/><path d="M18.75,54.623l0,9.96l12.108,0c-0.286,-0.929 -0.531,-1.874 -0.734,-2.833l-0.791,-0c-4.788,-0 -8.888,-2.948 -10.583,-7.127Z" style="fill:#888;"/><rect x="10.417" y="35.417" width="4.167" height="29.167" style="fill:#888;"/><path d="M29.486,43.083l-0.153,0c-4.004,0 -7.25,3.246 -7.25,7.25c0,0 0,1.151 0,0c0,4.004 3.246,7.25 7.25,7.25l0.188,0c-0.067,-0.853 -0.102,-1.715 -0.102,-2.583c0,-2.396 0.261,-4.736 0.758,-6.998c-0.352,-1.602 -0.586,-3.244 -0.692,-4.919Z" style="fill:#ffbaa4;"/><path d="M103.848,43.083c-0.106,1.674 -0.34,3.317 -0.692,4.919c0.497,2.262 0.758,4.602 0.758,6.998c0,0.869 -0.034,1.73 -0.102,2.583l0.188,-0c4.004,-0 7.25,-3.246 7.25,-7.25c0,-4.004 -3.246,-7.25 -7.25,-7.25l-0.152,0Z" style="fill:#ffbaa4;"/><path d="M115.283,52.083l7.633,0l0,-4.167l-7.756,0c0.168,0.779 0.256,1.588 0.256,2.417c-0,0.595 -0.046,1.18 -0.133,1.75Z" style="fill:#6f6f6f;"/><path d="M22.917,40.889l0,-5.473l-4.167,0l0,10.627c0.853,-2.103 2.315,-3.894 4.167,-5.154Z" style="fill:#888;"/><path d="M113.329,43.75l9.588,0l0,-8.333l-19.483,0c0.2,1.149 0.338,2.316 0.414,3.5l0.152,0c3.854,0 7.262,1.909 9.328,4.833Z" style="fill:#888;"/><path d="M32.534,27.083l-5.451,0l0,12.055c0.728,-0.145 1.48,-0.222 2.25,-0.222l0.152,-0c0.266,-4.183 1.328,-8.171 3.048,-11.833Z" style="fill:#888;"/><path d="M95.481,25.97c-5.689,-9.294 -16.483,-15.553 -28.814,-15.553c-12.331,0 -23.126,6.259 -28.814,15.553c-0.039,0.073 -0.082,0.144 -0.128,0.212c-2.288,3.81 -3.722,8.118 -4.06,12.709c6.222,-11.064 18.654,-18.641 33.003,-18.641c11.683,0 22.096,5.024 28.92,12.863c0.059,0.06 0.114,0.124 0.165,0.191c1.489,1.735 2.803,3.605 3.918,5.587c-0.338,-4.591 -1.772,-8.9 -4.06,-12.709c-0.047,-0.068 -0.09,-0.139 -0.128,-0.212Z" style="fill:#fff;"/><path d="M61.883,10.735c1.562,-0.21 3.159,-0.318 4.783,-0.318c12.331,0 23.126,6.259 28.814,15.553c0.039,0.073 0.082,0.144 0.128,0.212c2.288,3.809 3.722,8.118 4.06,12.709c-1.115,-1.982 -2.429,-3.852 -3.918,-5.587c-0.051,-0.067 -0.106,-0.13 -0.165,-0.191c-2.881,-3.31 -6.402,-6.118 -10.39,-8.258c-5.046,-7.486 -13.493,-12.802 -23.314,-14.12Z" style="fill:#efefef;"/><path d="M88.252,31.83c-5.803,-4.623 -13.351,-7.414 -21.586,-7.414c-8.666,0 -16.573,3.091 -22.483,8.155c0.285,0.228 0.562,0.452 0.693,0.564c0.456,0.389 0.954,0.873 1.499,1.269c0.275,0.2 0.548,0.409 0.866,0.436c0.339,0.029 0.578,-0.258 0.83,-0.488c0.385,-0.35 0.721,-0.758 1.02,-1.116c2.266,-2.72 4.527,-5.232 8.592,-4.061c1.265,0.364 2.233,1.108 3.106,1.993c0.507,0.514 0.969,1.09 1.525,1.554l0.022,-0.121c0.109,-0.699 0.17,-1.38 0.265,-1.803c0.135,-0.601 0.452,-1.484 0.917,-1.991c0.727,-0.793 1.696,-1.211 3.038,-0.621c1.216,0.534 2.252,1.558 3.16,2.797c0.924,1.26 1.687,2.793 2.692,3.679c0.135,0.118 0.28,0.251 0.435,0.381c0.159,-0.45 0.356,-0.989 0.502,-1.338c0.49,-1.17 1.255,-1.999 2.23,-2.339c1.583,-0.551 3.606,0.04 4.806,0.901c0.721,0.518 1.369,1.275 2.01,2.032c0.257,0.304 0.514,0.606 0.793,0.86c0.142,0.129 0.273,0.271 0.447,0.318c0.056,-0.072 0.136,-0.18 0.182,-0.255c0.094,-0.155 0.182,-0.319 0.27,-0.483c0.5,-0.939 1.049,-1.859 1.797,-2.433c0.521,-0.4 1.206,-0.625 2.063,-0.529c0.097,0.011 0.201,0.029 0.309,0.052Z" style="fill:#505050;"/><path d="M61.883,24.735c1.562,-0.21 3.159,-0.318 4.783,-0.318c8.234,0 15.783,2.791 21.586,7.414c-0.108,-0.023 -0.211,-0.041 -0.309,-0.052c-0.856,-0.097 -1.542,0.129 -2.063,0.529c-0.748,0.574 -1.296,1.494 -1.797,2.433c-0.088,0.165 -0.176,0.328 -0.27,0.483c-0.046,0.075 -0.126,0.183 -0.182,0.255c-0.174,-0.047 -0.305,-0.189 -0.447,-0.318c-0.279,-0.254 -0.536,-0.557 -0.793,-0.86c-0.642,-0.758 -1.289,-1.515 -2.01,-2.032c-0.644,-0.462 -1.525,-0.847 -2.449,-1.019c-4.523,-3.394 -10.028,-5.705 -16.05,-6.514Z" style="fill:#414141;"/><path d="M102.423,31.25l20.493,0l0,-4.167l-22.117,0c0.633,1.347 1.176,2.738 1.624,4.167Z" style="fill:#888;"/><path d="M22.917,27.083l-12.5,0l0,4.167c4.03,-0 12.5,-0 12.5,-0l0,-4.167Z" style="fill:#888;"/><rect x="116.667" y="27.083" width="6.25" height="4.167" style="fill:#6f6f6f;"/><rect x="116.667" y="35.417" width="6.25" height="8.333" style="fill:#6f6f6f;"/><rect x="116.667" y="47.917" width="6.25" height="4.167" style="fill:#6f6f6f;"/><rect x="116.667" y="56.25" width="6.25" height="8.333" style="fill:#6f6f6f;"/><rect x="116.667" y="68.75" width="6.25" height="8.333" style="fill:#6f6f6f;"/><rect x="116.667" y="81.25" width="6.25" height="8.333" style="fill:#6f6f6f;"/><path d="M116.667,93.75l0,7.093c2.612,2.302 4.395,5.293 5.61,8.431c0.147,0.379 0.285,0.761 0.415,1.143l0.226,0l0,-16.667l-6.25,0Z" style="fill:#6f6f6f;"/></svg>