<?xml version="1.0" encoding="UTF-8" standalone="no"?><!DOCTYPE svg PUBLIC "-//W3C//DTD SVG 1.1//EN" "http://www.w3.org/Graphics/SVG/1.1/DTD/svg11.dtd"><svg width="100%" height="100%" viewBox="0 0 134 134" version="1.1" xmlns="http://www.w3.org/2000/svg" xmlns:xlink="http://www.w3.org/1999/xlink" xml:space="preserve" xmlns:serif="http://www.serif.com/" style="fill-rule:evenodd;clip-rule:evenodd;stroke-linejoin:round;stroke-miterlimit:2;"><g id="Icon"><path d="M93.75,18.75l-4.167,0l-0,-7.22c0,-1.4 -0.556,-2.743 -1.546,-3.733c-0.99,-0.99 -2.333,-1.546 -3.733,-1.546c-0.636,-0 -1.304,-0 -1.94,-0c-1.4,-0 -2.743,0.556 -3.733,1.546c-0.99,0.99 -1.546,2.333 -1.546,3.733l0,7.22l-4.167,0l-0,-7.22c0,-1.4 -0.556,-2.743 -1.546,-3.733c-0.99,-0.99 -2.333,-1.546 -3.733,-1.546c-0.636,-0 -1.304,-0 -1.94,-0c-1.4,-0 -2.743,0.556 -3.733,1.546c-0.99,0.99 -1.546,2.333 -1.546,3.733l0,7.22l-4.167,0l0,-7.22c0,-1.4 -0.556,-2.743 -1.546,-3.733c-0.99,-0.99 -2.333,-1.546 -3.733,-1.546c-0.636,-0 -1.304,-0 -1.94,-0c-1.4,-0 -2.743,0.556 -3.733,1.546c-0.99,0.99 -1.546,2.333 -1.546,3.733l0,7.22l-4.167,0l0,-7.22c0,-1.4 -0.556,-2.743 -1.546,-3.733c-0.99,-0.99 -2.333,-1.546 -3.733,-1.546c-0.636,-0 -1.304,-0 -1.94,-0c-1.4,-0 -2.743,0.556 -3.733,1.546c-0.99,0.99 -1.546,2.333 -1.546,3.733c0,3.704 0,106.57 0,110.273c-0,1.4 0.556,2.743 1.546,3.733c0.99,0.99 2.333,1.546 3.733,1.546c0.636,0 1.304,0 1.94,0c1.4,0 2.743,-0.556 3.733,-1.546c0.99,-0.99 1.546,-2.333 1.546,-3.733l-0,-7.22l4.167,0l0,7.22c-0,1.4 0.556,2.743 1.546,3.733c0.99,0.99 2.333,1.546 3.733,1.546c0.636,0 1.304,0 1.94,0c1.4,0 2.743,-0.556 3.733,-1.546c0.99,-0.99 1.546,-2.333 1.546,-3.733l-0,-7.22l4.167,0l0,7.22c-0,1.4 0.556,2.743 1.546,3.733c0.99,0.99 2.333,1.546 3.733,1.546c0.636,0 1.304,0 1.94,0c1.4,0 2.743,-0.556 3.733,-1.546c0.99,-0.99 1.546,-2.333 1.546,-3.733l-0,-7.22l4.167,0l0,7.22c-0,1.4 0.556,2.743 1.546,3.733c0.99,0.99 2.333,1.546 3.733,1.546c0.636,0 1.304,0 1.94,0c1.4,0 2.743,-0.556 3.733,-1.546c0.99,-0.99 1.546,-2.333 1.546,-3.733l-0,-7.22l4.167,0l0,7.22c-0,1.4 0.556,2.743 1.546,3.733c0.99,0.99 2.333,1.546 3.733,1.546c0.636,0 1.304,0 1.94,0c1.4,0 2.743,-0.556 3.733,-1.546c0.99,-0.99 1.546,-2.333 1.546,-3.733c-0,-3.704 -0,-106.57 -0,-110.273c0,-1.4 -0.556,-2.743 -1.546,-3.733c-0.99,-0.99 -2.333,-1.546 -3.733,-1.546c-0.636,-0 -1.304,-0 -1.94,-0c-1.4,-0 -2.743,0.556 -3.733,1.546c-0.99,0.99 -1.546,2.333 -1.546,3.733l0,7.22Z"/><path d="M35.417,114.583l-4.167,0l-0,7.22c-0,0.295 0.117,0.578 0.326,0.787c0.209,0.209 0.492,0.326 0.787,0.326l1.94,0c0.295,0 0.578,-0.117 0.787,-0.326c0.209,-0.209 0.326,-0.492 0.326,-0.787l-0,-7.22Z" style="fill:#fff;"/><path d="M52.083,114.583l-4.167,0l-0,7.22c-0,0.295 0.117,0.578 0.326,0.787c0.209,0.209 0.492,0.326 0.787,0.326l1.94,0c0.295,0 0.578,-0.117 0.787,-0.326c0.209,-0.209 0.326,-0.492 0.326,-0.787l-0,-7.22Z" style="fill:#fff;"/><path d="M68.75,114.583l-4.167,0l-0,7.22c-0,0.295 0.117,0.578 0.326,0.787c0.209,0.209 0.492,0.326 0.787,0.326l1.94,0c0.295,0 0.578,-0.117 0.787,-0.326c0.209,-0.209 0.326,-0.492 0.326,-0.787l-0,-7.22Z" style="fill:#fff;"/><path d="M85.417,114.583l-4.167,0l-0,7.22c-0,0.295 0.117,0.578 0.326,0.787c0.209,0.209 0.492,0.326 0.787,0.326l1.94,0c0.295,0 0.578,-0.117 0.787,-0.326c0.209,-0.209 0.326,-0.492 0.326,-0.787l-0,-7.22Z" style="fill:#fff;"/><path d="M102.083,114.583l-4.167,0l-0,7.22c-0,0.295 0.117,0.578 0.326,0.787c0.209,0.209 0.492,0.326 0.787,0.326l1.94,0c0.295,0 0.578,-0.117 0.787,-0.326c0.209,-0.209 0.326,-0.492 0.326,-0.787l-0,-7.22Z" style="fill:#efefef;"/><path d="M97.917,90.631l0,13.536c-0,1.151 -0.933,2.083 -2.083,2.083l-58.333,0c-1.151,0 -2.083,-0.933 -2.083,-2.083l0,-13.536l-4.167,2.273l0,17.513c0,0 70.833,0 70.833,-0l0,-17.513l-4.167,-2.273Z" style="fill:#fbd59a;"/><path d="M93.75,106.25l0,4.167l0,0l8.333,-0l0,-17.513l-4.167,-2.273l0,13.536c-0,1.151 -0.933,2.083 -2.083,2.083l-2.083,0Z" style="fill:#f0bf73;"/><path d="M93.75,102.083l0,-70.833l-54.167,0l-0,70.833l6.771,-0l0,-42.195c-0,-5.385 2.139,-10.55 5.947,-14.358c3.808,-3.808 8.973,-5.947 14.358,-5.947c0.005,0 0.01,0 0.015,-0c5.385,0 10.55,2.139 14.358,5.947c3.808,3.808 5.947,8.973 5.947,14.358l0,42.195l6.771,-0Z" style="fill:#fff;"/><path d="M82.812,102.083l0,-42.195c0,-4.28 -1.7,-8.385 -4.727,-11.412c-3.027,-3.027 -7.131,-4.727 -11.412,-4.727c-0.005,0 -0.01,0 -0.015,0c-4.28,0 -8.385,1.7 -11.412,4.727c-3.027,3.027 -4.727,7.131 -4.727,11.412l-0,42.195l32.292,-0Z" style="fill:#fbd59a;"/><path d="M62.76,44.228c1.265,-0.315 2.573,-0.478 3.899,-0.478c0.005,0 0.01,0 0.015,-0c4.28,0 8.385,1.7 11.412,4.727c3.027,3.027 4.727,7.131 4.727,11.412l-0,42.195l-7.812,0l-0,-0l0,-42.195c0,-4.28 -1.7,-8.385 -4.727,-11.412c-2.089,-2.089 -4.692,-3.547 -7.513,-4.249Z" style="fill:#f0bf73;"/><path d="M58.333,97.917l16.667,0c1.15,-0 2.083,-0.934 2.083,-2.083c-0,-1.15 -0.934,-2.083 -2.083,-2.083l-16.667,0c-1.15,-0 -2.083,0.934 -2.083,2.083c-0,1.15 0.934,2.083 2.083,2.083Z"/><path d="M58.333,89.583l16.667,0c1.15,0 2.083,-0.934 2.083,-2.083c0,-1.15 -0.934,-2.083 -2.083,-2.083l-16.667,0c-1.15,0 -2.083,0.934 -2.083,2.083c0,1.15 0.934,2.083 2.083,2.083Z"/><path d="M97.917,47.449l0,38.436l4.167,2.273l0,-42.981l-4.167,2.273Z" style="fill:#fee45a;"/><path d="M97.917,47.449l0,38.436l4.167,2.273l0,-42.981l-4.167,2.273Z" style="fill:#f5d62d;"/><path d="M31.25,88.157l4.167,-2.273l0,-38.436l-4.167,-2.273l0,42.981Z" style="fill:#fee45a;"/><path d="M58.333,81.25l16.667,0c1.15,0 2.083,-0.934 2.083,-2.083c0,-1.15 -0.934,-2.083 -2.083,-2.083l-16.667,0c-1.15,0 -2.083,0.934 -2.083,2.083c0,1.15 0.934,2.083 2.083,2.083Z"/><path d="M58.333,72.917l16.667,0c1.15,0 2.083,-0.934 2.083,-2.083c0,-1.15 -0.934,-2.083 -2.083,-2.083l-16.667,0c-1.15,0 -2.083,0.934 -2.083,2.083c0,1.15 0.934,2.083 2.083,2.083Z"/><path d="M58.333,64.583l16.667,0c1.15,0 2.083,-0.934 2.083,-2.083c0,-1.15 -0.934,-2.083 -2.083,-2.083l-16.667,0c-1.15,0 -2.083,0.934 -2.083,2.083c0,1.15 0.934,2.083 2.083,2.083Z"/><path d="M62.5,56.25l8.333,0c1.15,0 2.083,-0.934 2.083,-2.083c0,-1.15 -0.934,-2.083 -2.083,-2.083l-8.333,0c-1.15,0 -2.083,0.934 -2.083,2.083c0,1.15 0.934,2.083 2.083,2.083Z"/><path d="M102.083,40.43l0,-17.513l-70.833,0l0,17.513l4.167,2.273l0,-13.536c0,-1.151 0.933,-2.083 2.083,-2.083l58.333,0c1.151,-0 2.083,0.933 2.083,2.083l0,13.536l4.167,-2.273Z" style="fill:#fbd59a;"/><path d="M93.75,22.917l0,4.167l2.083,0c1.151,-0 2.083,0.933 2.083,2.083l0,13.536l4.167,-2.273l0,-17.513l-8.333,0Z" style="fill:#f0bf73;"/><path d="M35.417,18.75l0,-7.22c0,-0.295 -0.117,-0.578 -0.326,-0.787c-0.209,-0.209 -0.492,-0.326 -0.787,-0.326l-1.94,-0c-0.295,-0 -0.578,0.117 -0.787,0.326c-0.209,0.209 -0.326,0.492 -0.326,0.787l0,7.22l4.167,0Z" style="fill:#fff;"/><path d="M52.083,18.75l0,-7.22c0,-0.295 -0.117,-0.578 -0.326,-0.787c-0.209,-0.209 -0.492,-0.326 -0.787,-0.326l-1.94,-0c-0.295,-0 -0.578,0.117 -0.787,0.326c-0.209,0.209 -0.326,0.492 -0.326,0.787l0,7.22l4.167,0Z" style="fill:#fff;"/><path d="M68.75,18.75l0,-7.22c0,-0.295 -0.117,-0.578 -0.326,-0.787c-0.209,-0.209 -0.492,-0.326 -0.787,-0.326l-1.94,-0c-0.295,-0 -0.578,0.117 -0.787,0.326c-0.209,0.209 -0.326,0.492 -0.326,0.787l0,7.22l4.167,0Z" style="fill:#fff;"/><path d="M85.417,18.75l0,-7.22c0,-0.295 -0.117,-0.578 -0.326,-0.787c-0.209,-0.209 -0.492,-0.326 -0.787,-0.326l-1.94,-0c-0.295,-0 -0.578,0.117 -0.787,0.326c-0.209,0.209 -0.326,0.492 -0.326,0.787l0,7.22l4.167,0Z" style="fill:#fff;"/><path d="M102.083,18.75l0,-7.22c0,-0.295 -0.117,-0.578 -0.326,-0.787c-0.209,-0.209 -0.492,-0.326 -0.787,-0.326l-1.94,-0c-0.295,-0 -0.578,0.117 -0.787,0.326c-0.209,0.209 -0.326,0.492 -0.326,0.787l0,7.22l4.167,0Z" style="fill:#efefef;"/><rect x="89.583" y="31.25" width="4.167" height="70.833" style="fill:#efefef;"/></g></svg>