<?xml version="1.0" encoding="UTF-8" standalone="no"?><!DOCTYPE svg PUBLIC "-//W3C//DTD SVG 1.1//EN" "http://www.w3.org/Graphics/SVG/1.1/DTD/svg11.dtd"><svg width="100%" height="100%" viewBox="0 0 134 134" version="1.1" xmlns="http://www.w3.org/2000/svg" xmlns:xlink="http://www.w3.org/1999/xlink" xml:space="preserve" xmlns:serif="http://www.serif.com/" style="fill-rule:evenodd;clip-rule:evenodd;stroke-linejoin:round;stroke-miterlimit:2;"><g id="Icon"><path d="M40.764,12.083c-1.74,0 -3.408,0.691 -4.639,1.921c-1.23,1.23 -1.921,2.899 -1.921,4.639l-0,0.68c-0.755,-0.296 -1.566,-0.452 -2.393,-0.452c-1.74,0 -3.408,0.691 -4.639,1.921c-1.23,1.23 -1.921,2.899 -1.921,4.639l-0,25.195c-0.637,-0.58 -1.368,-1.445 -2.044,-2.723c-3.554,-6.715 -9.14,-9.704 -14.405,-8.045c-1.267,0.399 -1.957,1.156 -2.31,2.057c-0.375,0.96 -0.305,2.302 0.366,3.84c0.957,2.194 3.219,5.138 4.892,7.762c0.815,1.278 1.564,2.396 1.564,3.249c0,2.502 0.022,11.689 2.696,19.299c1.924,5.476 5.24,10.085 10.506,11.528c0.115,0.147 0.441,0.601 0.624,1.211c0.335,1.12 0.497,2.785 0.271,5.248c-1.024,0.406 -1.965,1.019 -2.759,1.813c-1.528,1.528 -2.386,3.6 -2.386,5.761l-0,3.791l-13.934,0c-1.15,-0 -2.083,0.934 -2.083,2.083c-0,0.87 0.535,1.617 1.293,1.928l15.511,11.37c0.356,0.283 0.806,0.452 1.296,0.452l35.812,0c1.151,0 2.083,-0.933 2.083,-2.083l-0,-17.541c0,-2.161 -0.858,-4.233 -2.386,-5.761c-1.003,-1.003 -2.24,-1.717 -3.583,-2.09l0,-5.658c3.697,-1.684 11.408,-8.347 8.95,-34.47c0.003,0.037 0.003,-19.264 0.003,-19.264c0,-1.74 -0.691,-3.408 -1.921,-4.639c-1.23,-1.23 -2.899,-1.921 -4.639,-1.921c-0.844,0 -1.652,0.16 -2.393,0.45l0,-2.843c0,-1.74 -0.691,-3.408 -1.921,-4.639c-1.23,-1.23 -2.899,-1.921 -4.639,-1.921c-0.827,0 -1.638,0.156 -2.393,0.452l0,-0.68c0,-1.74 -0.691,-3.408 -1.921,-4.639c-1.23,-1.23 -2.899,-1.921 -4.639,-1.921Z"/><path d="M92.569,12.083c-1.74,-0 -3.408,0.691 -4.639,1.921c-1.23,1.23 -1.921,2.899 -1.921,4.639l-0,0.68c-0.755,-0.296 -1.566,-0.452 -2.393,-0.452c-1.74,-0 -3.408,0.691 -4.639,1.921c-1.23,1.23 -1.921,2.899 -1.921,4.639l-0,2.843c-0.741,-0.291 -1.549,-0.45 -2.393,-0.45c-1.74,-0 -3.408,0.691 -4.639,1.921c-1.23,1.23 -1.921,2.899 -1.921,4.639c-0,-0 -0,19.302 -0,19.302c-2.448,26.092 5.257,32.749 8.953,34.433l0,5.658c-1.343,0.373 -2.58,1.087 -3.583,2.09c-1.528,1.528 -2.386,3.6 -2.386,5.761l-0,17.541c0,1.151 0.933,2.083 2.083,2.083l35.812,0c0.479,0 0.92,-0.162 1.272,-0.433l15.569,-11.233c0.197,-0.133 0.363,-0.294 0.498,-0.474c0.465,-0.382 0.761,-0.962 0.761,-1.61c-0,-1.15 -0.934,-2.083 -2.083,-2.083l-13.934,0l-0,-3.791c0,-2.161 -0.858,-4.233 -2.386,-5.761c-0.794,-0.794 -1.735,-1.407 -2.759,-1.813c-0.225,-2.463 -0.064,-4.128 0.271,-5.248c0.183,-0.612 0.511,-1.067 0.625,-1.212c5.266,-1.443 8.581,-6.053 10.505,-11.528c2.675,-7.61 2.696,-16.797 2.696,-19.299c0,-0.852 0.749,-1.971 1.564,-3.249c1.673,-2.624 3.935,-5.569 4.892,-7.762c0.671,-1.539 0.741,-2.88 0.366,-3.84c-0.352,-0.901 -1.043,-1.658 -2.31,-2.057c-5.265,-1.659 -10.851,1.329 -14.405,8.045c-0.676,1.278 -1.407,2.144 -2.044,2.723l-0,-25.195c0,-1.74 -0.691,-3.408 -1.921,-4.639c-1.23,-1.23 -2.899,-1.921 -4.639,-1.921c-0.827,-0 -1.638,0.156 -2.393,0.452l-0,-0.68c0,-1.74 -0.691,-3.408 -1.921,-4.639c-1.23,-1.23 -2.899,-1.921 -4.639,-1.921Z"/><path d="M106.9,109.583l0,7.5c0,0 -31.645,0 -31.645,0c0,-0 0,-7.5 0,-7.5l31.645,0Z" style="fill:#e6c188;"/><path d="M100.823,109.583l0,7.5c0,0 6.079,0 6.079,0c0,-0 0,-7.5 0,-7.5l-6.079,0Z" style="fill:#d4ab6c;"/><path d="M58.079,109.583l0,7.5c0,0 -31.645,0 -31.645,0c0,-0 0,-7.5 0,-7.5l31.645,0Z" style="fill:#e6c188;"/><path d="M111.066,109.583l0,5.512l7.64,-5.512l-7.64,0Z" style="fill:#e6c188;"/><path d="M14.798,109.583l7.469,5.475l0,-5.475l-7.469,0Z" style="fill:#e6c188;"/><path d="M79.234,97.646l23.686,-0c1.056,0 2.068,0.419 2.814,1.166c0.746,0.746 1.166,1.759 1.166,2.814l-0,3.791c0,0 -31.645,0 -31.645,0l0,-3.791c-0,-1.056 0.419,-2.068 1.166,-2.814c0.746,-0.746 1.759,-1.166 2.814,-1.166Z" style="fill:#fbd59a;"/><path d="M96.843,97.646l6.077,-0c1.056,0 2.068,0.419 2.814,1.166c0.746,0.746 1.166,1.759 1.166,2.814l-0,3.791l-6.077,0l0,-3.791c0,-1.056 -0.419,-2.068 -1.166,-2.814c-0.746,-0.746 -1.759,-1.166 -2.814,-1.166Z" style="fill:#f0bf73;"/><path d="M54.099,97.646c1.056,0 2.068,0.419 2.814,1.166c0.746,0.746 1.166,1.759 1.166,2.814l-0,3.791c0,0 -31.645,0 -31.645,0l0,-3.791c-0,-1.056 0.419,-2.068 1.166,-2.814c0.746,-0.746 1.759,-1.166 2.814,-1.166l23.686,-0Z" style="fill:#fbd59a;"/><path d="M92.569,16.25c-0.635,-0 -1.243,0.252 -1.692,0.701c-0.449,0.449 -0.701,1.058 -0.701,1.692l0,29.17c-0,1.15 -0.934,2.083 -2.083,2.083c-1.15,-0 -2.083,-0.934 -2.083,-2.083l-0,-22.382c0,-0.635 -0.252,-1.243 -0.701,-1.692c-0.449,-0.449 -1.058,-0.701 -1.692,-0.701c-0.635,-0 -1.243,0.252 -1.692,0.701c-0.449,0.449 -0.701,1.058 -0.701,1.692l0,23.409c-0,1.15 -0.934,2.083 -2.083,2.083c-1.15,-0 -2.083,-0.934 -2.083,-2.083c0,0 -0,-14.456 -0,-14.456c-0,-1.322 -1.072,-2.393 -2.393,-2.393c-0.635,-0 -1.243,0.252 -1.692,0.701c-0.449,0.449 -0.701,1.058 -0.701,1.692l0,19.398c0,0.066 -0.003,0.131 -0.009,0.196c-1.423,15.045 0.569,22.891 3.06,26.958c1.779,2.906 3.683,3.531 4.09,3.607c0.294,0.038 0.568,0.138 0.81,0.285c0.122,0.074 0.235,0.16 0.338,0.256l0.016,0.015c0.285,0.271 0.494,0.622 0.59,1.017l0.002,0.01c0.039,0.163 0.058,0.332 0.056,0.505l-0,6.847l20.48,0c-0.52,-8.996 3.694,-9.82 3.694,-9.82c0.034,-0.01 0.069,-0.02 0.104,-0.028c4.098,-1.008 6.416,-4.75 7.891,-8.947c2.482,-7.063 2.461,-15.595 2.461,-17.917c0,-0.985 0.386,-2.234 1.103,-3.595c1.243,-2.361 3.525,-5.268 4.968,-7.695c0.342,-0.576 0.632,-1.116 0.824,-1.607c0.02,-0.05 0.039,-0.107 0.056,-0.165c-3.411,-0.768 -6.684,1.783 -8.994,6.148c-2.221,4.197 -4.57,5.421 -5.992,5.83c-0.644,0.185 -1.176,0.226 -1.56,0.217c-7.654,2.783 -10.219,10.48 -10.219,10.48c-0.364,1.091 -1.544,1.681 -2.635,1.318c-1.091,-0.364 -1.681,-1.544 -1.318,-2.635c0,0 2.994,-8.983 11.83,-12.718l-0,-26.912c0,-0.635 -0.252,-1.243 -0.701,-1.692c-0.449,-0.449 -1.058,-0.701 -1.692,-0.701c-0.635,-0 -1.243,0.252 -1.692,0.701c-0.449,0.449 -0.701,1.058 -0.701,1.692l0,22.382c0,1.15 -0.934,2.083 -2.083,2.083c-1.15,0 -2.083,-0.934 -2.083,-2.083l-0,-29.17c0,-0.635 -0.252,-1.243 -0.701,-1.692c-0.449,-0.449 -1.058,-0.701 -1.692,-0.701Z" style="fill:#ffc5b3;"/><path d="M92.569,16.25c-0.635,-0 -1.243,0.252 -1.692,0.701c-0.449,0.449 -0.701,1.058 -0.701,1.692l0,29.17c-0,1.15 -0.934,2.083 -2.083,2.083c-1.15,-0 -2.083,-0.934 -2.083,-2.083l-0,-22.382c0,-0.635 -0.252,-1.243 -0.701,-1.692c-0.449,-0.449 -1.058,-0.701 -1.692,-0.701c-0.635,-0 -1.243,0.252 -1.692,0.701c-0.449,0.449 -0.701,1.058 -0.701,1.692l0,23.409c-0,1.15 -0.934,2.083 -2.083,2.083c-1.15,-0 -2.083,-0.934 -2.083,-2.083c0,0 -0,-14.456 -0,-14.456c-0,-1.322 -1.072,-2.393 -2.393,-2.393c-0.635,-0 -1.243,0.252 -1.692,0.701c-0.449,0.449 -0.701,1.058 -0.701,1.692l0,19.398c0,0.066 -0.003,0.131 -0.009,0.196c-1.423,15.045 0.569,22.891 3.06,26.958c1.779,2.906 3.683,3.531 4.09,3.607c0.294,0.038 0.568,0.138 0.81,0.285c0.122,0.074 0.235,0.16 0.338,0.256l0.016,0.015c0.285,0.271 0.494,0.622 0.59,1.017l0.002,0.01c0.039,0.163 0.058,0.332 0.056,0.505l-0,6.847l20.48,0c-0.52,-8.996 3.694,-9.82 3.694,-9.82c0.034,-0.01 0.069,-0.02 0.104,-0.028c4.098,-1.008 6.416,-4.75 7.891,-8.947c2.482,-7.063 2.461,-15.595 2.461,-17.917c0,-0.985 0.386,-2.234 1.103,-3.595c1.243,-2.361 3.525,-5.268 4.968,-7.695c0.342,-0.576 0.632,-1.116 0.824,-1.607c0.02,-0.05 0.039,-0.107 0.056,-0.165c-3.411,-0.768 -6.684,1.783 -8.994,6.148c-2.221,4.197 -4.57,5.421 -5.992,5.83c-0.644,0.185 -1.176,0.226 -1.56,0.217c-7.654,2.783 -10.219,10.48 -10.219,10.48c-0.364,1.091 -1.544,1.681 -2.635,1.318c-1.091,-0.364 -1.681,-1.544 -1.318,-2.635c0,0 2.994,-8.983 11.83,-12.718l-0,-26.912c0,-0.635 -0.252,-1.243 -0.701,-1.692c-0.449,-0.449 -1.058,-0.701 -1.692,-0.701c-0.635,-0 -1.243,0.252 -1.692,0.701c-0.449,0.449 -0.701,1.058 -0.701,1.692l0,22.382c0,1.15 -0.934,2.083 -2.083,2.083c-1.15,0 -2.083,-0.934 -2.083,-2.083l-0,-29.17c0,-0.635 -0.252,-1.243 -0.701,-1.692c-0.449,-0.449 -1.058,-0.701 -1.692,-0.701Z" style="fill:#ffc5b3;"/><path d="M116.896,45.667c1.792,-1.663 3.824,-2.432 5.907,-1.963c-0.018,0.058 -0.037,0.115 -0.056,0.165c-0.191,0.491 -0.481,1.032 -0.824,1.607c-1.443,2.426 -3.725,5.334 -4.968,7.695c-0.716,1.361 -1.103,2.61 -1.103,3.595c0,2.322 0.022,10.854 -2.461,17.917c-1.475,4.197 -3.793,7.939 -7.891,8.947c-0.035,0.009 -0.07,0.018 -0.104,0.028c0,0 -4.215,0.824 -3.694,9.82l-4.912,-0c-0.52,-8.996 3.694,-9.82 3.694,-9.82c0.034,-0.01 0.069,-0.02 0.104,-0.028c4.098,-1.008 6.416,-4.75 7.891,-8.947c2.482,-7.063 2.461,-15.595 2.461,-17.917c0,-0.985 0.386,-2.234 1.103,-3.595c1.21,-2.299 3.406,-5.117 4.853,-7.504Zm-17.893,2.86l0,6.807c1.387,-1.146 3.015,-2.189 4.912,-2.991l-0,-26.912c0,-0.635 -0.252,-1.243 -0.701,-1.692c-0.449,-0.449 -1.058,-0.701 -1.692,-0.701c-0.635,-0 -1.243,0.252 -1.692,0.701c-0.449,0.449 -0.701,1.058 -0.701,1.692l0,22.382c0,0.251 -0.044,0.491 -0.126,0.714Z" style="fill:#ffb8a2;"/><path d="M40.764,16.25c-0.635,0 -1.243,0.252 -1.692,0.701c-0.449,0.449 -0.701,1.058 -0.701,1.692l-0,29.17c0,1.15 -0.934,2.083 -2.083,2.083c-1.15,0 -2.083,-0.934 -2.083,-2.083l0,-22.382c0,-0.635 -0.252,-1.243 -0.701,-1.692c-0.449,-0.449 -1.058,-0.701 -1.692,-0.701c-0.635,0 -1.243,0.252 -1.692,0.701c-0.449,0.449 -0.701,1.058 -0.701,1.692l-0,26.912c8.836,3.734 11.83,12.718 11.83,12.718c0.364,1.091 -0.227,2.272 -1.318,2.635c-1.091,0.364 -2.272,-0.227 -2.635,-1.318c0,0 -2.565,-7.696 -10.219,-10.48c-0.384,0.009 -0.916,-0.032 -1.56,-0.217c-1.422,-0.409 -3.771,-1.633 -5.992,-5.83c-2.31,-4.365 -5.584,-6.915 -8.994,-6.148c0.018,0.058 0.037,0.115 0.056,0.165c0.191,0.491 0.481,1.032 0.824,1.607c1.443,2.426 3.725,5.334 4.968,7.695c0.716,1.361 1.103,2.61 1.103,3.595c0,2.322 -0.022,10.854 2.461,17.917c1.474,4.193 3.789,7.932 7.88,8.944c0.021,0.005 0.099,0.026 0.116,0.031c0.05,0.01 4.211,0.878 3.694,9.82c0,-0 20.48,-0 20.48,-0l0,-6.87c-0,-1.056 0.787,-1.929 1.806,-2.065c0.085,-0.026 2.337,-0.736 4.096,-3.608c2.491,-4.068 4.483,-11.913 3.06,-26.958c-0.006,-0.065 -0.009,-0.131 -0.009,-0.196l0,-19.398c0,-0.635 -0.252,-1.243 -0.701,-1.692c-0.449,-0.449 -1.058,-0.701 -1.692,-0.701c-1.322,0 -2.393,1.071 -2.393,2.393l-0,14.456c-0,1.15 -0.934,2.083 -2.083,2.083c-1.15,-0 -2.083,-0.934 -2.083,-2.083l0,-23.409c0,-0.635 -0.252,-1.243 -0.701,-1.692c-0.449,-0.449 -1.058,-0.701 -1.692,-0.701c-0.635,0 -1.243,0.252 -1.692,0.701c-0.449,0.449 -0.701,1.058 -0.701,1.692l-0,22.382c-0,1.15 -0.934,2.083 -2.083,2.083c-1.15,-0 -2.083,-0.934 -2.083,-2.083l0,-29.17c0,-0.635 -0.252,-1.243 -0.701,-1.692c-0.449,-0.449 -1.058,-0.701 -1.692,-0.701Z" style="fill:#ffc5b3;"/><path d="M56.151,49.554c0.081,-0.223 0.126,-0.463 0.126,-0.714l0,-14.456c0,-1.322 1.072,-2.393 2.393,-2.393c0.635,0 1.243,0.252 1.692,0.701c0.449,0.449 0.701,1.058 0.701,1.692l-0,19.398c0,0.066 0.003,0.131 0.009,0.196c1.423,15.045 -0.569,22.891 -3.06,26.958c-1.759,2.872 -4.012,3.582 -4.096,3.608c-1.019,0.136 -1.806,1.009 -1.806,2.065l0,6.87l-4.912,0l-0,-0l0,-6.87c-0,-1.056 0.787,-1.929 1.806,-2.065c0.085,-0.026 2.337,-0.736 4.096,-3.608c2.491,-4.068 4.483,-11.913 3.06,-26.958c-0.006,-0.065 -0.009,-0.131 -0.009,-0.196l0,-4.228Z" style="fill:#ffb8a2;"/><path d="M52.302,109.583l0,7.5c0,0 6.079,0 6.079,0c0,-0 0,-7.5 0,-7.5l-6.079,0Z" style="fill:#d4ab6c;"/><path d="M48.322,97.646l6.077,-0c1.056,0 2.068,0.419 2.814,1.166c0.746,0.746 1.166,1.759 1.166,2.814l-0,3.791l-6.077,0l0,-3.791c0,-1.056 -0.419,-2.068 -1.166,-2.814c-0.746,-0.746 -1.759,-1.166 -2.814,-1.166Z" style="fill:#f0bf73;"/></g></svg>