<?xml version="1.0" encoding="UTF-8" standalone="no"?><!DOCTYPE svg PUBLIC "-//W3C//DTD SVG 1.1//EN" "http://www.w3.org/Graphics/SVG/1.1/DTD/svg11.dtd"><svg width="100%" height="100%" viewBox="0 0 134 134" version="1.1" xmlns="http://www.w3.org/2000/svg" xmlns:xlink="http://www.w3.org/1999/xlink" xml:space="preserve" xmlns:serif="http://www.serif.com/" style="fill-rule:evenodd;clip-rule:evenodd;stroke-linejoin:round;stroke-miterlimit:2;"><g id="Icon"><path d="M117.361,120.08l0,-25l7.639,0c0.843,0 1.602,-0.508 1.925,-1.286c0.322,-0.778 0.144,-1.675 -0.452,-2.27l-9.722,-9.722c-0.391,-0.391 -0.921,-0.61 -1.473,-0.61l-31.944,0l0,-5.556l7.639,0c0.843,0 1.602,-0.508 1.925,-1.286c0.322,-0.778 0.144,-1.675 -0.452,-2.27l-9.722,-9.722c-0.391,-0.391 -0.921,-0.61 -1.473,-0.61l-63.194,0c-0.553,0 -1.082,0.219 -1.473,0.61l-9.722,9.722c-0.596,0.596 -0.774,1.492 -0.452,2.27c0.322,0.778 1.082,1.286 1.925,1.286l7.639,0l0,44.444l-7.639,0c-1.15,-0 -2.083,0.934 -2.083,2.083c-0,1.15 0.934,2.083 2.083,2.083l116.667,0c1.15,-0 2.083,-0.934 2.083,-2.083c-0,-1.15 -0.934,-2.083 -2.083,-2.083l-7.639,0Z"/><path d="M49.306,120.08l29.861,0l0,-44.444l-59.028,0l0,44.444l5.556,0l0,-31.944c-0,-1.151 0.933,-2.083 2.083,-2.083l19.444,0c1.151,-0 2.083,0.933 2.083,2.083l0,31.944Z" style="fill:#d8d8d8;"/><rect x="70.833" y="75.635" width="8.333" height="44.444" style="fill:#bfbfbf;"/><rect x="83.333" y="95.08" width="6.998" height="25" style="fill:#83878b;"/><rect x="94.498" y="95.08" width="7.331" height="25" style="fill:#83878b;"/><rect x="105.995" y="95.08" width="7.199" height="25" style="fill:#6a6a6a;"/><rect x="29.861" y="99.941" width="15.278" height="20.139" style="fill:#fbd59a;"/><path d="M73.611,88.135c0,-1.151 -0.933,-2.083 -2.083,-2.083l-14.583,0c-1.151,0 -2.083,0.933 -2.083,2.083l0,22.974c0,1.151 0.933,2.083 2.083,2.083l14.583,0c1.151,0 2.083,-0.933 2.083,-2.083l0,-22.974Z"/><path d="M69.444,90.219l0,18.808c0,0 -10.417,0 -10.417,0c-0,0 -0,-18.808 -0,-18.808l10.417,-0Z" style="fill:#fef1da;"/><path d="M45.139,90.219l-5.556,0l0,5.556l5.556,0l0,-5.556Z" style="fill:#c78a6a;"/><path d="M29.861,90.219l0,5.556l5.556,0l0,-5.556l-5.556,0Z" style="fill:#e19974;"/><path d="M83.333,85.358l0,5.556l36.637,-0c0,0 -5.556,-5.556 -5.556,-5.556l-31.081,0Z" style="fill:#fbd59a;"/><path d="M36.94,82.518l3.646,0c1.15,0 2.083,-0.934 2.083,-2.083c0,-1.15 -0.934,-2.083 -2.083,-2.083l-3.646,0c-1.15,0 -2.083,0.934 -2.083,2.083c0,1.15 0.934,2.083 2.083,2.083Z"/><path d="M47.877,82.518l3.646,0c1.15,0 2.083,-0.934 2.083,-2.083c0,-1.15 -0.934,-2.083 -2.083,-2.083l-3.646,0c-1.15,0 -2.083,0.934 -2.083,2.083c0,1.15 0.934,2.083 2.083,2.083Z"/><path d="M26.002,82.518l3.646,0c1.15,0 2.083,-0.934 2.083,-2.083c0,-1.15 -0.934,-2.083 -2.083,-2.083l-3.646,0c-1.15,0 -2.083,0.934 -2.083,2.083c0,1.15 0.934,2.083 2.083,2.083Z"/><path d="M58.815,82.518l3.646,0c1.15,0 2.083,-0.934 2.083,-2.083c0,-1.15 -0.934,-2.083 -2.083,-2.083l-3.646,0c-1.15,0 -2.083,0.934 -2.083,2.083c0,1.15 0.934,2.083 2.083,2.083Z"/><path d="M69.752,82.518l3.646,0c1.15,0 2.083,-0.934 2.083,-2.083c0,-1.15 -0.934,-2.083 -2.083,-2.083l-3.646,0c-1.15,0 -2.083,0.934 -2.083,2.083c0,1.15 0.934,2.083 2.083,2.083Z"/><path d="M80.387,65.913l5.556,5.556c0,0 -72.58,0 -72.58,0c-0,-0 5.555,-5.556 5.555,-5.556l61.468,-0Z" style="fill:#fbd59a;"/><circle cx="83.85" cy="36.052" r="21.528"/><path d="M105.937,56.333c0.295,-0.088 1.43,-0.427 1.782,-0.517c1.227,-0.315 2.58,-0.527 3.835,-0.27c0.835,0.172 1.566,0.488 2.312,0.742c1.063,0.361 2.148,0.625 3.411,0.569c1.149,-0.051 2.04,-1.024 1.989,-2.173c-0.051,-1.149 -1.024,-2.04 -2.173,-1.989c-0.883,0.039 -1.606,-0.248 -2.349,-0.514c-0.751,-0.269 -1.512,-0.543 -2.352,-0.716c-1.865,-0.383 -3.883,-0.153 -5.708,0.315c-0.587,0.15 -1.822,0.406 -2.673,0.841c-0.756,0.387 -1.294,0.928 -1.578,1.496c-0.514,1.028 -0.097,2.281 0.932,2.795c0.902,0.451 1.976,0.185 2.573,-0.58Z"/><path d="M61.841,51.471c-2.763,0 -5.876,0.957 -8.577,0.559c-0.834,-0.123 -1.587,-0.488 -2.344,-0.85c-1.068,-0.512 -2.134,-1.038 -3.278,-1.331c-1.114,-0.286 -2.25,0.387 -2.535,1.501c-0.286,1.114 0.387,2.25 1.501,2.535c0.88,0.226 1.689,0.659 2.512,1.053c1.135,0.544 2.287,1.031 3.538,1.215c2.891,0.425 6.226,-0.515 9.184,-0.515c1.15,-0 2.083,-0.934 2.083,-2.083c-0,-1.15 -0.934,-2.083 -2.083,-2.083Z"/><circle cx="83.85" cy="36.052" r="17.361" style="fill:#fee45a;"/><path d="M79.772,19.173c1.307,-0.315 2.673,-0.483 4.078,-0.483c9.582,0 17.361,7.779 17.361,17.361c0,9.582 -7.779,17.361 -17.361,17.361c-1.405,-0 -2.771,-0.167 -4.078,-0.483c7.618,-1.837 13.283,-8.701 13.283,-16.879c0,-8.177 -5.666,-15.041 -13.283,-16.879Z" style="fill:#f5d62d;"/><path d="M57.823,41.123c-2.995,0 -5.84,0.388 -8.722,-0.688c-1.243,-0.464 -2.433,-1.289 -3.661,-1.987c-1.639,-0.93 -3.337,-1.651 -5.155,-1.674c-2.467,-0.031 -4.888,1.496 -7.078,2.451c-2.246,0.98 -4.701,1.611 -7.159,1.411c-1.146,-0.094 -2.152,0.761 -2.246,1.907c-0.094,1.146 0.761,2.152 1.907,2.246c3.142,0.256 6.292,-0.492 9.164,-1.744c0.975,-0.425 1.991,-1.005 3.039,-1.475c0.757,-0.34 1.527,-0.639 2.321,-0.629c1.123,0.014 2.139,0.557 3.151,1.131c1.423,0.808 2.819,1.728 4.26,2.266c3.368,1.258 6.68,0.952 10.18,0.952c1.15,-0 2.083,-0.934 2.083,-2.083c-0,-1.15 -0.934,-2.083 -2.083,-2.083Z"/><path d="M110.712,43.397c0.421,0 0.867,0.182 1.322,0.345c0.806,0.288 1.616,0.594 2.362,0.726c3.636,0.643 7.229,-0.059 10.367,-2.021c0.975,-0.609 1.272,-1.896 0.662,-2.871c-0.609,-0.975 -1.896,-1.272 -2.871,-0.662c-2.25,1.406 -4.825,1.912 -7.433,1.451c-0.678,-0.12 -1.416,-0.464 -2.146,-0.706c-0.774,-0.257 -1.545,-0.429 -2.264,-0.429c-1.15,-0 -2.083,0.934 -2.083,2.083c-0,1.15 0.934,2.083 2.083,2.083Z"/><path d="M96.617,39.411c0,0 1.605,-5.252 -2.581,-11.282c-1.873,-2.699 -5.984,-4.798 -9.153,-5.095c-1.145,-0.107 -2.161,0.735 -2.269,1.88c-0.107,1.145 0.735,2.161 1.88,2.269c2.107,0.198 4.874,1.529 6.119,3.322c2.901,4.179 1.996,7.767 1.996,7.767c-0.314,1.106 0.329,2.259 1.435,2.573c1.106,0.314 2.259,-0.329 2.573,-1.435Z"/><path d="M57.21,31.945c1.087,-0.069 1.948,-0.974 1.948,-2.078c-0,-1.15 -0.934,-2.083 -2.083,-2.083c-0.455,0 -0.992,0.121 -1.535,0.333c-0.319,0.124 -0.643,0.311 -0.91,0.374c-1.289,0.301 -2.518,0.362 -3.817,0.086c-1.586,-0.336 -3.043,-1.123 -4.515,-1.834c-1.859,-0.897 -3.738,-1.69 -5.77,-1.849c-1.262,-0.099 -2.441,0.239 -3.583,0.724c-0.932,0.395 -1.793,1.031 -2.781,0.942c-0.241,-0.022 -0.418,-0.182 -0.605,-0.319c-0.321,-0.233 -0.628,-0.493 -0.944,-0.728c-0.885,-0.658 -1.84,-1.13 -2.98,-1.161c-1.316,-0.037 -2.572,0.341 -3.792,0.906c-1.276,0.592 -2.498,1.446 -3.794,1.798c-2.675,0.727 -5.356,0.075 -8.015,-0.421c-1.13,-0.211 -2.219,0.536 -2.43,1.666c-0.211,1.13 0.536,2.219 1.666,2.43c3.272,0.61 6.578,1.24 9.871,0.346c1.305,-0.354 2.569,-1.083 3.843,-1.738c0.823,-0.423 1.639,-0.847 2.535,-0.822c0.196,0.005 0.335,0.144 0.489,0.252c0.307,0.217 0.601,0.467 0.906,0.698c0.851,0.645 1.774,1.145 2.879,1.244c1.229,0.11 2.395,-0.221 3.543,-0.711c0.934,-0.398 1.825,-1.033 2.867,-0.951c1.517,0.119 2.897,0.778 4.285,1.448c1.774,0.857 3.551,1.753 5.463,2.158c1.916,0.406 3.729,0.339 5.629,-0.105c0.442,-0.103 1.48,-0.538 1.632,-0.602Z"/><path d="M110.79,30.34c0.714,-0.857 1.696,-0.581 2.662,-0.28c1.884,0.587 3.814,1.63 5.346,1.895c2.038,0.353 4.104,-0.813 5.607,-2.021c0.896,-0.72 1.039,-2.033 0.319,-2.929c-0.72,-0.896 -2.033,-1.039 -2.929,-0.319c-0.42,0.337 -0.901,0.707 -1.426,0.959c-0.276,0.132 -0.561,0.256 -0.86,0.204c-1.745,-0.302 -4.018,-1.709 -6.129,-2.098c-2.155,-0.397 -4.172,-0.023 -5.791,1.92c-0.736,0.883 -0.617,2.198 0.267,2.934c0.883,0.736 2.198,0.617 2.934,-0.267Z"/><path d="M62.793,18.812c0.902,0.035 1.757,-0.524 2.056,-1.423c0.364,-1.091 -0.227,-2.272 -1.318,-2.635c-0.305,-0.102 -0.699,-0.158 -1.153,-0.107c-0.419,0.048 -1.337,0.348 -1.477,0.394c-0.815,0.152 -1.529,0.222 -2.35,0.042c-2.171,-0.475 -4.077,-1.385 -6.027,-2.085c-2.337,-0.838 -4.726,-1.404 -7.513,-1.023c-2.052,0.281 -3.947,1.189 -5.841,2.024c-1.402,0.618 -2.798,1.218 -4.349,1.103c-2.493,-0.184 -4.874,-1.441 -7.285,-2.461c-3.028,-1.281 -6.088,-2.228 -9.281,-1.529c-1.123,0.246 -1.836,1.357 -1.59,2.48c0.246,1.123 1.357,1.836 2.48,1.59c2.339,-0.512 4.549,0.358 6.767,1.296c2.834,1.199 5.671,2.563 8.602,2.779c2.247,0.166 4.304,-0.551 6.335,-1.446c1.54,-0.678 3.058,-1.48 4.726,-1.709c2.059,-0.282 3.815,0.197 5.541,0.816c2.114,0.758 4.19,1.718 6.543,2.233c1.418,0.31 2.645,0.24 4.059,-0.026c0.201,-0.038 0.833,-0.238 1.073,-0.316Z"/><path d="M99.835,15.567c2.458,-0.492 4.33,-1.092 6.919,-0.436c1.095,0.278 2.159,0.931 3.259,1.38c1.07,0.436 2.163,0.72 3.288,0.683c3.493,-0.117 6.882,-2.524 9.759,-4.232c0.989,-0.587 1.315,-1.866 0.728,-2.855c-0.587,-0.989 -1.866,-1.315 -2.855,-0.728c-2.322,1.379 -4.952,3.556 -7.772,3.651c-0.726,0.024 -1.408,-0.29 -2.094,-0.601c-1.098,-0.498 -2.188,-1.056 -3.289,-1.336c-3.275,-0.83 -5.652,-0.233 -8.76,0.389c-1.127,0.226 -1.86,1.324 -1.634,2.451c0.226,1.127 1.324,1.86 2.451,1.634Z"/><rect x="40.506" y="99.941" width="4.802" height="20.139" style="fill:#f1c889;"/><path d="M69.613,90.219l0,18.808c0,0 -3.538,0 -3.538,0c-0,0 -0,-18.808 -0,-18.808l3.538,-0Z" style="fill:#e3d2b4;"/><path d="M114.583,85.358l5.556,5.556l-8.333,-0c0,0 -5.556,-5.556 -5.556,-5.556l8.333,0Z" style="fill:#f1c889;"/><path d="M71.575,65.913l5.556,5.556c0,0 8.812,0 8.812,0c-0,-0 -5.456,-5.556 -5.456,-5.556l-8.912,0Z" style="fill:#f1c889;"/></g></svg>