<?xml version="1.0" encoding="UTF-8" standalone="no"?><!DOCTYPE svg PUBLIC "-//W3C//DTD SVG 1.1//EN" "http://www.w3.org/Graphics/SVG/1.1/DTD/svg11.dtd"><svg width="100%" height="100%" viewBox="0 0 134 134" version="1.1" xmlns="http://www.w3.org/2000/svg" xmlns:xlink="http://www.w3.org/1999/xlink" xml:space="preserve" xmlns:serif="http://www.serif.com/" style="fill-rule:evenodd;clip-rule:evenodd;stroke-linejoin:round;stroke-miterlimit:2;"><g id="Icon"><path d="M41.417,61.86l-23.362,0c-0.553,0 -1.082,0.219 -1.473,0.61l-9.722,9.722c-0.596,0.596 -0.774,1.492 -0.452,2.27c0.322,0.778 1.082,1.286 1.925,1.286l7.639,0l0,44.444l-7.639,0c-1.15,-0 -2.083,0.934 -2.083,2.083c-0,1.15 0.934,2.083 2.083,2.083l116.667,0c1.15,-0 2.083,-0.934 2.083,-2.083c-0,-1.15 -0.934,-2.083 -2.083,-2.083l-7.639,0l0,-25l7.639,0c0.843,0 1.602,-0.508 1.925,-1.286c0.322,-0.778 0.144,-1.675 -0.452,-2.27l-9.722,-9.722c-0.391,-0.391 -0.921,-0.61 -1.473,-0.61l-6.256,0c-0.37,-19.993 -16.717,-36.111 -36.799,-36.111c-12.883,0 -24.23,6.633 -30.805,16.667Z"/><path d="M49.306,120.194l29.861,0l0,-44.444l-59.028,0l0,44.444l5.556,0l0,-31.944c0,-1.151 0.933,-2.083 2.083,-2.083l19.444,0c1.151,0 2.083,0.933 2.083,2.083l0,31.944Z" style="fill:#d8d8d8;"/><path d="M79.152,120.194l-7.315,0l0,-44.444l7.331,0l-0.016,44.444Z" style="fill:#bfbfbf;"/><rect x="83.333" y="95.194" width="6.998" height="25" style="fill:#83878b;"/><rect x="94.498" y="95.194" width="7.331" height="25" style="fill:#83878b;"/><rect x="105.995" y="95.194" width="7.199" height="25" style="fill:#6a6a6a;"/><rect x="29.861" y="100.055" width="15.278" height="20.139" style="fill:#fbd59a;"/><rect x="40.337" y="100.055" width="4.802" height="20.139" style="fill:#f1c889;"/><path d="M73.611,88.249c0,-1.151 -0.933,-2.083 -2.083,-2.083l-14.583,0c-1.151,0 -2.083,0.933 -2.083,2.083l0,22.974c0,1.151 0.933,2.083 2.083,2.083l14.583,0c1.151,0 2.083,-0.933 2.083,-2.083l0,-22.974Z"/><path d="M69.444,90.333l0,18.808c0,0 -10.417,0 -10.417,0c-0,0 -0,-18.808 -0,-18.808l10.417,-0Z" style="fill:#fef1da;"/><path d="M69.444,90.333l0,18.808c0,0 -3.538,0 -3.538,0c-0,0 -0,-18.808 -0,-18.808l3.538,-0Z" style="fill:#e3d2b4;"/><path d="M39.583,90.333l0,5.556l5.556,0l0,-5.556l-5.556,-0Z" style="fill:#c78a6a;"/><path d="M29.861,95.888l5.556,0l0,-5.556l-5.556,-0l-0,5.556Z" style="fill:#e19974;"/><path d="M83.333,85.471l0,5.556l36.637,-0c0,0 -5.556,-5.556 -5.556,-5.556l-31.081,0Z" style="fill:#fbd59a;"/><path d="M114.415,85.471l5.556,5.556l-8.333,-0c0,0 -5.556,-5.556 -5.556,-5.556l8.333,0Z" style="fill:#f1c889;"/><path d="M36.94,82.632l3.646,0c1.15,-0 2.083,-0.934 2.083,-2.083c-0,-1.15 -0.934,-2.083 -2.083,-2.083l-3.646,0c-1.15,-0 -2.083,0.934 -2.083,2.083c-0,1.15 0.934,2.083 2.083,2.083Z"/><path d="M58.815,82.632l3.646,0c1.15,-0 2.083,-0.934 2.083,-2.083c-0,-1.15 -0.934,-2.083 -2.083,-2.083l-3.646,0c-1.15,-0 -2.083,0.934 -2.083,2.083c-0,1.15 0.934,2.083 2.083,2.083Z"/><path d="M47.877,82.632l3.646,0c1.15,-0 2.083,-0.934 2.083,-2.083c-0,-1.15 -0.934,-2.083 -2.083,-2.083l-3.646,0c-1.15,-0 -2.083,0.934 -2.083,2.083c-0,1.15 0.934,2.083 2.083,2.083Z"/><path d="M69.752,82.632l3.646,0c1.15,-0 2.083,-0.934 2.083,-2.083c-0,-1.15 -0.934,-2.083 -2.083,-2.083l-3.646,0c-1.15,-0 -2.083,0.934 -2.083,2.083c-0,1.15 0.934,2.083 2.083,2.083Z"/><path d="M26.002,82.632l3.646,0c1.15,-0 2.083,-0.934 2.083,-2.083c-0,-1.15 -0.934,-2.083 -2.083,-2.083l-3.646,0c-1.15,-0 -2.083,0.934 -2.083,2.083c-0,1.15 0.934,2.083 2.083,2.083Z"/><path d="M104.854,81.305c-0.371,-17.694 -14.85,-31.944 -32.632,-31.944c-10.417,0 -19.701,4.891 -25.679,12.5l34.707,0c0.553,0 1.082,0.219 1.473,0.61l9.722,9.722c0.596,0.596 0.774,1.492 0.452,2.27c-0.322,0.778 -1.082,1.286 -1.925,1.286l-7.639,0l0,5.556l21.521,0Z" style="fill:#fee45a;"/><path d="M67.651,49.679c1.494,-0.21 3.02,-0.318 4.571,-0.318c17.782,0 32.261,14.25 32.632,31.944l-9.142,0c-0.338,-16.151 -12.432,-29.433 -28.061,-31.626Z" style="fill:#f5d62d;"/><path d="M113.909,76.48c0,0 4.814,-0.995 5.847,-0.995c1.15,0 2.083,-0.934 2.083,-2.083c0,-1.15 -0.934,-2.083 -2.083,-2.083c-1.176,0 -6.668,1.077 -6.668,1.077c-1.127,0.227 -1.858,1.326 -1.632,2.453c0.227,1.127 1.326,1.858 2.453,1.632Z"/><path d="M80.387,66.027l5.556,5.556c0,0 -72.58,0 -72.58,0c-0,-0 5.555,-5.556 5.555,-5.556l61.468,-0Z" style="fill:#fbd59a;"/><path d="M72.054,66.027l5.556,5.556c0,0 8.333,0 8.333,0c-0,-0 -5.555,-5.555 -5.555,-5.555l-8.334,-0Z" style="fill:#f1c889;"/><path d="M111.539,65.9c1.992,-0.731 3.943,-1.694 5.913,-2.496c1.065,-0.434 1.578,-1.65 1.144,-2.715c-0.434,-1.065 -1.65,-1.578 -2.715,-1.144c-1.925,0.784 -3.83,1.73 -5.776,2.443c-1.08,0.396 -1.635,1.594 -1.239,2.673c0.396,1.08 1.594,1.635 2.673,1.239Z"/><path d="M104.81,53.094c-0.246,0.122 -0.471,0.294 -0.659,0.516c-0.745,0.876 -0.639,2.192 0.237,2.937c0.371,0.316 0.993,0.666 1.897,0.429c0.208,-0.054 1.102,-0.612 1.102,-0.612c0,0 -0.055,0.04 -0.066,0.049c0.421,-0.294 0.839,-0.593 1.254,-0.896c1.699,-1.239 3.377,-2.504 5.109,-3.697c0.947,-0.653 1.185,-1.951 0.533,-2.898c-0.653,-0.947 -1.951,-1.185 -2.898,-0.533c-1.762,1.214 -3.47,2.501 -5.199,3.761l-1.309,0.944Z"/><path d="M43.463,51.959c-2.726,-2.044 -5.072,-4.562 -7.861,-6.554c-0.936,-0.668 -2.238,-0.451 -2.906,0.484c-0.668,0.936 -0.451,2.238 0.484,2.906c2.763,1.973 5.083,4.472 7.783,6.497c0.92,0.69 2.227,0.503 2.917,-0.417c0.69,-0.92 0.503,-2.227 -0.417,-2.917Z"/><path d="M96,46.186c-0.209,0.177 -0.387,0.398 -0.517,0.658c-0.514,1.028 -0.097,2.281 0.932,2.795c0.436,0.218 1.123,0.41 1.945,-0.036c0.188,-0.102 0.924,-0.858 0.924,-0.858c-0,-0 -0.043,0.052 -0.053,0.063c0.338,-0.386 0.673,-0.776 1.003,-1.169c1.354,-1.609 2.681,-3.238 4.077,-4.811c0.763,-0.86 0.685,-2.178 -0.175,-2.941c-0.86,-0.763 -2.178,-0.685 -2.941,0.175c-1.42,1.6 -2.772,3.258 -4.149,4.895l-1.046,1.229Z"/><path d="M47.948,48.301c0.235,0.892 1.049,1.551 2.014,1.551c1.15,-0 2.083,-0.934 2.083,-2.083c-0,-0.347 -0.083,-0.785 -0.313,-1.249c-0.274,-0.554 -0.958,-1.326 -1.173,-1.661c-1.176,-1.839 -2.4,-3.642 -3.624,-5.449c-0.645,-0.952 -1.941,-1.201 -2.893,-0.556c-0.952,0.645 -1.201,1.941 -0.556,2.893c1.203,1.776 2.408,3.549 3.563,5.357c0.141,0.221 0.724,0.975 0.899,1.199Z"/><path d="M89.286,44.156c1.259,-2.098 2.815,-3.98 4.455,-5.789c0.772,-0.852 0.708,-2.17 -0.144,-2.943c-0.852,-0.772 -2.17,-0.708 -2.943,0.144c-1.823,2.01 -3.542,4.111 -4.942,6.444c-0.592,0.986 -0.271,2.267 0.715,2.858c0.986,0.592 2.267,0.271 2.858,-0.715Z"/><path d="M61.157,41.361c-1.047,-2.442 -1.557,-5.236 -2.29,-7.785c-0.318,-1.105 -1.473,-1.744 -2.578,-1.426c-1.105,0.318 -1.744,1.473 -1.426,2.578c0.78,2.712 1.351,5.676 2.465,8.274c0.453,1.057 1.679,1.547 2.736,1.094c1.057,-0.453 1.547,-1.679 1.094,-2.736Z"/><path d="M70.947,40.053l-0.001,-0.017c-0.051,-0.982 -0.17,-6.13 -0.224,-7.955c-0.034,-1.149 -0.994,-2.055 -2.144,-2.021c-1.149,0.034 -2.055,0.994 -2.021,2.144c0.054,1.847 0.175,7.057 0.228,8.051c0.032,0.607 0.204,0.933 0.227,0.979c0.399,0.806 1.017,1.019 1.405,1.107c0.641,0.146 1.336,0.066 1.964,-0.586c0.453,-0.47 0.64,-1.099 0.566,-1.701Z"/><path d="M80.724,40.777c0.616,-2.672 1.884,-8.167 1.884,-8.167c0.259,-1.12 -0.441,-2.24 -1.562,-2.498c-1.12,-0.259 -2.24,0.441 -2.498,1.562c-0,-0 -1.268,5.495 -1.884,8.167c-0.259,1.12 0.441,2.24 1.562,2.498c1.12,0.259 2.24,-0.441 2.498,-1.562Z"/><path d="M17.691,29.44c-0.694,-0.447 -2.222,-1.172 -4.489,-0.857c-1.101,0.153 -3.736,1.662 -3.736,4.738c0,1.284 0.794,2.769 2.079,3.999c1.573,1.506 3.783,2.633 4.754,2.807c2.811,0.504 5.747,1.327 8.557,1.521c2.915,0.201 6.955,-0.684 9.269,-3.623c0.398,-0.505 1.099,-1.815 0.762,-3.421c-0.188,-0.896 -0.689,-1.939 -1.935,-2.92c-0.778,-0.612 -1.668,-1.071 -2.52,-1.575c-1.777,-1.053 -3.895,-2.46 -6.038,-2.602c-1.142,-0.075 -2.332,0.186 -3.516,0.618c-1.084,0.395 -2.165,0.953 -3.187,1.315Z"/><path d="M30.796,35.515c-1.419,1.732 -3.9,2.097 -5.653,1.976c-2.665,-0.184 -5.444,-0.988 -8.109,-1.466c-0.549,-0.098 -1.718,-0.864 -2.607,-1.715c-0.227,-0.217 -0.433,-0.443 -0.597,-0.675c-0.076,-0.108 -0.17,-0.303 -0.195,-0.355c-0.121,-0.329 0.107,-0.568 0.326,-0.593c0.934,-0.097 1.302,0.135 1.561,0.33c0.261,0.197 0.504,0.355 0.747,0.467c0.58,0.27 1.184,0.368 1.939,0.16c1.107,-0.305 2.298,-0.881 3.499,-1.373c0.814,-0.334 1.624,-0.659 2.412,-0.607c1.517,0.1 2.931,1.284 4.188,2.029c0.694,0.411 1.432,0.765 2.066,1.264c0.296,0.233 0.404,0.509 0.421,0.557Z" style="fill:#fff;"/><path d="M21.156,32.503c0.184,-0.078 0.368,-0.156 0.552,-0.231c0.814,-0.334 1.624,-0.659 2.412,-0.607c1.517,0.1 2.931,1.284 4.188,2.029c0.694,0.411 1.432,0.765 2.066,1.264c0.296,0.233 0.404,0.509 0.421,0.557c-1.419,1.732 -3.9,2.097 -5.653,1.976c-0.768,-0.053 -1.545,-0.157 -2.326,-0.291c1.02,-0.292 1.998,-0.817 2.71,-1.686c-0.017,-0.048 -0.125,-0.324 -0.421,-0.557c-0.634,-0.499 -1.372,-0.853 -2.066,-1.264c-0.595,-0.352 -1.225,-0.803 -1.884,-1.19Z" style="fill:#efefef;"/><path d="M96.674,13.863c-0.893,0.084 -1.822,-0.211 -2.725,-0.585c-1.211,-0.502 -2.37,-1.188 -3.366,-1.747c-2.724,-1.528 -6.007,-2.699 -9.18,-2.43c-3.227,0.273 -5.454,2.659 -6.162,5.51c-0.696,2.803 0.112,5.984 2.703,7.847c1.202,0.865 2.737,1.17 4.399,1.189c1.599,0.019 3.352,-0.318 4.712,0.121c2.742,0.886 5.191,2.527 7.896,3.526c4.269,1.576 9.666,1.743 13.883,-0.174c0.945,-0.429 1.722,-1.065 2.438,-1.783c0.692,-0.694 1.29,-1.507 2.14,-2.026c1.484,-0.907 3.405,-1.766 4.857,-2.983c1.277,-1.071 2.232,-2.389 2.582,-4.077c0.781,-3.767 -2.407,-6.461 -5.734,-7.09c-2.637,-0.499 -5.204,0.057 -7.694,1.001c-2.112,0.8 -4.165,1.884 -6.168,2.589c-1.135,0.399 -2.315,0.679 -3.507,0.843c-0.116,0.016 -0.761,0.186 -1.072,0.269Z"/><path d="M56.125,10.296c-3.161,-0.021 -5.908,0.701 -8.908,1.527c-2.695,0.741 -5.621,1.563 -9.387,1.83c-0.422,0.03 -0.842,-0.174 -1.273,-0.36c-0.807,-0.349 -1.608,-0.768 -2.362,-1.019c-1.989,-0.663 -3.705,-1.876 -5.652,-2.582c-3.199,-1.159 -6.577,-0.851 -9.66,0.436c-0.84,0.351 -2.059,0.82 -2.976,1.497c-0.972,0.718 -1.645,1.654 -1.84,2.771c-0.357,2.044 1.304,3.701 3.043,4.144c0.761,0.194 1.557,0.299 2.336,0.441c0.703,0.128 1.41,0.243 1.955,0.756c0.621,0.584 1.093,1.319 1.623,1.992c0.793,1.007 1.684,1.904 2.889,2.473c2.453,1.159 5.553,0.554 8.078,0.148c2.273,-0.365 4.592,-0.477 6.884,-0.244c2.526,0.258 4.671,1.674 7.137,2.134c2.971,0.553 6.286,-0.141 9.124,-1.02c2.848,-0.882 5.416,-2.657 6.906,-5.296c1.149,-2.036 1.338,-4.64 -0.234,-6.573c-0.453,-0.557 -1.048,-1.006 -1.634,-1.411c-0.745,-0.515 -1.56,-0.905 -2.428,-1.163c-1.17,-0.347 -2.405,-0.474 -3.621,-0.483Z"/><path d="M97.159,17.978l-0.106,0.023l0.267,-0.017l-0.16,-0.006l1.223,-0.266c1.446,-0.203 2.876,-0.546 4.253,-1.031c2.033,-0.715 4.118,-1.811 6.262,-2.623c1.766,-0.669 3.573,-1.157 5.443,-0.803c0.732,0.138 1.493,0.451 2.017,0.961c0.311,0.302 0.514,0.698 0.412,1.19c-0.202,0.974 -0.945,1.604 -1.75,2.164c-1.216,0.846 -2.644,1.492 -3.781,2.187c-0.818,0.5 -1.504,1.157 -2.158,1.845c-0.609,0.641 -1.151,1.354 -1.971,1.726c-3.254,1.479 -7.42,1.275 -10.715,0.059c-2.759,-1.019 -5.262,-2.679 -8.058,-3.583c-1.487,-0.48 -3.325,-0.384 -5.112,-0.332c-1.055,0.031 -2.101,0.141 -2.847,-0.396c-1.133,-0.815 -1.396,-2.235 -1.091,-3.461c0.293,-1.179 1.136,-2.249 2.47,-2.362c2.357,-0.2 4.766,0.777 6.79,1.912c2.426,1.361 5.699,3.137 8.614,2.813Z" style="fill:#fff;"/><path d="M110.193,13.613c1.353,-0.41 2.733,-0.625 4.148,-0.357c0.732,0.138 1.493,0.451 2.017,0.961c0.311,0.302 0.514,0.698 0.412,1.19c-0.202,0.974 -0.945,1.604 -1.75,2.164c-1.216,0.846 -2.644,1.492 -3.781,2.187c-0.818,0.5 -1.504,1.157 -2.158,1.845c-0.609,0.641 -1.151,1.354 -1.971,1.726c-2.374,1.079 -5.233,1.262 -7.885,0.81c0.911,-0.17 1.793,-0.436 2.616,-0.81c0.819,-0.372 1.362,-1.085 1.971,-1.726c0.654,-0.689 1.34,-1.345 2.158,-1.845c1.138,-0.695 2.565,-1.342 3.781,-2.187c0.805,-0.56 1.548,-1.19 1.75,-2.164c0.102,-0.491 -0.101,-0.887 -0.412,-1.19c-0.253,-0.246 -0.562,-0.447 -0.896,-0.604Z" style="fill:#efefef;"/><path d="M18.894,14.665c0.551,-0.293 1.148,-0.506 1.594,-0.691c2.119,-0.885 4.437,-1.16 6.636,-0.363c1.98,0.717 3.731,1.943 5.754,2.617c0.816,0.272 1.686,0.776 2.562,1.109c0.898,0.342 1.805,0.535 2.684,0.472c4.09,-0.29 7.271,-1.164 10.198,-1.969c2.622,-0.721 5.013,-1.396 7.775,-1.377c0.827,0.006 1.67,0.075 2.465,0.311c0.445,0.132 0.862,0.332 1.243,0.596c0.267,0.184 0.563,0.358 0.77,0.612c0.455,0.559 0.17,1.306 -0.162,1.895c-0.963,1.706 -2.67,2.794 -4.511,3.365c-2.221,0.688 -4.803,1.337 -7.128,0.904c-2.579,-0.48 -4.836,-1.913 -7.477,-2.183c-2.652,-0.271 -5.337,-0.147 -7.967,0.275c-1.016,0.163 -2.147,0.408 -3.272,0.489c-0.822,0.06 -1.644,0.049 -2.366,-0.291c-0.769,-0.363 -1.227,-1.054 -1.722,-1.709c-0.536,-0.709 -1.073,-1.42 -1.715,-2.024c-0.995,-0.936 -2.174,-1.412 -3.437,-1.694c-0.63,-0.141 -1.283,-0.225 -1.924,-0.343Z" style="fill:#fff;"/><path d="M53.058,14.709c0.981,-0.159 1.983,-0.254 3.039,-0.247c0.827,0.006 1.67,0.075 2.465,0.311c0.445,0.132 0.862,0.332 1.243,0.596c0.267,0.184 0.563,0.358 0.77,0.612c0.455,0.559 0.17,1.306 -0.162,1.895c-0.963,1.706 -2.67,2.794 -4.511,3.365c-2.221,0.688 -4.803,1.337 -7.128,0.904c-0.279,-0.052 -0.555,-0.115 -0.828,-0.187c0.925,-0.194 1.833,-0.452 2.687,-0.717c1.841,-0.57 3.547,-1.658 4.511,-3.365c0.332,-0.589 0.617,-1.336 0.162,-1.895c-0.206,-0.254 -0.503,-0.428 -0.77,-0.612c-0.382,-0.264 -0.799,-0.464 -1.243,-0.596c-0.078,-0.023 -0.156,-0.045 -0.235,-0.065Zm-17.074,5.208c0.424,-0.034 0.849,-0.059 1.275,-0.076c-1.269,-0.484 -1.986,-0.653 -1.275,0.076Z" style="fill:#efefef;"/></g></svg>