<?xml version="1.0" encoding="UTF-8" standalone="no"?><!DOCTYPE svg PUBLIC "-//W3C//DTD SVG 1.1//EN" "http://www.w3.org/Graphics/SVG/1.1/DTD/svg11.dtd"><svg width="100%" height="100%" viewBox="0 0 134 134" version="1.1" xmlns="http://www.w3.org/2000/svg" xmlns:xlink="http://www.w3.org/1999/xlink" xml:space="preserve" xmlns:serif="http://www.serif.com/" style="fill-rule:evenodd;clip-rule:evenodd;stroke-linejoin:round;stroke-miterlimit:2;"><g id="Icon"></g><path d="M8.226,127.081l116.881,-0c1.101,-0.056 1.976,-0.966 1.976,-2.081l-0,-100c0,-1.15 -0.934,-2.083 -2.083,-2.083l-25.764,0c-7.116,-9.796 -18.051,-16.667 -32.569,-16.667c-13.974,0 -25.633,6.401 -33.289,16.667l-25.045,0c-1.15,-0 -2.083,0.934 -2.083,2.083l-0,100c0,1.115 0.875,2.025 1.976,2.081Z"/><path d="M34.884,122.917c32.703,-0 87.069,-0 87.069,-0.001c0.453,-1.607 1.089,-4.599 0.926,-8.333l-56.213,0c-1.15,0 -2.083,-0.934 -2.083,-2.083c-0,-1.15 0.934,-2.083 2.083,-2.083l55.706,0c-0.984,-4.878 -3.528,-10.463 -9.196,-15.73c-5.373,-4.993 -8.119,-9.074 -9.426,-12.961c-1.327,-3.944 -1.191,-7.725 -0.605,-12.149c0.46,-3.466 1.193,-7.362 1.558,-12.149c1.632,-21.387 -11.436,-47.011 -38.037,-47.011c-24.551,0 -40.936,21.951 -38.739,48.747c0.353,4.302 1.254,7.583 1.956,10.421c0.942,3.808 1.503,6.923 0.508,10.385c-0.483,1.679 -1.344,3.457 -2.765,5.447l18.207,0c1.15,0 2.083,0.934 2.083,2.083c-0,1.15 -0.934,2.083 -2.083,2.083l-21.723,0c-0.776,0.808 -1.636,1.651 -2.586,2.533c-9.033,8.394 -10.981,18.475 -11.108,25.137l0,1.444c0.034,1.763 0.186,3.209 0.33,4.219l19.879,0.001c-1.016,-4.402 -2.392,-13.209 0.844,-19.682c0.514,-1.028 1.767,-1.446 2.795,-0.932c1.028,0.514 1.446,1.767 0.932,2.795c-3.028,6.057 -1.221,14.497 -0.313,17.818Z" style="fill:#fff;"/><path d="M114.557,114.583l8.322,0c0.163,3.734 -0.473,6.725 -0.926,8.333l-8.322,0l-0,-0c0.453,-1.607 1.089,-4.599 0.926,-8.333Zm-52.056,-103.951c1.36,-0.143 2.749,-0.216 4.166,-0.216c26.6,0 39.668,25.624 38.037,47.011c-0.365,4.788 -1.099,8.683 -1.558,12.149c-0.587,4.424 -0.722,8.206 0.605,12.149c1.308,3.887 4.054,7.968 9.426,12.961c5.668,5.267 8.212,10.851 9.196,15.73l-8.322,0c-0.984,-4.878 -3.528,-10.463 -9.196,-15.73c-5.373,-4.993 -8.119,-9.074 -9.426,-12.961c-1.327,-3.944 -1.191,-7.725 -0.605,-12.149c0.46,-3.466 1.193,-7.362 1.558,-12.149c1.544,-20.243 -10.08,-44.281 -33.88,-46.794Z" style="fill:#efefef;"/><path d="M86.974,86.983l0.159,-0.78c0.198,-0.97 1.051,-1.667 2.041,-1.667c0.99,0 1.844,0.697 2.041,1.667l0.133,0.653c0.147,0.042 0.291,0.088 0.434,0.139l0.505,-0.402c0.775,-0.616 1.877,-0.602 2.636,0.035c0.759,0.637 0.964,1.719 0.492,2.589l-0.189,0.349c0.149,0.202 0.288,0.413 0.416,0.63l0.344,0.009c0.99,0.026 1.825,0.746 1.996,1.721c0.172,0.975 -0.366,1.937 -1.288,2.3l-0.024,0.01c-0.012,0.395 -0.055,0.782 -0.126,1.158c0.701,0.66 0.86,1.719 0.375,2.557c-0.436,0.756 -1.289,1.149 -2.128,1.016c-0.357,0.402 -0.757,0.764 -1.191,1.078c-0.046,0.817 -0.573,1.55 -1.367,1.839c-0.779,0.284 -1.635,0.075 -2.197,-0.496c-0.222,0.022 -0.447,0.032 -0.674,0.032c-0.344,0 -0.682,-0.024 -1.013,-0.071c-0.56,0.601 -1.437,0.825 -2.234,0.535c-0.887,-0.323 -1.44,-1.198 -1.363,-2.128c-0.318,-0.262 -0.614,-0.551 -0.883,-0.863c-0.932,0.299 -1.949,-0.092 -2.44,-0.942c-0.495,-0.858 -0.318,-1.945 0.423,-2.602l0.279,-0.247c-0.035,-0.235 -0.059,-0.474 -0.071,-0.717l-0.406,-0.16c-0.921,-0.363 -1.459,-1.325 -1.288,-2.3c0.172,-0.975 1.007,-1.695 1.996,-1.721l0.726,-0.019c0.063,-0.107 0.129,-0.213 0.198,-0.317l-0.354,-0.652c-0.472,-0.87 -0.267,-1.953 0.492,-2.589c0.759,-0.637 1.86,-0.651 2.636,-0.035l0.627,0.498l0.287,-0.108Z"/><path d="M122.917,100.167l-0,-18.917l-4.167,0l0,13.179c1.693,1.906 3.064,3.831 4.167,5.738Z" style="fill:#6f6f6f;"/><path d="M18.75,89.007l0,-7.757l-8.333,0l0,18.747c1.867,-3.709 4.525,-7.451 8.271,-10.932c0.021,-0.019 0.042,-0.039 0.062,-0.058Z" style="fill:#888;"/><path d="M18.75,84.796l0,4.211c-0.02,0.019 -0.041,0.038 -0.062,0.058c-3.747,3.482 -6.404,7.223 -8.271,10.932l0,-5.543c2.083,-3.522 5.618,-7.856 8.333,-9.658Z" style="fill:#6f6f6f;"/><circle cx="89.383" cy="93.999" r="3.344" style="fill:#efefef;"/><path d="M114.583,81.25l-6.57,0c1.11,2.762 3.149,5.633 6.57,9.016l0,-9.016Z" style="fill:#888;"/><path d="M66.233,16.754c-16.874,0 -30.697,15.218 -30.697,34.098c0,18.88 13.823,34.098 30.697,34.098c16.874,0 30.697,-15.218 30.697,-34.098c0,-18.88 -13.823,-34.098 -30.697,-34.098Z"/><path d="M25.383,68.75l-2.466,0l0,15.965c1.876,-2.219 2.955,-4.104 3.471,-5.897c0.79,-2.747 0.199,-5.211 -0.548,-8.233c-0.146,-0.592 -0.3,-1.202 -0.456,-1.835Z" style="fill:#6f6f6f;"/><path d="M25.383,68.75l-2.466,0l0,15.965c1.876,-2.219 2.955,-4.104 3.471,-5.897c0.79,-2.747 0.199,-5.211 -0.548,-8.233c-0.146,-0.592 -0.3,-1.202 -0.456,-1.835Z" style="fill:#6f6f6f;"/><path d="M40.664,42.937l-0.026,0.014c-0.61,2.519 -0.936,5.169 -0.936,7.901c0,16.459 11.82,29.931 26.53,29.931c14.711,0 26.53,-13.472 26.53,-29.931c0,-2.732 -0.326,-5.382 -0.936,-7.901l-25.088,-14.153l-26.074,14.139Z" style="fill:#ffc5b3;"/><path d="M62.496,31.099l4.243,-2.301l25.088,14.153c0.61,2.519 0.936,5.169 0.936,7.901c0,16.459 -11.82,29.931 -26.53,29.931c-1.417,0 -2.806,-0.125 -4.161,-0.366c12.716,-2.257 22.369,-14.692 22.369,-29.566c0,-2.732 -0.326,-5.382 -0.936,-7.901l-21.01,-11.852Z" style="fill:#ffbaa4;"/><path d="M108.975,52.083c0.064,1.904 0.025,3.796 -0.117,5.661c-0.372,4.878 -1.114,8.848 -1.582,12.38c-0.33,2.493 -0.53,4.746 -0.295,6.959l3.436,0l0,-25l-1.441,0Z" style="fill:#888;"/><path d="M122.917,77.083l0,-12.5l-8.333,0l0,12.5l8.333,0Z" style="fill:#888;"/><path d="M18.75,68.75l-8.333,0l0,8.333l8.333,-0l0,-8.333Z" style="fill:#888;"/><path d="M24.511,43.75l-5.761,0l0,20.833l5.712,0c-0.288,-1.541 -0.535,-3.221 -0.687,-5.079c-0.45,-5.485 -0.178,-10.776 0.736,-15.754Z" style="fill:#888;"/><path d="M24.511,43.75c-0.914,4.978 -1.185,10.269 -0.736,15.754c0.152,1.858 0.398,3.538 0.687,5.079l-3.853,0c-0.288,-1.541 -0.535,-3.221 -0.687,-5.079c-0.45,-5.485 -0.178,-10.776 0.736,-15.754l3.853,0Z" style="fill:#6f6f6f;"/><rect x="10.417" y="43.75" width="4.167" height="20.833" style="fill:#888;"/><path d="M114.583,39.583l0,20.833l8.333,0l-0,-20.833l-8.333,0Z" style="fill:#888;"/><path d="M101.937,27.083c3.67,6.363 5.933,13.598 6.737,20.833l1.743,0l0,-20.833l-8.48,0Z" style="fill:#888;"/><path d="M26.738,35.417l-16.321,0l0,4.167l15.027,0c0.378,-1.421 0.81,-2.812 1.294,-4.167Z" style="fill:#888;"/><path d="M26.738,35.417c-0.484,1.355 -0.916,2.745 -1.294,4.167l-3.853,0c0.378,-1.421 0.81,-2.812 1.294,-4.167l3.853,0Z" style="fill:#6f6f6f;"/><path d="M71.457,21.499l-28.798,15.616c4.404,-9.599 13.281,-16.195 23.574,-16.195c1.789,0 3.535,0.199 5.224,0.579Z" style="fill:#a6a6a6;"/><path d="M76.756,23.366c5.6,2.733 10.189,7.579 12.996,13.631l-18.69,-10.544l5.694,-3.087Z" style="fill:#a6a6a6;"/><path d="M72.364,25.747l4.392,-2.382c5.6,2.733 10.189,7.579 12.996,13.631l-13.213,-7.454c-1.272,-1.417 -2.671,-2.69 -4.176,-3.796Z" style="fill:#969696;"/><rect x="114.583" y="27.083" width="8.333" height="8.333" style="fill:#888;"/><path d="M122.917,100.167l-0,-18.917l-4.167,0l0,13.179c1.693,1.906 3.064,3.831 4.167,5.738Z" style="fill:#6f6f6f;"/><path d="M122.917,77.083l0,-12.5l-4.167,0l0,12.5l4.167,0Z" style="fill:#6f6f6f;"/><path d="M118.75,39.583l0,20.833l4.167,0l-0,-20.833l-4.167,0Z" style="fill:#6f6f6f;"/><rect x="118.75" y="27.083" width="4.167" height="8.333" style="fill:#6f6f6f;"/><path d="M30.616,27.083l-20.199,0l0,4.167l18.022,0c0.663,-1.436 1.39,-2.826 2.177,-4.167Z" style="fill:#888;"/><path d="M30.616,27.083c-0.788,1.341 -1.514,2.731 -2.177,4.167l-3.853,0c0.663,-1.436 1.39,-2.826 2.177,-4.167l3.853,0Z" style="fill:#6f6f6f;"/></svg>