<?xml version="1.0" encoding="UTF-8" standalone="no"?><!DOCTYPE svg PUBLIC "-//W3C//DTD SVG 1.1//EN" "http://www.w3.org/Graphics/SVG/1.1/DTD/svg11.dtd"><svg width="100%" height="100%" viewBox="0 0 134 134" version="1.1" xmlns="http://www.w3.org/2000/svg" xmlns:xlink="http://www.w3.org/1999/xlink" xml:space="preserve" xmlns:serif="http://www.serif.com/" style="fill-rule:evenodd;clip-rule:evenodd;stroke-linejoin:round;stroke-miterlimit:2;"><g id="Icon"><path d="M10.737,79.529l0,36.776c-0,5.953 4.826,10.779 10.779,10.779l90.302,0c5.953,-0 10.779,-4.826 10.779,-10.779l-0,-36.776c0,-5.953 -4.826,-10.779 -10.779,-10.779l-90.302,-0c-5.953,0 -10.779,4.826 -10.779,10.779Z"/><path d="M118.429,97.798c0,-3.652 -2.96,-6.612 -6.612,-6.612c0,0 -90.301,-0 -90.302,0c-3.652,0 -6.612,2.96 -6.612,6.612l0,18.507c-0,3.652 2.96,6.612 6.612,6.612c0,0 90.301,0 90.302,-0c3.652,-0 6.612,-2.96 6.612,-6.612l-0,-18.507Z" style="fill:#fbd59a;"/><path d="M104.081,91.186l7.736,-0c3.652,0 6.612,2.96 6.612,6.612l0,18.507c0,3.652 -2.96,6.612 -6.612,6.612l-7.736,0c3.652,-0 6.612,-2.96 6.612,-6.612l-0,-18.507c0,-3.652 -2.96,-6.612 -6.612,-6.612Z" style="fill:#f0bf73;"/><path d="M102.404,100c0,-1.151 -0.933,-2.083 -2.083,-2.083l-66.667,0c-1.151,0 -2.083,0.933 -2.083,2.083l0,14.103c0,1.151 0.933,2.083 2.083,2.083l66.667,0c1.151,0 2.083,-0.933 2.083,-2.083l0,-14.103Z"/><path d="M98.237,102.083l0,9.936c-0,0 -62.5,0 -62.5,0c-0,0 -0,-9.936 -0,-9.936l62.5,-0Z" style="fill:#e19974;"/><path d="M98.237,102.083l0,9.936c-0,0 -6.545,0 -6.545,0c-0,0 -0,-9.936 -0,-9.936l6.545,-0Z" style="fill:#c5825f;"/><path d="M118.429,89.285l-0,-9.756c0,-3.652 -2.96,-6.612 -6.612,-6.612c0,0 -90.301,-0 -90.302,0c-3.652,0 -6.612,2.96 -6.612,6.612l0,9.756c1.826,-1.42 4.12,-2.266 6.612,-2.266l90.302,0c2.492,0 4.786,0.846 6.612,2.266Z" style="fill:#fef1da;"/><path d="M104.081,72.917l7.736,-0c3.652,0 6.612,2.96 6.612,6.612l0,9.756c-1.826,-1.42 -4.12,-2.266 -6.612,-2.266l-1.124,-0l-0,-7.491c0,-3.652 -2.96,-6.612 -6.612,-6.612Z" style="fill:#f4dfba;"/><path d="M51.282,81.25l31.41,0c1.15,0 2.083,-0.934 2.083,-2.083c0,-1.15 -0.934,-2.083 -2.083,-2.083l-31.41,0c-1.15,0 -2.083,0.934 -2.083,2.083c0,1.15 0.934,2.083 2.083,2.083Z"/><path d="M78.165,6.25l-22.357,-0c-1.734,-0 -3.393,0.649 -4.619,1.788c-1.283,1.192 -1.992,2.814 -1.992,4.499l0,41.593c-0,1.685 0.708,3.307 1.992,4.499c1.226,1.138 2.885,1.788 4.619,1.788l22.357,0c1.734,0 3.393,-0.649 4.619,-1.788c1.283,-1.192 1.992,-2.814 1.992,-4.499l-0,-41.593c0,-1.685 -0.708,-3.307 -1.992,-4.499c-1.226,-1.138 -2.885,-1.788 -4.619,-1.788Z"/><path d="M23.847,59.807l0.043,0.041c0.265,0.251 0.58,0.418 0.912,0.503l0.012,0.003c0.346,0.087 0.713,0.085 1.065,-0.014c0.286,-0.079 0.559,-0.221 0.797,-0.425l0.128,-0.119l8.323,-8.323c0.813,-0.813 0.813,-2.133 0,-2.946c-0.813,-0.813 -2.133,-0.813 -2.946,0l-4.777,4.777l0,-24.137c-0,-1.15 -0.934,-2.083 -2.083,-2.083c-1.15,0 -2.083,0.934 -2.083,2.083l0,24.137c0,0 -4.777,-4.777 -4.777,-4.777c-0.813,-0.813 -2.133,-0.813 -2.946,0c-0.813,0.813 -0.813,2.133 -0,2.946l8.333,8.333Z"/><path d="M107.181,59.807l0.043,0.041c0.265,0.251 0.58,0.418 0.912,0.503l0.012,0.003c0.346,0.087 0.713,0.085 1.065,-0.014c0.286,-0.079 0.559,-0.221 0.797,-0.425l0.128,-0.119l8.323,-8.323c0.813,-0.813 0.813,-2.133 0,-2.946c-0.813,-0.813 -2.133,-0.813 -2.946,0l-4.777,4.777l0,-24.137c-0,-1.15 -0.934,-2.083 -2.083,-2.083c-1.15,0 -2.083,0.934 -2.083,2.083l0,24.137c0,0 -4.777,-4.777 -4.777,-4.777c-0.813,-0.813 -2.133,-0.813 -2.946,0c-0.813,0.813 -0.813,2.133 -0,2.946l8.333,8.333Z"/><path d="M80.609,49.761c-3.128,0.342 -5.565,2.995 -5.565,6.213c0,0.093 0.002,0.185 0.006,0.277l3.115,0c0.667,0 1.311,-0.236 1.783,-0.674c0.415,-0.385 0.66,-0.901 0.66,-1.446l-0,-4.369Z" style="fill:#f4dfba;"/><path d="M63.093,10.417c0.002,0.092 0.004,0.184 0.004,0.277c0,5.519 -4.302,10.042 -9.732,10.394l0,24.491c5.43,0.353 9.732,4.875 9.732,10.394c0,0.093 -0.001,0.185 -0.004,0.277l7.788,0c-0.002,-0.092 -0.004,-0.184 -0.004,-0.277c0,-5.519 4.302,-10.042 9.732,-10.394l-0,-24.491c-5.43,-0.353 -9.732,-4.875 -9.732,-10.394c0,-0.093 0.001,-0.185 0.004,-0.277l-7.788,-0Z" style="fill:#fbd59a;"/><path d="M74.914,18.926l-0,28.816c1.594,-1.238 3.557,-2.023 5.695,-2.162l-0,-24.491c-2.138,-0.139 -4.101,-0.924 -5.695,-2.162Z" style="fill:#f0bf73;"/><path d="M53.365,49.761l0,4.369c-0,0.544 0.246,1.061 0.66,1.446c0.472,0.438 1.116,0.674 1.783,0.674l3.115,0c0.004,-0.092 0.006,-0.184 0.006,-0.277c0,-3.218 -2.437,-5.871 -5.565,-6.213Z" style="fill:#f4dfba;"/><path d="M76.133,23.952c0,-1.073 -0.445,-2.107 -1.26,-2.865c-0.759,-0.707 -1.786,-1.114 -2.859,-1.114c-2.682,-0 -7.372,-0 -10.054,-0c-1.074,-0 -2.1,0.407 -2.859,1.114c-0.814,0.758 -1.26,1.793 -1.26,2.865c0,4.252 0,14.51 0,18.762c-0,1.073 0.445,2.107 1.26,2.865c0.759,0.707 1.786,1.114 2.859,1.114c2.682,0 7.372,0 10.054,0c1.074,0 2.1,-0.407 2.859,-1.114c0.814,-0.758 1.26,-1.793 1.26,-2.865c-0,-4.252 -0,-14.51 -0,-18.762Z"/><rect x="62.008" y="24.14" width="9.959" height="18.388" style="fill:#e19974;"/><rect x="66.987" y="24.14" width="4.98" height="18.388" style="fill:#c5825f;"/><circle cx="66.987" cy="38.808" r="2.202"/><circle cx="66.987" cy="33.334" r="2.202"/><circle cx="66.987" cy="27.859" r="2.202"/><path d="M58.924,10.417l-3.115,-0c-0.667,-0 -1.311,0.236 -1.783,0.674c-0.415,0.385 -0.66,0.901 -0.66,1.446l0,4.369c3.128,-0.342 5.565,-2.995 5.565,-6.213c0,-0.093 -0.002,-0.185 -0.006,-0.277Z" style="fill:#f4dfba;"/><path d="M75.05,10.417c-0.004,0.092 -0.006,0.184 -0.006,0.277c0,3.218 2.437,5.871 5.565,6.213l-0,-4.369c0,-0.544 -0.246,-1.061 -0.66,-1.446c-0.472,-0.438 -1.116,-0.674 -1.783,-0.674l-3.115,-0Z" style="fill:#f4dfba;"/></g></svg>