<svg id="Capa_1" enable-background="new 0 0 512 512" height="512" viewBox="0 0 512 512" width="512" xmlns="http://www.w3.org/2000/svg"><g><g><path d="m464.272 299.379 38.033-38.033c2.953-2.953 2.953-7.74 0-10.693l-38.033-38.033c-1.418-1.418-2.215-3.341-2.215-5.346v-149.771c0-4.176-3.385-7.561-7.561-7.561h-149.771c-2.005 0-3.928-.797-5.346-2.215l-38.033-38.032c-2.953-2.953-7.74-2.953-10.693 0l-38.033 38.033c-1.418 1.418-3.341 2.215-5.346 2.215h-149.771c-4.176 0-7.561 3.385-7.561 7.561v149.772c0 2.005-.797 3.928-2.215 5.346l-38.032 38.032c-2.953 2.953-2.953 7.74 0 10.693l38.033 38.033c1.418 1.418 2.215 3.341 2.215 5.346v149.772c0 4.176 3.385 7.561 7.561 7.561h149.772c2.005 0 3.928.797 5.346 2.215l38.033 38.033c2.953 2.953 7.74 2.953 10.693 0l38.033-38.033c1.418-1.418 3.341-2.215 5.346-2.215h149.772c4.176 0 7.561-3.385 7.561-7.561v-149.773c-.002-2.005.794-3.928 2.212-5.346z" fill="#ade194"/></g><g><path d="m285.761 462.054h18.959c-1.997 0-3.924.799-5.341 2.216l-38.028 38.038c-2.955 2.945-7.747 2.945-10.703 0l-4.133-4.133 33.895-33.905c1.418-1.417 3.345-2.216 5.351-2.216z" fill="#97da7b"/></g><g><path d="m299.379 47.73c1.418 1.418 3.345 2.216 5.341 2.216h-18.959c-2.007 0-3.934-.799-5.351-2.216l-33.895-33.905 4.133-4.133c2.955-2.945 7.747-2.945 10.703 0z" fill="#97da7b"/></g><g><path d="m502.308 261.351-38.038 38.028c-1.418 1.418-2.216 3.345-2.216 5.341v149.776c0 4.173-3.384 7.558-7.558 7.558h-18.969c4.173 0 7.558-3.385 7.558-7.558v-149.775c0-1.997.799-3.924 2.216-5.341l38.038-38.028c2.945-2.955 2.945-7.747 0-10.693l-38.038-38.038c-1.418-1.418-2.216-3.345-2.216-5.341v-149.776c0-4.173-3.384-7.558-7.558-7.558h18.969c4.173 0 7.558 3.385 7.558 7.558v149.776c0 1.997.799 3.924 2.216 5.341l38.038 38.038c2.946 2.945 2.946 7.737 0 10.692z" fill="#97da7b"/></g><g><path d="m428.248 293.151 35.25-35.25c1.05-1.05 1.05-2.753 0-3.803l-35.25-35.25c-.504-.504-.788-1.188-.788-1.901v-129.719c0-1.485-1.204-2.689-2.689-2.689h-129.72c-.713 0-1.397-.283-1.901-.788l-35.25-35.25c-1.05-1.05-2.753-1.05-3.803 0l-35.25 35.25c-.504.504-1.188.788-1.901.788h-129.718c-1.485 0-2.689 1.204-2.689 2.689v129.72c0 .713-.283 1.397-.788 1.901l-35.25 35.25c-1.05 1.05-1.05 2.753 0 3.803l35.25 35.25c.504.504.788 1.188.788 1.901v129.72c0 1.485 1.204 2.689 2.689 2.689h129.72c.713 0 1.397.283 1.901.788l35.25 35.249c1.05 1.05 2.753 1.05 3.803 0l35.25-35.249c.504-.504 1.188-.788 1.901-.788h129.72c1.485 0 2.689-1.204 2.689-2.689v-129.72c-.001-.714.282-1.398.786-1.902z" fill="#dbf1d0"/></g><g><path d="m275.249 427.46h19.808c-.719 0-1.398.28-1.907.789l-35.253 35.253c-1.048 1.048-2.746 1.048-3.794 0l-7.997-7.997 27.246-27.256c.499-.509 1.188-.789 1.897-.789z" fill="#c1e9af"/></g><g><path d="m293.149 83.751c.509.509 1.188.789 1.907.789h-19.808c-.709 0-1.398-.28-1.897-.789l-27.246-27.246 7.997-8.007c1.048-1.048 2.746-1.048 3.794 0z" fill="#c1e9af"/></g><g><path d="m463.502 257.897-35.253 35.253c-.509.509-.789 1.188-.789 1.907v129.718c0 1.478-1.208 2.686-2.686 2.686h-19.808c1.488 0 2.696-1.208 2.696-2.686v-129.719c0-.719.28-1.398.779-1.907l35.253-35.253c1.048-1.048 1.048-2.746 0-3.794l-35.253-35.253c-.499-.509-.779-1.188-.779-1.907v-129.717c0-1.478-1.208-2.686-2.696-2.686h19.808c1.478 0 2.686 1.208 2.686 2.686v129.718c0 .719.28 1.398.789 1.907l35.253 35.253c1.048 1.048 1.048 2.746 0 3.794z" fill="#c1e9af"/></g><g><g><path d="m376.161 313.156c-21.193 40.933-63.933 68.9-113.213 68.906-69.846.009-126.289-55.475-127.416-125.312-1.003-62.185 42.552-114.376 100.823-126.745 2.909-.618 4.556 3.252 2.1 4.929-29.095 19.861-48.186 53.293-48.143 91.191.069 60.041 48.919 109.387 108.957 110.031 27.74.298 53.155-9.658 72.674-26.314 2.277-1.944 5.594.656 4.218 3.314z" fill="#fee97d"/></g><g><path d="m376.164 313.157c-2.765 5.331-5.89 10.443-9.355 15.305-21.156 16.383-47.812 26.027-76.715 25.708-67.18-.719-121.831-55.929-121.911-123.099-.04-36.561 15.834-69.407 41.063-92.01 8.556-3.984 17.641-7.049 27.106-9.055 2.915-.619 4.563 3.255 2.107 4.932-29.103 19.858-48.191 53.293-48.141 91.191.06 60.032 48.91 109.382 108.952 110.031 27.745.29 53.153-9.664 72.671-26.317 2.276-1.948 5.601.658 4.223 3.314z" fill="#fedf30"/></g><g><path d="m277.652 175.909 18.718 12.534c1.012.677 2.292.814 3.423.364l20.937-8.314c2.849-1.131 5.759 1.495 4.924 4.445l-6.136 21.675c-.332 1.171-.066 2.431.711 3.368l14.377 17.343c1.957 2.36.357 5.939-2.706 6.057l-22.511.862c-1.217.047-2.332.689-2.984 1.717l-12.051 19.033c-1.64 2.59-5.538 2.175-6.597-.702l-7.776-21.143c-.42-1.143-1.376-2.005-2.555-2.307l-21.825-5.58c-2.97-.759-3.78-4.595-1.371-6.491l17.705-13.929c.957-.753 1.482-1.928 1.404-3.143l-1.437-22.481c-.195-3.058 3.202-5.014 5.75-3.308z" fill="#fee97d"/></g><g><path d="m331.896 233.377-17.062.659c.26-1.058.06-2.236-.749-3.205l-14.377-17.342c-.779-.938-1.038-2.196-.709-3.364l6.13-21.685c.18-.619.19-1.218.07-1.777l15.535-6.17c2.845-1.128 5.751 1.498 4.922 4.443l-6.14 21.675c-.329 1.178-.06 2.436.709 3.374l14.377 17.342c1.957 2.356.359 5.94-2.706 6.05z" fill="#fedf30"/></g><g><path d="m507.599 245.359-38.054-38.084v-149.772c0-8.298-6.751-15.049-15.049-15.049l-149.823-.021-38.032-38.033c-5.867-5.867-15.414-5.867-21.282 0l-38.084 38.054h-149.772c-8.298 0-15.049 6.751-15.049 15.049l-.021 149.823-38.032 38.033c-5.867 5.867-5.867 15.414 0 21.282l38.054 38.084v149.772c0 8.298 6.751 15.048 15.049 15.048l149.823.021 38.033 38.033c2.934 2.934 6.787 4.4 10.641 4.4s7.707-1.467 10.641-4.4l38.084-38.054h149.771c8.298 0 15.049-6.751 15.049-15.048v-149.772c0-.019.008-.037.021-.052l38.033-38.033c5.867-5.867 5.867-15.413-.001-21.281zm-10.589 10.693-38.033 38.033c-2.843 2.842-4.408 6.622-4.408 10.641v149.772c0 .04-.033.073-.073.073h-149.771c-4.018 0-7.797 1.565-10.641 4.408l-38.033 38.033c-.024.024-.079.024-.103 0l-38.034-38.034c-2.843-2.842-6.622-4.407-10.64-4.407h-149.771c-.04 0-.073-.033-.073-.073v-149.773c0-4.019-1.565-7.798-4.408-10.641l-38.032-38.032c-.024-.024-.024-.079 0-.104l38.033-38.033c2.843-2.842 4.408-6.622 4.408-10.641v-149.771c0-.041.033-.073.073-.073h149.771c4.019 0 7.798-1.565 10.641-4.408l38.033-38.033c.024-.024.079-.024.103 0l38.033 38.033c2.843 2.843 6.622 4.408 10.641 4.408h149.771c.04 0 .073.033.073.073v149.771c0 4.019 1.565 7.798 4.408 10.641l38.033 38.033c.024.025.024.079-.001.104z"/><path d="m434.948 87.228c0-5.611-4.565-10.177-10.177-10.177h-127.731l-33.844-33.844c-1.922-1.922-4.478-2.981-7.196-2.981s-5.274 1.058-7.196 2.981l-33.844 33.845h-127.732c-5.611 0-10.177 4.565-10.177 10.177v127.731l-33.844 33.844c-1.922 1.922-2.981 4.478-2.981 7.196s1.059 5.274 2.981 7.196l33.844 33.844v127.732c0 5.611 4.565 10.176 10.177 10.176h127.732l33.844 33.844c1.922 1.922 4.478 2.981 7.196 2.981s5.274-1.058 7.196-2.981l33.844-33.844h127.732c5.611 0 10.177-4.565 10.177-10.176v-43.825c0-4.135-3.352-7.488-7.488-7.488-4.135 0-7.488 3.352-7.488 7.488v39.026h-124.921c-2.72 0-5.277 1.059-7.196 2.981l-31.856 31.856-31.854-31.854c-1.922-1.924-4.478-2.983-7.198-2.983h-124.921v-124.921c0-2.718-1.059-5.274-2.981-7.196l-31.856-31.856 31.853-31.854c1.924-1.922 2.983-4.478 2.983-7.198v-124.921h124.921c2.72 0 5.277-1.059 7.196-2.981l31.857-31.856 31.854 31.854c1.922 1.924 4.478 2.983 7.198 2.983h124.921v124.921c0 2.72 1.059 5.277 2.981 7.196l31.856 31.856-31.856 31.856c-1.922 1.922-2.981 4.478-2.981 7.196v51.301c0 4.135 3.352 7.488 7.488 7.488 4.135 0 7.488-3.352 7.488-7.488v-49.313l33.844-33.844c1.922-1.922 2.981-4.478 2.981-7.196s-1.059-5.274-2.981-7.196l-33.844-33.844v-127.732z"/><path d="m148.443 198.159c-3.808-1.61-8.202.171-9.813 3.98-7.33 17.331-10.891 35.745-10.584 54.731.577 35.751 14.845 69.158 40.175 94.066 25.323 24.901 58.956 38.614 94.712 38.613h.017c50.639-.006 96.567-27.96 119.861-72.951 2.273-4.39 1.155-9.604-2.72-12.679-3.887-3.085-9.235-2.992-13.007.227-18.844 16.08-42.886 24.767-67.734 24.522-55.93-.601-101.485-46.605-101.549-102.552-.039-34.015 16.737-65.79 44.876-84.998 4.079-2.784 5.57-7.907 3.624-12.457-1.944-4.546-6.675-7.005-11.5-5.981-30.419 6.457-57.908 23.476-77.402 47.924-2.578 3.234-2.047 7.945 1.186 10.522 3.234 2.578 7.944 2.047 10.523-1.186 12.442-15.604 28.54-27.803 46.631-35.568-20.949 21.752-32.95 50.955-32.915 81.761.074 64.107 52.274 116.822 116.364 117.509 20.329.206 40.146-4.8 57.697-14.386-22.494 28.391-56.791 45.313-93.939 45.318-.006 0-.009 0-.015 0-31.801 0-61.709-12.187-84.212-34.315-22.509-22.135-35.188-51.835-35.702-83.63-.273-16.888 2.891-33.258 9.404-48.656 1.613-3.809-.169-8.202-3.978-9.814z"/><path d="m245.573 223.991c.886 4.196 4.018 7.463 8.174 8.526l19.896 5.087 7.089 19.273c1.481 4.026 5.05 6.809 9.315 7.263.406.043.81.064 1.21.064 3.814 0 7.348-1.925 9.425-5.204l10.986-17.35 20.52-.786c4.286-.164 8.036-2.698 9.786-6.615 1.75-3.916 1.137-8.4-1.601-11.703l-13.106-15.81 5.594-19.758c1.168-4.127-.084-8.476-3.268-11.351-3.183-2.875-7.638-3.677-11.625-2.094l-19.086 7.579-17.064-11.425c-3.565-2.387-8.088-2.539-11.805-.4-3.717 2.14-5.857 6.128-5.583 10.409l1.31 20.493-16.14 12.698c-3.371 2.653-4.914 6.907-4.027 11.104zm30.992-13.263c2.896-2.277 4.483-5.832 4.247-9.506l-.948-14.82 12.338 8.261c3.061 2.05 6.932 2.462 10.354 1.103l13.802-5.481-4.046 14.29c-1.003 3.543-.198 7.352 2.152 10.186l9.477 11.432-14.841.568c-3.679.142-7.052 2.084-9.021 5.194l-7.944 12.547-5.126-13.937c-1.271-3.458-4.161-6.066-7.728-6.977l-14.388-3.678z"/></g></g></g></svg>