<svg id="Capa_1" enable-background="new 0 0 512.251 512.251" height="512" viewBox="0 0 512.251 512.251" width="512" xmlns="http://www.w3.org/2000/svg"><g><g><path d="m245.062 226.786c16.774 0 30.373-13.598 30.373-30.373 0-3.953-.769-7.895-2.274-11.552-3.828-9.301-12.94-14.696-19.031-22.422-2.922-3.706-6.102-7.864-7.874-12.34-.429-1.082-1.959-1.082-2.388 0-1.772 4.476-4.953 8.634-7.874 12.34-6.091 7.727-15.203 13.121-19.031 22.422-1.505 3.656-2.274 7.599-2.274 11.552 0 16.775 13.598 30.373 30.373 30.373z" fill="#99e6fc"/></g><g><path d="m275.44 196.41c0 16.625-13.352 30.127-29.917 30.366 6.117-5.558 9.959-13.572 9.959-22.483 0-3.952-.778-7.893-2.275-11.556-3.832-9.3-12.943-14.689-19.03-22.423-.808-1.028-1.637-2.076-2.435-3.163 1.497-1.507 2.944-3.054 4.251-4.71 2.924-3.712 6.107-7.863 7.873-12.344.429-1.078 1.966-1.078 2.385 0 1.776 4.481 4.96 8.632 7.884 12.344 6.087 7.724 15.198 13.122 19.03 22.423 1.496 3.653 2.275 7.594 2.275 11.546z" fill="#62dbfb"/></g><g><path d="m324.882 157.745c10.915 0 19.764-8.849 19.764-19.764 0-2.572-.5-5.138-1.48-7.517-2.491-6.052-8.42-9.563-12.384-14.59-1.901-2.412-3.971-5.117-5.124-8.03-.279-.704-1.275-.704-1.554 0-1.153 2.913-3.223 5.618-5.124 8.03-3.964 5.028-9.893 8.538-12.384 14.59-.979 2.379-1.48 4.945-1.48 7.517.002 10.915 8.851 19.764 19.766 19.764z" fill="#99e6fc"/></g><g><path d="m344.644 137.977c0 10.917-8.852 19.768-19.759 19.768-.419 0-.838-.01-1.257-.05 2.674-3.373 4.251-7.614 4.251-12.234 0-2.565-.499-5.139-1.477-7.514-2.485-6.047-8.422-9.56-12.384-14.589-.339-.429-.679-.868-1.018-1.317 2.066-1.996 4.211-3.932 5.977-6.167 1.906-2.415 3.972-5.119 5.129-8.033.279-.699 1.277-.699 1.547 0 1.157 2.914 3.223 5.618 5.129 8.033 3.962 5.029 9.889 8.542 12.384 14.589.979 2.384 1.478 4.949 1.478 7.514z" fill="#62dbfb"/></g><g><path d="m44.395 36.193v61.43h173.945v13.932c0 6.707 5.437 12.145 12.145 12.145h37.14c6.707 0 12.145-5.437 12.145-12.145v-40.134c0-19.456-15.772-35.229-35.229-35.229h-200.146z" fill="#b5adb6"/></g><g><path d="m279.771 71.423v40.136c0 6.707-5.437 12.144-12.144 12.144h-7.814v-50.227c0-10.508-8.519-19.027-19.027-19.027h-196.391v-18.252h200.15c19.449 0 35.226 15.767 35.226 35.226z" fill="#a79ba7"/></g><g><path d="m26.73 130.178h-18.408v-122.694h18.408c9.756 0 17.664 7.909 17.664 17.664v87.365c.001 9.756-7.908 17.665-17.664 17.665z" fill="#7a6d79"/></g><g><path d="m44.395 25.15v87.366c0 9.749-7.913 17.663-17.663 17.663h-18.042c9.76 0 17.673-7.913 17.673-17.663v-87.366c0-9.76-7.913-17.663-17.673-17.663h18.042c9.749 0 17.663 7.903 17.663 17.663z" fill="#685e68"/></g><g><g><path d="m349.513 194.725c-9.218 8.766-10.116 23.157-2.06 33.001l17.478 23.371h-165.348c-15.118 0-24.56 9.442-24.56 21.089v.36c0 11.647 9.442 21.089 21.089 21.089h-19.709c-11.647 0-21.089 9.442-21.089 21.089s9.442 21.089 21.089 21.089h35.014c-11.647 0-21.089 9.442-21.089 21.089 0 11.647 9.442 21.089 21.089 21.089h24.772 26.015c-11.647 0-21.089 9.442-21.089 21.089 0 11.647 9.442 21.089 21.089 21.089h137.048c8.925 0 17.623-2.817 24.853-8.049l22.988-16.637c7.23-5.233 15.928-8.05 24.853-8.05h31.984v-121.89h-35.354c-11.561 0-22.621-4.722-30.617-13.072l-54.146-56.945c-9.261-9.669-24.598-10.027-34.3-.801z" fill="#f6a96c"/></g><g><path d="m199.584 251.092h165.351l-.001.761c-.012 11.96-9.71 21.648-21.67 21.648h-143.68c-9.928 0-17.412 4.079-21.379 10.185-2.017-3.238-3.182-7.059-3.182-11.138v-.359c-.001-11.651 9.445-21.097 24.561-21.097z" fill="#ea9b58"/></g><g><path d="m176.928 293.637h177.697c0 11.968-9.702 21.67-21.67 21.67h-156.554c-7.687 0-14.409 4.112-18.085 10.253-2.039-3.395-3.154-7.406-2.986-11.677.447-11.402 10.188-20.246 21.598-20.246z" fill="#ea9b58"/></g><g><path d="m454.903 336.391v54.63c-2.744 1.188-5.359 2.684-7.814 4.461l-22.982 16.635c-7.235 5.239-15.927 8.053-24.858 8.053h-137.042c-5.828 0-11.097-2.355-14.919-6.177-3.822-3.812-6.177-9.091-6.177-14.909 0-11.656 9.44-21.096 21.096-21.096h-50.793c-5.828 0-11.097-2.365-14.909-6.177s-6.177-9.081-6.177-14.909c0-11.646 9.44-21.086 21.086-21.086h-35.007c-11.526 0-20.886-9.241-21.086-20.716h160.583l-17.473-23.371c-8.063-9.849-7.165-24.239 2.056-33.001 9.7-9.231 25.037-8.871 34.298.798l54.146 56.95c8.003 8.352 19.06 13.073 30.616 13.073h28.515c3.778.002 6.841 3.064 6.841 6.842z" fill="#d88a55"/></g><g><path d="m383.815 195.527 54.142 56.943c8 8.348 19.06 13.076 30.623 13.076h35.353v23.542h-44.261c-11.563 0-22.623-4.728-30.623-13.076l-54.142-56.943c-8.717-9.11-22.824-9.95-32.539-2.308-1.445-7.832.997-16.191 7.149-22.04 9.703-9.222 25.031-8.864 34.298.806z" fill="#ea9b58"/></g></g><g><g><path d="m300.489 279.322c-9.218 8.766-10.116 23.157-2.06 33.001l17.478 23.371h-165.349c-15.118 0-24.56 9.442-24.56 21.089v.36c0 11.647 9.442 21.089 21.089 21.089h-19.709c-11.647 0-21.089 9.442-21.089 21.089s9.442 21.089 21.089 21.089h35.014c-11.647 0-21.089 9.442-21.089 21.089 0 11.647 9.442 21.089 21.089 21.089h24.772 26.015c-11.647 0-21.089 9.442-21.089 21.089 0 11.647 9.442 21.089 21.089 21.089h137.048c8.925 0 17.623-2.817 24.853-8.049l22.988-16.637c7.23-5.233 15.928-8.05 24.853-8.05h31.984v-121.89h-35.354c-11.561 0-22.621-4.722-30.617-13.072l-54.146-56.945c-9.26-9.668-24.597-10.027-34.299-.801z" fill="#f6a96c"/></g><g><path d="m334.79 280.125 54.142 56.943c8 8.348 19.06 13.076 30.623 13.076h35.353v23.542h-44.261c-11.563 0-22.623-4.728-30.623-13.076l-54.142-56.943c-8.717-9.11-22.824-9.95-32.539-2.308-1.445-7.832.997-16.191 7.149-22.04 9.703-9.223 25.032-8.864 34.298.806z" fill="#ea9b58"/></g><g><path d="m150.559 335.69h165.351l-.001.761c-.012 11.96-9.71 21.648-21.67 21.648h-143.68c-9.928 0-17.412 4.079-21.379 10.185-2.017-3.238-3.182-7.059-3.182-11.138v-.359c0-11.651 9.446-21.097 24.561-21.097z" fill="#ea9b58"/></g><g><path d="m127.904 378.235h177.697c0 11.968-9.702 21.67-21.67 21.67h-156.555c-7.687 0-14.409 4.112-18.085 10.253-2.039-3.395-3.154-7.406-2.986-11.677.447-11.402 10.188-20.246 21.599-20.246z" fill="#ea9b58"/></g><g><path d="m162.9 420.41h142.701v.74c0 11.968-9.702 21.67-21.67 21.67h-121.54c-7.53 0-14.129 3.944-17.861 9.883-2.133-3.37-3.321-7.394-3.221-11.707.267-11.535 10.054-20.586 21.591-20.586z" fill="#ea9b58"/></g><g><path d="m213.183 462.585h92.418v.74c0 11.968-9.702 21.67-21.67 21.67h-70.748c-5.827 0-11.104 2.364-14.914 6.174-1.12 1.12-2.107 2.364-2.947 3.709-2.051-3.238-3.227-7.082-3.227-11.205 0-5.815 2.364-11.093 6.174-14.914 3.81-3.81 9.088-6.174 14.914-6.174z" fill="#ea9b58"/></g></g><g><path d="m266.836 164.92c-5.455-5.2-10.805-10.467-13.622-17.577-1.333-3.365-4.533-5.539-8.154-5.539-3.619.001-6.819 2.176-8.151 5.541-2.685 6.783-8.426 12.621-13.622 17.575-4.2 4.005-8.068 7.76-11.053 12.742-3.371 5.627-5.029 12.101-5.029 18.752 0 20.875 16.982 37.857 37.857 37.857s37.857-16.983 37.857-37.857c0-13.204-6.937-22.774-16.083-31.494zm-21.774 54.382c-12.621 0-22.888-10.268-22.888-22.889 0-9.205 5.201-14.708 11.443-20.66 2.794-2.665 5.683-5.419 8.255-8.681 1.07-1.356 2.148-2.748 3.191-4.183 1.042 1.436 2.121 2.827 3.191 4.183 5.503 6.981 14.529 12.231 17.987 20.637 1.119 2.719 1.71 5.729 1.71 8.703 0 12.622-10.268 22.89-22.889 22.89z"/><path d="m324.882 165.229c15.025 0 27.248-12.223 27.248-27.248 0-3.584-.687-7.071-2.043-10.365-2.179-5.295-5.927-8.868-9.233-12.02-3.158-3.011-6.601-6.374-8.237-10.506-1.264-3.194-4.301-5.258-7.736-5.258s-6.471 2.064-7.735 5.257c-1.538 3.885-5.247 7.656-8.237 10.507-6.307 6.013-11.276 13.388-11.276 22.386.001 15.024 12.224 27.247 27.249 27.247zm-5.643-38.8c1.884-1.796 3.832-3.654 5.621-5.922.007-.01.015-.02.023-.029.008.01.016.02.023.029 1.788 2.268 3.736 4.125 5.621 5.922 3.438 3.278 6.635 6.484 6.635 11.551 0 6.771-5.508 12.28-12.279 12.28s-12.28-5.509-12.28-12.28c-.001-5.092 3.131-8.209 6.636-11.551z"/><path d="m210.856 111.555c0 10.823 8.806 19.629 19.629 19.629h37.14c10.823 0 19.629-8.805 19.629-19.629v-40.134c0-23.552-19.161-42.713-42.713-42.713h-119.299c-4.133 0-7.484 3.351-7.484 7.484 0 4.134 3.351 7.484 7.484 7.484h119.299c15.298 0 27.744 12.446 27.744 27.744v40.134c0 2.57-2.091 4.66-4.661 4.66h-37.14c-2.57 0-4.661-2.09-4.661-4.66v-13.932c0-4.134-3.351-7.484-7.484-7.484h-166.46v-46.461h38.86c4.133 0 7.484-3.351 7.484-7.484s-3.351-7.484-7.484-7.484h-38.86v-3.56c0-13.868-11.282-25.149-25.149-25.149h-18.408c-4.134 0-7.485 3.351-7.485 7.484v122.694c0 4.133 3.351 7.484 7.484 7.484h18.409c13.867 0 25.149-11.281 25.149-25.149v-7.407h158.977zm-173.946.959c0 5.613-4.567 10.18-10.18 10.18h-10.924v-107.725h10.924c5.613 0 10.18 4.567 10.18 10.18z"/><path d="m503.929 258.06h-35.354c-9.471 0-18.66-3.923-25.193-10.745l-54.165-56.964c-12.081-12.616-32.205-13.086-44.862-1.05-11.946 11.36-13.164 30.227-2.805 43.028l8.437 11.282h-150.404c-18.567 0-32.044 12.017-32.044 28.573v.36c0 5.111 1.349 9.913 3.709 14.069-10.882 1.98-19.81 10.131-22.567 21.167-1.002 4.01 1.436 8.073 5.447 9.076 4.014 1.002 8.074-1.437 9.076-5.447 1.514-6.059 6.942-10.291 13.2-10.291h109.369c.734 5.638 2.967 11.129 6.753 15.809l8.437 11.282h-150.405c-18.567 0-32.044 12.017-32.044 28.573v.36c0 5.112 1.349 9.914 3.71 14.071-13.305 2.433-23.42 14.111-23.42 28.107 0 15.755 12.818 28.573 28.573 28.573h9.892c-2.2 4.047-3.452 8.684-3.452 13.605 0 15.756 12.818 28.573 28.573 28.573h25.665c-2.201 4.047-3.452 8.683-3.452 13.605 0 15.756 12.818 28.573 28.573 28.573h137.048c10.568 0 20.679-3.275 29.24-9.471l22.988-16.636c5.992-4.336 13.068-6.628 20.465-6.628h31.984c4.133 0 7.484-3.351 7.484-7.484v-23.43c0-4.133-3.351-7.484-7.484-7.484s-7.484 3.351-7.484 7.484v15.948h-24.5c-10.568 0-20.679 3.275-29.24 9.471l-22.988 16.636c-5.992 4.336-13.068 6.628-20.465 6.628h-137.045c-7.502 0-13.605-6.103-13.605-13.605s6.103-13.605 13.605-13.605h84.153c4.133 0 7.484-3.351 7.484-7.484 0-4.134-3.351-7.484-7.484-7.484h-134.94c-7.502 0-13.605-6.104-13.605-13.605s6.103-13.605 13.605-13.605h.01 134.93c4.133 0 7.484-3.351 7.484-7.484s-3.351-7.484-7.484-7.484h-169.954c-7.502 0-13.605-6.103-13.605-13.605s6.103-13.605 13.605-13.605h169.954c4.133 0 7.484-3.351 7.484-7.484 0-4.134-3.351-7.484-7.484-7.484h-150.244c-7.502 0-13.605-6.103-13.605-13.605v-.36c0-8.137 6.862-13.605 17.075-13.605h165.348c2.833 0 5.423-1.6 6.692-4.133 1.268-2.533.998-5.565-.698-7.834l-17.679-23.629c-5.544-6.774-4.917-16.805 1.426-22.838 6.697-6.368 17.345-6.118 23.717.536l54.165 56.964c9.36 9.774 22.489 15.38 36.023 15.38h27.87v56.193c0 4.134 3.351 7.484 7.484 7.484s7.484-3.351 7.484-7.484v-63.678c0-4.133-3.351-7.484-7.484-7.484h-35.354c-9.471 0-18.661-3.924-25.193-10.745l-54.165-56.964c-12.081-12.616-32.205-13.087-44.862-1.05-3.683 3.502-6.342 7.719-7.961 12.251h-91.258c-7.502 0-13.605-6.103-13.605-13.605v-.36c0-8.137 6.862-13.605 17.075-13.605h158.278c1.268 8.72 5.316 16.342 11.956 22.327 6.911 6.229 16.157 9.703 25.438 9.703 1.54 0 3.083-.096 4.614-.291 4.1-.521 7.001-4.268 6.48-8.369-.521-4.1-4.264-7.006-8.369-6.48-6.495.825-13.278-1.298-18.143-5.683-5.29-4.768-7.72-10.789-7.429-18.406.067-1.759-.404-3.259-1.439-4.697-.017-.023-17.656-23.616-17.725-23.7-5.544-6.774-4.917-16.805 1.426-22.837 6.697-6.368 17.345-6.119 23.717.536l54.165 56.964c9.36 9.774 22.489 15.38 36.022 15.38h27.87v106.921h-17.703c-4.133 0-7.484 3.351-7.484 7.484 0 4.134 3.351 7.484 7.484 7.484h25.187c4.133 0 7.484-3.351 7.484-7.484v-121.886c.002-4.133-3.349-7.484-7.483-7.484z"/></g></g></svg>