<svg id="Capa_1" enable-background="new 0 0 512 512" height="512" viewBox="0 0 512 512" width="512" xmlns="http://www.w3.org/2000/svg"><g><g><g><path d="m7.494 256c0 137.244 111.262 248.506 248.506 248.506s248.505-111.262 248.505-248.506-111.261-248.506-248.505-248.506-248.506 111.262-248.506 248.506zm410.672 121.197c-2.449 3.273-7.211 3.649-10.101.759l-274.022-274.021c-2.89-2.89-2.513-7.653.759-10.101 33.793-25.285 75.746-40.268 121.194-40.269 111.68-.002 202.439 90.756 202.438 202.436 0 45.449-14.983 87.403-40.268 121.196zm-364.601-121.199c0-45.449 14.984-87.402 40.269-121.196 2.449-3.273 7.211-3.649 10.101-.759l274.021 274.021c2.89 2.89 2.513 7.653-.759 10.101-33.793 25.285-75.747 40.268-121.195 40.268-111.679.003-202.438-90.755-202.437-202.435z" fill="#fd8087"/></g><g><path d="m330.54 18.872c90.364 37.2 153.986 126.126 153.986 229.905 0 137.244-111.262 248.506-248.506 248.506-25.912 0-50.886-3.966-74.371-11.318 29.089 11.947 60.955 18.54 94.35 18.54 137.244 0 248.506-111.262 248.506-248.506 0-111.271-73.142-205.47-173.965-237.127z" fill="#fe646f"/></g></g><g><g><path d="m278.514 132.467h-45.028c-5.13 0-9.289-4.159-9.289-9.289v-21.302c0-5.13 4.159-9.289 9.289-9.289h45.028c5.13 0 9.289 4.159 9.289 9.289v21.302c0 5.13-4.159 9.289-9.289 9.289z" fill="#b5adb6"/></g><g><path d="m287.806 101.874v21.307c0 5.124-4.166 9.29-9.29 9.29h-19.599c5.135 0 9.29-4.166 9.29-9.29v-21.307c0-5.125-4.156-9.29-9.29-9.29h19.599c5.124 0 9.29 4.165 9.29 9.29z" fill="#a79ba7"/></g><g><path d="m278.197 198.381v-65.914h-44.394v65.914c0 14.371-5.328 28.232-14.953 38.904l-17.053 18.906c-9.626 10.671-14.953 24.532-14.953 38.904v105.139c0 10.594 8.588 19.181 19.181 19.181h99.95c10.594 0 19.181-8.588 19.181-19.181v-105.14c0-14.371-5.328-28.232-14.953-38.904l-17.053-18.906c-9.625-10.671-14.953-24.532-14.953-38.903z" fill="#7a6d79"/></g><g><path d="m325.156 295.099v105.138c0 10.589-8.591 19.18-19.18 19.18h-20.199c10.589 0 19.18-8.591 19.18-19.18v-105.138c0-14.375-5.324-18.977-14.954-29.646l-17.052-18.91c-9.63-10.669-14.954-33.787-14.954-48.162v-65.91h20.199v65.91c0 14.375 5.324 28.23 14.954 38.899l17.052 18.91c9.63 10.669 14.954 24.534 14.954 38.909z" fill="#685e68"/></g><g><path d="m233.803 162.682h44.394v33.066h-44.394z" fill="#ade194"/></g><g><path d="m257.998 162.682h20.199v33.066h-20.199z" fill="#97da7b"/></g><g><path d="m186.843 306.654h138.313v62.362h-138.313z" fill="#f9f3f1"/></g><g><path d="m305.177 306.654h19.979v62.362h-19.979z" fill="#efe2dd"/></g><g><circle cx="256" cy="337.835" fill="#ade194" r="42.577"/></g><g><path d="m298.574 337.833c0 23.515-19.06 42.575-42.575 42.575-10.649 0-20.378-3.906-27.84-10.359 1.848.24 3.726.37 5.644.37 23.515 0 42.575-19.06 42.575-42.575 0-12.866-5.704-24.404-14.734-32.216 20.848 2.757 36.93 20.608 36.93 42.205z" fill="#97da7b"/></g><g><path d="m437.019 74.981c-48.352-48.352-112.639-74.981-181.019-74.981s-132.667 26.629-181.019 74.981c-48.353 48.352-74.981 112.639-74.981 181.019s26.628 132.667 74.981 181.019c48.352 48.352 112.639 74.981 181.019 74.981 36.319 0 71.416-7.453 104.316-22.15 31.779-14.197 59.926-34.404 83.657-60.06 2.81-3.037 2.625-7.777-.413-10.587s-7.778-2.625-10.587.413c-22.348 24.16-48.85 43.188-78.769 56.554-30.964 13.833-64.005 20.846-98.204 20.846-64.378 0-124.902-25.07-170.424-70.592s-70.592-106.046-70.592-170.424 25.07-124.902 70.592-170.424 106.046-70.592 170.424-70.592 124.902 25.07 170.424 70.592 70.592 106.046 70.592 170.424c0 49.418-14.845 96.909-42.931 137.339-2.361 3.398-1.52 8.067 1.878 10.427 3.399 2.36 8.068 1.52 10.427-1.879 29.839-42.951 45.61-93.399 45.61-145.887 0-68.38-26.629-132.667-74.981-181.019z"/><path d="m412.771 387.399c.337 0 .674-.012 1.013-.036 4.119-.295 7.903-2.364 10.381-5.677 27.321-36.514 41.761-79.975 41.762-125.684 0-56.015-21.853-108.716-61.534-148.396s-92.382-61.533-148.396-61.532c-45.709.001-89.169 14.442-125.682 41.762-3.313 2.479-5.383 6.262-5.678 10.38-.294 4.097 1.204 8.112 4.109 11.017l69.036 69.037c2.926 2.926 7.67 2.926 10.595 0 2.926-2.926 2.926-7.67 0-10.595l-68.373-68.373c33.754-25.021 73.843-38.243 115.992-38.244 52.013-.001 100.951 20.293 137.801 57.143s57.145 85.789 57.145 137.801c-.001 42.15-13.223 82.24-38.245 115.994l-49.284-49.284c-2.927-2.926-7.67-2.926-10.596 0s-2.926 7.67 0 10.595l49.948 49.948c2.666 2.664 6.265 4.144 10.006 4.144z"/><path d="m109.232 128.746c-2.905-2.905-6.924-4.406-11.017-4.109-4.118.295-7.902 2.364-10.381 5.677-27.32 36.514-41.761 79.975-41.762 125.684 0 56.015 21.852 108.716 61.533 148.396 39.68 39.68 92.382 61.533 148.396 61.532 45.71 0 89.17-14.442 125.683-41.762 3.313-2.479 5.383-6.262 5.678-10.38.294-4.097-1.205-8.113-4.109-11.017l-22.672-22.673c-2.926-2.926-7.669-2.926-10.596 0-2.926 2.926-2.926 7.67 0 10.595l22.009 22.009c-33.754 25.022-73.842 38.243-115.992 38.244-52.012 0-100.951-20.293-137.801-57.143s-57.144-85.789-57.144-137.801c0-42.15 13.222-82.24 38.244-115.994l82.029 82.03c2.926 2.926 7.67 2.926 10.595 0 2.926-2.926 2.926-7.67 0-10.595z"/><path d="m198.774 274.37c1.695-3.775.009-8.209-3.766-9.904-3.775-1.696-8.209-.009-9.904 3.766-3.818 8.504-5.754 17.541-5.754 26.862v105.139c0 14.708 11.966 26.673 26.673 26.673h99.95c14.708 0 26.674-11.966 26.674-26.673v-105.139c0-16.253-5.996-31.851-16.882-43.922l-17.053-18.906c-8.399-9.311-13.024-21.345-13.024-33.885v-60.056c5.668-2.697 9.606-8.463 9.606-15.147v-21.302c0-9.253-7.528-16.781-16.781-16.781h-45.028c-9.253 0-16.781 7.528-16.781 16.781v21.302c0 6.684 3.937 12.45 9.606 15.147v60.057c0 12.54-4.625 24.574-13.025 33.885l-6.235 6.913c-2.771 3.073-2.527 7.81.545 10.582 3.073 2.771 7.81 2.528 10.582-.545l6.235-6.912c9.796-10.861 15.615-24.581 16.686-39.063h29.802c1.071 14.482 6.89 28.202 16.686 39.063l17.053 18.906c8.399 9.313 13.025 21.346 13.025 33.885v4.068h-29.9c-8.649-7.117-19.716-11.396-31.765-11.396s-23.116 4.279-31.765 11.396h-29.9v-4.068c.001-7.193 1.495-14.166 4.44-20.726zm71.931-86.114h-29.41v-18.082h29.41zm0-33.066h-29.41v-15.231h29.41zm9.606-32.013c0 .991-.806 1.797-1.797 1.797h-45.028c-.991 0-1.797-.806-1.797-1.797v-21.302c0-.991.806-1.797 1.797-1.797h45.028c.991 0 1.797.806 1.797 1.797zm37.354 277.056c0 6.445-5.244 11.689-11.69 11.689h-99.95c-6.445 0-11.689-5.244-11.689-11.689v-23.725h29.9c8.649 7.117 19.716 11.396 31.765 11.396s23.116-4.279 31.765-11.396h29.9v23.725zm-17.568-86.087h17.567v47.378h-17.567c3.806-7.057 5.971-15.124 5.971-23.689.001-8.564-2.164-16.632-5.971-23.689zm-44.097-11.396c19.346 0 35.085 15.739 35.085 35.085s-15.739 35.085-35.085 35.085-35.085-15.739-35.085-35.085c-.001-19.346 15.739-35.085 35.085-35.085zm-44.098 11.396c-3.806 7.057-5.971 15.125-5.971 23.689 0 8.565 2.165 16.632 5.971 23.689h-17.566v-47.378z"/></g></g></g></svg>