<svg id="Capa_1" enable-background="new 0 0 512 512" height="512" viewBox="0 0 512 512" width="512" xmlns="http://www.w3.org/2000/svg"><g><g><path d="m239.343 179.057c13.004 0 25.381 2.68 36.615 7.511l-26.681-58.466-6.349 6.349c-1.98 1.98-5.19 1.98-7.17 0l-6.349-6.349-26.681 58.466c11.233-4.83 23.61-7.511 36.615-7.511z" fill="#fed402"/><path d="m226.7 179.918 23.112-50.644-.535-1.171-6.349 6.349c-1.98 1.98-5.19 1.98-7.17 0l-6.349-6.349-26.681 58.466c7.528-3.238 15.571-5.506 23.972-6.651z" fill="#fac600"/><path d="m323.431 232.603c-14.78-31.628-46.872-53.545-84.088-53.545s-69.308 21.917-84.088 53.545z" fill="#d8aa5e"/><path d="m197.628 231.603c12.055-25.005 34.979-43.785 62.657-50.172-6.73-1.553-13.74-2.374-20.942-2.374-36.824 0-68.637 21.454-83.621 52.545h41.906z" fill="#c99c56"/><path d="m221.546 364.016-8.007 47.849c7.473-4.044 16.024-6.349 25.12-6.349 9.267 0 17.97 2.391 25.542 6.579l-7.939-48.215c-5.76.759-11.635 1.157-17.603 1.157-5.93-.001-11.628-.359-17.113-1.021z" fill="#d8aa5e"/><path d="m221.546 364.016-8.007 47.849c6.563-3.552 13.96-5.753 21.825-6.237l6.8-40.637c-1.165.03-2.334.046-3.506.046-5.929-.001-11.627-.359-17.112-1.021z" fill="#c99c56"/><path d="m288.856 441.734c-6.987-21.038-26.813-36.218-50.198-36.218s-43.21 15.18-50.198 36.218z" fill="#fed402"/><path d="m219.689 441.734c5.362-16.147 18.292-28.842 34.588-33.872-4.937-1.524-10.182-2.347-15.619-2.347-23.384 0-43.21 15.18-50.198 36.218h31.229z" fill="#fac600"/><g><path d="m324.662 473.25h-172.007c0-17.406 14.11-31.516 31.516-31.516h108.976c17.405 0 31.515 14.11 31.515 31.516z" fill="#d8aa5e"/></g><g><path d="m236.508 441.734h-52.338c-17.406 0-31.516 14.11-31.516 31.516h52.338c0-17.406 14.11-31.516 31.516-31.516z" fill="#c99c56"/></g><path d="m124.464 231.603c-5.807 0-11.437-1.993-15.951-5.647l-53.503-43.312c-2.708-2.192-6.086-3.388-9.57-3.388h-32.93c-4.441 0-6.677 5.358-3.553 8.515l88.058 88.995c1.025 1.105 2.077 2.279 3.154 3.503 2.826-2.569 6.567-4.147 10.687-4.147 8.788 0 15.911 7.124 15.911 15.912 0 5.016-2.326 9.484-5.953 12.4 24.766 27.957 60.758 60.604 117.846 60.604 46.466 0 87.377-23.756 111.271-59.779-4.26-2.855-7.066-7.711-7.066-13.225 0-8.788 7.124-15.912 15.911-15.912 1.886 0 3.688.345 5.367.948 5.143-14.191 7.951-29.5 7.951-45.466h-247.63z" fill="#e8b800"/><path d="m40.456 187.77c-3.124-3.157-.887-8.515 3.553-8.515h-31.5c-4.441 0-6.677 5.358-3.553 8.515l88.058 88.994c1.025 1.105 2.077 2.279 3.154 3.503 2.826-2.568 6.567-4.147 10.687-4.147 8.788 0 15.911 7.124 15.911 15.912 0 5.016-2.327 9.484-5.953 12.4 24.766 27.957 60.758 60.604 117.846 60.604 5.235 0 10.397-.312 15.475-.898-67.996-7.665-213.678-176.368-213.678-176.368z" fill="#d7aa02"/><g><path d="m214.224 105.748 21.534-21.534c1.98-1.98 5.19-1.98 7.17 0l21.534 21.534c1.98 1.98 1.98 5.19 0 7.17l-21.534 21.534c-1.98 1.98-5.19 1.98-7.17 0l-21.534-21.534c-1.98-1.98-1.98-5.19 0-7.17z" fill="#d8aa5e"/></g><g><path d="m237.485 112.918c-1.98-1.98-1.98-5.19 0-7.17l13.488-13.488-8.046-8.046c-1.98-1.98-5.19-1.98-7.17 0l-21.534 21.534c-1.98 1.98-1.98 5.19 0 7.17l21.534 21.534c1.98 1.98 5.19 1.98 7.17 0l8.046-8.046z" fill="#c99c56"/></g><g><path d="m63.686 41.85c-4.472 10.941-10.03 16.499-20.971 20.971-4.133 1.689-4.133 7.555 0 9.244 10.941 4.472 16.499 10.03 20.971 20.971 1.689 4.133 7.555 4.133 9.244 0 4.472-10.941 10.03-16.499 20.971-20.971 4.133-1.689 4.133-7.555 0-9.244-10.941-4.472-16.499-10.03-20.971-20.971-1.69-4.133-7.555-4.133-9.244 0z" fill="#fe860a"/></g><g><path d="m28.539 106.505c-3.874 10.523-8.533 15.181-19.056 19.056-2.645.974-2.645 4.676 0 5.65 10.523 3.874 15.181 8.533 19.056 19.056.974 2.645 4.676 2.645 5.65 0 3.874-10.523 8.533-15.182 19.056-19.056 2.645-.974 2.645-4.676 0-5.65-10.523-3.874-15.181-8.533-19.056-19.056-.973-2.645-4.676-2.645-5.65 0z" fill="#fe860a"/></g><g><g><ellipse cx="110.854" cy="292.032" fill="#fed402" rx="15.912" ry="15.912" transform="matrix(.924 -.383 .383 .924 -103.318 64.652)"/></g><g><ellipse cx="193.494" cy="292.032" fill="#fed402" rx="15.912" ry="15.912" transform="matrix(.924 -.383 .383 .924 -97.027 96.277)"/></g><g><ellipse cx="276.134" cy="292.032" fill="#fed402" rx="15.912" ry="15.912" transform="matrix(.924 -.383 .383 .924 -90.736 127.902)"/></g><g><ellipse cx="358.774" cy="292.032" fill="#fed402" rx="15.912" ry="15.912" transform="matrix(.924 -.383 .383 .924 -84.446 159.527)"/></g></g></g><g><path d="m39.877 79.007c9.063 3.705 13.161 7.803 16.866 16.867 1.928 4.714 6.467 7.761 11.564 7.761s9.637-3.046 11.564-7.761c3.705-9.063 7.804-13.162 16.866-16.867 4.716-1.928 7.762-6.467 7.762-11.565s-3.047-9.637-7.762-11.563c-9.063-3.705-13.161-7.803-16.866-16.867-1.928-4.715-6.467-7.762-11.564-7.762s-9.637 3.046-11.564 7.762c-3.705 9.063-7.804 13.162-16.865 16.866-4.716 1.927-7.763 6.466-7.763 11.564s3.046 9.637 7.762 11.565zm28.431-29.259c4.186 8.105 9.59 13.509 17.694 17.695-8.105 4.186-13.509 9.589-17.694 17.695-4.186-8.106-9.589-13.509-17.694-17.695 8.105-4.186 13.508-9.589 17.694-17.695z"/><path d="m6.893 138.249c8.481 3.123 11.485 6.127 14.608 14.609 1.541 4.187 5.413 6.892 9.863 6.892s8.322-2.706 9.863-6.892c3.123-8.482 6.127-11.486 14.608-14.609 4.187-1.542 6.893-5.412 6.893-9.862s-2.704-8.322-6.893-9.864c-8.481-3.123-11.485-6.126-14.608-14.609-1.541-4.187-5.413-6.892-9.863-6.892s-8.322 2.706-9.863 6.892c-3.123 8.482-6.127 11.486-14.61 14.609-4.187 1.542-6.891 5.414-6.891 9.864 0 4.449 2.706 8.32 6.893 9.862zm24.471-20.257c2.701 4.369 6.024 7.692 10.394 10.394-4.369 2.701-7.692 6.024-10.394 10.394-2.701-4.369-6.024-7.692-10.394-10.394 4.37-2.701 7.693-6.025 10.394-10.394z"/><path d="m193.494 268.621c-12.909 0-23.412 10.502-23.412 23.412s10.503 23.412 23.412 23.412 23.411-10.502 23.411-23.412-10.502-23.412-23.411-23.412zm0 31.823c-4.639 0-8.412-3.773-8.412-8.412s3.773-8.412 8.412-8.412c4.638 0 8.411 3.773 8.411 8.412s-3.773 8.412-8.411 8.412z"/><path d="m276.134 268.621c-12.909 0-23.411 10.502-23.411 23.412s10.502 23.412 23.411 23.412 23.412-10.502 23.412-23.412-10.503-23.412-23.412-23.412zm0 31.823c-4.638 0-8.411-3.773-8.411-8.412s3.773-8.412 8.411-8.412c4.639 0 8.412 3.773 8.412 8.412s-3.774 8.412-8.412 8.412z"/><circle cx="319.814" cy="266.5" r="7.5"/><circle cx="234.814" cy="266.5" r="7.5"/><circle cx="149.814" cy="266.5" r="7.5"/><path d="m432.399 123.596c-38.022 3.057-67.807 35.754-67.807 74.438v26.069h-37.105c-10.245-18.846-26.349-34.059-45.858-43.173l-23.367-51.205 11.504-11.504c4.899-4.901 4.899-12.875 0-17.776l-21.534-21.534c-2.374-2.375-5.53-3.682-8.889-3.682s-6.515 1.308-8.889 3.682l-21.534 21.534c-2.374 2.374-3.682 5.531-3.682 8.888 0 3.358 1.308 6.515 3.682 8.888l11.504 11.504-23.367 51.205c-19.509 9.114-35.613 24.327-45.858 43.173h-26.734c-4.075 0-8.064-1.412-11.232-3.976l-53.503-43.313c-4.03-3.262-9.104-5.059-14.289-5.059h-32.932c-5.059 0-9.587 3.017-11.534 7.686-1.948 4.669-.908 10.009 2.65 13.605l86.744 87.667c-1.862 3.357-2.927 7.216-2.927 11.319 0 12.909 10.502 23.412 23.411 23.412 2.952 0 5.775-.554 8.378-1.556 9.607 10.499 20.786 21.368 34.19 30.945 18.703 13.364 38.335 21.777 59.466 25.486l-6.171 36.873c-10.27 6.433-18.473 15.865-23.381 27.064-18.576.393-33.995 13.823-37.451 31.494h-16.027c-4.143 0-7.5 3.358-7.5 7.5s3.357 7.5 7.5 7.5h22.796 57.347 6c4.143 0 7.5-3.358 7.5-7.5s-3.357-7.5-7.5-7.5h-6-48.646c3.157-9.581 12.192-16.516 22.817-16.516h108.976c10.624 0 19.659 6.935 22.816 16.516h-17.963-47c-4.143 0-7.5 3.358-7.5 7.5s3.357 7.5 7.5 7.5h47 26.662 22.797c4.143 0 7.5-3.358 7.5-7.5s-3.357-7.5-7.5-7.5h-16.028c-3.456-17.672-18.875-31.102-37.451-31.495-4.838-11.039-12.875-20.365-22.941-26.791l-6.157-37.387c35.814-6.769 66.879-27.125 87.615-55.495 1.999.557 4.102.862 6.277.862 12.909 0 23.411-10.502 23.411-23.412 0-7.477-3.527-14.141-9-18.43 3.924-12.533 6.145-25.809 6.38-39.564l.028-36.004c0-30.921 23.724-57.051 54.008-59.485 4.129-.332 7.207-3.948 6.875-8.077-.331-4.129-3.942-7.202-8.077-6.876zm-193.056-32.361 18.098 18.098-18.098 18.098-18.098-18.098zm-7.536 49.677c2.164 1.63 4.778 2.525 7.536 2.525s5.372-.895 7.536-2.525l15.171 33.245c-7.299-1.697-14.899-2.599-22.707-2.599s-15.408.903-22.707 2.599zm-120.953 159.532c-4.638 0-8.411-3.773-8.411-8.412s3.773-8.412 8.411-8.412c4.639 0 8.412 3.773 8.412 8.412s-3.774 8.412-8.412 8.412zm166.203 133.79h-76.797c8.047-12.739 22.249-21.219 38.398-21.219s30.351 8.481 38.399 21.219zm-53.936-34.182 4.669-27.902c3.579.251 7.198.387 10.868.387 3.822 0 7.604-.171 11.35-.471l4.629 28.109c-5.092-1.4-10.447-2.159-15.978-2.159-5.373 0-10.579.713-15.538 2.036zm116.977-93.921c-22.947 31.151-59.869 51.406-101.44 51.406-50.731 0-84.168-27.535-107.865-53.253 2.2-3.567 3.472-7.763 3.472-12.252 0-12.909-10.503-23.412-23.412-23.412-3.34 0-6.516.708-9.394 1.974l-82.957-83.839h26.937c1.76 0 3.483.61 4.852 1.717l53.503 43.313c5.829 4.719 13.17 7.317 20.67 7.317h126.536c4.143 0 7.5-3.358 7.5-7.5s-3.357-7.5-7.5-7.5h-82.263c15.345-22.634 41.259-37.545 70.606-37.545s55.261 14.911 70.606 37.545h-23.949c-4.143 0-7.5 3.358-7.5 7.5s3.357 7.5 7.5 7.5h78.372c-.603 10.217-2.45 20.101-5.357 29.524-.08-.001-.16-.006-.24-.006-12.909 0-23.412 10.502-23.412 23.412-.001 5.29 1.765 10.174 4.735 14.099zm18.676-5.687c-4.639 0-8.412-3.773-8.412-8.412s3.773-8.412 8.412-8.412c4.638 0 8.411 3.773 8.411 8.412s-3.773 8.412-8.411 8.412z"/><path d="m471.371 131.187c-3.704-1.863-8.21-.372-10.071 3.329-1.861 3.7-.371 8.209 3.329 10.07 19.968 10.046 32.371 30.147 32.371 52.46 0 25.656-17.131 48.764-41.658 56.193-3.965 1.201-6.205 5.388-5.004 9.352.981 3.239 3.956 5.328 7.175 5.328.72 0 1.452-.104 2.177-.324 14.821-4.489 28.141-13.806 37.505-26.233 9.685-12.856 14.805-28.179 14.805-44.316 0-28.015-15.568-53.251-40.629-65.859z"/></g></g></svg>