<svg id="Capa_1" enable-background="new 0 0 512 512" height="512" viewBox="0 0 512 512" width="512" xmlns="http://www.w3.org/2000/svg"><g><g><g><path d="m126.325 504.499c-15.585 0-28.219-12.634-28.219-28.219v-16.31h56.438v16.31c0 15.585-12.634 28.219-28.219 28.219z" fill="#7a6d79"/></g><g><path d="m385.675 504.499c-15.585 0-28.219-12.634-28.219-28.219v-16.31h56.438v16.31c0 15.585-12.634 28.219-28.219 28.219z" fill="#7a6d79"/></g></g><g><g><path d="m154.543 459.971v16.313c0 15.583-12.632 28.215-28.215 28.215-3.421 0-6.701-.61-9.732-1.72 10.792-3.971 18.483-14.332 18.483-26.494v-16.313h19.464z" fill="#685e68"/></g><g><path d="m413.896 459.971v16.313c0 15.583-12.632 28.215-28.225 28.215-3.421 0-6.701-.61-9.732-1.72 10.792-3.971 18.493-14.332 18.493-26.494v-16.313h19.464z" fill="#685e68"/></g></g><g><path d="m340.228 42.482h-168.455v-22.559c0-6.86 5.561-12.422 12.422-12.422h143.611c6.86 0 12.422 5.561 12.422 12.422z" fill="#fee97d"/></g><g><path d="m340.224 19.928v22.554h-20.003v-22.554c0-6.861-5.561-12.422-12.422-12.422h20.003c6.861 0 12.422 5.561 12.422 12.422z" fill="#fedf30"/></g><g><path d="m435.144 459.97h-358.288c-12.708 0-23.01-10.302-23.01-23.01v-262.584h404.309v262.583c-.001 12.709-10.303 23.011-23.011 23.011z" fill="#eaa998"/></g><g><path d="m458.154 137.952h-404.308v-41.342c0-29.894 24.234-54.128 54.128-54.128h296.053c29.894 0 54.128 24.234 54.128 54.128v41.342z" fill="#eaa998"/></g><g><path d="m458.154 174.374v262.584c0 12.712-10.302 23.014-23.014 23.014h-20.003c12.712 0 23.014-10.302 23.014-23.014v-262.584z" fill="#e49280"/></g><g><path d="m458.154 96.611v41.337h-20.004v-41.337c0-29.895-24.234-54.129-54.129-54.129h20.003c29.896 0 54.13 24.234 54.13 54.129z" fill="#e49280"/></g><g><g><path d="m472.51 174.376h-433.02c-2.729 0-4.941-2.212-4.941-4.941v-26.54c0-2.729 2.212-4.941 4.941-4.941h433.02c2.729 0 4.941 2.212 4.941 4.941v26.54c0 2.729-2.212 4.941-4.941 4.941z" fill="#fee97d"/></g><g><path d="m477.447 142.891v26.542c0 2.73-2.21 4.941-4.941 4.941h-19.293c2.73 0 4.941-2.21 4.941-4.941v-26.542c0-2.72-2.21-4.941-4.941-4.941h19.293c2.73 0 4.941 2.22 4.941 4.941z" fill="#fedf30"/></g></g><g><path d="m292.993 185.52h-73.986c-2.844 0-5.15-2.306-5.15-5.15v-58.544c0-2.844 2.306-5.15 5.15-5.15h73.986c2.844 0 5.15 2.306 5.15 5.15v58.544c0 2.845-2.306 5.15-5.15 5.15z" fill="#f9f3f1"/></g><g><path d="m298.147 121.825v58.55c0 2.84-2.31 5.141-5.151 5.141h-20.003c2.841 0 5.151-2.3 5.151-5.141v-58.55c0-2.84-2.31-5.151-5.151-5.151h20.003c2.841 0 5.151 2.31 5.151 5.151z" fill="#f3eae6"/></g><g><path d="m412.369 420.393h-312.738c-3.232 0-5.851-2.62-5.851-5.851v-185.769c0-3.232 2.62-5.851 5.851-5.851h312.739c3.232 0 5.851 2.62 5.851 5.851v185.768c0 3.232-2.62 5.852-5.852 5.852z" fill="#f9f3f1"/></g><g><path d="m418.217 228.773v185.771c0 3.231-2.62 5.851-5.851 5.851h-20.003c3.231 0 5.851-2.62 5.851-5.851v-185.771c0-3.231-2.62-5.851-5.851-5.851h20.003c3.23 0 5.851 2.62 5.851 5.851z" fill="#f3eae6"/></g><g><g><path d="m202.495 321.657-49.673 49.673c-2.289 2.289-5.999 2.289-8.288 0l-49.673-49.673 49.673-49.673c2.289-2.289 5.999-2.289 8.288 0z" fill="#ade194"/></g><g><path d="m310.012 321.657-49.673 49.673c-2.289 2.289-5.999 2.289-8.288 0l-49.673-49.673 49.673-49.673c2.289-2.289 5.999-2.289 8.288 0z" fill="#ade194"/></g><g><path d="m417.139 321.657-49.673 49.673c-2.289 2.289-5.999 2.289-8.288 0l-49.673-49.673 49.673-49.673c2.289-2.289 5.999-2.289 8.288 0z" fill="#ade194"/></g></g><g><path d="m202.491 321.658-49.668 49.668c-2.29 2.29-6.002 2.29-8.291 0l-8.241-8.241 37.002-37.002c2.444-2.444 2.444-6.407.001-8.851l-37.002-37.011 8.241-8.241c2.29-2.28 6.001-2.28 8.291 0z" fill="#97da7b"/></g><g><path d="m310.009 321.658-49.668 49.668c-2.29 2.29-6.002 2.29-8.291 0l-8.241-8.241 37.002-37.002c2.444-2.444 2.444-6.407.001-8.851l-37.002-37.011 8.241-8.241c2.29-2.28 6.001-2.28 8.291 0z" fill="#97da7b"/></g><g><path d="m417.137 321.658-49.668 49.668c-2.29 2.29-6.002 2.29-8.291 0l-8.241-8.241 37.002-37.002c2.444-2.444 2.444-6.407.001-8.851l-37.002-37.011 8.241-8.241c2.29-2.28 6.001-2.28 8.291 0z" fill="#97da7b"/></g><g><path d="m256 161.44c4.143 0 7.501-3.358 7.501-7.501v-5.682c0-4.143-3.358-7.501-7.501-7.501s-7.501 3.358-7.501 7.501v5.682c0 4.143 3.358 7.501 7.501 7.501z"/><path d="m472.51 130.453h-6.854v-33.843c0-33.983-27.647-61.629-61.629-61.629h-56.297v-15.058c-.001-10.985-8.938-19.923-19.924-19.923h-143.612c-10.986 0-19.923 8.938-19.923 19.923v15.058h-56.297c-33.982 0-61.629 27.646-61.629 61.629v33.843h-6.855c-6.861 0-12.443 5.581-12.443 12.442v26.54c0 6.861 5.582 12.443 12.443 12.443h6.854v255.082c0 16.824 13.688 30.511 30.512 30.511h13.748v8.809c0 19.696 16.024 35.72 35.721 35.72 19.696 0 35.72-16.024 35.72-35.72v-8.809h187.91v8.809c0 19.696 16.024 35.72 35.72 35.72 19.697 0 35.721-16.024 35.721-35.72v-8.809h13.748c16.824 0 30.512-13.688 30.512-30.511v-255.083h6.854c6.861 0 12.443-5.582 12.443-12.443v-26.54c-.001-6.86-5.583-12.441-12.443-12.441zm-293.237-110.53c0-2.713 2.207-4.92 4.921-4.92h143.612c2.713 0 4.921 2.208 4.921 4.92v15.058h-153.454zm-117.926 76.687c0-25.71 20.917-46.627 46.627-46.627h296.053c25.71 0 46.627 20.917 46.627 46.627v33.84h-145.01v-8.625c0-6.976-5.675-12.652-12.651-12.652h-73.987c-6.976 0-12.651 5.675-12.651 12.652v8.625h-145.008zm229.294 27.567v53.843h-69.283v-53.843zm-143.599 352.103c0 11.424-9.293 20.718-20.717 20.718s-20.718-9.294-20.718-20.718v-8.809h41.436v8.809zm259.351 0c0 11.424-9.294 20.718-20.718 20.718s-20.717-9.294-20.717-20.718v-8.809h41.436v8.809zm44.26-39.321c0 8.552-6.957 15.509-15.509 15.509h-358.288c-8.552 0-15.509-6.957-15.509-15.509v-255.082h66.509c4.143 0 7.501-3.359 7.501-7.501 0-4.143-3.358-7.501-7.501-7.501h-85.806v-21.42h164.306v21.42h-43.468c-4.143 0-7.501 3.358-7.501 7.501s3.358 7.501 7.501 7.501h43.566c.749 6.267 6.087 11.144 12.552 11.144h73.987c6.465 0 11.804-4.877 12.552-11.144h145.108zm19.297-270.084h-164.306v-21.42h164.306z"/><path d="m86.279 228.773v185.768c0 7.363 5.989 13.353 13.352 13.353h312.739c7.363 0 13.352-5.99 13.352-13.353v-185.768c0-7.363-5.989-13.353-13.352-13.353h-312.74c-7.362 0-13.351 5.991-13.351 13.353zm15.002 1.65h309.438v74.206l-37.949-37.949c-5.209-5.209-13.686-5.211-18.897 0l-44.115 44.115-44.115-44.115c-5.21-5.21-13.686-5.209-18.898 0l-44.31 44.311-44.311-44.311c-5.21-5.21-13.687-5.209-18.897 0l-37.949 37.949v-74.206zm198.124 91.234-43.209 43.209-43.208-43.209 43.208-43.209zm-107.518 0-43.209 43.208-43.208-43.208 43.208-43.209zm-90.606 17.029 37.949 37.948c2.524 2.524 5.879 3.914 9.449 3.914 3.569 0 6.924-1.39 9.448-3.914l44.311-44.31 44.311 44.311c2.524 2.524 5.88 3.913 9.448 3.913 3.57 0 6.925-1.39 9.449-3.914l44.115-44.114 7.852 7.852c2.93 2.929 7.679 2.929 10.609 0 2.929-2.929 2.929-7.679 0-10.608l-8.107-8.106 43.209-43.209 43.208 43.209-43.209 43.208-10.567-10.567c-2.927-2.929-7.677-2.93-10.608 0-2.929 2.93-2.929 7.679.001 10.608l11.727 11.727c2.524 2.524 5.879 3.914 9.448 3.914 3.57 0 6.925-1.39 9.449-3.914l37.949-37.948v74.206h-309.441z"/><path d="m202.241 287.146c5.524 0 10.002-4.478 10.002-10.001 0-5.524-4.478-10.002-10.002-10.002s-10.002 4.478-10.002 10.002c.001 5.523 4.478 10.001 10.002 10.001z"/><path d="m309.759 287.146c5.524 0 10.002-4.478 10.002-10.001 0-5.524-4.478-10.002-10.002-10.002s-10.002 4.478-10.002 10.002c0 5.523 4.478 10.001 10.002 10.001z"/><circle cx="202.241" cy="366.17" r="10.002"/><circle cx="309.759" cy="366.17" r="10.002"/></g></g></svg>