<svg id="Capa_1" enable-background="new 0 0 512 512" height="512" viewBox="0 0 512 512" width="512" xmlns="http://www.w3.org/2000/svg"><g><g><path d="m256 7.496c-107.577 0-194.786 87.209-194.786 194.786 0 25.351 4.932 50.634 14.582 74.082 24.547 59.649 82.985 94.245 122.049 143.797 18.737 23.768 39.133 50.431 50.499 79.137 2.748 6.942 12.563 6.942 15.312 0 11.366-28.707 31.762-55.37 50.499-79.137 39.064-49.552 97.502-84.148 122.049-143.797 9.649-23.448 14.582-48.732 14.582-74.082 0-107.578-87.208-194.786-194.786-194.786z" fill="#ade194"/></g><g><path d="m450.79 202.281c0 25.356-4.937 50.631-14.582 74.088-24.546 59.646-82.993 94.237-122.051 143.789-18.739 23.767-39.138 50.431-50.501 79.145-2.748 6.936-12.563 6.936-15.311 0-.88-2.229-1.819-4.447-2.808-6.646.12-.22.22-.46.32-.71 11.374-28.704 31.762-55.369 50.501-79.135 39.068-49.552 97.505-84.152 122.051-143.799 9.645-23.447 14.582-48.732 14.582-74.078 0-77.846-45.664-145.028-111.677-176.21 75.457 26.844 129.476 98.883 129.476 183.556z" fill="#97da7b"/></g><g><circle cx="256" cy="200.772" fill="#f9f3f1" r="145.05"/></g><g><path d="m401.048 200.771c0 80.105-64.943 145.048-145.048 145.048-16.79 0-32.921-2.858-47.923-8.105 8.745 1.649 17.76 2.509 26.985 2.509 80.105 0 145.048-64.933 145.048-145.048 0-63.314-40.577-117.154-97.135-136.943 67.222 12.643 118.073 71.65 118.073 142.539z" fill="#efe2dd"/></g><g><path d="m324.985 287.567h-137.969c-4.74 0-8.583-3.843-8.583-8.583v-13.364c0-4.74 3.843-8.583 8.583-8.583h137.969c4.74 0 8.583 3.843 8.583 8.583v13.364c0 4.74-3.843 8.583-8.583 8.583z" fill="#b5adb6"/></g><g><path d="m333.566 265.625v13.362c0 4.737-3.838 8.575-8.585 8.575h-21.558c4.737 0 8.585-3.838 8.585-8.575v-13.362c0-4.747-3.848-8.585-8.585-8.585h21.558c4.748 0 8.585 3.837 8.585 8.585z" fill="#a79ba7"/></g><g><path d="m308.437 257.037c13.553-10.651 22.208-18.561 23.411-35.095s-5.062-28.708-16.947-40.984c-5.64-5.825-12.401-10.579-18.689-15.79-17.354-14.381-31.206-23.924-40.212-43.921-9.006 19.997-22.858 29.54-40.212 43.921-6.288 5.211-13.049 9.965-18.689 15.79-11.885 12.275-18.15 24.45-16.947 40.984s9.858 24.443 23.411 35.095z" fill="#fee97d"/></g><g><path d="m331.848 221.939c-1.199 16.541-9.854 24.446-23.407 35.1h-19.989c13.552-10.174 22.207-17.72 23.407-33.501 1.199-15.791-5.057-27.414-16.95-39.128-5.637-5.557-12.393-10.104-18.689-15.071-12.943-10.244-23.936-17.91-32.432-29.074 4.717-5.397 8.815-11.454 12.213-19.019 9.005 19.999 22.857 29.543 40.207 43.925 6.297 5.207 13.053 9.964 18.689 15.791 11.893 12.274 18.15 24.447 16.951 40.977z" fill="#fedf30"/></g><g><path d="m256 0c-54.022 0-104.814 21.035-143.019 59.231-2.928 2.927-2.928 7.673-.001 10.6 2.928 2.928 7.675 2.929 10.601.001 35.374-35.364 82.401-54.841 132.419-54.841 103.272 0 187.29 84.018 187.29 187.29 0 24.316-4.847 48.947-14.017 71.229-14.904 36.215-42.6 62.622-71.923 90.58-16.897 16.11-34.369 32.768-49.081 51.43-20.649 26.193-40.133 52.1-51.582 81.019-.074.187-.185.469-.686.469s-.612-.282-.686-.469c-11.451-28.921-30.934-54.827-51.583-81.019-14.711-18.661-32.184-35.321-49.081-51.431-29.322-27.957-57.02-54.364-71.922-90.579-9.171-22.284-14.018-46.915-14.018-71.229 0-38.433 11.553-75.361 33.41-106.794 2.364-3.399 1.525-8.07-1.874-10.434-3.401-2.365-8.071-1.524-10.434 1.875-23.613 33.958-36.095 73.846-36.095 115.354 0 26.629 5.096 52.513 15.147 76.934 16.115 39.161 46.275 67.916 75.441 95.724 16.518 15.749 33.599 32.035 47.653 49.861 19.933 25.284 38.713 50.219 49.417 77.256 2.392 6.04 8.133 9.943 14.625 9.942 6.493 0 12.234-3.903 14.625-9.943 10.703-27.035 29.482-51.97 49.416-77.256 14.053-17.825 31.134-34.111 47.653-49.86 29.166-27.809 59.326-56.563 75.442-95.725 10.05-24.42 15.146-50.304 15.146-76.935-.001-111.537-90.744-202.28-202.283-202.28z"/><path d="m256 353.317c84.114 0 152.546-68.432 152.546-152.546s-68.432-152.545-152.546-152.545-152.546 68.432-152.546 152.546 68.433 152.545 152.546 152.545zm0-290.099c75.848 0 137.554 61.706 137.554 137.554s-61.706 137.554-137.554 137.554-137.554-61.706-137.554-137.554 61.707-137.554 137.554-137.554z"/><path d="m187.016 295.063h82.067c4.14 0 7.496-3.356 7.496-7.496s-3.355-7.496-7.496-7.496h-82.067c-.599 0-1.087-.488-1.087-1.087v-13.364c0-.599.488-1.087 1.087-1.087h137.969c.599 0 1.087.488 1.087 1.087v13.364c0 .6-.488 1.087-1.087 1.087h-21.561c-4.14 0-7.496 3.356-7.496 7.496s3.355 7.496 7.496 7.496h21.561c8.866 0 16.079-7.213 16.079-16.079v-13.364c0-7.908-5.743-14.485-13.274-15.818 6.452-7.181 10.667-15.388 11.535-27.316 1.268-17.418-4.604-31.834-19.038-46.742-7.692-7.945-16.934-14.455-25.49-21.427-13.954-11.37-24.142-19.7-31.301-34.761v-4.188c4.044-1.529 7.534-4.402 9.769-8.238 2.084-3.578.874-8.166-2.704-10.25-3.576-2.084-8.167-.875-10.25 2.704-.742 1.272-2.06 2.032-3.528 2.032-2.247 0-4.075-1.828-4.075-4.075 0-1.643.978-3.117 2.491-3.758 3.812-1.613 5.596-6.011 3.983-9.823-1.613-3.814-6.012-5.598-9.823-3.983-7.072 2.991-11.642 9.886-11.642 17.564 0 7.544 4.416 14.06 10.788 17.149v4.865c-7.159 15.061-17.347 23.391-31.302 34.762-8.573 6.986-17.781 13.466-25.489 21.427-14.433 14.907-20.305 29.323-19.037 46.741.868 11.928 5.083 20.135 11.535 27.316-7.531 1.333-13.274 7.91-13.274 15.818v13.364c-.001 8.867 7.212 16.08 16.078 16.08zm15.478-108.879c7.297-7.369 16.199-13.742 24.179-20.244 11.255-9.172 21.34-17.389 29.327-29.276 7.987 11.887 18.071 20.104 29.326 29.275 17.794 14.5 40.942 29.416 39.045 55.46-.9 12.375-6.389 18.443-18.542 28.142h-99.658c-12.153-9.699-17.642-15.767-18.542-28.142-1.083-14.887 5.597-25.855 14.865-35.215z"/></g></g></svg>