<svg id="Capa_1" enable-background="new 0 0 512 512" height="512" viewBox="0 0 512 512" width="512" xmlns="http://www.w3.org/2000/svg"><g><g><path d="m219.289 462.866 27.995 39.524c1.993 2.813 6.168 2.813 8.16 0l27.995-39.524z" fill="#fed402"/><g><path d="m219.289 462.866 27.995 39.524c1.993 2.813 6.168 2.813 8.16 0l6.408-9.046-21.588-30.478z" fill="#fac600"/></g><path d="m288.836 75.145c-4.237-16.749-19.405-29.145-37.472-29.145-18.066 0-33.234 12.396-37.472 29.145z" fill="#fed402"/><g><path d="m245.203 75.145c2.934-11.579 11.076-21.079 21.806-25.836-4.784-2.121-10.074-3.309-15.645-3.309-18.066 0-33.234 12.396-37.472 29.145z" fill="#fac600"/></g><path d="m161.754 429.789 25.648 28.175c2.843 3.123 6.87 4.902 11.092 4.902h105.741c4.223 0 8.25-1.78 11.093-4.902l25.648-28.175z" fill="#c53287"/><g><path d="m204.391 430.789h-41.727l24.737 27.175c2.843 3.123 6.87 4.902 11.092 4.902h41.727c-4.223 0-8.25-1.78-11.092-4.902z" fill="#a82975"/></g><path d="m359.3 111.651-34.346-32.416c-2.784-2.628-6.467-4.091-10.296-4.091h-126.588c-3.828 0-7.512 1.464-10.296 4.091l-34.346 32.416z" fill="#80d261"/><path d="m290.327 111.651-13.963-36.506h-50l-13.963 36.506z" fill="#c53287"/><g><path d="m238.036 111.651 13.963-36.506h-25.635l-13.963 36.506z" fill="#a82975"/></g><g><path d="m174.857 111.651 34.346-32.416c2.784-2.628 6.467-4.091 10.296-4.091h-31.429c-3.828 0-7.512 1.464-10.296 4.091l-34.346 32.416z" fill="#4fc123"/></g><path d="m375.916 176v-28.56h-249.104v247.56h249.104v-41l-27.864-39.14v-100.938z" fill="#c53287"/><g><path d="m348.052 213.922v100.938l27.864 39.14v-178z" fill="#fed402"/></g><g fill="#a82975"><path d="m132.922 358.35c-1.433 2.014-3.729 3.151-6.11 3.151v33.499h31.084v-71.73z"/><path d="m132.856 171.559 25.04 34.077v-58.196h-31.084v21.06c2.343 0 4.605 1.098 6.044 3.059z"/></g><path d="m313.364 147.44h26.636v247.56h-26.636z" fill="#a82975"/><path d="m189.364 146.44h124v248.56h-124z" fill="#80d261"/><path d="m217.37 320.792c-.892-1.265-1.37-2.774-1.37-4.321v-100.939c0-1.578.498-3.116 1.423-4.395l2.577-3.564v-60.133h-30.636v247.56h30.636v-70.477z" fill="#4fc123"/><g><path d="m223.5 215.532v100.939l27.864 39.529 27.865-39.529v-100.939l-27.865-38.532z" fill="#fed402"/></g><g><path d="m244.271 316.471v-100.939l17.479-24.17-10.386-14.362-27.864 38.532v100.939l27.864 39.529 10.386-14.733z" fill="#fac600"/></g><g><path d="m398.833 430.789h-294.937c-2.761 0-5-2.238-5-5v-25.789c0-2.761 2.239-5 5-5h294.938c2.761 0 5 2.239 5 5v25.789c-.001 2.761-2.239 5-5.001 5z" fill="#fed402"/></g><g><path d="m151 425.789v-25.789c0-2.761 2.239-5 5-5h-52.104c-2.761 0-5 2.239-5 5v25.789c0 2.761 2.239 5 5 5h52.104c-2.761 0-5-2.239-5-5z" fill="#fac600"/></g><g><path d="m398.833 147.44h-294.937c-2.761 0-5-2.239-5-5v-25.789c0-2.761 2.239-5 5-5h294.938c2.761 0 5 2.239 5 5v25.789c-.001 2.761-2.239 5-5.001 5z" fill="#fed402"/></g><g><path d="m151 142.44v-25.789c0-2.762 2.239-5 5-5h-52.104c-2.761 0-5 2.238-5 5v25.789c0 2.761 2.239 5 5 5h52.104c-2.761 0-5-2.239-5-5z" fill="#fac600"/></g><g><path d="m154.677 213.922v100.938l-27.865 39.14v-178z" fill="#fed402"/></g></g><g><path d="m428.05 157.714c-4.473 10.941-10.03 16.499-20.971 20.971-4.133 1.689-4.133 7.555 0 9.244 10.941 4.473 16.499 10.03 20.971 20.971 1.689 4.133 7.555 4.133 9.244 0 4.473-10.941 10.03-16.499 20.971-20.971 4.133-1.689 4.133-7.555 0-9.244-10.941-4.472-16.499-10.03-20.971-20.971-1.69-4.132-7.555-4.132-9.244 0z" fill="#fed402"/></g><g><path d="m71.675 344.255c-3.874 10.523-8.533 15.181-19.056 19.056-2.645.974-2.645 4.676 0 5.65 10.523 3.874 15.181 8.533 19.056 19.056.974 2.645 4.676 2.645 5.65 0 3.874-10.523 8.533-15.182 19.056-19.056 2.645-.974 2.645-4.676 0-5.65-10.523-3.874-15.181-8.533-19.056-19.056-.974-2.645-4.676-2.645-5.65 0z" fill="#fed402"/></g><g><path d="m359.707 458.755c-3.874 10.523-8.533 15.181-19.056 19.056-2.645.974-2.645 4.676 0 5.65 10.523 3.874 15.181 8.533 19.056 19.056.974 2.645 4.676 2.645 5.65 0 3.874-10.523 8.533-15.182 19.056-19.056 2.645-.974 2.645-4.676 0-5.65-10.523-3.874-15.181-8.533-19.056-19.056-.974-2.645-4.676-2.645-5.65 0z" fill="#fed402"/></g><g><path d="m251.364 169.5c-2.406 0-4.667 1.155-6.077 3.105l-27.864 38.532c-.925 1.279-1.423 2.817-1.423 4.395v100.938c0 1.547.479 3.057 1.37 4.321l27.864 39.529c1.405 1.993 3.691 3.179 6.13 3.179s4.725-1.186 6.13-3.179l27.864-39.529c.892-1.265 1.37-2.774 1.37-4.321v-100.938c0-1.578-.498-3.116-1.423-4.395l-27.864-38.532c-1.41-1.95-3.67-3.105-6.077-3.105zm20.365 144.593-20.364 28.89-20.365-28.89v-96.133l20.364-28.161 20.364 28.161v96.133z"/><path d="m398.833 387.5h-15.417v-114.5c0-4.142-3.357-7.5-7.5-7.5s-7.5 3.358-7.5 7.5v57.534l-12.864-18.07v-96.084l12.864-17.507v39.127c0 4.142 3.357 7.5 7.5 7.5s7.5-3.358 7.5-7.5v-83.06h15.417c6.893 0 12.5-5.607 12.5-12.5v-25.789c0-6.893-5.607-12.5-12.5-12.5h-36.553l-32.179-30.37c-4.193-3.958-9.678-6.137-15.442-6.137h-20.395c-5.894-14.815-19.249-25.874-35.4-28.526v-31.618c0-4.142-3.357-7.5-7.5-7.5s-7.5 3.358-7.5 7.5v31.619c-16.151 2.652-29.506 13.71-35.4 28.526h-20.395c-5.765 0-11.249 2.179-15.442 6.137l-32.179 30.37h-36.552c-6.893 0-12.5 5.607-12.5 12.5v25.789c0 6.893 5.607 12.5 12.5 12.5h15.417v232.559h-15.417c-6.893 0-12.5 5.607-12.5 12.5v25.789c0 6.893 5.607 12.5 12.5 12.5h55.454l22.506 24.724c4.254 4.673 10.318 7.354 16.639 7.354h16.917l25.754 36.36c2.34 3.303 6.153 5.274 10.201 5.274 4.047 0 7.859-1.973 10.198-5.275l25.753-36.359h16.917c6.32 0 12.385-2.681 16.639-7.354l22.506-24.724h55.454c6.893 0 12.5-5.607 12.5-12.5v-25.789c-.001-6.893-5.608-12.5-12.501-12.5zm-30.417-213.959-26.408 35.94c-.946 1.288-1.456 2.843-1.456 4.441v100.938c0 1.559.486 3.08 1.391 4.35l26.474 37.186v31.104h-47.552v-232.56h47.552v18.601zm-53.757-90.896c1.921 0 3.749.727 5.147 2.046l20.62 19.461h-44.938l-8.226-21.507zm-63.295-29.145c10.901 0 20.49 5.642 26.057 14.145h-52.115c5.569-8.503 15.158-14.145 26.058-14.145zm-19.84 29.145h39.679l8.226 21.506h-56.13zm-48.602 2.045c1.398-1.319 3.227-2.046 5.147-2.046h27.396l-8.226 21.507h-44.937zm-76.526 55.25v-20.789h289.938v20.789h-101.334c-4.143 0-7.5 3.358-7.5 7.5s3.357 7.5 7.5 7.5h10.864v232.56h-109v-232.56h63.136c4.143 0 7.5-3.358 7.5-7.5s-3.357-7.5-7.5-7.5zm54.39 179.27c.904-1.27 1.391-2.791 1.391-4.35v-100.939c0-1.598-.51-3.153-1.456-4.441l-26.408-35.94v-18.6h47.552v232.56h-47.552v-31.104zm-26.473 11.323v-131.66l12.864 17.507v96.083zm117.051 164.642-17.572-24.809h35.145zm144.969-71.886h-137.333c-4.143 0-7.5 3.358-7.5 7.5s3.357 7.5 7.5 7.5h64.095l-13.314 14.626c-1.419 1.558-3.44 2.451-5.547 2.451h-105.74c-2.106 0-4.128-.894-5.547-2.452l-13.314-14.626h44.367c4.143 0 7.5-3.358 7.5-7.5s-3.357-7.5-7.5-7.5h-117.604v-20.788h289.938v20.789z"/><path d="m461.103 171.743c-9.063-3.705-13.161-7.803-16.866-16.867-1.928-4.714-6.467-7.761-11.564-7.761s-9.637 3.046-11.564 7.761c-3.705 9.063-7.804 13.162-16.866 16.867-4.716 1.928-7.762 6.467-7.762 11.565s3.047 9.637 7.762 11.563c9.063 3.705 13.161 7.803 16.866 16.867 1.928 4.715 6.467 7.762 11.564 7.762s9.637-3.046 11.564-7.762c3.705-9.063 7.804-13.162 16.865-16.866 4.716-1.927 7.763-6.466 7.763-11.564s-3.047-9.637-7.762-11.565zm-28.431 29.259c-4.186-8.105-9.59-13.509-17.694-17.695 8.105-4.186 13.509-9.589 17.694-17.695 4.186 8.106 9.589 13.509 17.694 17.695-8.105 4.186-13.509 9.589-17.694 17.695z"/><path d="m105.864 366.137c0-4.45-2.704-8.322-6.893-9.864-8.481-3.123-11.485-6.126-14.608-14.609-1.541-4.187-5.413-6.892-9.863-6.892s-8.322 2.706-9.863 6.892c-3.123 8.482-6.127 11.486-14.61 14.609-4.187 1.542-6.891 5.414-6.891 9.864s2.706 8.32 6.893 9.862c8.482 3.123 11.485 6.127 14.608 14.609 1.541 4.187 5.413 6.892 9.863 6.892s8.322-2.706 9.863-6.893c3.123-8.482 6.126-11.486 14.608-14.609 4.187-1.541 6.893-5.412 6.893-9.861zm-31.364 10.392c-2.701-4.369-6.024-7.692-10.394-10.394 4.369-2.701 7.692-6.024 10.394-10.394 2.701 4.369 6.024 7.692 10.394 10.394-4.37 2.702-7.693 6.025-10.394 10.394z"/><path d="m387.004 470.772c-8.481-3.123-11.485-6.126-14.609-14.609-1.541-4.187-5.413-6.892-9.862-6.892-4.45 0-8.321 2.705-9.863 6.892-3.124 8.483-6.127 11.487-14.609 14.609-4.188 1.542-6.893 5.414-6.893 9.864.001 4.45 2.707 8.321 6.893 9.862 8.482 3.123 11.486 6.127 14.609 14.609 1.541 4.187 5.413 6.892 9.863 6.892 4.449 0 8.321-2.706 9.862-6.892 3.123-8.483 6.127-11.487 14.609-14.61 4.187-1.542 6.893-5.412 6.893-9.862-.001-4.448-2.705-8.32-6.893-9.863zm-24.472 20.257c-2.702-4.37-6.024-7.692-10.394-10.394 4.369-2.701 7.691-6.024 10.394-10.394 2.701 4.37 6.024 7.692 10.394 10.394-4.37 2.702-7.693 6.025-10.394 10.394z"/></g></g></svg>