<svg id="Capa_1" enable-background="new 0 0 512.125 512.125" height="512" viewBox="0 0 512.125 512.125" width="512" xmlns="http://www.w3.org/2000/svg"><g><g><path d="m298.449 174.086 7.515-40.986h-99.803l7.515 40.986c1.538 8.39-2.367 16.841-9.754 21.106l-33.456 19.317c-10.975 6.337-17.735 18.047-17.735 30.72v223.935c0 19.591 15.882 35.473 35.473 35.473h135.718c19.591 0 35.473-15.882 35.473-35.473v-223.935c0-12.673-6.761-24.383-17.735-30.72l-33.456-19.317c-7.388-4.265-11.294-12.715-9.755-21.106z" fill="#c8effe"/></g><g><path d="m359.391 245.23v223.938c0 18.599-14.306 33.854-32.526 35.351 7.627-6.719 12.439-16.553 12.439-27.514v-231.415c0-13.098-6.988-17.021-18.329-23.57l-34.573-19.967c-7.637-4.403-11.671-13.138-10.083-21.804l7.148-47.153h22.493l-7.508 40.992c-1.537 8.386 2.366 16.842 9.754 21.105l33.454 19.318c10.972 6.34 17.731 18.05 17.731 30.719z" fill="#99e6fc"/></g><g><path d="m323.778 133.101h-135.431c-5.045 0-9.135-4.09-9.135-9.135v-28.545c0-5.045 4.09-9.135 9.135-9.135h135.431c5.045 0 9.135 4.09 9.135 9.135v28.545c0 5.045-4.09 9.135-9.135 9.135z" fill="#62dbfb"/></g><g><path d="m332.915 95.419v28.543c0 5.052-4.093 9.135-9.135 9.135h-19.917c5.052 0 9.135-4.083 9.135-9.135v-28.543c0-5.042-4.083-9.135-9.135-9.135h19.917c5.042 0 9.135 4.093 9.135 9.135z" fill="#01d0fb"/></g><g><path d="m205.304 31.721 11.859 101.38h77.798l11.859-101.38c1.705-12.833-8.28-24.233-21.226-24.233h-59.064c-12.946 0-22.931 11.399-21.226 24.233z" fill="#eaa998"/></g><g><path d="m306.818 31.725-11.86 101.372h-20.616l11.86-101.372c1.707-12.839-8.276-24.24-21.225-24.24h20.616c12.949 0 22.932 11.401 21.225 24.24z" fill="#e49280"/></g><g><path d="m332.102 251.477v212.322c0 7.818-6.338 14.155-14.155 14.155h-123.769c-7.818 0-14.155-6.338-14.155-14.155v-212.322z" fill="#fff5c6"/></g><g><path d="m332.106 251.48v212.318c0 7.817-6.339 14.157-14.156 14.157h-19.318c7.817 0 14.156-6.34 14.156-14.157v-212.318z" fill="#fef0ae"/></g><g><path d="m256.062 200.95c-9.567 0-17.322-7.755-17.322-17.322v-50.528h34.644v50.527c.001 9.568-7.755 17.323-17.322 17.323z" fill="#dd7f66"/></g><g><path d="m273.384 133.096v50.536c0 9.564-7.757 17.321-17.321 17.321-3.155 0-6.11-.839-8.656-2.316 5.171-3.005 8.656-8.596 8.656-15.005v-50.536z" fill="#d6694b"/></g><g><path d="m332.102 243.99h-152.08c-4.135 0-7.488 3.352-7.488 7.488v212.322c0 11.934 9.709 21.643 21.643 21.643h123.769c11.934 0 21.643-9.709 21.643-21.643v-212.323c.001-4.135-3.352-7.487-7.487-7.487zm-7.487 219.809c0 3.677-2.991 6.668-6.668 6.668h-123.769c-3.677 0-6.668-2.991-6.668-6.668v-204.834h137.104v204.834z"/><path d="m359.394 378.37c4.135 0 7.488-3.352 7.488-7.488v-125.653c0-15.298-8.23-29.555-21.479-37.204l-33.455-19.317c-4.634-2.675-7.099-8.009-6.134-13.272l6.39-34.848h11.575c9.166 0 16.623-7.457 16.623-16.623v-28.544c0-9.166-7.457-16.623-16.623-16.623h-14.926l5.399-46.153c1.076-8.236-1.443-16.538-6.918-22.787-5.488-6.265-13.412-9.858-21.74-9.858h-59.064c-8.328 0-16.252 3.593-21.739 9.858-5.474 6.249-7.994 14.551-6.918 22.787l5.399 46.153h-14.926c-9.166 0-16.623 7.457-16.623 16.623v28.544c0 9.166 7.457 16.623 16.623 16.623h11.575l6.39 34.848c.965 5.263-1.5 10.597-6.133 13.272l-33.456 19.317c-13.249 7.649-21.479 21.906-21.479 37.204v223.935c0 23.689 19.272 42.96 42.96 42.96h135.718c23.689 0 42.96-19.272 42.96-42.96v-63.904c0-4.135-3.352-7.488-7.488-7.488-4.135 0-7.488 3.352-7.488 7.488v63.905c0 15.431-12.554 27.985-27.985 27.985h-135.717c-15.431 0-27.985-12.554-27.985-27.985v-223.936c0-9.966 5.361-19.252 13.992-24.235l33.456-19.317c10.104-5.835 15.479-17.465 13.375-28.941l-5.894-32.148h16.106v7.881c0 4.135 3.352 7.488 7.488 7.488 4.135 0 7.488-3.352 7.488-7.488v-7.881h19.669v43.04c0 5.423-4.412 9.834-9.835 9.834s-9.835-4.412-9.835-9.834c0-4.135-3.352-7.488-7.488-7.488-4.135 0-7.488 3.352-7.488 7.488 0 13.68 11.129 24.81 24.81 24.81s24.81-11.13 24.81-24.81v-43.04h16.106l-5.895 32.148c-2.104 11.476 3.27 23.107 13.375 28.941l33.456 19.317c8.631 4.983 13.992 14.269 13.992 24.235v125.653c.001 4.135 3.353 7.488 7.488 7.488zm-171.047-252.757c-.909 0-1.648-.739-1.648-1.648v-28.544c0-.909.739-1.648 1.648-1.648h16.677l3.725 31.84zm99.952 0h-64.473l-3.725-31.84h71.922zm11.1-94.878c-.005.039-.01.078-.015.116l-5.609 47.947h-75.425l-5.609-47.947c-.004-.039-.009-.077-.015-.116-.536-4.037.646-7.947 3.329-11.01s6.403-4.75 10.475-4.75h59.064c4.072 0 7.792 1.687 10.475 4.75s3.866 6.973 3.33 11.01zm3.977 94.878 3.725-31.84h16.677c.909 0 1.648.739 1.648 1.648v28.544c0 .909-.739 1.648-1.648 1.648z"/><ellipse cx="294.013" cy="340.023" rx="9.983" ry="9.983" transform="matrix(.16 -.987 .987 .16 -88.715 575.774)"/><ellipse cx="263.154" cy="370.882" rx="9.983" ry="9.983" transform="matrix(.924 -.383 .383 .924 -121.899 128.936)"/><ellipse cx="294.013" cy="429.341" rx="9.983" ry="9.983" transform="matrix(.987 -.16 .16 .987 -64.976 52.64)"/></g></g></svg>