<svg id="Capa_1" enable-background="new 0 0 512 512" height="512" viewBox="0 0 512 512" width="512" xmlns="http://www.w3.org/2000/svg"><g><g><path d="m418.308 398.545-18.138-274.545h-75.29c-8.989 29.519-36.422 51-68.88 51-21.267 0-40.375-9.223-53.553-23.886l-1.908.871-38.978 23.864c-2.75 1.683-4.429 4.698-4.429 7.948l-.256 68.364c6.275 14.375 16.282 26.708 28.79 35.733 9.783 7.059 23.372-.115 23.372-12.269v-6.289c0-13.935 11.272-25.336 25.049-25.336h9.101c1.77 3.277 5.208 5.501 9.161 5.501h12.519c2.881 0 5.216-2.362 5.216-5.276v-.225h7.829c13.777 0 25.049 11.401 25.049 25.336v6.289c0 12.154 13.589 19.328 23.372 12.269 12.507-9.024 22.515-21.358 28.79-35.733l.733 196.024c0 3.649 3.739 6.069 7.015 4.54l32.549-15.195c14.878-6.944 23.98-22.449 22.887-38.985z" fill="#ea9b58"/></g><path d="m453.117 401.13-34.975-5.113.167 2.529c1.093 16.536-8.01 32.04-22.887 38.985l-32.549 15.195c-3.276 1.529-7.015-.891-7.015-4.54l-.229-61.309-21.2-3.099c-2.456-.359-4.277-2.465-4.277-4.947v-28.831c0-2.761-2.239-5-5-5h-24.047c-10.317 3.869-21.484 6-33.153 6h-23.904c-11.669 0-22.836-2.131-33.153-6h-24.047c-2.761 0-5 2.239-5 5v28.83c0 2.482-1.821 4.588-4.277 4.947l-21.2 3.099-.229 61.309c0 3.649-3.739 6.069-7.015 4.54l-32.549-15.195c-14.877-6.945-23.979-22.45-22.887-38.985l.167-2.529-34.975 5.113c-12.28 1.795-21.383 12.327-21.383 24.737v73.634c0 2.761 2.239 5 5 5h427c2.761 0 5-2.239 5-5v-73.633c0-12.411-9.104-22.942-21.383-24.737z" fill="#fef1da"/><g fill="#fae2c0"><path d="m93.692 398.545.167-2.529-34.975 5.113c-12.28 1.795-21.383 12.327-21.383 24.737v73.634c0 2.761 2.239 5 5 5h22.499v-65.238c0-7.756 5.69-14.338 13.364-15.46l20.33-2.972c-3.693-6.634-5.527-14.339-5.002-22.285z"/><path d="m231.283 350.127c-7.075-.956-13.9-2.694-20.388-5.127h-24.047c-2.761 0-5 2.239-5 5v28.83c0 2.482-1.821 4.588-4.277 4.947l-21.2 3.099-.095 25.535 48.795-7.134c2.456-.359 4.277-2.465 4.277-4.948v-28.829c0-2.761 2.239-5 5-5h16.934v-16.373z"/></g><path d="m267.952 351h-23.904c-4.331 0-8.589-.308-12.765-.873v154.373h49.434v-154.373c-4.176.565-8.434.873-12.765.873z" fill="#fff"/><path d="m252 478.5v-127.5h-7.952c-4.331 0-8.589-.308-12.765-.873v154.373h49.434v-21h-23.717c-2.761 0-5-2.239-5-5z" fill="#f3f0f3"/><path d="m355.124 252.161c-6.275 14.375-16.283 26.708-28.79 35.733-9.783 7.059-23.372-.115-23.372-12.269v-6.289c0-13.935-11.272-25.336-25.049-25.336h-7.829v.225c0 2.914-2.336 5.276-5.216 5.276h-12.519c-3.952 0-7.39-2.224-9.161-5.501h-9.101c-13.777 0-25.049 11.401-25.049 25.336v6.289c0 12.154-13.589 19.328-23.372 12.269-12.507-9.024-22.515-21.358-28.79-35.733l-.151 40.447c14.172 34.274 47.929 58.392 87.323 58.392h23.904c39.395 0 73.151-24.118 87.324-58.392z" fill="#554e56"/><path d="m186.539 288.478c-.294-.183-.586-.376-.874-.584-12.507-9.024-22.515-21.358-28.79-35.733l-.151 40.447c14.173 34.274 47.93 58.392 87.324 58.392h23.904c1.258 0 2.508-.032 3.755-.081-39.325-1.538-72.475-27.112-85.168-62.441z" fill="#433f43"/><path d="m181 217.102v-53.154l-19.44 11.902c-2.75 1.683-4.429 4.698-4.429 7.948l-.256 68.364c6.275 14.375 16.282 26.708 28.79 35.733 8.367 6.037 19.512 1.659 22.564-7.339-16.753-15.859-27.229-38.415-27.229-63.454z" fill="#d88a55"/><g fill="#fd4755"><path d="m187.12 124h-75.29l-18.138 274.545c-1.092 16.536 8.01 32.04 22.887 38.985l32.549 15.195c3.276 1.529 7.015-.891 7.015-4.54l.989-264.388c0-3.251 1.68-6.265 4.429-7.948l38.978-23.864h2.72c-7.33-7.89-12.921-17.418-16.139-27.985z"/><path d="m418.308 398.545-18.138-274.545h-75.29c-3.218 10.567-8.809 20.095-16.138 27.985h2.72l38.978 23.864c2.749 1.683 4.429 4.698 4.429 7.948l.989 264.388c0 3.649 3.739 6.069 7.015 4.54l32.549-15.195c14.877-6.944 23.979-22.449 22.886-38.985z"/></g><path d="m125.094 417.385 19.383-293.385h-32.647l-18.138 274.545c-1.092 16.536 8.01 32.04 22.887 38.985l16.422 7.666c-5.638-7.884-8.577-17.663-7.907-27.811z" fill="#fb2b3a"/><path d="m187.12 124c8.989 29.519 36.422 51 68.88 51s59.891-21.481 68.88-51z" fill="#fb2b3a"/><path d="m227.119 124h-39.999c8.989 29.519 36.422 51 68.88 51 6.943 0 13.648-1.003 20-2.836-23.344-6.74-41.812-24.965-48.881-48.164z" fill="#e41f2d"/><path d="m389.059 91c-24.372-49.71-75.033-83.5-133.059-83.5-58.026 0-108.687 33.79-133.058 83.5z" fill="#fd4755"/><path d="m163.45 91c21.49-43.826 63.409-75.276 112.8-82.104-6.627-.916-13.386-1.396-20.25-1.396-58.026 0-108.687 33.79-133.058 83.5z" fill="#fb2b3a"/><g><path d="m404.5 124h-297c-9.113 0-16.5-7.387-16.5-16.5 0-9.113 7.387-16.5 16.5-16.5h297c9.113 0 16.5 7.387 16.5 16.5 0 9.113-7.387 16.5-16.5 16.5z" fill="#554e56"/></g><g><path d="m141 107.5c0-9.113 7.387-16.5 16.5-16.5h-50c-9.113 0-16.5 7.387-16.5 16.5s7.387 16.5 16.5 16.5h50c-9.113 0-16.5-7.387-16.5-16.5z" fill="#433f43"/></g><g><path d="m199.142 185.5c-4.142 0-7.5 3.358-7.5 7.5v14.692c0 4.142 3.358 7.5 7.5 7.5s7.5-3.358 7.5-7.5v-14.692c0-4.142-3.358-7.5-7.5-7.5z"/><path d="m312.858 185.5c-4.142 0-7.5 3.358-7.5 7.5v14.692c0 4.142 3.358 7.5 7.5 7.5s7.5-3.358 7.5-7.5v-14.692c0-4.142-3.358-7.5-7.5-7.5z"/><path d="m283.047 283.235c2.912-2.946 2.885-7.694-.061-10.606-2.947-2.913-7.695-2.885-10.606.061-4.385 4.435-10.202 6.877-16.38 6.877s-11.996-2.442-16.38-6.877c-2.913-2.945-7.661-2.973-10.606-.061-2.946 2.912-2.973 7.661-.061 10.606 7.225 7.308 16.83 11.332 27.047 11.332s19.823-4.024 27.047-11.332z"/><ellipse cx="256.494" cy="378.5" rx="7.415" ry="7.5"/><ellipse cx="256" cy="422.5" rx="7.415" ry="7.5"/><path d="m255.506 459c-4.095 0-7.415 3.358-7.415 7.5s3.32 7.5 7.415 7.5 7.415-3.358 7.415-7.5-3.32-7.5-7.415-7.5z"/><path d="m454.202 393.708-28.976-4.236-17.062-258.252c11.501-1.769 20.336-11.732 20.336-23.721 0-13.234-10.766-24-24-24h-10.878c-7.909-14.981-18.197-28.672-30.534-40.451-2.996-2.86-7.744-2.751-10.604.246-2.86 2.996-2.75 7.744.246 10.604 9.208 8.792 17.134 18.773 23.655 29.602h-240.746c9.191-15.237 21.173-28.776 35.309-39.612 24.656-18.899 54.067-28.888 85.052-28.888 24.622 0 48.875 6.536 70.139 18.902 3.582 2.083 8.171.869 10.254-2.713 2.083-3.581.868-8.171-2.713-10.254-23.551-13.696-50.412-20.935-77.68-20.935-34.313 0-66.879 11.06-94.177 31.983-17.982 13.783-32.82 31.514-43.417 51.517h-10.906c-13.234 0-24 10.766-24 24 0 11.989 8.835 21.952 20.336 23.721l-17.061 258.251-28.976 4.236c-15.848 2.317-27.799 16.143-27.799 32.159v73.633c0 6.893 5.607 12.5 12.5 12.5h188.783 49.435 188.782c6.893 0 12.5-5.607 12.5-12.5v-73.633c0-16.016-11.951-29.842-27.798-32.159zm-61.953 37.027-28.906 13.494-.779-208.256c-.016-4.133-3.37-7.472-7.5-7.472-.009 0-.019 0-.028 0-4.142.016-7.488 3.386-7.472 7.528l.054 14.552c-5.712 12.451-14.488 23.163-25.672 31.233-3.175 2.291-6.231 1.151-7.397.555-2.559-1.309-4.086-3.829-4.086-6.742v-6.289c0-18.106-14.602-32.836-32.55-32.836h-.329v-.717c0-4.142-3.358-7.5-7.5-7.5s-7.5 3.358-7.5 7.5v6.215h-10.235c-1.617 0-2.933-1.369-2.933-3.052v-38.948c0-4.142-3.358-7.5-7.5-7.5s-7.5 3.358-7.5 7.5v36.5h-.329c-17.948 0-32.55 14.73-32.55 32.836v6.289c0 2.913-1.527 5.433-4.086 6.742-1.166.596-4.222 1.736-7.396-.555-11.243-8.112-20.012-18.986-25.672-31.344l.249-66.671c0-.638.324-1.232.845-1.552l35.639-21.819c14.277 13.66 33.61 22.074 54.885 22.074s40.608-8.414 54.885-22.074l35.639 21.819c.521.319.845.914.845 1.58l.064 17.203c.016 4.132 3.37 7.472 7.5 7.472h.029c4.142-.016 7.487-3.386 7.472-7.528l-.064-17.174c0-5.822-3.071-11.319-8.013-14.345l-33.533-20.53c3.804-5.357 6.959-11.201 9.357-17.422h62.969l17.675 267.54c.881 13.358-6.584 26.095-18.577 31.694zm-63.095-92.566c6.968-5.226 13.255-11.376 18.723-18.293l.218 58.32-10.444-1.527v-26.669c0-5.491-3.564-10.157-8.497-11.831zm-73.154-170.669c-25.337 0-47.29-14.693-57.83-36h115.66c-10.54 21.307-32.493 36-57.83 36zm-157.5-60c0-4.962 4.038-9 9-9h297c4.962 0 9 4.038 9 9s-4.038 9-9 9h-297c-4.962 0-9-4.038-9-9zm2.676 291.54 17.675-267.54h62.969c2.398 6.221 5.553 12.066 9.357 17.422l-33.532 20.53c-4.943 3.025-8.014 8.522-8.014 14.317l-.974 260.459-28.906-13.494c-11.993-5.598-19.458-18.335-18.575-31.694zm62.946-79.165c5.468 6.918 11.755 13.068 18.723 18.294-4.933 1.674-8.497 6.339-8.497 11.831v26.669l-10.444 1.527zm59.661 177.125h-178.783v-71.133c0-8.624 6.435-16.068 14.968-17.316l26.278-3.842c1.277 16.957 11.619 32.364 27.16 39.618l32.549 15.194c3.859 1.801 8.31 1.511 11.906-.778 3.62-2.305 5.782-6.252 5.782-10.53l.205-54.85 14.81-2.165c6.095-.892 10.691-6.209 10.691-12.369v-26.329h20.135c4.636 1.663 9.41 3.003 14.299 3.986zm-59.553-205.9.048-12.972c4.949 5.913 10.634 11.257 16.998 15.849 3.849 2.777 8.364 4.19 12.911 4.19 3.438 0 6.896-.809 10.095-2.445 7.559-3.867 12.254-11.567 12.254-20.096v-6.289c0-9.835 7.873-17.836 17.55-17.836h5.4c3.261 3.386 7.818 5.5 12.862 5.5h12.519c4.321 0 8.14-2.181 10.439-5.5h2.606c9.677 0 17.55 8.001 17.55 17.836v6.289c0 8.528 4.696 16.229 12.254 20.096 7.431 3.802 16.247 3.133 23.006-1.745 6.352-4.583 12.038-9.894 16.998-15.794l.048 12.918c-13.809 31.884-44.977 52.4-79.818 52.4h-23.904c-34.839-.001-66.007-20.518-79.816-52.401zm302.77 205.9h-178.783v-56c0-4.142-3.358-7.5-7.5-7.5s-7.5 3.358-7.5 7.5v56h-34.435v-138.647c1.747.089 3.501.147 5.265.147h23.904c1.764 0 3.518-.058 5.265-.147v47.647c0 4.142 3.358 7.5 7.5 7.5s7.5-3.358 7.5-7.5v-49.514c4.889-.983 9.663-2.323 14.299-3.986h20.135v26.33c0 6.16 4.596 11.477 10.692 12.369l14.809 2.165.205 54.822c0 4.306 2.162 8.252 5.782 10.558 2.032 1.294 4.337 1.949 6.654 1.949 1.783 0 3.573-.388 5.251-1.171l32.549-15.194c15.541-7.254 25.882-22.661 27.16-39.618l26.278 3.842c8.533 1.248 14.968 8.692 14.968 17.316v71.132z"/></g></g></svg>