<svg id="Capa_1" enable-background="new 0 0 512.154 512.154" height="512" viewBox="0 0 512.154 512.154" width="512" xmlns="http://www.w3.org/2000/svg"><g><g><path d="m29.303 112.572h54.415v360.194h-54.415z" fill="#f9f3f1"/></g><g><path d="m428.436 112.572h54.415v360.194h-54.415z" fill="#f9f3f1"/></g><g><path d="m463.095 112.572h19.755v360.194h-19.755z" fill="#efe2dd"/></g><g><path d="m63.963 112.572h19.755v360.194h-19.755z" fill="#efe2dd"/></g><g><path d="m83.718 286.851h344.718v185.915h-344.718z" fill="#f9f3f1"/></g><g><path d="m409.252 286.851h19.183v185.915h-19.183z" fill="#efe2dd"/></g><g><path d="m7.529 472.766h497.095v31.936h-497.095z" fill="#b5adb6"/></g><g><path d="m482.85 472.766h21.774v31.936h-21.774z" fill="#a79ba7"/></g><g><path d="m83.718 255.994h344.718v30.502h-344.718z" fill="#ade194"/></g><g><path d="m409.252 255.994h19.183v30.502h-19.183z" fill="#97da7b"/></g><g><g><g><path d="m187.525 472.766h-66.468v-120.94c0-18.355 14.879-33.234 33.234-33.234 18.355 0 33.234 14.879 33.234 33.234z" fill="#eaa998"/></g></g><g><g><path d="m289.311 472.766h-66.468v-120.94c0-18.355 14.879-33.234 33.234-33.234 18.355 0 33.234 14.879 33.234 33.234z" fill="#eaa998"/></g></g><g><g><path d="m391.097 472.766h-66.468v-120.94c0-18.355 14.879-33.234 33.234-33.234 18.355 0 33.234 14.879 33.234 33.234z" fill="#eaa998"/></g></g></g><g><g><g><path d="m187.528 351.828v120.942h-19.534v-120.942c0-9.171-3.716-17.488-9.728-23.499-3.796-3.796-8.485-6.667-13.742-8.277 3.09-.954 6.369-1.461 9.767-1.461 9.181 0 17.488 3.716 23.499 9.737 6.011 6.012 9.738 14.329 9.738 23.5z" fill="#e49280"/></g></g><g><g><path d="m289.313 351.828v120.942h-19.534v-120.942c0-9.171-3.716-17.488-9.728-23.499-3.796-3.796-8.485-6.667-13.742-8.277 3.09-.954 6.369-1.461 9.767-1.461 9.181 0 17.488 3.716 23.499 9.737 6.012 6.012 9.738 14.329 9.738 23.5z" fill="#e49280"/></g></g><g><g><path d="m391.099 351.828v120.942h-19.534v-120.942c0-9.171-3.716-17.488-9.728-23.499-3.796-3.796-8.485-6.667-13.742-8.277 3.09-.954 6.369-1.461 9.767-1.461 9.181 0 17.488 3.716 23.499 9.737 6.012 6.012 9.738 14.329 9.738 23.5z" fill="#e49280"/></g></g></g><g><path d="m332.395 255.994c19.713-15.492 32.302-26.998 34.052-51.046s-7.363-41.757-24.65-59.612c-8.203-8.473-18.038-15.388-27.184-22.967-25.241-20.917-45.39-34.798-58.489-63.884-13.099 29.086-33.248 42.967-58.489 63.884-9.146 7.579-18.981 14.494-27.184 22.967-17.287 17.855-26.4 35.563-24.65 59.612 1.75 24.048 14.339 35.554 34.052 51.046z" fill="#fee97d"/></g><g><path d="m366.447 204.952c-1.749 24.045-14.338 35.551-34.051 51.042h-27.225c10.681-8.535 22.893-15.55 31.845-26.063 13.076-15.351 14.676-39.506 2.673-55.702-13.513-18.223-31.527-32.362-48.816-46.68-19.604-16.256-33.594-31.388-45.001-50.962 3.786-5.395 7.214-11.337 10.254-18.104 13.096 29.083 33.246 42.964 58.484 63.889 9.151 7.571 18.988 14.487 27.185 22.962 17.29 17.856 26.401 35.562 24.652 59.618z" fill="#fedf30"/></g><g><g><path d="m483.844 79.821c7.289-5.728 11.944-9.982 12.591-18.874s-2.723-15.44-9.114-22.042c-3.033-3.133-6.67-5.69-10.051-8.492-8.407-6.967-15.287-11.823-20.109-20.58-.658-1.195-2.376-1.195-3.034 0-4.822 8.757-11.702 13.612-20.109 20.58-3.382 2.802-7.018 5.359-10.051 8.492-6.392 6.602-9.761 13.15-9.114 22.042s5.302 13.146 12.591 18.874z" fill="#fee97d"/></g><g><path d="m496.432 60.947c-.646 8.893-5.296 13.145-12.589 18.869h-11.745c2.554-3.09 4.104-6.568 4.461-11.446.646-8.893-2.722-15.441-9.111-22.038-3.031-3.14-6.667-5.693-10.055-8.495-6.011-4.988-11.248-8.893-15.5-13.911 4.889-4.153 9.022-8.257 12.231-14.089.656-1.202 2.375-1.202 3.04 0 4.819 8.754 11.695 13.612 20.101 20.578 3.388 2.802 7.025 5.356 10.055 8.495 6.389 6.597 9.758 13.145 9.112 22.037z" fill="#fedf30"/></g><g><path d="m485.658 112.572h-60.03c-9.044 0-16.375-7.332-16.375-16.375 0-9.044 7.332-16.375 16.375-16.375h60.03c9.044 0 16.375 7.332 16.375 16.375.001 9.043-7.331 16.375-16.375 16.375z" fill="#ade194"/></g><g><path d="m502.036 96.201c0 4.521-1.828 8.615-4.799 11.576-2.961 2.971-7.055 4.799-11.576 4.799h-19.872c4.521 0 8.615-1.828 11.576-4.799 2.971-2.961 4.799-7.055 4.799-11.576 0-9.052-7.333-16.385-16.375-16.385h19.872c9.042 0 16.375 7.333 16.375 16.385z" fill="#97da7b"/></g></g><g><g><path d="m84.711 79.821c7.289-5.728 11.944-9.982 12.591-18.874s-2.723-15.44-9.114-22.042c-3.033-3.133-6.67-5.69-10.051-8.492-8.407-6.967-15.287-11.823-20.109-20.58-.658-1.195-2.376-1.195-3.034 0-4.824 8.757-11.704 13.613-20.111 20.58-3.382 2.802-7.018 5.359-10.051 8.492-6.392 6.602-9.761 13.15-9.114 22.042s5.302 13.146 12.591 18.874z" fill="#fee97d"/></g><g><path d="m97.299 60.947c-.646 8.893-5.296 13.145-12.589 18.869h-11.745c2.554-3.09 4.104-6.568 4.461-11.446.646-8.893-2.722-15.441-9.111-22.038-3.031-3.14-6.667-5.693-10.055-8.495-6.011-4.988-11.248-8.893-15.5-13.911 4.889-4.153 9.022-8.257 12.231-14.089.656-1.202 2.375-1.202 3.04 0 4.819 8.754 11.695 13.612 20.101 20.578 3.388 2.802 7.025 5.356 10.055 8.495 6.389 6.597 9.757 13.145 9.112 22.037z" fill="#fedf30"/></g><g><path d="m86.525 112.572h-60.03c-9.044 0-16.375-7.332-16.375-16.375 0-9.044 7.332-16.375 16.375-16.375h60.03c9.044 0 16.375 7.332 16.375 16.375 0 9.043-7.331 16.375-16.375 16.375z" fill="#ade194"/></g><g><path d="m102.903 96.201c0 4.521-1.828 8.615-4.799 11.576-2.961 2.971-7.055 4.799-11.576 4.799h-19.872c4.521 0 8.615-1.828 11.576-4.799 2.971-2.961 4.799-7.055 4.799-11.576 0-9.052-7.333-16.385-16.375-16.385h19.872c9.042 0 16.375 7.333 16.375 16.385z" fill="#97da7b"/></g></g><g><path d="m56.511 190.6c4.116 0 7.452-3.336 7.452-7.452s-3.336-7.452-7.452-7.452-7.452 3.336-7.452 7.452c0 4.115 3.336 7.452 7.452 7.452z"/><path d="m56.511 254.596c4.116 0 7.452-3.336 7.452-7.452s-3.336-7.452-7.452-7.452-7.452 3.336-7.452 7.452c0 4.115 3.336 7.452 7.452 7.452z"/><ellipse cx="56.511" cy="311.139" rx="7.452" ry="7.452" transform="matrix(.987 -.16 .16 .987 -49.109 13.07)"/><path d="m504.625 465.314h-14.323v-345.748c10.922-2.167 19.183-11.82 19.183-23.37 0-8.41-4.383-15.811-10.981-20.052 2.943-3.873 4.911-8.439 5.363-14.657.759-10.423-2.693-18.987-11.193-27.767-4.251-4.391-9.288-7.951-14.005-11.795-6.68-5.443-11.506-9.376-14.983-15.688-1.615-2.931-4.697-4.752-8.044-4.752s-6.429 1.821-8.044 4.753c-3.476 6.311-8.303 10.244-14.982 15.688-4.642 3.783-9.841 7.493-14.005 11.795-8.499 8.78-11.951 17.343-11.192 27.766.453 6.217 2.421 10.783 5.363 14.656-6.598 4.242-10.982 11.643-10.982 20.052 0 11.549 8.261 21.203 19.183 23.37v128.975h-68.263c11.862-11.35 19.753-23.715 21.16-43.053 1.766-24.269-6.477-44.42-26.728-65.336-11.141-11.507-24.404-20.81-36.773-30.89-20.077-16.36-36.016-29.358-46.802-52.421v-10.44c6.094-1.652 11.427-5.648 14.678-11.229 2.071-3.556.867-8.119-2.689-10.19-3.555-2.07-8.118-.867-10.19 2.689-1.677 2.88-4.786 4.669-8.113 4.669-9.94 0-12.824-14.138-3.647-18.021 3.79-1.604 5.563-5.976 3.96-9.767-1.603-3.79-5.975-5.564-9.767-3.96-9.008 3.81-14.828 12.591-14.828 22.37 0 10.365 6.53 19.23 15.691 22.707v11.152c-8.536 18.292-19.942 30.091-36.591 44.046-3.154 2.644-3.568 7.344-.924 10.499 2.644 3.154 7.345 3.568 10.498.924 14.331-12.013 25.591-23.116 34.479-37.788 11.773 19.38 27.311 32.041 44.83 46.316 11.895 9.692 24.774 18.644 35.48 29.702 17.501 18.077 24.041 33.689 22.571 53.887-1.424 19.569-10.463 29.25-29.207 44.135h-147.367c-18.744-14.884-27.783-24.566-29.207-44.135-1.47-20.198 5.069-35.81 22.571-53.887 5.412-5.59 11.598-10.472 18.147-15.642l.383-.303c3.231-2.55 3.782-7.236 1.232-10.466s-7.236-3.782-10.466-1.232l-.383.302c-6.645 5.245-13.516 10.669-19.62 16.974-20.251 20.917-28.495 41.068-26.729 65.336 1.407 19.338 9.298 31.702 21.16 43.053h-68.359v-128.975c10.922-2.167 19.182-11.821 19.182-23.369 0-8.41-4.383-15.811-10.982-20.052 2.943-3.873 4.911-8.44 5.364-14.657.758-10.424-2.694-18.987-11.194-27.767-9.189-9.489-22.43-15.575-28.986-27.481-1.615-2.932-4.697-4.754-8.045-4.754s-6.431 1.822-8.044 4.753c-3.476 6.311-8.302 10.244-14.982 15.687-8.651 7.05-18.415 13.95-22.901 24.643-1.98 4.721-2.668 9.827-2.297 14.919.452 6.217 2.42 10.784 5.363 14.657-6.598 4.241-10.981 11.642-10.981 20.052 0 11.55 8.262 21.203 19.185 23.37v345.747h-14.323c-4.116 0-7.452 3.336-7.452 7.452v31.936c0 4.116 3.336 7.452 7.452 7.452h497.096c4.116 0 7.452-3.336 7.452-7.452v-31.936c0-4.116-3.337-7.452-7.452-7.452zm-75.306-421.225c3.818-3.944 8.474-7.155 12.712-10.609 4.879-3.976 9.571-7.799 13.612-12.694 4.041 4.895 8.733 8.718 13.612 12.694 8.452 6.884 20.659 14.415 19.748 26.926-.356 4.885-2.142 7.372-7.77 11.963h-51.18c-5.628-4.592-7.414-7.078-7.77-11.963-.441-6.058 1.532-10.633 7.036-16.317zm-12.614 52.108c0-4.92 4.003-8.924 8.923-8.924h60.031c4.92 0 8.923 4.003 8.923 8.924 0 4.92-4.003 8.923-8.923 8.923h-60.031c-4.92 0-8.923-4.003-8.923-8.923zm58.693 23.827v345.29h-39.51v-345.29zm-54.414 143.422v15.598h-329.814v-15.598zm-29.887 142.357c-4.116 0-7.452 3.336-7.452 7.452v52.058h-51.564v-113.488c0-14.216 11.566-25.782 25.782-25.782s25.782 11.566 25.782 25.782v26.922c0 4.116 3.336 7.452 7.452 7.452s7.452-3.336 7.452-7.452v-26.922c0-22.434-18.252-40.686-40.686-40.686s-40.686 18.252-40.686 40.686v113.488h-20.414v-113.488c0-22.434-18.252-40.686-40.686-40.686s-40.686 18.252-40.686 40.686v113.488h-20.414v-113.488c0-22.434-18.252-40.686-40.686-40.686s-40.686 18.252-40.686 40.686v113.488h-22.435v-171.01h329.814v171.011h-22.434v-52.058c-.001-4.116-3.337-7.453-7.453-7.453zm-109.238-53.978v113.488h-51.564v-113.488c0-14.216 11.566-25.782 25.782-25.782s25.782 11.566 25.782 25.782zm-101.786 0v113.488h-51.564v-113.488c0-14.216 11.566-25.782 25.782-25.782s25.782 11.566 25.782 25.782zm-149.887-307.736c1.783-1.842 10.562-8.857 12.713-10.61 4.878-3.975 9.57-7.798 13.611-12.693 4.04 4.894 8.733 8.717 13.611 12.693 8.558 6.974 20.672 14.258 19.749 26.927-.356 4.886-2.142 7.372-7.77 11.963h-51.18c-5.628-4.592-7.414-7.078-7.77-11.963-.441-6.058 1.532-10.633 7.036-16.317zm-12.615 52.108c0-4.92 4.003-8.924 8.924-8.924h60.03c4.921 0 8.924 4.003 8.924 8.924 0 4.92-4.003 8.923-8.924 8.923h-60.03c-4.921 0-8.924-4.003-8.924-8.923zm58.695 23.827v345.29h-39.51v-345.29zm420.907 377.225h-482.192v-17.031h482.192z"/><path d="m455.643 190.6c4.116 0 7.452-3.336 7.452-7.452s-3.336-7.452-7.452-7.452-7.452 3.336-7.452 7.452c0 4.115 3.336 7.452 7.452 7.452z"/><path d="m455.643 254.596c4.116 0 7.452-3.336 7.452-7.452s-3.336-7.452-7.452-7.452-7.452 3.336-7.452 7.452c0 4.115 3.336 7.452 7.452 7.452z"/><ellipse cx="455.643" cy="311.139" rx="7.452" ry="7.452" transform="matrix(.383 -.924 .924 .383 -6.179 613.031)"/></g></g></svg>