<svg id="Capa_1" enable-background="new 0 0 512 512" height="512" viewBox="0 0 512 512" width="512" xmlns="http://www.w3.org/2000/svg"><g><g><path d="m435.54 384.434-31.423-10.374c-.303 2.383-1.001 4.744-2.118 6.987-26.692 53.615-82.041 90.453-145.999 90.453s-119.307-36.838-145.998-90.453c-1.117-2.243-1.815-4.604-2.118-6.987l-31.424 10.374c-16.389 5.411-27.46 20.724-27.46 37.984v77.082c0 2.761 2.239 5 5 5h404c2.761 0 5-2.239 5-5v-77.082c0-17.26-11.071-32.573-27.46-37.984z" fill="#433f43"/><path d="m256 471.5c-63.958 0-119.307-36.838-145.998-90.453-1.117-2.243-1.815-4.604-2.118-6.987l-31.424 10.374c-16.389 5.411-27.46 20.724-27.46 37.984v77.082c0 2.761 2.239 5 5 5h263v-44.817c-18.844 7.612-39.429 11.817-61 11.817z" fill="#685e68"/><g><g><g><path d="m89 499.5v-97.516c0-9.072 3.062-17.603 8.343-24.444l-20.883 6.894c-16.389 5.411-27.46 20.724-27.46 37.984v77.082c0 2.761 2.239 5 5 5h40c-2.761 0-5-2.239-5-5z" fill="#554e56"/></g></g></g><g><g><path d="m388.955 337.897v-197.442c0-73.429-59.526-132.955-132.955-132.955-73.429 0-132.955 59.526-132.955 132.955v197.441c0 6.414-2.798 12.509-7.661 16.69-7.625 6.556-9.863 17.459-5.382 26.461 26.691 53.615 82.04 90.453 145.998 90.453s119.307-36.838 145.998-90.453c4.482-9.002 2.243-19.905-5.382-26.461-4.863-4.181-7.661-10.276-7.661-16.689z" fill="#554e56"/></g></g><g><path d="m151 433.174v-274.998c0-21.612 11.431-40.549 28.573-51.112 12.672-48.984 52.56-87.013 102.573-96.988-8.454-1.685-17.196-2.576-26.146-2.576-73.429 0-132.955 59.526-132.955 132.955v197.441c0 6.414-2.798 12.509-7.661 16.69-7.625 6.556-9.863 17.459-5.382 26.461 10.058 20.204 24.19 38.021 41.314 52.387-.105-.087-.212-.172-.316-.26z" fill="#433f43"/></g><path d="m360.995 158h-209.99c0 .059-.004.117-.004.176v69.62h210v-69.62c-.001-.059-.005-.117-.006-.176z" fill="#ea9b58"/><path d="m181.004 158h-30c0 .059-.004.117-.004.176v69.62h30v-69.62c0-.059.004-.117.004-.176z" fill="#d88a55"/><g><g><path d="m151 433.174c28.362 23.914 64.997 38.326 105 38.326s76.638-14.413 105-38.326v-205.378h-210z" fill="#685e68"/></g></g><g><g><path d="m181 227.796h-30v205.378c9.186 7.745 19.245 14.487 30 20.072z" fill="#554e56"/></g></g><g><g><path d="m151.004 158h209.991c-.095-33.055-26.917-59.824-59.995-59.824h-90c-33.078 0-59.9 26.769-59.996 59.824z" fill="#685e68"/></g></g><g><g><path d="m242.005 98.176h-31.005c-33.078 0-59.9 26.768-59.995 59.824h31.005c.095-33.055 26.917-59.824 59.995-59.824z" fill="#554e56"/></g></g></g><g><path d="m201.105 208.5c4.142 0 7.5-3.358 7.5-7.5v-14.692c0-4.142-3.358-7.5-7.5-7.5s-7.5 3.358-7.5 7.5v14.692c0 4.142 3.358 7.5 7.5 7.5z"/><path d="m310.895 208.5c4.142 0 7.5-3.358 7.5-7.5v-14.692c0-4.142-3.358-7.5-7.5-7.5s-7.5 3.358-7.5 7.5v14.692c0 4.142 3.357 7.5 7.5 7.5z"/><path d="m463 446.5c4.142 0 7.5-3.358 7.5-7.5v-16.582c0-20.54-13.104-38.666-32.609-45.106l-26.232-8.66c-.67-7.453-4.152-14.593-10.153-19.752-3.21-2.76-5.051-6.77-5.051-11.003v-21.897c0-4.142-3.358-7.5-7.5-7.5s-7.5 3.358-7.5 7.5v21.896c0 8.609 3.744 16.765 10.271 22.377 5.045 4.337 6.507 11.505 3.557 17.431-6.991 14.043-16.043 26.876-26.784 38.13l-.004-257.857c-.107-37.109-30.385-67.301-67.495-67.301h-11c-4.142 0-7.5 3.358-7.5 7.5s3.358 7.5 7.5 7.5h11c26.31 0 48.205 19.51 51.935 44.824h-193.87c3.73-25.314 25.625-44.824 51.935-44.824h44c4.142 0 7.5-3.358 7.5-7.5s-3.358-7.5-7.5-7.5h-44c-37.11 0-67.388 30.191-67.496 67.302l-.004 257.857c-10.741-11.254-19.793-24.087-26.784-38.131-2.95-5.926-1.488-13.093 3.557-17.431 6.528-5.612 10.271-13.769 10.271-22.377v-197.441c0-69.176 56.28-125.455 125.456-125.455s125.456 56.279 125.456 125.455v140.545c0 4.142 3.358 7.5 7.5 7.5s7.5-3.358 7.5-7.5v-140.545c0-77.447-63.009-140.455-140.456-140.455s-140.456 63.008-140.456 140.455v197.441c0 4.233-1.841 8.244-5.051 11.003-6.001 5.159-9.482 12.299-10.153 19.752l-26.233 8.66c-19.504 6.44-32.608 24.566-32.608 45.106v77.083c0 6.893 5.607 12.5 12.5 12.5h404c6.893 0 12.5-5.607 12.5-12.5v-25.5c0-4.142-3.358-7.5-7.5-7.5s-7.5 3.358-7.5 7.5v23h-131v-32.349c7.749-3.401 15.269-7.373 22.481-11.933 26.458-16.726 47.804-40.354 61.73-68.328.131-.263.233-.532.356-.797l24.121 7.963c13.345 4.406 22.312 16.808 22.312 30.862v16.582c.001 4.142 3.359 7.5 7.501 7.5zm-153.5 50.5h-253v-74.582c0-14.053 8.966-26.456 22.311-30.862l24.121-7.963c.122.265.225.534.356.797 13.927 27.975 35.273 51.603 61.73 68.329 27.197 17.193 58.658 26.281 90.982 26.281 18.318 0 36.356-2.925 53.5-8.583zm44-67.383c-4.631 3.731-9.473 7.223-14.534 10.422-24.795 15.676-53.484 23.961-82.966 23.961s-58.171-8.285-82.966-23.96c-5.061-3.199-9.902-6.691-14.534-10.422v-194.322h195zm0-209.321h-90v-23.526c0-4.142-3.358-7.5-7.5-7.5s-7.5 3.358-7.5 7.5v23.526h-90v-54.796h195z"/></g></g></svg>