<svg id="Capa_1" enable-background="new 0 0 512 512" height="512" viewBox="0 0 512 512" width="512" xmlns="http://www.w3.org/2000/svg"><g><g><path d="m503.029 252.435-69.832-69.832v-98.758c0-2.785-2.257-5.042-5.042-5.042h-98.757l-69.833-69.832c-1.969-1.969-5.162-1.969-7.131 0l-69.832 69.832h-98.757c-2.785 0-5.042 2.257-5.042 5.042v98.757l-69.832 69.833c-1.969 1.969-1.969 5.162 0 7.131l69.832 69.832v98.757c0 2.785 2.257 5.042 5.042 5.042h98.757l69.832 69.832c1.969 1.969 5.162 1.969 7.131 0l69.832-69.832h98.757c2.785 0 5.042-2.257 5.042-5.042v-98.757l69.832-69.832c1.97-1.97 1.97-5.162.001-7.131z" fill="#4fc123"/></g><g><g><path d="m119.304 428.155v-105.018c0-2.649-1.051-5.189-2.921-7.064l-56.387-56.509c-1.969-1.969-1.969-5.161 0-7.131l56.387-56.508c1.871-1.875 2.921-4.415 2.921-7.064v-105.016c0-2.785 2.257-5.042 5.042-5.042h-40.501c-2.785 0-5.042 2.257-5.042 5.042v98.757l-69.832 69.833c-1.969 1.969-1.969 5.161 0 7.131l69.832 69.832v98.757c0 2.785 2.257 5.042 5.042 5.042h40.501c-2.784 0-5.042-2.258-5.042-5.042z" fill="#47a920"/></g></g><g><g><g><path d="m390.548 251.64c-13.892 39.279-51.353 67.42-95.39 67.42-55.749 0-101.16-45.411-101.16-101.16.001-44.037 28.141-81.498 67.421-95.39 3.43-1.213 2.624-6.273-1.013-6.386-1.463-.046-2.932-.068-4.406-.068-77.874 0-141.003 63.129-141.003 141.003 0 78.104 62.9 141.004 141.004 141.004 77.874 0 141.003-63.13 141.003-141.003 0-1.474-.023-2.943-.069-4.406-.113-3.638-5.173-4.444-6.387-1.014z" fill="#fed402"/></g><g><g><path d="m286.001 368.002c-78.104 0-141.004-62.9-141.004-141.004 0-31.227 10.158-60.077 27.34-83.442-34.779 25.678-57.341 66.953-57.341 113.503 0 78.104 62.9 141.004 141.004 141.004 46.647 0 87.996-22.657 113.662-57.56-23.403 17.279-52.337 27.499-83.661 27.499z" fill="#fac600"/></g></g><g><path d="m293.802 160.124 18.342 30.041c.394.645 1.029 1.106 1.764 1.281l34.239 8.161c2.065.492 2.878 2.994 1.497 4.606l-22.903 26.728c-.492.574-.734 1.32-.674 2.073l2.818 35.085c.17 2.116-1.958 3.662-3.918 2.846l-32.497-13.522c-.698-.29-1.482-.29-2.18 0l-32.497 13.522c-1.96.815-4.088-.731-3.918-2.847l2.818-35.085c.06-.753-.182-1.499-.674-2.073l-22.903-26.728c-1.381-1.612-.568-4.114 1.497-4.606l34.239-8.161c.735-.175 1.37-.636 1.764-1.281l18.342-30.041c1.107-1.811 3.738-1.811 4.844.001z" fill="#fed402"/></g><g><path d="m353.948 115.296 6.71 10.99c.394.645 1.029 1.106 1.764 1.281l12.525 2.986c2.065.492 2.878 2.994 1.497 4.606l-8.378 9.778c-.492.574-.734 1.32-.674 2.073l1.031 12.835c.17 2.116-1.958 3.662-3.918 2.847l-11.888-4.947c-.698-.29-1.482-.29-2.18 0l-11.888 4.947c-1.96.815-4.088-.731-3.918-2.847l1.031-12.835c.061-.753-.182-1.499-.674-2.073l-8.378-9.778c-1.381-1.612-.568-4.114 1.497-4.606l12.525-2.986c.735-.175 1.37-.636 1.764-1.281l6.71-10.99c1.106-1.811 3.736-1.811 4.842 0z" fill="#fed402"/></g></g></g><g><path d="m508.333 247.131-67.635-67.635v-95.651c0-6.916-5.627-12.542-12.543-12.542h-95.651l-67.637-67.637c-4.89-4.887-12.846-4.888-17.736.001l-67.635 67.635h-13.498c-4.142 0-7.5 3.358-7.5 7.5s3.358 7.5 7.5 7.5h16.605c1.989 0 3.897-.79 5.303-2.197l68.094-68.093 68.093 68.094c1.407 1.407 3.314 2.197 5.304 2.197h96.3v96.3c0 1.989.79 3.897 2.196 5.303l68.095 68.094-68.094 68.094c-1.406 1.406-2.196 3.314-2.196 5.303v33.605c0 4.142 3.358 7.5 7.5 7.5 4.143 0 7.5-3.358 7.5-7.5v-30.499l67.635-67.635c4.889-4.89 4.89-12.846 0-17.737z"/><path d="m433.198 390.503c-4.143 0-7.5 3.358-7.5 7.5v27.694h-96.3c-1.989 0-3.896.79-5.304 2.197l-68.094 68.093-68.094-68.094c-1.406-1.407-3.314-2.197-5.303-2.197h-96.3v-96.3c0-1.989-.79-3.897-2.197-5.303l-68.093-68.093 68.094-68.094c1.407-1.406 2.197-3.314 2.197-5.303v-96.3h44.694c4.142 0 7.5-3.358 7.5-7.5s-3.358-7.5-7.5-7.5h-47.153c-6.916 0-12.542 5.627-12.542 12.542v95.651l-67.636 67.636c-4.889 4.891-4.889 12.847.001 17.737l67.635 67.636v95.651c0 6.916 5.627 12.542 12.542 12.542h95.651l67.635 67.635c2.445 2.445 5.656 3.668 8.868 3.668s6.425-1.223 8.87-3.668l67.634-67.635h95.651c6.916 0 12.543-5.626 12.543-12.542v-30.152c.001-4.143-3.357-7.501-7.499-7.501z"/><path d="m260.642 108.628c-1.534-.048-3.096-.073-4.642-.073-81.885 0-148.503 66.618-148.503 148.503 0 39.778 15.416 77.101 43.41 105.094 27.993 27.993 65.316 43.41 105.094 43.41 81.885 0 148.503-66.618 148.503-148.503 0-1.522-.024-3.083-.072-4.64-.164-5.274-3.92-9.524-9.134-10.336-5.197-.812-10.064 2.09-11.821 7.056-13.203 37.335-48.695 62.42-88.318 62.421-23.604 0-46.173-8.86-63.551-24.949-17.282-16.001-27.859-37.645-29.783-60.943-.341-4.128-3.963-7.191-8.092-6.858-4.128.341-7.198 3.964-6.858 8.092 2.233 27.046 14.5 52.16 34.542 70.716 20.158 18.664 46.347 28.943 73.741 28.942 38.691 0 73.989-20.621 93.328-52.98-8.164 65.847-64.466 116.982-132.486 116.982-35.771 0-69.327-13.856-94.488-39.016-25.16-25.16-39.016-58.716-39.016-94.488 0-68.015 51.127-124.314 116.967-132.484-23.84 14.231-41.602 37.24-49.087 64.515-1.096 3.995 1.253 8.121 5.248 9.217 3.995 1.098 8.122-1.253 9.217-5.248 8.104-29.531 30.19-53.261 59.077-63.478 4.965-1.755 7.866-6.616 7.057-11.819-.811-5.213-5.062-8.97-10.333-9.133z"/><path d="m300.203 156.215s-.001-.001 0 0c-1.894-3.1-5.192-4.951-8.822-4.951-3.632 0-6.93 1.851-8.823 4.951l-17.331 28.385-32.352 7.712c-3.533.842-6.312 3.407-7.434 6.861s-.382 7.162 1.982 9.921l21.64 25.254-2.663 33.151c-.291 3.62 1.29 7.056 4.228 9.191 2.938 2.136 6.693 2.576 10.049 1.181l30.705-12.777 30.705 12.777c1.293.538 2.646.803 3.989.803 2.139 0 4.252-.672 6.057-1.983 2.939-2.135 4.52-5.571 4.229-9.191l-2.662-33.152 21.64-25.254c2.363-2.758 3.104-6.466 1.981-9.921-1.122-3.454-3.901-6.019-7.434-6.86l-32.352-7.712zm20.84 69.848c-1.776 2.076-2.67 4.828-2.451 7.552l2.206 27.472-25.446-10.588c-2.524-1.051-5.419-1.05-7.944 0l-25.445 10.588 2.207-27.472c.219-2.725-.676-5.479-2.454-7.554l-17.934-20.928 26.805-6.389c2.662-.633 5.007-2.336 6.431-4.67l14.363-23.522 14.361 23.521c1.426 2.336 3.77 4.039 6.427 4.67l26.81 6.391z"/><path d="m384.121 130.118c-1.123-3.454-3.901-6.019-7.435-6.861l-10.638-2.536-5.698-9.334s-.001-.001-.001-.001c-1.893-3.1-5.19-4.95-8.822-4.95-.001 0-.001 0-.002 0-3.632.001-6.93 1.852-8.821 4.951l-5.698 9.334-10.639 2.536c-3.532.842-6.312 3.407-7.434 6.861s-.382 7.163 1.982 9.921l7.116 8.304-.876 10.901c-.291 3.62 1.289 7.056 4.228 9.191 2.938 2.134 6.693 2.576 10.048 1.181l10.096-4.201 10.097 4.201c1.293.538 2.646.803 3.99.803 2.139 0 4.252-.672 6.057-1.984 2.939-2.135 4.52-5.571 4.229-9.191l-.875-10.902 7.116-8.304c2.362-2.758 3.102-6.466 1.98-9.92zm-21.753 9.94c-1.776 2.076-2.67 4.828-2.451 7.551l.419 5.223-4.838-2.013c-1.262-.525-2.616-.787-3.971-.787s-2.709.263-3.972.788l-4.836 2.013.419-5.222c.219-2.723-.675-5.476-2.454-7.554l-3.409-3.979 5.097-1.215c2.659-.634 5.001-2.335 6.426-4.668l2.73-4.471 2.731 4.472c1.425 2.333 3.767 4.034 6.426 4.668l5.096 1.215z"/></g></g></svg>