<svg id="Capa_1" enable-background="new 0 0 512 512" height="512" viewBox="0 0 512 512" width="512" xmlns="http://www.w3.org/2000/svg"><g><g><path d="m317.569 336.999h-61.569-61.569s-21.282 20.296-22.534 54.852h84.103 84.103c-1.252-34.556-22.534-54.852-22.534-54.852z" fill="#dd7f66"/></g><g><path d="m340.103 391.85h-22.973c-1.261-34.554-22.542-54.854-22.542-54.854h22.982s21.281 20.3 22.533 54.854z" fill="#d6694b"/></g><g><path d="m7.609 294.02c1.47 5.728 5.149 16.863 13.258 26.852 8.387 10.332 21.145 16.128 34.452 16.128h401.362c13.307 0 26.065-5.796 34.452-16.127 8.109-9.989 11.788-21.124 13.258-26.852.504-1.965-.991-3.871-3.019-3.871h-490.744c-2.028-.001-3.523 1.905-3.019 3.87z" fill="#dd7f66"/></g><g><path d="m504.393 294.024c-1.471 5.726-5.155 16.856-13.263 26.846-8.388 10.33-21.141 16.126-34.454 16.126h-22.022c13.313 0 26.066-5.796 34.454-16.126 8.108-9.99 11.792-21.121 13.263-26.846.5-1.972-.991-3.874-3.023-3.874h22.022c2.032 0 3.524 1.902 3.023 3.874z" fill="#d6694b"/></g><g><path d="m382.936 125.811-85.109 147.413c-4.343 7.523 1.086 16.926 9.772 16.926h170.218c8.686 0 14.115-9.403 9.772-16.926l-85.109-147.413c-4.343-7.523-15.201-7.523-19.544 0z" fill="#fece85"/></g><g><path d="m477.813 290.145h-7.444l-66.866-36.666c-14.905-8.173-23.771-24.198-22.778-41.168l5.264-89.948c5.147-3.81 12.969-2.666 16.492 3.45l85.109 147.407c4.345 7.526-1.088 16.925-9.777 16.925z" fill="#fea95c"/></g><g><path d="m477.813 290.141h-7.257c.135-2.097-.329-4.281-1.508-6.33l-83.996-145.476.937-15.974c5.151-3.807 12.969-2.667 16.496 3.45l85.107 147.409c4.339 7.528-1.092 16.921-9.779 16.921z" fill="#fe9738"/></g><g><path d="m266.032 125.811-85.109 147.413c-4.343 7.523 1.086 16.926 9.772 16.926h170.218c8.686 0 14.115-9.403 9.772-16.926l-85.109-147.413c-4.343-7.523-15.201-7.523-19.544 0z" fill="#fece85"/></g><g><path d="m360.91 290.145h-7.444l-66.866-36.667c-14.905-8.173-23.771-24.198-22.778-41.168l5.264-89.948c5.147-3.81 12.969-2.666 16.492 3.45l85.109 147.407c4.344 7.527-1.089 16.926-9.777 16.926z" fill="#fea95c"/></g><g><path d="m360.909 290.141h-7.257c.135-2.097-.329-4.281-1.508-6.33l-83.996-145.476.937-15.974c5.151-3.807 12.968-2.667 16.496 3.45l85.107 147.409c4.339 7.528-1.092 16.921-9.779 16.921z" fill="#fe9738"/></g><g><path d="m149.128 125.811-85.109 147.412c-4.343 7.523 1.086 16.926 9.772 16.926h170.218c8.686 0 14.115-9.403 9.772-16.926l-85.109-147.413c-4.343-7.522-15.201-7.522-19.544.001z" fill="#fece85"/></g><g><path d="m244.006 290.145h-7.444l-66.866-36.666c-14.905-8.173-23.771-24.198-22.778-41.168l5.264-89.948c5.147-3.81 12.969-2.666 16.492 3.45l85.109 147.407c4.344 7.526-1.088 16.925-9.777 16.925z" fill="#fea95c"/></g><g><path d="m244.005 290.141h-7.257c.135-2.097-.329-4.281-1.508-6.33l-83.996-145.476.937-15.974c5.151-3.807 12.968-2.667 16.496 3.45l85.107 147.409c4.339 7.528-1.092 16.921-9.779 16.921z" fill="#fe9738"/></g><g><path d="m116.489 239.947h-86.939c-3.974 0-7.07 3.448-6.627 7.397 1.121 9.983 5.728 28.199 23.713 42.805h52.767c17.985-14.606 22.591-32.823 23.713-42.805.443-3.95-2.653-7.397-6.627-7.397z" fill="#f9f3f1"/></g><g><path d="m123.12 247.349c-1.121 9.979-5.736 28.198-23.713 42.802h-20.02c17.978-14.604 22.592-32.822 23.713-42.802.44-3.954-2.652-7.397-6.627-7.397h20.02c3.974-.001 7.067 3.443 6.627 7.397z" fill="#efe2dd"/></g><path d="m509.77 286.755c-2.027-2.614-5.089-4.113-8.398-4.113h-5.129c.928-4.431.214-9.08-2.15-13.177l-85.105-147.4c-2.712-4.707-7.115-7.906-12.401-9.007-8.136-1.695-16.037 1.872-20.153 8.999-.004.007-21.028 36.422-42.177 73.053l-42.174-73.046c-2.712-4.706-7.115-7.905-12.401-9.006-7.912-1.648-16.133 2.039-20.152 8.999l-42.177 73.053c-21.148-36.628-42.172-73.041-42.174-73.045-7.149-12.383-25.46-12.292-32.553-.008-.029.05-28.452 49.28-28.452 49.28-2.073 3.591-.843 8.182 2.748 10.255 3.589 2.073 8.181.842 10.255-2.748l15.778-27.328-3.532 60.356c-1.156 19.758 9.31 38.673 26.664 48.189l41.179 22.581h-15.719-74.59c9.706-13.062 12.719-26.445 13.62-34.461.449-3.999-.832-8.013-3.514-11.013-2.687-3.005-6.541-4.728-10.573-4.728h-20.255l13.586-23.532c2.073-3.591.843-8.182-2.748-10.255-3.592-2.074-8.182-.843-10.255 2.748l-17.921 31.04h-49.347c-4.033 0-7.887 1.723-10.574 4.729-2.682 3-3.962 7.015-3.513 11.013.9 8.015 3.913 21.399 13.619 34.46h-18.453c-3.309 0-6.37 1.499-8.398 4.113-2.023 2.608-2.713 5.936-1.892 9.13 1.626 6.338 5.697 18.627 14.701 29.719 9.752 12.013 24.434 18.903 40.281 18.903h123.758c-6.534 10.241-13.928 26.264-14.682 47.073-.074 2.037.684 4.016 2.099 5.483s3.366 2.296 5.404 2.296h168.205c2.038 0 3.989-.829 5.404-2.296s2.172-3.447 2.099-5.483c-.754-20.809-8.148-36.832-14.682-47.073h36.285c4.147 0 7.507-3.361 7.507-7.507s-3.361-7.507-7.507-7.507h-313.892c-11.302 0-21.735-4.867-28.624-13.352-5.129-6.319-8.275-13.19-10.138-18.484h478.885c-1.863 5.293-5.009 12.165-10.139 18.484-6.888 8.485-17.321 13.352-28.623 13.352h-52.776c-4.147 0-7.507 3.361-7.507 7.507s3.361 7.507 7.507 7.507h52.776c15.847 0 30.528-6.89 40.28-18.903 9.005-11.091 13.076-23.38 14.702-29.717.82-3.197.13-6.525-1.892-9.133zm-312.052 57.752h116.562c4.346 5.071 14.804 19.135 17.647 39.837h-151.855c2.845-20.714 13.313-34.783 17.646-39.837zm-101.065-61.865h-47.268c-13.838-12.23-17.791-26.823-18.886-35.188h85.041c-1.095 8.365-5.049 22.958-18.887 35.188zm147.353-.005h-5.521l-65.179-35.742c-12.296-6.743-19.713-20.146-18.894-34.147l4.978-85.046c.109.013.218.031.325.053.734.153 1.756.59 2.458 1.809l85.108 147.406c1.439 2.495-.371 5.667-3.275 5.667zm18.429.005c.928-4.431.214-9.08-2.151-13.177 0 0-16.081-27.852-34.262-59.341l33.837-58.607-3.532 60.356c-1.156 19.757 9.31 38.673 26.663 48.189l41.179 22.581h-61.734zm98.474-.005h-5.52l-65.179-35.742c-12.297-6.743-19.713-20.146-18.894-34.147l4.977-85.046c.109.013.218.031.327.053.733.153 1.755.59 2.457 1.809l85.108 147.406c1.438 2.493-.381 5.666-3.276 5.667zm18.43.005c.928-4.431.214-9.08-2.151-13.177l-34.262-59.341 33.838-58.609-3.533 60.357c-1.156 19.758 9.31 38.673 26.664 48.189l41.179 22.581zm101.75-1.894c-.327.568-1.304 1.89-3.276 1.89h-5.52l-65.179-35.742c-12.297-6.743-19.714-20.146-18.894-34.146l4.977-85.046c.109.013.218.031.326.053.734.153 1.755.59 2.458 1.809l85.108 147.406c.984 1.705.328 3.208 0 3.776z"/></g></svg>