<svg id="Capa_1" enable-background="new 0 0 512 512" height="512" viewBox="0 0 512 512" width="512" xmlns="http://www.w3.org/2000/svg"><g><g><path d="m444.923 504.513h-377.846c-7.98 0-14.449-6.469-14.449-14.449v-430.179c0-7.98 6.469-14.449 14.449-14.449h377.845c7.98 0 14.449 6.469 14.449 14.449v430.179c.001 7.98-6.469 14.449-14.448 14.449z" fill="#f9f3f1"/></g><g><path d="m459.372 154.581h-406.743v-94.696c0-7.98 6.469-14.449 14.449-14.449h377.845c7.98 0 14.449 6.469 14.449 14.449z" fill="#ade194"/></g><g><path d="m459.374 59.888v430.179c0 7.976-6.469 14.445-14.455 14.445h-19.966c7.986 0 14.455-6.469 14.455-14.445v-430.179c0-7.986-6.469-14.456-14.455-14.456h19.966c7.986.001 14.455 6.47 14.455 14.456z" fill="#f3eae6"/></g><g><path d="m459.374 59.888v94.689h-19.966v-94.689c0-7.986-6.469-14.456-14.455-14.456h19.966c7.986.001 14.455 6.47 14.455 14.456z" fill="#97da7b"/></g><g><g><path d="m127.37 78.128c-8.542 0-15.467-6.925-15.467-15.467v-39.707c0-8.542 6.925-15.467 15.467-15.467 8.542 0 15.467 6.925 15.467 15.467v39.707c0 8.542-6.925 15.467-15.467 15.467z" fill="#7a6d79"/></g><g><path d="m384.63 78.128c-8.542 0-15.467-6.925-15.467-15.467v-39.707c0-8.542 6.925-15.467 15.467-15.467 8.542 0 15.467 6.925 15.467 15.467v39.707c0 8.542-6.925 15.467-15.467 15.467z" fill="#7a6d79"/></g></g><g><g><path d="m142.832 22.951v39.712c0 8.536-6.918 15.464-15.464 15.464-2.815 0-5.461-.759-7.727-2.076 4.622-2.676 7.727-7.667 7.727-13.387v-39.713c0-4.263-1.727-8.136-4.522-10.931-.949-.948-2.027-1.777-3.205-2.456 2.266-1.318 4.912-2.076 7.727-2.076 4.273 0 8.136 1.737 10.932 4.532 2.805 2.795 4.532 6.668 4.532 10.931z" fill="#685e68"/></g><g><path d="m400.095 22.951v39.712c0 8.536-6.918 15.464-15.464 15.464-2.815 0-5.461-.759-7.727-2.076 4.622-2.676 7.727-7.667 7.727-13.387v-39.713c0-4.263-1.727-8.136-4.532-10.931-.949-.948-2.017-1.777-3.195-2.456 2.266-1.318 4.912-2.076 7.727-2.076 4.273 0 8.136 1.737 10.931 4.532 2.806 2.795 4.533 6.668 4.533 10.931z" fill="#685e68"/></g></g><g><path d="m372.392 354.651 23.819-23.819c.71-.71.71-1.86 0-2.569l-23.819-23.819c-.341-.341-.532-.803-.532-1.285v-87.654c0-1.003-.813-1.817-1.817-1.817h-87.654c-.482 0-.944-.191-1.285-.532l-23.819-23.819c-.71-.71-1.86-.71-2.57 0l-23.819 23.819c-.341.341-.803.532-1.285.532h-87.654c-1.003 0-1.817.813-1.817 1.817v87.654c0 .482-.191.944-.532 1.285l-23.819 23.819c-.71.71-.71 1.86 0 2.569l23.819 23.819c.341.341.532.803.532 1.285v87.654c0 1.003.813 1.817 1.817 1.817h87.654c.482 0 .944.191 1.285.532l23.819 23.819c.71.71 1.86.71 2.569 0l23.819-23.819c.341-.341.803-.532 1.285-.532h87.654c1.003 0 1.817-.813 1.817-1.817v-87.654c.001-.483.192-.945.533-1.285z" fill="#ade194"/></g><g><path d="m262.958 445.403h19.427c-.479 0-.938.2-1.278.539l-23.819 23.819c-.709.709-1.867.709-2.576 0l-8.426-8.426 15.384-15.394c.34-.338.809-.538 1.288-.538z" fill="#97da7b"/></g><g><path d="m281.107 213.158c.34.34.799.529 1.278.529h-19.427c-.479 0-.948-.19-1.288-.529l-15.384-15.384 8.426-8.436c.709-.709 1.867-.709 2.576 0z" fill="#97da7b"/></g><g><path d="m396.212 330.828-23.819 23.82c-.34.339-.529.809-.529 1.288v87.651c0 1.008-.819 1.817-1.817 1.817h-19.437c1.008 0 1.817-.809 1.817-1.817v-87.651c0-.479.19-.948.539-1.288l23.82-23.82c.709-.709.709-1.857 0-2.566l-23.82-23.82c-.349-.339-.539-.799-.539-1.288v-87.651c0-1.008-.809-1.817-1.817-1.817h19.437c.998 0 1.817.809 1.817 1.817v87.651c0 .489.19.948.529 1.288l23.819 23.82c.708.709.708 1.857 0 2.566z" fill="#97da7b"/></g><g><g><path d="m337.195 368.168c-14.321 27.659-43.201 46.557-76.5 46.561-47.196.006-85.336-37.486-86.097-84.676-.678-42.02 28.754-77.286 68.128-85.644 1.966-.417 3.079 2.197 1.419 3.33-19.66 13.42-32.56 36.011-32.531 61.62.046 40.571 33.055 73.915 73.624 74.35 18.745.201 35.918-6.526 49.108-17.781 1.538-1.312 3.779.444 2.849 2.24z" fill="#fee97d"/></g></g><g><g><path d="m337.192 368.164c-3.544 6.838-7.966 13.138-13.138 18.748-13.767 9.154-30.338 14.415-48.148 14.216-46.551-.499-84.437-38.764-84.486-85.325-.03-24.329 10.113-46.281 26.405-61.855 7.637-4.403 16.013-7.657 24.898-9.544 1.967-.409 3.085 2.206 1.418 3.334-19.657 13.417-32.555 36.009-32.525 61.615.04 40.571 33.054 73.924 73.625 74.354 18.738.2 35.919-6.529 49.106-17.78 1.537-1.306 3.773.441 2.845 2.237z" fill="#fedf30"/></g></g><g><path d="m444.923 37.949h-37.339v-14.995c0-12.657-10.297-22.954-22.954-22.954-12.656 0-22.953 10.297-22.953 22.954v14.996h-211.352v-14.996c0-12.657-10.297-22.954-22.955-22.954-12.657 0-22.954 10.297-22.954 22.954v14.996h-37.339c-12.096 0-21.936 9.841-21.936 21.936v430.179c0 12.096 9.841 21.936 21.936 21.936h377.845c12.096 0 21.936-9.84 21.936-21.936v-430.18c.001-12.095-9.84-21.936-21.935-21.936zm-68.272-14.995c0-4.4 3.579-7.979 7.979-7.979s7.98 3.579 7.98 7.979v39.707c0 4.4-3.58 7.979-7.98 7.979s-7.979-3.58-7.979-7.979zm-257.26 0c0-4.4 3.58-7.979 7.98-7.979s7.98 3.579 7.98 7.979v39.707c0 4.4-3.58 7.979-7.98 7.979s-7.98-3.58-7.98-7.979zm332.493 124.14h-306.06c-4.135 0-7.487 3.352-7.487 7.487s3.352 7.487 7.487 7.487h306.06v327.996c0 3.839-3.123 6.961-6.962 6.961h-377.845c-3.839 0-6.962-3.123-6.962-6.961v-327.996h51.788c4.135 0 7.487-3.352 7.487-7.487s-3.352-7.487-7.487-7.487h-51.787v-87.209c0-3.839 3.123-6.962 6.962-6.962h37.339v9.737c0 12.657 10.297 22.954 22.954 22.954s22.954-10.297 22.954-22.954v-9.737h211.352v9.737c0 12.657 10.297 22.954 22.953 22.954 12.657 0 22.954-10.297 22.954-22.954v-9.737h37.339c3.839 0 6.962 3.123 6.962 6.962v87.209z"/><path d="m132.653 215.504v85.305l-22.159 22.158c-3.628 3.628-3.628 9.531 0 13.158l22.159 22.158v85.306c0 5.13 4.174 9.304 9.304 9.304h85.306l22.158 22.158c1.758 1.757 4.094 2.725 6.58 2.725 2.487 0 4.825-.969 6.579-2.725l22.158-22.158h17.698c4.135 0 7.487-3.352 7.487-7.487s-3.352-7.487-7.487-7.487h-20.047c-2.483 0-4.818.967-6.579 2.725l-19.81 19.809-19.812-19.813c-1.758-1.755-4.093-2.721-6.576-2.721h-81.984v-81.984c0-2.482-.966-4.817-2.725-6.579l-19.81-19.81 19.813-19.813c1.756-1.757 2.722-4.092 2.722-6.575v-81.984h81.984c2.483 0 4.818-.967 6.58-2.725l19.808-19.809 19.813 19.813c1.758 1.755 4.093 2.722 6.576 2.722h81.984v81.984c0 2.483.966 4.817 2.725 6.579l19.81 19.81-19.813 19.813c-1.756 1.757-2.722 4.092-2.722 6.575v81.984h-26.958c-4.135 0-7.487 3.352-7.487 7.487s3.352 7.487 7.487 7.487h32.629c5.13 0 9.304-4.174 9.304-9.304v-85.306l22.159-22.158c3.628-3.628 3.628-9.531 0-13.158l-22.159-22.158v-85.305c0-5.13-4.174-9.304-9.304-9.304h-85.306l-22.155-22.154c-1.757-1.76-4.094-2.729-6.582-2.729-2.485 0-4.822.968-6.58 2.725l-22.158 22.157h-85.306c-5.13 0-9.304 4.174-9.304 9.304z"/><path d="m248.365 253.924c3.727-2.544 5.09-7.222 3.314-11.377-1.776-4.154-6.099-6.4-10.508-5.462-43.635 9.261-74.781 48.411-74.06 93.089.4 24.799 10.299 47.974 27.872 65.254 17.569 17.275 40.899 26.788 65.712 26.788 35.129-.004 66.99-19.395 83.149-50.606 2.077-4.011 1.056-8.775-2.483-11.585-3.55-2.817-8.432-2.732-11.875.207-16.266 13.882-38.742 19.161-59.39 14.059-29.447-7.277-50.961-34.594-50.995-64.941-.025-22.18 10.915-42.9 29.264-55.426zm-44.238 55.443c.051 44.642 36.401 81.35 81.031 81.829 10.005.115 19.888-1.618 29.138-5.011-14.303 13.346-33.303 21.055-53.602 21.057-.004 0-.006 0-.01 0-20.847 0-40.452-7.987-55.201-22.49-14.752-14.507-23.063-33.976-23.399-54.819-.456-28.262 14.261-53.89 37.205-68.147-9.752 13.711-15.182 30.283-15.162 47.581z"/><path d="m284.965 308.177c0-5.514-4.469-9.983-9.983-9.983s-9.983 4.47-9.983 9.983 4.469 9.983 9.983 9.983 9.983-4.47 9.983-9.983z"/></g></g></svg>