<svg id="Capa_1" enable-background="new 0 0 512 512" height="512" viewBox="0 0 512 512" width="512" xmlns="http://www.w3.org/2000/svg"><g><path d="m344.691 245.457c8.521-13.821 13.233-28.984 13.233-44.893 0-47.437-41.839-88.265-101.924-106.537-60.085 18.272-101.924 59.1-101.924 106.537 0 15.909 4.712 31.072 13.233 44.893z" fill="#4fc123"/><path d="m209.243 245.457c-8.524-13.821-13.243-28.982-13.243-44.893 0-41.698 32.33-78.286 80.962-98.94-6.693-2.843-13.693-5.386-20.962-7.597-60.085 18.272-101.924 59.1-101.924 106.537 0 15.909 4.712 31.072 13.233 44.893z" fill="#47a920"/><path d="m365.689 271.558v-21.101c0-2.762-2.239-5-5-5h-209.378c-2.761 0-5 2.238-5 5v21.101z" fill="#d8aa5e"/><path d="m188 271.558v-21.101c0-2.762 2.239-5 5-5h-41.689c-2.761 0-5 2.238-5 5v21.101z" fill="#c99c56"/><g><path d="m95.554 124.75c4.349-6.185 6.786-13.104 6.786-20.409 0-19.336-17.054-35.978-41.546-43.426-24.492 7.448-41.546 24.09-41.546 43.426 0 7.305 2.437 14.224 6.786 20.409z" fill="#4fc123"/><path d="m57.701 124.75c-4.352-6.185-6.793-13.103-6.793-20.409 0-14.815 10.018-28.043 25.716-36.771-4.791-2.664-10.103-4.913-15.83-6.655-24.492 7.448-41.546 24.09-41.546 43.426 0 7.305 2.437 14.224 6.786 20.409z" fill="#47a920"/><path d="m24.878 124.75h71.832v210.82h-71.832z" fill="#fef1da"/><g><path d="m47.205 204.527c-4.143 0-7.5-3.358-7.5-7.5v-15.683c0-11.825 6.219-22.829 16.295-29.046v-27.548h-31.122v210.82h31.122v-131.043z" fill="#fae2c0"/></g><g><path d="m60.794 158.153c-8.093 4.584-13.59 13.274-13.59 23.191v15.683h27.18v-15.683c0-9.916-5.496-18.607-13.59-23.191z" fill="#d8aa5e"/></g><path d="m485.965 124.75c4.349-6.185 6.786-13.104 6.786-20.409 0-19.336-17.054-35.978-41.546-43.426-24.492 7.448-41.546 24.09-41.546 43.426 0 7.305 2.437 14.224 6.786 20.409z" fill="#4fc123"/><path d="m445.792 124.75c-4.351-6.185-6.792-13.104-6.792-20.409 0-15.178 10.511-28.694 26.876-37.408-4.483-2.387-9.403-4.417-14.67-6.018-24.492 7.448-41.546 24.09-41.546 43.426 0 7.305 2.437 14.224 6.786 20.409z" fill="#47a920"/><path d="m415.29 124.75h71.832v210.82h-71.832z" fill="#fef1da"/><g><path d="m437.615 215.473c-4.143 0-7.5-3.358-7.5-7.5v-15.683c0-11.825 6.219-22.828 16.296-29.046v-38.494h-31.121v210.82h31.122v-120.097z" fill="#fae2c0"/></g><g><path d="m451.206 169.099c-8.093 4.584-13.59 13.274-13.59 23.191v15.683h27.18v-15.683c-.001-9.916-5.497-18.607-13.59-23.191z" fill="#d8aa5e"/></g></g><g fill="#4fc123"><path d="m499.5 335.571h-109.937v143.664h109.937c2.761 0 5-2.238 5-5v-133.664c0-2.761-2.239-5-5-5z"/><path d="m12.5 335.571c-2.761 0-5 2.239-5 5v133.664c0 2.762 2.239 5 5 5h109.938v-143.664z"/></g><path d="m397.063 471.735h12.071v-38.708c0-14.355 4.622-24.151 11.866-31.823v-58.133h-23.938v128.664z" fill="#47a920"/><path d="m15 471.735h11.5v-38.708c0-14.115 4.465-23.824 11.5-31.439v-58.518h-23z" fill="#47a920"/><g><path d="m389.563 479.235h-267.125v-202.677c0-2.761 2.239-5 5-5h257.125c2.761 0 5 2.239 5 5z" fill="#fef1da"/></g><g><path d="m169 271.558h-41.563c-2.761 0-5 2.239-5 5v202.677h41.563v-202.677c0-2.762 2.239-5 5-5z" fill="#fae2c0"/></g><g><path d="m256 308.59c-35.527 20.122-59.655 27.905-59.655 71.438v99.208h119.31v-99.208c0-43.534-24.128-51.316-59.655-71.438z" fill="#d8aa5e"/></g><g><path d="m227.69 390.438c0-40.892 21.291-50.242 53.32-67.903-7.434-4.378-15.838-8.75-25.01-13.945-35.527 20.122-59.655 27.905-59.655 71.438v99.208h31.345z" fill="#c99c56"/></g><g><g><g><path d="m64.683 391.465c-18.273 10.35-30.683 19.172-30.683 41.562v46.208h61.366v-46.208c0-22.39-12.41-31.212-30.683-41.562z" fill="#d8aa5e"/></g></g><g><path d="m55 443.562c0-21.205 11.135-30.241 27.835-39.929-4.929-4.406-11.101-8.174-18.152-12.168-18.273 10.349-30.683 19.171-30.683 41.562v46.208h21z" fill="#c99c56"/></g><g><g><path d="m447.317 391.465c-18.273 10.349-30.683 19.171-30.683 41.562v46.208h61.366v-46.208c0-22.39-12.41-31.212-30.683-41.562z" fill="#d8aa5e"/></g></g><g><path d="m440 443.562c0-20.589 10.497-29.705 26.393-39.085-5.071-4.775-11.579-8.765-19.076-13.012-18.273 10.349-30.683 19.171-30.683 41.562v46.208h23.366z" fill="#c99c56"/></g></g><g><path d="m57.098 151.627c-10.729 6.077-17.393 17.464-17.393 29.717v15.683c0 4.142 3.357 7.5 7.5 7.5h27.18c4.143 0 7.5-3.358 7.5-7.5v-15.683c0-12.253-6.665-23.641-17.395-29.717-2.293-1.298-5.099-1.298-7.392 0zm9.787 37.9h-12.18v-8.183c0-5.324 2.258-10.361 6.089-13.949 3.833 3.587 6.091 8.625 6.091 13.949z"/><path d="m447.51 162.573c-10.729 6.077-17.395 17.464-17.395 29.717v15.683c0 4.142 3.357 7.5 7.5 7.5h27.18c4.143 0 7.5-3.358 7.5-7.5v-15.683c0-12.253-6.664-23.641-17.393-29.717-2.292-1.298-5.098-1.299-7.392 0zm9.785 37.9h-12.18v-8.183c0-5.324 2.258-10.361 6.091-13.949 3.831 3.587 6.089 8.625 6.089 13.949z"/><path d="m499.5 328.071h-4.879v-60.071c0-4.142-3.357-7.5-7.5-7.5s-7.5 3.358-7.5 7.5v60.071h-56.832v-195.821h56.832v100.75c0 4.142 3.357 7.5 7.5 7.5s7.5-3.358 7.5-7.5v-100.75h4.148c4.143 0 7.5-3.358 7.5-7.5s-3.357-7.5-7.5-7.5h-.673c1.407-4.167 2.155-8.492 2.155-12.909 0-20.674-16.125-39.402-41.545-48.81v-22.766c0-4.142-3.357-7.5-7.5-7.5s-7.5 3.358-7.5 7.5v22.766c-25.42 9.409-41.546 28.136-41.546 48.811 0 4.417.748 8.742 2.155 12.909h-.674c-4.143 0-7.5 3.358-7.5 7.5s3.357 7.5 7.5 7.5h4.148v195.82h-10.727v-51.513c0-6.893-5.607-12.5-12.5-12.5h-11.373v-13.601c0-6.893-5.607-12.5-12.5-12.5h-3.599c5.435-11.905 8.333-24.489 8.333-37.393 0-47.912-39.815-91.44-101.924-112.019v-43.161c0-4.142-3.357-7.5-7.5-7.5s-7.5 3.358-7.5 7.5v43.161c-62.109 20.579-101.924 64.107-101.924 112.019 0 12.904 2.899 25.487 8.333 37.393h-3.599c-6.893 0-12.5 5.607-12.5 12.5v13.601h-11.373c-6.893 0-12.5 5.607-12.5 12.5v51.513h-10.727v-66.071c0-4.142-3.357-7.5-7.5-7.5s-7.5 3.358-7.5 7.5v66.071h-56.83v-195.821h56.832v94.75c0 4.142 3.357 7.5 7.5 7.5s7.5-3.358 7.5-7.5v-94.75h4.148c4.143 0 7.5-3.358 7.5-7.5s-3.357-7.5-7.5-7.5h-.674c1.407-4.167 2.155-8.492 2.155-12.909 0-20.674-16.126-39.402-41.546-48.811v-22.765c0-4.142-3.357-7.5-7.5-7.5s-7.5 3.358-7.5 7.5v22.766c-25.42 9.409-41.545 28.136-41.545 48.81 0 4.417.748 8.742 2.155 12.909h-.674c-4.143 0-7.5 3.358-7.5 7.5s3.357 7.5 7.5 7.5h4.148v195.82h-4.878c-6.893 0-12.5 5.607-12.5 12.5v133.664c0 6.893 5.607 12.5 12.5 12.5h487c6.893 0 12.5-5.607 12.5-12.5v-133.663c0-6.893-5.607-12.5-12.5-12.5zm-438.706-259.283c20.761 6.949 34.046 20.737 34.046 35.554 0 4.449-1.206 8.803-3.446 12.909h-61.199c-2.24-4.106-3.446-8.46-3.446-12.909 0-14.817 13.284-28.606 34.045-35.554zm27.072 402.947h-46.366v-38.708c0-16.608 7.444-23.677 23.183-32.909 15.739 9.232 23.184 16.301 23.184 32.909v38.708zm27.072 0h-12.071v-38.708c0-26.407-15.619-37.402-34.487-48.088-2.293-1.299-5.1-1.299-7.393 0-18.869 10.687-34.487 21.682-34.487 48.088v38.708h-11.5v-128.664h99.938zm141.062-369.856c57.441 18.142 94.424 56.701 94.424 98.685 0 12.958-3.53 25.587-10.09 37.393h-168.668c-6.56-11.806-10.09-24.435-10.09-37.393 0-41.983 36.983-80.543 94.424-98.685zm-102.189 151.078h204.379v11.101h-204.379zm228.252 218.778h-58.907v-27.735c0-4.142-3.357-7.5-7.5-7.5s-7.5 3.358-7.5 7.5v27.735h-104.311v-91.708c0-34.266 15.766-42.895 44.386-58.56 2.524-1.382 5.109-2.796 7.77-4.277 2.66 1.48 5.245 2.895 7.77 4.277 28.62 15.666 44.386 24.294 44.386 58.56v28.973c0 4.142 3.357 7.5 7.5 7.5s7.5-3.358 7.5-7.5v-28.973c0-43.155-23.028-55.76-52.184-71.718-3.632-1.988-7.387-4.043-11.275-6.246-2.293-1.299-5.1-1.299-7.393 0-3.889 2.202-7.644 4.258-11.275 6.246-29.155 15.958-52.184 28.563-52.184 71.718v91.708h-58.907v-192.677h252.125v192.677zm69.143-402.947c20.761 6.949 34.045 20.738 34.045 35.554 0 4.449-1.206 8.803-3.446 12.909h-61.199c-2.24-4.106-3.446-8.46-3.446-12.909 0-14.817 13.285-28.606 34.046-35.554zm19.294 402.947h-46.366v-38.708c0-16.608 7.444-23.677 23.184-32.909 15.738 9.232 23.183 16.301 23.183 32.909v38.708zm26.5 0h-11.5v-38.708c0-26.407-15.618-37.401-34.486-48.088-2.292-1.298-5.099-1.299-7.393 0-18.868 10.686-34.487 21.681-34.487 48.088v38.708h-12.071v-128.664h99.937z"/></g></g></svg>