<svg id="Capa_1" enable-background="new 0 0 512 512" height="512" viewBox="0 0 512 512" width="512" xmlns="http://www.w3.org/2000/svg"><g><g><g><path d="m7.494 256c0 137.244 111.262 248.506 248.506 248.506s248.505-111.262 248.505-248.506-111.261-248.506-248.505-248.506-248.506 111.262-248.506 248.506zm410.672 121.197c-2.449 3.273-7.211 3.649-10.101.759l-274.022-274.021c-2.89-2.89-2.513-7.653.759-10.101 33.793-25.285 75.746-40.268 121.194-40.268 111.68-.002 202.439 90.756 202.438 202.436 0 45.448-14.983 87.402-40.268 121.195zm-364.601-121.199c0-45.449 14.984-87.402 40.269-121.195 2.449-3.273 7.211-3.649 10.101-.759l274.021 274.021c2.89 2.89 2.513 7.653-.759 10.101-33.793 25.285-75.746 40.268-121.195 40.268-111.679.002-202.437-90.756-202.437-202.436z" fill="#fd8087"/></g><g><path d="m330.541 18.872c90.364 37.2 153.986 126.126 153.986 229.905 0 137.244-111.262 248.506-248.506 248.506-25.912 0-50.886-3.966-74.371-11.318 29.089 11.947 60.955 18.54 94.35 18.54 137.244 0 248.506-111.261 248.506-248.506-.001-111.271-73.143-205.47-173.965-237.127z" fill="#fe646f"/></g></g><g><g><g><g><path d="m194.781 227.644c-28.967 0-52.533-23.566-52.533-52.534 0-28.967 23.566-52.533 52.533-52.533s52.534 23.566 52.534 52.533c-.001 28.967-23.567 52.534-52.534 52.534zm0-76.639c-13.292 0-24.105 10.813-24.105 24.105s10.813 24.105 24.105 24.105 24.106-10.814 24.106-24.105-10.814-24.105-24.106-24.105z" fill="#b5adb6"/></g></g><g><g><path d="m317.219 389.423c-28.967 0-52.534-23.566-52.534-52.533s23.566-52.534 52.534-52.534c28.967 0 52.533 23.566 52.533 52.534 0 28.966-23.566 52.533-52.533 52.533zm0-76.639c-13.292 0-24.105 10.814-24.105 24.106s10.814 24.105 24.105 24.105c13.292 0 24.105-10.813 24.105-24.105s-10.813-24.106-24.105-24.106z" fill="#b5adb6"/></g></g></g><g><g><path d="m183.825 378.298c-2.712 0-5.454-.775-7.879-2.394-6.528-4.359-8.287-13.185-3.929-19.714l144.323-216.165c4.36-6.528 13.184-8.288 19.714-3.929 6.528 4.359 8.287 13.185 3.929 19.714l-144.323 216.165c-2.74 4.103-7.245 6.323-11.835 6.323z" fill="#b5adb6"/></g></g></g><g><g><g><g><path d="m218.77 128.386c8.651 9.36 13.945 21.877 13.945 35.602 0 28.959-23.565 52.534-52.534 52.534-8.631 0-16.782-2.088-23.964-5.794 9.6 10.399 23.335 16.912 38.569 16.912 28.959 0 52.534-23.565 52.534-52.534-.001-20.328-11.618-37.989-28.55-46.72z" fill="#a79ba7"/></g></g><g><g><path d="m341.219 290.174c8.651 9.36 13.935 21.867 13.935 35.592 0 28.969-23.575 52.534-52.534 52.534-8.641 0-16.792-2.098-23.984-5.804 9.6 10.399 23.345 16.922 38.579 16.922 28.969 0 52.534-23.565 52.534-52.524 0-20.328-11.598-37.99-28.53-46.72z" fill="#a79ba7"/></g></g></g><g><g><path d="m339.981 155.807-144.316 216.17c-2.747 4.106-7.252 6.323-11.837 6.323-2.717 0-5.454-.779-7.882-2.397-2.228-1.488-3.896-3.486-4.955-5.744.08.01.15.01.23.01 4.595 0 9.09-2.218 11.837-6.323l144.316-216.16c2.877-4.305 3.097-9.61 1.029-13.965 2.637.03 5.294.809 7.652 2.377 6.523 4.355 8.291 13.185 3.926 19.709z" fill="#a79ba7"/></g></g></g><g><path d="m437.019 74.981c-48.352-48.352-112.639-74.981-181.019-74.981s-132.667 26.629-181.019 74.981-74.981 112.639-74.981 181.019c0 36.319 7.452 71.416 22.15 104.316 14.197 31.779 34.404 59.926 60.06 83.657 3.036 2.809 7.777 2.625 10.587-.413 2.809-3.037 2.625-7.777-.413-10.587-24.161-22.348-43.187-48.85-56.554-78.769-13.832-30.964-20.846-64.005-20.846-98.204 0-64.378 25.07-124.902 70.592-170.424 45.522-45.521 106.046-70.591 170.424-70.591s124.902 25.07 170.424 70.592 70.592 106.045 70.592 170.423-25.07 124.902-70.592 170.424-106.046 70.591-170.424 70.591c-49.418 0-96.91-14.845-137.338-42.931-3.399-2.362-8.068-1.52-10.427 1.879-2.361 3.398-1.52 8.067 1.878 10.427 42.951 29.838 93.398 45.61 145.887 45.61 68.38 0 132.667-26.628 181.019-74.981 48.352-48.352 74.981-112.639 74.981-181.019s-26.629-132.667-74.981-181.019z"/><path d="m404.745 364.041c-2.926-2.926-7.67-2.926-10.595 0-2.927 2.926-2.927 7.669-.001 10.595l8.618 8.618c2.664 2.665 6.264 4.146 10.004 4.146.337 0 .674-.012 1.013-.036 4.119-.295 7.903-2.364 10.382-5.677 27.321-36.514 41.761-79.974 41.762-125.684 0-56.015-21.853-108.716-61.534-148.396-39.68-39.68-92.382-61.533-148.396-61.532-45.709.001-89.17 14.442-125.683 41.762-3.313 2.479-5.383 6.262-5.677 10.381-.294 4.097 1.205 8.113 4.109 11.017l8.204 8.205c2.926 2.926 7.67 2.926 10.595 0 2.927-2.926 2.927-7.67.001-10.596l-7.541-7.541c33.754-25.021 73.842-38.242 115.992-38.243 52.012-.001 100.95 20.293 137.801 57.143s57.145 85.789 57.145 137.801c-.001 42.15-13.223 82.24-38.244 115.994z"/><path d="m108.349 149.051c2.925 2.927 7.668 2.926 10.595 0 2.926-2.926 2.926-7.669-.001-10.595l-9.709-9.709c-2.904-2.905-6.92-4.401-11.017-4.109-4.119.295-7.903 2.364-10.382 5.677-27.321 36.514-41.761 79.974-41.762 125.684 0 56.015 21.853 108.716 61.533 148.396s92.382 61.533 148.397 61.532c45.709 0 89.17-14.442 125.683-41.762 3.313-2.479 5.383-6.262 5.677-10.381.294-4.097-1.205-8.113-4.109-11.017l-8.204-8.205c-2.926-2.926-7.67-2.926-10.595 0-2.927 2.926-2.927 7.67-.001 10.596l7.541 7.541c-33.754 25.022-73.842 38.243-115.992 38.243-52.012 0-100.951-20.293-137.802-57.143s-57.144-85.789-57.144-137.801c.001-42.15 13.223-82.24 38.244-115.994z"/><path d="m226.378 175.11c0-17.422-14.174-31.597-31.597-31.597s-31.597 14.174-31.597 31.597 14.175 31.598 31.597 31.598 31.597-14.175 31.597-31.598zm-48.21 0c0-9.16 7.453-16.613 16.613-16.613s16.613 7.453 16.613 16.613c0 9.161-7.453 16.614-16.613 16.614s-16.613-7.453-16.613-16.614z"/><path d="m254.807 175.11c0-33.098-26.927-60.025-60.026-60.025-33.098 0-60.025 26.927-60.025 60.025s26.927 60.025 60.025 60.025 60.026-26.927 60.026-60.025zm-105.067 0c0-24.836 20.205-45.041 45.041-45.041s45.042 20.205 45.042 45.041-20.206 45.041-45.042 45.041-45.041-20.205-45.041-45.041z"/><path d="m317.219 396.915c33.098 0 60.025-26.927 60.025-60.025s-26.927-60.025-60.025-60.025-60.026 26.927-60.026 60.025 26.928 60.025 60.026 60.025zm0-105.066c24.836 0 45.041 20.206 45.041 45.041 0 24.836-20.205 45.041-45.041 45.041s-45.042-20.205-45.042-45.041 20.206-45.041 45.042-45.041z"/><path d="m317.219 368.487c17.423 0 31.597-14.174 31.597-31.597s-14.175-31.598-31.597-31.598-31.597 14.175-31.597 31.598c0 17.422 14.174 31.597 31.597 31.597zm0-48.211c9.16 0 16.613 7.453 16.613 16.614 0 9.16-7.453 16.613-16.613 16.613s-16.613-7.453-16.613-16.613c0-9.161 7.453-16.614 16.613-16.614z"/><path d="m171.786 382.135c3.582 2.391 7.745 3.655 12.039 3.655 7.275 0 14.029-3.609 18.066-9.655l114.145-170.964c2.297-3.441 1.371-8.093-2.071-10.391-3.44-2.298-8.093-1.371-10.39 2.071l-114.146 170.963c-1.25 1.873-3.346 2.991-5.604 2.991-1.323 0-2.61-.392-3.719-1.133-3.083-2.058-3.916-6.241-1.858-9.324l144.323-216.163c2.058-3.081 6.241-3.916 9.323-1.859 3.083 2.058 3.916 6.241 1.859 9.323l-11.183 16.743c-2.298 3.441-1.373 8.093 2.068 10.391 3.442 2.298 8.094 1.372 10.391-2.069l11.184-16.745c6.645-9.954 3.954-23.459-6-30.105-9.953-6.644-23.458-3.953-30.105 6l-144.322 216.166c-6.645 9.953-3.953 23.459 6 30.105z"/></g></g></svg>