<svg id="Capa_1" enable-background="new 0 0 512 512" height="512" viewBox="0 0 512 512" width="512" xmlns="http://www.w3.org/2000/svg"><g><g><path d="m374.153 419.408-21.824-249.356-11.159-11.159-11.159 11.159-21.823 249.356z" fill="#ea9b58"/><g><path d="m324.79 229.708h32.76l-2.912-33.276h-26.936z" fill="#c57a44"/></g><g><path d="m318.965 296.26h44.41l-2.912-33.276h-38.585z" fill="#c57a44"/></g><g><path d="m313.141 362.812h56.058l-2.912-33.276h-50.234z" fill="#c57a44"/></g><path d="m374.152 419.408-2.04-23.32h-61.883l-2.041 23.32z" fill="#c57a44"/></g><g><g><g><path d="m339.422 146.865c.645-8.552 2.243-17.045 4.793-25.307-6.445-16.179-16.345-31.515-29.652-44.822-25.048-25.048-57.287-38.024-88.799-38.611l93.805 93.806c7.158 4.257 13.809 9.275 19.853 14.934z" fill="#80d261"/></g><g><path d="m341.17 148.539c8.046-7.855 17.238-14.54 27.305-19.779l88.101-88.101c-30.258-.667-60.73 10.542-83.821 33.633-20.229 20.229-31.338 46.121-33.333 72.573.589.551 1.171 1.11 1.748 1.674z" fill="#4fc123"/></g><g><path d="m406.969 174.503c-9.918-9.918-21.201-17.638-33.241-23.172h-24.996l-7.562 7.562 99.432 99.432c.668-30.259-10.542-60.731-33.633-83.822z" fill="#4fc123"/><path d="m252.72 247.342 96.012-96.012h-40.12c-12.04 5.534-23.323 13.254-33.241 23.172-19.193 19.193-30.169 43.487-32.948 68.518 3.532 1.244 6.968 2.691 10.297 4.322z" fill="#80d261"/></g><path d="m341.17 148.539c-20.716-20.226-49.038-32.697-80.277-32.697-32.656 0-62.129 13.621-83.053 35.489h160.555c.907-.949 1.836-1.875 2.775-2.792z" fill="#4fc123"/></g><g><path d="m504.5 151.331c-20.924-21.868-50.397-35.489-83.053-35.489s-62.129 13.62-83.053 35.489z" fill="#80d261"/></g></g><g><path d="m131.529 439.683h35.836l-14.467-156.959-9.224-9.224-9.224 9.224-14.566 158.033c3.774-.702 7.665-1.074 11.645-1.074z" fill="#ea9b58"/><g><path d="m130.016 330.811h27.314l-2.428-26.342h-22.458z" fill="#c57a44"/></g><g><path d="m125.16 383.495h37.026l-2.428-26.342h-32.17z" fill="#c57a44"/></g><path d="m131.529 439.683h35.836l-2.751-29.846h-41.881l-2.85 30.92c3.775-.702 7.666-1.074 11.646-1.074z" fill="#c57a44"/></g><g><g><path d="m142.216 263.471c.538-7.13 1.87-14.211 3.996-21.099-5.373-13.489-13.627-26.275-24.722-37.37-20.883-20.883-47.761-31.702-74.034-32.191l78.208 78.208c5.967 3.551 11.513 7.735 16.552 12.452z" fill="#4fc123"/></g><g><path d="m198.531 286.514c-8.269-8.269-17.676-14.705-27.714-19.32h-20.84l-6.305 6.305 82.899 82.899c.558-25.227-8.788-50.632-28.04-69.884z" fill="#80d261"/><g><path d="m145.987 267.194c-.001-.001-.003-.003-.004-.004.001.002.003.003.004.004h-29.459c-10.038 4.614-19.445 11.05-27.714 19.32-19.251 19.252-28.597 44.657-28.041 69.884l89.204-89.204z" fill="#4fc123"/></g></g><g><path d="m143.673 264.867c6.708-6.549 14.372-12.123 22.765-16.49l73.452-73.452c-25.227-.557-50.632 8.789-69.884 28.041-16.865 16.865-26.127 38.452-27.79 60.506.491.459.976.925 1.457 1.395z" fill="#80d261"/></g><g><path d="m210.602 237.607c-26.045 0-49.657 10.397-66.929 27.26.783.764 1.558 1.537 2.314 2.328h133.858c-17.444-18.232-42.017-29.588-69.243-29.588z" fill="#4fc123"/><g><path d="m145.987 267.195c-17.445-18.232-42.017-29.588-69.243-29.588s-51.799 11.356-69.244 29.588z" fill="#80d261"/></g></g></g><path d="m131.529 439.683c-24.486 0-45.717 13.88-56.293 34.194h156.083c0-12.954 4.53-24.845 12.082-34.194z" fill="#e8b800"/><path d="m173.477 439.683h-41.948c-24.486 0-45.717 13.88-56.293 34.194h55.764c8.526-16.376 23.979-29.658 42.477-34.194z" fill="#d7aa02"/><g><path d="m442.262 473.877h-210.943c0-30.082 24.387-54.469 54.469-54.469h102.006c30.082 0 54.468 24.386 54.468 54.469z" fill="#e8b800"/></g><g><path d="m355.526 419.408h-69.738c-30.082 0-54.469 24.387-54.469 54.469h69.738c0-30.083 24.386-54.469 54.469-54.469z" fill="#d7aa02"/></g><path d="m509.919 146.146c-23.325-24.378-54.745-37.803-88.472-37.803-8.283 0-16.425.814-24.345 2.397l64.777-64.777c2.123-2.124 2.775-5.31 1.656-8.097-1.118-2.788-3.792-4.639-6.795-4.705-33.719-.734-65.441 11.98-89.289 35.828-9.996 9.995-18.025 21.377-23.938 33.706-4.825-8.655-10.61-16.872-17.299-24.481-2.735-3.112-7.475-3.417-10.585-.681-3.11 2.735-3.416 7.474-.681 10.584 8.992 10.229 16.148 21.677 21.292 33.826-.972 3.429-1.788 6.909-2.458 10.43-3.135-2.337-6.366-4.511-9.685-6.522l-78.016-78.015c15.476 3.08 30.406 9.301 43.979 18.404 3.441 2.306 8.1 1.389 10.406-2.052 2.308-3.44 1.389-8.099-2.051-10.406-21.882-14.674-46.957-22.682-72.515-23.157-3.06-.079-5.845 1.749-7.042 4.564-1.196 2.815-.563 6.075 1.599 8.238l68.007 68.007c-8.928-2.039-18.16-3.092-27.574-3.092-33.727 0-65.146 13.425-88.472 37.803-2.076 2.17-2.658 5.37-1.479 8.131 1.181 2.762 3.895 4.554 6.897 4.554h104.006c-4.102 3.18-8.04 6.632-11.778 10.37-17.793 17.792-29.362 39.97-33.796 64.09-8.276-2.1-16.88-3.184-25.671-3.184-5.624 0-11.17.449-16.605 1.318l51.197-51.197c2.123-2.124 2.775-5.31 1.656-8.097-1.118-2.787-3.792-4.639-6.795-4.705-28.426-.63-55.228 10.11-75.353 30.236-7.849 7.849-14.263 16.711-19.139 26.287-5.1-8.703-11.378-16.859-18.769-24.25-21.627-21.626-49.753-33.838-79.198-34.386-3.038-.066-5.845 1.749-7.042 4.564-1.196 2.815-.563 6.075 1.599 8.238l53.751 53.751c-6.247-1.16-12.651-1.759-19.16-1.759-28.461 0-54.977 11.33-74.662 31.903-2.076 2.17-2.658 5.37-1.479 8.131 1.181 2.762 3.895 4.554 6.897 4.554h83.168c-2.466 2.05-4.858 4.217-7.157 6.516-20.126 20.126-30.863 46.887-30.235 75.353.066 3.002 1.917 5.676 4.704 6.795.906.363 1.853.54 2.792.54 1.953 0 3.871-.763 5.306-2.197l58.997-58.997-12.162 131.951c-17.404 4.712-32.503 15.939-42.055 31.721h-17.269c-4.143 0-7.5 3.358-7.5 7.5s3.357 7.5 7.5 7.5h311.416c4.143 0 7.5-3.358 7.5-7.5s-3.357-7.5-7.5-7.5h-125.583c3.6-22.348 23.022-39.469 46.37-39.469h102.006c23.348 0 42.771 17.121 46.37 39.469h-34.163c-4.143 0-7.5 3.358-7.5 7.5s3.357 7.5 7.5 7.5h68.474c4.143 0 7.5-3.358 7.5-7.5s-3.357-7.5-7.5-7.5h-19.182c-3.716-30.644-29.869-54.469-61.499-54.469h-6.768l-19.428-221.98 73.7 73.701c1.435 1.434 3.353 2.197 5.306 2.197.938 0 1.887-.176 2.792-.54 2.787-1.119 4.638-3.792 4.704-6.795.745-33.731-11.979-65.442-35.827-89.29-3.737-3.737-7.675-7.189-11.777-10.37h104.005c3.003 0 5.717-1.792 6.897-4.554 1.18-2.761.598-5.96-1.478-8.13zm-131.861-66.55c16.329-16.33 36.856-26.715 59.153-30.179l-73.092 73.092c-5.172 2.749-10.16 5.876-14.925 9.379 4.384-19.635 14.227-37.655 28.864-52.292zm-53.82 242.44 1.599-18.276h30.665l1.599 18.276zm35.176 15 1.6 18.276h-39.688l1.032-11.796.567-6.479h36.489zm-32.264-48.276 1.599-18.276h24.841l1.599 18.276zm2.912-33.276 1.599-18.276h19.016l1.599 18.276zm2.913-33.276 1.6-18.276h13.191l1.6 18.276zm-135.25-78.377c18.215-13.314 40.076-20.488 63.168-20.488s44.953 7.174 63.168 20.488zm82.95 35.976c8.754-8.754 18.718-15.791 29.512-20.976h20.438l-79.479 79.48c-.166-.071-.334-.136-.5-.206 3.596-21.964 13.911-42.181 30.029-58.298zm-70.073 65.3c17.636 0 34.398 5.089 48.695 14.588h-97.391c14.298-9.499 31.061-14.588 48.696-14.588zm-60.113 93.204 1.045 11.342h-15.723l1.045-11.342zm-12.249-15 .901-9.776.144-1.566h8.776l1.045 11.342zm14.677 41.342.81 8.79.235 2.552h-20.579l1.046-11.342zm2.428 26.342 1.045 11.342h-25.436l1.046-11.342zm2.428 26.342 1.369 14.846h-27.613c-1.116 0-2.226.035-3.333.086l1.377-14.933h28.2zm-2.298-142.643h13.747c8.775 4.252 16.879 9.996 24.006 17.123 12.471 12.471 20.724 27.922 24.117 44.748zm19.835-66.425c12.471-12.472 27.92-20.726 44.748-24.118l-58 58c-3.328 1.776-6.564 3.739-9.695 5.888 3.921-14.891 11.718-28.541 22.947-39.77zm-107.033-25.244c17.753 4.32 34.289 13.66 47.91 27.281 9.555 9.555 16.983 20.551 22.065 32.391-.602 2.154-1.112 4.337-1.573 6.534-2.11-1.511-4.27-2.938-6.475-4.277zm-40.229 76.669c14.298-9.499 31.061-14.588 48.695-14.588 17.636 0 34.398 5.089 48.695 14.588zm66.071 32.123c7.127-7.127 15.229-12.87 24.003-17.123h13.75l-61.872 61.871c3.394-16.826 11.648-32.277 24.119-44.748zm49.554-7.711 2.004 2.004 1.001 10.859h-6.011l1.001-10.859zm142.114 127.802c-18.123 0-34.438 7.831-45.774 20.275h-22.013c-4.143 0-7.5 3.358-7.5 7.5s3.357 7.5 7.5 7.5h11.891c-2.846 5.94-4.779 12.398-5.603 19.194h-134.944c10.485-12.068 25.745-19.194 42.185-19.194h51.471c4.143 0 7.5-3.358 7.5-7.5s-3.357-7.5-7.5-7.5h-8.795l-11.934-129.479 58.997 58.997c1.435 1.434 3.353 2.197 5.306 2.197.938 0 1.887-.176 2.792-.54 2.787-1.119 4.638-3.792 4.704-6.795.628-28.466-10.109-55.227-30.235-75.353-2.299-2.299-4.69-4.466-7.156-6.516h83.167c3.003 0 5.717-1.792 6.897-4.554s.598-5.961-1.479-8.131c-6.114-6.39-12.888-11.887-20.173-16.431l55.652-55.651-19.427 221.981zm80.18 0h-49.594l.728-8.32h48.138zm-2.041-23.32h-45.513l1.599-18.276h42.314zm-17.473-199.656h-10.566l1.357-15.506 3.926-3.926 3.926 3.926zm55.212-9.125c16.329 16.329 26.715 36.86 30.18 59.154l-80.068-80.068.062-.062h20.313c10.794 5.185 20.759 12.222 29.513 20.976zm-43.386-35.976c18.215-13.314 40.076-20.488 63.168-20.488s44.953 7.174 63.168 20.488z"/></g></svg>