<svg id="Capa_1" enable-background="new 0 0 512 512" height="512" viewBox="0 0 512 512" width="512" xmlns="http://www.w3.org/2000/svg"><g><g><g><g><g><path d="m222.45 108.72c-11.306 0-20.471 9.165-20.471 20.471v-34.119c0-11.306-9.165-20.471-20.471-20.471-11.306 0-20.471 9.165-20.471 20.471v-22.746c0-11.306-9.165-20.471-20.471-20.471-11.306 0-20.471 9.165-20.471 20.471v22.746c0-11.306-9.165-20.471-20.471-20.471-11.306 0-20.471 9.165-20.471 20.471v204.714l-29.57-29.165v-28.803c0-35.645-14.176-49.453-26.072-54.764-7.525-3.358-16.011 2.147-16.011 10.385v101.638c0 6.438 2.071 12.706 5.908 17.876l59.834 80.64c3.836 5.171 5.908 11.438 5.908 17.876v80.619c0 2.761 2.239 5 5 5h120.79c2.761 0 5-2.239 5-5v-85.551c0-3.299.544-6.575 1.61-9.697l29.224-85.563c1.422-4.162 2.147-8.531 2.147-12.929v-173.157c0-11.306-9.165-20.471-20.471-20.471z" fill="#ea9b58"/></g></g><g><g><g><path d="m111.229 477c-2.761 0-5-2.239-5-5v-66.385c0-6.438-2.071-12.706-5.908-17.876l-59.834-80.64c-3.836-5.17-5.908-11.438-5.908-17.876v-94.534c-3.591-3.589-7.436-6.011-11.071-7.633-7.522-3.36-16.008 2.145-16.008 10.383v101.638c0 6.438 2.071 12.706 5.908 17.876l59.834 80.64c3.836 5.171 5.908 11.438 5.908 17.876v80.619c0 2.761 2.239 5 5 5h120.789c2.761 0 5-2.239 5-5v-19.088z" fill="#d88a55"/></g></g></g></g><g><g><g><path d="m289.55 108.72c11.306 0 20.471 9.165 20.471 20.471v-34.119c0-11.306 9.165-20.471 20.471-20.471 11.306 0 20.471 9.165 20.471 20.471v-22.746c0-11.306 9.165-20.471 20.471-20.471 11.306 0 20.471 9.165 20.471 20.471v22.746c0-11.306 9.165-20.471 20.471-20.471 11.306 0 20.471 9.165 20.471 20.471v204.714l29.57-29.165v-28.803c0-35.645 14.176-49.453 26.072-54.764 7.523-3.359 16.008 2.146 16.008 10.385v101.638c0 6.438-2.071 12.706-5.908 17.876l-59.834 80.64c-3.837 5.171-5.908 11.438-5.908 17.876v80.619c0 2.761-2.239 5-5 5h-120.786c-2.761 0-5-2.239-5-5v-85.551c0-3.299-.544-6.575-1.61-9.697l-29.224-85.563c-1.422-4.162-2.147-8.531-2.147-12.929v-173.157c-.001-11.306 9.164-20.471 20.47-20.471z" fill="#ea9b58"/></g></g><g><g><g><path d="m327.982 477c-2.761 0-5-2.239-5-5v-61.463c0-3.299-.544-6.575-1.61-9.697l-29.224-85.562c-1.422-4.162-2.147-8.531-2.147-12.929v-172.667c0-7.557 4.005-14.343 10.059-18.035-3.075-1.846-6.661-2.927-10.509-2.927-11.306 0-20.471 9.165-20.471 20.471v173.157c0 4.398.726 8.767 2.147 12.929l29.224 85.563c1.066 3.122 1.61 6.398 1.61 9.697v85.551c0 2.761 2.239 5 5 5h120.789c2.761 0 5-2.239 5-5v-19.088z" fill="#d88a55"/></g></g></g></g></g><g><path d="m209.939 455.5c-4.142 0-7.5 3.358-7.5 7.5v30.588h-115.789v-78.119c0-7.991-2.623-15.927-7.385-22.346l-59.834-80.64c-2.857-3.85-4.431-8.611-4.431-13.406v-101.638c0-1.899 1.234-2.905 1.765-3.249.658-.428 2.015-1.033 3.686-.287 14.15 6.317 21.629 22.886 21.629 47.915v28.803c0 2.007.804 3.93 2.233 5.34l29.57 29.165c1.431 1.412 3.335 2.143 5.269 2.143l2.272.017c19.291 0 36.433 11.553 43.67 29.433 1.181 2.917 3.989 4.688 6.955 4.688.937 0 1.89-.177 2.812-.55 3.839-1.554 5.692-5.927 4.138-9.767-8.884-21.944-29.083-36.653-52.349-38.581v-124.509c0-4.142-3.358-7.5-7.5-7.5s-7.5 3.358-7.5 7.5v113.854l-14.57-14.37v-25.667c0-39.663-16.594-55.397-30.515-61.612-5.863-2.617-12.578-2.094-17.964 1.4-5.386 3.495-8.601 9.414-8.601 15.834v101.638c0 7.992 2.623 15.928 7.385 22.346l59.834 80.639c2.857 3.852 4.431 8.613 4.431 13.408v80.619c0 6.893 5.607 12.5 12.5 12.5h120.79c6.893 0 12.5-5.607 12.5-12.5v-33.089c-.001-4.142-3.358-7.5-7.501-7.5z"/><path d="m222.45 101.22c-4.679 0-9.092 1.154-12.971 3.193v-9.341c0-15.424-12.548-27.972-27.972-27.972-4.707 0-9.146 1.168-13.042 3.23-1.026-14.497-13.148-25.977-27.901-25.977s-26.875 11.48-27.901 25.977c-3.896-2.063-8.335-3.231-13.042-3.231-15.423 0-27.971 12.548-27.971 27.972v37.929c0 4.142 3.358 7.5 7.5 7.5s7.5-3.358 7.5-7.5v-37.928c0-7.153 5.819-12.972 12.972-12.972 7.152 0 12.971 5.819 12.971 12.972v130.113h-6.147c-4.142 0-7.5 3.358-7.5 7.5s3.358 7.5 7.5 7.5h104.631c4.142 0 7.5-3.358 7.5-7.5s-3.358-7.5-7.5-7.5h-1.598v-95.995c0-7.152 5.819-12.971 12.971-12.971s12.971 5.819 12.971 12.971v173.158c0 3.582-.587 7.116-1.745 10.504l-29.224 85.563c-1.336 3.91-2.013 7.988-2.013 12.122v17.463c0 4.142 3.358 7.5 7.5 7.5s7.5-3.358 7.5-7.5v-17.463c0-2.48.406-4.927 1.208-7.272l29.224-85.563c1.692-4.953 2.55-10.118 2.55-15.353v-173.158c0-15.423-12.548-27.971-27.971-27.971zm-68.914 123.966h-25.943v-152.86c0-7.153 5.819-12.972 12.971-12.972 7.153 0 12.972 5.819 12.972 12.972zm40.943 0h-25.943v-130.114c0-7.153 5.819-12.972 12.971-12.972s12.972 5.819 12.972 12.972z"/><path d="m154.775 305.69c9.769 5.856 20.705 8.858 31.815 8.858 5.068 0 10.174-.625 15.219-1.888 4.018-1.006 6.459-5.079 5.454-9.097-1.006-4.019-5.08-6.461-9.097-5.454-12.22 3.06-24.891 1.184-35.678-5.284-10.787-6.467-18.413-16.759-21.473-28.979-1.006-4.019-5.08-6.462-9.097-5.454-4.019 1.006-6.46 5.079-5.454 9.097 4.034 16.107 14.088 29.674 28.311 38.201z"/><path d="m298.166 50.17c1.919 0 3.839-.732 5.303-2.197l16.888-16.888c2.929-2.929 2.929-7.678 0-10.606-2.929-2.929-7.678-2.929-10.606 0l-16.888 16.888c-2.929 2.929-2.929 7.678 0 10.606 1.464 1.465 3.384 2.197 5.303 2.197z"/><path d="m269.755 34.795v-23.883c0-4.142-3.358-7.5-7.5-7.5s-7.5 3.358-7.5 7.5v23.883c0 4.142 3.358 7.5 7.5 7.5s7.5-3.357 7.5-7.5z"/><path d="m221.042 47.974c1.464 1.465 3.384 2.197 5.303 2.197s3.839-.732 5.303-2.197c2.929-2.929 2.929-7.678 0-10.606l-16.888-16.889c-2.929-2.93-7.678-2.929-10.606 0-2.929 2.929-2.929 7.678 0 10.606z"/><path d="m380.081 258.392c-4.013-1.004-8.09 1.435-9.097 5.454-3.06 12.22-10.686 22.512-21.473 28.979-10.787 6.468-23.457 8.345-35.678 5.284-4.014-1.004-8.09 1.436-9.097 5.454-1.006 4.018 1.436 8.091 5.454 9.097 5.046 1.264 10.15 1.888 15.219 1.888 11.11 0 22.048-3.002 31.815-8.858 14.224-8.527 24.278-22.094 28.311-38.202 1.006-4.018-1.435-8.091-5.454-9.096z"/><path d="m503.398 181.605c-5.386-3.493-12.101-4.017-17.964-1.4-25.22 11.26-30.514 39.72-30.514 61.612v25.667l-14.57 14.37v-186.782c0-15.424-12.548-27.972-27.972-27.972-4.707 0-9.145 1.168-13.042 3.23-1.026-14.497-13.148-25.977-27.901-25.977s-26.875 11.48-27.901 25.977c-3.896-2.062-8.334-3.23-13.042-3.23-15.424 0-27.972 12.548-27.972 27.972v9.341c-3.879-2.039-8.292-3.193-12.971-3.193-15.423 0-27.971 12.548-27.971 27.971v173.158c0 5.233.858 10.398 2.549 15.353l29.225 85.563c.801 2.345 1.208 4.792 1.208 7.272v85.551c0 6.893 5.607 12.5 12.5 12.5h120.79c6.893 0 12.5-5.607 12.5-12.5v-80.619c0-4.795 1.574-9.556 4.431-13.407l20.523-27.659c2.468-3.327 1.772-8.024-1.554-10.492s-8.024-1.772-10.492 1.554l-20.523 27.659c-4.762 6.418-7.384 14.354-7.384 22.345v78.119h-115.79v-83.051c0-4.133-.677-8.211-2.013-12.121l-29.224-85.563c-1.158-3.39-1.745-6.924-1.745-10.505v-173.157c0-7.152 5.819-12.971 12.971-12.971s12.971 5.819 12.971 12.971v95.995h-1.598c-4.142 0-7.5 3.358-7.5 7.5s3.358 7.5 7.5 7.5h104.631c4.142 0 7.5-3.358 7.5-7.5s-3.358-7.5-7.5-7.5h-6.147v-130.114c0-7.153 5.819-12.972 12.972-12.972s12.971 5.819 12.971 12.972v197.437c-23.266 1.929-43.465 16.637-52.349 38.581-1.554 3.84.298 8.212 4.138 9.767.922.373 1.875.55 2.812.55 2.965 0 5.773-1.771 6.955-4.688 7.238-17.88 24.379-29.433 43.67-29.433l2.274-.018c1.933-.001 3.835-.731 5.267-2.142l29.57-29.165c1.429-1.41 2.233-3.333 2.233-5.34v-28.803c0-25.029 7.479-41.598 21.629-47.915 1.672-.746 3.027-.141 3.686.287.531.344 1.765 1.35 1.765 3.249v101.638c0 4.795-1.574 9.557-4.431 13.407l-18.396 24.793c-2.468 3.327-1.772 8.024 1.554 10.492 3.327 2.469 8.025 1.773 10.492-1.554l18.396-24.793c4.762-6.418 7.385-14.354 7.385-22.346v-101.637c0-6.42-3.215-12.339-8.602-15.834zm-159.934 43.581h-25.943v-130.114c0-7.153 5.819-12.972 12.972-12.972 7.152 0 12.971 5.819 12.971 12.972zm40.943 0h-25.943v-152.86c0-7.153 5.819-12.972 12.972-12.972 7.152 0 12.971 5.819 12.971 12.972z"/></g></g></svg>