<svg id="Capa_1" enable-background="new 0 0 512 512" height="512" viewBox="0 0 512 512" width="512" xmlns="http://www.w3.org/2000/svg"><g><g><path d="m309.127 7.687c-8.737.85-13.044 2.972-21.258 6.069-14.431 5.443-30.322 6.989-45.56 4.702-13.786-2.069-25.543-9.423-39.447-10.772-25.218-2.446-36.943 19.311-25.783 40.072 12.182 22.663 33.253 39.502 45.754 61.991h33.167 33.167c12.501-22.489 33.572-39.328 45.754-61.991 11.162-20.765-.569-42.525-25.794-40.071z" fill="#eaa998"/></g><g><path d="m421.437 419.729c-2.715 0-4.618-2.651-3.776-5.232 31.646-97.011-26.723-230.968-112.807-266.204h-97.71c-86.083 35.235-144.451 169.192-112.806 266.203.842 2.581-1.06 5.232-3.776 5.232-23.41 0-42.387 18.977-42.387 42.387 0 23.41 18.977 42.387 42.387 42.387h330.875c23.41 0 42.387-18.977 42.387-42.387 0-23.409-18.977-42.386-42.387-42.386z" fill="#eaa998"/></g><g><path d="m334.923 47.762c-12.186 22.662-33.259 39.496-45.754 61.989h-21.153c12.496-22.492 33.568-39.326 45.754-61.989 8.907-16.574 3.229-33.778-12.246-38.807 2.249-.56 4.678-.99 7.607-1.27 25.222-2.449 36.948 19.304 25.792 40.077z" fill="#e49280"/></g><g><path d="m463.828 462.119c0 23.402-18.984 42.385-42.395 42.385h-21.152c15.231 0 32.814-10.102 39.133-24.217 7.636-17.055-2.342-35.932-16.282-46.168-7.583-5.569-16.812-8.825-26.249-8.826-2.709 0-4.618-2.659-3.769-5.238 31.639-97.007-23.333-236.53-109.413-271.758h21.153c86.09 35.228 144.45 169.192 112.811 266.198-.84 2.579 1.06 5.238 3.769 5.238 11.706 0 22.302 4.748 29.98 12.416 7.666 7.667 12.414 18.264 12.414 29.97z" fill="#e49280"/></g><g><path d="m306.583 148.293h-101.166c-10.644 0-19.272-8.629-19.272-19.272 0-10.644 8.629-19.272 19.272-19.272h101.166c10.644 0 19.272 8.629 19.272 19.272 0 10.643-8.628 19.272-19.272 19.272z" fill="#fee97d"/></g><g><path d="m325.856 129.023c0 5.318-2.159 10.137-5.648 13.625-3.489 3.489-8.307 5.648-13.625 5.648h-22.273c5.318 0 10.137-2.159 13.625-5.648s5.648-8.307 5.648-13.625c0-10.646-8.627-19.273-19.273-19.273h22.272c10.647 0 19.274 8.627 19.274 19.273z" fill="#fedf30"/></g><g><g><path d="m334.302 342.707 14.299-14.299c1.11-1.11 1.11-2.91 0-4.02l-14.299-14.299c-.533-.533-.833-1.256-.833-2.01v-56.31c0-1.57-1.273-2.843-2.843-2.843h-56.31c-.754 0-1.477-.299-2.01-.833l-14.299-14.299c-1.11-1.11-2.91-1.11-4.02 0l-14.299 14.299c-.533.533-1.256.833-2.01.833h-56.31c-1.57 0-2.843 1.273-2.843 2.843v56.31c0 .754-.299 1.477-.833 2.01l-14.299 14.299c-1.11 1.11-1.11 2.91 0 4.02l14.299 14.299c.533.533.833 1.256.833 2.01v56.31c0 1.57 1.273 2.843 2.843 2.843h56.31c.754 0 1.477.299 2.01.833l14.299 14.299c1.11 1.11 2.91 1.11 4.02 0l14.299-14.299c.533-.533 1.256-.833 2.01-.833h56.31c1.57 0 2.843-1.273 2.843-2.843v-56.31c.001-.754.3-1.477.833-2.01z" fill="#ade194"/></g><g><path d="m348.606 328.407-14.305 14.305c-.53.53-.83 1.25-.83 2.009v56.311c0 1.569-1.27 2.839-2.849 2.839h-20.483c1.569 0 2.839-1.27 2.839-2.839v-56.311c0-.76.3-1.479.84-2.009l14.295-14.305c1.11-1.11 1.11-2.909 0-4.019l-14.295-14.295c-.54-.54-.84-1.26-.84-2.019v-56.3c0-1.57-1.27-2.849-2.839-2.849h20.483c1.579 0 2.849 1.28 2.849 2.849v56.3c0 .76.3 1.48.83 2.019l14.305 14.295c1.11 1.11 1.11 2.909 0 4.019z" fill="#97da7b"/></g><g><circle cx="255.998" cy="326.398" fill="#fff5c6" r="50.121"/></g><g><path d="m306.121 326.397c0 27.68-22.442 50.123-50.123 50.123-12.266 0-23.502-4.409-32.209-11.726 3.439.75 7.008 1.14 10.666 1.14 27.68 0 50.123-22.442 50.123-50.123 0-15.415-6.958-29.21-17.914-38.397 22.562 4.889 39.457 24.962 39.457 48.983z" fill="#fef0ae"/></g><g><path d="m345.169 497.005h-254.606c-19.238 0-34.889-15.651-34.889-34.89 0-19.238 15.651-34.889 34.889-34.889 3.663 0 7.133-1.769 9.282-4.732 2.155-2.97 2.761-6.83 1.621-10.323-10.794-33.088-11.058-73.401-.744-113.512 9.976-38.797 29.074-75.28 53.776-102.727 2.77-3.078 2.521-7.818-.557-10.588-3.078-2.771-7.819-2.521-10.588.557-26.289 29.211-46.587 67.929-57.154 109.024-10.729 41.726-10.834 82.247-.35 117.526-25.303 2.383-45.17 23.747-45.17 49.664 0 27.506 22.378 49.884 49.884 49.884h254.606c4.141 0 7.497-3.357 7.497-7.497s-3.356-7.497-7.497-7.497z"/><path d="m426.149 412.452c13.911-46.914 8.941-103.894-13.849-157.172-20.425-47.747-52.011-85.415-88.284-105.969 5.71-4.913 9.337-12.184 9.337-20.29 0-14.761-12.009-26.77-26.77-26.77h-3.696c4.426-6.114 9.405-11.99 14.566-18.078 8.604-10.149 17.502-20.644 24.072-32.865 6.901-12.838 6.856-26.762-.123-37.245-6.772-10.177-18.802-15.219-33.001-13.838-8.194.797-15.561 3.644-23.178 6.516-13.122 4.949-27.577 6.437-41.801 4.303-5.768-.866-11.292-2.826-17.139-4.901-7.086-2.515-14.414-5.116-22.697-5.919-14.199-1.377-26.22 3.668-32.99 13.842-6.975 10.483-7.02 24.405-.12 37.242 6.57 12.221 15.467 22.716 24.072 32.865 5.162 6.088 10.141 11.964 14.566 18.078h-3.696c-14.761 0-26.77 12.009-26.77 26.77 0 8.113 3.632 15.389 9.351 20.302-6.163 3.497-12.223 7.49-18.125 11.984-3.294 2.508-3.932 7.213-1.423 10.507 2.509 3.296 7.213 3.931 10.507 1.423 9.575-7.291 19.555-13.155 29.686-17.446h94.714c38.884 16.459 73.507 54.776 95.156 105.387 22.093 51.649 26.475 106.684 12.02 150.994-1.14 3.494-.534 7.354 1.622 10.324 2.15 2.962 5.62 4.731 9.282 4.731 19.238 0 34.889 15.651 34.889 34.89 0 19.238-15.651 34.889-34.889 34.889h-41.708c-4.141 0-7.497 3.357-7.497 7.497 0 4.141 3.357 7.497 7.497 7.497h41.708c27.506 0 49.884-22.378 49.884-49.885 0-25.917-19.866-47.282-45.173-49.663zm-220.164-337.976c-8.475-9.996-16.48-19.439-22.302-30.268-4.234-7.878-4.46-16.04-.603-21.836 3.657-5.496 10.426-8.063 19.058-7.224 6.451.626 12.609 2.812 19.13 5.126 6.26 2.222 12.732 4.519 19.928 5.599 16.753 2.513 33.806.75 49.32-5.102 6.366-2.403 12.486-4.956 19.336-5.622 8.634-.842 15.408 1.724 19.067 7.222 3.858 5.795 3.633 13.959-.602 21.837-5.822 10.83-13.827 20.272-22.302 30.268-7.383 8.708-14.988 17.678-21.153 27.775h-57.725c-6.164-10.097-13.77-19.067-21.152-27.775zm100.598 66.32h-101.166c-6.493 0-11.775-5.282-11.775-11.775 0-6.492 5.282-11.775 11.775-11.775h101.165c6.493 0 11.775 5.282 11.775 11.775.001 6.492-5.281 11.775-11.774 11.775z"/><path d="m340.967 306.151v-54.382c0-5.702-4.639-10.34-10.34-10.34h-54.382l-12.935-12.935c-1.953-1.953-4.55-3.029-7.311-3.029-2.763 0-5.359 1.076-7.311 3.029l-12.935 12.935h-54.382c-5.702 0-10.34 4.639-10.34 10.34v54.382l-12.937 12.937c-4.03 4.032-4.029 10.591.001 14.622l12.936 12.936v54.382c0 5.701 4.639 10.34 10.34 10.34h54.382l12.936 12.936c2.015 2.016 4.663 3.023 7.311 3.023s5.296-1.008 7.312-3.023l12.936-12.936h54.382c5.702 0 10.34-4.639 10.34-10.34v-54.383l12.935-12.935c4.031-4.031 4.031-10.59 0-14.623zm-11.966 31.254c-1.953 1.952-3.028 4.549-3.028 7.311v51.655h-51.655c-2.762 0-5.359 1.076-7.311 3.029l-11.008 11.008-11.008-11.008c-1.953-1.953-4.55-3.029-7.311-3.029h-51.655v-51.655c0-2.762-1.076-5.359-3.029-7.311l-11.008-11.008 11.008-11.008c1.953-1.953 3.029-4.55 3.029-7.311v-51.655h51.655c2.762 0 5.359-1.075 7.311-3.028l11.008-11.008 11.008 11.008c1.952 1.953 4.549 3.028 7.311 3.028h51.655v51.655c0 2.762 1.075 5.359 3.028 7.311l11.008 11.008z"/><path d="m255.998 268.779c-31.771 0-57.619 25.847-57.619 57.618s25.848 57.619 57.619 57.619 57.618-25.848 57.618-57.619c0-31.77-25.847-57.618-57.618-57.618zm0 100.243c-23.503 0-42.624-19.121-42.624-42.624s19.121-42.623 42.624-42.623 42.623 19.121 42.623 42.623c.001 23.503-19.12 42.624-42.623 42.624z"/></g></g></g></svg>