<svg id="Capa_1" enable-background="new 0 0 512 512" height="512" viewBox="0 0 512 512" width="512" xmlns="http://www.w3.org/2000/svg"><g><g><g><path d="m7.494 256c0 137.244 111.262 248.506 248.506 248.506s248.506-111.262 248.506-248.506-111.262-248.506-248.506-248.506-248.506 111.262-248.506 248.506zm410.672 121.197c-2.449 3.273-7.211 3.649-10.101.759l-274.022-274.021c-2.89-2.89-2.513-7.653.759-10.101 33.793-25.285 75.746-40.268 121.194-40.269 111.68-.002 202.439 90.756 202.438 202.437.001 45.448-14.983 87.402-40.268 121.195zm-364.601-121.199c0-45.449 14.984-87.402 40.269-121.196 2.449-3.273 7.211-3.649 10.101-.759l274.022 274.022c2.89 2.89 2.513 7.653-.759 10.101-33.793 25.285-75.747 40.268-121.195 40.269-111.68.001-202.439-90.757-202.438-202.437z" fill="#fd8087"/></g><g><path d="m330.541 18.872c90.364 37.2 153.986 126.126 153.986 229.906 0 137.244-111.262 248.506-248.506 248.506-25.912 0-50.886-3.966-74.371-11.318 29.089 11.947 60.955 18.54 94.35 18.54 137.244 0 248.506-111.262 248.506-248.506 0-111.272-73.142-205.472-173.965-237.128z" fill="#fe646f"/></g></g><g><path d="m145.014 197.448c-7.319 5.656-12.082 11.141-17.124 19.279-3.309 5.341-7.096 10.742-13.051 13.324-6.353 2.754-12.281 2.418-18.199 6.568-4.626 3.244-7.57 7.531-8.37 13.195-1.144 8.096.666 17.994 4.411 25.19 1.702 3.27 5.347 6.048 8.766 7.459 4.913 2.028 9.398-.321 13.766 2.893 5.849 4.303 10.932 8.826 17.54 12.107 17.902 8.889 35.586 8.345 54.856 5.435 0 .002 5.266 29.528-.586 51.511h30.298s18.997-23.449 20.734-46.409c0 0 33.491 17.098 74.527 0 0 0 4.397 21.983-6.839 46.409h32.002s13.204-11.846 19.734-20.296c27.486-35.57 44.788-92.609 14.983-132.537-11.903-15.946-29.995-26.128-48.389-32.828-.191-.07-68.047-27.346-131.982 25.524-3.31 2.737-8.331 1.318-9.729-2.742-2.435-7.076-6.256-16.584-10.545-21.39-3.417-3.829-9.794-1.483-9.949 3.644-.321 10.575-8.43 17.155-16.854 23.664z" fill="#fec0b7"/></g><g><path d="m171.819 170.141c3.177 3.566 6.104 9.73 8.401 15.553-3.796 2.587-7.602 5.434-11.388 8.571-3.317 2.737-8.331 1.319-9.73-2.737-.569-1.648-1.219-3.436-1.928-5.264 2.737-3.566 4.545-7.602 4.695-12.487.151-5.124 6.534-7.472 9.95-3.636z" fill="#feb2a7"/></g><g><path d="m227.575 312.51c2.8.731 6.004 1.425 9.555 1.968-4.215 20.688-19.809 39.928-19.809 39.928h-23.265s12.44-15.351 18.109-33.377c2.046-6.507 8.81-10.242 15.41-8.519z" fill="#feb2a7"/></g><g><path d="m357.482 334.117c-6.533 8.441-19.739 20.288-19.739 20.288h-23.255s13.196-11.847 19.729-20.288c27.491-35.572 44.793-92.612 14.984-132.539-11.908-15.953-29.998-26.132-48.389-32.835-.08-.03-12.477-5.005-31.626-6.613 31.786-2.667 54.772 6.573 54.882 6.613 18.4 6.703 36.491 16.882 48.389 32.835 29.808 39.927 12.506 96.967-14.975 132.539z" fill="#feb2a7"/></g><g><path d="m489.85 151.684c-14.197-31.779-34.404-59.926-60.06-83.657-3.037-2.809-7.777-2.625-10.587.413-2.81 3.037-2.625 7.778.413 10.587 24.16 22.348 43.188 48.85 56.554 78.769 13.833 30.964 20.847 64.005 20.847 98.204 0 64.378-25.07 124.902-70.592 170.424-45.523 45.522-106.047 70.592-170.425 70.592s-124.902-25.07-170.424-70.592-70.592-106.046-70.592-170.424 25.07-124.902 70.592-170.424 106.046-70.592 170.424-70.592c49.418 0 96.909 14.845 137.339 42.931 3.397 2.36 8.066 1.519 10.427-1.879s1.519-8.067-1.879-10.427c-42.95-29.838-93.398-45.609-145.887-45.609-68.38 0-132.667 26.628-181.019 74.981-48.353 48.352-74.981 112.639-74.981 181.019s26.628 132.667 74.981 181.019c48.352 48.353 112.639 74.981 181.019 74.981s132.667-26.628 181.019-74.981c48.353-48.352 74.981-112.639 74.981-181.019 0-36.319-7.453-71.416-22.15-104.316z"/><path d="m412.77 387.399c.337 0 .676-.012 1.014-.036 4.118-.295 7.901-2.365 10.381-5.678 27.32-36.514 41.761-79.975 41.762-125.684 0-56.015-21.852-108.716-61.533-148.396-39.68-39.681-92.382-61.533-148.397-61.532-45.709.001-89.169 14.442-125.682 41.762-3.313 2.479-5.383 6.262-5.678 10.38-.294 4.097 1.204 8.112 4.109 11.017l36.794 36.794c2.926 2.926 7.67 2.926 10.595 0 2.926-2.926 2.926-7.67 0-10.595l-36.13-36.13c33.754-25.021 73.843-38.243 115.992-38.244 52.013-.001 100.951 20.293 137.802 57.144 36.851 36.85 57.145 85.789 57.144 137.801 0 42.15-13.222 82.24-38.244 115.994l-27.493-27.493c-2.925-2.926-7.669-2.926-10.595 0s-2.926 7.67 0 10.595l28.157 28.158c2.664 2.663 6.263 4.143 10.002 4.143z"/><path d="m109.233 128.746c-2.905-2.905-6.922-4.405-11.017-4.109-4.118.295-7.902 2.364-10.381 5.677-27.32 36.514-41.761 79.975-41.762 125.684 0 56.015 21.852 108.716 61.533 148.396 39.68 39.68 92.382 61.533 148.397 61.532 45.709 0 89.17-14.442 125.683-41.762 3.313-2.479 5.383-6.262 5.678-10.381.294-4.097-1.204-8.112-4.109-11.017l-25.669-25.669c-2.926-2.926-7.67-2.926-10.595 0-2.926 2.926-2.926 7.67 0 10.595l25.006 25.006c-33.754 25.022-73.843 38.244-115.993 38.244-52.012 0-100.951-20.293-137.801-57.143s-57.144-85.789-57.144-137.801c0-42.15 13.222-82.24 38.244-115.994l26.94 26.94c2.926 2.926 7.67 2.926 10.595 0 2.926-2.926 2.926-7.67 0-10.595z"/><path d="m100.943 242.752c2.404-1.686 4.983-2.32 8.249-3.122 2.583-.635 5.512-1.354 8.629-2.706 7.654-3.319 12.425-9.772 16.439-16.251 4.72-7.616 8.876-12.304 15.337-17.297 7.201-5.565 16.754-12.947 19.189-24.538 2.071 3.605 4.33 8.847 6.492 15.127 1.456 4.233 4.899 7.484 9.207 8.696 4.306 1.211 8.934.232 12.38-2.617 11.452-9.47 23.85-16.876 36.849-22.012 3.848-1.52 5.735-5.873 4.214-9.721-1.521-3.849-5.872-5.735-9.721-4.214-13.899 5.492-27.144 13.286-39.396 23.179-3.69-10.34-7.523-17.778-11.404-22.127-3.605-4.04-9.233-5.449-14.336-3.593-5.116 1.862-8.527 6.572-8.692 12-.207 6.849-5.656 11.559-13.945 17.964-7.819 6.043-13.298 12.202-18.912 21.261-3.247 5.24-5.995 8.807-9.662 10.396-1.959.849-4.04 1.361-6.244 1.902-4.018.987-8.573 2.107-13.277 5.406-6.558 4.6-10.423 10.75-11.487 18.28-1.353 9.576.634 20.955 5.184 29.696 2.384 4.581 7.076 8.665 12.553 10.925 3.455 1.426 6.633 1.495 8.953 1.546 2.117.046 2.758.108 3.231.456 6.083 4.474 11.838 9.402 18.648 12.783 17.761 8.819 35.256 9.079 51.788 7.149 1.094 9.649 2.27 27.276-1.426 41.159-.599 2.249-.119 4.648 1.3 6.493 1.418 1.845 3.613 2.927 5.94 2.927h30.298c2.26 0 4.399-1.02 5.821-2.776.726-.896 15.658-19.523 20.804-40.795 12.155 3.906 35.048 8.451 62.003.046.077 7.829-1.063 19.965-7.014 32.902-1.067 2.319-.879 5.023.498 7.173s3.755 3.45 6.308 3.45h32.002c1.847 0 3.628-.682 5.003-1.915.56-.502 13.791-12.404 20.659-21.291 29.583-38.284 46.914-98.924 15.058-141.6-2.332-3.123-4.946-6.103-7.809-8.953 1.431-2.464 3.237-4.633 5.319-6.401 1.095 4.816 3.32 9.302 6.879 12.86 7.729 7.728 20.609 6.449 27.789.406 6.632-5.582 7.628-14.243 2.478-21.551-4.575-6.493-12.092-10.149-19.404-11.331.079-.11.16-.218.242-.323.844-1.094 1.815-2.157 2.886-3.161 3.02-2.829 3.174-7.57.344-10.589-2.828-3.019-7.57-3.173-10.589-.344-1.655 1.551-3.17 3.213-4.503 4.939-2.48 3.212-4.387 7.185-5.57 11.477-6.975 2.804-13.078 7.813-17.428 14.276-9.082-6.526-19.892-12.103-32.385-16.66-3.17-1.234-28.782-10.64-63.104-6.567-4.109.488-7.044 4.214-6.557 8.323.488 4.109 4.21 7.046 8.323 6.557 31.499-3.74 54.955 5.279 55.938 5.665.058.022.134.051.191.072 20.371 7.42 35.495 17.605 44.949 30.271 27.179 36.41 11.324 89.529-14.907 123.475-4.544 5.88-12.848 13.793-16.719 17.385h-18.186c6.857-21.774 3.456-39.528 3.284-40.386-.44-2.201-1.844-4.089-3.826-5.144-1.981-1.055-4.33-1.166-6.403-.302-37.113 15.464-67.955.385-68.239.243-2.232-1.14-4.888-1.088-7.075.14-2.186 1.227-3.613 3.467-3.803 5.967-1.213 16.029-12.308 32.966-17.003 39.482h-17.428c3.204-22.309-1.368-46.177-1.437-46.388-1.152-3.456-4.625-5.583-8.226-5.039-18.808 2.84-34.578 3.121-50.406-4.738-5.99-2.974-11.114-7.521-16.432-11.431-4.355-3.205-8.826-3.302-11.783-3.367-3.284-.072-6.896-1.249-8.543-4.41-3.086-5.929-4.548-14.24-3.638-20.681.486-3.399 2.107-5.901 5.261-8.113zm299.93-60.667c.352.5.497.851.544 1.018-.26.396-1.381 1.362-3.433 1.754-1.877.357-3.659.023-4.536-.853-1.794-1.793-2.811-4.383-3.178-7.235 4.266.469 8.652 2.548 10.603 5.316z"/></g></g></svg>