<svg id="Capa_1" enable-background="new 0 0 512 512" height="512" viewBox="0 0 512 512" width="512" xmlns="http://www.w3.org/2000/svg"><g><g><path d="m447.592 126.572h-371.802v319.952h428.71v-376.861c0 31.43-25.479 56.909-56.908 56.909z" fill="#d8aa5e"/><path d="m75.79 126.572h31.21v319.952h-31.21z" fill="#c99c56"/><path d="m447.592 126.572h-327.54v207.399c0 3.492 2.831 6.323 6.323 6.323h24.028c17.461 0 31.616 14.155 31.616 31.616v24.028c0 3.492 2.831 6.323 6.323 6.323h203.606c3.492 0 6.323-2.831 6.323-6.323v-24.028c0-17.461 14.155-31.616 31.616-31.616h24.028c3.492 0 6.323-2.831 6.323-6.323v-208.827c-4.069.924-8.298 1.428-12.646 1.428z" fill="#fed402"/><g><g><path d="m120.052 126.572v207.399c0 3.492 2.831 6.323 6.323 6.323h24.028c.473 0 .943.015 1.411.036v-213.758z" fill="#fac600"/></g></g><path d="m390.448 145.732c-.711-.711-1.111-1.677-1.111-2.683v-16.477h-198.384v16.477c0 1.006-.4 1.971-1.111 2.683l-37.293 37.293c-1.482 1.482-1.482 3.884 0 5.365l37.293 37.293c.711.711 1.111 1.677 1.111 2.683v52.74c0 2.095 1.698 3.794 3.794 3.794h52.74c1.006 0 1.971.4 2.683 1.111l37.293 37.293c1.482 1.482 3.884 1.482 5.365 0l37.293-37.293c.711-.711 1.677-1.111 2.683-1.111h52.74c2.095 0 3.794-1.699 3.794-3.794v-52.74c0-1.006.4-1.971 1.111-2.683l37.293-37.293c1.482-1.482 1.482-3.884 0-5.365z" fill="#4fc123"/><path d="m198.453 143.049c0 3.016-1.174 5.851-3.306 7.984l-34.674 34.674 34.672 34.672c2.133 2.133 3.308 4.969 3.308 7.986v49.034h23.648v-29.676c-.451-1.17-.709-2.436-.709-3.763v-17.787c-.122-.172-.251-.339-.402-.49l-37.293-37.293c-1.482-1.482-1.482-3.884 0-5.365l37.293-37.293c.151-.151.28-.319.402-.49v-11.261l-22.939.013z" fill="#47a920"/><path d="m352.277 161.214c-.563-.563-.879-1.326-.879-2.121v-31.639c0-.309-.06-.602-.147-.882h-122.212c-.087.281-.147.573-.147.882v31.639c0 .796-.316 1.559-.879 2.121l-22.372 22.372c-1.172 1.172-1.172 3.071 0 4.243l22.372 22.372c.563.563.879 1.326.879 2.121v31.638c0 1.657 1.343 3 3 3h31.638c.796 0 1.559.316 2.121.879l22.372 22.372c1.172 1.172 3.071 1.172 4.243 0l22.372-22.372c.563-.563 1.326-.879 2.121-.879h31.638c1.657 0 3-1.343 3-3v-31.638c0-.796.316-1.559.879-2.121l22.372-22.372c1.172-1.172 1.172-3.071 0-4.243z" fill="#fff"/><path d="m260.129 243.96v-31.638c0-.796-.316-1.559-.879-2.121l-22.372-22.372c-1.172-1.172-1.172-3.071 0-4.243l22.372-22.372c.563-.563.879-1.326.879-2.121v-31.639c0-.309.06-.602.147-.882h-31.237c-.087.281-.147.573-.147.882v31.639c0 .796-.316 1.559-.879 2.121l-22.372 22.372c-1.172 1.172-1.172 3.071 0 4.243l22.372 22.372c.563.563.879 1.326.879 2.121v31.638c0 1.657 1.343 3 3 3h31.237c-1.657 0-3-1.343-3-3z" fill="#f3f0f3"/><g><g><path d="m146.609 402.261h-20.234c-3.492 0-6.323-2.831-6.323-6.323v-20.234c0-3.492 2.831-6.323 6.323-6.323h20.234c3.492 0 6.323 2.831 6.323 6.323v20.234c.001 3.492-2.83 6.323-6.323 6.323z" fill="#fff"/></g><g><path d="m134.12 395.938v-20.234c0-3.492 2.831-6.323 6.323-6.323h-14.067c-3.492 0-6.323 2.831-6.323 6.323v20.234c0 3.492 2.831 6.323 6.323 6.323h14.067c-3.492 0-6.323-2.831-6.323-6.323z" fill="#f3f0f3"/></g><g><path d="m453.915 402.261h-20.234c-3.492 0-6.323-2.831-6.323-6.323v-20.234c0-3.492 2.831-6.323 6.323-6.323h20.234c3.492 0 6.323 2.831 6.323 6.323v20.234c0 3.492-2.831 6.323-6.323 6.323z" fill="#fff"/></g><g><path d="m441.425 395.938v-20.234c0-3.492 2.831-6.323 6.323-6.323h-14.067c-3.492 0-6.323 2.831-6.323 6.323v20.234c0 3.492 2.831 6.323 6.323 6.323h14.067c-3.492 0-6.323-2.831-6.323-6.323z" fill="#f3f0f3"/></g></g><g><path d="m328.013 183.586-35.747-35.747c-1.172-1.172-3.071-1.172-4.243 0l-35.747 35.747c-1.172 1.172-1.172 3.071 0 4.243l35.747 35.747c1.172 1.172 3.071 1.172 4.243 0l35.747-35.747c1.172-1.172 1.172-3.071 0-4.243z" fill="#4fc123"/></g><g><path d="m283.385 187.829c-1.172-1.172-1.172-3.071 0-4.243l22.314-22.314-13.433-13.433c-1.172-1.172-3.071-1.172-4.243 0l-35.747 35.747c-1.172 1.172-1.172 3.071 0 4.243l35.747 35.747c1.172 1.172 3.071 1.172 4.243 0l13.433-13.433z" fill="#47a920"/></g></g><path d="m390.683 69.663c0-31.43 25.479-56.909 56.908-56.909h-383.183c-31.429.001-56.908 25.48-56.908 56.909 0 31.43 25.479 56.908 56.908 56.908h383.183c-31.429.001-56.908-25.478-56.908-56.908z" fill="#fef1da"/><g><path d="m49 69.663c0-31.43 25.479-56.909 56.908-56.909h-41.5c-31.429.001-56.908 25.48-56.908 56.909 0 31.43 25.479 56.908 56.908 56.908h41.5c-31.429.001-56.908-25.478-56.908-56.908z" fill="#fae2c0"/></g><g><circle cx="447.592" cy="69.663" fill="#4fc123" r="56.908"/></g><path d="m417 69.663c0-26.893 18.66-49.414 43.735-55.359-4.22-1.003-8.617-1.549-13.144-1.549-31.43 0-56.908 25.479-56.908 56.909s25.479 56.908 56.908 56.908c4.527 0 8.924-.547 13.144-1.549-25.075-5.946-43.735-28.467-43.735-55.36z" fill="#47a920"/><g><ellipse cx="447.592" cy="69.663" fill="#fef1da" rx="20.234" ry="20.234" transform="matrix(.924 -.383 .383 .924 7.412 176.589)"/></g><g><path d="m460.238 260.5c-4.142 0-7.5 3.358-7.5 7.5v64.794h-22.851c-21.568 0-39.116 17.547-39.116 39.116v22.851h-30.771c-4.142 0-7.5 3.358-7.5 7.5s3.358 7.5 7.5 7.5h31.948c7.622 0 13.823-6.201 13.823-13.823v-24.028c0-13.298 10.818-24.116 24.116-24.116h24.028c7.622 0 13.823-6.201 13.823-13.823v-65.971c0-4.142-3.358-7.5-7.5-7.5z"/><path d="m146.609 361.881h-20.234c-7.622 0-13.823 6.201-13.823 13.823v20.234c0 7.622 6.201 13.823 13.823 13.823h20.234c7.622 0 13.823-6.201 13.823-13.823v-20.234c.001-7.622-6.201-13.823-13.823-13.823zm-1.176 32.88h-17.88v-17.88h17.88z"/><path d="m453.915 361.881h-20.234c-7.622 0-13.823 6.201-13.823 13.823v20.234c0 7.622 6.201 13.823 13.823 13.823h20.234c7.622 0 13.823-6.201 13.823-13.823v-20.234c0-7.622-6.201-13.823-13.823-13.823zm-1.177 32.88h-17.88v-17.88h17.88z"/><path d="m210.473 354.293c-4.142 0-7.5 3.358-7.5 7.5v12.646c0 4.142 3.358 7.5 7.5 7.5s7.5-3.358 7.5-7.5v-12.646c0-4.142-3.358-7.5-7.5-7.5z"/><path d="m237.03 354.293c-4.142 0-7.5 3.358-7.5 7.5v12.646c0 4.142 3.358 7.5 7.5 7.5s7.5-3.358 7.5-7.5v-12.646c0-4.142-3.358-7.5-7.5-7.5z"/><path d="m263.588 354.293c-4.142 0-7.5 3.358-7.5 7.5v12.646c0 4.142 3.358 7.5 7.5 7.5s7.5-3.358 7.5-7.5v-12.646c0-4.142-3.358-7.5-7.5-7.5z"/><path d="m290.145 354.293c-4.142 0-7.5 3.358-7.5 7.5v12.646c0 4.142 3.358 7.5 7.5 7.5s7.5-3.358 7.5-7.5v-12.646c0-4.142-3.358-7.5-7.5-7.5z"/><path d="m316.702 354.293c-4.142 0-7.5 3.358-7.5 7.5v12.646c0 4.142 3.358 7.5 7.5 7.5s7.5-3.358 7.5-7.5v-12.646c0-4.142-3.358-7.5-7.5-7.5z"/><path d="m343.259 354.293c-4.142 0-7.5 3.358-7.5 7.5v12.646c0 4.142 3.358 7.5 7.5 7.5s7.5-3.358 7.5-7.5v-12.646c0-4.142-3.358-7.5-7.5-7.5z"/><path d="m369.817 381.939c4.142 0 7.5-3.358 7.5-7.5v-12.646c0-4.142-3.358-7.5-7.5-7.5s-7.5 3.358-7.5 7.5v12.646c0 4.142 3.358 7.5 7.5 7.5z"/><path d="m282.721 228.879c2.047 2.047 4.735 3.07 7.424 3.07 2.688 0 5.378-1.024 7.425-3.07l35.747-35.747c1.983-1.983 3.075-4.62 3.075-7.424s-1.092-5.441-3.075-7.424l-35.748-35.748c-4.095-4.093-10.755-4.093-14.848.001l-35.747 35.747c-1.983 1.983-3.075 4.62-3.075 7.424s1.092 5.441 3.075 7.424zm7.424-72.555 29.383 29.383-29.383 29.383-29.383-29.383z"/><path d="m447.611 5.256-271.611-.001c-4.142 0-7.5 3.358-7.5 7.5s3.358 7.5 7.5 7.5h230.33c-14.136 11.824-23.147 29.581-23.147 49.409 0 19.827 9.011 37.584 23.146 49.408h-341.921c-27.243 0-49.408-22.165-49.408-49.409s22.165-49.409 49.408-49.409h76.592c4.142 0 7.5-3.358 7.5-7.5s-3.358-7.5-7.5-7.5h-76.592c-35.514.001-64.408 28.894-64.408 64.409s28.894 64.408 64.408 64.408l3.882-.002v365.176c0 4.142 3.358 7.5 7.5 7.5s7.5-3.358 7.5-7.5v-45.222h20.726v45.222c0 4.142 3.358 7.5 7.5 7.5s7.5-3.358 7.5-7.5v-45.222h20.726v45.222c0 4.142 3.358 7.5 7.5 7.5s7.5-3.358 7.5-7.5v-45.222h20.726v45.222c0 4.142 3.358 7.5 7.5 7.5s7.5-3.358 7.5-7.5v-45.222h20.726v45.222c0 4.142 3.358 7.5 7.5 7.5s7.5-3.358 7.5-7.5v-45.222h20.726v45.222c0 4.142 3.358 7.5 7.5 7.5s7.5-3.358 7.5-7.5v-45.222h20.726v45.222c0 4.142 3.358 7.5 7.5 7.5s7.5-3.358 7.5-7.5v-45.222h20.726v45.222c0 4.142 3.358 7.5 7.5 7.5s7.5-3.358 7.5-7.5v-45.222h20.726v45.222c0 4.142 3.358 7.5 7.5 7.5s7.5-3.358 7.5-7.5v-45.222h20.726v45.222c0 4.142 3.358 7.5 7.5 7.5s7.5-3.358 7.5-7.5v-45.222h20.726v45.222c0 4.142 3.358 7.5 7.5 7.5s7.5-3.358 7.5-7.5v-45.222h20.726v45.222c0 4.142 3.358 7.5 7.5 7.5s7.5-3.358 7.5-7.5v-45.222h20.724v45.222c0 4.142 3.358 7.5 7.5 7.5s7.5-3.358 7.5-7.5v-429.582c0-35.508-28.883-64.397-64.389-64.407zm-211.219 153.837v-25.121l107.506-.062v25.183c0 2.804 1.092 5.441 3.076 7.424l19.189 19.19-19.189 19.19c-1.983 1.983-3.076 4.62-3.076 7.424v27.138h-27.138c-2.804 0-5.441 1.092-7.424 3.076l-19.19 19.189-19.19-19.189c-1.983-1.983-4.62-3.076-7.424-3.076h-27.138v-27.138c0-2.804-1.092-5.441-3.076-7.424l-19.189-19.19 19.189-19.19c1.982-1.983 3.074-4.62 3.074-7.424zm-37.939-16.044v-9.055l22.939-.013v23.248l-21.054 21.054c-1.983 1.983-3.075 4.62-3.075 7.424s1.092 5.441 3.075 7.424l21.054 21.055v29.774c0 5.79 4.71 10.5 10.5 10.5h29.774l21.055 21.054c1.983 1.983 4.62 3.075 7.424 3.075s5.441-1.092 7.424-3.075l21.055-21.054h29.774c5.79 0 10.5-4.71 10.5-10.5v-29.774l21.053-21.054c1.984-1.983 3.077-4.62 3.077-7.425s-1.093-5.442-3.076-7.424l-21.054-21.054v-23.327l22.939-.013v9.161c0 3.017 1.175 5.853 3.308 7.986l34.672 34.672-34.672 34.672c-2.133 2.133-3.308 4.969-3.308 7.986v49.034h-49.034c-3.017 0-5.853 1.175-7.986 3.308l-34.672 34.672-34.672-34.672c-2.133-2.133-4.969-3.308-7.986-3.308h-49.034v-49.034c0-3.017-1.175-5.853-3.308-7.986l-34.672-34.672 34.674-34.674c2.132-2.134 3.306-4.969 3.306-7.985zm298.547 295.974h-413.71v-304.962l29.262-.017v199.927c0 7.622 6.201 13.823 13.823 13.823h24.028c13.297 0 24.116 10.818 24.116 24.116v24.028c0 7.622 6.201 13.823 13.823 13.823h136.658c4.142 0 7.5-3.358 7.5-7.5s-3.358-7.5-7.5-7.5h-135.481v-22.851c0-21.569-17.547-39.116-39.116-39.116h-22.851v-198.759l55.901-.032v7.512l-36.207 36.207c-2.133 2.133-3.308 4.969-3.308 7.985 0 3.018 1.175 5.854 3.308 7.986l36.207 36.208v51.205c0 6.228 5.066 11.294 11.294 11.294h51.205l36.208 36.207c2.202 2.202 5.093 3.303 7.986 3.303 2.892 0 5.785-1.101 7.986-3.303l36.208-36.207h51.205c6.228 0 11.294-5.066 11.294-11.294v-51.205l36.207-36.208c4.403-4.403 4.403-11.568 0-15.972l-36.207-36.208v-7.634l55.901-.032v99.153c0 4.142 3.358 7.5 7.5 7.5s7.5-3.358 7.5-7.5v-102.173c11.535-3.809 21.631-10.8 29.262-19.92v328.116zm-49.408-319.951c-27.244 0-49.409-22.165-49.409-49.408s22.165-49.408 49.409-49.408c27.243-.001 49.408 22.164 49.408 49.407s-22.165 49.409-49.408 49.409z"/><path d="m447.592 41.929c-15.293 0-27.734 12.441-27.734 27.734s12.441 27.734 27.734 27.734c15.292 0 27.734-12.441 27.734-27.734 0-15.292-12.442-27.734-27.734-27.734zm0 40.469c-7.022 0-12.734-5.712-12.734-12.734 0-7.021 5.712-12.734 12.734-12.734 7.021 0 12.734 5.712 12.734 12.734 0 7.021-5.713 12.734-12.734 12.734z"/></g></g></svg>