<svg id="Capa_1" enable-background="new 0 0 512 512" height="512" viewBox="0 0 512 512" width="512" xmlns="http://www.w3.org/2000/svg"><g><g><path d="m365.494 504.501h-218.988c-2.169 0-3.927-1.758-3.927-3.927v-20.775c0-2.169 1.758-3.927 3.927-3.927h218.988c2.169 0 3.927 1.758 3.927 3.927v20.775c0 2.169-1.758 3.927-3.927 3.927z" fill="#b5adb6"/></g><g><path d="m369.417 479.796v20.778c0 2.17-1.75 3.929-3.92 3.929h-19.997c2.17 0 3.92-1.76 3.92-3.929v-20.778c0-2.17-1.75-3.92-3.92-3.92h19.998c2.17.001 3.919 1.75 3.919 3.92z" fill="#a79ba7"/></g><g><path d="m116.738 276.701v50.272c0 6.527 7.312 10.343 12.691 6.646 8.331-5.726 20.38-11.633 34.994-12.05v-39.463c-14.613-.417-26.663-6.325-34.994-12.05-5.379-3.698-12.691.118-12.691 6.645z" fill="#b5adb6"/></g><g><path d="m164.42 282.108v39.466c-7.369.21-14.078 1.81-19.998 4.089v-47.655c5.92 2.28 12.629 3.89 19.998 4.1z" fill="#a79ba7"/></g><g><path d="m395.262 276.701v50.272c0 6.527-7.312 10.343-12.691 6.646-8.331-5.726-20.38-11.633-34.994-12.05v-39.463c14.613-.417 26.663-6.325 34.994-12.05 5.379-3.698 12.691.118 12.691 6.645z" fill="#b5adb6"/></g><g><path d="m395.265 276.699v50.275c0 6.529-7.319 10.339-12.699 6.649-2.3-1.59-4.899-3.19-7.749-4.679.16-.62.24-1.28.24-1.97v-50.275c0-.69-.08-1.34-.24-1.96 2.85-1.5 5.449-3.1 7.749-4.679 5.379-3.7 12.699.119 12.699 6.639z" fill="#a79ba7"/></g><g><path d="m361.559 223.095h-211.119c-2.154 0-3.9-1.746-3.9-3.899v-20.83c0-2.154 1.746-3.899 3.9-3.899h211.119c2.154 0 3.899 1.746 3.899 3.899v20.83c.001 2.153-1.745 3.899-3.899 3.899z" fill="#b5adb6"/></g><g><path d="m365.458 198.367v20.828c0 2.15-1.75 3.9-3.9 3.9h-19.998c2.15 0 3.9-1.75 3.9-3.9v-20.828c0-2.16-1.75-3.899-3.9-3.899h19.998c2.15 0 3.9 1.739 3.9 3.899z" fill="#a79ba7"/></g><g><g><path d="m164.423 223.095h183.154v252.777h-183.154z" fill="#f9f3f1"/></g></g><g><g><path d="m327.579 223.095h19.998v252.777h-19.998z" fill="#efe2dd"/></g></g><g><path d="m292.874 105.461s-28.374-18.914-36.874-32.265c-8.501 13.351-36.874 32.265-36.874 32.265-60.5 38.94-59.336 89.006-59.336 89.006h96.21 96.21c0-.001 1.164-50.066-59.336-89.006z" fill="#fee97d"/></g><g><path d="m352.209 194.468h-19.648c-1.85-14.568-11.239-52.144-58.893-82.821 0 0-18.978-12.649-30.537-24.557 5.279-4.66 10.119-9.559 12.869-13.889 8.499 13.349 36.876 32.256 36.876 32.256 60.493 38.946 59.333 89.011 59.333 89.011z" fill="#fed402"/></g><g><path d="m164.423 256.38h183.154v90.914h-183.154z" fill="#fee97d"/></g><g><path d="m327.579 256.38h19.998v90.914h-19.998z" fill="#fed402"/></g><g><g><path d="m210.103 301.837-20.609 20.609c-1.277 1.277-3.347 1.277-4.623 0l-20.609-20.609 20.609-20.609c1.277-1.277 3.347-1.277 4.623 0z" fill="#ade194"/></g><g><path d="m255.948 301.837-20.609 20.609c-1.277 1.277-3.347 1.277-4.623 0l-20.609-20.609 20.609-20.609c1.277-1.277 3.347-1.277 4.623 0z" fill="#ade194"/></g><g><path d="m301.796 301.837-20.609 20.609c-1.277 1.277-3.347 1.277-4.623 0l-20.609-20.609 20.609-20.609c1.277-1.277 3.347-1.277 4.623 0z" fill="#ade194"/></g><g><path d="m347.738 301.837-20.609 20.609c-1.277 1.277-3.347 1.277-4.623 0l-20.609-20.609 20.609-20.609c1.277-1.277 3.347-1.277 4.623 0z" fill="#ade194"/></g></g><g><path d="m210.105 301.836-20.608 20.608c-1.278 1.278-3.351 1.278-4.629 0l-7.759-7.759 9.803-9.81c1.677-1.678 1.676-4.398-.001-6.075l-9.802-9.802 7.759-7.769c1.28-1.28 3.35-1.28 4.63 0z" fill="#97da7b"/></g><g><path d="m255.95 301.836-20.608 20.608c-1.278 1.278-3.351 1.278-4.63 0l-7.759-7.759 9.803-9.81c1.677-1.678 1.676-4.398-.001-6.075l-9.802-9.802 7.759-7.769c1.28-1.28 3.35-1.28 4.63 0z" fill="#97da7b"/></g><g><path d="m301.795 301.836-20.608 20.608c-1.28 1.28-3.35 1.28-4.62 0l-7.769-7.769 9.8-9.8c1.678-1.678 1.678-4.398 0-6.076l-9.801-9.801 7.769-7.769c1.27-1.28 3.34-1.28 4.62 0z" fill="#97da7b"/></g><g><path d="m347.74 301.836-20.608 20.608c-1.278 1.278-3.351 1.278-4.63 0l-7.759-7.759 9.803-9.81c1.677-1.678 1.676-4.398-.001-6.075l-9.802-9.802 7.759-7.769c1.28-1.28 3.35-1.28 4.629 0z" fill="#97da7b"/></g><g><g><path d="m240.215 475.872h-44.446v-78.832c0-12.273 9.95-22.223 22.223-22.223 12.273 0 22.223 9.95 22.223 22.223z" fill="#eaa998"/></g><g><path d="m316.231 475.872h-44.446v-78.832c0-12.273 9.95-22.223 22.223-22.223 12.273 0 22.223 9.95 22.223 22.223z" fill="#eaa998"/></g></g><g><g><path d="m240.212 397.035v78.841h-19.628v-77.861c0-6.139-2.49-11.699-6.509-15.718-1.97-1.97-4.3-3.57-6.889-4.68 3.2-1.78 6.889-2.799 10.809-2.799 6.129 0 11.689 2.49 15.708 6.509s6.509 9.579 6.509 15.708z" fill="#e49280"/></g><g><path d="m316.233 397.035v78.841h-19.638v-77.861c0-6.139-2.49-11.699-6.509-15.718-1.96-1.96-4.29-3.56-6.879-4.68 3.2-1.78 6.879-2.799 10.799-2.799 6.139 0 11.699 2.49 15.718 6.509 4.02 4.019 6.509 9.579 6.509 15.708z" fill="#e49280"/></g></g><g><path d="m394.444 262.917c-5.146-2.705-11.321-2.34-16.12.958-5.444 3.742-13.497 8.099-23.248 9.901v-43.182h6.484c6.285 0 11.398-5.113 11.398-11.399v-20.83c0-6.286-5.113-11.399-11.398-11.399h-2.385c-2.11-16.39-12.42-55.719-62.189-87.778-7.149-4.77-26.128-18.541-33.487-28.342v-20.847c4.974-.952 9.55-3.361 13.211-7.021 2.928-2.928 2.928-7.677 0-10.605-2.929-2.928-7.677-2.928-10.606 0-1.992 1.992-4.642 3.09-7.46 3.09-5.818 0-10.551-4.733-10.551-10.551 0-4.743 3.188-8.928 7.753-10.178 3.995-1.094 6.346-5.219 5.252-9.213-1.094-3.995-5.221-6.345-9.213-5.253-11.064 3.029-18.791 13.163-18.791 24.644 0 10.485 6.351 19.511 15.407 23.444v22.49c-7.349 9.787-26.333 23.566-33.486 28.342-49.77 32.059-60.08 71.389-62.19 87.778h-2.384c-6.285 0-11.399 5.114-11.399 11.399v20.83c0 6.285 5.113 11.399 11.399 11.399h6.483v43.182c-9.751-1.803-17.803-6.16-23.247-9.901-4.797-3.298-10.975-3.665-16.12-.958-5.131 2.699-8.318 7.981-8.318 13.784v50.272c0 5.803 3.187 11.085 8.318 13.785 2.289 1.204 4.782 1.8 7.267 1.8 3.1 0 6.189-.928 8.852-2.758 5.444-3.742 13.496-8.099 23.247-9.902v138.475h-10.418c-6.3 0-11.426 5.126-11.426 11.426v20.775c0 6.3 5.126 11.426 11.426 11.426h218.988c6.301 0 11.426-5.126 11.426-11.426v-20.775c0-6.3-5.125-11.426-11.426-11.426h-10.418v-138.475c9.751 1.803 17.803 6.16 23.248 9.902 2.664 1.83 5.751 2.758 8.853 2.758 2.485 0 4.979-.596 7.268-1.8 5.13-2.699 8.318-7.982 8.318-13.785v-50.272c-.001-5.803-3.188-11.085-8.318-13.784zm-220.431-96.223c6.281-14.663 19.91-36.094 49.171-54.927.034-.022.067-.044.101-.066 2.497-1.664 21.113-14.235 32.715-26.583 11.601 12.348 30.217 24.918 32.714 26.583.033.022.067.044.101.066 29.261 18.833 42.891 40.265 49.172 54.927 3.53 8.24 5.208 15.34 6.005 20.273h-175.984c.798-4.938 2.476-12.036 6.005-20.273zm-48.832 160.745c-.119.081-.316.217-.641.045-.303-.16-.303-.363-.303-.511v-50.272c0-.148 0-.351.303-.511.115-.061.213-.083.299-.083.156 0 .266.075.342.128 9.959 6.844 20.806 11.182 31.742 12.742v25.719c-10.937 1.56-21.783 5.899-31.742 12.743zm236.741 155.932v13.63h-211.844v-13.63zm-76.625-234.49h-113.375v-18.286h168.156v18.286h-21.333c-4.142 0-7.499 3.358-7.499 7.499s3.357 7.499 7.499 7.499h21.333v19.692l-7.645-7.645c-2.034-2.034-4.739-3.155-7.615-3.155s-5.581 1.12-7.613 3.154l-15.358 15.357-15.356-15.356c-2.034-2.034-4.739-3.155-7.615-3.155s-5.579 1.12-7.615 3.154l-15.309 15.309-15.31-15.309c-2.034-2.034-4.738-3.154-7.614-3.154s-5.58 1.12-7.614 3.154l-15.308 15.308-15.308-15.308c-2.034-2.034-4.738-3.154-7.614-3.154s-5.58 1.12-7.614 3.154l-7.646 7.646v-19.692h113.375c4.142 0 7.499-3.358 7.499-7.499s-3.359-7.499-7.501-7.499zm51.836 52.956-12.315 12.316-12.316-12.316 12.316-12.315zm-45.943 0-12.315 12.316-12.316-12.316 12.316-12.316zm-45.847 0-12.316 12.316-12.315-12.316 12.315-12.316zm-45.845 0-12.316 12.316-12.316-12.316 12.316-12.316zm-19.93 25.912c2.034 2.034 4.738 3.154 7.614 3.154s5.58-1.12 7.614-3.154l15.308-15.308 15.308 15.308c2.034 2.034 4.738 3.154 7.614 3.154s5.58-1.12 7.614-3.154l15.31-15.31 15.31 15.311c2.035 2.034 4.739 3.153 7.614 3.153 2.877 0 5.581-1.12 7.614-3.154l15.356-15.357 15.356 15.356c2.034 2.034 4.739 3.155 7.615 3.155s5.581-1.12 7.614-3.154l7.646-7.646v19.692h-168.153v-19.692zm160.51 27.045v113.579h-16.348v-71.333c0-16.389-13.333-29.722-29.722-29.722s-29.722 13.333-29.722 29.722v71.333h-16.57v-71.333c0-16.389-13.333-29.722-29.722-29.722s-29.722 13.333-29.722 29.722v13.963c0 4.142 3.358 7.499 7.499 7.499 4.142 0 7.499-3.358 7.499-7.499v-13.963c0-8.119 6.605-14.724 14.724-14.724s14.724 6.605 14.724 14.724v71.333h-29.448v-23.139c0-4.142-3.358-7.499-7.499-7.499-4.142 0-7.499 3.358-7.499 7.499v23.139h-16.348v-113.579zm-31.347 42.246v71.333h-29.448v-71.333c0-8.119 6.605-14.724 14.724-14.724 8.12 0 14.724 6.605 14.724 14.724zm-154.691-181.444v-13.631h198.17 5.749v13.631zm233.723 111.377c0 .148 0 .352-.303.511-.327.172-.523.036-.642-.045-9.959-6.845-20.805-11.183-31.743-12.742v-25.719c10.936-1.559 21.784-5.898 31.743-12.742.118-.082.314-.217.642-.045.303.16.303.362.303.511z"/><path d="m51.853 266.259 26.764 12.229c1.011.461 2.07.68 3.112.68 2.845 0 5.566-1.628 6.825-4.384 1.721-3.767.063-8.216-3.704-9.938l-26.765-12.229c-3.764-1.719-8.216-.063-9.937 3.704-1.72 3.767-.061 8.216 3.705 9.938z"/><path d="m78.618 325.187-26.764 12.229c-3.767 1.721-5.425 6.171-3.704 9.938 1.26 2.757 3.981 4.384 6.825 4.384 1.042 0 2.102-.219 3.112-.68l26.765-12.229c3.767-1.721 5.425-6.171 3.704-9.938-1.722-3.767-6.171-5.424-9.938-3.704z"/><path d="m81.734 294.338h-49.411c-4.142 0-7.499 3.358-7.499 7.499 0 4.142 3.358 7.499 7.499 7.499h49.411c4.142 0 7.499-3.358 7.499-7.499.001-4.142-3.357-7.499-7.499-7.499z"/><path d="m430.27 279.168c1.042 0 2.101-.219 3.112-.68l26.765-12.229c3.767-1.722 5.425-6.171 3.704-9.938-1.72-3.767-6.165-5.426-9.937-3.705l-26.765 12.229c-3.767 1.722-5.425 6.171-3.704 9.937 1.259 2.758 3.98 4.386 6.825 4.386z"/><path d="m460.146 337.416-26.765-12.229c-3.77-1.721-8.217-.062-9.937 3.705-1.722 3.767-.063 8.216 3.704 9.937l26.765 12.229c1.01.461 2.07.68 3.112.68 2.845 0 5.566-1.628 6.825-4.385 1.722-3.766.064-8.215-3.704-9.937z"/><path d="m479.676 294.338h-49.411c-4.142 0-7.499 3.358-7.499 7.499 0 4.142 3.357 7.499 7.499 7.499h49.411c4.142 0 7.499-3.358 7.499-7.499.001-4.142-3.356-7.499-7.499-7.499z"/></g></g></svg>