<svg id="Capa_1" enable-background="new 0 0 512 512" height="512" viewBox="0 0 512 512" width="512" xmlns="http://www.w3.org/2000/svg"><g><g><g><g><g><path d="m40.278 136.898v325.913h431.444v-325.913l-215.722-87.709z" fill="#554e56"/></g></g></g><g fill="#433f43"><path d="m256 179.095v244.278h28v-232.894z"/><path d="m256 49.189v73.728l28 11.384v-22.174c0-10.517 10.541-17.769 20.363-14.009l167.359 64.07v-25.291z"/></g><g><g><g><path d="m40.278 136.898v325.913h215.722v-413.622z" fill="#685e68"/></g></g></g><g fill="#554e56"><path d="m40.278 266.804v196.007h42v-213.084z"/><path d="m82.278 119.821-42 17.077v73.728l42-17.076z"/></g><g><g><g><path d="m40.278 423.373h431.444v39.437h-431.444z" fill="#fef1da"/></g></g></g><path d="m40.278 423.373h42v39.437h-42z" fill="#fae2c0"/><g><g><g><path d="m256 423.373h28v39.437h-28z" fill="#fae2c0"/></g></g></g><g><path d="m304.313 198.738v141.129l16.673 6.779 19.246-52.282 12.523 65.198 21.218 8.627v-141.128z" fill="#fed402"/></g><path d="m304.313 198.738v141.129l16.673 6.779 4.014-10.905v-101.75c0-3.549 3.595-5.969 6.883-4.632l42.09 17.113v-19.411z" fill="#fac600"/><g><g><g><path d="m256 122.918-215.722 87.708v56.178l215.722-87.709 215.722 87.709v-56.178z" fill="#fed402"/></g></g></g><g><g><g><path d="m256 122.918v56.177l28 11.384v-56.177z" fill="#fac600"/></g></g></g><g><g><g><path d="m82.278 193.55-42 17.076v56.178l42-17.077z" fill="#fac600"/></g></g></g><g><path d="m425.791 269.127c-3.839-1.558-8.213.286-9.772 4.123-1.561 3.837.285 8.212 4.122 9.772l25.331 10.299c.926.376 1.882.554 2.822.554 2.961 0 5.767-1.765 6.95-4.677 1.561-3.837-.285-8.212-4.122-9.772z"/><path d="m400.46 258.828c-3.837-1.56-8.212.286-9.772 4.123s.286 8.212 4.124 9.772l4.222 1.716c.925.376 1.881.554 2.821.554 2.961 0 5.767-1.765 6.951-4.677 1.56-3.837-.286-8.212-4.124-9.772z"/><g><path d="m207.247 235.515c.941 0 1.897-.178 2.822-.554l25.331-10.299c3.837-1.56 5.683-5.936 4.123-9.772-1.561-3.838-5.939-5.684-9.772-4.123l-25.331 10.299c-3.837 1.56-5.683 5.936-4.123 9.772 1.183 2.912 3.989 4.677 6.95 4.677z"/><path d="m63.705 293.876c.941 0 1.897-.178 2.822-.554l25.331-10.299c3.837-1.56 5.683-5.936 4.123-9.772-1.561-3.838-5.938-5.683-9.772-4.123l-25.331 10.299c-3.837 1.56-5.683 5.936-4.123 9.772 1.184 2.912 3.989 4.677 6.95 4.677z"/><path d="m181.916 245.813c.94 0 1.897-.178 2.822-.554l4.222-1.716c3.837-1.56 5.683-5.935 4.123-9.772s-5.937-5.684-9.772-4.123l-4.222 1.716c-3.837 1.56-5.683 5.935-4.123 9.772 1.184 2.912 3.989 4.677 6.95 4.677z"/><path d="m110.145 274.994c.94 0 1.897-.178 2.822-.554l4.222-1.716c3.837-1.56 5.683-5.935 4.123-9.772s-5.936-5.683-9.772-4.123l-4.222 1.716c-3.837 1.56-5.683 5.935-4.123 9.772 1.184 2.912 3.989 4.677 6.95 4.677z"/><path d="m135.476 264.695c.941 0 1.897-.178 2.822-.554l25.331-10.299c3.837-1.56 5.683-5.936 4.123-9.772-1.561-3.837-5.938-5.682-9.772-4.123l-25.331 10.299c-3.837 1.56-5.683 5.936-4.123 9.772 1.184 2.912 3.989 4.677 6.95 4.677z"/><path d="m504.5 455.311h-25.278v-71.122c0-4.142-3.357-7.5-7.5-7.5s-7.5 3.358-7.5 7.5v31.684h-200.722v-225.632l33.313 13.544v12.902l-14.563-5.921c-3.841-1.56-8.212.286-9.772 4.123s.285 8.212 4.122 9.772l20.213 8.218v106.987c0 3.051 1.849 5.798 4.675 6.948l16.673 6.779c1.883.766 3.996.734 5.855-.087s3.306-2.362 4.008-4.27l9.931-26.974 7.436 38.714c.479 2.494 2.188 4.577 4.54 5.533l21.218 8.627c.911.37 1.869.552 2.824.552 1.472 0 2.933-.433 4.188-1.278 2.07-1.394 3.313-3.726 3.313-6.222v-129.982l82.749 33.645v77.338c0 4.142 3.357 7.5 7.5 7.5s7.5-3.358 7.5-7.5v-212.291c0-3.051-1.849-5.798-4.675-6.948l-215.723-87.709c-1.813-.736-3.839-.736-5.65 0l-58.904 23.949c-3.837 1.56-5.683 5.936-4.123 9.772 1.56 3.837 5.936 5.681 9.772 4.123l48.58-19.75v57.536l-200.722 81.61v-57.536l119.657-48.651c3.837-1.56 5.683-5.936 4.123-9.772-1.561-3.838-5.938-5.682-9.772-4.123l-124.332 50.551c-2.827 1.149-4.675 3.896-4.675 6.948v318.413h-25.279c-4.142 0-7.5 3.358-7.5 7.5s3.358 7.5 7.5 7.5h497c4.143 0 7.5-3.358 7.5-7.5s-3.357-7.5-7.5-7.5zm-138.027-98.267-7.12-2.896-11.755-61.199c-.635-3.308-3.397-5.787-6.755-6.061-3.34-.271-6.485 1.723-7.648 4.884l-16.568 45.004-4.813-1.958v-124.934l54.66 22.224v124.936zm-102.973-296.709 200.722 81.61v57.535l-200.722-81.609zm0 73.728 200.722 81.61v39.985l-200.722-81.61zm-15 281.81h-103.5c-4.142 0-7.5 3.358-7.5 7.5s3.358 7.5 7.5 7.5h103.5v24.438h-200.722v-24.438h62.222c4.142 0 7.5-3.358 7.5-7.5s-3.358-7.5-7.5-7.5h-62.222v-144.022l200.722-81.61zm0-241.825-200.722 81.61v-39.985l200.722-81.61zm215.722 281.263h-200.722v-24.438h200.722z"/></g></g></g></g></svg>