<svg id="Capa_1" enable-background="new 0 0 512 512" height="512" viewBox="0 0 512 512" width="512" xmlns="http://www.w3.org/2000/svg"><g><g><path d="m223.551 300.111c-1.986-1.986-1.986-5.207 0-7.193l6.569-6.569-21.443-21.443-14.334 14.334v49.138l42.219 42.219c1.921 1.921 5.205.563 5.21-2.153l.047-28.447c.003-1.682 1.365-3.044 3.047-3.047l15.499-.025z" fill="#80d261"/><path d="m170.431 303.151c-1.986 1.986-5.207 1.986-7.193 0l-23.912-23.912v107.226c0 2.716 3.282 4.079 5.206 2.161l20.148-20.082c1.191-1.187 3.118-1.187 4.309 0l20.148 20.082c1.924 1.918 5.206.555 5.206-2.161v-107.226z" fill="#80d261"/><g><path d="m194.343 297.245v31.131l42.219 42.219c1.921 1.921 5.205.563 5.21-2.153l.039-23.73z" fill="#4fc123"/></g><path d="m170.431 303.151c-1.986 1.986-5.207 1.986-7.193 0l-23.912-23.912v107.226c0 2.716 3.282 4.079 5.206 2.161l20.148-20.082c1.191-1.187 3.118-1.187 4.309 0l20.148 20.082c1.924 1.918 5.206.555 5.206-2.161v-107.226z" fill="#80d261"/><path d="m139.326 279.239v107.226c0 2.716 3.282 4.079 5.206 2.161l15.468-15.416v-73.297z" fill="#4fc123"/><path d="m163.238 59.923c1.986-1.986 5.207-1.986 7.193 0l23.912 23.912v-73.278c0-2.716-3.282-4.079-5.206-2.161l-20.148 20.082c-1.191 1.187-3.118 1.187-4.309 0l-20.147-20.082c-1.924-1.918-5.206-.555-5.206 2.161v73.277z" fill="#fed402"/><path d="m160 63.161v-39.349l-15.467-15.416c-1.924-1.918-5.206-.555-5.206 2.161v73.277z" fill="#fac600"/><g><path d="m288.449 185.133-118.018 118.018c-1.986 1.986-5.207 1.986-7.193 0l-118.017-118.018c-1.986-1.986-1.986-5.207 0-7.193l118.017-118.017c1.986-1.986 5.207-1.986 7.193 0l118.018 118.017c1.986 1.987 1.986 5.207 0 7.193z" fill="#4fc123"/></g><g fill="#47a920"><path d="m140.629 113.594 41.737-41.737-11.934-11.934c-1.986-1.986-5.207-1.986-7.193 0l-38.14 38.14z"/><g><path d="m98.892 207.743-22.61-22.61c-1.986-1.986-1.986-5.207 0-7.193l22.61-22.61-15.531-15.53-38.14 38.14c-1.986 1.986-1.986 5.207 0 7.193l38.14 38.14z"/><path d="m125.098 265.011 38.14 38.14c1.986 1.986 5.207 1.986 7.193 0l11.934-11.934-41.737-41.737z"/></g></g><g><g><path d="m137.322 93h59.025v177.075h-59.025z" fill="#80d261" transform="matrix(.707 -.707 .707 .707 -79.501 171.141)"/></g></g><g><path d="m137.322 93h59.025v177.075h-59.025z" fill="#80d261" transform="matrix(-.707 -.707 .707 -.707 156.439 427.873)"/></g><g><path d="m82.482 115.715h59.025v21.964h-59.025z" fill="#4fc123" transform="matrix(.707 -.707 .707 .707 -56.786 116.301)"/></g><g><path d="m137.322 93h59.025v177.075h-59.025z" fill="#80d261" transform="matrix(-.707 -.707 .707 -.707 156.439 427.873)"/></g><g><path d="m101.013 206.864h21.964v59.025h-21.964z" fill="#4fc123" transform="matrix(.707 -.707 .707 .707 -134.341 148.426)"/></g><g><path d="m137.322 152.024h59.025v59.025h-59.025z" fill="#4fc123" transform="matrix(.707 -.707 .707 .707 -79.501 171.141)"/></g></g><g><path d="m317.657 394.216-14.334-14.334-66.788 66.788c-1.921 1.921-.564 5.205 2.153 5.21l28.447.047c1.682.003 3.044 1.365 3.047 3.047l.047 28.447c.004 2.716 3.289 4.074 5.21 2.153l42.219-42.219v-49.139z" fill="#4fc123"/><path d="m317.657 394.216-14.334-14.334-66.788 66.788c-1.921 1.921-.564 5.205 2.153 5.21l22.439.037 56.53-56.53z" fill="#47a920"/><path d="m348.762 418.128c-1.986 1.986-5.207 1.986-7.193 0l-23.912-23.912v107.226c0 2.716 3.282 4.079 5.206 2.161l20.148-20.082c1.191-1.187 3.118-1.187 4.309 0l20.148 20.082c1.924 1.918 5.206.555 5.206-2.161v-107.226z" fill="#4fc123"/><path d="m317.657 394.216v107.226c0 2.716 3.282 4.079 5.206 2.161l15.137-15.087v-73.956z" fill="#47a920"/><path d="m341.569 174.9c1.986-1.986 5.207-1.986 7.193 0l23.912 23.912v-73.277c0-2.716-3.282-4.079-5.206-2.161l-20.148 20.082c-1.191 1.187-3.118 1.187-4.309 0l-20.148-20.082c-1.924-1.918-5.206-.555-5.206 2.161v73.277z" fill="#fed402"/><path d="m338 178.468v-40.008l-15.137-15.087c-1.924-1.918-5.206-.555-5.206 2.161v73.277z" fill="#fac600"/><g><path d="m223.551 300.111 118.017 118.018c1.986 1.986 5.207 1.986 7.193 0l118.017-118.018c1.986-1.986 1.986-5.207 0-7.193l-118.016-118.018c-1.986-1.986-5.207-1.986-7.193 0l-118.018 118.017c-1.986 1.987-1.986 5.207 0 7.194z" fill="#80d261"/></g><g fill="#4fc123"><path d="m319.294 228.906 41.737-41.737-12.269-12.269c-1.986-1.986-5.207-1.986-7.193 0l-38.14 38.14z"/><g><path d="m261.691 338.251 15.865-15.866-22.275-22.275c-1.986-1.986-1.986-5.207 0-7.193l22.275-22.275-15.866-15.866-38.14 38.14c-1.986 1.986-1.986 5.207 0 7.193z"/><path d="m303.428 379.988 38.14 38.14c1.986 1.986 5.207 1.986 7.193 0l12.269-12.269-41.737-41.737z"/></g></g><g><g><path d="m315.653 207.977h59.025v177.075h-59.025z" fill="#4fc123" transform="matrix(-.707 -.707 .707 -.707 379.567 750.25)"/></g></g><g><path d="m279.274 321.674h22.437v59.025h-22.437z" fill="#47a920" transform="matrix(.707 -.707 .707 .707 -163.243 308.269)"/></g><g><path d="m315.653 207.977h59.025v177.075h-59.025z" fill="#4fc123" transform="matrix(.707 -.707 .707 .707 -108.571 330.916)"/></g><g><path d="m260.98 230.623h59.025v22.437h-59.025z" fill="#47a920" transform="matrix(.707 -.707 .707 .707 -85.924 276.244)"/></g><g><path d="m315.653 267.002h59.025v59.025h-59.025z" fill="#80d261" transform="matrix(.707 -.707 .707 .707 -108.571 330.916)"/></g></g><path d="m472.083 287.614-91.909-91.909v-70.171c0-4.279-2.554-8.104-6.506-9.746-3.955-1.642-8.465-.748-11.495 2.272l-17.008 16.952-17.007-16.951c-3.03-3.021-7.54-3.913-11.495-2.273-3.952 1.641-6.506 5.466-6.506 9.746v70.17l-80.037 80.037-10.836-10.836 74.469-74.469c2.377-2.377 3.686-5.538 3.686-8.9s-1.309-6.523-3.686-8.9l-47.072-47.072c-2.93-2.929-7.678-2.929-10.607 0s-2.929 7.678 0 10.606l3.628 3.628-31.13 31.13-31.13-31.13 31.13-31.13 2.753 2.753c2.93 2.929 7.678 2.93 10.607 0 2.929-2.929 2.929-7.677 0-10.606l-20.089-20.089v-70.17c0-4.279-2.554-8.104-6.506-9.745-3.953-1.642-8.464-.75-11.495 2.271l-17.007 16.952-17.008-16.95c-3.03-3.02-7.543-3.914-11.495-2.271-3.952 1.641-6.506 5.466-6.506 9.745v70.17l-91.909 91.909c-2.377 2.377-3.686 5.538-3.686 8.9s1.309 6.523 3.686 8.9l91.909 91.909v104.12c0 4.279 2.554 8.104 6.506 9.746 1.315.546 2.692.811 4.056.811 2.735 0 5.417-1.068 7.439-3.083l17.008-16.952 17.007 16.951c3.03 3.021 7.541 3.913 11.495 2.273 3.952-1.641 6.506-5.466 6.506-9.746v-39.983l29.416 29.416c2.023 2.023 4.711 3.096 7.451 3.096 1.358 0 2.729-.263 4.04-.805 3.954-1.634 6.515-5.455 6.522-9.735l.039-24.013 7.951-.013 35.453 35.453-61.484 61.484c-3.025 3.026-3.925 7.537-2.29 11.491 1.634 3.955 5.455 6.515 9.734 6.522l24.013.039.039 24.015c.008 4.279 2.568 8.1 6.522 9.733 1.311.542 2.682.805 4.04.805 2.74 0 5.428-1.073 7.451-3.096l29.415-29.415v39.982c0 4.279 2.554 8.104 6.507 9.745 1.315.546 2.691.812 4.056.812 2.735 0 5.417-1.068 7.439-3.083l17.007-16.952 17.008 16.953c3.031 3.022 7.546 3.913 11.496 2.271 3.951-1.641 6.505-5.466 6.505-9.745v-33.443c0-4.142-3.357-7.5-7.5-7.5s-7.5 3.358-7.5 7.5v22.729l-12.559-12.518c-4.107-4.094-10.79-4.094-14.899-.001l-12.56 12.519v-78.406l11.109 11.109c2.454 2.453 5.676 3.68 8.899 3.68s6.446-1.227 8.9-3.68l11.108-11.108v20.676c0 4.142 3.357 7.5 7.5 7.5s7.5-3.358 7.5-7.5v-35.677l91.909-91.909c2.377-2.377 3.686-5.538 3.686-8.9s-1.306-6.523-3.683-8.9zm-85.181-63.967 15.565 15.565 15.565 15.565-31.13 31.13-31.13-31.13zm-61.745-87.399 12.56 12.519c4.109 4.094 10.792 4.093 14.897-.001l12.56-12.518v44.457l-11.108-11.108c-2.378-2.377-5.538-3.687-8.9-3.687s-6.522 1.309-8.9 3.687l-11.107 11.107v-44.456zm20.008 45.662 31.13 31.13-31.13 31.13-31.13-31.13zm-41.736 41.736 31.13 31.13-31.131 31.131-31.13-31.13zm-53.12-73.239 31.131 31.13-31.13 31.13-31.13-31.13zm-52.344 31.13-31.131 31.13-31.13-31.13 31.13-31.13zm-51.139-160.266 12.559 12.518c4.106 4.094 10.789 4.096 14.899.001l12.559-12.518v44.455l-11.107-11.108c-2.378-2.377-5.538-3.687-8.9-3.687s-6.522 1.309-8.9 3.687l-11.108 11.108v-44.456zm20.009 45.661 31.13 31.131-31.13 31.13-31.13-31.13zm-41.737 41.738 31.13 31.13-31.13 31.13-31.13-31.13zm-72.868 72.867 31.13-31.13 31.13 31.13-31.13 31.13zm72.868 72.867-31.13-31.13 31.13-31.13 31.13 31.13zm61.745 121.347-12.56-12.519c-4.109-4.094-10.792-4.093-14.897.001l-12.56 12.518v-78.405l11.108 11.108c2.378 2.377 5.538 3.687 8.9 3.687s6.522-1.309 8.9-3.687l11.107-11.107v78.404zm-20.008-79.61-31.131-31.131 31.13-31.13 31.13 31.131zm10.606-72.867 31.13-31.13 31.13 31.13-31.131 31.13zm56.877 116.71-.028 17.732-32.447-32.447v-42.922l6.835-6.835 10.836 10.836-1.266 1.266c-2.377 2.377-3.686 5.538-3.686 8.9s1.309 6.523 3.686 8.9l24.302 24.301c-4.696 1.062-8.223 5.261-8.232 10.269zm-3.757-43.47 31.13-31.13 31.13 31.13-31.13 31.13zm79.595 143.733-32.446 32.446-.028-17.733c-.01-5.798-4.735-10.523-10.534-10.534l-17.733-.029 53.908-53.908 6.834 6.834v42.924zm-6.728-70.866-31.13-31.13 31.13-31.13 31.13 31.13zm41.737 41.738-31.131-31.131 31.131-31.13 31.13 31.13zm41.737-41.738-31.13-31.13 3.117-3.117c2.929-2.929 2.929-7.678 0-10.606-2.929-2.929-7.677-2.929-10.607 0l-3.116 3.116-31.13-31.13 31.131-31.131 31.13 31.13-3.265 3.265c-2.929 2.929-2.929 7.678 0 10.606s7.677 2.929 10.607 0l3.265-3.265 31.13 31.13zm41.737-41.737-31.13-31.13 31.13-31.13 31.13 31.13z"/></g></svg>