<svg id="Capa_1" enable-background="new 0 0 512 512" height="512" viewBox="0 0 512 512" width="512" xmlns="http://www.w3.org/2000/svg"><g><g><g><g><path d="m433.195 504.504h-136.099v-108.434c0-3.915 3.173-7.088 7.088-7.088h121.922c3.915 0 7.088 3.173 7.088 7.088v108.434z" fill="#99e6fc"/></g><g><path d="m433.195 430.922h-136.099v-34.852c0-3.915 3.173-7.088 7.088-7.088h121.922c3.915 0 7.088 3.173 7.088 7.088v34.852z" fill="#f9f3f1"/></g><g><path d="m433.197 396.071v108.429h-19.989v-108.429c0-3.918-3.178-7.086-7.086-7.086h19.989c3.908 0 7.086 3.168 7.086 7.086z" fill="#62dbfb"/></g><g><path d="m433.197 396.071v34.85h-19.989v-34.85c0-3.918-3.178-7.086-7.086-7.086h19.989c3.908 0 7.086 3.168 7.086 7.086z" fill="#f3eae6"/></g><g><path d="m483.704 267.541c-7.819-8.222-20.655-9.023-29.436-1.837l-20.846 15.589v-147.485c0-13.485-8.422-21.906-18.811-21.906h-.321c-10.389 0-18.811 8.422-18.811 18.811v-17.58c0-10.389-8.422-18.811-18.811-18.811s-18.811 8.422-18.811 18.811v31.231c0-10.389-8.422-18.811-18.811-18.811-10.389 0-18.811 8.422-18.811 18.811v22.096 23.204c0-10.389-8.422-18.811-18.811-18.811-10.389 0-18.811 8.422-18.811 18.811v122.242c0 7.961 2.513 15.719 7.18 22.168l14.839 20.505c4.667 6.449 7.18 14.207 7.18 22.168v12.236h108.721v-15.243c0-10.312 4.212-20.177 11.66-27.309l50.793-48.296c8.628-8.26 8.948-21.94.718-30.594z" fill="#f6a96c"/></g><g><path d="m482.989 298.136-50.791 48.293c-7.446 7.136-11.663 17-11.663 27.315v15.241h-20.998v-23.187c0-10.314 4.218-20.179 11.663-27.315l50.791-48.293c8.126-7.776 8.875-20.358 2.059-29.024 6.986-1.289 14.442.89 19.659 6.376 8.225 8.657 7.905 22.329-.72 30.594z" fill="#ea9b58"/></g><g><path d="m433.427 133.809v147.487l-.679-.001c-10.668-.011-19.31-8.661-19.31-19.329v-128.157c0-8.855-3.638-15.531-9.085-19.069 2.888-1.799 6.297-2.838 9.934-2.838h.32c10.394-.001 18.82 8.425 18.82 21.907z" fill="#ea9b58"/></g><g><path d="m395.478 113.602v158.499c-10.675 0-19.329-8.654-19.329-19.329v-139.641c0-6.856-3.668-12.853-9.145-16.131 3.028-1.819 6.606-2.813 10.415-2.664 10.17.399 18.059 9.088 18.059 19.266z" fill="#ea9b58"/></g><g><path d="m357.859 144.817v127.284h-.66c-10.675 0-19.329-8.654-19.329-19.329v-108.409c0-6.716-3.518-12.603-8.815-15.931 3.005-1.903 6.595-2.962 10.442-2.873 10.289.238 18.362 8.967 18.362 19.258z" fill="#ea9b58"/></g><g><path d="m320.241 189.667v82.433h-.66c-10.675 0-19.329-8.654-19.329-19.329v-63.105c0-5.197-2.109-9.904-5.507-13.302-.999-.999-2.109-1.879-3.308-2.629 2.888-1.829 6.316-2.878 9.994-2.878 5.187 0 9.894 2.109 13.302 5.507 3.399 3.399 5.508 8.106 5.508 13.303z" fill="#ea9b58"/></g></g><g><path d="m214.899 504.504h-136.098v-108.434c0-3.915 3.173-7.088 7.088-7.088h121.922c3.915 0 7.088 3.173 7.088 7.088z" fill="#99e6fc"/></g><g><path d="m214.899 430.922h-136.098v-34.852c0-3.915 3.173-7.088 7.088-7.088h121.922c3.915 0 7.088 3.173 7.088 7.088z" fill="#f9f3f1"/></g><g><path d="m214.901 396.071v108.429h-19.989v-108.429c0-3.918-3.178-7.086-7.086-7.086h19.989c3.908 0 7.086 3.168 7.086 7.086z" fill="#62dbfb"/></g><g><path d="m214.901 396.071v34.85h-19.989v-34.85c0-3.918-3.178-7.086-7.086-7.086h19.989c3.908 0 7.086 3.168 7.086 7.086z" fill="#f3eae6"/></g><g><path d="m28.294 267.541c7.819-8.222 20.655-9.023 29.436-1.837l20.846 15.589v-147.485c0-13.485 8.422-21.906 18.811-21.906h.321c10.389 0 18.811 8.422 18.811 18.811v-17.58c0-10.389 8.422-18.811 18.811-18.811s18.811 8.422 18.811 18.811v31.231c0-10.389 8.422-18.811 18.811-18.811 10.389 0 18.811 8.422 18.811 18.811v22.096 23.204c0-10.389 8.422-18.811 18.811-18.811 10.389 0 18.811 8.422 18.811 18.811v122.242c0 7.961-2.513 15.719-7.18 22.168l-14.839 20.505c-4.667 6.449-7.18 14.207-7.18 22.168v12.236h-108.724v-15.243c0-10.312-4.212-20.177-11.66-27.309l-50.793-48.296c-8.625-8.26-8.945-21.94-.715-30.594z" fill="#f6a96c"/></g><g><path d="m106.943 311.619.18 7.546-.094.075c-4.37 3.467-10.735 1.529-12.67-3.703-1.179-3.187-2.942-6.157-5.216-8.684-4.24-4.706-9.782-7.855-16.753-8.652-3.547-.405-6.935-1.706-9.794-3.844l-15.94-11.92c-4.008-3.288-8.875-4.897-13.722-4.897-3.628 0-7.256.91-10.494 2.698.47-4.597 2.429-9.085 5.857-12.693 4.238-4.467 9.964-6.736 15.711-6.736 4.837 0 9.704 1.609 13.722 4.897l20.848 15.591c9.305-.36 16.441 3.068 21.628 8.825 5.188 5.756 7.707 13.811 6.737 21.497z" fill="#ea9b58"/></g><g><path d="m191.765 144.853v127.248h-.57c-10.697 0-19.369-8.672-19.369-19.369v-108.369c0-6.726-3.528-12.623-8.845-15.951 3.021-1.892 6.621-2.953 10.469-2.852 10.276.271 18.315 9.014 18.315 19.293z" fill="#ea9b58"/></g><g><path d="m154.136 113.584v158.517h-.44c-10.697 0-19.369-8.672-19.369-19.369v-139.601c0-6.746-3.558-12.673-8.905-15.991 3.001-1.865 6.556-2.905 10.371-2.813 10.281.248 18.343 8.974 18.343 19.257z" fill="#ea9b58"/></g><g><path d="m116.518 130.711v141.39c-10.697 0-19.369-8.672-19.369-19.369v-122.021c0-6.866-3.678-12.883-9.185-16.161 2.768-1.729 5.987-2.648 9.425-2.648h.32c10.387-.001 18.809 8.421 18.809 18.809z" fill="#ea9b58"/></g><g><path d="m229.384 189.667v122.241c0 7.956-2.519 15.711-7.186 22.167l-14.832 20.498c-4.667 6.456-7.186 14.212-7.186 22.167v12.243h-19.709v-12.243c0-7.956 2.519-15.711 7.186-22.167l14.842-20.498c4.667-6.456 7.176-14.212 7.176-22.167v-122.241c0-5.197-2.109-9.904-5.507-13.302-1.039-1.029-2.199-1.949-3.448-2.718 2.858-1.769 6.236-2.788 9.854-2.788 5.187 0 9.894 2.109 13.302 5.507 3.399 3.397 5.508 8.104 5.508 13.301z" fill="#ea9b58"/></g></g><g><path d="m437.361 351.862 50.812-48.314c11.578-11.087 12.01-29.557.963-41.173-10.421-10.959-27.725-12.08-39.478-2.584l-8.739 6.536v-54.684c0-4.14-3.356-7.496-7.496-7.496s-7.496 3.356-7.496 7.496v62.633c-7.686 1.268-14.391 4.931-19.705 10.826-6.634 7.361-9.849 17.625-8.601 27.457.509 4.009 4.343 6.992 8.348 6.495 4.067-.505 7.041-4.314 6.524-8.384-.696-5.478 1.167-11.43 4.864-15.531 4.08-4.527 9.242-6.612 15.777-6.355 1.691.059 3.414-.469 4.776-1.487.019-.014 20.847-15.589 20.847-15.589.087-.066.173-.133.258-.202 5.713-4.676 14.172-4.146 19.257 1.202 5.369 5.646 5.159 14.625-.45 19.996l-50.812 48.314c-8.879 8.503-13.971 20.429-13.971 32.723v7.747h-93.729v-4.74c0-9.6-2.975-18.785-8.604-26.562l-14.838-20.505c-3.766-5.205-5.757-11.351-5.757-17.774v-122.243c0-6.239 5.076-11.315 11.315-11.315s11.315 5.076 11.315 11.315v75.061c0 4.14 3.356 7.496 7.496 7.496s7.496-3.356 7.496-7.496v-120.361c0-6.239 5.076-11.315 11.315-11.315s11.315 5.076 11.316 11.334v120.342c0 4.14 3.356 7.496 7.496 7.496s7.496-3.356 7.496-7.496l-.001-151.592c0-6.239 5.076-11.315 11.315-11.315s11.315 5.076 11.315 11.315v151.592c0 4.14 3.356 7.496 7.496 7.496s7.496-3.356 7.496-7.496v-134.012c0-6.239 5.076-11.315 11.315-11.315h.322c6.768 0 11.315 5.791 11.315 14.411v43.346c0 4.14 3.356 7.496 7.496 7.496s7.496-3.356 7.496-7.496v-43.346c0-17.037-11.063-29.402-26.307-29.402h-.322c-4.307 0-8.377 1.041-11.969 2.884-2.665-11.702-13.155-20.464-25.653-20.464-14.505 0-26.306 11.801-26.306 26.307v7.484c-3.429-1.64-7.267-2.56-11.315-2.56-14.505 0-26.306 11.801-26.306 26.306v21.553c-3.429-1.64-7.267-2.56-11.315-2.56-14.505 0-26.306 11.801-26.306 26.307v122.242c0 9.6 2.975 18.785 8.604 26.563l14.838 20.505c3.766 5.204 5.758 11.35 5.758 17.773v4.74h-.135c-8.042 0-14.584 6.542-14.584 14.584v108.434c0 4.14 3.355 7.496 7.496 7.496h136.099c4.14 0 7.496-3.356 7.496-7.496v-108.435c0-7.387-5.526-13.494-12.659-14.441v-7.889c-.003-8.226 3.404-16.207 9.326-21.878zm-11.662 145.146h-121.107v-58.59h121.107zm0-73.582h-121.107v-26.949h121.107z"/><path d="m210.571 163.357c-4.047 0-7.886.919-11.315 2.56v-21.553c0-14.505-11.801-26.306-26.307-26.306-4.047 0-7.886.919-11.315 2.56v-7.484c0-14.505-11.801-26.307-26.306-26.307-12.498 0-22.988 8.761-25.652 20.464-3.592-1.843-7.662-2.884-11.969-2.884h-.321c-15.243 0-26.306 12.366-26.306 29.402v132.519l-8.739-6.536c-11.747-9.496-29.056-8.377-39.478 2.584-11.047 11.616-10.615 30.086.982 41.191l50.773 48.278c5.942 5.689 9.349 13.67 9.349 21.895v7.888c-7.134.946-12.661 7.054-12.661 14.442v52.44c0 4.14 3.356 7.496 7.496 7.496s7.496-3.356 7.496-7.496v-10.092h121.106v58.59h-121.107v-14.254c0-4.14-3.356-7.496-7.496-7.496s-7.496 3.356-7.496 7.496v21.749c0 4.14 3.356 7.496 7.496 7.496h136.098c4.14 0 7.496-3.356 7.496-7.496v-108.433c0-8.041-6.542-14.584-14.584-14.584h-.132v-4.74c0-6.424 1.99-12.57 5.757-17.773l14.839-20.505c5.628-7.777 8.603-16.962 8.603-26.563v-122.241c-.001-14.506-11.802-26.307-26.307-26.307zm-3.167 260.069h-121.107v-26.949h121.106v26.949zm14.481-111.521c0 6.424-1.99 12.57-5.756 17.774l-14.839 20.505c-5.628 7.776-8.603 16.962-8.603 26.562v4.74h-93.729v-7.747c0-12.293-5.093-24.22-13.991-32.741l-50.773-48.277c-5.628-5.39-5.837-14.368-.468-20.015 5.088-5.348 13.545-5.877 19.257-1.202.085.069.171.136.259.202l20.845 15.589c.022.017.047.028.069.045 2.973 2.177 7.154 1.166 10.556 1.919 3.875.858 7.278 2.939 9.928 5.879 3.696 4.101 5.56 10.052 4.863 15.53-.522 4.107 2.385 7.859 6.491 8.382 4.028.513 7.863-2.417 8.382-6.49 1.25-9.832-1.966-20.097-8.601-27.458-5.314-5.895-12.02-9.559-19.704-10.826v-140.468c0-8.62 4.547-14.411 11.315-14.411h.321c6.239 0 11.315 5.076 11.315 11.315v134.012c0 4.14 3.356 7.496 7.496 7.496s7.496-3.356 7.496-7.496v-151.591c0-6.239 5.076-11.315 11.315-11.315s11.315 5.076 11.315 11.315l-.002 151.592c0 4.14 3.356 7.496 7.496 7.496s7.496-3.356 7.496-7.496v-120.324c0-.013.002-.025.002-.038 0-6.239 5.076-11.315 11.315-11.315s11.315 5.076 11.315 11.315v120.361c0 4.14 3.356 7.496 7.496 7.496s7.496-3.356 7.496-7.496v-75.061c0-6.239 5.076-11.315 11.315-11.315s11.315 5.076 11.315 11.315v122.242z"/><path d="m255.999 0c-4.14 0-7.496 3.356-7.496 7.496v15.068c0 4.14 3.355 7.496 7.496 7.496 4.14 0 7.496-3.356 7.496-7.496v-15.068c0-4.14-3.356-7.496-7.496-7.496z"/><path d="m202.292 38.962c1.389 2.405 3.908 3.749 6.498 3.749 1.272 0 2.561-.324 3.741-1.006 3.585-2.07 4.814-6.654 2.744-10.239l-7.534-13.049c-2.071-3.586-6.656-4.813-10.239-2.744-3.585 2.07-4.814 6.654-2.744 10.239z"/><path d="m157.422 68.737 13.049 7.534c1.181.682 2.469 1.006 3.741 1.006 2.59 0 5.11-1.345 6.498-3.749 2.07-3.585.841-8.17-2.744-10.239l-13.049-7.534c-3.587-2.071-8.17-.841-10.239 2.744-2.07 3.584-.841 8.168 2.744 10.238z"/><path d="m337.786 77.276c1.272 0 2.561-.324 3.741-1.006l13.049-7.534c3.585-2.07 4.814-6.654 2.744-10.239-2.069-3.585-6.655-4.814-10.239-2.744l-13.049 7.534c-3.585 2.07-4.814 6.654-2.744 10.239 1.388 2.406 3.908 3.75 6.498 3.75z"/><path d="m299.467 41.706c1.181.682 2.469 1.006 3.741 1.006 2.59 0 5.11-1.344 6.498-3.749l7.534-13.049c2.07-3.585.841-8.169-2.744-10.239-3.588-2.07-8.17-.842-10.239 2.744l-7.534 13.049c-2.07 3.584-.841 8.168 2.744 10.238z"/></g></g></svg>