<svg id="Capa_1" enable-background="new 0 0 512 512" height="512" viewBox="0 0 512 512" width="512" xmlns="http://www.w3.org/2000/svg"><g><g fill="#d8aa5e"><path d="m182.598 78.807h-98.749c-2.785 0-5.042 2.257-5.042 5.042v98.749z"/><path d="m327.988 433.193h100.163c2.785 0 5.042-2.257 5.042-5.042v-100.163z"/><path d="m433.193 182.598v-98.749c0-2.785-2.257-5.042-5.042-5.042h-98.749z"/><path d="m78.807 329.402v98.749c0 2.785 2.257 5.042 5.042 5.042h98.749z"/></g><g fill="#c99c56"><path d="m120.614 83.849c0-2.785 2.257-5.042 5.042-5.042h-41.807c-2.785 0-5.042 2.257-5.042 5.042v98.749l41.807-41.807z"/><path d="m120.614 428.151v-56.942l-41.807-41.807v98.749c0 2.785 2.257 5.042 5.042 5.042h41.807c-2.784 0-5.042-2.258-5.042-5.042z"/></g><g><path d="m503.029 259.565c1.969-1.969 1.969-5.162 0-7.131l-243.464-243.463c-1.969-1.969-5.162-1.969-7.131 0l-243.463 243.464c-1.969 1.969-1.969 5.162 0 7.131l243.464 243.464c1.969 1.969 5.162 1.969 7.131 0z" fill="#c53287"/></g><g><path d="m59.472 259.565c-1.969-1.969-1.969-5.162 0-7.131l221.779-221.778-21.686-21.685c-1.969-1.969-5.162-1.969-7.131 0l-243.463 243.464c-1.969 1.969-1.969 5.162 0 7.131l243.464 243.464c1.969 1.969 5.162 1.969 7.131 0l21.685-21.685z" fill="#a82975"/></g><g fill="#fff"><path d="m289.444 160.343c0 9.728-1.23 19.168-3.537 28.177h37.574v37.574c9.009-2.308 18.449-3.537 28.177-3.537 8.901 0 17.561 1.029 25.87 2.972l-14.048-14.049v-62.96h-62.96l-14.048-14.048c1.943 8.309 2.972 16.97 2.972 25.871z"/><path d="m160.343 222.556c9.728 0 19.168 1.23 28.177 3.537v-37.573h37.574c-2.307-9.008-3.537-18.449-3.537-28.177 0-8.901 1.029-17.561 2.972-25.87l-14.049 14.047h-62.96v62.96l-14.048 14.048c8.309-1.942 16.969-2.972 25.871-2.972z"/><path d="m351.658 289.444c-9.728 0-19.168-1.23-28.177-3.537v37.574h-37.574c2.307 9.008 3.537 18.449 3.537 28.177 0 8.901-1.029 17.561-2.972 25.87l14.048-14.048h62.96v-62.96l14.048-14.048c-8.309 1.943-16.969 2.972-25.87 2.972z"/><path d="m222.556 351.657c0-9.728 1.23-19.168 3.537-28.177h-37.573v-37.574c-9.009 2.308-18.449 3.537-28.177 3.537-8.901 0-17.561-1.029-25.87-2.972l14.048 14.048v62.96h62.96l14.048 14.048c-1.944-8.308-2.973-16.968-2.973-25.87z"/></g><g fill="#f3f0f3"><path d="m160.343 222.556c2.314 0 4.61.075 6.89.212l9.823-9.823c.938-.938 1.464-2.209 1.464-3.536v-60.889h-30v62.96l-14.048 14.048c8.309-1.942 16.969-2.972 25.871-2.972z"/><path d="m167.232 289.232c-2.279.137-4.576.212-6.89.212-8.901 0-17.561-1.029-25.87-2.972l14.048 14.048v62.96h30v-60.889c0-1.326-.527-2.598-1.464-3.536z"/></g><g><path d="m188.52 283.951-27.952-27.951 27.951-27.951v-1.955c-9.009-2.308-18.449-3.537-28.177-3.537-31.409 0-59.829 12.791-80.343 33.444 20.514 20.653 48.933 33.444 80.343 33.444 9.728 0 19.168-1.23 28.177-3.537v-1.957z" fill="#80d261"/><g><path d="m125.802 252.345c15.254-13.998 34.358-23.864 55.54-27.837-6.806-1.277-13.823-1.952-21-1.952-31.409 0-59.829 12.791-80.343 33.444 20.514 20.653 48.933 33.444 80.343 33.444 7.177 0 14.194-.675 21-1.952-21.182-3.973-40.286-13.839-55.54-27.837-2.132-1.956-2.132-5.354 0-7.31z" fill="#4fc123"/></g><path d="m351.658 222.556c-9.728 0-19.168 1.23-28.177 3.537v1.955l27.951 27.952-27.951 27.951v1.955c9.009 2.308 18.449 3.537 28.177 3.537 31.409 0 59.829-12.791 80.343-33.444-20.515-20.652-48.935-33.443-80.343-33.443z" fill="#80d261"/><path d="m228.049 188.52 27.951-27.951 27.951 27.951h1.956c2.307-9.008 3.537-18.449 3.537-28.177 0-31.409-12.791-59.829-33.444-80.343-20.653 20.514-33.444 48.934-33.444 80.343 0 9.728 1.23 19.168 3.537 28.177z" fill="#80d261"/><path d="m228.049 188.52 15.761-15.761c-.446-4.08-.697-8.218-.697-12.416 0-25.801 8.636-49.58 23.166-68.622-3.159-4.139-6.591-8.058-10.279-11.721-20.653 20.514-33.444 48.934-33.444 80.343 0 9.728 1.23 19.168 3.537 28.177z" fill="#4fc123"/><path d="m283.951 323.481-27.951 27.95-27.951-27.951h-1.955c-2.307 9.008-3.537 18.449-3.537 28.177 0 31.409 12.791 59.829 33.444 80.343 20.653-20.514 33.444-48.933 33.444-80.343 0-9.728-1.23-19.168-3.537-28.177h-1.957z" fill="#80d261"/><path d="m243.81 339.241-15.761-15.761h-1.956c-2.307 9.008-3.537 18.449-3.537 28.177 0 31.409 12.791 59.829 33.444 80.343 3.688-3.663 7.12-7.582 10.278-11.721-14.53-19.041-23.166-42.821-23.166-68.621 0-4.199.252-8.337.698-12.417z" fill="#4fc123"/></g><g><path d="m228.049 323.481h-39.529v-39.53l-27.952-27.951 27.952-27.951v-39.529h39.529l27.951-27.951 27.951 27.951h39.53v39.529l27.951 27.951-27.951 27.951v39.53h-39.53l-27.951 27.95z" fill="#c53287"/></g><g><g><path d="m209.088 323.481v-48.402c0-1.331-.53-2.606-1.474-3.545l-12.152-12.089c-1.925-1.915-1.97-5.017-.1-6.987l12.351-13.011c.882-.929 1.374-2.161 1.374-3.442v-47.485h-20.567v39.529l-27.952 27.951 27.951 27.951v39.529h20.569z" fill="#a82975"/></g></g><g><path d="m242.82 287.82h-18.64v-18.64l-13.18-13.18 13.18-13.18v-18.64h18.64l13.18-13.18 13.18 13.18h18.64v18.64l13.18 13.18-13.18 13.18v18.64h-18.64l-13.18 13.18z" fill="#d8aa5e"/></g><g><g><path d="m244.137 267.83-6.776-8.774c-1.39-1.8-1.39-4.312 0-6.113l6.776-8.774c.676-.875 1.043-1.95 1.043-3.056v-19.293l-2.36 2.36h-18.64v18.64l-13.18 13.18 13.18 13.18v18.64h18.64l2.36 2.36v-19.294c0-1.106-.367-2.181-1.043-3.056z" fill="#c99c56"/></g></g><g><path d="m508.334 247.131-67.64-67.64v-38.491c0-4.142-3.357-7.5-7.5-7.5s-7.5 3.358-7.5 7.5v23.491l-78.184-78.184h78.184v19.693c0 4.142 3.357 7.5 7.5 7.5s7.5-3.358 7.5-7.5v-22.151c0-6.916-5.627-12.542-12.543-12.542h-95.641l-67.643-67.641c-4.891-4.888-12.846-4.887-17.737.001l-67.64 67.64h-95.64c-6.916 0-12.543 5.626-12.543 12.542v95.642l-67.64 67.64c-4.889 4.89-4.889 12.847 0 17.737l67.64 67.64v95.642c0 6.916 5.627 12.542 12.543 12.542h95.641l67.64 67.64c2.445 2.445 5.656 3.668 8.868 3.667 3.212 0 6.424-1.222 8.87-3.667l67.64-67.64h95.641c6.916 0 12.543-5.626 12.543-12.542v-95.643l67.64-67.64c4.889-4.889 4.889-12.845.001-17.736zm-422.027-160.824h78.184l-78.184 78.184zm0 339.386v-78.184l78.184 78.184zm302.561-62.574c-2.929 2.929-2.929 7.678 0 10.607 2.93 2.929 7.678 2.929 10.607 0l26.218-26.218v78.185h-78.184l27.218-27.218c2.929-2.929 2.929-7.678 0-10.607-2.931-2.93-7.679-2.929-10.608 0l-108.119 108.12-239.988-239.988 239.988-239.988 239.988 239.988z"/><circle cx="106.5" cy="106.5" r="7.5"/><circle cx="405.5" cy="106.5" r="7.5"/><circle cx="106.5" cy="405.5" r="7.5"/><circle cx="405.5" cy="405.5" r="7.5"/><path d="m39.266 250.697c-2.929 2.929-2.929 7.678 0 10.607s7.678 2.929 10.607 0 2.929-7.678 0-10.607-7.678-2.929-10.607 0z"/><circle cx="256" cy="44.57" r="7.5"/><circle cx="256" cy="467.43" r="7.5"/><circle cx="467.43" cy="256" r="7.5"/><path d="m250.715 74.679c-15.802 15.695-26.725 34.973-32.013 56.013l-10.328 10.328h-59.854c-4.143 0-7.5 3.358-7.5 7.5v59.854l-10.328 10.328c-21.04 5.287-40.318 16.21-56.013 32.013-2.905 2.925-2.905 7.646 0 10.57 15.695 15.803 34.973 26.726 56.013 32.013l10.328 10.328v59.854c0 4.142 3.357 7.5 7.5 7.5h59.854l10.328 10.328c5.287 21.04 16.21 40.317 32.012 56.012 1.462 1.453 3.374 2.179 5.285 2.179s3.823-.726 5.285-2.179c15.802-15.695 26.725-34.973 32.012-56.012l10.328-10.328h59.854c4.143 0 7.5-3.358 7.5-7.5v-59.854l10.328-10.328c21.04-5.287 40.317-16.21 56.013-32.013 2.905-2.925 2.905-7.646 0-10.57-15.696-15.803-34.973-26.726-56.013-32.013l-10.328-10.328v-10.374c0-4.142-3.357-7.5-7.5-7.5s-7.5 3.358-7.5 7.5v13.48c0 1.308.348 2.578.982 3.696-1.762-.076-3.53-.12-5.305-.12-7.005 0-13.914.604-20.677 1.766v-28.302c0-4.142-3.357-7.5-7.5-7.5h-28.304c1.163-6.763 1.767-13.672 1.767-20.677 0-1.775-.045-3.543-.121-5.305 1.119.634 2.388.982 3.697.982h55.461v6.98c0 4.142 3.357 7.5 7.5 7.5s7.5-3.358 7.5-7.5v-14.48c0-4.142-3.357-7.5-7.5-7.5h-59.854l-10.328-10.328c-5.287-21.04-16.21-40.317-32.013-56.013-2.922-2.906-7.644-2.906-10.568 0zm-94.695 136.802v-55.46h55.461c1.308 0 2.578-.348 3.697-.982-.076 1.762-.12 3.53-.12 5.305 0 7.005.604 13.914 1.766 20.677h-28.304c-4.143 0-7.5 3.358-7.5 7.5v28.303c-6.762-1.163-13.672-1.766-20.677-1.766-1.775 0-3.543.045-5.305.12.634-1.12.982-2.389.982-3.697zm-65.061 44.519c19.241-16.785 43.597-25.944 69.384-25.944 4.917 0 9.782.337 14.569.993l-19.647 19.647c-2.929 2.929-2.929 7.678 0 10.606l19.647 19.647c-4.788.656-9.652.993-14.569.993-25.787.002-50.143-9.157-69.384-25.942zm124.218 100.963c-1.119-.634-2.388-.982-3.697-.982h-55.46v-55.46c0-1.308-.348-2.578-.982-3.697 1.762.076 3.53.12 5.305.12 7.005 0 13.914-.604 20.677-1.766v28.303c0 4.142 3.357 7.5 7.5 7.5h28.304c-1.163 6.763-1.766 13.672-1.766 20.677-.001 1.774.044 3.542.119 5.305zm40.823 64.078c-16.784-19.241-25.943-43.597-25.943-69.384 0-4.917.337-9.781.993-14.569l19.646 19.646c1.465 1.464 3.385 2.197 5.304 2.197s3.839-.732 5.304-2.197l19.646-19.646c.656 4.788.993 9.652.993 14.569 0 25.787-9.159 50.143-25.943 69.384zm99.98-120.521v55.46h-55.46c-1.309 0-2.578.348-3.697.982.076-1.762.121-3.53.121-5.305 0-7.005-.604-13.914-1.766-20.677h28.303c4.143 0 7.5-3.358 7.5-7.5v-28.303c6.763 1.163 13.672 1.766 20.677 1.766 1.775 0 3.543-.045 5.305-.12-.635 1.119-.983 2.389-.983 3.697zm-4.323-70.464c25.787 0 50.143 9.159 69.384 25.944-19.241 16.785-43.597 25.944-69.384 25.944-4.917 0-9.782-.337-14.569-.993l19.647-19.647c2.929-2.929 2.929-7.678 0-10.606l-19.647-19.647c4.788-.657 9.652-.995 14.569-.995zm-35.677-34.036v32.029c0 1.989.79 3.897 2.196 5.303l22.649 22.648-22.648 22.648c-1.406 1.406-2.196 3.314-2.196 5.303v32.029h-32.029c-1.989 0-3.896.79-5.304 2.197l-22.648 22.648-22.647-22.647c-1.407-1.407-3.314-2.197-5.304-2.197h-32.029v-32.029c0-1.989-.79-3.897-2.196-5.303l-22.649-22.649 22.648-22.648c1.406-1.406 2.196-3.314 2.196-5.303v-32.029h32.029c1.989 0 3.896-.79 5.304-2.197l22.648-22.648 22.647 22.647c1.407 1.407 3.314 2.197 5.304 2.197h32.029zm-35.03-21.108-19.646-19.646c-2.93-2.929-7.678-2.929-10.607 0l-19.646 19.646c-.656-4.788-.993-9.652-.993-14.569 0-25.787 9.159-50.143 25.943-69.384 16.784 19.241 25.943 43.597 25.943 69.384-.001 4.917-.338 9.781-.994 14.569z"/><path d="m261.303 205.697c-2.928-2.929-7.678-2.929-10.605 0l-10.984 10.983h-15.534c-4.143 0-7.5 3.358-7.5 7.5v15.533l-10.983 10.983c-2.929 2.929-2.929 7.678 0 10.606l10.983 10.983v15.533c0 4.142 3.357 7.5 7.5 7.5h15.533l10.984 10.983c1.464 1.464 3.384 2.197 5.303 2.197s3.839-.732 5.303-2.197l10.984-10.983h15.533c4.143 0 7.5-3.358 7.5-7.5v-15.533l10.983-10.983c2.929-2.929 2.929-7.678 0-10.606l-10.983-10.983v-15.533c0-4.142-3.357-7.5-7.5-7.5h-15.533zm21.214 42.426 7.877 7.877-7.877 7.877c-1.406 1.407-2.196 3.314-2.196 5.303v11.14h-11.14c-1.989 0-3.896.79-5.303 2.197l-7.878 7.877-7.878-7.877c-1.406-1.407-3.313-2.197-5.303-2.197h-11.14v-11.14c0-1.989-.79-3.896-2.196-5.303l-7.877-7.877 7.877-7.877c1.406-1.407 2.196-3.314 2.196-5.303v-11.14h11.14c1.989 0 3.896-.79 5.303-2.197l7.878-7.877 7.878 7.877c1.406 1.407 3.313 2.197 5.303 2.197h11.14v11.14c-.001 1.989.789 3.896 2.196 5.303z"/></g></g></svg>