<svg id="Capa_1" enable-background="new 0 0 512 512" height="512" viewBox="0 0 512 512" width="512" xmlns="http://www.w3.org/2000/svg"><g><g><path d="m256 7.483c-137.248 0-248.517 111.269-248.517 248.517s111.269 248.517 248.517 248.517 248.517-111.269 248.517-248.517-111.269-248.517-248.517-248.517zm-24.981 448.538c-40.854-5.048-77.917-22.318-107.418-48.037l107.418-107.418zm0-226.11-140.79 140.78c-22.567-32.554-35.786-72.081-35.786-114.691 0-102.859 77.039-187.72 176.576-200.021zm49.962 226.11v-155.456l107.418 107.418c-29.5 25.72-66.563 42.99-107.418 48.038zm140.79-85.33-140.79-140.78v-173.932c99.537 12.301 176.576 97.162 176.576 200.021 0 42.61-13.219 82.137-35.786 114.691z" fill="#ade194"/></g><g><path d="m274.836 8.191c118.831 18.626 209.728 121.455 209.728 245.504 0 137.248-111.269 248.517-248.517 248.517-6.335 0-12.62-.239-18.836-.708 12.64 1.985 25.59 3.013 38.789 3.013 137.248 0 248.517-111.269 248.517-248.517 0-130.913-101.233-238.181-229.681-247.809z" fill="#97da7b"/></g><g><path d="m437.02 74.981c-48.353-48.352-112.64-74.981-181.02-74.981s-132.667 26.629-181.02 74.981c-48.351 48.352-74.98 112.639-74.98 181.019s26.629 132.667 74.98 181.019c48.353 48.352 112.64 74.981 181.02 74.981 41.576 0 82.859-10.196 119.385-29.486 35.353-18.67 66.299-45.805 89.492-78.472 2.393-3.37 1.601-8.04-1.769-10.433s-8.042-1.6-10.433 1.769c-21.844 30.765-50.987 56.32-84.279 73.902-34.38 18.157-73.246 27.754-112.396 27.754-64.383 0-124.912-25.072-170.437-70.598-45.526-45.524-70.598-106.053-70.598-170.436s25.072-124.912 70.598-170.437c45.525-45.526 106.054-70.598 170.437-70.598s124.912 25.072 170.437 70.598c45.526 45.525 70.598 106.055 70.598 170.438 0 38.87-8.965 75.972-26.646 110.274-1.893 3.673-.45 8.185 3.223 10.079 3.673 1.892 8.186.451 10.079-3.223 18.785-36.444 28.309-75.852 28.309-117.131 0-68.38-26.629-132.667-74.98-181.019z"/><path d="m231.019 111.356c4.133 0 7.482-3.35 7.482-7.482v-47.895c0-2.144-.92-4.186-2.526-5.606s-3.748-2.084-5.874-1.82c-104.408 12.903-183.141 102.086-183.141 207.447 0 42.791 12.836 83.924 37.119 118.954 1.264 1.823 3.271 2.991 5.48 3.189.223.02.447.03.67.03 1.975 0 3.881-.782 5.289-2.191l140.79-140.78c1.404-1.404 2.192-3.307 2.192-5.291v-91.33c0-4.132-3.35-7.482-7.482-7.482s-7.482 3.35-7.482 7.482v88.23l-132.114 132.105c-19.325-30.816-29.497-66.208-29.497-102.916 0-94.971 68.899-175.783 161.611-191.371v39.244c0 4.133 3.35 7.483 7.483 7.483z"/><path d="m225.727 295.275-107.418 107.418c-1.465 1.466-2.257 3.474-2.187 5.547.071 2.072.999 4.022 2.562 5.384 31.522 27.483 70.05 44.712 111.417 49.824.307.038.613.057.918.057 1.815 0 3.581-.661 4.956-1.876 1.607-1.42 2.526-3.462 2.526-5.606v-155.458c0-3.027-1.823-5.755-4.619-6.913s-6.014-.517-8.155 1.623zm-2.191 152.096c-32.577-5.475-63.012-19.132-88.864-39.878l88.864-88.863z"/><path d="m278.118 293.652c-2.796 1.158-4.619 3.886-4.619 6.913v155.456c0 2.144.92 4.185 2.526 5.606 1.375 1.216 3.141 1.876 4.956 1.876.305 0 .612-.018.918-.057 41.367-5.112 79.895-22.34 111.417-49.824 1.563-1.362 2.49-3.313 2.562-5.384.07-2.072-.722-4.081-2.187-5.547l-107.418-107.416c-2.142-2.14-5.359-2.781-8.155-1.623zm10.346 24.977 88.864 88.863c-25.852 20.746-56.287 34.403-88.864 39.878z"/><path d="m421.77 378.173c.223 0 .447-.01.67-.03 2.21-.198 4.217-1.366 5.48-3.189 24.283-35.03 37.119-76.163 37.119-118.954 0-105.361-78.733-194.544-183.141-207.447-2.135-.265-4.267.399-5.874 1.82-1.607 1.42-2.526 3.462-2.526 5.606v173.932c0 1.985.788 3.888 2.192 5.291l140.79 140.78c1.41 1.409 3.315 2.191 5.29 2.191zm-133.306-313.544c92.712 15.587 161.611 96.4 161.611 191.371 0 36.708-10.172 72.1-29.497 102.916l-132.114-132.104z"/></g></g></svg>