<svg id="Capa_1" enable-background="new 0 0 512 512" height="512" viewBox="0 0 512 512" width="512" xmlns="http://www.w3.org/2000/svg"><g><g><path d="m104.645 38.827h302.711v434.689h-302.711z" fill="#fd8087"/></g><g><path d="m387.397 38.827h19.958v434.689h-19.958z" fill="#fe646f"/></g><g><path d="m300.788 229.307c11.576-9.712 18.969-16.924 19.996-32 1.028-15.076-4.324-30.483-14.475-41.676-4.817-5.312-10.592-9.646-15.963-14.398-12.504-11.062-22.881-18.985-30.439-32.14-1.72-2.995-6.095-2.995-7.815 0-7.558 13.155-17.934 21.078-30.439 32.14-5.371 4.751-11.146 9.086-15.963 14.398-10.151 11.193-15.503 26.601-14.475 41.676s8.42 22.288 19.996 32c0 0-33.391 16.891-33.391 50.493v117.261c0 4.659 3.777 8.435 8.435 8.435h69.745 69.744c4.659 0 8.435-3.777 8.435-8.435v-117.261c0-33.602-33.391-50.493-33.391-50.493z" fill="#f9f3f1"/></g><g><path d="m334.177 279.803v117.256c0 4.663-3.78 8.442-8.442 8.442h-19.948c4.66 0 8.432-3.782 8.432-8.442v-117.256c0-22.638-17.837-37.332-29.476-44.511-4.478-2.762-4.929-9.113-.851-12.438 8.597-7.01 16.169-14.319 16.935-25.549 1.028-15.069-4.321-30.477-14.48-41.673-4.81-5.309-10.588-9.65-15.957-14.4-9.43-8.343-17.663-14.899-24.369-23.272 2.185-2.714 4.211-5.628 6.067-8.862 1.726-3.004 6.097-3.004 7.824 0 7.554 13.153 17.933 21.076 30.437 32.133 5.369 4.75 11.147 9.091 15.957 14.4 10.159 11.197 15.508 26.605 14.48 41.673-1.028 15.079-8.422 22.294-19.998 32.003-.001.001 33.389 16.896 33.389 50.496z" fill="#f3eae6"/></g><g><path d="m104.645 38.827h302.711v32.273h-302.711z" fill="#fee97d"/></g><g><path d="m104.645 441.243h302.711v32.273h-302.711z" fill="#fee97d"/></g><g><path d="m387.397 441.243h19.958v32.273h-19.958z" fill="#fedf30"/></g><g><path d="m387.397 38.827h19.958v32.273h-19.958z" fill="#fedf30"/></g><g><path d="m328.251 197.816c1.174-17.22-4.803-34.428-16.398-47.213-6.55-7.222-14.507-13.227-21.847-19.611-9.925-8.633-17.764-15.452-23.609-25.628-2.127-3.702-6.111-6.001-10.397-6.001s-8.27 2.299-10.398 6.002c-5.845 10.175-13.684 16.993-23.609 25.627-7.361 6.403-15.262 12.35-21.846 19.611-11.595 12.785-17.571 29.993-16.398 47.213.957 14.051 6.649 22.499 15.075 30.537-11.111 8.189-28.488 25.195-28.488 51.447v117.261c0 8.778 7.142 15.92 15.92 15.92h19.364c4.133 0 7.484-3.351 7.484-7.484s-3.351-7.484-7.484-7.484h-19.364c-.524 0-.951-.427-.951-.951v-117.262c0-28.465 29.011-43.674 29.285-43.815 2.244-1.135 3.769-3.322 4.057-5.82.288-2.499-.698-4.976-2.625-6.592-11.442-9.599-16.539-15.033-17.34-26.775-.885-12.987 3.807-26.497 12.552-36.139 6.143-6.773 13.696-12.383 20.583-18.374 9.313-8.101 17.506-15.229 24.182-25.287 6.677 10.059 14.869 17.186 24.183 25.287 6.878 5.983 14.448 11.61 20.583 18.374 8.745 9.642 13.437 23.152 12.552 36.139-.801 11.743-5.898 17.176-17.34 26.775-1.921 1.612-2.898 4.083-2.618 6.576.28 2.492 1.8 4.683 4.031 5.827.293.15 29.304 15.359 29.304 43.824v117.261c0 .524-.427.951-.951.951h-85.763c-4.133 0-7.484 3.351-7.484 7.484s3.351 7.484 7.484 7.484h85.764c8.778 0 15.92-7.142 15.92-15.92v-117.26c0-26.252-17.376-43.257-28.488-51.447 8.426-8.038 14.118-16.485 15.075-30.537z"/><path d="m134.771 90.851c-4.133 0-7.484 3.351-7.484 7.484v8.275c0 4.133 3.351 7.484 7.484 7.484s7.484-3.351 7.484-7.484v-8.275c.001-4.133-3.35-7.484-7.484-7.484z"/><path d="m134.771 134.716c-4.133 0-7.484 3.351-7.484 7.484v8.275c0 4.133 3.351 7.484 7.484 7.484s7.484-3.351 7.484-7.484v-8.275c.001-4.133-3.35-7.484-7.484-7.484z"/><path d="m134.771 178.581c-4.133 0-7.484 3.351-7.484 7.484v8.275c0 4.133 3.351 7.484 7.484 7.484s7.484-3.351 7.484-7.484v-8.275c.001-4.133-3.35-7.484-7.484-7.484z"/><path d="m134.771 222.446c-4.133 0-7.484 3.351-7.484 7.484v8.275c0 4.133 3.351 7.484 7.484 7.484s7.484-3.351 7.484-7.484v-8.275c.001-4.133-3.35-7.484-7.484-7.484z"/><path d="m134.771 266.311c-4.133 0-7.484 3.351-7.484 7.484v8.275c0 4.133 3.351 7.484 7.484 7.484s7.484-3.351 7.484-7.484v-8.275c.001-4.134-3.35-7.484-7.484-7.484z"/><path d="m134.771 310.175c-4.133 0-7.484 3.351-7.484 7.484v8.275c0 4.133 3.351 7.484 7.484 7.484s7.484-3.351 7.484-7.484v-8.275c.001-4.133-3.35-7.484-7.484-7.484z"/><path d="m134.771 354.04c-4.133 0-7.484 3.351-7.484 7.484v8.275c0 4.133 3.351 7.484 7.484 7.484s7.484-3.351 7.484-7.484v-8.275c.001-4.133-3.35-7.484-7.484-7.484z"/><path d="m134.771 397.904c-4.133 0-7.484 3.351-7.484 7.484v8.275c0 4.133 3.351 7.484 7.484 7.484s7.484-3.351 7.484-7.484v-8.275c.001-4.133-3.35-7.484-7.484-7.484z"/><path d="m377.229 114.095c4.133 0 7.484-3.351 7.484-7.484v-8.275c0-4.133-3.351-7.484-7.484-7.484s-7.484 3.351-7.484 7.484v8.275c-.001 4.133 3.35 7.484 7.484 7.484z"/><path d="m377.229 157.96c4.133 0 7.484-3.351 7.484-7.484v-8.275c0-4.133-3.351-7.484-7.484-7.484s-7.484 3.351-7.484 7.484v8.275c-.001 4.133 3.35 7.484 7.484 7.484z"/><path d="m377.229 201.825c4.133 0 7.484-3.351 7.484-7.484v-8.275c0-4.133-3.351-7.484-7.484-7.484s-7.484 3.351-7.484 7.484v8.275c-.001 4.133 3.35 7.484 7.484 7.484z"/><path d="m377.229 245.689c4.133 0 7.484-3.351 7.484-7.484v-8.275c0-4.133-3.351-7.484-7.484-7.484s-7.484 3.351-7.484 7.484v8.275c-.001 4.133 3.35 7.484 7.484 7.484z"/><path d="m377.229 289.554c4.133 0 7.484-3.351 7.484-7.484v-8.275c0-4.133-3.351-7.484-7.484-7.484s-7.484 3.351-7.484 7.484v8.275c-.001 4.133 3.35 7.484 7.484 7.484z"/><path d="m377.229 333.419c4.133 0 7.484-3.351 7.484-7.484v-8.275c0-4.133-3.351-7.484-7.484-7.484s-7.484 3.351-7.484 7.484v8.275c-.001 4.133 3.35 7.484 7.484 7.484z"/><path d="m377.229 377.284c4.133 0 7.484-3.351 7.484-7.484v-8.275c0-4.133-3.351-7.484-7.484-7.484s-7.484 3.351-7.484 7.484v8.275c-.001 4.133 3.35 7.484 7.484 7.484z"/><path d="m377.229 421.148c4.133 0 7.484-3.351 7.484-7.484v-8.275c0-4.133-3.351-7.484-7.484-7.484s-7.484 3.351-7.484 7.484v8.275c-.001 4.134 3.35 7.484 7.484 7.484z"/><path d="m407.355 0c-4.133 0-7.484 3.351-7.484 7.484v23.859h-22.87v-23.859c0-4.133-3.351-7.484-7.484-7.484s-7.484 3.351-7.484 7.484v23.859h-22.87v-23.859c0-4.133-3.351-7.484-7.484-7.484s-7.484 3.351-7.484 7.484v23.859h-22.87v-23.859c0-4.133-3.351-7.484-7.484-7.484s-7.484 3.351-7.484 7.484v23.859h-22.87v-23.859c-.003-4.133-3.354-7.484-7.487-7.484s-7.484 3.351-7.484 7.484v23.859h-22.87v-23.859c0-4.133-3.351-7.484-7.484-7.484s-7.484 3.351-7.484 7.484v23.859h-22.87v-23.859c0-4.133-3.351-7.484-7.484-7.484s-7.484 3.351-7.484 7.484v23.859h-22.87v-23.859c0-4.133-3.351-7.484-7.484-7.484s-7.484 3.351-7.484 7.484v23.859h-22.87v-23.859c0-4.133-3.351-7.484-7.484-7.484-4.134 0-7.484 3.351-7.484 7.484v497.031c0 4.133 3.351 7.484 7.484 7.484s7.484-3.351 7.484-7.484v-23.515h22.87v23.515c0 4.133 3.351 7.484 7.484 7.484 4.134 0 7.484-3.351 7.484-7.484v-23.515h22.87v23.515c0 4.133 3.351 7.484 7.484 7.484s7.484-3.351 7.484-7.484v-23.515h22.87v23.515c0 4.133 3.351 7.484 7.484 7.484s7.484-3.351 7.484-7.484v-23.515h22.87v23.515c0 4.133 3.351 7.484 7.484 7.484s7.484-3.351 7.484-7.484v-23.515h22.87v23.515c0 4.133 3.351 7.484 7.484 7.484s7.484-3.351 7.484-7.484v-23.515h22.87v23.515c0 4.133 3.351 7.484 7.484 7.484s7.484-3.351 7.484-7.484v-23.515h22.87v23.515c0 4.133 3.351 7.484 7.484 7.484s7.484-3.351 7.484-7.484v-23.515h22.87v23.515c0 4.133 3.351 7.484 7.484 7.484s7.484-3.351 7.484-7.484v-497.031c.004-4.133-3.347-7.484-7.481-7.484zm-7.484 466.032h-287.742v-17.304h287.742zm0-402.416h-50.202c-4.133 0-7.484 3.351-7.484 7.484s3.351 7.484 7.484 7.484h50.202v355.174h-287.742v-355.173h202.358c4.133 0 7.484-3.351 7.484-7.484s-3.351-7.484-7.484-7.484h-202.358v-17.305h287.742z"/></g></g></svg>