<svg id="Capa_1" enable-background="new 0 0 512 512" height="512" viewBox="0 0 512 512" width="512" xmlns="http://www.w3.org/2000/svg"><g><path d="m426.255 107.307c-8.841-56.545-57.758-99.807-116.784-99.807h-34.389c-59.026 0-107.943 43.262-116.784 99.807-.938 5.998-1.429 12.144-1.429 18.406v12.896h270.814v-12.896c0-6.262-.491-12.408-1.428-18.406z" fill="#fef1da"/><path d="m300.048 320.036h-15.543c-3.329 0-6.619-.165-9.866-.477v27.224h35.274v-27.224c-3.247.312-6.537.477-9.865.477z" fill="#d88a55"/><g fill="#554e56"><path d="m401.891 172.172h10.885c5.428 0 10.514 1.449 14.907 3.97v-37.534h-25.792z"/><path d="m156.869 138.608v37.534c4.393-2.521 9.479-3.97 14.907-3.97h10.885v-33.564z"/></g><g fill="#ea9b58"><path d="m182.661 218.193v-46.02h-10.885c-16.569 0-30 13.432-30 30v12.115c0 16.569 13.431 30 30 30h14.272c-2.202-8.331-3.387-17.074-3.387-26.095z"/><path d="m412.776 172.172h-10.885v46.02c0 9.022-1.185 17.765-3.387 26.094h14.272c16.569 0 30-13.431 30-30v-12.115c0-16.567-13.431-29.999-30-29.999z"/></g><path d="m182.661 138.608v79.584c0 39.578 22.577 73.882 55.553 90.739h31.425c2.761 0 5 2.239 5 5v5.628c3.247.312 6.537.477 9.866.477h15.543c3.329 0 6.619-.165 9.866-.477v-5.628c0-2.761 2.239-5 5-5h31.425c32.977-16.857 55.553-51.161 55.553-90.739v-79.584z" fill="#ea9b58"/><path d="m300.048 320.036h-15.543c-3.329 0-6.619-.165-9.866-.477v27.224h35.274v-27.224c-3.247.312-6.537.477-9.865.477z" fill="#d88a55"/><path d="m274.639 346.784v-32.852c0-2.761-2.239-5-5-5h-56.478c-2.761 0-5 2.239-5 5v32.852z" fill="#fef1da"/><path d="m376.392 346.784v-32.852c0-2.761-2.239-5-5-5h-56.478c-2.761 0-5 2.239-5 5v32.852z" fill="#fef1da"/><g><path d="m401.891 218.193v-4.858c-2.769-.737-5.676-1.135-8.677-1.135-18.582 0-33.646 15.064-33.646 33.646 0 14.886 9.671 27.505 23.069 31.94 12.112-16.756 19.254-37.339 19.254-59.593z" fill="#fd8087"/></g><g fill="#d88a55"><path d="m213.796 220.797c-.022-.867-.046-1.733-.046-2.605v-56.464h-31.089v51.605c2.769-.737 5.676-1.135 8.677-1.135 8.632.001 16.502 3.255 22.458 8.599z"/><path d="m222.289 259.047c-3.769 8.818-11.195 15.7-20.374 18.738l-.016-.014c9.43 13.051 21.875 23.779 36.316 31.16h31.099c-20.873-10.666-37.57-28.326-47.025-49.884z"/></g><path d="m201.899 277.771.016.014c13.398-4.435 23.069-17.054 23.069-31.94 0-18.582-15.064-33.646-33.646-33.646-3.001 0-5.908.398-8.677 1.135v4.858c0 22.247 7.134 42.827 19.238 59.579z" fill="#fd8087"/><path d="m182.661 138.608v23.121h89.112c18.574 0 35.104-9.132 45.358-23.121z" fill="#554e56"/><g><path d="m158.298 107.307c-.938 5.998-1.429 12.144-1.429 18.406v12.896h270.814v-12.896c0-6.261-.491-12.408-1.429-18.406z" fill="#fdf6ec"/></g><g><path d="m200.179 107.307h-41.881c-.938 5.998-1.429 12.144-1.429 18.406v12.896h41.881v-12.896c0-6.262.491-12.408 1.429-18.406z" fill="#fef1da"/></g><g><path d="m313.024 7.559c-1.181-.035-2.364-.059-3.553-.059h-34.389c-59.026 0-107.943 43.262-116.784 99.807h41.495c8.663-55.406 55.806-98.052 113.231-99.748z" fill="#fae2c0"/></g><g><path d="m274.639 346.784v-32.852c0-2.761-2.239-5-5-5h-56.478c-2.761 0-5 2.239-5 5v32.852z" fill="#fef1da"/><path d="m228.75 346.784v-32.852c0-2.761 2.239-5 5-5h-20.589c-2.761 0-5 2.239-5 5v32.852z" fill="#fae2c0"/><path d="m376.392 346.784v-32.852c0-2.761-2.239-5-5-5h-56.478c-2.761 0-5 2.239-5 5v32.852z" fill="#fef1da"/><path d="m330.75 346.784v-32.852c0-2.761 2.239-5 5-5h-20.837c-2.761 0-5 2.239-5 5v32.852z" fill="#fae2c0"/></g><path d="m392.163 346.784h-199.774c-2.695 0-5.345.188-7.952.516v111.7c0 2.761-2.239 5-5 5h-50.135v35.5c0 2.761 2.239 5 5 5h315.948c2.761 0 5-2.239 5-5v-89.63c0-34.842-28.245-63.086-63.087-63.086z" fill="#4fc123"/><g><path d="m171.75 499.5v-35.5h-42.447v35.5c0 2.761 2.239 5 5 5h42.447c-2.761 0-5-2.239-5-5z" fill="#47a920"/></g><g><path d="m263.837 250.051c-3.232 0-5.765 2.9-5.194 6.081 2.868 15.972 16.835 28.091 33.633 28.091 16.797 0 30.764-12.119 33.633-28.091.571-3.181-1.962-6.081-5.194-6.081z" fill="#fd8087"/></g><g><path d="m279.404 256.131c-.571-3.181 1.962-6.081 5.194-6.081h-20.76c-3.232 0-5.765 2.9-5.194 6.081 2.869 15.972 16.835 28.091 33.633 28.091 3.62 0 7.106-.566 10.38-1.608-11.92-3.796-21.002-13.953-23.253-26.483z" fill="#fe646f"/></g><g><path d="m309.913 346.784h-35.274v89.63c0 2.761 2.239 5 5 5h25.274c2.762 0 5-2.239 5-5z" fill="#fef1da"/></g><g><path d="m290.75 436.413v-89.63h-16.111v89.63c0 2.761 2.239 5 5 5h16.111c-2.761 0-5-2.238-5-5z" fill="#fae2c0"/></g><g><path d="m179.438 298.645h-106.5c-2.761 0-5 2.239-5 5v55.558c1.219-.32 2.493-.508 3.813-.508h15.513c8.284 0 15 6.716 15 15v39.26c0 8.284-6.716 15-15 15h-15.514c-1.32 0-2.593-.188-3.813-.508v31.553c0 2.761 2.239 5 5 5h106.5c2.761 0 5-2.239 5-5v-155.355c.001-2.761-2.238-5-4.999-5z" fill="#fd4755"/><g fill="#fb2b3a"><path d="m71.75 358.696h15.513c3.348 0 6.428 1.11 8.924 2.964v-18.718c1.07-.341 2.093-.784 3.063-1.313v-37.984c0-2.761 2.239-5 5-5h-31.312c-2.761 0-5 2.239-5 5v55.558c1.219-.319 2.492-.507 3.812-.507z"/><path d="m99.25 459v-37.054c-2.737 3.643-7.08 6.009-11.987 6.009h-15.513c-1.32 0-2.593-.188-3.813-.508v31.553c0 2.761 2.239 5 5 5h31.313c-2.761 0-5-2.239-5-5z"/></g><path d="m144.389 330.242h-36.404c-1.449 6.016-5.956 10.835-11.798 12.7v18.718c3.68 2.733 6.076 7.1 6.076 12.036v39.26c0 3.087-.935 5.955-2.533 8.34 4.082 2.396 7.116 6.379 8.256 11.108h36.404c1.449-6.016 5.956-10.835 11.798-12.7v-76.762c-5.842-1.866-10.349-6.685-11.799-12.7z" fill="#fff"/><path d="m107.986 330.242c-1.449 6.016-5.956 10.835-11.798 12.7v18.718c3.68 2.733 6.076 7.1 6.076 12.036v39.26c0 3.087-.935 5.955-2.533 8.34 4.082 2.396 7.116 6.379 8.256 11.108h8.764v-102.162z" fill="#f3f0f3"/></g><g><path d="m102.263 373.696v39.26c0 8.284-6.716 15-15 15h-15.513c-8.284 0-15-6.716-15-15v-39.26c0-8.284 6.716-15 15-15h15.513c8.285 0 15 6.716 15 15z" fill="#ea9b58"/></g><g><path d="m77.75 412.956v-39.26c0-7.346 5.284-13.448 12.257-14.738-.891-.165-1.805-.262-2.743-.262h-15.514c-8.284 0-15 6.716-15 15v39.26c0 8.284 6.716 15 15 15h15.513c.938 0 1.853-.097 2.743-.262-6.972-1.291-12.256-7.392-12.256-14.738z" fill="#d88a55"/></g><g><path d="m289.278 228.571h10.281c6.498 0 11.784-5.286 11.784-11.784 0-4.142-3.358-7.5-7.5-7.5-2.991 0-5.573 1.751-6.777 4.284h-7.787c-.588 0-1.067-.479-1.067-1.067v-19.504c0-4.142-3.358-7.5-7.5-7.5s-7.5 3.358-7.5 7.5v19.503c-.002 8.86 7.206 16.068 16.066 16.068z"/><path d="m233.708 178.413c-4.142 0-7.5 3.358-7.5 7.5v14.963c0 4.142 3.358 7.5 7.5 7.5s7.5-3.358 7.5-7.5v-14.963c0-4.142-3.358-7.5-7.5-7.5z"/><path d="m350.845 208.376c4.142 0 7.5-3.358 7.5-7.5v-14.963c0-4.142-3.358-7.5-7.5-7.5s-7.5 3.358-7.5 7.5v14.963c0 4.142 3.358 7.5 7.5 7.5z"/><path d="m320.715 242.551h-56.878c-3.803 0-7.383 1.674-9.825 4.593-2.408 2.88-3.411 6.64-2.75 10.313 3.565 19.855 20.814 34.266 41.014 34.266s37.449-14.411 41.014-34.266c.66-3.675-.343-7.434-2.751-10.314-2.441-2.918-6.021-4.592-9.824-4.592zm-28.439 34.172c-11.978 0-22.334-7.91-25.607-19.172h51.214c-3.272 11.261-13.629 19.172-25.607 19.172z"/><path d="m455.25 443.5c4.142 0 7.5-3.358 7.5-7.5v-26.13c0-38.921-31.665-70.586-70.586-70.586h-8.272v-25.352c0-6.893-5.607-12.5-12.5-12.5h-.546c15.274-13.012 26.948-30.13 33.264-49.645h8.667c20.678 0 37.5-16.822 37.5-37.5v-12.115c0-12.284-5.938-23.208-15.093-30.052v-46.408c0-6.538-.511-13.12-1.519-19.564-4.58-29.292-19.524-56.15-42.081-75.626-22.797-19.682-51.958-30.522-82.113-30.522h-34.389c-30.155 0-59.316 10.84-82.113 30.522-22.557 19.476-37.501 46.333-42.081 75.626-1.008 6.446-1.519 13.029-1.519 19.564v46.409c-9.155 6.844-15.093 17.767-15.093 30.051v12.115c0 20.678 16.822 37.5 37.5 37.5h8.667c6.315 19.515 17.989 36.633 33.263 49.645h-.546c-6.893 0-12.5 5.607-12.5 12.5v25.352l-8.723.007v-35.646c0-6.893-5.607-12.5-12.5-12.5h-106.5c-6.893 0-12.5 5.607-12.5 12.5v50.614c-6.684 3.905-11.188 11.153-11.188 19.437v39.26c0 8.284 4.503 15.532 11.188 19.437v26.607c0 6.893 5.607 12.5 12.5 12.5h48.865v28c0 6.893 5.607 12.5 12.5 12.5h315.948c6.893 0 12.5-5.607 12.5-12.5v-28.5c0-4.142-3.358-7.5-7.5-7.5s-7.5 3.358-7.5 7.5v26h-29.5v-64c0-4.142-3.358-7.5-7.5-7.5s-7.5 3.358-7.5 7.5v64h-266.447v-25.5h42.635c6.893 0 12.5-5.607 12.5-12.5v-104.708c.151-.001.3-.008.452-.008h74.75v82.13c0 6.893 5.607 12.5 12.5 12.5h25.274c6.893 0 12.5-5.607 12.5-12.5v-82.13h74.75c30.65 0 55.586 24.936 55.586 55.586v26.13c0 4.142 3.358 7.5 7.5 7.5zm-383.5-23.044c-4.136 0-7.5-3.364-7.5-7.5v-39.26c0-4.136 3.364-7.5 7.5-7.5h15.514c4.136 0 7.5 3.364 7.5 7.5v39.26c0 4.136-3.364 7.5-7.5 7.5zm105.188 36.044h-101.5v-21.044h11.826c4.608 0 8.895-1.394 12.466-3.78.425.776.754 1.609.965 2.485.812 3.369 3.826 5.744 7.292 5.744h36.403c3.465 0 6.48-2.375 7.292-5.744.828-3.438 3.429-6.239 6.788-7.312 3.109-.993 5.219-3.881 5.219-7.145v-19.704c0-4.142-3.358-7.5-7.5-7.5s-7.5 3.358-7.5 7.5v14.92c-3.99 2.392-7.266 5.863-9.427 9.983h-26.146c-1.12-2.135-2.544-4.091-4.207-5.817.553-1.951.856-4.006.856-6.131v-39.26c0-5.932-2.311-11.332-6.076-15.356v-10.615c3.99-2.392 7.266-5.863 9.427-9.983h26.146c2.161 4.12 5.437 7.591 9.427 9.983v17.276c0 4.142 3.358 7.5 7.5 7.5s7.5-3.358 7.5-7.5v-22.059c0-3.263-2.11-6.152-5.219-7.145-3.359-1.073-5.96-3.875-6.788-7.312-.812-3.369-3.826-5.743-7.292-5.743h-36.403c-3.465 0-6.479 2.374-7.292 5.743-.828 3.438-3.429 6.239-6.788 7.312-3.109.993-5.219 3.881-5.219 7.145v8.304c-.471-.03-.945-.05-1.424-.05h-11.826v-45.051h101.5zm202.974-188.16c-7.848-4.63-12.843-13.098-12.843-22.495 0-14.417 11.729-26.146 26.146-26.146.382 0 .763.021 1.144.037-.288 17.833-5.543 34.474-14.447 48.604zm55.364-66.168v12.115c0 12.407-10.093 22.5-22.5 22.5h-4.979c1.04-6.046 1.595-12.256 1.595-18.595v-38.52h3.385c12.406 0 22.499 10.094 22.499 22.5zm-25.884-37.5v-18.564h10.792v19.302c-2.395-.482-4.872-.738-7.407-.738zm-245.023-18.564h10.792v18.564h-3.385c-2.535 0-5.012.256-7.407.738zm7.407 90.679c-12.407 0-22.5-10.093-22.5-22.5v-12.115c0-12.407 10.093-22.5 22.5-22.5h3.385v38.52c0 6.339.554 12.549 1.595 18.595zm-7.407-105.679v-5.396c0-3.633.2-7.28.555-10.905h182.826c4.142 0 7.5-3.358 7.5-7.5s-3.358-7.5-7.5-7.5h-180.328c5.38-22.391 17.727-42.716 35.35-57.931 20.073-17.331 45.753-26.876 72.31-26.876h34.389c26.557 0 52.237 9.545 72.31 26.876 17.623 15.215 29.97 35.54 35.35 57.931h-34.38c-4.142 0-7.5 3.358-7.5 7.5s3.358 7.5 7.5 7.5h36.878c.355 3.625.555 7.271.555 10.905v5.396zm134.105 15c-7.771 5.141-16.998 8.121-26.7 8.121h-81.612v-8.121zm-93.825 122.245c-8.915-14.141-14.173-30.799-14.456-48.649.497-.004.969-.005 1.145-.005 14.417 0 26.146 11.729 26.146 26.146 0 9.398-4.986 17.879-12.835 22.508zm62.49 70.931h-51.479v-22.852h51.479zm35.275 94.63h-20.274v-79.63h20.274zm0-94.63h-20.274v-11.775h20.274zm12.5-37.852c-6.409 0-11.7 4.85-12.412 11.071h-20.45c-.712-6.221-6.003-11.071-12.412-11.071h-29.488c-10.049-5.381-19.018-12.526-26.489-21.021 11.554-7.444 18.822-20.335 18.822-34.565 0-22.688-18.458-41.146-41.146-41.146-.393 0-.784.021-1.177.033v-35.502h81.612c19.229 0 37.043-8.922 48.921-23.121h73.697v58.623c-.392-.012-.784-.033-1.177-.033-22.688 0-41.146 18.458-41.146 41.146 0 14.23 7.267 27.121 18.822 34.565-7.471 8.496-16.44 15.64-26.489 21.021zm53.978 37.852h-51.478v-22.852h51.478z"/></g></g></svg>