<svg id="Capa_1" enable-background="new 0 0 512 512" height="512" viewBox="0 0 512 512" width="512" xmlns="http://www.w3.org/2000/svg"><g><g><path d="m448.013 97.618c-7.061-4.223-13.185-7.341-17.554-9.408-4.002-1.893-8.808-.416-11.029 3.415-20.358 35.108-18.494 66.168-18.494 66.168l16.592 16.592 16.592 16.592s31.06 1.864 66.168-18.494c3.83-2.221 5.308-7.027 3.415-11.029-2.066-4.368-5.185-10.493-9.408-17.554-11.373-19.016-27.266-34.909-46.282-46.282z" fill="#eaa998"/></g><g><path d="m500.287 172.478c-35.108 20.366-66.166 18.494-66.166 18.494l-15.052-15.052s32.924.007 71.572-23.886c2.417-1.498 4.063-3.851 4.699-6.367 3.689 6.318 6.473 11.787 8.367 15.787 1.888 4.007.41 8.805-3.42 11.024z" fill="#e49280"/></g><g><path d="m276.67 163.32 107.688-107.688c7.57-7.57 7.57-19.845 0-27.415l-14.926-14.927c-7.57-7.57-19.845-7.57-27.415 0l-107.689 107.689c-.786.786-1.503 1.639-2.143 2.548l-109.193 155.091c-.64.909-1.357 1.762-2.143 2.548l-107.689 107.688c-7.57 7.57-7.57 19.845 0 27.415l14.926 14.926c7.57 7.57 19.845 7.57 27.415 0l107.689-107.689c.786-.786 1.503-1.639 2.143-2.548l109.192-155.092c.641-.907 1.359-1.759 2.145-2.546z" fill="#dd7f66"/></g><g><path d="m163.189 323.509-107.684 107.684c-7.576 7.576-19.843 7.575-27.419 0l-14.197-14.197c7.569 7.569 19.843 7.576 27.419 0l107.683-107.683c.791-.791 1.505-1.647 2.141-2.551l109.188-155.094c.643-.912 1.364-1.76 2.148-2.544l107.69-107.69c7.568-7.568 7.568-19.85 0-27.419l14.204 14.204c7.568 7.568 7.561 19.843-.007 27.412l-107.69 107.69c-.784.784-1.498 1.639-2.141 2.551l-109.194 155.086c-.636.905-1.35 1.76-2.141 2.551z" fill="#d6694b"/></g><g><path d="m94.402 497.511c-9.188-9.188-9.188-24.086 0-33.274l306.489-306.489 33.274 33.274-306.489 306.489c-9.188 9.188-24.086 9.188-33.274 0z" fill="#dd7f66"/></g><g><path d="m434.171 191.021-306.493 306.493c-9.187 9.187-24.084 9.187-33.277-.007-2.707-2.707-4.622-5.908-5.724-9.328 8.155 2.671 17.469.763 23.949-5.717l306.493-306.493z" fill="#d6694b"/></g><g><path d="m281.97 168.621 107.688-107.689c10.481-10.481 10.481-27.534 0-38.015l-14.926-14.927c-5.077-5.077-11.828-7.874-19.008-7.874s-13.93 2.796-19.007 7.874l-107.689 107.689c-1.086 1.086-2.086 2.274-2.972 3.532 0 0-110.026 156.173-110.507 156.655l-37.949 37.949c-2.927 2.927-2.927 7.673 0 10.6s7.673 2.927 10.6 0l37.949-37.95c1.087-1.087 2.087-2.275 2.972-3.533l109.192-155.091c.393-.557 82.3-82.548 82.3-82.548l6.663 6.663c1.464 1.464 3.382 2.195 5.3 2.195s3.837-.732 5.3-2.195c2.927-2.927 2.927-7.673 0-10.6l-6.663-6.663 16.104-16.104c2.246-2.246 5.232-3.483 8.407-3.483s6.162 1.237 8.407 3.483l14.926 14.926c2.246 2.246 3.482 5.232 3.482 8.408s-1.237 6.162-3.482 8.407l-107.687 107.691c-1.087 1.087-2.087 2.275-2.972 3.533l-95.632 135.832c-2.219-6.319-1.422-13.516 2.609-19.328l59.743-86.133c4.862-7.009 4.012-16.473-2.019-22.505-2.927-2.927-7.673-2.927-10.6 0s-2.927 7.673 0 10.6c.901.901 1.028 2.314.302 3.361l-59.743 86.133c-8.808 12.698-8.547 29.295.045 41.598l-3.896 5.534c-.391.556-37.77 38.018-37.77 38.018l-8.971-8.971c-2.927-2.928-7.673-2.927-10.6 0s-2.927 7.673 0 10.6l8.971 8.971-16.991 16.991-3.074-3.073c-5.03-5.03-11.716-7.799-18.829-7.799-7.112 0-13.799 2.77-18.828 7.799-4.005 4.004-6.21 9.329-6.21 14.992 0 4.14 3.356 7.495 7.495 7.495s7.495-3.356 7.495-7.495c0-1.659.646-3.219 1.82-4.392 2.197-2.198 5.12-3.409 8.228-3.409s6.031 1.211 8.229 3.409l3.074 3.073-33.042 33.042c-4.636 4.635-12.179 4.636-16.815 0l-14.928-14.927c-4.636-4.636-4.636-12.179 0-16.815l45.719-45.72c2.927-2.927 2.927-7.673 0-10.6s-7.673-2.927-10.6 0l-45.719 45.72c-10.481 10.481-10.481 27.534 0 38.015l14.926 14.926c5.24 5.24 12.124 7.861 19.008 7.861 6.883 0 13.767-2.62 19.007-7.861 0 0 109.776-109.965 110.661-111.221 0 0 110.026-156.173 110.507-156.654z"/><path d="m323.924 92.07c1.918 0 3.836-.732 5.3-2.195 2.927-2.927 2.927-7.673 0-10.6l-5.982-5.982c-2.927-2.927-7.673-2.927-10.6 0s-2.927 7.673 0 10.6l5.982 5.982c1.464 1.463 3.382 2.195 5.3 2.195z"/><path d="m277.357 138.638c1.918 0 3.837-.732 5.3-2.195 2.927-2.927 2.927-7.673 0-10.6l-5.982-5.982c-2.927-2.927-7.673-2.927-10.6 0s-2.927 7.673 0 10.6l5.982 5.982c1.463 1.463 3.381 2.195 5.3 2.195z"/><path d="m122.019 334.351c1.918 0 3.837-.732 5.3-2.195 2.927-2.927 2.927-7.673 0-10.6l-5.982-5.982c-2.927-2.927-7.673-2.927-10.6 0s-2.927 7.673 0 10.6l5.982 5.982c1.464 1.463 3.382 2.195 5.3 2.195z"/><path d="m510.478 158.249c-2.842-6.008-6.123-12.129-9.751-18.195-11.964-20.005-28.862-36.903-48.867-48.867-7.563-4.523-14.07-7.799-18.196-9.751-7.476-3.536-16.577-.712-20.718 6.43-1.761 3.036-3.434 6.171-4.974 9.318-1.82 3.718-.281 8.207 3.437 10.027 3.717 1.82 8.208.282 10.027-3.437 1.386-2.832 2.893-5.654 4.478-8.388.263-.454.851-.629 1.34-.399 3.826 1.81 9.866 4.852 16.911 9.065 17.888 10.698 32.998 25.808 43.697 43.697 4.21 7.039 7.253 13.082 9.065 16.912.231.487.055 1.076-.399 1.339-26.813 15.548-51.33 17.362-59.275 17.511l-1.347-1.347c6.692-2.621 12.644-5.745 17.764-9.354 3.384-2.385 4.194-7.061 1.809-10.444-2.384-3.384-7.061-4.194-10.444-1.809-5.638 3.973-12.652 7.277-20.879 9.857l-2.655-2.655c2.58-8.227 5.884-15.242 9.857-20.878 2.385-3.384 1.575-8.06-1.808-10.445s-8.06-1.576-10.445 1.808c-3.608 5.12-6.733 11.072-9.354 17.764l-1.352-1.352c.06-3.587.45-10.515 2.275-19.435.829-4.056-1.787-8.016-5.842-8.845-4.058-.828-8.016 1.787-8.845 5.842-2.075 10.149-2.522 18.09-2.58 22.416l-304.305 304.303c-5.86 5.86-9.087 13.65-9.087 21.937s3.228 16.078 9.087 21.937c6.048 6.048 13.992 9.072 21.937 9.072 7.944 0 15.889-3.024 21.937-9.072l304.298-304.297c9.567-.115 36.736-2.129 66.774-19.546 7.142-4.143 9.967-13.243 6.43-20.719zm-217.159 163.019-44.441 44.44-6.865-6.865c-2.927-2.927-7.673-2.927-10.6 0s-2.927 7.673 0 10.6l6.865 6.865-64.672 64.671-6.865-6.865c-2.927-2.927-7.673-2.927-10.6 0s-2.927 7.673 0 10.6l6.865 6.865-40.631 40.631c-6.251 6.251-16.423 6.251-22.674 0-6.251-6.251-6.251-16.423 0-22.674l68.95-68.95 8.08 8.08c1.463 1.464 3.382 2.195 5.3 2.195s3.837-.732 5.3-2.195c2.927-2.927 2.927-7.673 0-10.6l-8.08-8.08 64.672-64.672 8.08 8.08c1.463 1.464 3.382 2.195 5.3 2.195s3.836-.732 5.3-2.195c2.927-2.927 2.927-7.673 0-10.6l-8.08-8.08 58.919-58.919c.464 1.512.707 3.1.707 4.726 0 4.283-1.667 8.308-4.696 11.337l-11.477 11.477c-5.86 5.859-9.087 13.65-9.087 21.937.001 5.728 1.544 11.217 4.43 15.996zm77.783-77.783-6.866-6.865c-2.927-2.928-7.673-2.927-10.6 0s-2.927 7.673 0 10.6l6.866 6.865-55.904 55.903c-1.681-5.493-.359-11.715 3.978-16.052l11.477-11.477c5.86-5.859 9.087-13.65 9.087-21.937 0-5.727-1.543-11.216-4.429-15.995l41.436-41.436 8.08 8.08c1.464 1.464 3.382 2.195 5.3 2.195s3.836-.732 5.3-2.195c2.927-2.927 2.927-7.673 0-10.6l-8.081-8.08 24.144-24.144 22.674 22.674z"/></g></g></svg>