<svg id="Capa_1" enable-background="new 0 0 512 512" height="512" viewBox="0 0 512 512" width="512" xmlns="http://www.w3.org/2000/svg"><g><g><g><path d="m408.417 349.618-5.625 5.625c-16.941 16.941-36.742 29.273-57.846 37.018-43.585 36.37-103.259 46.554-155.983 27.749v38.99c0 2.761-2.238 5-5 5h-57.161v35.5c0 2.761 2.239 5 5 5h315.948c2.761 0 5-2.239 5-5v-89.63c0-28.311-18.649-52.267-44.333-60.252z" fill="#fd8087"/></g><path d="m168.763 499.5v-35.5h-41.961v35.5c0 2.761 2.239 5 5 5h41.961c-2.761 0-5-2.239-5-5z" fill="#fe646f"/><path d="m188.964 366.266v53.744c52.723 18.805 112.398 8.621 155.983-27.749-51.767 18.997-111.388 10.339-155.983-25.995z" fill="#c53287"/><path d="m435.52 206.525v-54.017c0-80.086-64.922-145.008-145.008-145.008h-1.472c-80.086 0-145.008 64.922-145.008 145.008v54.017c0 35.072 12.591 67.198 33.491 92.12h6.44c2.762 0 5 2.239 5 5v62.621c62.776 51.147 155.333 47.473 213.829-11.023l9.464-9.464c1.953-1.953 1.953-5.118 0-7.071l-14.362-14.362c-5.652-5.652-5.763-14.727-.344-20.604 23.57-25.563 37.97-59.706 37.97-97.217z" fill="#c53287"/><path d="m209.026 345.778c-1.953-1.953-1.953-5.118 0-7.071l14.362-14.362c5.652-5.652 5.763-14.727.344-20.604-9.74-10.564-17.909-22.597-24.148-35.725-12.213-16.797-19.423-37.467-19.423-59.824v-42.156c0-10.382 2.314-20.219 6.432-29.045 7.038-66.142 58.542-118.995 124.048-128.094-6.58-.914-13.298-1.397-20.129-1.397h-1.472c-80.086 0-145.008 64.922-145.008 145.008v54.017c0 35.072 12.591 67.198 33.491 92.12h6.44c2.762 0 5 2.239 5 5v62.599c34.993 28.513 79.233 39.997 121.678 34.44-33.699-4.412-66.261-19.552-92.151-45.442z" fill="#a82975"/><path d="m330.607 126.216h-81.661c-37.989 0-68.784 30.796-68.784 68.784v13.192c0 56.247 45.597 101.844 101.844 101.844h15.542c56.247 0 101.844-45.597 101.844-101.844v-13.192c0-37.989-30.796-68.784-68.785-68.784z" fill="#ea9b58"/><g><g><path d="m399.392 208.192v-4.858c-2.769-.737-5.676-1.135-8.677-1.135-18.582 0-33.646 15.064-33.646 33.646 0 14.886 9.671 27.505 23.069 31.94 12.111-16.756 19.254-37.339 19.254-59.593z" fill="#fd8087"/></g></g><g fill="#d88a55"><path d="m211.576 211.049c-.026-.949-.043-1.901-.043-2.857v-31.407c0-18.82 7.565-35.867 19.812-48.287-29.46 7.777-51.183 34.599-51.183 66.502v8.333c2.769-.737 5.676-1.135 8.677-1.135 8.767 0 16.749 3.356 22.737 8.851z"/><path d="m219.921 248.72c-3.724 8.973-11.215 15.989-20.506 19.064 0 0-.001-.001-.001-.001 18.499 25.594 48.598 42.253 82.591 42.253h15.542c2.663 0 5.303-.103 7.915-.304-38.422-2.953-70.87-27.229-85.541-61.012z"/></g><g><path d="m188.838 202.198c-3.001 0-5.908.398-8.677 1.135v4.858c0 22.254 7.143 42.837 19.254 59.592 13.398-4.435 23.069-17.054 23.069-31.94 0-18.581-15.064-33.645-33.646-33.645z" fill="#fd8087"/></g><g><path d="m330.607 97.251h-81.661c-37.989 0-68.784 30.796-68.784 68.785v28.964c0-37.989 30.796-68.784 68.784-68.784h81.661c37.989 0 68.784 30.796 68.784 68.784v-28.964c.001-37.989-30.795-68.785-68.784-68.785z" fill="#fff"/></g><g><g><path d="m280.318 97.251h-31.372c-37.989 0-68.784 30.796-68.784 68.785v28.964c0-27.754 16.447-51.652 40.118-62.523 11.771-21.014 34.239-35.226 60.038-35.226z" fill="#f3f0f3"/></g></g><path d="m261.338 240.05c-3.232 0-5.765 2.9-5.194 6.081 2.868 15.972 16.835 28.091 33.633 28.091 16.797 0 30.764-12.12 33.633-28.091.571-3.181-1.962-6.081-5.194-6.081z" fill="#fd8087"/><path d="m279.844 246.131c-.571-3.181 1.962-6.081 5.194-6.081h-23.7c-3.232 0-5.765 2.9-5.194 6.081 2.868 15.972 16.835 28.091 33.632 28.091 4.167 0 8.158-.747 11.85-2.113-11.192-4.138-19.625-13.968-21.782-25.978z" fill="#fe646f"/></g><g><g><g><path d="m183.964 464h-106.5c-2.761 0-5-2.239-5-5v-155.355c0-2.762 2.239-5 5-5h106.5c2.762 0 5 2.238 5 5v155.355c0 2.761-2.238 5-5 5z" fill="#4fc123"/></g><g fill="#47a920"><path d="m74.25 358.696h15.514c4.326 0 8.213 1.842 10.951 4.772v-20.526c1.065-.34 2.084-.78 3.049-1.306v-37.99c0-2.761 2.239-5 5-5h-31.3c-2.761 0-5 2.239-5 5v55.167c.587-.071 1.18-.117 1.786-.117z"/><path d="m103.763 459v-37.99c-.341-.185-.689-.359-1.042-.522-2.599 4.461-7.422 7.468-12.958 7.468h-15.513c-.605 0-1.199-.046-1.786-.116v31.16c0 2.761 2.239 5 5 5h31.299c-2.761 0-5-2.239-5-5z"/></g><path d="m148.916 330.241h-36.404c-1.449 6.016-5.956 10.835-11.798 12.7v20.526c2.505 2.681 4.049 6.27 4.049 10.228v39.26c0 2.749-.752 5.316-2.042 7.532 4.854 2.238 8.513 6.61 9.791 11.916h36.404c1.449-6.016 5.956-10.835 11.798-12.7v-76.762c-5.842-1.865-10.349-6.684-11.798-12.7z" fill="#fff"/><path d="m112.512 330.241c-1.449 6.016-5.956 10.835-11.798 12.7v20.526c2.505 2.681 4.049 6.27 4.049 10.228v39.26c0 2.749-.752 5.316-2.042 7.532 4.854 2.238 8.513 6.61 9.791 11.916h8.251v-102.162z" fill="#f3f0f3"/></g><g><path d="m104.763 373.696v39.26c0 8.284-6.716 15-15 15h-15.513c-8.284 0-15-6.716-15-15v-39.26c0-8.284 6.716-15 15-15h15.514c8.284 0 14.999 6.716 14.999 15z" fill="#ea9b58"/></g><g><path d="m80.25 412.956v-39.26c0-7.346 5.284-13.448 12.257-14.738-.891-.165-1.805-.262-2.743-.262h-15.514c-8.284 0-15 6.716-15 15v39.26c0 8.284 6.716 15 15 15h15.514c.938 0 1.853-.097 2.743-.262-6.973-1.291-12.257-7.392-12.257-14.738z" fill="#d88a55"/></g></g><g><path d="m330.607 89.751h-81.661c-42.063 0-76.285 34.221-76.285 76.284v42.156c0 60.292 49.051 109.344 109.344 109.344h15.542c60.292 0 109.344-49.051 109.344-109.344v-42.156c.001-42.063-34.22-76.284-76.284-76.284zm-128.475 168.593c-8.904-14.13-14.163-30.775-14.451-48.608.385-.017.771-.038 1.157-.038 14.417 0 26.146 11.729 26.146 26.146 0 9.401-4.999 17.872-12.852 22.5zm175.289 0c-7.853-4.629-12.852-13.099-12.852-22.5 0-14.417 11.729-26.146 26.146-26.146.386 0 .772.021 1.157.038-.288 17.833-5.546 34.478-14.451 48.608zm13.294-63.646c-22.688 0-41.146 18.458-41.146 41.146 0 14.233 7.271 27.128 18.831 34.571-17.303 19.679-42.65 32.121-70.852 32.121h-15.542c-28.202 0-53.549-12.442-70.852-32.12 11.56-7.443 18.831-20.337 18.831-34.571 0-22.688-18.458-41.146-41.146-41.146-.391 0-.78.021-1.17.032.146-33.668 27.576-61.015 61.278-61.015h81.661c33.702 0 61.131 27.347 61.278 61.015-.391-.012-.78-.033-1.171-.033zm-60.108-75.983h-81.661c-22.95 0-43.566 10.188-57.563 26.277 8.603-23.458 31.16-40.241 57.563-40.241h81.661c26.402 0 48.959 16.784 57.563 40.241-13.997-16.089-34.613-26.277-57.563-26.277z"/><path d="m286.778 221.792h10.281c6.498 0 11.784-5.286 11.784-11.784 0-4.142-3.358-7.5-7.5-7.5-2.991 0-5.573 1.751-6.777 4.284h-7.787c-.588 0-1.067-.479-1.067-1.067v-17.725c0-4.142-3.358-7.5-7.5-7.5s-7.5 3.358-7.5 7.5v17.724c-.001 8.859 7.207 16.068 16.066 16.068z"/><path d="m231.208 168.412c-4.142 0-7.5 3.358-7.5 7.5v14.963c0 4.142 3.358 7.5 7.5 7.5s7.5-3.358 7.5-7.5v-14.963c0-4.142-3.358-7.5-7.5-7.5z"/><path d="m348.345 168.412c-4.142 0-7.5 3.358-7.5 7.5v14.963c0 4.142 3.358 7.5 7.5 7.5s7.5-3.358 7.5-7.5v-14.963c0-4.142-3.357-7.5-7.5-7.5z"/><path d="m318.216 232.55h-56.878c-3.802 0-7.382 1.673-9.823 4.591-2.409 2.88-3.412 6.639-2.752 10.315 3.566 19.855 20.815 34.266 41.015 34.266s37.449-14.411 41.014-34.266c.66-3.675-.343-7.435-2.751-10.314-2.443-2.918-6.023-4.592-9.825-4.592zm-28.439 34.172c-11.979 0-22.335-7.911-25.608-19.172h51.215c-3.273 11.262-13.629 19.172-25.607 19.172z"/><path d="m452.75 443.5c4.142 0 7.5-3.358 7.5-7.5v-26.13c0-27.871-16.244-52.007-39.756-63.473 1.543-4.396.575-9.485-2.934-12.994l-14.362-14.362c-2.788-2.787-2.846-7.274-.134-10.216 25.766-27.945 39.956-64.276 39.956-102.3v-7.525c0-4.142-3.358-7.5-7.5-7.5s-7.5 3.358-7.5 7.5v7.525c0 34.246-12.779 66.966-35.984 92.133-8.187 8.88-7.943 22.493.556 30.991l12.594 12.594-7.697 7.697c-28.771 28.771-67.024 44.616-107.713 44.616-34.229 0-66.727-11.227-93.313-31.918v-58.993c0-6.893-5.607-12.5-12.5-12.5h-2.885c-19.117-24.001-29.547-53.687-29.547-84.62v-54.017c.002-75.822 61.688-137.508 137.51-137.508h1.472c75.822 0 137.508 61.686 137.508 137.508v11.492c0 4.142 3.358 7.5 7.5 7.5s7.5-3.358 7.5-7.5v-11.492c-.001-84.093-68.415-152.508-152.509-152.508h-1.472c-84.093 0-152.508 68.415-152.508 152.508v54.017c0 30.438 9.098 59.787 25.943 84.62h-85.011c-6.893 0-12.5 5.607-12.5 12.5v49.564c-7.785 3.543-13.214 11.39-13.214 20.486v39.26c0 9.096 5.429 16.943 13.214 20.486v25.559c0 6.893 5.607 12.5 12.5 12.5h41.839v28c0 6.893 5.607 12.5 12.5 12.5h315.947c6.893 0 12.5-5.607 12.5-12.5v-28.5c0-4.142-3.358-7.5-7.5-7.5s-7.5 3.358-7.5 7.5v26h-25.987v-64c0-4.142-3.358-7.5-7.5-7.5s-7.5 3.358-7.5 7.5v64h-269.96v-25.5h49.661c6.893 0 12.5-5.607 12.5-12.5v-28.663c14.815 4.256 30.217 6.445 45.851 6.445 6.795 0 13.638-.412 20.49-1.243 32.11-3.896 61.724-16.683 86.088-36.782 21.602-8.122 41.85-20.858 59.203-38.211l2.244-2.244c20.437 8.221 34.91 28.226 34.91 51.569v26.129c0 4.142 3.358 7.5 7.5 7.5zm-378.5-23.044c-4.136 0-7.5-3.364-7.5-7.5v-39.26c0-4.136 3.364-7.5 7.5-7.5h15.514c4.136 0 7.5 3.364 7.5 7.5v39.26c0 4.136-3.364 7.5-7.5 7.5zm107.214 36.044h-101.5v-21.044h9.799c5.225 0 10.035-1.795 13.858-4.794.741 1.043 1.293 2.226 1.599 3.498.812 3.369 3.826 5.744 7.292 5.744h36.403c3.465 0 6.48-2.375 7.292-5.744.828-3.438 3.429-6.239 6.788-7.312 3.109-.993 5.219-3.881 5.219-7.145v-25.703c0-4.142-3.358-7.5-7.5-7.5s-7.5 3.358-7.5 7.5v20.92c-3.99 2.392-7.266 5.863-9.427 9.983h-26.146c-1.471-2.805-3.469-5.299-5.848-7.367.307-1.48.47-3.012.47-4.582v-39.26c0-4.777-1.501-9.208-4.049-12.854v-13.117c3.99-2.392 7.266-5.863 9.427-9.983h26.146c2.161 4.12 5.437 7.591 9.427 9.983v11.277c0 4.142 3.358 7.5 7.5 7.5s7.5-3.358 7.5-7.5v-16.059c0-3.263-2.11-6.152-5.219-7.145-3.359-1.073-5.96-3.875-6.788-7.312-.812-3.369-3.826-5.744-7.292-5.744h-36.403c-3.465 0-6.48 2.375-7.292 5.744-.828 3.438-3.429 6.239-6.788 7.312-3.109.993-5.219 3.881-5.219 7.145v8.519c-1.125-.174-2.278-.265-3.451-.265h-9.799v-45.051h101.5v150.356zm15-41.947v-33.435c28.101 18.895 60.702 28.359 93.313 28.359 4.704 0 9.408-.209 14.099-.602-33.689 14.719-72.007 16.904-107.412 5.678z"/></g></g></svg>