<svg id="Capa_1" enable-background="new 0 0 512 512" height="512" viewBox="0 0 512 512" width="512" xmlns="http://www.w3.org/2000/svg"><g><g><path d="m407.861 265.28v-25.706c0-2.761-2.239-5-5-5h-57.227c-2.761 0-5 2.239-5 5v25.706z" fill="#fef1da"/><path d="m371.773 265.28v-25.706c0-2.761 2.239-5 5-5h-31.139c-2.761 0-5 2.239-5 5v25.706z" fill="#fae2c0"/><path d="m356.841 388.181v26.254h34.814v-26.253c-5.688.798-11.498 1.219-17.407 1.219-5.909.001-11.719-.421-17.407-1.22z" fill="#d8aa5e"/><path d="m374 414.435v-25.038c-5.823-.011-11.551-.428-17.159-1.216v26.254z" fill="#c99c56"/><path d="m442.805 454.051c-3.585-22.455-23.036-39.616-46.5-39.616h-44.115c-23.464 0-42.915 17.161-46.5 39.616z" fill="#fed402"/><path d="m347.598 454.051c3.585-22.455 23.036-39.616 46.5-39.616h-41.908c-23.464 0-42.915 17.161-46.5 39.616z" fill="#fac600"/><path d="m493.262 265.28h-238.029c-2.828 0-5.118 2.345-5.002 5.17.982 23.963 8.761 46.17 21.456 64.754h40.864c0 12.116-1.597 23.857-4.577 35.034 19.176 12.134 41.903 19.164 66.274 19.164 66.819 0 121.306-52.799 124.016-118.952.116-2.825-2.174-5.17-5.002-5.17z" fill="#fed402"/><path d="m295.004 270.45c-.116-2.825 2.174-5.17 5.002-5.17h-44.773c-2.828 0-5.118 2.345-5.002 5.17.982 23.963 8.761 46.17 21.456 64.754h40.864c0 12.116-1.597 23.857-4.577 35.034 19.176 12.134 41.903 19.164 66.274 19.164 7.644 0 15.124-.699 22.386-2.022-56.219-10.241-99.229-58.345-101.63-116.93z" fill="#fac600"/><g><path d="m371.65 143.508-19.166 33.197c-9.673 16.754 2.418 37.697 21.764 37.697 19.346 0 31.438-20.943 21.764-37.697l-19.166-33.197c-1.155-2-4.042-2-5.196 0z" fill="#fe860a"/></g><g><path d="m373.405 176.705 11.304-19.579-7.863-13.618c-1.155-2-4.042-2-5.196 0l-19.166 33.197c-9.673 16.754 2.418 37.697 21.764 37.697 3.807 0 7.326-.821 10.461-2.251-12.796-5.838-19.074-21.988-11.304-35.446z" fill="#fe7701"/></g><path d="m210.509 335.203v-149.862c0-2.761-2.238-5-5-5h-57.227c-2.761 0-5 2.239-5 5v149.862z" fill="#fef1da"/><path d="m174.773 335.203v-149.862c0-2.761 2.239-5 5-5h-31.491c-2.761 0-5 2.239-5 5v149.862z" fill="#fae2c0"/><path d="m111.459 454.051h130.875c41.859-23.097 70.217-67.658 70.217-118.848h-271.31c0 51.19 28.358 95.751 70.218 118.848z" fill="#e8b800"/><path d="m111.459 454.051h52.464c-41.867-23.093-70.232-67.653-70.232-118.848h-52.45c0 51.19 28.358 95.751 70.218 118.848z" fill="#d7aa02"/><g><path d="m174.298 87.902-19.166 33.197c-9.673 16.754 2.418 37.697 21.765 37.697 19.346 0 31.437-20.943 21.764-37.697l-19.166-33.197c-1.156-2-4.042-2-5.197 0z" fill="#fe860a"/></g><g><path d="m176.067 121.099 11.297-19.567-7.869-13.63c-1.155-2-4.042-2-5.196 0l-19.166 33.197c-9.673 16.754 2.418 37.697 21.765 37.697 3.81 0 7.331-.822 10.468-2.254-12.793-5.841-19.068-21.988-11.299-35.443z" fill="#fe7701"/></g></g><g><path d="m499.5 485.264h-487c-2.761 0-5-2.238-5-5v-21.212c0-2.761 2.239-5 5-5h487c2.761 0 5 2.239 5 5v21.212c0 2.761-2.239 5-5 5z" fill="#80d261"/></g><g><path d="m68 480.264v-21.213c0-2.761 2.239-5 5-5h-60.5c-2.761 0-5 2.239-5 5v21.213c0 2.761 2.239 5 5 5h60.5c-2.761 0-5-2.239-5-5z" fill="#4fc123"/></g><g><path d="m247.741 28.759c-5.422 15.918-11.648 22.145-27.566 27.566-2.697.919-2.697 4.751 0 5.669 15.918 5.422 22.145 11.648 27.566 27.566.919 2.697 4.751 2.697 5.669 0 5.421-15.918 11.648-22.145 27.566-27.566 2.697-.918 2.697-4.751 0-5.669-15.918-5.422-22.145-11.648-27.566-27.566-.918-2.697-4.75-2.697-5.669 0z" fill="#fed402"/></g><g><g><path d="m231.267 51.496c-3.092 1.792-6.725 3.341-11.092 4.829-2.697.919-2.697 4.751 0 5.669 15.918 5.422 22.145 11.648 27.566 27.566.919 2.697 4.751 2.697 5.669 0 1.517-4.454 3.098-8.149 4.935-11.28-5.337-15.317-11.578-21.463-27.078-26.784z" fill="#fac600"/></g></g><g><path d="m320.311 75.451c-3.874 10.523-8.533 15.181-19.056 19.056-2.645.974-2.645 4.676 0 5.65 10.523 3.874 15.181 8.533 19.056 19.056.974 2.645 4.676 2.645 5.65 0 3.874-10.523 8.533-15.181 19.056-19.056 2.645-.974 2.645-4.676 0-5.65-10.523-3.874-15.182-8.533-19.056-19.056-.974-2.645-4.677-2.645-5.65 0z" fill="#fed402"/></g><g><g><path d="m331.039 109.016c-3.874-10.523-8.533-15.181-19.056-19.056-.362-.133-.67-.322-.934-.544-2.596 2.001-5.762 3.605-9.795 5.089-2.645.974-2.645 4.676 0 5.65 10.523 3.874 15.181 8.533 19.056 19.056.974 2.645 4.676 2.645 5.65 0 1.511-4.105 3.148-7.31 5.2-9.931-.041-.086-.086-.169-.121-.264z" fill="#fac600"/></g></g><g><path d="m266.311 142.722c-3.874 10.523-8.533 15.181-19.056 19.056-2.645.974-2.645 4.676 0 5.65 10.523 3.874 15.181 8.533 19.056 19.056.974 2.645 4.676 2.645 5.65 0 3.874-10.523 8.533-15.181 19.056-19.056 2.645-.974 2.645-4.676 0-5.65-10.523-3.874-15.181-8.533-19.056-19.056-.974-2.644-4.677-2.644-5.65 0z" fill="#fed402"/></g><g><g><path d="m277.039 176.016c-3.874-10.523-8.533-15.181-19.056-19.056-.287-.106-.537-.248-.762-.411-2.628 2.065-5.843 3.71-9.967 5.229-2.645.974-2.645 4.676 0 5.65 10.523 3.874 15.181 8.533 19.056 19.056.974 2.645 4.676 2.645 5.65 0 1.531-4.157 3.191-7.39 5.28-10.029-.075-.138-.143-.283-.201-.439z" fill="#fac600"/></g></g><g><path d="m499.5 446.551h-50.706c-6.277-21.966-25.985-38.314-49.64-39.536v-12.466c24.819-4.744 47.784-16.554 66.343-34.411 24.569-23.64 38.867-55.383 40.261-89.38.138-3.364-1.123-6.69-3.461-9.125-2.35-2.448-5.643-3.853-9.035-3.853h-26.262c-4.143 0-7.5 3.358-7.5 7.5s3.357 7.5 7.5 7.5h23.633c-1.845 29.119-14.402 56.214-35.536 76.549-21.831 21.005-50.544 32.573-80.849 32.573-20.505 0-40.273-5.309-57.68-15.242 1.748-7.766 2.847-15.773 3.272-23.956h10.16c4.143 0 7.5-3.358 7.5-7.5s-3.357-7.5-7.5-7.5h-54.287c-10.422-16.398-16.6-35.193-17.851-54.924h174.138c4.143 0 7.5-3.358 7.5-7.5s-3.357-7.5-7.5-7.5h-16.639v-18.206c0-6.893-5.607-12.5-12.5-12.5h-21.113v-6.038c8.677-2.006 16.147-7.461 20.76-15.45 5.898-10.216 5.897-22.415-.001-32.63l-19.165-33.196c-1.869-3.238-5.353-5.25-9.092-5.251-.001 0-.001 0-.002 0-3.738 0-7.223 2.011-9.093 5.249l-19.167 33.198c-5.898 10.216-5.899 22.415-.001 32.631 4.612 7.989 12.083 13.444 20.761 15.45v6.038h-21.114c-6.893 0-12.5 5.607-12.5 12.5v18.206h-77.901c-3.393 0-6.686 1.404-9.035 3.852-2.337 2.436-3.598 5.762-3.46 9.125.827 20.187 6.211 39.575 15.587 56.947h-40.316v-72.705c0-4.142-3.358-7.5-7.5-7.5s-7.5 3.358-7.5 7.5v72.704h-52.227v-139.863h52.227v32.159c0 4.142 3.358 7.5 7.5 7.5s7.5-3.358 7.5-7.5v-34.659c0-6.893-5.607-12.5-12.5-12.5h-21.113v-7.411c8.676-2.006 16.147-7.461 20.76-15.449 5.898-10.216 5.898-22.415 0-32.632l-19.167-33.197c-1.87-3.238-5.354-5.25-9.093-5.25s-7.224 2.012-9.093 5.25l-19.167 33.197c-5.898 10.217-5.898 22.416 0 32.632 4.613 7.989 12.083 13.443 20.76 15.449v7.411h-21.114c-6.893 0-12.5 5.607-12.5 12.5v142.362h-111.99c-4.142 0-7.5 3.358-7.5 7.5s3.358 7.5 7.5 7.5h10.16c2.174 41.88 22.417 79.054 53.079 103.848h-74.531c-6.893 0-12.5 5.607-12.5 12.5v21.212c0 6.893 5.607 12.5 12.5 12.5h364.5c4.143 0 7.5-3.358 7.5-7.5s-3.357-7.5-7.5-7.5h-362v-16.212h482v16.212h-85c-4.143 0-7.5 3.358-7.5 7.5s3.357 7.5 7.5 7.5h87.5c6.893 0 12.5-5.607 12.5-12.5v-21.212c0-6.892-5.607-12.5-12.5-12.5zm-140.522-248.465c-3.187-5.52-3.187-12.111.001-17.631l15.269-26.447 15.27 26.448c3.188 5.52 3.188 12.11.001 17.63-3.188 5.521-8.896 8.816-15.271 8.816s-12.083-3.296-15.27-8.816zm-10.844 43.988h52.228v15.706h-52.228zm-186.507-99.593c-3.188-5.521-3.188-12.112 0-17.632l15.27-26.447 15.27 26.447c3.187 5.52 3.187 12.111 0 17.632-3.187 5.52-8.895 8.815-15.269 8.815s-12.084-3.295-15.271-8.815zm202.714 254.043c3.282.244 6.585.378 9.907.378 3.321 0 6.625-.127 9.906-.371v10.404h-19.813zm-250.809 50.027c-36.621-20.922-61.993-59.373-64.574-103.848h255.876c-2.581 44.474-27.953 82.926-64.574 103.848zm186.169 0h-32.94c20.779-16.802 36.768-39.294 45.6-65.079 11.58 6.183 24.026 10.582 36.98 13.06v12.483c-23.655 1.222-43.363 17.571-49.64 39.536zm15.853 0c5.919-14.425 20.103-24.616 36.635-24.616h44.116c16.532 0 30.716 10.191 36.635 24.616z"/><path d="m217.757 69.094c13.72 4.673 18.211 9.164 22.885 22.885 1.447 4.25 5.439 7.104 9.934 7.104s8.486-2.855 9.934-7.104c4.673-13.721 9.165-18.212 22.886-22.885 4.249-1.448 7.104-5.44 7.104-9.934 0-4.495-2.855-8.487-7.104-9.935-13.721-4.673-18.212-9.164-22.886-22.885-1.447-4.25-5.439-7.104-9.934-7.104s-8.487 2.855-9.934 7.104c-4.673 13.721-9.165 18.212-22.884 22.885-4.25 1.447-7.105 5.439-7.105 9.935-.001 4.495 2.855 8.487 7.104 9.934zm32.819-27.618c4.189 8.152 9.532 13.495 17.685 17.685-8.153 4.189-13.495 9.531-17.685 17.684-4.19-8.152-9.532-13.494-17.684-17.684 8.152-4.191 13.494-9.533 17.684-17.685z"/><path d="m298.664 107.195c8.481 3.123 11.485 6.126 14.608 14.609 1.541 4.187 5.413 6.892 9.863 6.892s8.322-2.706 9.863-6.892c3.123-8.482 6.127-11.486 14.61-14.609 4.187-1.542 6.891-5.414 6.891-9.864s-2.706-8.32-6.893-9.862c-8.482-3.123-11.485-6.127-14.608-14.609-1.541-4.187-5.413-6.892-9.863-6.892s-8.322 2.706-9.863 6.892c-3.123 8.482-6.126 11.486-14.608 14.609-4.187 1.542-6.893 5.412-6.893 9.862s2.705 8.321 6.893 9.864zm28.685-29.153c-.001.003-.002.005-.003.008.001-.003.002-.006.003-.008zm-4.213 8.896c2.701 4.369 6.024 7.692 10.394 10.394-4.37 2.702-7.692 6.024-10.394 10.394-2.701-4.369-6.024-7.692-10.394-10.394 4.369-2.702 7.693-6.025 10.394-10.394z"/><path d="m293.607 154.74c-8.482-3.123-11.485-6.127-14.608-14.609-1.541-4.187-5.413-6.892-9.863-6.892s-8.322 2.706-9.863 6.892c-3.123 8.482-6.126 11.486-14.609 14.609-4.187 1.542-6.892 5.412-6.892 9.862s2.705 8.322 6.893 9.864c8.482 3.123 11.485 6.126 14.608 14.609 1.541 4.187 5.413 6.892 9.863 6.892s8.322-2.706 9.863-6.892c3.123-8.482 6.127-11.486 14.61-14.609 4.187-1.542 6.891-5.414 6.891-9.864s-2.706-8.32-6.893-9.862zm-20.258-9.427c-.001.003-.002.005-.003.008.001-.003.002-.006.003-.008zm-4.213 29.684c-2.701-4.369-6.024-7.692-10.394-10.394 4.369-2.701 7.692-6.024 10.394-10.394 2.701 4.369 6.024 7.692 10.394 10.394-4.371 2.702-7.693 6.024-10.394 10.394z"/></g></g></svg>