<svg id="Capa_1" enable-background="new 0 0 512 512" height="512" viewBox="0 0 512 512" width="512" xmlns="http://www.w3.org/2000/svg"><g><g><path d="m413.318 362.372-20.762-219.013h-136.556-136.557l-20.762 219.013c-3.105 32.756 17.34 63.152 48.85 72.625l60.191 18.095c31.489 9.466 65.067 9.466 96.556 0l60.191-18.095c31.509-9.473 51.954-39.868 48.849-72.625z" fill="#ade194"/></g><g><path d="m381.009 427.545c9.324-14.385 14.055-32.313 12.448-50.93l-20.194-233.258h19.296l20.763 219.014c2.516 26.592-10.472 51.628-32.313 65.174z" fill="#97da7b"/></g><g><path d="m372.123 174.977v45.409c0 64.133-51.991 116.124-116.123 116.124s-116.123-51.991-116.123-116.124v-45.409c0-4.136.211-8.217.645-12.242 6.103-58.373 55.481-103.882 115.478-103.882 32.066 0 61.097 12.998 82.111 34.012 18.301 18.301 30.532 42.696 33.367 69.87.434 4.025.645 8.105.645 12.242z" fill="#f6a96c"/></g><g><path d="m326.534 334.639-18.51-13.145h-51.687-.674-51.687l-18.51 13.145s-65.653 36.991-63.072 109.913v59.962h133.269.674 133.269v-59.962c2.581-72.922-63.072-109.913-63.072-109.913z" fill="#fff5c6"/></g><g><path d="m389.604 444.547v59.964h-20.793v-59.964c2.576-72.921-63.079-109.906-63.079-109.906l-18.507-13.147h20.803l18.507 13.147s65.654 36.985 63.069 109.906z" fill="#fef0ae"/></g><g><path d="m140.359 226.927c-2.994 1.284-6.177 1.996-9.641 1.996-13.679 0-24.769-11.089-24.769-24.769s11.089-24.769 24.769-24.769c3.42 0 6.678.693 9.641 1.946z" fill="#f6a96c"/></g><g><path d="m140.354 181.332v45.6c-2.985 1.278-6.169 1.986-9.633 1.986-2.645 0-5.181-.409-7.567-1.178v-47.167c2.386-.779 4.921-1.188 7.567-1.188 3.414.001 6.678.69 9.633 1.947z" fill="#ea9b58"/></g><g><path d="m371.641 226.927c2.994 1.284 6.177 1.996 9.641 1.996 13.679 0 24.769-11.089 24.769-24.769s-11.089-24.769-24.769-24.769c-3.42 0-6.678.693-9.641 1.946z" fill="#f6a96c"/></g><g><path d="m406.055 204.152c0 13.686-11.091 24.766-24.776 24.766-3.464 0-6.648-.709-9.633-1.986v-3.913c8.525-3.913 14.444-12.518 14.444-22.52 0-8.465-4.253-15.942-10.731-20.394 1.897-.469 3.883-.719 5.919-.719 13.686 0 24.777 11.09 24.777 24.766z" fill="#ea9b58"/></g><g><path d="m371.478 162.731c-.75-7.124-2.135-14.047-4.122-20.727h-27.639v86.614c0 12.182-11.578 21.05-23.328 17.834-2.767-.757-5.543-1.481-8.329-2.165-28.148-6.917-56.144-8.73-84.76-3.936-9.326 1.562-18.574 3.605-27.694 6.101-11.75 3.215-23.328-5.652-23.328-17.834v-86.614h-27.639c-1.987 6.68-3.372 13.603-4.122 20.727-.433 4.027-.645 8.107-.645 12.25v45.407c0 63.987 51.769 115.885 115.713 116.117.138.001.275-.004.412-.004.138 0 .275.004.412-.004 63.945-.225 115.714-52.123 115.714-116.11v-45.407c0-4.143-.212-8.222-.645-12.249z" fill="#7a6d79"/></g><g><path d="m372.125 174.984v45.4c0 63.987-51.769 115.886-115.716 116.115-.14.01-.269 0-.409 0s-.28.01-.419.01c-3.244-.01-6.449-.16-9.623-.439 59.495-5.031 106.203-54.903 106.203-115.686v-45.4c0-4.143-.21-8.225-.649-12.248-.749-7.127-2.136-14.055-4.123-20.733h19.965c1.986 6.678 3.374 13.606 4.123 20.733.438 4.022.648 8.105.648 12.248z" fill="#685e68"/></g><g><path d="m291.006 269.949c-.004-2.015-1.639-3.646-3.654-3.646h-31.352-31.352c-2.015 0-3.65 1.631-3.654 3.646-.004 1.902-.004 3.885.013 4.128.396 5.958 2.696 11.64 6.623 16.149 7.053 8.097 18.012 12.159 28.37 12.18 10.357-.021 21.317-4.083 28.37-12.18 3.928-4.509 6.227-10.191 6.623-16.149.016-.243.016-2.226.013-4.128z" fill="#f6a96c"/></g><g><path d="m291.008 269.946c0 1.907 0 3.883-.02 4.133-.389 5.959-2.695 11.639-6.618 16.151-7.057 8.096-18.008 12.159-28.37 12.178-7.906-.02-16.151-2.386-22.75-7.107.449.02.889.03 1.338.03 10.352-.02 21.312-4.083 28.37-12.179 3.923-4.512 6.229-10.192 6.618-16.152.01-.08.01-.329.01-.699h17.769c2.016.001 3.643 1.629 3.653 3.645z" fill="#ea9b58"/></g><g><path d="m395.686 143.392h-279.372c-9.366 0-16.958-7.592-16.958-16.958 0-9.366 7.592-16.958 16.958-16.958h279.372c9.366 0 16.958 7.592 16.958 16.958 0 9.365-7.593 16.958-16.958 16.958z" fill="#f9f3f1"/></g><g><path d="m412.643 126.43c0 4.682-1.897 8.924-4.971 11.999-3.064 3.065-7.307 4.961-11.989 4.961h-19.196c4.682 0 8.924-1.897 11.989-4.961 3.075-3.075 4.971-7.317 4.971-11.999 0-9.363-7.596-16.95-16.96-16.95h19.196c9.364 0 16.96 7.586 16.96 16.95z" fill="#efe2dd"/></g><g><path d="m129.473 109.479c14.945-58.816 64.384-101.992 123.069-101.992h7.243c58.254 0 107.398 43.838 122.735 101.993h-253.047z" fill="#ade194"/></g><g><path d="m382.523 109.475h-19.855c-17.738-53.795-64.845-93.345-120.178-93.345h-7.237c-15.583 0-30.516 3.045-44.322 8.615 18.268-11.001 39.261-17.26 61.611-17.26h7.247c58.248 0 107.391 43.843 122.734 101.99z" fill="#97da7b"/></g><g><path d="m211.161 196.667c-4.135 0-7.487 3.352-7.487 7.487v13.906c0 4.135 3.352 7.487 7.487 7.487s7.487-3.352 7.487-7.487v-13.906c0-4.135-3.352-7.487-7.487-7.487z"/><path d="m300.838 196.667c-4.135 0-7.487 3.352-7.487 7.487v13.906c0 4.135 3.352 7.487 7.487 7.487s7.487-3.352 7.487-7.487v-13.906c0-4.135-3.352-7.487-7.487-7.487z"/><path d="m195.934 189.557c1.932 0 3.863-.743 5.328-2.227 4.741-4.802 10.592-8.575 16.922-10.912 3.879-1.432 5.862-5.738 4.43-9.617-1.433-3.878-5.736-5.862-9.617-4.43-8.375 3.093-16.117 8.085-22.39 14.438-2.905 2.943-2.875 7.683.067 10.588 1.459 1.441 3.36 2.16 5.26 2.16z"/><path d="m293.816 176.418c6.33 2.338 12.181 6.111 16.921 10.912 1.465 1.484 3.395 2.227 5.328 2.227 1.9 0 3.802-.719 5.26-2.159 2.942-2.905 2.972-7.645.067-10.588-6.272-6.353-14.014-11.345-22.39-14.438-3.877-1.432-8.184.551-9.616 4.43-1.432 3.878.551 8.184 4.43 9.616z"/><path d="m290.014 295.144c4.942-5.674 7.943-12.979 8.45-20.587.021-.322.034-.535.028-4.62 0-.001 0-.002 0-.003-.012-6.131-5.01-11.119-11.141-11.119h-62.703c-6.131 0-11.129 4.988-11.141 11.12-.007 4.088.008 4.318.029 4.638.505 7.591 3.505 14.896 8.448 20.57 8.022 9.209 20.732 14.723 34.03 14.749 13.268-.026 25.978-5.539 34-14.748zm-56.739-9.835c-2.761-3.169-4.455-7.253-4.784-11.519h55.017c-.33 4.268-2.024 8.351-4.785 11.519-5.226 6-13.727 9.592-22.709 9.61-9.012-.018-17.512-3.61-22.739-9.61z"/><path d="m420.772 361.666-13.168-138.904c3.731-5.262 5.934-11.681 5.934-18.609 0-9.112-3.803-17.346-9.899-23.218l-2.9-30.586c11.062-2.335 19.391-12.17 19.391-23.917 0-13.479-10.966-24.445-24.445-24.445h-7.511c-18.296-60.336-70.339-101.987-128.388-101.987h-7.243c-58.813 0-111 41.648-128.775 101.988h-7.454c-13.479 0-24.445 10.966-24.445 24.445 0 11.747 8.329 21.582 19.392 23.917l-2.899 30.586c-6.095 5.871-9.899 14.106-9.899 23.218 0 6.928 2.202 13.346 5.934 18.609l-6.621 69.844c-.39 4.117 2.63 7.77 6.746 8.16 4.127.392 7.77-2.631 8.16-6.746l5.695-60.07c3.804 1.582 7.972 2.459 12.342 2.459.902 0 1.799-.042 2.692-.118 4.711 36.397 25.363 67.917 54.69 87.295l-6.681 4.745c-2.675 1.563-18.496 11.191-34.088 28.984-13.338 15.222-22.705 32.146-27.85 50.074-9.762-12.17-14.898-27.937-13.347-44.31l3.283-34.632c.39-4.117-2.63-7.77-6.746-8.16-4.123-.398-7.77 2.63-8.16 6.746l-3.283 34.632c-2.317 24.444 7.337 47.813 24.571 63.637-.81 6.377-1.116 12.846-.892 19.379v59.831c0 4.135 3.352 7.487 7.487 7.487h267.212c4.135 0 7.487-3.352 7.487-7.487v-59.831c.224-6.532-.082-12.998-.891-19.374 17.234-15.823 26.886-39.197 24.569-63.642zm-313.93-235.233c0-5.223 4.249-9.472 9.472-9.472l184.375.005c4.134 0 7.487-3.352 7.487-7.487s-3.352-7.487-7.487-7.487l-161.234-.004c17.032-51.692 62.315-87.015 113.087-87.015h7.243c50.051 0 95.163 35.32 112.663 87.014h-37.101c-4.135 0-7.487 3.352-7.487 7.487s3.352 7.487 7.487 7.487h60.338c5.222 0 9.471 4.249 9.471 9.472s-4.249 9.472-9.471 9.472h-279.371c-5.223 0-9.472-4.249-9.472-9.472zm272.768 60.526c.553-.053 1.109-.087 1.672-.087 9.529 0 17.282 7.752 17.282 17.282s-7.753 17.282-17.282 17.282c-.57 0-1.129-.036-1.684-.091zm-.039-14.994c-.081-3.395-.296-6.756-.648-10.027-.392-3.719-.969-7.41-1.693-11.06h8.519l2.055 21.683c-2.107-.434-4.288-.663-6.522-.663-.574 0-1.142.037-1.711.067zm-47.341-21.087v77.739c0 7.102-6.961 12.501-13.867 10.612-2.901-.793-5.767-1.538-8.517-2.214-30.539-7.505-59.254-8.829-87.784-4.049-9.491 1.59-19.057 3.698-28.433 6.264-6.879 1.882-13.865-3.491-13.865-10.613 0-.108 0-77.739 0-77.739zm-201.513 70.557c-9.53 0-17.282-7.752-17.282-17.282s7.752-17.282 17.282-17.282c.561 0 1.116.034 1.667.087l.012 34.387c-.553.055-1.111.09-1.679.09zm2.355-59.505c-.352 3.268-.566 6.625-.648 10.014-.567-.029-1.135-.046-1.707-.046-2.234 0-4.415.229-6.522.663l2.056-21.683h8.51c-.725 3.65-1.298 7.34-1.689 11.052zm50.513 139.326c-22.916-20.543-36.227-50.005-36.227-80.868 0-.007 0-45.407 0-45.407 0-3.886.202-7.738.603-11.466.449-4.264 1.163-8.49 2.104-12.637h14.726v77.739c0 8.171 3.725 15.7 10.22 20.656 6.482 4.947 14.708 6.551 22.573 4.398 22.2-6.079 45.26-9.501 68.476-8.246 16.319.882 32.575 3.931 48.353 8.247 7.86 2.15 16.087.547 22.571-4.399 6.495-4.957 10.22-12.485 10.22-20.656v-77.739h14.725c.941 4.146 1.654 8.371 2.105 12.654.4 3.71.602 7.562.602 11.449v45.407c0 28.721-11.883 56.982-32.315 77.184-25.033 24.751-60.438 35.854-94.972 29.839-20.35-3.545-38.484-12.458-53.764-26.155zm198.538 143.03c-.003.088-.005.176-.005.265v52.475h-40.284v-34.316c0-4.135-3.352-7.487-7.487-7.487s-7.487 3.352-7.487 7.487v34.317h-141.722v-34.317c0-4.135-3.352-7.487-7.487-7.487s-7.487 3.352-7.487 7.487v34.317h-40.284v-52.475c0-.088-.001-.176-.005-.265-.995-28.109 8.555-53.922 28.385-76.724 15.069-17.326 30.733-26.318 30.88-26.401.227-.128.448-.268.659-.419l12.659-8.989c14.087 6.809 29.646 11.026 46.054 12.013v82.958c0 4.135 3.352 7.487 7.487 7.487s7.486-3.352 7.486-7.487v-82.968c16.406-.99 31.962-5.204 46.045-12.01l12.667 8.995c.207.147.43.288.65.413.156.089 15.82 9.081 30.889 26.407 19.832 22.802 29.383 48.616 28.387 76.724zm10.397-36.892c-5.145-17.93-14.512-34.855-27.851-50.078-15.593-17.794-31.412-27.422-34.087-28.985l-6.688-4.75c29.334-19.378 49.986-50.901 54.694-87.301.894.078 1.791.129 2.695.129 4.37 0 8.538-.878 12.342-2.459l12.241 129.129c1.551 16.374-3.584 32.144-13.346 44.315z"/></g></g></svg>