<svg id="Capa_1" enable-background="new 0 0 512 512" height="512" viewBox="0 0 512 512" width="512" xmlns="http://www.w3.org/2000/svg"><g><g><path d="m504.517 443.455h-497.034v-20.501c0-11.255 9.124-20.379 20.379-20.379h456.274c11.255 0 20.379 9.124 20.379 20.379v20.501z" fill="#7a6d79"/></g><g><path d="m504.513 422.957v20.494h-19.955v-20.494c0-11.255-9.12-20.384-20.374-20.384h19.955c11.254 0 20.374 9.13 20.374 20.384z" fill="#685e68"/></g><g><path d="m256 236.234v-60.479c-15.84-20.664-41.021-38.357-63.256-50.592-9.792-5.391-19.874-10.242-30.099-14.752-10.443-4.606-20.935-9.119-31.061-14.399-13.008-6.783-25.6-15.026-35.777-25.471-4.156-4.265-11.404-1.249-11.404 4.706v38.302z" fill="#f9f3f1"/></g><g><path d="m256 236.234v-60.479c15.84-20.664 41.021-38.357 63.256-50.592 9.792-5.391 19.874-10.242 30.099-14.752 10.443-4.606 20.935-9.119 31.061-14.399 13.008-6.783 25.6-15.026 35.777-25.471 4.156-4.265 11.404-1.249 11.404 4.706v38.302z" fill="#f9f3f1"/></g><g><path d="m256 211.382v24.854l-171.595-122.685v-24.854z" fill="#efe2dd"/></g><g><path d="m427.595 88.697v24.854l-171.595 122.685v-24.854z" fill="#efe2dd"/></g><g><path d="m256 236.234-203.824-145.727c-2.998-2.144-7.165 0-7.165 3.685v26.776l210.989 152.419 210.988-152.418v-26.777c0-3.686-4.167-5.829-7.165-3.685z" fill="#ade194"/></g><g><path d="m466.987 100.85v20.115l-210.987 152.418-210.987-152.418v-20.115l210.987 152.418z" fill="#97da7b"/></g><g><path d="m395.531 395.406c-5.56 7.725-16.329 9.48-24.054 3.921l-355.757-256.999c-7.725-5.56-9.48-16.329-3.92-24.054 5.56-7.725 16.329-9.48 24.054-3.92l355.756 256.998c7.726 5.56 9.481 16.329 3.921 24.054z" fill="#eaa998"/></g><g><path d="m395.527 395.409c-1.836 2.554-4.241 4.46-6.925 5.647 1.008-6.236-1.467-12.811-6.954-16.752l-355.752-257.003c-3.043-2.195-6.565-3.243-10.047-3.243-2.435 0-4.849.509-7.074 1.517.409-2.554 1.407-5.059 3.023-7.304 3.362-4.68 8.651-7.164 14.009-7.164 3.482 0 7.004 1.048 10.047 3.243l355.752 257.004c7.732 5.557 9.488 16.323 3.921 24.055z" fill="#e49280"/></g><g><path d="m116.469 395.406c5.56 7.725 16.329 9.48 24.054 3.921l355.757-256.999c7.725-5.56 9.48-16.329 3.92-24.054-5.56-7.725-16.329-9.48-24.054-3.92l-355.756 256.998c-7.726 5.56-9.481 16.329-3.921 24.054z" fill="#dd7f66"/></g><g><path d="m496.281 142.327-355.762 257.003c-7.723 5.557-18.489 3.801-24.046-3.921-1.467-2.045-2.435-4.3-2.903-6.615 4.55.938 9.469.05 13.54-2.884l355.752-256.993c5.687-4.101 8.142-11.005 6.825-17.451 4.091.838 7.892 3.153 10.516 6.805 5.557 7.722 3.801 18.498-3.922 24.056z" fill="#d6694b"/></g><g><circle cx="256" cy="293.735" r="7.483"/><path d="m484.138 395.091h-79.887c4.474-10.412 1.303-22.923-8.258-29.805l-97.784-70.639 202.443-146.245c5.359-3.857 8.895-9.569 9.957-16.085 1.062-6.517-.478-13.056-4.335-18.415-7.33-10.186-21.033-13.123-31.802-7.302v-12.407c0-4.522-2.498-8.615-6.519-10.683s-8.804-1.72-12.483.911l-20.39 14.578v-23.753c0-5.793-3.474-10.948-8.848-13.134-5.344-2.173-11.386-.912-15.399 3.206-8.519 8.743-19.6 16.613-33.877 24.058-9.989 5.209-20.345 9.665-30.62 14.188-20.861 9.182-39.967 19.264-58.442 32.466-11.517 8.229-22.468 17.413-31.893 28.006-18.93-21.276-44.935-37.333-59.646-45.429-11.088-6.102-22.556-11.466-34.123-16.555-9.04-3.976-18.387-8.087-27.187-12.676-14.276-7.446-25.358-15.316-33.876-24.058-4.013-4.12-10.055-5.378-15.4-3.206-5.375 2.186-8.848 7.341-8.848 13.134v23.753l-20.391-14.578c-3.677-2.631-8.46-2.981-12.482-.912-4.021 2.068-6.52 6.162-6.52 10.684v12.405c-10.761-5.821-24.468-2.885-31.802 7.304-3.858 5.359-5.397 11.898-4.335 18.415 1.062 6.516 4.598 12.228 9.947 16.077l54.253 39.193c3.349 2.42 8.028 1.666 10.447-1.684 2.42-3.35 1.667-8.028-1.684-10.448l-54.264-39.201c-4.059-2.922-5.183-9.494-2.215-13.613 3.143-4.361 9.245-5.353 13.596-2.222l211.75 152.968-16.651 12.029-123.919-89.519c-3.349-2.42-8.027-1.667-10.448 1.684-2.419 3.35-1.666 8.028 1.685 10.448l119.903 86.618-97.774 70.632c-9.57 6.888-12.741 19.4-8.268 29.813h-79.887c-15.363-.001-27.862 12.498-27.862 27.862v20.501c0 4.133 3.35 7.483 7.483 7.483h374.543c4.133 0 7.483-3.35 7.483-7.483s-3.35-7.483-7.483-7.483h-367.06v-13.018c0-7.111 5.785-12.896 12.896-12.896h456.275c7.111 0 12.896 5.785 12.896 12.896v13.018h-80.931c-4.133 0-7.483 3.35-7.483 7.483s3.35 7.483 7.483 7.483h88.414c4.133 0 7.483-3.35 7.483-7.483v-20.501c.001-15.364-12.498-27.863-27.861-27.863zm-220.655-216.749c17.466-21.712 44.529-38.45 59.381-46.623 19.707-10.844 41.052-18.664 61.011-29.072 14.937-7.79 26.815-16.124 36.238-25.435v32.487l-156.63 111.986zm-171.597-101.131c9.421 9.31 21.296 17.643 36.231 25.433 20.116 10.493 41.109 18.12 61.019 29.076 14.851 8.172 41.915 24.91 59.381 46.622v43.343l-156.631-111.986zm-39.391 39.931v-17.207s199.007 142.283 199.172 142.399c2.566 1.802 6.119 1.829 8.686-.012 0 0 199.153-142.388 199.153-142.388v17.209l-203.506 147.012zm70.047 273.892c-3.14-4.363-2.145-10.468 2.229-13.616l355.747-256.991c1.719-1.237 3.708-1.832 5.681-1.833 6.192-.001 10.619 5.302 9.639 11.315-.419 2.57-1.814 4.824-3.938 6.353l-355.747 256.991c-4.281 3.079-10.525 2.07-13.611-2.219zm36.624 4.057 96.834-69.953 96.833 69.953zm230.291-4.056c-3.008 4.181-9.408 5.253-13.599 2.225-.394-.285-107.078-77.354-107.078-77.354l16.651-12.029 101.809 73.547c4.363 3.142 5.358 9.247 2.217 13.611z"/></g></g></svg>