<svg id="Capa_1" enable-background="new 0 0 512 512" height="512" viewBox="0 0 512 512" width="512" xmlns="http://www.w3.org/2000/svg"><g><g><ellipse cx="306.007" cy="374.123" fill="#d8aa5e" rx="25.179" ry="25.179" transform="matrix(.278 -.961 .961 .278 -138.335 564.302)"/></g><g><path d="m304.867 386.462c-6.815-12.122-2.512-27.473 9.61-34.288.637-.358 1.285-.679 1.938-.976-7.053-3.195-15.48-3.11-22.747.976-12.122 6.815-16.424 22.166-9.61 34.288 6.456 11.485 20.574 15.943 32.35 10.586-4.712-2.135-8.812-5.732-11.541-10.586z" fill="#c99c56"/></g><g><ellipse cx="259.924" cy="392.917" fill="#ea9b58" rx="25.179" ry="25.179" transform="matrix(.646 -.763 .763 .646 -207.885 337.253)"/></g><g><path d="m256.35 398.875c-2.908-11.938 3.227-23.957 14.014-28.864-4.961-2.265-10.688-2.948-16.398-1.558-13.511 3.291-21.797 16.911-18.506 30.422s16.911 21.797 30.422 18.506c1.573-.383 3.071-.911 4.492-1.558-6.777-3.094-12.124-9.147-14.024-16.948z" fill="#d88a55"/></g><g><ellipse cx="210.48" cy="398.578" fill="#d8aa5e" rx="25.179" ry="25.179" transform="matrix(.707 -.707 .707 .707 -220.189 265.572)"/></g><g><path d="m206.014 397.712c.341-9.903 6.358-18.269 14.816-22.09-2.904-1.311-6.104-2.093-9.485-2.209-13.898-.478-25.552 10.401-26.03 24.299s10.401 25.552 24.299 26.03c3.995.137 7.802-.668 11.214-2.209-9.031-4.076-15.175-13.304-14.814-23.821z" fill="#c99c56"/></g><g><ellipse cx="161.342" cy="390.685" fill="#ea9b58" rx="25.179" ry="25.179" transform="matrix(.935 -.355 .355 .935 -128.317 82.848)"/></g><g><path d="m158.188 383.061c2.245-7.066 7.317-12.446 13.572-15.294-.9-.408-1.829-.773-2.794-1.079-13.253-4.211-27.411 3.12-31.622 16.373s3.12 27.411 16.373 31.621c6.188 1.966 12.572 1.415 18.05-1.079-11.461-5.193-17.483-18.253-13.579-30.542z" fill="#d88a55"/></g><g><ellipse cx="116.158" cy="369.824" fill="#d8aa5e" rx="25.179" ry="25.179" transform="matrix(.968 -.252 .252 .968 -89.4 41.177)"/></g><g><path d="m123 390.874c-11.625-7.631-14.863-23.242-7.232-34.867 2.734-4.165 6.494-7.246 10.726-9.144-11.095-5.01-24.494-1.355-31.385 9.144-7.631 11.625-4.393 27.236 7.232 34.867 7.461 4.897 16.56 5.311 24.141 1.912-1.191-.538-2.356-1.173-3.482-1.912z" fill="#c99c56"/></g><g><ellipse cx="78.279" cy="337.544" fill="#ea9b58" rx="25.179" ry="25.179" transform="matrix(.071 -.998 .998 .071 -263.958 391.743)"/></g><g><path d="m80.194 354.084c-9.135-10.485-8.04-26.39 2.446-35.525 1.878-1.636 3.932-2.938 6.087-3.923-8.708-3.965-19.302-2.772-26.988 3.923-10.485 9.135-11.58 25.04-2.446 35.525 7.499 8.607 19.558 10.881 29.438 6.368-3.173-1.445-6.098-3.568-8.537-6.368z" fill="#d88a55"/></g><g><ellipse cx="50.517" cy="296.239" fill="#d8aa5e" rx="25.179" ry="25.179" transform="matrix(.774 -.634 .634 .774 -176.324 99.128)"/></g><g><path d="m48.44 307.042c-5.966-12.561-.62-27.581 11.942-33.547.156-.074.314-.139.471-.209-6.502-2.924-14.195-3.089-21.139.209-12.561 5.966-17.908 20.985-11.942 33.547 5.892 12.405 20.612 17.766 33.075 12.151-5.258-2.365-9.739-6.534-12.407-12.151z" fill="#c99c56"/></g><g><ellipse cx="34.932" cy="248.975" fill="#ea9b58" rx="25.179" ry="25.179" transform="matrix(.967 -.256 .256 .967 -62.673 17.281)"/></g><g><path d="m31 253.239c-1.979-11.52 4.208-22.553 14.37-27.178-4.444-2.029-9.523-2.791-14.702-1.902-13.705 2.355-22.907 15.374-20.552 29.08 2.355 13.705 15.374 22.907 29.08 20.552 2.185-.375 4.254-1.024 6.182-1.902-7.318-3.342-12.913-10.123-14.378-18.65z" fill="#d88a55"/></g><g><ellipse cx="32.681" cy="199.258" fill="#d8aa5e" rx="25.179" ry="25.179" transform="matrix(.765 -.645 .645 .765 -120.737 67.976)"/></g><g><ellipse cx="43.929" cy="150.779" fill="#ea9b58" rx="25.179" ry="25.179" transform="matrix(.072 -.997 .997 .072 -109.621 183.737)"/></g><g><path d="m41.396 141.524c2.494-6.312 7.259-11.048 12.984-13.654-.392-.179-.791-.348-1.197-.508-12.933-5.111-27.56 1.23-32.671 14.163s1.23 27.56 14.163 32.671c6.621 2.616 13.683 2.226 19.687-.508-12.122-5.519-17.916-19.636-12.966-32.164z" fill="#d88a55"/></g><g><ellipse cx="67.844" cy="107.133" fill="#d8aa5e" rx="25.179" ry="25.179" transform="matrix(.933 -.361 .361 .933 -34.089 31.701)"/></g><g><path d="m73.588 127.184c-11.074-8.411-13.232-24.207-4.82-35.281 2.6-3.423 5.906-5.991 9.559-7.661-10.485-4.813-23.265-1.908-30.534 7.661-8.411 11.074-6.253 26.87 4.82 35.281 7.651 5.812 17.556 6.575 25.722 2.841-1.648-.757-3.242-1.698-4.747-2.841z" fill="#c99c56"/></g><g><ellipse cx="102.65" cy="71.561" fill="#ea9b58" rx="25.179" ry="25.179" transform="matrix(.041 -.999 .999 .041 26.987 171.226)"/></g><g><path d="m103.104 86.758c-8.393-11.088-6.208-26.88 4.88-35.273 1.562-1.183 3.221-2.148 4.936-2.915-8.11-3.614-17.887-2.822-25.466 2.915-11.088 8.393-13.272 24.185-4.88 35.273 7.21 9.525 19.879 12.472 30.337 7.795-3.754-1.673-7.152-4.287-9.807-7.795z" fill="#d88a55"/></g><g><ellipse cx="145.764" cy="46.702" fill="#ea9b58" rx="25.179" ry="25.179" transform="matrix(.587 -.809 .809 .587 22.341 137.228)"/></g><g><path d="m142.753 55.917c-4.957-12.604.955-26.794 13.222-32.227-5.943-2.637-12.897-2.988-19.427-.421-12.942 5.089-19.307 19.706-14.218 32.647 5.089 12.942 19.706 19.307 32.647 14.218.337-.133.667-.275.995-.421-5.835-2.589-10.698-7.384-13.219-13.796z" fill="#d88a55"/></g><g><path d="m219.037 31.85c-1.408-13.835-13.765-23.909-27.599-22.5-13.835 1.408-23.908 13.765-22.501 27.599 1.408 13.835 13.765 23.908 27.599 22.5 13.835-1.407 23.909-13.764 22.501-27.599z" fill="#d8aa5e"/></g><g><path d="m189.768 36.949c-1.123-11.035 5.063-21.123 14.632-25.472-3.926-1.788-8.361-2.596-12.963-2.128-13.835 1.408-23.909 13.765-22.501 27.599 1.408 13.835 13.765 23.909 27.599 22.5 2.8-.285 5.441-1.025 7.869-2.128-7.877-3.586-13.696-11.138-14.636-20.371z" fill="#c99c56"/></g><g><ellipse cx="243.741" cy="35.568" fill="#ea9b58" rx="25.179" ry="25.179" transform="matrix(.357 -.934 .934 .357 123.436 250.513)"/></g><g><path d="m239.374 31.262c1.491-8.595 7.177-15.408 14.59-18.708-1.852-.821-3.832-1.433-5.918-1.795-13.701-2.378-26.736 6.802-29.114 20.503s6.802 26.736 20.503 29.114c5.107.886 10.12.165 14.524-1.795-10.309-4.571-16.601-15.704-14.585-27.319z" fill="#d88a55"/></g><g><ellipse cx="291.333" cy="50.12" fill="#d8aa5e" rx="25.179" ry="25.179" transform="matrix(.977 -.213 .213 .977 -3.988 63.253)"/></g><g><path d="m301.344 72.846c-12.551-5.987-17.873-21.015-11.886-33.567 2.655-5.566 7.09-9.706 12.296-12.073-12.465-5.674-27.227-.34-33.147 12.073-5.987 12.551-.666 27.58 11.885 33.567 6.985 3.332 14.736 3.157 21.271.187-.139-.064-.28-.121-.419-.187z" fill="#c99c56"/></g><g><ellipse cx="333.233" cy="76.975" fill="#ea9b58" rx="25.179" ry="25.179" transform="matrix(.998 -.068 .068 .998 -4.448 22.746)"/></g><g><path d="m337.608 95.933c-10.47-9.152-11.538-25.059-2.386-35.529 2.428-2.778 5.335-4.887 8.487-6.326-9.87-4.52-21.924-2.264-29.433 6.326-9.152 10.47-8.084 26.377 2.386 35.529 7.692 6.724 18.316 7.924 27.042 3.94-2.16-.989-4.217-2.297-6.096-3.94z" fill="#d88a55"/></g><g><ellipse cx="366.331" cy="114.142" fill="#d8aa5e" rx="25.179" ry="25.179" transform="matrix(.707 -.707 .707 .707 26.586 292.466)"/></g><g><path d="m366.109 127.923c-7.612-11.638-4.348-27.243 7.291-34.855 1.085-.709 2.204-1.324 3.348-1.846-7.586-3.439-16.712-3.05-24.199 1.846-11.638 7.612-14.902 23.217-7.291 34.855 6.902 10.553 20.377 14.22 31.506 9.137-4.206-1.906-7.94-4.985-10.655-9.137z" fill="#c99c56"/></g><g><ellipse cx="388.17" cy="158.861" fill="#ea9b58" rx="25.179" ry="25.179" transform="matrix(.539 -.842 .842 .539 45.123 400.173)"/></g><g><path d="m384.803 166.445c-3.89-12.316 2.181-25.39 13.688-30.546-5.442-2.448-11.767-2.987-17.905-1.048-13.26 4.188-20.615 18.334-16.426 31.594 4.188 13.26 18.334 20.615 31.594 16.426.944-.298 1.855-.652 2.738-1.048-6.315-2.841-11.439-8.256-13.689-15.378z" fill="#d88a55"/></g><g><circle cx="397.132" cy="207.815" fill="#d8aa5e" r="25.179"/></g><g><path d="m392.654 208.638c-.344-10.505 5.801-19.713 14.821-23.781-3.398-1.534-7.189-2.337-11.167-2.207-13.899.454-24.797 12.09-24.343 25.989.455 13.899 12.09 24.797 25.989 24.343 3.394-.111 6.607-.893 9.522-2.207-8.475-3.827-14.498-12.216-14.822-22.137z" fill="#c99c56"/></g><g><ellipse cx="392.549" cy="257.371" fill="#ea9b58" rx="25.179" ry="25.179" transform="matrix(.611 -.792 .792 .611 -51.045 410.86)"/></g><g><path d="m388.73 251.372c1.921-7.831 7.316-13.893 14.14-16.964-1.371-.614-2.811-1.12-4.322-1.491-13.506-3.313-27.14 4.95-30.453 18.455-3.313 13.506 4.95 27.14 18.455 30.453 5.674 1.392 11.369.734 16.313-1.491-10.882-4.877-17.075-16.967-14.133-28.962z" fill="#d88a55"/></g><g><ellipse cx="374.763" cy="303.852" fill="#d8aa5e" rx="25.179" ry="25.179" transform="matrix(.505 -.863 .863 .505 -76.771 473.825)"/></g><g><path d="m382.807 325.78c-12.11-6.835-16.387-22.193-9.552-34.304 2.768-4.904 6.934-8.523 11.716-10.64-11.72-5.214-25.702-.759-32.135 10.64-6.835 12.111-2.558 27.469 9.552 34.304 7.206 4.067 15.562 4.199 22.588 1.088-.733-.326-1.457-.686-2.169-1.088z" fill="#c99c56"/></g><g><path d="m501.253 456.568-43.514-18.656c-.032.033-.053.073-.086.105l-17.916 17.916c-.033.033-.072.054-.105.086l18.656 43.514c1.493 3.483 6.032 4.357 8.712 1.677l35.931-35.931c2.679-2.679 1.805-7.218-1.678-8.711z" fill="#d8aa5e"/><path d="m453.985 441.684-14.249 14.249c-.033.033-.072.054-.105.086l18.655 43.514c1.493 3.483 6.032 4.357 8.712 1.677l8.754-8.754z" fill="#c99c56"/><g><path d="m439.737 455.933 17.916-17.916c2.092-2.092 2.092-5.484 0-7.576l-25.728-25.728c-2.092-2.092-5.484-2.092-7.576 0l-17.916 17.916c-2.092 2.092-2.092 5.484 0 7.576l25.728 25.728c2.091 2.093 5.483 2.093 7.576 0z" fill="#80d261"/></g><g><path d="m427.211 430.205c-2.092-2.092-2.092-5.484 0-7.576l11.315-11.315-6.601-6.601c-2.092-2.092-5.484-2.092-7.576 0l-17.916 17.916c-2.092 2.092-2.092 5.484 0 7.576l25.728 25.728c2.092 2.092 5.484 2.092 7.576 0l6.601-6.601z" fill="#4fc123"/></g></g><path d="m397.207 359.879c-8.045-8.045-20.177-9.504-29.709-4.385-1.138 2.119-2.597 4.112-4.386 5.9-1.788 1.788-3.781 3.247-5.9 4.385-5.118 9.532-3.659 21.664 4.386 29.709 9.833 9.833 25.776 9.833 35.609 0s9.833-25.776 0-35.609z" fill="#d8aa5e"/><path d="m377.375 378.625c-6.679-6.679-8.816-16.177-6.421-24.664-1.183.42-2.338.938-3.46 1.54-1.137 2.117-2.595 4.107-4.382 5.894-1.788 1.788-3.781 3.247-5.9 4.385-5.118 9.532-3.659 21.664 4.385 29.709 9.833 9.833 25.776 9.833 35.609 0 3.154-3.154 5.29-6.937 6.421-10.945-8.869 3.151-19.153 1.18-26.252-5.919z" fill="#c99c56"/><g><circle cx="345.308" cy="343.59" fill="#ea9b58" r="25.179"/></g><g><circle cx="345.308" cy="343.59" fill="#ea9b58" r="25.179"/></g><g><path d="m348.374 361.394c-9.833-9.833-9.833-25.776 0-35.609 2.196-2.196 4.699-3.899 7.369-5.114-9.283-4.225-20.604-2.523-28.24 5.114-9.833 9.833-9.833 25.776 0 35.609 7.637 7.637 18.957 9.339 28.24 5.114-2.67-1.215-5.172-2.917-7.369-5.114z" fill="#d88a55"/></g><path d="m511.767 459.061c-.808-4.195-3.634-7.704-7.559-9.386l-3.197-1.371c-3.808-1.631-8.217.13-9.849 3.937-1.633 3.807.13 8.216 3.937 9.849l.29.124-31.456 31.456-15.402-35.924 10.933-10.933 3.375 1.447c3.812 1.634 8.216-.132 9.849-3.938 1.632-3.807-.131-8.216-3.938-9.848l-2.064-.885c-.152-3.075-1.385-6.107-3.729-8.45l-25.729-25.728c-2.428-2.429-5.657-3.767-9.092-3.767s-6.664 1.338-9.092 3.766l-3.654 3.654-8.198-8.198c7.789-12.596 6.234-29.374-4.682-40.291-6.74-6.739-15.713-9.894-24.559-9.503.022-.493.036-.987.036-1.483 0-2.435-.274-4.827-.79-7.148 2.119-.163 4.237-.526 6.331-1.108 8.409-2.342 15.403-7.818 19.693-15.419 4.291-7.602 5.364-16.419 3.022-24.829-.68-2.441-1.632-4.758-2.815-6.93 10.025-3.559 18.139-11.917 20.858-22.999 2.08-8.478.733-17.258-3.79-24.723-1.309-2.16-2.845-4.128-4.564-5.895 1.806-1.275 3.502-2.733 5.048-4.384 5.968-6.371 9.097-14.684 8.812-23.408s-3.95-16.815-10.321-22.782c-1.846-1.729-3.859-3.212-5.992-4.45.928-1.137 1.787-2.337 2.561-3.602 2.161-3.534 1.048-8.15-2.486-10.311-3.531-2.161-8.149-1.048-10.311 2.487-1.972 3.225-4.919 5.716-8.392 7.135-2.454.17-4.851.608-7.159 1.3-2.645-.069-5.261-.719-7.677-1.976-4.189-2.178-7.28-5.858-8.703-10.361-2.936-9.296 2.238-19.247 11.533-22.183 4.752-1.501 9.756-.964 14.093 1.51 3.597 2.054 8.179.803 10.231-2.795 2.054-3.597.802-8.178-2.796-10.231-2.566-1.465-5.303-2.554-8.124-3.272 4.25-9.761 3.681-21.404-2.57-30.96-6.402-9.788-17.198-15.004-28.11-14.768 1.456-10.545-2.234-21.601-10.83-29.116-6.57-5.744-14.979-8.587-23.696-8.001-2.52.169-4.974.628-7.333 1.342-.302-2.19-.817-4.367-1.573-6.499-2.913-8.229-8.856-14.83-16.734-18.588-10.549-5.031-22.472-3.883-31.669 1.978-.883-2.034-1.969-3.996-3.275-5.85-5.026-7.137-12.53-11.889-21.131-13.382-11.52-1.999-22.702 2.333-29.977 10.472-6.715-8.261-17.315-13.11-28.674-11.953-11.626 1.183-21.216 8.361-26.027 18.148-1.811-1.279-3.759-2.391-5.839-3.296-8.003-3.485-16.886-3.645-25.007-.451-8.124 3.194-14.518 9.361-18.002 17.364-1.008 2.316-1.729 4.706-2.18 7.129-2.084-.739-4.253-1.282-6.494-1.592-8.642-1.196-17.24 1.046-24.201 6.314-6.96 5.269-11.452 12.932-12.647 21.578-.346 2.502-.395 4.998-.176 7.453-2.206-.149-4.442-.087-6.683.219-8.649 1.182-16.319 5.661-21.6 12.612-5.28 6.951-7.537 15.542-6.355 24.191.343 2.511.972 4.936 1.851 7.248-10.416 2.169-19.586 9.351-23.78 19.963-4.294 10.868-2.329 22.685 4.149 31.457-1.968 1.02-3.851 2.239-5.612 3.67-6.775 5.504-11.001 13.317-11.898 22-1.204 11.633 3.886 22.49 12.504 29.187-7.78 7.266-11.887 18.173-9.954 29.426 1.478 8.603 6.218 16.115 13.346 21.153 2.063 1.457 4.255 2.654 6.535 3.587-1.146 1.889-2.117 3.901-2.875 6.03-2.928 8.224-2.478 17.095 1.268 24.98 3.744 7.885 10.336 13.839 18.56 16.767 2.388.85 4.83 1.409 7.287 1.691-2.862 10.245-.702 21.689 6.793 30.293 6.453 7.407 15.533 11.199 24.662 11.198 1.74 0 3.481-.145 5.207-.422.002 10.645 5.173 21.091 14.718 27.357 5.515 3.62 11.73 5.35 17.882 5.35 4.753 0 9.465-1.041 13.786-3.035 2.875 10.25 10.672 18.914 21.555 22.371 3.262 1.036 6.604 1.55 9.932 1.55 5.158 0 10.276-1.236 14.989-3.676 2.243-1.161 4.309-2.562 6.187-4.158 1.151 1.888 2.493 3.677 4.036 5.331 5.956 6.38 14.041 10.06 22.765 10.36.385.013.769.02 1.151.02 8.302 0 16.173-3.098 22.271-8.792 1.846-1.723 3.458-3.63 4.836-5.673 1.618 1.507 3.393 2.868 5.325 4.044 5.185 3.154 11.007 4.773 16.924 4.773 2.595 0 5.207-.312 7.792-.941 11.36-2.766 19.879-11.197 23.301-21.558 4.656 2.409 9.844 3.686 15.104 3.686 5.418 0 10.91-1.348 15.96-4.187 10.192-5.729 16.113-16.147 16.609-27.047 2.2.456 4.438.691 6.677.691.495 0 .99-.013 1.484-.035-.396 8.85 2.759 17.83 9.502 24.572 6.173 6.172 14.379 9.572 23.107 9.572 6.171 0 12.076-1.706 17.191-4.882l8.191 8.191-3.655 3.655c-5.012 5.012-5.013 13.169 0 18.183l25.729 25.728c2.344 2.343 5.374 3.576 8.449 3.729l16.087 37.523c1.684 3.926 5.192 6.752 9.387 7.56.812.156 1.627.233 2.437.233 3.376 0 6.65-1.331 9.086-3.767l35.932-35.931c3.017-3.021 4.339-7.329 3.531-11.523zm-127.538-263.332c3.228-3.447 7.605-5.43 12.325-5.584.198-.006.396-.01.593-.01 4.502 0 8.769 1.684 12.07 4.776 3.447 3.229 5.43 7.605 5.584 12.326.154 4.719-1.538 9.217-4.767 12.663-2.902 3.098-6.734 5-10.907 5.468-2.411-.496-4.819-.714-7.191-.669-2.541-.778-4.894-2.112-6.891-3.982-3.447-3.228-5.43-7.605-5.584-12.326-.153-4.718 1.539-9.215 4.768-12.662zm-8.85 57.431c1.977-8.059 9.221-13.47 17.171-13.47 1.39 0 2.803.166 4.211.511 4.587 1.125 8.46 3.969 10.908 8.007 2.447 4.039 3.175 8.789 2.05 13.375-2.208 9.002-10.99 14.688-19.987 13.227-2.179-1.125-4.447-1.992-6.771-2.598-2.223-1.434-4.12-3.349-5.531-5.677-2.448-4.039-3.176-8.789-2.051-13.375zm8.073 35.296c4.112 2.321 7.075 6.104 8.342 10.654 1.267 4.549.686 9.319-1.635 13.432-4.409 7.812-13.906 10.965-22.009 7.689-2.178-2.13-4.6-3.922-7.205-5.345-1.466-1.835-2.565-3.96-3.214-6.29-1.267-4.549-.686-9.319 1.635-13.432 2.321-4.112 6.105-7.075 10.654-8.342 1.575-.438 3.177-.656 4.77-.656 3.005-.001 5.975.773 8.662 2.29zm-26.799-189.11c2.979-1.948 6.332-2.878 9.65-2.878 5.771 0 11.436 2.817 14.824 7.997 5.074 7.759 3.233 18.059-3.977 23.64-2.318.83-4.49 1.896-6.493 3.168-2.571.652-5.273.733-7.946.174-4.623-.967-8.592-3.676-11.177-7.627-5.334-8.16-3.039-19.138 5.119-24.474zm-36.73-34.007c3.107-3.555 7.413-5.688 12.125-6.004.404-.027.808-.041 1.21-.041 4.276 0 8.36 1.529 11.609 4.369 6.98 6.102 7.988 16.514 2.554 23.833-2.01 1.425-3.814 3.039-5.401 4.806-2.3 1.321-4.88 2.129-7.604 2.312-4.712.315-9.266-1.221-12.819-4.329-7.339-6.415-8.091-17.606-1.674-24.946zm-44.547-22.831c3.028-6.35 9.377-10.066 15.984-10.066 2.548 0 5.136.553 7.584 1.722 4.263 2.033 7.478 5.604 9.054 10.055 1.417 4.002 1.344 8.281-.16 12.202-1.551 1.915-2.854 3.956-3.905 6.086-1.858 1.893-4.124 3.367-6.698 4.279-4.449 1.576-9.249 1.325-13.514-.709-4.262-2.033-7.478-5.604-9.054-10.056s-1.324-9.251.709-13.513zm-49.054-9.963c1.49-8.587 8.977-14.658 17.411-14.658.999 0 2.014.085 3.031.262 4.652.808 8.712 3.378 11.432 7.239 2.442 3.469 3.527 7.606 3.139 11.784-.975 2.254-1.686 4.58-2.131 6.943-1.278 2.316-3.058 4.339-5.283 5.907-3.861 2.719-8.548 3.772-13.203 2.964-4.652-.808-8.712-3.378-11.432-7.239-2.719-3.861-3.772-8.549-2.964-13.202zm-34.126-15.734c.606-.062 1.207-.092 1.804-.092 8.479 0 15.826 6.105 17.363 14.478-.33 2.438-.383 4.856-.176 7.218-1.675 7.144-7.711 12.789-15.409 13.573-9.7.98-18.393-6.1-19.379-15.798-.988-9.698 6.099-18.392 15.797-19.379zm-62.642 22.831c1.886-4.329 5.344-7.665 9.739-9.394 2.097-.825 4.287-1.236 6.475-1.236 2.396 0 4.791.494 7.055 1.48 3.889 1.693 6.965 4.663 8.806 8.434.34 2.441.948 4.784 1.787 7.006.118 2.654-.351 5.32-1.443 7.827-1.886 4.33-5.345 7.666-9.739 9.394s-9.2 1.642-13.528-.244c-4.33-1.885-7.666-5.344-9.395-9.739-1.729-4.393-1.642-9.198.243-13.528zm-44.417 29.496c.646-4.677 3.077-8.823 6.842-11.673 3.104-2.349 6.808-3.586 10.634-3.586.815 0 1.637.057 2.46.17 4.204.581 7.969 2.613 10.759 5.749.979 2.243 2.189 4.343 3.606 6.275 2.271 6.969.046 14.919-6.118 19.584-7.771 5.882-18.882 4.348-24.767-3.427-2.85-3.764-4.063-8.414-3.416-13.092zm-31.371 27.301c2.856-3.76 7.006-6.184 11.685-6.823.813-.111 1.624-.166 2.43-.166 3.36 0 6.625.954 9.472 2.777 1.556 1.906 3.285 3.592 5.152 5.054 4.091 6.101 4.104 14.377-.582 20.546-2.856 3.761-7.006 6.184-11.685 6.823-4.681.639-9.326-.582-13.088-3.438-3.761-2.856-6.184-7.006-6.822-11.685-.64-4.679.581-9.326 3.438-13.088zm-26.279 47.842c2.743-6.941 9.417-11.182 16.464-11.182 1.725 0 3.47.267 5.187.798 1.981 1.387 4.076 2.547 6.265 3.453 5.574 4.772 7.813 12.729 4.969 19.926-3.583 9.067-13.877 13.527-22.94 9.945-9.066-3.583-13.527-13.874-9.945-22.94zm-2.759 119.132c-3.855-2.726-6.42-6.79-7.22-11.444-1.57-9.138 4.217-17.857 13.053-20.109.701.046 1.402.076 2.102.076 1.708 0 3.404-.143 5.078-.406 7.25 1.174 13.304 6.818 14.616 14.451.8 4.654-.261 9.341-2.986 13.198s-6.79 6.42-11.445 7.22c-4.651.798-9.341-.261-13.198-2.986zm19.86 49.481c-4.449-1.583-8.015-4.805-10.041-9.07-3.977-8.375-.759-18.329 7.138-22.883 2.416-.508 4.737-1.277 6.934-2.286.626-.068 1.255-.105 1.885-.105 1.998 0 4.003.343 5.94 1.033 4.449 1.583 8.015 4.805 10.041 9.071 2.026 4.265 2.27 9.064.687 13.513-1.584 4.449-4.806 8.014-9.071 10.04-4.266 2.027-9.066 2.271-13.513.687zm51.328 25.864c-.324 4.711-2.464 9.014-6.024 12.116-7.352 6.404-18.541 5.632-24.943-1.717-6.089-6.99-5.678-17.444.697-23.959 2.17-1.131 4.181-2.483 6.011-4.03 2.123-.856 4.367-1.295 6.611-1.295 4.938 0 9.851 2.051 13.341 6.058 3.102 3.561 4.632 8.116 4.307 12.827zm35.022 40.768c-5.351 8.15-16.332 10.427-24.481 5.079-7.749-5.087-10.175-15.262-5.798-23.255 1.784-1.674 3.356-3.519 4.701-5.502 5.803-4.474 14.037-5.044 20.499-.803 8.149 5.349 10.427 16.332 5.079 24.481zm47.253 16.512c-1.429 4.5-4.526 8.175-8.72 10.346s-8.982 2.58-13.481 1.15c-8.836-2.808-13.918-11.953-11.857-20.834 1.276-2.114 2.288-4.32 3.037-6.579 3.327-4.455 8.609-7.118 14.184-7.118 1.77 0 3.567.268 5.342.832 4.5 1.43 8.175 4.527 10.346 8.72 2.171 4.194 2.579 8.982 1.149 13.483zm44.353 15.463c-3.452 3.223-7.947 4.92-12.672 4.746-4.72-.162-9.094-2.153-12.315-5.604-2.896-3.102-4.538-7.053-4.726-11.246.656-2.364 1.041-4.764 1.159-7.164.948-2.47 2.435-4.72 4.426-6.579 3.3-3.081 7.558-4.756 12.049-4.756.207 0 .414.003.622.011 4.72.162 9.094 2.153 12.316 5.604 3.222 3.452 4.907 7.952 4.745 12.672s-2.153 9.094-5.604 12.316zm41.564-1.407c-4.589 1.117-9.337.381-13.371-2.073-3.626-2.206-6.273-5.567-7.585-9.555-.006-2.454-.283-4.869-.817-7.212.247-2.634 1.071-5.2 2.486-7.526 2.455-4.035 6.333-6.872 10.921-7.989 1.4-.341 2.802-.504 4.183-.504 7.962 0 15.213 5.427 17.179 13.498 2.305 9.472-3.525 19.055-12.996 21.361zm10.867-46.158c-6.775-3.524-14.798-4.715-22.784-2.771-8.009 1.95-14.844 6.738-19.401 13.544-5.771-5.409-13.209-8.518-21.188-8.792-8.235-.283-16.111 2.482-22.336 7.806-4.097-6.766-10.421-11.767-18.03-14.184-8.095-2.572-16.465-1.81-23.624 1.512-2.047-7.358-6.651-14.037-13.522-18.547-7.095-4.657-15.354-6.184-23.139-4.922.021-7.916-2.784-15.481-8.032-21.505-5.576-6.401-13.116-10.099-20.953-10.984 2.156-7.616 1.497-15.658-1.931-22.874-3.536-7.446-9.612-13.167-17.201-16.246 4.125-6.749 5.658-14.664 4.306-22.533-1.439-8.373-5.963-15.456-12.204-20.286 2.663-2.806 2.772-7.23.144-10.161-2.765-3.084-7.507-3.344-10.591-.578-3.711 3.326-8.68 4.938-13.628 4.428-9.696-1.002-16.769-9.708-15.766-19.405.486-4.697 2.772-8.924 6.438-11.902 3.292-2.674 7.341-4.042 11.538-3.942 2.319.818 4.673 1.356 7.026 1.633 2.31 1.069 4.387 2.62 6.074 4.615 2.675 3.162 7.406 3.558 10.57.883 2.627-2.222 3.337-5.862 1.971-8.844 6.874-3.487 12.561-9.379 15.61-17.094 3.12-7.895 2.937-16.291.12-23.657 7.754-1.588 14.592-5.87 19.425-12.231 5.138-6.765 7.228-14.906 6.499-22.764.773.055 1.547.092 2.322.092 6.87 0 13.796-2.154 19.684-6.61 6.769-5.124 10.976-12.392 12.398-20.149 3.566 1.28 7.272 1.93 10.985 1.93 4.043 0 8.093-.761 11.969-2.285 7.675-3.018 13.803-8.693 17.395-16.06 5.373 3.808 11.903 6.026 18.844 6.026 1.101 0 2.215-.056 3.333-.169 8.451-.86 15.828-4.888 21.074-10.782 4.805 5.936 11.685 10.232 19.782 11.637 1.889.328 3.779.49 5.657.49 6.198 0 12.237-1.787 17.53-5.18 3.129 7.272 8.712 13.099 15.923 16.539 4.464 2.129 9.245 3.201 14.047 3.201 3.208 0 6.427-.479 9.565-1.441 1.023 7.561 4.667 14.799 10.85 20.204 6.008 5.252 13.556 8.077 21.46 8.077.267 0 .536-.021.804-.027-1.06 7.562.495 15.522 4.993 22.4 4.514 6.903 11.315 11.75 19.259 13.771-3.057 6.993-3.705 15.072-1.232 22.904 2.557 8.097 7.999 14.489 14.834 18.424-5.024 6.125-7.634 13.765-7.373 21.755.27 8.244 3.561 15.921 9.298 21.776-6.246 4.385-11 10.95-12.957 18.926-1.964 8.005-.869 16.279 3.067 23.462-7.461 2.625-13.651 7.791-17.574 14.743-4.018 7.118-5.214 15.302-3.427 23.219-7.813.571-15.081 3.878-20.677 9.473-6.002 6.002-9.174 13.778-9.521 21.657-7.746-1.627-15.723-.418-22.685 3.498-7.405 4.164-12.56 10.801-15.018 18.3zm39.696 25.598c-4.117 2.315-8.889 2.887-13.436 1.612-4.086-1.145-7.542-3.668-9.882-7.153-.673-2.373-1.592-4.615-2.729-6.702-.478-2.609-.378-5.31.359-7.939 1.274-4.547 4.243-8.326 8.36-10.64 2.682-1.508 5.642-2.276 8.637-2.276 1.601 0 3.213.22 4.797.664 2.497.7 4.749 1.926 6.667 3.557 1.232 2.011 2.7 3.916 4.407 5.675 4.111 8.352 1.031 18.586-7.18 23.202zm18.136-33.443c-6.894-6.894-6.894-18.109 0-25.002 3.339-3.339 7.778-5.178 12.5-5.178 4.723 0 9.162 1.839 12.502 5.179 3.339 3.339 5.179 7.778 5.179 12.5s-1.84 9.162-5.18 12.501c-6.894 6.893-18.109 6.892-25.001 0zm59.096 34.093c-3.339 3.339-7.778 5.178-12.501 5.178-4.722 0-9.161-1.839-12.5-5.178-5.164-5.163-6.458-12.752-3.886-19.133 1.912-1.234 3.726-2.681 5.399-4.354 1.663-1.662 3.117-3.476 4.365-5.404 2.119-.853 4.371-1.281 6.624-1.281 4.526 0 9.055 1.724 12.5 5.17 6.892 6.894 6.892 18.109-.001 25.002zm21.347 36.233 14.886-14.886 22.698 22.698-14.886 14.886z"/></g></svg>