<svg id="Capa_1" enable-background="new 0 0 512 512" height="512" viewBox="0 0 512 512" width="512" xmlns="http://www.w3.org/2000/svg"><g><g><path d="m220.792 243.729c.481-21.824-7.604-43.802-24.258-60.457-5.972-5.972-12.637-10.823-19.725-14.591h-20.156l-5.454 5.454z" fill="#4fc123"/><g><path d="m139.71 158.78c2.804 2.029 5.476 4.228 8 6.584.378-7.405 1.725-14.768 4.079-21.877-4.627-10.295-11.213-20.039-19.783-28.609-18.066-18.066-41.318-27.425-64.047-27.848z" fill="#80d261"/></g><g><path d="m150.136 167.721c2.897-2.932 6.011-5.649 9.316-8.124l72.861-72.861c-21.824-.482-43.802 7.604-60.457 24.258-15.106 15.106-23.137 34.592-24.145 54.37.824.769 1.633 1.555 2.425 2.357z" fill="#4fc123"/></g><path d="m127.73 168.681c-8.689 3.992-16.833 9.556-23.991 16.713-16.655 16.655-24.74 38.633-24.258 60.457l77.171-77.17z" fill="#80d261"/><g><path d="m151.077 168.681c-15.092-15.773-36.35-25.596-59.903-25.596s-44.811 9.824-59.903 25.596z" fill="#4fc123"/></g><g><path d="m269.001 168.681c-15.092-15.773-36.349-25.596-59.903-25.596s-44.811 9.824-59.903 25.596z" fill="#80d261"/></g></g><g><path d="m125.916 321.094c-4.622-2.65-10.302-2.65-14.924 0l-103.491 59.348h112.5l48.644-34.845z" fill="#ea9b58"/><g><path d="m125.916 321.094c-4.622-2.65-10.302-2.65-14.924 0l-103.491 59.348h52.5l84.703-48.574z" fill="#c57a44"/></g></g><g><path d="m367.114 281.164c-5.244-3.79-12.327-3.79-17.571 0l-71.197 51.449 66.772 47.83h159.382z" fill="#ea9b58"/><path d="m304.711 351.498 79.867-57.714-17.465-12.62c-5.244-3.79-12.327-3.79-17.571 0l-71.197 51.449z" fill="#c57a44"/></g><g><path d="m223.824 306.072-103.824 74.37h225.117l-103.824-74.37c-5.221-3.741-12.246-3.741-17.469 0z" fill="#fe860a"/></g><g><path d="m241.294 306.072c-5.222-3.741-12.247-3.741-17.47 0l-103.824 74.37h52.883l86.117-61.687z" fill="#fe7701"/></g><g><g><circle cx="424.5" cy="131.272" fill="#fed402" r="41.913"/></g><g><path d="m414 131.272c0-17.592 10.843-32.643 26.207-38.859-4.852-1.963-10.151-3.054-15.707-3.054-23.148 0-41.913 18.765-41.913 41.913s18.765 41.913 41.913 41.913c5.556 0 10.854-1.091 15.707-3.054-15.364-6.216-26.207-21.267-26.207-38.859z" fill="#fac600"/></g></g><g><path d="m508.892 374.363-58.892-42.558c-3.357-2.426-8.045-1.671-10.472 1.687-2.426 3.357-1.671 8.045 1.687 10.472l40.102 28.979h-133.79l-56.339-40.356 62.748-45.343c2.629-1.898 6.159-1.898 8.786 0l50.032 36.155c3.355 2.424 8.044 1.671 10.472-1.687 2.426-3.357 1.671-8.045-1.687-10.472l-50.032-36.155c-7.884-5.696-18.475-5.695-26.356 0l-66.823 48.289-32.665-23.398c-7.837-5.613-18.367-5.614-26.204 0l-51.262 36.719-9.499-5.447v-139.006l56.791 56.79c1.435 1.434 3.353 2.197 5.306 2.197.938 0 1.887-.176 2.792-.54 2.787-1.119 4.638-3.792 4.704-6.795.55-24.905-8.846-48.318-26.453-65.926-.61-.61-1.235-1.198-1.859-1.788h69.023c3.003 0 5.717-1.792 6.897-4.554s.598-5.961-1.479-8.131c-17.223-17.999-40.421-27.912-65.321-27.912-5.611 0-11.134.511-16.524 1.497l45.042-45.042c2.123-2.124 2.775-5.31 1.656-8.097-1.118-2.787-3.792-4.639-6.795-4.705-.689-.015-1.377-.023-2.065-.023-24.131 0-46.74 9.356-63.859 26.476-6.243 6.243-11.448 13.218-15.549 20.728-3.916-5.982-8.483-11.633-13.694-16.844-18.896-18.893-43.475-29.563-69.212-30.042-3.082-.06-5.846 1.749-7.042 4.564s-.563 6.075 1.599 8.238l44.675 44.676c-5.273-.942-10.673-1.424-16.157-1.424-24.901 0-48.101 9.912-65.322 27.911-2.076 2.17-2.658 5.37-1.479 8.131 1.181 2.762 3.895 4.554 6.897 4.554h71.327c-1.42 1.255-2.809 2.557-4.162 3.91-17.607 17.608-27.002 41.021-26.452 65.926.066 3.002 1.917 5.676 4.704 6.795.906.363 1.853.54 2.792.54 1.953 0 3.871-.763 5.306-2.197l58.912-58.913v130.403l-14.05-8.057c-6.902-3.959-15.48-3.959-22.387 0l-103.491 59.348c-2.948 1.691-4.391 5.153-3.516 8.437s3.849 5.569 7.247 5.569h214.5c4.143 0 7.5-3.358 7.5-7.5s-3.357-7.5-7.5-7.5h-78.65l84.843-60.773c2.611-1.871 6.12-1.871 8.733 0l37.047 26.537c.002.001.003.003.005.004l47.789 34.232h-64.767c-4.143 0-7.5 3.358-7.5 7.5s3.357 7.5 7.5 7.5h247.5c3.253 0 6.135-2.097 7.136-5.191s-.107-6.483-2.744-8.388zm-297.841-150.98-47.202-47.202h11.129c5.87 3.328 11.333 7.476 16.251 12.395 9.803 9.801 16.553 21.76 19.822 34.807zm-1.953-72.799c13.861 0 27.091 3.683 38.628 10.597h-77.257c11.537-6.914 24.768-10.597 38.629-10.597zm-156.552 10.597c11.537-6.913 24.767-10.596 38.629-10.596 13.861 0 27.091 3.683 38.628 10.596zm36.675 64.323c3.27-13.046 10.02-25.005 19.821-34.807 6.028-6.028 12.873-10.897 20.284-14.517h9.219zm52.85-74.97-52.717-52.717c13.804 4.026 26.631 11.646 37.349 22.364 7.091 7.091 12.818 15.107 17.05 23.716-.644 2.186-1.205 4.399-1.682 6.637zm-24.48 222.408h-81.935l79.066-45.341c2.303-1.32 5.161-1.32 7.462 0h.001l32.604 18.696zm59.569-256.645c9.802-9.803 21.759-16.553 34.807-19.822l-54.629 54.629c3.269-13.046 10.019-25.005 19.822-34.807z"/><path d="m95.751 416.229h-18c-4.143 0-7.5 3.358-7.5 7.5s3.357 7.5 7.5 7.5h18c4.143 0 7.5-3.358 7.5-7.5s-3.358-7.5-7.5-7.5z"/><path d="m204.251 416.229h-18c-4.143 0-7.5 3.358-7.5 7.5s3.357 7.5 7.5 7.5h18c4.143 0 7.5-3.358 7.5-7.5s-3.358-7.5-7.5-7.5z"/><path d="m164.751 453.229h-18c-4.143 0-7.5 3.358-7.5 7.5s3.357 7.5 7.5 7.5h18c4.143 0 7.5-3.358 7.5-7.5s-3.358-7.5-7.5-7.5z"/><path d="m246.251 453.229h-18c-4.143 0-7.5 3.358-7.5 7.5s3.357 7.5 7.5 7.5h18c4.143 0 7.5-3.358 7.5-7.5s-3.358-7.5-7.5-7.5z"/><path d="m317.25 453.229h-18c-4.143 0-7.5 3.358-7.5 7.5s3.357 7.5 7.5 7.5h18c4.143 0 7.5-3.358 7.5-7.5s-3.357-7.5-7.5-7.5z"/><path d="m388.25 453.229h-18c-4.143 0-7.5 3.358-7.5 7.5s3.357 7.5 7.5 7.5h18c4.143 0 7.5-3.358 7.5-7.5s-3.357-7.5-7.5-7.5z"/><path d="m297.75 423.729c0-4.142-3.357-7.5-7.5-7.5h-18c-4.143 0-7.5 3.358-7.5 7.5s3.357 7.5 7.5 7.5h18c4.143 0 7.5-3.358 7.5-7.5z"/><path d="m348.25 416.229h-18c-4.143 0-7.5 3.358-7.5 7.5s3.357 7.5 7.5 7.5h18c4.143 0 7.5-3.358 7.5-7.5s-3.357-7.5-7.5-7.5z"/><path d="m434.25 416.229h-18c-4.143 0-7.5 3.358-7.5 7.5s3.357 7.5 7.5 7.5h18c4.143 0 7.5-3.358 7.5-7.5s-3.357-7.5-7.5-7.5z"/><path d="m424.5 180.685c20.224 0 38.202-12.117 45.802-30.868 1.556-3.839-.295-8.212-4.134-9.768-3.844-1.555-8.213.295-9.769 4.134-5.293 13.062-17.814 21.502-31.899 21.502-18.976 0-34.413-15.438-34.413-34.414s15.438-34.413 34.413-34.413c12.897 0 24.607 7.125 30.56 18.596 1.908 3.678 6.438 5.11 10.111 3.203 3.677-1.908 5.11-6.435 3.203-10.112-8.542-16.461-25.354-26.687-43.874-26.687-27.246 0-49.413 22.167-49.413 49.413s22.167 49.414 49.413 49.414z"/><path d="m424.5 73.772c4.143 0 7.5-3.358 7.5-7.5v-15c0-4.142-3.357-7.5-7.5-7.5s-7.5 3.358-7.5 7.5v15c0 4.142 3.357 7.5 7.5 7.5z"/><path d="m417 196.272v15c0 4.142 3.357 7.5 7.5 7.5s7.5-3.358 7.5-7.5v-15c0-4.142-3.357-7.5-7.5-7.5s-7.5 3.357-7.5 7.5z"/><path d="m373.234 90.613c1.465 1.464 3.385 2.197 5.304 2.197s3.839-.732 5.304-2.197c2.929-2.929 2.929-7.678 0-10.606l-10.607-10.607c-2.93-2.929-7.678-2.929-10.607 0s-2.929 7.678 0 10.606z"/><path d="m465.159 171.93c-2.93 2.929-2.93 7.677-.001 10.606l10.606 10.607c1.465 1.465 3.384 2.197 5.304 2.197 1.919 0 3.839-.732 5.303-2.197 2.93-2.929 2.93-7.677.001-10.606l-10.606-10.607c-2.929-2.929-7.678-2.929-10.607 0z"/><path d="m344.5 138.772h15c4.143 0 7.5-3.358 7.5-7.5s-3.357-7.5-7.5-7.5h-15c-4.143 0-7.5 3.358-7.5 7.5s3.357 7.5 7.5 7.5z"/><path d="m482 131.272c0 4.142 3.357 7.5 7.5 7.5h15c4.143 0 7.5-3.358 7.5-7.5s-3.357-7.5-7.5-7.5h-15c-4.143 0-7.5 3.357-7.5 7.5z"/><path d="m373.234 171.93-10.606 10.607c-2.929 2.929-2.929 7.678.001 10.606 1.464 1.465 3.384 2.197 5.303 2.197s3.839-.732 5.304-2.197l10.606-10.607c2.929-2.929 2.929-7.678-.001-10.606-2.927-2.929-7.676-2.929-10.607 0z"/><path d="m470.462 92.81c1.919 0 3.839-.732 5.304-2.197l10.606-10.606c2.929-2.929 2.929-7.678 0-10.606-2.93-2.929-7.678-2.929-10.607 0l-10.606 10.606c-2.929 2.929-2.929 7.678 0 10.606 1.464 1.464 3.384 2.197 5.303 2.197z"/></g></g></svg>