<svg id="Capa_1" enable-background="new 0 0 512 512" height="512" viewBox="0 0 512 512" width="512" xmlns="http://www.w3.org/2000/svg"><g><g><path d="m403.178 504.522v-171.448c0-63.258-62.861-95.057-62.861-95.057 21.793-18.283 35.71-31.861 37.645-60.242s-8.14-57.387-27.25-78.458c-9.069-9.999-19.941-18.16-30.052-27.105-23.541-20.825-43.075-35.741-57.303-60.507-3.239-5.637-11.474-5.637-14.713 0-14.228 24.766-33.762 39.681-57.303 60.507-10.111 8.944-20.983 17.105-30.052 27.105-19.11 21.071-29.185 50.078-27.25 78.458 1.935 28.381 15.852 41.958 37.645 60.242 0 0-62.861 31.799-62.861 95.057v171.448z" fill="#fee97d"/></g><g><path d="m403.177 333.078v171.443h-19.94v-171.443c0-45.473-40.099-72.99-62.661-84.874-6.75-3.559-7.637-12.851-1.635-17.567 17.617-13.848 33.12-30.767 33.669-54.446.449-19.202-.728-35.383-12.133-51.106-12.552-17.308-28.694-31.635-44.626-45.732-22.133-19.581-36.41-40.239-49.87-63.22.907-1.446 1.795-2.921 2.662-4.427 3.24-5.633 11.475-5.633 14.716 0 14.227 24.765 33.758 39.68 57.297 60.508 10.12 8.943 20.987 17.099 30.059 27.098 19.102 21.077 29.182 50.079 27.248 78.464-1.934 28.384-15.852 41.954-37.647 60.238 0 0 62.861 31.804 62.861 95.064z" fill="#fedf30"/></g><g><path d="m405.541 352.24h-299.082c-9.451 0-17.113-7.662-17.113-17.113 0-9.451 7.662-17.113 17.113-17.113h299.082c9.451 0 17.113 7.662 17.113 17.113 0 9.451-7.661 17.113-17.113 17.113z" fill="#dd7f66"/></g><g><path d="m422.658 335.132c0 4.725-1.914 9.003-5.015 12.093-3.101 3.1-7.378 5.015-12.104 5.015h-19.939c4.726 0 9.003-1.914 12.104-5.015 3.101-3.091 5.015-7.368 5.015-12.093 0-9.452-7.667-17.119-17.118-17.119h19.94c9.45 0 17.117 7.667 17.117 17.119z" fill="#d6694b"/></g><g><path d="m161.993 352.24h188.014v152.282h-188.014z" fill="#eaa998"/></g><g><path d="m330.067 352.24h19.94v152.282h-19.94z" fill="#e49280"/></g><g><path d="m235.04 249.413c-5.401-5.401-5.401-14.159 0-19.56l6.561-6.561c5.401-5.401 14.159-5.401 19.56 0 5.401 5.401 5.401 14.159 0 19.56l-6.561 6.561c-5.401 5.401-14.158 5.401-19.56 0z" fill="#7a6d79"/></g><g><g><path d="m315.868 382.229 10.933-10.933c.849-.849.849-2.225 0-3.074l-10.933-10.933c-.408-.408-.637-.96-.637-1.537v-43.052c0-1.2-.973-2.173-2.173-2.173h-43.052c-.576 0-1.129-.229-1.537-.637l-10.933-10.933c-.849-.849-2.225-.849-3.074 0l-10.933 10.933c-.408.408-.96.637-1.537.637h-43.052c-1.2 0-2.173.973-2.173 2.173v43.052c0 .576-.229 1.129-.637 1.537l-10.933 10.933c-.849.849-.849 2.225 0 3.074l10.933 10.933c.408.408.637.96.637 1.537v43.052c0 1.2.973 2.173 2.173 2.173h43.052c.576 0 1.129.229 1.537.637l10.933 10.933c.849.849 2.225.849 3.074 0l10.933-10.933c.408-.408.96-.637 1.537-.637h43.052c1.2 0 2.173-.973 2.173-2.173v-43.052c.001-.576.23-1.129.637-1.537z" fill="#ade194"/></g><g><path d="m250.068 428.989h19.94c-.578 0-1.127.229-1.535.638l-10.937 10.937c-.848.847-2.223.847-3.071 0l-8.435-8.435 2.502-2.502c.409-.409.958-.638 1.536-.638z" fill="#97da7b"/></g><g><path d="m268.473 309.888c.409.409.957.638 1.535.638h-19.94c-.578 0-1.127-.229-1.535-.638l-2.502-2.502 8.435-8.425c.848-.847 2.223-.847 3.071 0z" fill="#97da7b"/></g><g><path d="m326.797 371.293-10.927 10.937c-.409.409-.638.957-.638 1.535v43.05c0 1.206-.977 2.173-2.173 2.173h-19.94c1.196 0 2.173-.967 2.173-2.173v-43.05c0-.578.229-1.126.638-1.535l10.927-10.937c.857-.848.857-2.224 0-3.071l-10.927-10.927c-.409-.409-.638-.967-.638-1.545v-43.05c0-1.197-.977-2.174-2.173-2.174h19.94c1.196 0 2.173.977 2.173 2.174v43.05c0 .578.229 1.136.638 1.545l10.927 10.927c.857.847.857 2.223 0 3.071z" fill="#97da7b"/></g><g><circle cx="256" cy="369.76" fill="#f9f3f1" r="34.181"/></g><g><path d="m290.177 369.762c0 18.873-15.304 34.177-34.177 34.177-9.551 0-18.175-3.918-24.387-10.229 1.386.169 2.792.259 4.217.259 18.873 0 34.177-15.304 34.177-34.177 0-9.322-3.749-17.796-9.8-23.958 16.89 2.074 29.97 16.47 29.97 33.928z" fill="#efe2dd"/></g><g><path d="m408.065 310.665c-4.537-19.565-15.016-37.97-31.006-54.105-8.83-8.91-17.638-15.441-23.988-19.622 18.485-16.295 30.479-31.179 32.351-58.654.311-4.559.341-9.136.094-13.698-.945-17.432-5.962-34.596-14.518-49.811-13.106-23.306-35.524-39.637-55.319-56.856-19.152-16.66-34.28-29.819-45.838-49.938-2.871-4.997-8.045-7.981-13.84-7.981-5.796 0-10.97 2.984-13.84 7.98-20.563 35.795-57.4 55.479-84.91 84.69-2.831 3.007-2.689 7.739.317 10.57 3.005 2.831 7.739 2.69 10.57-.317 5.722-6.076 12.096-11.447 18.847-17.135 24.639-20.761 51.755-42.016 68.143-70.358.068-.118.274-.475.873-.475s.804.357.872.476c12.812 22.301 29.578 36.885 48.991 53.772 13.174 11.459 27.546 22.17 39.308 35.138 17.647 19.457 27.115 46.719 25.329 72.926-1.673 24.538-12.467 36.126-34.99 55.022-1.922 1.612-2.902 4.084-2.619 6.577.284 2.493 1.804 4.68 4.04 5.819.506.258 43.663 22.754 55.682 65.852h-70.159c-.987-4.281-4.821-7.485-9.397-7.485h-40.855l-9.378-9.379c-3.763-3.763-9.885-3.764-13.648 0l-9.38 9.379h-16.191v-31.102l12.062-13.09c2.826 1.348 5.929 2.082 9.153 2.082 5.692 0 11.043-2.216 15.068-6.241l6.56-6.561c8.305-8.249 8.224-21.913.001-30.135-4.025-4.025-9.376-6.241-15.068-6.241s-11.043 2.216-15.07 6.244c-6.305 6.303-12.8 11.89-12.8 21.627 0 2.957.61 5.816 1.749 8.451l-14.632 15.879c-1.272 1.381-1.979 3.19-1.979 5.067v34.021h-9.709c-4.575 0-8.41 3.205-9.397 7.485h-70.167c12.018-43.1 55.184-65.593 55.681-65.847 2.242-1.134 3.765-3.319 4.052-5.815.288-2.496-.697-4.97-2.622-6.585-22.524-18.897-33.319-30.485-34.991-55.022-1.078-15.814 1.848-32.037 8.461-46.916 1.677-3.773-.022-8.193-3.796-9.87-3.772-1.676-8.192.021-9.87 3.796-7.598 17.095-10.958 35.771-9.715 54.006 1.872 27.473 13.865 42.359 32.352 58.654-6.35 4.182-15.158 10.713-23.988 19.622-15.99 16.135-26.469 34.54-31.006 54.105-12.379 1.268-22.067 11.754-22.067 24.462 0 11.806 8.364 21.692 19.476 24.052v145.343c0 4.13 3.347 7.477 7.478 7.477h294.356c4.13 0 7.478-3.348 7.478-7.477v-145.344c11.112-2.361 19.475-12.246 19.475-24.052 0-12.707-9.688-23.194-22.066-24.462zm-167.736-75.525s6.558-6.559 6.561-6.561c2.425-2.425 6.389-2.46 8.878-.062 2.542 2.45 2.59 6.565.107 9.048 0 0-6.561 6.561-6.562 6.561-2.496 2.496-6.51 2.476-8.985-.001-2.433-2.434-2.442-6.543.001-8.985zm-38.913 127.441c1.825-1.823 2.83-4.247 2.83-6.828v-37.748h37.749c2.579 0 5.004-1.005 6.823-2.827l7.182-7.182 7.185 7.185c1.823 1.821 4.245 2.823 6.821 2.823h37.748v37.748c0 2.58 1.005 5.004 2.826 6.824l7.183 7.182-7.179 7.179c-1.825 1.823-2.83 4.247-2.83 6.828v37.748h-37.748c-2.576 0-4.999 1.003-6.825 2.827l-7.181 7.183-7.179-7.179c-1.823-1.825-4.248-2.83-6.827-2.83h-37.749v-37.748c0-2.58-1.005-5.004-2.826-6.824l-7.182-7.182zm-94.957-17.818c-5.313 0-9.636-4.323-9.636-9.636s4.323-9.635 9.636-9.635h82.832v19.271zm48.057 152.282h-38.216v-137.327h38.216zm241.185 0h-38.217v-47.718c0-4.13-3.347-7.477-7.477-7.477s-7.478 3.348-7.478 7.477v47.718h-173.058v-137.327h13.66l-3.217 3.217c-1.823 1.823-2.828 4.247-2.828 6.826 0 2.578 1.005 5.003 2.826 6.824l9.379 9.379v40.855c0 5.321 4.33 9.651 9.65 9.651h40.855l9.379 9.379c1.882 1.882 4.353 2.822 6.824 2.822 2.472 0 4.943-.941 6.825-2.822l9.378-9.379h40.855c5.321 0 9.65-4.329 9.65-9.651v-40.855l9.381-9.381c3.76-3.762 3.76-9.883-.001-13.646l-3.219-3.218h13.659v55.342c0 4.13 3.347 7.477 7.478 7.477 4.13 0 7.477-3.348 7.477-7.477v-55.342h38.217v137.326zm9.841-152.282h-82.833v-19.271h82.833c5.313 0 9.635 4.322 9.635 9.635s-4.323 9.636-9.635 9.636z"/><path d="m256 411.418c22.971 0 41.659-18.688 41.659-41.658s-18.688-41.658-41.659-41.658c-22.97 0-41.658 18.687-41.658 41.658s18.688 41.658 41.658 41.658zm0-68.361c14.724 0 26.704 11.979 26.704 26.703s-11.979 26.703-26.704 26.703-26.703-11.979-26.703-26.703 11.979-26.703 26.703-26.703z"/></g></g></g></svg>