<svg id="Capa_1" enable-background="new 0 0 511.929 511.929" height="512" viewBox="0 0 511.929 511.929" width="512" xmlns="http://www.w3.org/2000/svg"><g><g><path d="m147.475 252.253c-3.096 1.328-6.386 2.063-9.968 2.063-14.143 0-25.608-11.465-25.608-25.608s11.465-25.608 25.608-25.608c3.536 0 6.904.717 9.968 2.012z" fill="#f6a96c"/></g><g><path d="m147.479 205.108v47.145c-3.098 1.329-6.385 2.059-9.973 2.059-2.728 0-5.356-.43-7.824-1.219v-48.773c2.468-.789 5.096-1.219 7.824-1.219 3.538-.001 6.906.718 9.973 2.007z" fill="#ea9b58"/></g><g><path d="m367.358 252.253c3.096 1.328 6.386 2.063 9.968 2.063 14.143 0 25.608-11.465 25.608-25.608s-11.465-25.608-25.608-25.608c-3.536 0-6.904.717-9.968 2.012z" fill="#f6a96c"/></g><g><path d="m402.938 228.71c0 14.139-11.471 25.601-25.611 25.601-3.587 0-6.875-.729-9.973-2.059v-6.365c9.163-3.897 15.598-12.99 15.598-23.582 0-7.554-3.278-14.349-8.494-19.046.939-.11 1.898-.16 2.868-.16 14.141.001 25.612 11.462 25.612 25.611z" fill="#ea9b58"/></g><g><path d="m373.224 477.976c-.093-10.19-1.227-20.359-3.693-30.247-2.439-9.783-6.022-19.184-11.927-27.55-13.365-18.934-33.48-36.272-55.366-45.08-5.71-2.298-9.459-7.82-9.483-13.975l-.15-37.709h-70.38l-.15 37.709c-.024 6.155-3.773 11.677-9.483 13.975-21.886 8.808-42.001 26.146-55.366 45.08-5.904 8.365-9.486 17.765-11.926 27.547-2.465 9.885-3.6 20.051-3.693 30.239-.101 11.121-.186 26.47.121 26.47h231.373c.308 0 .224-15.34.123-26.459z" fill="#f6a96c"/></g><g><path d="m373.1 504.434h-21.024c.06-5.416 0-14.439-.07-21.674-.09-10.192-1.229-20.355-3.687-30.247-2.448-9.782-6.025-19.186-11.931-27.549-13.36-18.936-33.485-36.273-55.369-45.076-5.706-2.298-9.453-7.824-9.483-13.98l-.14-42.488h21.214l.15 37.702c.02 6.155 3.767 11.681 9.483 13.98 21.884 8.803 41.999 26.141 55.359 45.076 5.906 8.364 9.493 17.767 11.931 27.549 2.468 9.892 3.597 20.055 3.687 30.247.1 11.122.19 26.46-.12 26.46z" fill="#ea9b58"/></g><g><path d="m368.626 180.314v54.499c0 61.419-49.791 111.209-111.209 111.209s-111.209-49.791-111.209-111.209v-54.499c0-3.961.202-7.869.618-11.724 5.846-55.903 53.134-99.486 110.592-99.486 30.709 0 58.512 12.448 78.637 32.573 17.527 17.527 29.24 40.889 31.955 66.913.414 3.855.616 7.763.616 11.724z" fill="#f6a96c"/></g><g><path d="m368.624 180.317v54.499c0 61.414-49.793 111.207-111.207 111.207-3.587 0-7.125-.17-10.622-.5 56.428-5.356 100.575-52.88 100.575-110.707v-54.499c0-3.967-.2-7.874-.619-11.721-2.708-26.031-14.419-49.393-31.946-66.92-17.797-17.797-41.589-29.588-68.089-32.066 3.517-.34 7.095-.51 10.702-.51 30.707 0 58.506 12.451 78.631 32.576 17.537 17.527 29.248 40.889 31.956 66.92.419 3.846.619 7.754.619 11.721z" fill="#ea9b58"/></g><g><path d="m368.623 180.356v40.44c-9.673-11.501-34.464-43.897-38.082-77.412 0 0-31.327 19.755-73.125 19.555-41.799.2-73.125-19.555-73.125-19.555-3.617 33.515-28.409 65.911-38.082 77.412v-40.44c0-3.967.2-7.874.62-11.731 5.846-55.898 53.13-99.485 110.587-99.485 30.707 0 58.516 12.451 78.641 32.576 17.527 17.527 29.238 40.89 31.946 66.91.421 3.856.62 7.763.62 11.73z" fill="#7a6d79"/></g><g><path d="m368.62 180.357v40.44c-4.826-5.726-13.4-16.668-21.244-30.327v-10.112c0-3.967-.2-7.874-.62-11.731-2.708-26.021-14.419-49.383-31.946-66.91-17.797-17.797-41.599-29.588-68.099-32.066 3.517-.34 7.095-.51 10.702-.51 30.707 0 58.516 12.451 78.641 32.576 17.527 17.527 29.238 40.889 31.946 66.91.421 3.855.62 7.763.62 11.73z" fill="#685e68"/></g><g><path d="m323.013 73.13c0-9.596-5.852-17.824-14.181-21.313 3.422-8.357 1.742-18.313-5.043-25.098-7.073-7.073-17.591-8.598-26.152-4.58-2.792-8.502-10.789-14.644-20.226-14.644-9.9 0-18.22 6.758-20.603 15.912-8.159-4.794-18.816-3.714-25.818 3.289-6.995 6.995-8.08 17.635-3.306 25.79-9.169 2.372-15.942 10.701-15.942 20.611 0 9.9 6.758 18.22 15.911 20.602-4.794 8.159-3.714 18.816 3.289 25.818 6.68 6.68 16.691 7.981 24.681 3.926 3.193 8.93 11.726 15.321 21.753 15.321 9.596 0 17.824-5.852 21.313-14.181 8.357 3.422 18.313 1.742 25.098-5.043s8.465-16.741 5.043-25.098c8.331-3.489 14.183-11.716 14.183-21.312z" fill="#c8effe"/></g><g><path d="m323.014 73.127c0-9.593-5.856-17.817-14.179-21.314 3.417-8.354 1.739-18.306-5.046-25.091-6.255-6.255-15.199-8.174-23.103-5.756 5.853 2.425 9.105 5.46 11.274 8.713 4.218 6.326 4.994 17.593.157 24.215-.901 1.234-.32 2.965 1.088 3.558 2.412 1.014 4.566 2.613 6.081 4.737 2.611 3.661 3.619 8.719 3.06 13.141-.777 6.152-6.089 10.212-11.548 12.176-.758.273-1.535.556-2.323.796-1.258.383-1.992 1.676-1.639 2.943.746 2.681.944 4.88.142 7.377-1.531 4.765-6.704 9.123-11.695 9.703-1.295.151-2.606.183-3.908.122-1.209-.057-2.567-.441-3.858-.961-1.399-.563-2.927.311-3.226 1.789-1.253 6.199-5.233 12.13-10.079 15.686-5.666 4.157-14.259 5.861-14.573 5.484 4.237 5.086 10.612 8.324 17.737 8.324 9.603 0 17.827-5.855 21.314-14.179 8.364 3.417 18.316 1.739 25.101-5.046s8.464-16.737 5.046-25.101c8.322-3.49 14.177-11.713 14.177-21.316z" fill="#99e6fc"/></g><g><path d="m403.046 379.556c.645-2.58.918-5.306.756-8.122-.777-13.526-11.775-24.558-25.299-25.362-15.656-.931-28.643 11.49-28.643 26.945 0 .473.012.943.036 1.41.23 4.458-2.826 8.366-7.239 9.036-.143.022-.285.044-.428.069-11.938 2.003-21.208 11.974-22.329 24.027-1.495 16.071 11.112 29.58 26.873 29.58 6.292 0 12.078-2.154 16.667-5.764 3.095-2.435 7.458-2.244 10.577.161 4.826 3.721 10.945 5.847 17.57 5.581 13.63-.547 24.897-11.48 25.82-25.089.663-9.781-3.887-18.542-11.148-23.783-2.758-1.991-4.037-5.392-3.213-8.689z" fill="#c8effe"/></g><g><path d="m417.404 412.023c-.919 13.61-12.191 24.541-25.821 25.091-1.049.04-2.078.03-3.088-.06 4.557-4.487 7.544-10.562 7.994-17.287.67-9.783-3.887-18.536-11.142-23.783-2.758-1.988-4.037-5.386-3.218-8.683.649-2.588.919-5.306.759-8.124-.769-13.44-11.621-24.412-25.031-25.341 5.236-5.186 12.581-8.244 20.645-7.764 13.52.799 24.522 11.831 25.301 25.361.16 2.818-.11 5.546-.759 8.124-.819 3.298.46 6.695 3.208 8.683 7.265 5.247 11.811 14.001 11.152 23.783z" fill="#99e6fc"/></g><g><circle cx="86.754" cy="314.408" fill="#c8effe" r="29.006"/></g><g><path d="m115.759 314.406c0 16.018-12.99 29.008-29.008 29.008-9.493 0-17.927-4.567-23.213-11.611 1.569.26 3.178.4 4.816.4 16.028 0 29.008-12.98 29.008-29.008 0-6.525-2.158-12.551-5.806-17.397 13.731 2.288 24.203 14.229 24.203 28.608z" fill="#99e6fc"/></g><g><circle cx="132.627" cy="370.359" fill="#c8effe" r="17.177"/></g><g><path d="m149.804 370.354c0 9.493-7.694 17.177-17.177 17.177-6.855 0-12.78-4.017-15.538-9.832.5.05 1.009.07 1.529.07 9.483 0 17.177-7.694 17.177-17.177 0-2.628-.59-5.116-1.639-7.344 8.763.769 15.648 8.133 15.648 17.106z" fill="#99e6fc"/></g><g><circle cx="435.825" cy="175.884" fill="#c8effe" r="18.356"/></g><g><path d="m454.186 175.88c0 10.142-8.224 18.356-18.366 18.356-5.846 0-11.062-2.738-14.419-7.005 10.092-.06 18.246-8.254 18.246-18.356 0-4.287-1.469-8.234-3.937-11.352h.11c10.143.001 18.366 8.224 18.366 18.357z" fill="#99e6fc"/></g><g><path d="m275.638 275.371c-3.158-2.676-7.887-2.286-10.563.871-1.913 2.257-4.705 3.551-7.659 3.551s-5.746-1.294-7.659-3.552c-2.676-3.158-7.405-3.548-10.562-.871-3.158 2.676-3.548 7.405-.871 10.562 4.766 5.624 11.726 8.849 19.093 8.849s14.326-3.225 19.093-8.848c2.676-3.156 2.286-7.885-.872-10.562z"/><path d="m209.535 223.999c-4.139 0-7.494 3.355-7.494 7.494v13.92c0 4.139 3.355 7.494 7.494 7.494s7.494-3.355 7.494-7.494v-13.92c0-4.139-3.356-7.494-7.494-7.494z"/><path d="m305.298 223.999c-4.139 0-7.494 3.355-7.494 7.494v13.92c0 4.139 3.355 7.494 7.494 7.494s7.494-3.355 7.494-7.494v-13.92c.001-4.139-3.355-7.494-7.494-7.494z"/><path d="m211.372 189.669c-8.383 3.096-16.133 8.093-22.412 14.453-2.908 2.946-2.878 7.691.067 10.599 1.46 1.442 3.363 2.161 5.265 2.161 1.934 0 3.867-.744 5.333-2.229 4.745-4.806 10.603-8.583 16.939-10.923 3.883-1.433 5.868-5.744 4.434-9.627-1.433-3.882-5.74-5.866-9.626-4.434z"/><path d="m303.461 189.669c-3.884-1.434-8.193.551-9.627 4.434s.551 8.193 4.434 9.627c6.336 2.34 12.193 6.117 16.939 10.923 1.466 1.485 3.399 2.229 5.333 2.229 1.901 0 3.805-.72 5.265-2.161 2.945-2.908 2.975-7.653.067-10.599-6.278-6.359-14.027-11.357-22.411-14.453z"/><path d="m410.642 382.166c-.166-.12-.429-.382-.326-.794.843-3.374 1.169-6.862.968-10.368-1.002-17.443-14.903-31.377-32.336-32.414-9.617-.572-18.757 2.738-25.743 9.322-7.305 6.884-11.312 16.887-10.794 26.9.028.547-.233 1.143-.868 1.239-4.643.742-9.104 2.354-13.101 4.86-7.528-5.207-15.408-9.546-23.405-12.764-2.895-1.166-4.774-3.934-4.786-7.052l-.062-15.554c36.292-14.067 63.994-45.487 72.89-84.022 1.403.187 2.819.292 4.247.292 18.253 0 33.103-14.85 33.103-33.103s-14.85-33.103-33.103-33.103c-.405 0-.805.029-1.207.044l-.001-15.292c0-4.275-.223-8.495-.66-12.507-1.326-12.746-4.693-25.111-10.006-36.751-1.719-3.767-6.166-5.425-9.93-3.706-3.765 1.718-5.425 6.164-3.706 9.93 4.637 10.159 7.575 20.952 8.737 32.113 1 9.61.576 19.389.576 29.039-18.677-27.739-22.408-49.142-23.137-55.895-.277-2.567-1.861-4.807-4.183-5.935-2.322-1.126-5.067-.976-7.255.394-39.796 24.911-98.311 25.197-138.266.006-2.187-1.379-4.93-1.533-7.26-.408-2.328 1.126-3.912 3.372-4.189 5.943-.729 6.752-4.46 28.156-23.136 55.895v-18.118c0-3.739.194-7.413.579-10.952 2.648-25.328 14.552-48.742 33.518-65.931 2.733-2.477 5.592-4.774 8.545-6.922.551.392 1.113.77 1.694 1.124-2.328 9.566.372 19.908 7.604 27.14 7.013 7.013 16.917 9.801 26.279 7.816 5.59 8.363 15.099 13.627 25.455 13.627 10.078 0 19.301-4.895 24.956-12.881 9.645 1.648 19.629-1.413 26.754-8.539 7.126-7.126 10.186-17.109 8.539-26.754.508-.359 1.002-.734 1.484-1.122 4.086 3.036 7.982 6.386 11.648 10.052 1.15 1.15 2.291 2.346 3.392 3.555 2.786 3.061 7.527 3.283 10.587.498 3.061-2.786 3.284-7.526.498-10.587-1.259-1.383-2.565-2.751-3.879-4.066-4.168-4.168-8.594-7.982-13.237-11.438 1.542-3.678 2.388-7.688 2.388-11.849 0-10.077-4.896-19.3-12.88-24.955 1.648-9.646-1.412-19.628-8.539-26.755-7.3-7.3-17.722-10.309-27.569-8.377-5.218-8.012-14.196-13.041-24.107-13.041-10.232 0-19.458 5.395-24.58 13.791-9.564-2.328-19.908.372-27.14 7.604-7.218 7.218-9.922 17.542-7.614 27.096-8.419 5.117-13.829 14.353-13.829 24.605 0 4.194.919 8.212 2.567 11.854-3.129 2.317-6.168 4.777-9.08 7.416-21.704 19.67-35.328 46.475-38.357 75.446-.953 9.118-.664 18.344-.666 27.499v.327c-.401-.015-.802-.035-1.206-.035-18.253 0-33.103 14.85-33.103 33.103s14.85 33.103 33.103 33.103c1.428 0 2.844-.102 4.248-.289 8.896 38.533 36.598 69.952 72.889 84.019l-.062 15.554c-.012 3.119-1.891 5.887-4.787 7.052-17.918 7.211-35.621 20.164-49.847 36.473-2.721 3.119-2.398 7.853.721 10.574 3.118 2.72 7.852 2.399 10.574-.721 12.702-14.561 28.381-26.075 44.148-32.421 8.577-3.452 14.143-11.655 14.179-20.897l.043-10.933c8.922 2.149 18.23 3.296 27.802 3.296s18.88-1.147 27.802-3.296l.043 10.933c.037 9.243 5.602 17.445 14.179 20.897 6.108 2.458 12.225 5.743 18.16 9.664-2.825 4.47-4.65 9.625-5.164 15.148-.902 9.691 2.32 19.352 8.839 26.505 6.523 7.159 15.817 11.264 25.497 11.264 4.642 0 9.125-.908 13.286-2.651.796 2.378 1.532 4.88 2.2 7.56 2.211 8.869 3.379 18.458 3.471 28.503.084 9.251.1 15.145.088 18.896h-30.379v-30.064c0-4.139-3.355-7.494-7.494-7.494s-7.494 3.355-7.494 7.494v30.064h-126.062v-30.064c0-4.139-3.355-7.494-7.494-7.494s-7.494 3.355-7.494 7.494v30.064h-30.385c-.011-3.755.006-9.651.09-18.907.092-10.041 1.26-19.628 3.472-28.495.701-2.811 1.447-5.379 2.281-7.853 1.323-3.922-.784-8.174-4.706-9.497-3.923-1.324-8.174.783-9.497 4.706-.952 2.821-1.834 5.855-2.622 9.018-2.496 10.007-3.814 20.768-3.916 31.985-.266 29.237-.266 29.237 2.282 31.809 1.408 1.42 3.333 2.223 5.332 2.223h231.373c2 0 3.925-.804 5.332-2.224 2.549-2.572 2.549-2.572 2.282-31.798-.102-11.219-1.419-21.983-3.915-31.992-.402-1.614-.837-3.174-1.288-4.709 5.058 2.43 10.681 3.616 16.37 3.398 17.33-.696 31.824-14.782 32.997-32.071.814-11.991-4.509-23.343-14.239-30.366zm-34.522-147.353-.001-24.179c.4-.026.802-.04 1.206-.04 9.988 0 18.114 8.126 18.114 18.114s-8.126 18.114-18.114 18.114c-.616 0-1.22-.041-1.82-.102.393-3.92.615-7.887.615-11.907zm-166.558-175.073c4.718-1.221 7.078-6.794 4.59-11.042-3.167-5.409-2.288-12.278 2.138-16.704 4.433-4.432 11.308-5.308 16.722-2.127 4.224 2.482 9.814.174 11.049-4.574 1.579-6.067 7.069-10.305 13.35-10.305 5.975 0 11.241 3.813 13.105 9.488 1.365 4.155 6.356 6.301 10.304 4.447 5.933-2.785 13.033-1.541 17.668 3.094 4.462 4.461 5.799 11.118 3.407 16.959-1.56 3.809.243 8.162 4.039 9.752 5.821 2.439 9.582 8.091 9.582 14.4s-3.761 11.962-9.582 14.401c-3.796 1.59-5.599 5.944-4.039 9.752 2.392 5.84 1.054 12.497-3.408 16.958-4.461 4.461-11.117 5.799-16.958 3.407-3.811-1.559-8.162.243-9.752 4.039-2.439 5.821-8.092 9.583-14.401 9.583-6.577 0-12.482-4.159-14.697-10.351-1.533-4.286-6.559-6.134-10.448-4.16-5.337 2.708-11.762 1.686-15.991-2.542-4.433-4.433-5.307-11.309-2.127-16.723 1.19-2.026 1.362-4.492.463-6.663s-2.763-3.794-5.037-4.386c-6.067-1.579-10.305-7.068-10.305-13.349.004-6.289 4.249-11.781 10.328-13.354zm-72.055 187.081c-9.988 0-18.114-8.126-18.114-18.114s8.126-18.114 18.114-18.114c.404 0 .806.014 1.206.04v24.179c0 4.02.223 7.988.615 11.906-.6.062-1.205.103-1.821.103zm119.91 91.707c-57.189 0-103.715-46.526-103.715-103.715v-11.313c10.243-12.521 29.625-39.178 36.244-68.593 12.88 6.19 37.52 15.632 67.435 15.526 29.996.141 54.622-9.337 67.506-15.527 6.619 29.415 26.002 56.073 36.245 68.594v11.312c0 57.189-46.527 103.716-103.715 103.716zm152.511 72.991c-.662 9.761-8.851 17.715-18.643 18.108-4.646.196-9.035-1.206-12.692-4.027-2.991-2.306-6.544-3.462-10.066-3.462-3.041 0-6.032.882-8.587 2.531-4.232 2.73-8.096 4.974-13.168 4.974-22.979 0-26.53-35.012-3.308-38.72 7.805-1.246 13.823-7.708 13.937-15.781.088-6.255 1.329-11.842 6.083-16.321 3.949-3.722 9.132-5.592 14.574-5.268 9.684.576 17.705 8.619 18.262 18.31.115 1.994-.069 3.971-.545 5.875-1.567 6.27.826 12.779 6.096 16.582 5.505 3.974 8.517 10.404 8.057 17.199z"/><path d="m123.254 314.408c0-20.126-16.374-36.5-36.5-36.5-20.127 0-36.501 16.374-36.501 36.5s16.374 36.5 36.501 36.5c20.126 0 36.5-16.374 36.5-36.5zm-36.5 21.511c-11.862 0-21.512-9.65-21.512-21.511s9.65-21.511 21.512-21.511c11.861 0 21.511 9.65 21.511 21.511s-9.65 21.511-21.511 21.511z"/><path d="m157.299 370.359c0-13.604-11.067-24.672-24.672-24.672s-24.672 11.067-24.672 24.672c0 13.604 11.068 24.672 24.672 24.672s24.672-11.068 24.672-24.672zm-24.672 9.683c-5.339 0-9.683-4.343-9.683-9.683 0-5.339 4.344-9.683 9.683-9.683s9.683 4.343 9.683 9.683-4.344 9.683-9.683 9.683z"/><path d="m435.825 150.033c-14.254 0-25.851 11.597-25.851 25.851s11.597 25.851 25.851 25.851 25.851-11.597 25.851-25.851-11.597-25.851-25.851-25.851zm0 36.713c-5.989 0-10.862-4.873-10.862-10.862s4.873-10.862 10.862-10.862 10.862 4.873 10.862 10.862-4.873 10.862-10.862 10.862z"/></g></g></svg>