<svg id="Capa_1" enable-background="new 0 0 512 512" height="512" viewBox="0 0 512 512" width="512" xmlns="http://www.w3.org/2000/svg"><g><g><path d="m438.814 383.07c-8.146-9.654-12.829-21.755-12.845-34.392-.004-2.968-2.357-5.392-5.325-5.392h-22.382v5.325c0 12.668 4.567 24.912 12.864 34.485s12.864 21.817 12.864 34.485v75.421h27.707v-75.575c0-12.634-4.736-24.702-12.883-34.357z" fill="#c57a44"/><path d="m208.323 390.764c-10.55-11.391-16.874-26.049-16.874-41.575v-.579c0-2.895-2.369-5.33-5.264-5.325-10.286.016-19.608-4.103-26.401-10.785v16.111c0 12.668 4.567 24.912 12.864 34.485s12.864 21.817 12.864 34.485v75.421h31.665v-75.422c0-10.451-3.108-20.612-8.854-26.816z" fill="#d88a55"/><path d="m443.331 200.693c-13.254.059-23.944-10.875-23.944-24.13v-.985c0-17.586-14.256-31.842-31.842-31.842h-.824c-18.291 0-32.988 14.697-32.988 32.827v94.715h-82.131v-94.715c0-18.13-14.697-32.827-32.827-32.827-18.13 0-32.827 14.697-32.827 32.827 0 13.327-10.803 24.13-24.13 24.13h-33.261c-15.659 0-28.353-12.694-28.353-28.353v-66.976c12.341-7.829 20.379-21.832 19.757-37.667-.151-3.844-.832-7.562-1.955-11.091-4.526 1.649-9.351 2.241-14.091 1.758-2.365-.241-4.241-2.118-4.482-4.482-.638-6.263.586-12.679 3.671-18.351-6.503-4.949-14.453-8.082-23.083-8.591-15.367-.906-29.088 6.355-37.26 17.84h-28.504c-14.778-.002-26.757 11.978-26.757 26.755s11.979 26.757 26.757 26.757l7.219.001c16.223.065 29.25 13.452 29.25 29.676v75.031c0 35.777 24.14 65.916 57.02 75.017 12.491 3.457 20.716 15.024 20.812 27.984.153 20.638 16.946 37.317 37.628 37.284 2.895-.005 5.264 2.43 5.264 5.325v.579c0 15.526 6.324 30.183 16.874 41.575 5.746 6.204 8.854 16.366 8.854 26.816v75.422h32.655v-134.874c0-8.198 6.645-14.843 14.843-14.843h155.969c2.968 0 5.321 2.424 5.325 5.392.016 12.637 4.699 24.738 12.845 34.392 8.147 9.655 12.882 21.724 12.882 34.356v75.575h32.655v-251.472c-.001-22.614-18.383-40.935-41.021-40.835z" fill="#d88a55"/><g><g><path d="m233.826 493.001v-89.421c0-10.45-3.108-20.612-8.854-26.816-10.55-11.391-16.874-26.049-16.874-41.575v-.579c0-2.895-2.369-5.33-5.264-5.325-20.682.033-37.476-16.646-37.628-37.284-.096-12.96-8.321-24.527-20.812-27.984-32.88-9.101-57.02-39.24-57.02-75.017v-75.031c0-16.223-13.027-29.611-29.25-29.676l-7.219-.001c-14.777 0-26.757-11.979-26.757-26.757 0-4.199.97-8.171 2.694-11.708-11.169 3.216-19.342 13.505-19.342 25.708 0 14.777 11.979 26.757 26.757 26.757l7.219.001c16.223.065 29.25 13.452 29.25 29.676v75.031c0 35.777 24.14 65.916 57.02 75.017 12.491 3.457 20.716 15.024 20.812 27.984.153 20.638 16.946 37.317 37.628 37.284 2.895-.005 5.264 2.43 5.264 5.325v.579c0 15.526 6.324 30.183 16.874 41.575 5.746 6.204 8.854 16.366 8.854 26.816v75.422h16.648z" fill="#c57a44"/></g></g></g><g><path d="m128.536 28.269c-7.004 7.004-10.035 16.471-9.104 25.612.241 2.365 2.118 4.241 4.482 4.482 9.141.931 18.609-2.1 25.613-9.104s10.035-16.471 9.104-25.613c-.241-2.365-2.118-4.241-4.482-4.482-9.142-.93-18.609 2.101-25.613 9.105z" fill="#c57a44"/></g><g><path d="m271.602 186.658h82.131v84.619h-82.131z" fill="#4fc123"/></g><path d="m271.602 186.658h18.398v84.619h-18.398z" fill="#47a920"/><g><path d="m299.334 240.001v-53.343h26.666v53.343c0 1.657-1.343 3-3 3h-20.666c-1.657 0-3-1.343-3-3z" fill="#fff"/></g><g><path d="m88.538 52.017c-4.142 0-7.5 3.358-7.5 7.5v9.896c0 4.142 3.358 7.5 7.5 7.5s7.5-3.358 7.5-7.5v-9.896c0-4.142-3.358-7.5-7.5-7.5z"/><path d="m504.5 485.501h-12.648v-178.5c0-4.142-3.358-7.5-7.5-7.5s-7.5 3.358-7.5 7.5v178.5h-17.655v-67.921c0-14.326-5.127-28.211-14.438-39.097-7.28-8.513-11.29-19.122-11.29-29.873 0-7.072-5.753-12.825-12.825-12.825h-49.644c-4.142 0-7.5 3.358-7.5 7.5s3.358 7.5 7.5 7.5h19.811c.496 13.692 5.646 26.836 14.647 37.221 7.114 8.209 11.032 18.711 11.032 29.573v67.921h-159.158v-127.372c0-4.049 3.294-7.343 7.343-7.343h71.325c4.142 0 7.5-3.358 7.5-7.5s-3.358-7.5-7.5-7.5h-71.325c-12.32 0-22.343 10.023-22.343 22.343v127.373h-17.654v-67.921c0-12.834-3.955-24.466-10.851-31.912-9.594-10.359-14.877-23.314-14.877-36.479v-.579c0-7.062-5.772-12.815-12.866-12.825-16.557-.022-30.027-13.511-30.027-30.068 0-14.802-9.094-28.077-22.563-33.617v-67.237c4.583 2.131 9.685 3.329 15.063 3.329h33.261c17.441 0 31.63-14.189 31.63-31.63 0-13.965 11.362-25.327 25.327-25.327s25.327 11.361 25.327 25.327v121.23c0 4.142 3.358 7.5 7.5 7.5s7.5-3.358 7.5-7.5v-19.016h11.898v19.016c0 4.142 3.358 7.5 7.5 7.5s7.5-3.358 7.5-7.5v-19.016h12v19.016c0 4.142 3.358 7.5 7.5 7.5s7.5-3.358 7.5-7.5v-19.016h13.233v19.016c0 4.142 3.358 7.5 7.5 7.5s7.5-3.358 7.5-7.5v-121.23c0-13.965 11.434-25.327 25.488-25.327h.824c13.423 0 24.343 10.92 24.343 24.342v.985c0 17.44 14.189 31.629 31.629 31.629 18.381 0 33.335 14.954 33.335 33.334v30.474c0 4.142 3.358 7.5 7.5 7.5s7.5-3.358 7.5-7.5v-30.474c0-26.652-21.683-48.334-48.335-48.334-9.169 0-16.629-7.46-16.629-16.629v-.985c0-21.693-17.649-39.342-39.343-39.342h-.824c-22.325 0-40.488 18.09-40.488 40.327v2.596h-67.131v-2.596c0-22.236-18.091-40.327-40.327-40.327s-40.327 18.091-40.327 40.327c0 9.17-7.46 16.63-16.63 16.63h-33.261c-5.922 0-11.263-2.494-15.063-6.472v-4.009c0-3.458-2.344-6.362-5.527-7.229-.157-1.028-.263-2.072-.263-3.144v-63.066c12.908-9.828 20.395-25.506 19.751-41.873-.088-2.245-.34-4.453-.727-6.619 2.924-1.693 5.652-3.768 8.103-6.219 8.356-8.356 12.461-19.901 11.262-31.677-.6-5.88-5.303-10.583-11.184-11.183-11.775-1.2-23.319 2.906-31.676 11.262-.773.773-1.497 1.582-2.197 2.407-6.214-3.381-13.191-5.486-20.574-5.921-16.03-.954-31.213 5.665-41.379 17.827h-24.826c-18.889.003-34.257 15.37-34.257 34.259 0 16.313 11.465 29.989 26.757 33.42v199.811c0 29.427 23.941 53.368 53.368 53.368s53.368-23.941 53.368-53.368v-15.304c4.669 3.974 7.563 9.868 7.563 16.255 0 11.374 4.244 21.779 11.228 29.72v13.173c0 14.47 5.219 28.461 14.696 39.396 7.114 8.208 11.032 18.711 11.032 29.573v15.421c0 4.142 3.358 7.5 7.5 7.5s7.5-3.358 7.5-7.5v-15.42c0-14.47-5.219-28.462-14.697-39.397-7.114-8.208-11.031-18.71-11.031-29.572v-1.96c5.119 2.367 10.753 3.803 16.684 4.084.394 16.415 7.053 32.384 18.853 45.125 4.229 4.566 6.856 12.889 6.856 21.72v67.921h-16.665v-17.5c0-4.142-3.358-7.5-7.5-7.5s-7.5 3.358-7.5 7.5v17.5h-32.012c-4.142 0-7.5 3.358-7.5 7.5s3.358 7.5 7.5 7.5h358.5c4.142 0 7.5-3.358 7.5-7.5s-3.358-7.5-7.5-7.5zm-197.666-291.343h11.666v41.343h-11.666zm-27.732 0h12.733v45.843c0 5.79 4.71 10.5 10.5 10.5h20.665c5.79 0 10.5-4.71 10.5-10.5v-45.843h12.733v69.619h-67.131zm-145.263-160.586c4.659-4.658 10.945-7.159 17.454-7.069.105 6.529-2.411 12.795-7.069 17.454-4.658 4.658-10.933 7.169-17.454 7.069-.105-6.529 2.411-12.796 7.069-17.454zm-99.582 57.22c-10.618 0-19.257-8.638-19.257-19.257s8.639-19.257 19.257-19.257h11.158v38.745c-1.294-.145-2.607-.226-3.938-.231zm84.236 213.974c0 21.156-17.212 38.368-38.368 38.368s-38.368-17.212-38.368-38.368v-198.964c11.866.218 21.469 10.093 21.469 22.167v75.031c0 35.632 22.39 67.491 55.267 79.876zm0-112.926v74.756c-24.184-11.466-40.267-36.175-40.267-63.596v-75.031c0-13.444-7.144-25.264-17.812-31.795v-43.895h2.346c2.427 0 4.704-1.174 6.111-3.152 7.06-9.923 18.534-15.419 30.707-14.701 5.066.299 9.859 1.721 14.144 4.006-1.688 5.146-2.318 10.65-1.752 16.209.599 5.882 5.302 10.585 11.184 11.184 1.347.137 2.69.205 4.027.205 1.719 0 3.424-.123 5.109-.344.082.762.145 1.529.175 2.304.49 12.465-5.749 24.359-16.281 31.041-2.168 1.375-3.482 3.765-3.482 6.333v66.976c.001 7.188 2.135 13.883 5.791 19.5zm325.704 293.661h-12.707v-67.921c0-14.47-5.219-28.461-14.696-39.397-6.638-7.659-10.49-17.315-10.976-27.397h12.692c.506 13.567 5.734 26.788 14.85 37.446 6.989 8.172 10.838 18.595 10.838 29.348v67.921z"/><path d="m239.465 221.001c0-4.142-3.358-7.5-7.5-7.5h-11.032c-4.142 0-7.5 3.358-7.5 7.5s3.358 7.5 7.5 7.5h11.032c4.142 0 7.5-3.358 7.5-7.5z"/><path d="m222.549 259.196c0-4.142-3.358-7.5-7.5-7.5h-11.032c-4.142 0-7.5 3.358-7.5 7.5s3.358 7.5 7.5 7.5h11.032c4.142 0 7.5-3.358 7.5-7.5z"/><path d="m214.313 312.282h11.032c4.142 0 7.5-3.358 7.5-7.5s-3.358-7.5-7.5-7.5h-11.032c-4.142 0-7.5 3.358-7.5 7.5s3.358 7.5 7.5 7.5z"/><path d="m420.5 221.001c0-4.142-3.358-7.5-7.5-7.5h-11.032c-4.142 0-7.5 3.358-7.5 7.5s3.358 7.5 7.5 7.5h11.032c4.142 0 7.5-3.358 7.5-7.5z"/><path d="m403.584 257.572c0-4.142-3.358-7.5-7.5-7.5h-11.032c-4.142 0-7.5 3.358-7.5 7.5s3.358 7.5 7.5 7.5h11.032c4.142 0 7.5-3.358 7.5-7.5z"/><path d="m395.349 308.72h11.032c4.142 0 7.5-3.358 7.5-7.5s-3.358-7.5-7.5-7.5h-11.032c-4.142 0-7.5 3.358-7.5 7.5s3.358 7.5 7.5 7.5z"/></g></g></svg>