<svg id="Capa_1" enable-background="new 0 0 512 512" height="512" viewBox="0 0 512 512" width="512" xmlns="http://www.w3.org/2000/svg"><g><g><path d="m240.678 99.295v-88.367c0-1.903-1.543-3.446-3.446-3.446h-109.25c-1.903 0-3.446 1.543-3.446 3.446v88.367c0 12.188-3.15 24.169-9.145 34.78l-22.473 39.778c-9.99 17.682-15.239 37.646-15.239 57.955v236.364c0 20.072 16.272 36.344 36.344 36.344h137.167c20.072 0 36.344-16.272 36.344-36.344v-236.363c0-20.309-5.249-40.273-15.239-57.955l-22.473-39.778c-5.994-10.612-9.144-22.593-9.144-34.781z" fill="#c8effe"/></g><g><path d="m287.535 231.807v236.365c0 20.073-16.272 36.345-36.345 36.345h-19.953c20.073 0 36.345-16.272 36.345-36.345v-236.365c0-20.302-5.248-40.276-15.244-57.954l-22.467-39.777c-5.996-10.615-9.149-22.597-9.149-34.779v-88.372c0-1.896-1.536-3.442-3.442-3.442h19.953c1.906 0 3.442 1.546 3.442 3.442v88.373c0 12.182 3.153 24.163 9.149 34.779l22.477 39.777c9.986 17.677 15.234 37.65 15.234 57.953z" fill="#99e6fc"/></g><g><path d="m287.533 237.829v230.341c0 20.074-16.273 36.347-36.347 36.347h-137.168c-20.069 0-36.337-16.269-36.337-36.337v-230.35h209.852z" fill="#f9f3f1"/></g><g><path d="m287.535 237.833v230.339c0 20.073-16.272 36.345-36.345 36.345h-19.953c20.073 0 36.345-16.272 36.345-36.345v-230.339z" fill="#efe2dd"/></g><g><path d="m77.681 290.813h209.853v160.72h-209.853z" fill="#ade194"/></g><g><path d="m267.58 290.813h19.953v160.72h-19.953z" fill="#97da7b"/></g><g><circle cx="182.607" cy="219.969" fill="#fee97d" r="40.028"/></g><g><path d="m222.637 219.965c0 22.108-17.928 40.036-40.026 40.036-10.485 0-20.023-4.031-27.166-10.625 2.334.429 4.749.648 7.213.648 22.098 0 40.026-17.928 40.026-40.036 0-11.613-4.958-22.078-12.86-29.391 18.656 3.392 32.813 19.734 32.813 39.368z" fill="#fedf30"/></g><g><path d="m414.236 318.608c-.569-1.785-2.225-2.992-4.098-2.992h-127.182c-1.873 0-3.528 1.208-4.098 2.992-4.778 14.975-25.245 82.809-18.859 127.101 0 0 6.674 51.892 50.668 58.808h35.88 35.88c43.994-6.916 50.668-58.808 50.668-58.808 6.385-44.293-14.081-112.126-18.859-127.101z" fill="#c8effe"/></g><g><path d="m433.093 445.705s-6.674 51.898-50.661 58.812h-19.953c43.987-6.914 50.661-58.812 50.661-58.812 6.385-44.286-14.077-112.127-18.856-127.102-.569-1.776-2.225-2.983-4.1-2.983h19.953c1.876 0 3.532 1.207 4.1 2.983 4.779 14.975 25.241 82.816 18.856 127.102z" fill="#99e6fc"/></g><g><path d="m408.141 438.229s-4.747 36.935-36.058 41.855h-51.072c-31.311-4.92-36.058-41.855-36.058-41.855-2.073-14.39-.168-32.275 2.844-48.476.479-2.577 2.731-4.441 5.352-4.441h106.795c2.621 0 4.873 1.864 5.352 4.441 3.013 16.201 4.918 34.086 2.845 48.476z" fill="#f9f3f1"/></g><g><path d="m408.142 438.232s-4.749 36.933-36.055 41.852h-20.592c31.307-4.919 36.055-41.852 36.055-41.852 2.075-14.396.17-32.274-2.843-48.476-.479-2.584-2.734-4.44-5.347-4.44h20.582c2.624 0 4.879 1.856 5.357 4.44 3.012 16.202 4.918 34.08 2.843 48.476z" fill="#efe2dd"/></g><g><g><g><path d="m235.405 396.288c-9.312 17.986-28.092 30.274-49.745 30.277-30.69.004-55.49-24.375-55.986-55.061-.441-27.324 18.697-50.256 44.301-55.691 1.278-.271 2.002 1.429.923 2.166-12.784 8.727-21.173 23.416-21.153 40.069.03 26.382 21.495 48.064 47.875 48.347 12.189.131 23.356-4.244 31.933-11.562.999-.855 2.456.287 1.852 1.455z" fill="#fee97d"/></g></g><g><g><path d="m235.403 396.285c-2.305 4.447-5.18 8.543-8.543 12.191-8.952 5.953-19.728 9.374-31.309 9.244-30.27-.325-54.906-25.207-54.938-55.483-.02-15.82 6.576-30.095 17.17-40.222 4.966-2.863 10.412-4.979 16.19-6.206 1.279-.266 2.006 1.435.922 2.168-12.782 8.725-21.169 23.415-21.149 40.066.026 26.382 21.493 48.07 47.875 48.349 12.185.13 23.357-4.246 31.932-11.561.999-.85 2.453.286 1.85 1.454z" fill="#fedf30"/></g></g><g><path d="m434.816 367.87c-4.917-23.874-11.046-43.994-13.452-51.537-1.565-4.905-6.077-8.2-11.226-8.2h-115.121v-76.324c0-21.555-5.604-42.869-16.207-61.636l-22.472-39.778c-5.36-9.489-8.177-20.202-8.177-31.1v-88.367c-.001-6.035-4.894-10.928-10.929-10.928h-109.25c-6.036 0-10.928 4.893-10.928 10.928v88.367c0 10.876-2.828 21.63-8.177 31.1l-22.473 39.778c-10.603 18.767-16.207 40.08-16.207 61.635v240.133c0 7.906 2.464 15.668 7.279 21.938 7.554 9.836 19.347 16.598 32.071 17.894 1.472.15 2.966.227 4.477.227h137.166c11.758 0 22.418-4.645 30.288-12.182 8.11 6.338 17.525 10.44 28.027 12.091.384.06 73.7.06 74.085 0 19.174-3.015 34.875-14.24 45.404-32.46 2.068-3.578.843-8.155-2.735-10.222-3.578-2.069-8.154-.843-10.222 2.735-8.203 14.195-19.713 22.628-34.214 25.073h-70.552c-15.367-2.59-27.34-11.866-35.596-27.58-6.582-12.529-8.241-24.595-8.255-24.7-.005-.038-.01-.076-.016-.114-5.9-40.925 12.51-104.296 17.884-121.543h122.517c5.197 16.684 22.877 77.478 18.276 118.479-.461 4.107 2.495 7.809 6.601 8.27 4.107.463 7.809-2.495 8.27-6.601 2.198-19.581.133-44.941-6.136-75.376zm-335.383-190.336 22.473-39.778c6.615-11.711 10.113-25.01 10.113-38.461v-84.33h101.177v84.33c0 13.45 3.497 26.75 10.113 38.461l22.473 39.778c9.097 16.101 14.001 34.331 14.248 52.813h-51.066c.748-3.343 1.155-6.813 1.155-10.378 0-26.197-21.313-47.51-47.511-47.51s-47.511 21.313-47.511 47.51c0 3.565.407 7.035 1.155 10.378h-51.067c.247-18.482 5.151-36.712 14.248-52.813zm115.72 42.435c0 17.946-14.6 32.546-32.546 32.546s-32.546-14.6-32.546-32.546 14.6-32.545 32.546-32.545 32.546 14.6 32.546 32.545zm55.678 269.314c-5.156 4.803-12.059 7.752-19.645 7.752h-137.168c-.993 0-1.974-.05-2.942-.149-12.112-1.234-22.033-9.989-25.004-21.507-.593-2.302-.909-4.714-.909-7.199v-9.164h170.229c1.47 4.916 3.64 10.847 6.799 16.945 2.544 4.911 5.437 9.351 8.64 13.322zm9.22-205.953h-136.35c-4.132 0-7.482 3.35-7.482 7.482s3.35 7.482 7.482 7.482h136.35v10.2c-3.881.979-7.059 3.884-8.32 7.838-2.501 7.84-8.856 28.733-13.822 53.351-6.069 30.085-7.964 55.074-5.661 74.366h-167.085v-145.754h24.463c4.132 0 7.482-3.35 7.482-7.482s-3.35-7.482-7.482-7.482h-24.463v-38.019h57.286c8.428 13.308 23.273 22.168 40.157 22.168s31.729-8.86 40.157-22.168h57.287v38.018z"/><path d="m399.945 377.83h-106.795c-6.226 0-11.57 4.439-12.708 10.555-3.821 20.549-4.796 37.667-2.899 50.877.144 1.059 1.605 10.968 7.054 21.491 7.813 15.086 20.003 24.327 35.253 26.723.384.06.773.091 1.161.091h51.072c.389 0 .777-.03 1.161-.091 15.25-2.396 27.44-11.637 35.253-26.723 5.453-10.53 6.911-20.445 7.054-21.493 1.897-13.21.922-30.326-2.899-50.876-1.137-6.115-6.481-10.554-12.707-10.554zm.79 59.331c-.005.038-.011.076-.016.114-.04.311-4.264 30.968-29.25 35.326h-49.844c-24.799-4.319-29.082-34.074-29.25-35.326-.005-.038-.01-.076-.016-.113-1.621-11.251-.783-26.172 2.489-44.367h103.399c3.272 18.196 4.109 33.116 2.488 44.366z"/><path d="m141.098 415.878c11.916 11.717 27.738 18.169 44.556 18.169h.007c23.823-.003 45.43-13.154 56.389-34.319 1.902-3.674.93-8.209-2.311-10.782-3.248-2.578-7.893-2.496-11.043.194-7.509 6.407-17.094 9.894-26.995 9.772-22.291-.239-40.448-18.575-40.473-40.874-.016-13.558 6.672-26.223 17.888-33.879 3.414-2.329 4.711-6.78 3.085-10.584-1.625-3.802-5.736-5.938-9.778-5.081-29.594 6.281-50.718 32.832-50.229 63.131.27 16.815 6.984 32.531 18.904 44.253zm9.02-78.294c-2.523 6.432-3.864 13.361-3.856 20.471.035 30.452 24.832 55.494 55.278 55.82 2.241.027 4.469-.086 6.674-.327-6.819 3.576-14.523 5.532-22.555 5.533-.003 0-.002 0-.005 0-26.762 0-48.066-20.952-48.498-47.7-.208-12.874 4.687-24.863 12.962-33.797z"/><ellipse cx="197.416" cy="361.197" rx="9.977" ry="9.977" transform="matrix(.67 -.742 .742 .67 -202.951 265.578)"/></g></g></g></svg>