<svg id="Capa_1" enable-background="new 0 0 512 512" height="512" viewBox="0 0 512 512" width="512" xmlns="http://www.w3.org/2000/svg"><g><path d="m399.257 143.695c-16.836-2.91-33.897 3.48-48.825 16.562v38.728c3.18-5.108 6.643-9.78 10.356-13.88 11.291-12.467 23.76-18.581 34.211-16.775 10.451 1.807 20.145 11.751 26.596 27.285 8.036 19.349 10.112 45.099 5.696 70.646-4.377 25.326-14.836 48.686-28.719 64.219l19.277 15.95c16.15-18.389 28.742-45.049 34.076-75.91 10.912-63.131-12.668-119.911-52.668-126.825z" fill="#e8b800"/><g><g><path d="m136.955 504.5h-72.194v-18.878c0-5.523 4.477-10 10-10h52.194c5.523 0 10 4.477 10 10z" fill="#fed402"/></g><g><path d="m105.806 475.622h-31.045c-5.523 0-10 4.477-10 10v18.878h31.045v-18.878c0-5.523 4.477-10 10-10z" fill="#fac600"/></g><g><path d="m100.858 445.634c-19.322 0-34.986-15.664-34.986-34.986v-69.971c0-2.761 2.239-5 5-5h59.973c2.761 0 5 2.239 5 5v69.971c-.001 19.322-15.665 34.986-34.987 34.986z" fill="#fed402"/></g><g><path d="m97 410.648v-69.971c0-2.761 2.239-5 5-5h-31.129c-2.761 0-5 2.239-5 5v69.971c0 19.322 15.664 34.986 34.986 34.986 5.593 0 10.875-1.319 15.564-3.653-11.509-5.728-19.421-17.604-19.421-31.333z" fill="#fac600"/></g></g><g><path d="m313.887 38.329h17.555l9.363-9.363c1.301-1.301 1.301-3.411 0-4.712l-15.784-15.784c-1.301-1.301-3.411-1.301-4.712 0l-15.784 15.784c-1.301 1.301-1.301 3.411 0 4.712z" fill="#e8b800"/><path d="m360.428 87.199v-20.94c0-15.425-12.505-27.93-27.93-27.93h-19.667c-15.425 0-27.93 12.505-27.93 27.93v20.94z" fill="#fed402"/><path d="m316 87.199v-20.94c0-13.466 9.531-24.704 22.214-27.342-1.845-.384-3.757-.588-5.716-.588h-19.667c-15.425 0-27.93 12.505-27.93 27.93v20.94z" fill="#fac600"/><path d="m204.282 408.625c-4.831-12.391-4.235-25.864.998-37.446v-154.472c0-28.557-23.15-51.707-51.707-51.707h-22.285c-3.112 0-5.366 2.969-4.53 5.966l7.575 27.156c.567 2.033 2.419 3.439 4.53 3.439h14.71c8.365 0 15.146 6.781 15.146 15.146v166.089c0 36.116 23.359 66.756 55.786 77.694z" fill="#e8b800"/><g><g><path d="m130.958 186.02c.11-.008.218-.02.33-.02h22.285c28.557 0 51.707 23.15 51.707 51.707v-21c0-28.557-23.15-51.707-51.707-51.707h-22.285c-3.112 0-5.366 2.969-4.53 5.966z" fill="#d7aa02"/></g></g><path d="m426.836 353.864-48.22-39.897c-17.851-14.77-28.185-36.732-28.185-59.902v-139.099h-55.534v139.099c0 23.17-10.334 45.132-28.185 59.902l-48.22 39.897c-16.05 13.28-21.778 35.353-14.21 54.761l37.383 95.875h161.999l37.383-95.874c7.567-19.409 1.839-41.482-14.211-54.762z" fill="#fed402"/><path d="m426.836 353.864-48.22-39.897c-17.851-14.77-28.185-36.732-28.185-59.902v-139.099h-55.534v139.099c0 23.17-10.334 45.132-28.185 59.902l-48.22 39.897c-16.05 13.28-21.778 35.353-14.21 54.761l37.383 95.875h161.999l37.383-95.874c7.567-19.409 1.839-41.482-14.211-54.762z" fill="#fed402"/><g fill="#fac600"><path d="m294.898 114.966h31.02v29.034h-31.02z"/><path d="m294.898 227v27.066c0 23.17-10.334 45.132-28.185 59.902l-48.22 39.897c-16.05 13.28-21.778 35.353-14.21 54.761l37.383 95.875h28.096l-34.458-88.375c-7.568-19.408-1.84-41.482 14.21-54.761l48.22-39.897c17.851-14.77 28.185-36.732 28.185-59.902v-34.566z"/></g><g><path d="m241.821 504.5h161.999l24.759-63.5h-211.518z" fill="#c53287"/></g><g><path d="m217.061 441 24.76 63.5h27.94l-24.76-63.5z" fill="#a82975"/></g><path d="m294.898 144h55.534v83h-55.534z" fill="#c53287"/><path d="m294.898 144h31.02v83h-31.02z" fill="#a82975"/><g><g><path d="m243.098 372.501h31.065v31.065h-31.065z" fill="#c53287" transform="matrix(.707 .707 -.707 .707 350.132 -69.227)"/></g><g><path d="m307.132 372.501h31.065v31.065h-31.065z" fill="#c53287" transform="matrix(.707 .707 -.707 .707 368.886 -114.506)"/></g><g><path d="m371.166 372.501h31.065v31.065h-31.065z" fill="#c53287" transform="matrix(.707 .707 -.707 .707 387.643 -159.785)"/></g></g><g><path d="m362.094 114.966h-78.858c-7.668 0-13.884-6.216-13.884-13.883 0-7.668 6.216-13.883 13.884-13.883h78.858c7.668 0 13.883 6.216 13.883 13.883 0 7.667-6.216 13.883-13.883 13.883z" fill="#e8b800"/></g><g><path d="m300.375 101.083c0-7.668 6.216-13.883 13.884-13.883h-31.023c-7.668 0-13.883 6.216-13.883 13.883 0 7.668 6.216 13.883 13.883 13.883h31.023c-7.668 0-13.884-6.216-13.884-13.883z" fill="#d7aa02"/></g></g><g><path d="m263.934 360.764c-2.929-2.929-7.678-2.929-10.606 0l-21.966 21.966c-2.929 2.929-2.929 7.678 0 10.606l21.966 21.966c1.464 1.464 3.384 2.197 5.303 2.197s3.839-.732 5.303-2.197l21.966-21.966c2.929-2.929 2.929-7.678 0-10.606zm-5.303 38.63-11.36-11.36 11.36-11.36 11.36 11.36z"/><path d="m327.968 360.764c-2.929-2.929-7.678-2.929-10.606 0l-21.966 21.966c-2.929 2.929-2.929 7.678 0 10.606l21.966 21.966c1.464 1.464 3.384 2.197 5.303 2.197s3.839-.732 5.303-2.197l21.966-21.966c2.929-2.929 2.929-7.678 0-10.606zm-5.303 38.63-11.36-11.36 11.36-11.36 11.36 11.36z"/><path d="m386.698 417.5c1.919 0 3.839-.732 5.303-2.197l21.966-21.966c2.929-2.929 2.929-7.678 0-10.606l-21.966-21.966c-2.929-2.929-7.678-2.929-10.606 0l-21.966 21.966c-2.929 2.929-2.929 7.678 0 10.606l21.966 21.966c1.464 1.465 3.384 2.197 5.303 2.197zm0-40.826 11.36 11.36-11.36 11.36-11.36-11.36z"/><path d="m470.361 497h-55.723l33.396-85.65c8.76-22.467 2.163-47.891-16.417-63.264l-3.257-2.695c15.174-19.599 26.07-45.33 30.956-73.595 5.516-31.915 2.779-63.397-7.707-88.646-10.969-26.412-29.107-43.048-51.076-46.845-14.29-2.47-28.87.748-42.603 9.115v-22.953h4.162c11.791 0 21.383-9.593 21.383-21.384 0-9.767-6.589-18.006-15.549-20.554v-14.27c0-14.536-8.802-27.049-21.353-32.506 3.738-4.249 3.59-10.744-.466-14.802l-15.783-15.784c-4.223-4.223-11.095-4.223-15.319 0l-15.784 15.784c-4.058 4.057-4.206 10.553-.467 14.802-12.551 5.456-21.353 17.97-21.353 32.506v14.269c-8.961 2.548-15.549 10.788-15.549 20.554 0 11.791 9.592 21.383 21.383 21.383h4.162v131.6c0 21.005-9.282 40.732-25.466 54.124l-48.22 39.896c-.317.262-.621.534-.931.802v-60.887c0-4.142-3.358-7.5-7.5-7.5s-7.5 3.358-7.5 7.5v81.575c-5.444 13.028-5.873 27.959-.486 41.776l13.326 34.177c-20.667-13.252-34.401-36.409-34.401-62.731v-166.09c0-12.487-10.159-22.646-22.646-22.646h-12.586l-6.014-21.561h18.601c24.376 0 44.207 19.831 44.207 44.207v36.293c0 4.142 3.358 7.5 7.5 7.5s7.5-3.358 7.5-7.5v-36.293c0-32.647-26.56-59.207-59.207-59.207h-22.285c-3.849 0-7.391 1.758-9.719 4.824s-3.069 6.95-2.035 10.657l7.575 27.155c1.465 5.254 6.299 8.924 11.754 8.924h14.71c4.216 0 7.646 3.43 7.646 7.646v166.089c0 38.088 23.925 70.677 57.528 83.575l11.943 30.63h-86.236v-11.377c0-9.649-7.851-17.5-17.5-17.5h-18.597v-15.665c19.861-3.554 34.986-20.943 34.986-41.81v-14.648c0-4.142-3.358-7.5-7.5-7.5s-7.5 3.358-7.5 7.5v14.648c0 15.156-12.331 27.486-27.486 27.486s-27.486-12.33-27.486-27.486v-67.471h54.973v17.823c0 4.142 3.358 7.5 7.5 7.5s7.5-3.358 7.5-7.5v-20.323c0-6.893-5.607-12.5-12.5-12.5h-59.974c-6.893 0-12.5 5.607-12.5 12.5v69.971c0 20.867 15.126 38.256 34.986 41.81v15.665h-18.596c-9.649 0-17.5 7.851-17.5 17.5v11.377h-15.622c-4.142 0-7.5 3.358-7.5 7.5s3.358 7.5 7.5 7.5h428.722c4.142 0 7.5-3.358 7.5-7.5s-3.358-7.5-7.5-7.5zm-340.906 0h-57.194v-11.377c0-1.378 1.122-2.5 2.5-2.5h52.194c1.378 0 2.5 1.122 2.5 2.5zm261.697-346.499c2.29 0 4.569.193 6.827.584 16.724 2.89 30.85 16.321 39.777 37.817 9.41 22.658 11.817 51.189 6.779 80.339-4.442 25.702-14.198 48.974-27.73 66.59l-7.712-6.381c12.318-16.24 21.507-38.298 25.589-61.912 4.651-26.91 2.405-54.174-6.161-74.8-7.457-17.955-19.209-29.545-32.245-31.799-12.142-2.097-25.959 3.818-38.345 16.288v-13.493c10.738-8.682 22.118-13.233 33.221-13.233zm6.397 169.397-14.151-11.709c-16.184-13.391-25.466-33.118-25.466-54.124v-52.912c2.62-4.023 5.432-7.721 8.415-11.015 8.443-9.323 17.568-14.621 24.957-14.621.829 0 1.636.067 2.418.202 7.751 1.34 15.582 9.852 20.947 22.771 7.505 18.072 9.413 42.307 5.232 66.492-3.643 21.079-11.657 40.637-22.352 54.916zm-74.884-303.177 9.89 9.89-4.219 4.219h-11.342l-4.219-4.219zm-30.264 49.538c0-11.265 9.165-20.43 20.43-20.43h19.667c11.265 0 20.43 9.165 20.43 20.43v13.44h-60.526v-13.44zm-9.166 41.207c-3.52 0-6.383-2.864-6.383-6.384s2.864-6.383 6.383-6.383h78.858c3.52 0 6.383 2.864 6.383 6.384s-2.864 6.383-6.383 6.383zm19.162 29.034v-14.034h40.534v14.034zm40.535 15v68h-40.378v-68zm-95.986 345.5-18.911-48.5h110.965c4.142 0 7.5-3.358 7.5-7.5s-3.358-7.5-7.5-7.5h-116.969l-10.761-27.599c-6.405-16.428-1.582-35.018 12.004-46.258l48.22-39.896c19.64-16.25 30.904-40.189 30.904-65.68v-19.567h40.534v19.566c0 25.491 11.264 49.43 30.904 65.68l48.22 39.896c13.585 11.241 18.409 29.831 12.004 46.258l-10.762 27.6h-49.298c-4.142 0-7.5 3.358-7.5 7.5s3.358 7.5 7.5 7.5h43.449l-18.91 48.5z"/></g></g></svg>