<svg id="Capa_1" enable-background="new 0 0 512 512" height="512" viewBox="0 0 512 512" width="512" xmlns="http://www.w3.org/2000/svg"><g><g><path d="m392.964 233.668h-169l-9.064 9.064c-1.953 1.953-5.118 1.953-7.071 0l-9.064-9.064h-186.265c-2.761 0-5 2.239-5 5v73.332h390.464v-73.331c0-2.762-2.239-5.001-5-5.001z" fill="#d8aa5e"/><path d="m49 238.668c0-2.761 2.239-5 5-5h-41.5c-2.761 0-5 2.239-5 5v73.332h41.5z" fill="#c99c56"/><g><path d="m392.964 479.196h-380.464c-2.761 0-5-2.239-5-5v-162.196h390.464v162.196c0 2.761-2.239 5-5 5z" fill="#d88a55"/></g><g><path d="m49 474.196v-162.196h-41.5v162.196c0 2.761 2.239 5 5 5h41.5c-2.761 0-5-2.239-5-5z" fill="#c57a44"/></g><g><path d="m285.732 419.041h-166c-2.761 0-5-2.239-5-5v-42c0-2.761 2.239-5 5-5h166c2.761 0 5 2.239 5 5v42c0 2.761-2.239 5-5 5z" fill="#fff"/></g><g><path d="m145 414.041v-42c0-2.761 2.239-5 5-5h-30.268c-2.761 0-5 2.239-5 5v42c0 2.761 2.239 5 5 5h30.268c-2.761 0-5-2.239-5-5z" fill="#f3f0f3"/></g></g><g><g><path d="m343.356 107.206-60.692-60.692c-1.953-1.953-5.118-1.953-7.071 0l-128.456 128.455c-1.953 1.953-1.953 5.118 0 7.071l60.692 60.692c1.953 1.953 5.118 1.953 7.071 0l71.907-71.907h-2.516c-10.685 0-19.238-9.133-18.277-20.018.841-9.529 9.126-16.683 18.691-16.683h38.803l19.848-19.848c1.953-1.952 1.953-5.118 0-7.07z" fill="#80d261"/><g><path d="m167.464 182.04c-1.953-1.953-1.953-5.118 0-7.071l121.828-121.828-6.628-6.628c-1.953-1.953-5.118-1.953-7.071 0l-128.456 128.456c-1.953 1.953-1.953 5.118 0 7.071l60.692 60.692c1.953 1.953 5.118 1.953 7.071 0l6.628-6.628z" fill="#4fc123"/></g><g fill="#fff"><path d="m226.864 163.005c-6.762-6.762-9.014-16.32-6.769-24.951l-36.914 36.914c-1.953 1.953-1.953 5.118 0 7.071l24.648 24.648c1.953 1.953 5.118 1.953 7.071 0l36.914-36.914c-8.63 2.246-18.189-.006-24.95-6.768z"/><path d="m284.705 134.124h2.759l19.848-19.848c1.953-1.953 1.953-5.118 0-7.071l-24.648-24.648c-1.953-1.953-5.118-1.953-7.071 0l-36.914 36.914c8.631-2.245 18.189.007 24.951 6.768 3.924 3.924 6.318 8.791 7.207 13.87 3.474-3.701 8.466-5.985 13.868-5.985z"/></g><g fill="#f3f0f3"><path d="m257 121.434 32.27-32.27-6.606-6.606c-1.953-1.953-5.118-1.953-7.071 0l-36.914 36.914c6.081-1.582 12.62-.928 18.321 1.962z"/><path d="m203.464 174.969 18.593-18.593c-2.89-5.7-3.544-12.239-1.962-18.321l-36.914 36.914c-1.953 1.953-1.953 5.118 0 7.071l24.648 24.648c1.953 1.953 5.118 1.953 7.071 0l6.606-6.606-18.042-18.042c-1.952-1.953-1.952-5.119 0-7.071z"/></g><path d="m266.014 150.807c.366-4.151 2.147-7.85 4.829-10.704-.892-5.077-3.292-9.941-7.214-13.863-10.152-10.152-26.613-10.152-36.765 0s-10.152 26.613 0 36.765 26.613 10.152 36.765 0c1.315-1.315 2.456-2.738 3.431-4.237-.896-2.453-1.295-5.146-1.046-7.961z" fill="#fe860a"/><g><path d="m247.62 163.005c-10.152-10.152-10.152-26.613 0-36.765 2.376-2.376 5.099-4.188 8.004-5.452-9.509-4.137-20.984-2.325-28.761 5.452-10.152 10.152-10.152 26.613 0 36.765 7.777 7.777 19.252 9.589 28.761 5.452-2.904-1.264-5.628-3.076-8.004-5.452z" fill="#fe7701"/></g></g><path d="m435.175 87.858-68.917-45.462c-19.012-12.553-43.917-12.842-62.657.113l-14.32 10.623 43.271 43.271h17.494c10.416 0 18.86 8.444 18.86 18.861 0 10.416-8.444 18.861-18.86 18.861h-65.343c-9.566 0-17.851 7.154-18.691 16.683-.961 10.886 7.591 20.018 18.277 20.018h50.706c7.204 0 13.951 3.528 18.063 9.444 6.097 8.773 16.103 14.005 26.786 14.005h55.33v-106.417z" fill="#d88a55"/><path d="m435.175 87.91-68.917-45.515c-19.012-12.553-43.917-12.842-62.657.113l-14.32 10.623 14.385 14.385c18.715-12.802 43.498-12.471 62.436.034l69.072 45.657v-25.297z" fill="#c57a44"/><g><path d="m499.5 212.964h-59.325c-2.762 0-5-2.239-5-5v-135.107c0-2.761 2.238-5 5-5h59.325c2.761 0 5 2.239 5 5v135.107c0 2.762-2.239 5-5 5z" fill="#80d261"/></g><g><path d="m466.675 207.964v-135.107c0-2.761 2.238-5 5-5h-31.5c-2.762 0-5 2.239-5 5v135.107c0 2.761 2.238 5 5 5h31.5c-2.762 0-5-2.238-5-5z" fill="#4fc123"/></g></g><g><path d="m223 374.541c4.142 0 7.5-3.358 7.5-7.5s-3.358-7.5-7.5-7.5h-103.268c-6.893 0-12.5 5.607-12.5 12.5v42c0 6.893 5.607 12.5 12.5 12.5h166c6.893 0 12.5-5.607 12.5-12.5v-42c0-6.893-5.607-12.5-12.5-12.5h-27.732c-4.142 0-7.5 3.358-7.5 7.5s3.358 7.5 7.5 7.5h25.231v37h-161v-37z"/><path d="m102.458 271.196c0 4.142 3.358 7.5 7.5 7.5h185.546c4.143 0 7.5-3.358 7.5-7.5s-3.357-7.5-7.5-7.5h-185.546c-4.142 0-7.5 3.358-7.5 7.5z"/><path d="m499.5 60.357h-59.325c-6.893 0-12.5 5.607-12.5 12.5v1.104l-57.284-37.824c-21.985-14.516-49.877-14.437-71.054.203l-9.325 6.916-2.045-2.045c-2.361-2.361-5.5-3.661-8.839-3.661s-6.479 1.3-8.839 3.661l-128.455 128.454c-2.361 2.361-3.661 5.5-3.661 8.839s1.3 6.478 3.661 8.839l38.825 38.825h-168.159c-6.893 0-12.5 5.607-12.5 12.5v235.527c0 6.893 5.607 12.5 12.5 12.5h380.464c6.893 0 12.5-5.607 12.5-12.5v-19.155c0-4.142-3.357-7.5-7.5-7.5s-7.5 3.358-7.5 7.5v16.655h-375.464v-152.196h375.464v100.542c0 4.142 3.357 7.5 7.5 7.5s7.5-3.358 7.5-7.5v-181.373c0-6.893-5.607-12.5-12.5-12.5h-150.893l47.843-47.843h45.083c4.745 0 9.195 2.327 11.903 6.224 7.495 10.785 19.812 17.224 32.945 17.224h6.155c4.143 0 7.5-3.358 7.5-7.5s-3.357-7.5-7.5-7.5h-6.154c-8.224 0-15.935-4.032-20.627-10.785-5.511-7.93-14.565-12.664-24.222-12.664h-50.706c-3.081 0-5.924-1.252-8.007-3.527-2.079-2.271-3.073-5.23-2.8-8.333.487-5.519 5.416-9.842 11.221-9.842h65.343c14.535 0 26.36-11.825 26.36-26.36s-11.825-26.36-26.36-26.36h-14.388l-34.928-34.928 7.233-5.366c15.855-10.9 37.604-10.887 54.159.044l64.53 42.608v95.511h-5.654c-4.143 0-7.5 3.358-7.5 7.5s3.357 7.5 7.5 7.5h6.675v6.19c0 6.893 5.607 12.5 12.5 12.5h59.325c6.893 0 12.5-5.607 12.5-12.5v-135.104c0-6.892-5.607-12.5-12.5-12.5zm-109.036 180.811v63.331h-375.464v-63.331h180.659l6.868 6.868c2.437 2.437 5.638 3.655 8.838 3.655 3.201 0 6.402-1.219 8.839-3.655l6.867-6.867h163.393zm-106.115-114.536c-3.411.046-6.686.75-9.694 1.991-1.496-2.759-3.393-5.357-5.723-7.687-3.792-3.792-8.276-6.475-13.048-8.065l23.244-23.244 21.112 21.113zm-25.478 30.466c-.184.2-.352.41-.546.604-7.21 7.211-18.946 7.212-26.158 0s-7.212-18.947 0-26.159c3.606-3.606 8.343-5.409 13.079-5.409 4.737 0 9.474 1.803 13.079 5.409 2.017 2.017 3.449 4.394 4.338 6.92-2.27 3.424-3.742 7.401-4.12 11.684-.207 2.341-.087 4.678.328 6.951zm-47.506 42.519-21.113-21.113 23.244-23.244c1.59 4.772 4.273 9.256 8.065 13.048s8.276 6.475 13.048 8.065zm1.767 1.768-.008-.008c.003.002.005.004.008.008zm135.528-81.805c4.248-4.249 4.789-10.82 1.631-15.664 6.151.131 11.117 5.166 11.117 11.348 0 6.264-5.097 11.36-11.36 11.36h-8.432zm-12.375-8.839-15.883 15.883h-14.831l7.043-7.043c2.361-2.361 3.662-5.5 3.662-8.84s-1.301-6.479-3.661-8.839l-24.648-24.649c-2.361-2.36-5.5-3.66-8.839-3.66s-6.479 1.3-8.839 3.661l-35.588 35.588c-4.806 1.586-9.324 4.279-13.141 8.095-3.816 3.816-6.509 8.334-8.095 13.14l-35.589 35.589c-4.872 4.874-4.872 12.803.001 17.677l24.648 24.648c2.437 2.437 5.638 3.655 8.838 3.655 3.201 0 6.402-1.219 8.839-3.655l35.588-35.588c3.664-1.209 7.158-3.064 10.304-5.57 1.729 1.712 3.684 3.154 5.791 4.306l-60.521 60.521-57.157-57.157 124.92-124.92zm160.715 94.723h-54.325v-130.107h54.325z"/></g></g></svg>