<svg id="Capa_1" enable-background="new 0 0 512 512" height="512" viewBox="0 0 512 512" width="512" xmlns="http://www.w3.org/2000/svg"><g><g><circle cx="256" cy="256" fill="#fec165" r="248.517"/></g><g><path d="m504.517 256c0 137.248-111.269 248.517-248.517 248.517-34.469 0-67.302-7.014-97.142-19.714 24.303 7.941 50.242 12.231 77.189 12.231 137.248 0 248.517-111.269 248.517-248.517 0-102.779-62.394-190.992-151.375-228.803 99.467 32.464 171.328 125.985 171.328 236.286z" fill="#fdb441"/></g><g><circle cx="256" cy="256" fill="#fea95c" r="189.184"/></g><g><path d="m445.186 256c0 104.485-84.701 189.186-189.186 189.186-34.339 0-66.554-9.158-94.319-25.161 22.827 9.777 47.968 15.184 74.366 15.184 104.485 0 189.186-84.701 189.186-189.186 0-70.136-38.17-131.362-94.867-164.025 67.521 28.882 114.82 95.915 114.82 174.002z" fill="#fe9738"/></g><g><g><path d="m291.8 275.35c-24.653 0-44.71-20.057-44.71-44.71v-86.144c0-7.564 6.132-13.695 13.695-13.695s13.695 6.132 13.695 13.695v86.144c0 9.55 7.769 17.319 17.319 17.319s17.319-7.769 17.319-17.319v-6.029c0-7.563 6.132-13.695 13.695-13.695s13.695 6.132 13.695 13.695v6.029c.001 24.653-20.055 44.71-44.708 44.71z" fill="#fedba6"/></g></g><g><g><path d="m176.373 330.425c-24.653 0-44.71-20.057-44.71-44.71v-6.03c0-7.563 6.132-13.695 13.695-13.695s13.695 6.132 13.695 13.695v6.03c0 9.55 7.769 17.319 17.319 17.319s17.319-7.769 17.319-17.319v-141.219c0-7.564 6.132-13.695 13.695-13.695s13.695 6.132 13.695 13.695v141.219c.002 24.653-20.055 44.71-44.708 44.71z" fill="#fedba6"/></g></g><g><g><path d="m169.034 301.393c-2.235 1.048-4.729 1.636-7.353 1.636-9.548 0-17.319-7.762-17.319-17.319v-6.026c0-4.858-2.534-9.128-6.345-11.553 2.125-1.357 4.639-2.145 7.343-2.145 7.562 0 13.698 6.136 13.698 13.698v6.026c0 6.934 4.08 12.92 9.976 15.683z" fill="#fece85"/></g><g><path d="m221.082 144.492v141.218c0 24.662-20.053 44.715-44.705 44.715-2.504 0-4.958-.209-7.343-.609 21.17-3.512 37.352-21.948 37.352-44.106v-141.218c0-4.859-2.534-9.128-6.345-11.553 2.125-1.357 4.639-2.135 7.343-2.135 7.572 0 13.698 6.125 13.698 13.688z" fill="#fece85"/></g></g><g><g><path d="m315.246 380.972c-1.476-.129-2.947-.313-4.406-.555-7.462-1.232-12.513-8.281-11.281-15.743 1.232-7.464 8.289-12.505 15.743-11.281 7.522 1.243 16.1-.395 21.847-4.172 9.778-6.424 15.976-18.559 15.792-30.914-.113-7.563 5.927-13.785 13.489-13.898 7.551-.117 13.785 5.927 13.898 13.489.326 21.824-10.456 42.598-28.138 54.215-10.354 6.804-23.883 10.001-36.944 8.859z" fill="#fedba6"/></g></g><g><g><circle cx="264.646" cy="309.745" fill="#fedba6" r="14.282"/></g><g><circle cx="316.326" cy="309.745" fill="#fedba6" r="14.282"/></g></g><g><g><g><path d="m261.667 223.157v-86.148c0-2.225-.529-4.33-1.486-6.185.2-.02.409-.02.609-.02 7.562 0 13.688 6.126 13.688 13.688v86.148c0 3.611 1.117 6.984 3.033 9.767-8.861-.749-15.844-8.201-15.844-17.25z" fill="#fece85"/></g><g><path d="m336.511 224.614v6.026c0 24.652-20.063 44.715-44.715 44.715-10.865 0-20.831-3.891-28.583-10.366 4.909 1.866 10.226 2.883 15.773 2.883 24.652 0 44.715-20.063 44.715-44.715v-6.026c0-2.235-.539-4.34-1.486-6.195.2-.02.399-.02.599-.02 7.562 0 13.697 6.135 13.697 13.698z" fill="#fece85"/></g></g><g><g><path d="m380.328 317.895c.329 21.829-10.455 42.6-28.134 54.223-10.356 6.794-23.884 9.996-36.943 8.859-1.477-.13-2.953-.319-4.41-.559-4.38-.718-7.921-3.442-9.857-7.073.479.06.968.11 1.447.15 13.069 1.137 26.598-2.065 36.943-8.859 17.688-11.623 28.473-32.394 28.144-54.223-.03-2.155-.559-4.19-1.487-5.986.13-.01.269-.02.399-.02 7.553-.11 13.789 5.925 13.898 13.488z" fill="#fece85"/></g></g><g><g><path d="m278.926 309.744c0 7.891-6.395 14.286-14.277 14.286-5.427 0-10.146-3.023-12.56-7.492 7.772-.13 14.027-6.475 14.027-14.276 0-2.454-.619-4.769-1.716-6.784.08-.01.17-.01.249-.01 7.882-.001 14.277 6.394 14.277 14.276z" fill="#fece85"/></g><g><path d="m330.605 309.744c0 7.891-6.395 14.286-14.277 14.286-5.427 0-10.146-3.023-12.56-7.492 7.762-.13 14.027-6.465 14.027-14.276 0-2.454-.618-4.769-1.716-6.784.08-.01.17-.01.249-.01 7.882-.001 14.277 6.394 14.277 14.276z" fill="#fece85"/></g></g></g><g><path d="m437.02 74.981c-48.353-48.352-112.64-74.981-181.02-74.981s-132.667 26.629-181.019 74.981-74.981 112.639-74.981 181.019 26.629 132.667 74.981 181.019 112.639 74.981 181.019 74.981c64.914 0 126.824-24.336 174.325-68.524 3.025-2.815 3.197-7.549.382-10.575s-7.549-3.198-10.575-.382c-44.723 41.604-103.013 64.516-164.132 64.516-64.383 0-124.912-25.072-170.438-70.598-45.525-45.525-70.597-106.054-70.597-170.437s25.072-124.912 70.597-170.438 106.055-70.597 170.438-70.597 124.912 25.072 170.437 70.598c45.526 45.526 70.598 106.055 70.598 170.438 0 55.278-19.182 109.282-54.012 152.066-2.609 3.204-2.126 7.917 1.078 10.527 3.206 2.61 7.92 2.125 10.527-1.079 36.997-45.446 57.372-102.806 57.372-161.515 0-68.38-26.629-132.667-74.98-181.019z"/><path d="m452.667 256c0-108.442-88.225-196.666-196.667-196.666s-196.666 88.224-196.666 196.666 88.224 196.666 196.666 196.666 196.667-88.224 196.667-196.666zm-196.667 181.701c-100.19 0-181.701-81.511-181.701-181.701s81.511-181.701 181.701-181.701c100.191 0 181.702 81.511 181.702 181.701s-81.511 181.701-181.702 181.701z"/><circle cx="256" cy="38.3" r="7.482"/><ellipse cx="256" cy="473.7" rx="7.482" ry="7.482" transform="matrix(.383 -.924 .924 .383 -279.609 528.936)"/><ellipse cx="147.15" cy="67.466" rx="7.482" ry="7.482" transform="matrix(.259 -.966 .966 .259 43.897 192.141)"/><path d="m361.109 438.054c-3.579 2.066-4.805 6.642-2.739 10.221s6.642 4.805 10.221 2.739 4.805-6.642 2.739-10.221-6.642-4.806-10.221-2.739z"/><ellipse cx="67.466" cy="147.15" rx="7.482" ry="7.482" transform="matrix(.966 -.259 .259 .966 -35.787 22.476)"/><path d="m451.014 368.591c2.066-3.579.84-8.155-2.739-10.221s-8.155-.84-10.221 2.739-.84 8.155 2.739 10.221 8.155.84 10.221-2.739z"/><ellipse cx="38.3" cy="256" rx="7.482" ry="7.482" transform="matrix(.383 -.924 .924 .383 -212.87 193.418)"/><ellipse cx="473.7" cy="256" rx="7.482" ry="7.482" transform="matrix(.987 -.16 .16 .987 -34.89 79.184)"/><ellipse cx="67.466" cy="364.85" rx="7.482" ry="7.482" transform="matrix(.259 -.966 .966 .259 -302.413 335.587)"/><path d="m448.275 153.63c3.579-2.066 4.805-6.642 2.739-10.221s-6.642-4.805-10.221-2.739-4.805 6.642-2.739 10.221 6.642 4.805 10.221 2.739z"/><path d="m140.67 440.792c-2.066 3.579-.84 8.155 2.739 10.221s8.155.84 10.221-2.739.84-8.155-2.739-10.221-8.155-.839-10.221 2.739z"/><path d="m371.33 71.208c2.066-3.579.84-8.155-2.739-10.221s-8.155-.84-10.221 2.739-.84 8.155 2.739 10.221 8.155.839 10.221-2.739z"/><path d="m343.992 230.64v-6.029c0-11.677-9.5-21.177-21.178-21.177-11.677 0-21.177 9.5-21.177 21.177v6.029c0 5.424-4.414 9.837-9.837 9.837-5.424 0-9.837-4.413-9.837-9.837v-86.144c0-11.677-9.5-21.177-21.177-21.177-11.678 0-21.178 9.5-21.178 21.177v86.144c0 28.779 23.413 52.192 52.192 52.192s52.192-23.413 52.192-52.192zm-52.192 37.227c-20.527 0-37.227-16.7-37.227-37.227v-86.144c0-3.426 2.787-6.213 6.213-6.213s6.212 2.787 6.212 6.213v86.144c0 13.676 11.126 24.802 24.802 24.802s24.802-11.126 24.802-24.802v-6.029c0-3.426 2.786-6.212 6.212-6.212s6.213 2.787 6.213 6.212v6.029c0 20.527-16.7 37.227-37.227 37.227z"/><path d="m207.388 123.319c-11.677 0-21.177 9.5-21.177 21.177v141.219c0 5.424-4.413 9.837-9.837 9.837s-9.837-4.413-9.837-9.837v-6.029c0-11.677-9.5-21.177-21.177-21.177-11.678 0-21.178 9.5-21.178 21.177v6.029c0 28.779 23.413 52.192 52.192 52.192s52.192-23.413 52.192-52.192v-69.434c0-4.132-3.35-7.482-7.482-7.482s-7.482 3.35-7.482 7.482v69.434c0 20.527-16.7 37.227-37.227 37.227s-37.227-16.7-37.227-37.227v-6.029c0-3.426 2.787-6.212 6.213-6.212s6.212 2.787 6.212 6.212v6.029c0 13.676 11.126 24.802 24.802 24.802s24.802-11.126 24.802-24.802v-141.219c0-3.426 2.787-6.213 6.213-6.213s6.212 2.787 6.212 6.213v36.953c0 4.132 3.35 7.482 7.482 7.482s7.482-3.35 7.482-7.482v-36.953c-.001-11.677-9.501-21.177-21.178-21.177z"/><path d="m381.38 302.904c-4.063-3.942-9.434-6.09-15.06-5.976-5.656.084-10.941 2.367-14.881 6.425-3.94 4.059-6.063 9.41-5.978 15.066.147 9.861-4.727 19.497-12.418 24.55-4.2 2.759-10.838 3.982-16.527 3.041-11.517-1.89-22.439 5.935-24.337 17.445-.922 5.581.385 11.187 3.68 15.785 5.87 8.191 15.286 9.441 24.614 9.441 12.882 0 25.674-3.643 35.827-10.315 19.8-13.009 31.875-36.222 31.512-60.581-.086-5.654-2.37-10.939-6.432-14.881zm-33.298 62.956c-9.348 6.142-21.055 8.663-32.185 7.664-2.764-.248-6.125-.556-7.876-3-.966-1.349-1.349-2.993-1.078-4.631.556-3.377 3.762-5.67 7.139-5.117 9.419 1.557 19.831-.472 27.177-5.3 11.863-7.794 19.385-22.427 19.164-37.28-.049-3.328 2.796-6.255 6.124-6.305 3.398-.052 6.25 2.726 6.301 6.119.287 19.289-9.202 37.624-24.766 47.85z"/><path d="m264.646 287.981c-12.001 0-21.764 9.763-21.764 21.764s9.763 21.764 21.764 21.764 21.764-9.763 21.764-21.764-9.763-21.764-21.764-21.764zm0 28.564c-3.749 0-6.799-3.05-6.799-6.799s3.05-6.799 6.799-6.799 6.799 3.05 6.799 6.799-3.05 6.799-6.799 6.799z"/><path d="m294.562 309.745c0 12.001 9.763 21.764 21.764 21.764s21.764-9.763 21.764-21.764-9.763-21.764-21.764-21.764-21.764 9.763-21.764 21.764zm28.564 0c0 3.749-3.051 6.799-6.799 6.799-3.749 0-6.799-3.05-6.799-6.799s3.05-6.799 6.799-6.799c3.748 0 6.799 3.05 6.799 6.799z"/></g></g></svg>