<svg id="Capa_1" enable-background="new 0 0 512 512" height="512" viewBox="0 0 512 512" width="512" xmlns="http://www.w3.org/2000/svg"><g><g><path d="m457.716 338.076h-374.346v-300.118h374.345c2.236 0 4.048 1.812 4.048 4.048v292.022c.001 2.236-1.812 4.048-4.047 4.048z" fill="#ade194"/></g><g><path d="m461.763 42.01v292.015c0 2.235-1.809 4.054-4.044 4.054h-19.35c2.235 0 4.044-1.819 4.044-4.054v-292.015c0-2.245-1.809-4.054-4.044-4.054h19.35c2.235.001 4.044 1.81 4.044 4.054z" fill="#97da7b"/></g><g><path d="m66.803 504.512c-9.15 0-16.567-7.417-16.567-16.567v-463.89c0-9.15 7.417-16.567 16.567-16.567 9.15 0 16.567 7.417 16.567 16.567v463.891c0 9.149-7.417 16.566-16.567 16.566z" fill="#7a6d79"/></g><g><path d="m83.372 24.055v463.89c0 9.155-7.418 16.562-16.572 16.562-3.015 0-5.84-.809-8.276-2.216 4.952-2.865 8.276-8.216 8.276-14.346v-463.89c0-4.582-1.857-8.716-4.852-11.711-1.018-1.018-2.166-1.907-3.424-2.636 2.436-1.408 5.261-2.216 8.276-2.216 4.572 0 8.726 1.857 11.721 4.852 2.994 2.995 4.851 7.129 4.851 11.711z" fill="#685e68"/></g><g><g><path d="m381.731 239.943c-19.254 37.187-58.083 62.595-102.853 62.601-63.455.008-114.732-50.399-115.756-113.845-.912-56.494 38.659-103.91 91.597-115.147 2.643-.561 4.139 2.954 1.908 4.478-26.433 18.043-43.777 48.416-43.737 82.846.062 54.547 44.442 99.377 98.987 99.962 25.202.27 48.291-8.775 66.024-23.906 2.067-1.765 5.08.596 3.83 3.011z" fill="#fee97d"/></g><g><path d="m381.734 239.944c-2.512 4.844-5.351 9.487-8.499 13.905-19.22 14.884-43.437 23.646-69.695 23.356-61.033-.653-110.683-50.811-110.756-111.835-.036-33.215 14.385-63.056 37.306-83.59 7.773-3.619 16.027-6.404 24.625-8.227 2.648-.562 4.145 2.957 1.914 4.481-26.439 18.04-43.782 48.417-43.736 82.847.054 54.539 44.435 99.373 98.982 99.962 25.206.263 48.289-8.78 66.022-23.909 2.068-1.77 5.089.597 3.837 3.01z" fill="#fedf30"/></g><g><path d="m292.236 115.255 17.006 11.387c.919.615 2.082.739 3.11.331l19.021-7.553c2.589-1.028 5.232 1.359 4.474 4.039l-5.575 19.692c-.301 1.064-.06 2.208.646 3.06l13.061 15.756c1.778 2.144.325 5.396-2.458 5.503l-20.451.783c-1.105.042-2.119.626-2.71 1.56l-10.949 17.291c-1.49 2.353-5.032 1.976-5.993-.638l-7.065-19.208c-.382-1.038-1.25-1.822-2.321-2.096l-19.828-5.07c-2.698-.69-3.434-4.175-1.245-5.897l16.085-12.654c.869-.684 1.346-1.752 1.276-2.855l-1.306-20.424c-.179-2.78 2.908-4.557 5.222-3.007z" fill="#fee45a"/></g><g><path d="m341.517 167.464-15.501.599c.236-.961.054-2.032-.68-2.911l-13.061-15.755c-.707-.853-.943-1.995-.644-3.057l5.569-19.7c.163-.562.172-1.107.064-1.615l14.113-5.605c2.585-1.025 5.224 1.361 4.472 4.036l-5.578 19.691c-.299 1.07-.054 2.213.644 3.066l13.061 15.755c1.777 2.14.325 5.396-2.459 5.496z" fill="#fedf30"/></g><g><path d="m457.716 30.47h-90.373c-4.136 0-7.488 3.352-7.488 7.488 0 4.135 3.352 7.488 7.488 7.488h86.933v285.143h-363.418v-285.143h241.625c4.136 0 7.488-3.352 7.488-7.488 0-4.135-3.352-7.488-7.488-7.488h-241.625v-6.416c0-13.263-10.791-24.054-24.055-24.054s-24.055 10.791-24.055 24.055v463.89c0 13.264 10.791 24.055 24.055 24.055s24.055-10.791 24.055-24.055v-30.381c0-4.135-3.352-7.488-7.488-7.488s-7.488 3.352-7.488 7.488v30.381c0 5.006-4.073 9.08-9.08 9.08s-9.08-4.073-9.08-9.08v-463.89c0-5.006 4.073-9.08 9.08-9.08s9.08 4.073 9.08 9.08v398.986c0 4.135 3.352 7.488 7.488 7.488s7.488-3.352 7.488-7.488v-77.477h366.858c6.361 0 11.536-5.175 11.536-11.536v-292.022c0-6.361-5.175-11.536-11.536-11.536z"/><g><path d="m385.728 231.015c-3.792-3.01-9.008-2.919-12.688.221-16.995 14.501-38.665 22.338-61.084 22.115-50.439-.542-91.522-42.029-91.58-92.484-.035-30.676 15.094-59.331 40.47-76.653 3.981-2.716 5.435-7.713 3.538-12.152-1.897-4.436-6.512-6.834-11.221-5.835-57.461 12.197-98.478 63.754-97.529 122.592.527 32.661 13.562 63.18 36.703 85.936 23.134 22.75 53.861 35.276 86.525 35.276h.016c46.262-.006 88.221-25.543 109.5-66.644 2.22-4.283 1.13-9.371-2.65-12.372zm-106.851 64.041c-.005 0-.009 0-.014 0-28.71 0-55.71-11.002-76.025-30.979-20.321-19.982-31.767-46.795-32.23-75.5-.7-43.408 24.592-82.305 62.603-100.002-17.742 19.605-27.841 45.279-27.81 72.308.067 58.614 47.796 106.812 106.395 107.441 17.421.195 34.465-3.841 49.76-11.58-20.307 24.06-50.293 38.307-82.679 38.312z"/><path d="m262.422 159.078c.86 4.07 3.897 7.238 7.927 8.268l17.725 4.533 6.316 17.171c1.436 3.904 4.897 6.603 9.034 7.042 4.079.434 8.117-1.515 10.313-4.984l9.787-15.458 18.283-.7c4.156-.159 7.792-2.618 9.488-6.415 1.697-3.797 1.102-8.146-1.552-11.349l-11.677-14.086 4.984-17.605c1.133-4.003-.082-8.221-3.169-11.008s-7.408-3.563-11.271-2.029l-17.005 6.753-15.203-10.18c-3.456-2.314-7.843-2.463-11.447-.388s-5.679 5.942-5.414 10.094l1.167 18.259-14.379 11.313c-3.27 2.573-4.767 6.699-3.907 10.769zm33.368-20.87c-.001-.021-.772-12.078-.772-12.078s10.05 6.729 10.057 6.733c6.598 4.417 14.887-.856 21.289-3.398 0 0-3.295 11.637-3.297 11.646-2.182 7.705 5.385 13.858 9.811 19.196l-12.094.463c-3.567.137-6.838 2.019-8.75 5.037l-6.475 10.226-4.179-11.362c-1.234-3.35-4.035-5.878-7.493-6.762l-11.727-2.998c5.351-4.211 14.133-8.839 13.63-16.703z"/></g></g></g></g></svg>