<svg id="Capa_1" enable-background="new 0 0 512 512" height="512" viewBox="0 0 512 512" width="512" xmlns="http://www.w3.org/2000/svg"><g><path d="m315.221 235.65 4.413-3.144c2.219-1.581 5.276-1.08 6.895 1.087l15.544-25.488.446-4.635c.634-6.597-4.552-12.306-11.18-12.306-4.094 0-7.864 2.228-9.839 5.814l-14.676 26.652z" fill="#ea9b58"/><path d="m355.927 196.097h-.916c-3.487 0-6.722 1.816-8.538 4.793l-19.943 32.702c.033.044.074.077.105.123l15.737 22.532c.985 1.411 1.13 3.158.549 4.663l14.866-12.883c2.91-2.522 4.739-6.066 5.107-9.9l2.988-31.072c.564-5.875-4.054-10.958-9.955-10.958z" fill="#ea9b58"/><path d="m257.688 257.631 2.838 16.989 54.696-38.971-9.034-12.935c-1.592-2.279-4.737-2.822-7.001-1.209l-42.741 30.453c.497 1.858.92 3.748 1.242 5.673z" fill="#80d261"/><path d="m163.758 200.743 44.242 7.527v-37.656h-48.728c-1.646 0-3.262-.125-4.841-.365v30.667c2.973-.623 6.12-.719 9.327-.173z" fill="#ea9b58"/><path d="m163.758 200.743 11.673 1.986v-32.115h-16.159c-1.646 0-3.262-.125-4.841-.365v30.667c2.973-.623 6.12-.719 9.327-.173z" fill="#d88a55"/><path d="m249.502 21.704h-53.714l-68.455 68.455v48.517c0 17.639 14.299 31.939 31.939 31.939h4.837v-38.531c0-2.169-1.325-4.17-3.378-4.869-7.602-2.585-13.074-9.766-13.074-18.243v-.296c0-9.687 7.148-17.387 16.452-18.763h16.592c1.72 0 3.319-.884 4.234-2.34l16.415-26.124c.915-1.456 2.514-2.34 4.234-2.34h43.69v2.419l9.623-26.4c2.378-6.522-2.452-13.424-9.395-13.424z" fill="#554e56"/><g><path d="m201.35 61.449-16.415 26.124c-.915 1.456-2.514 2.34-4.234 2.34h-16.592c-9.305 1.376-16.452 9.076-16.452 18.763v.296c0 8.476 5.473 15.658 13.074 18.243 2.053.698 3.378 2.7 3.378 4.869v38.531h53.226c17.639 0 31.939-14.299 31.939-31.939v-79.567h-43.69c-1.72 0-3.319.884-4.234 2.34z" fill="#ea9b58"/></g><g><path d="m148 138.675v-69.183l-20.667 20.667v48.517c0 17.639 14.299 31.939 31.939 31.939h20.667c-17.64-.001-31.939-14.3-31.939-31.94z" fill="#433f43"/></g><g><path d="m399.831 418.716-121.204-29.665 9.287 55.593c.194 1.163-.131 2.345-.893 3.244-.762.9-1.874 1.416-3.053 1.416h-96.968l-1.208 1-24.635 54.196h276.787v-37.217c0-23.036-15.738-43.09-38.113-48.567z" fill="#80d261"/><g><path d="m185.792 450.304-24.635 54.196h31.056l24.635-54.196z" fill="#4fc123"/></g><g><path d="m134.566 450.304-16.162 19.688c-2.38 2.899-5.759 4.801-9.472 5.332l-23.428 3.347c-7.082 1.012-13.084 5.729-15.741 12.371l-5.385 13.458h96.779l24.635-54.196z" fill="#ea9b58"/></g><g><g><path d="m97.125 493.366 23.428-3.347c3.713-.53 7.092-2.433 9.472-5.331l27.702-34.384h-23.161l-16.162 19.688c-2.38 2.899-5.759 4.801-9.472 5.331l-23.428 3.347c-7.082 1.012-13.084 5.729-15.741 12.371l-5.385 13.459h17.55c2.877-5.987 8.563-10.186 15.197-11.134z" fill="#c57a44"/></g></g></g><path d="m268.465 322.147-20.355 16.504c-5.966 4.837-14.622 4.386-20.054-1.045l-48.659-48.66c-10.186-10.186-9.751-26.829.952-36.47 9.941-8.954 25.153-8.557 34.614.904l31.359 31.359 14.204-10.12-2.838-16.989c-4.21-25.206-23.924-44.979-49.117-49.265l-44.813-7.624c-15.263-2.597-29.193 9.163-29.193 24.646v224.915h149.403c3.09 0 5.441-2.776 4.932-5.824z" fill="#fef1da"/><g><path d="m178.857 203.312-15.098-2.569c-15.263-2.597-29.193 9.163-29.193 24.646v224.915h31.031v-224.915c-.001-9.682 5.446-17.907 13.26-22.077z" fill="#fae2c0"/></g><g><path d="m342.371 256.246-15.736-22.532c-1.592-2.279-4.737-2.822-7.001-1.209l-73.312 52.235-31.36-31.359c-9.461-9.461-24.672-9.858-34.614-.904-10.704 9.641-11.138 26.284-.952 36.47l48.66 48.66c5.431 5.431 14.088 5.882 20.054 1.045l93.312-75.658c2.036-1.653 2.451-4.598.949-6.748z" fill="#80d261"/></g><g><g><path d="m254.026 332.029-48.66-48.659c-9.974-9.974-9.758-26.135.304-35.854-8.457-3.03-18.227-1.428-25.321 4.962-10.704 9.641-11.138 26.284-.952 36.47l48.659 48.66c5.431 5.431 14.087 5.882 20.054 1.045l6.977-5.657c-.366-.304-.72-.625-1.061-.967z" fill="#4fc123"/></g></g><g><g><path d="m184.835 170.614v-48.64c0-2.169-1.325-4.17-3.378-4.869-7.601-2.585-13.074-9.766-13.074-18.243v-.296c0-3.146.764-6.076 2.101-8.654h-6.374c-9.304 1.376-16.452 9.076-16.452 18.763v.296c0 8.476 5.473 15.658 13.074 18.243 2.053.698 3.378 2.7 3.378 4.869v38.531z" fill="#d88a55"/></g></g><g><path d="m127.204 21.704c-18.939 18.939-18.939 49.645 0 68.584l68.584-68.584c-18.939-18.939-49.645-18.939-68.584 0z" fill="#fef1da"/></g><g><path d="m150.204 14.204c2.544-2.544 5.305-4.734 8.217-6.595-11.367.718-22.53 5.408-31.217 14.095-18.939 18.939-18.939 49.645 0 68.584l16.14-16.14c-11.689-18.719-9.412-43.672 6.86-59.944z" fill="#fae2c0"/></g><g><path d="m473.752 497h-28.309v-29.717c0-26.568-18.023-49.536-43.83-55.852l-28.844-7.06c-4.023-.982-8.084 1.479-9.068 5.502s1.479 8.083 5.502 9.068l28.844 7.06c19.074 4.668 32.396 21.644 32.396 41.282v29.717h-257.638l17.817-39.196h36.378c4.143 0 7.5-3.358 7.5-7.5s-3.357-7.5-7.5-7.5h-84.935v-217.415c0-5.166 2.264-10.04 6.211-13.372 3.947-3.334 9.134-4.747 14.225-3.881l44.813 7.624c22.025 3.748 39.296 21.071 42.977 43.107l2.066 12.365-5.217 3.717-26.872-26.872c-12.287-12.287-32.025-12.802-44.938-1.173-6.721 6.053-10.552 14.365-10.787 23.407-.236 9.042 3.155 17.543 9.551 23.939l48.66 48.66c4.382 4.382 10.132 6.608 15.908 6.607 4.995 0 10.009-1.665 14.172-5.041l10.355-8.396 17.828 106.723h-19.017c-4.143 0-7.5 3.358-7.5 7.5s3.357 7.5 7.5 7.5h21.968c3.684 0 7.16-1.612 9.54-4.423s3.396-6.506 2.789-10.137l-7.34-43.943 46.25 11.32c4.024.983 8.084-1.479 9.068-5.502s-1.479-8.083-5.502-9.068l-52.506-12.85-9.685-57.978 18.593-15.075c3.218-2.609 3.711-7.332 1.103-10.549s-7.332-3.71-10.55-1.102l-42.342 34.331c-2.991 2.427-7.303 2.202-10.026-.522l-48.659-48.66c-3.458-3.458-5.291-8.053-5.164-12.941.128-4.887 2.199-9.381 5.832-12.653 6.979-6.287 17.649-6.008 24.291.634l31.359 31.359c2.591 2.591 6.672 2.93 9.656.805l71.256-50.77 12.96 18.555-21.973 17.815c-3.218 2.609-3.711 7.332-1.103 10.549s7.332 3.711 10.55 1.102l23.782-19.283c1.38-1.119 2.449-2.488 3.217-3.988l13.334-11.135c4.384-3.799 7.104-9.073 7.661-14.85l2.987-31.072c.471-4.899-1.157-9.799-4.468-13.442-3.31-3.643-8.03-5.732-12.952-5.732h-.916c-3.131 0-6.169.864-8.813 2.407-.315-.413-.642-.819-.994-1.206-3.542-3.899-8.595-6.135-13.863-6.135-6.828 0-13.116 3.715-16.409 9.696l-10.943 19.873c-3.237-.499-6.478.26-9.152 2.164-.001 0-.001.001-.002.001l-34.662 24.696c-8.268-18.573-24.631-32.685-44.672-37.897v-24.083h1.836 2.662v-.1c20.508-1.375 36.776-18.488 36.776-39.339v-75.823l9.169-25.155c1.955-5.361 1.168-11.353-2.104-16.027-3.271-4.675-8.632-7.466-14.338-7.466h-50.746c-10.269-9.178-23.376-14.204-37.259-14.204-14.957 0-29.02 5.825-39.596 16.401-21.119 21.12-21.806 55.049-2.067 77.005v45.269c0 17.437 11.379 32.257 27.099 37.45v19.326c-2.983 1.26-5.797 2.963-8.332 5.103-7.33 6.189-11.534 15.24-11.534 24.833v222.233l-14.459 17.613c-1.193 1.453-2.875 2.4-4.736 2.666l-23.428 3.347c-9.708 1.387-18.002 7.905-21.645 17.011l-3.498 8.743h-21.052c-4.143 0-7.5 3.358-7.5 7.5s3.357 7.5 7.5 7.5h435.504c4.143 0 7.5-3.358 7.5-7.5s-3.357-7.5-7.5-7.5zm-120.876-292.205c.451-.739 1.269-1.198 2.135-1.198h.916c.963 0 1.572.513 1.851.819.277.306.73.962.638 1.92l-2.987 31.071c-.186 1.926-1.092 3.685-2.554 4.951l-6.886 5.968-10.495-15.028zm-24.805-4.201c.655-1.191 1.908-1.932 3.269-1.932 1.437 0 2.347.766 2.762 1.222.414.457 1.09 1.436.952 2.866l-.281 2.92-11.251 18.449c-2.21-.179-4.398.228-6.381 1.181l-1.495-2.141zm-26.588 28.484 3.335 4.775-38.873 27.697-.861-5.154c-.068-.41-.153-.814-.229-1.221zm-100.983-29.692-35.483-6.037c-1.027-.175-2.057-.29-3.085-.366v-14.869h38.568zm41.274-60.711c0 13.476-10.963 24.438-24.438 24.438h-45.727v-31.03c0-5.438-3.401-10.248-8.464-11.969-4.778-1.625-7.988-6.103-7.988-11.142v-.296c0-5.553 3.995-10.217 9.568-11.263h15.976c4.326 0 8.283-2.187 10.585-5.85l15.68-24.954h34.809v72.066zm-34.078-73.229.005-.007c-.002.003-.003.005-.005.007zm-80.006 13.749c-10.962-15.959-9.356-38.014 4.817-52.188 7.743-7.743 18.038-12.007 28.989-12.007 8.407 0 16.428 2.513 23.204 7.185zm7.143 59.48v-45.41l64.062-64.061h50.607c1.133 0 1.77.668 2.049 1.067.278.398.688 1.225.3 2.29l-6.943 19.048h-39.323c-4.325 0-8.282 2.187-10.584 5.849l-15.68 24.955h-15.763l-.545.081c-13.243 1.958-22.855 12.97-22.855 26.183v.296c0 10.853 6.54 20.559 16.452 24.698v29.296c-12.228-1.333-21.777-11.716-21.777-24.292zm-59.377 358.325 1.27-3.173c1.655-4.139 5.426-7.102 9.838-7.732l23.428-3.347c5.584-.797 10.63-3.638 14.209-7.998l13.912-16.946h36.032l-17.817 39.196z"/><path d="m219 118.5c4.143 0 7.5-3.358 7.5-7.5v-15c0-4.142-3.357-7.5-7.5-7.5s-7.5 3.358-7.5 7.5v15c0 4.142 3.357 7.5 7.5 7.5z"/></g></g></svg>