<svg id="Capa_1" enable-background="new 0 0 512 512" height="512" viewBox="0 0 512 512" width="512" xmlns="http://www.w3.org/2000/svg"><g><g><g><path d="m7.494 256c0 137.244 111.262 248.506 248.506 248.506s248.505-111.262 248.505-248.506-111.261-248.506-248.505-248.506-248.506 111.262-248.506 248.506zm410.672 121.197c-2.449 3.273-7.211 3.649-10.101.759l-274.022-274.021c-2.89-2.89-2.513-7.653.759-10.101 33.793-25.285 75.746-40.268 121.194-40.268 111.68-.002 202.439 90.756 202.438 202.436 0 45.448-14.983 87.402-40.268 121.195zm-364.601-121.199c0-45.449 14.984-87.402 40.269-121.195 2.449-3.273 7.211-3.649 10.101-.759l274.021 274.021c2.89 2.89 2.513 7.653-.759 10.101-33.793 25.285-75.746 40.268-121.195 40.268-111.679.002-202.437-90.756-202.437-202.436z" fill="#fd8087"/></g><g><path d="m330.541 18.872c90.364 37.2 153.986 126.126 153.986 229.905 0 137.244-111.262 248.506-248.506 248.506-25.912 0-50.886-3.966-74.371-11.318 29.089 11.947 60.955 18.54 94.35 18.54 137.244 0 248.506-111.261 248.506-248.506-.001-111.271-73.143-205.47-173.965-237.127z" fill="#fe646f"/></g></g><g><path d="m283.615 137.663c23.436-39.977 78.023-7.883 91.698 25.336 7.204 17.5 9.064 36.371 6.223 55.348-1.768 11.812-5.126 23.248-7.63 34.895-4.115 19.145-5.915 38.905-5.334 58.581 1.087 36.852.078 82.823-44.426 81.045-21.347-.852-35.251-20.657-34.715-43.106.595-24.938 1.19-49.876 1.785-74.813.543-22.77-3.489-40.816-8.901-62.623-5.349-21.547-10.705-54.184 1.3-74.663z" fill="#ade194"/></g><g><path d="m228.385 137.663c-23.436-39.977-78.023-7.883-91.698 25.336-7.204 17.5-9.064 36.371-6.223 55.348 1.768 11.812 5.127 23.248 7.63 34.895 4.115 19.145 5.915 38.905 5.334 58.581-1.087 36.852-.078 82.823 44.426 81.045 21.347-.852 35.251-20.657 34.715-43.106-.595-24.938-1.19-49.876-1.785-74.813-.543-22.77 3.489-40.816 8.901-62.623 5.349-21.547 10.705-54.184-1.3-74.663z" fill="#ade194"/></g><g><path d="m381.536 218.35c-1.768 11.807-5.124 23.245-7.632 34.893-4.116 19.14-5.914 38.909-5.334 58.578 1.089 36.851.08 82.822-44.423 81.044-2.188-.09-4.295-.37-6.313-.839 32.625-6.463 33.345-47.03 32.366-80.205-.579-19.669 1.219-39.438 5.334-58.578 2.497-11.648 5.864-23.085 7.632-34.893 2.837-18.98.979-37.85-6.223-55.351-7.952-19.329-29.768-38.269-51.236-42.864 25.912-6.453 59.327 17.891 69.606 42.864 7.202 17.501 9.06 36.371 6.223 55.351z" fill="#97da7b"/></g><g><path d="m229.688 212.326c-5.414 21.807-9.45 39.858-8.9 62.623.589 24.934 1.189 49.877 1.778 74.81.539 22.446-13.366 42.255-34.713 43.104-4.435.18-8.441-.12-12.047-.839 17.721-4.096 28.869-22.116 28.39-42.265-.599-24.933-1.189-49.877-1.788-74.81-.539-22.766 3.496-40.817 8.901-62.623 5.354-21.547 10.709-54.182-1.299-74.661-5.814-9.919-13.536-15.394-22.086-17.531 15.424-3.296 30.667.819 40.467 17.531 11.996 20.479 6.641 53.114 1.297 74.661z" fill="#97da7b"/></g><g><g><path d="m352.096 291.355c-3.958-4.638-3.839-11.526.326-15.979 9.821-10.501 14.223-20.931 13.102-31.095-2.142-19.414-23.755-36.878-36.736-45.088-12.993 8.218-34.596 25.678-36.737 45.088-1.121 10.165 3.281 20.594 13.101 31.095 4.165 4.453 4.284 11.341.326 15.979-4.676 5.479-13.068 5.624-17.987.362-14.801-15.835-21.3-32.663-19.342-50.159 1.928-17.224 11.969-33.822 29.843-49.333 12.605-10.938 24.695-17.338 25.204-17.605 3.5-1.839 7.684-1.839 11.184 0 .509.267 12.6 6.667 25.204 17.605 17.874 15.511 27.915 32.11 29.843 49.333 1.959 17.497-4.542 34.325-19.342 50.16-4.921 5.261-13.312 5.116-17.989-.363z" fill="#f9f3f1"/></g></g><g><g><path d="m370.079 291.712c-4.535 4.855-12.017 5.115-16.822.829.3-.26.579-.539.859-.829 14.804-15.833 24.105-32.051 22.148-49.553-1.928-17.222-14.775-34.428-32.646-49.931-9.44-8.191-18.59-13.835-22.806-16.273 1.409-.819 2.258-1.269 2.387-1.339 3.496-1.838 7.682-1.838 11.178 0 .509.27 12.607 6.673 25.203 17.611 17.881 15.504 27.92 32.106 29.848 49.328 1.958 17.502-4.545 34.324-19.349 50.157z" fill="#efe2dd"/></g></g><g><g><path d="m159.904 291.355c3.958-4.638 3.839-11.526-.326-15.979-9.821-10.501-14.223-20.931-13.102-31.095 2.142-19.414 23.755-36.878 36.736-45.088 12.993 8.218 34.596 25.678 36.737 45.088 1.121 10.165-3.281 20.594-13.101 31.095-4.164 4.453-4.284 11.341-.326 15.979 4.676 5.479 13.068 5.624 17.987.362 14.801-15.835 21.301-32.663 19.342-50.159-1.928-17.224-11.969-33.822-29.843-49.333-12.605-10.938-24.695-17.338-25.204-17.605-3.5-1.839-7.684-1.839-11.184 0-.509.267-12.6 6.667-25.204 17.605-17.874 15.511-27.915 32.11-29.843 49.333-1.959 17.497 4.542 34.325 19.342 50.16 4.921 5.261 13.312 5.116 17.989-.363z" fill="#f9f3f1"/></g></g><g><g><path d="m224.503 291.712c-4.535 4.855-12.017 5.115-16.822.829.3-.26.579-.539.859-.829 14.804-15.833 24.105-32.051 22.148-49.553-1.928-17.222-14.775-34.428-32.646-49.931-9.44-8.191-18.59-13.835-22.806-16.273 1.409-.819 2.258-1.269 2.387-1.339 3.496-1.838 7.682-1.838 11.178 0 .509.27 12.607 6.673 25.203 17.611 17.881 15.504 27.92 32.106 29.848 49.328 1.958 17.502-4.545 34.324-19.349 50.157z" fill="#efe2dd"/></g></g><g><path d="m437.019 74.981c-48.352-48.352-112.639-74.981-181.019-74.981-36.319 0-71.416 7.453-104.316 22.15-31.779 14.197-59.926 34.404-83.657 60.06-2.809 3.037-2.625 7.777.413 10.587 3.036 2.809 7.777 2.625 10.587-.413 22.348-24.16 48.85-43.188 78.769-56.554 30.964-13.831 64.005-20.845 98.204-20.845 64.378 0 124.902 25.07 170.424 70.592s70.592 106.046 70.592 170.424-25.07 124.902-70.592 170.424-106.046 70.59-170.424 70.59-124.902-25.07-170.424-70.592c-45.522-45.521-70.592-106.045-70.592-170.423 0-49.418 14.845-96.909 42.931-137.339 2.361-3.398 1.52-8.067-1.878-10.427-3.4-2.362-8.069-1.52-10.427 1.879-29.839 42.952-45.61 93.399-45.61 145.887 0 68.38 26.629 132.667 74.981 181.019s112.639 74.981 181.019 74.981 132.667-26.628 181.019-74.981c48.352-48.352 74.981-112.639 74.981-181.019s-26.629-132.667-74.981-181.019z"/><path d="m402.767 383.254c2.664 2.665 6.264 4.145 10.004 4.145.337 0 .674-.012 1.013-.036 4.119-.295 7.903-2.364 10.382-5.678 27.321-36.514 41.761-79.974 41.762-125.684 0-56.015-21.853-108.716-61.534-148.396-39.68-39.68-92.382-61.533-148.396-61.532-45.709.001-89.17 14.442-125.683 41.762-3.313 2.479-5.383 6.262-5.677 10.381-.294 4.097 1.205 8.113 4.109 11.017l8.204 8.205c2.926 2.926 7.67 2.926 10.595 0 2.927-2.926 2.927-7.67.001-10.596l-7.541-7.541c33.754-25.021 73.842-38.242 115.992-38.243 52.012-.001 100.95 20.293 137.801 57.143s57.145 85.789 57.145 137.801c-.001 42.15-13.223 82.24-38.244 115.994l-7.953-7.954c-2.926-2.926-7.67-2.926-10.595 0-2.927 2.926-2.927 7.669-.001 10.595z"/><path d="m109.233 128.746c-2.904-2.905-6.92-4.403-11.017-4.109-4.119.295-7.903 2.364-10.382 5.678-27.321 36.514-41.761 79.974-41.762 125.684 0 56.015 21.853 108.716 61.533 148.396s92.382 61.533 148.397 61.532c45.709 0 89.17-14.442 125.683-41.762 3.313-2.479 5.383-6.262 5.677-10.381.294-4.097-1.205-8.113-4.109-11.017l-8.204-8.205c-2.926-2.926-7.67-2.926-10.595 0-2.927 2.926-2.927 7.67-.001 10.596l7.541 7.541c-33.754 25.022-73.842 38.243-115.992 38.243-52.012 0-100.951-20.293-137.802-57.143s-57.144-85.789-57.144-137.801c.001-42.15 13.223-82.24 38.244-115.994l9.047 9.046c2.925 2.927 7.668 2.926 10.595 0 2.926-2.926 2.926-7.67-.001-10.595z"/><path d="m396.871 240.724c-.917-8.195-3.449-16.218-7.546-24.033 2.004-15.754.918-31.056-3.244-45.525-1.145-3.977-5.299-6.273-9.271-5.128-3.977 1.144-6.272 5.295-5.129 9.271 2.01 6.986 3.169 14.22 3.51 21.635-3.223-3.515-6.777-6.978-10.696-10.379-13.298-11.54-26.1-18.3-26.631-18.579-5.683-2.986-12.469-2.986-18.145-.004-.539.282-13.337 7.041-26.639 18.583-2.512 2.18-4.875 4.386-7.101 6.614-3.793-22.871-2.436-40.577 4.1-51.727 5.154-8.791 12.263-13.737 21.131-14.701 13.917-1.515 32.209 7.129 45.515 21.505 2.81 3.035 7.549 3.221 10.587.409 3.037-2.81 3.219-7.551.409-10.587-16.625-17.961-39.449-28.257-58.131-26.223-13.646 1.483-24.862 9.097-32.437 22.019-9.667 16.489-10.857 41.383-3.569 74.047-7.286 10.542-11.617 21.509-12.881 32.802-2.209 19.736 4.962 38.614 21.313 56.109.367.392.761.753 1.156 1.111 0 0-1.232 51.638-1.232 51.641-.264 11.068 2.7 22.351 8.812 31.622 13.611 20.65 43.064 25.571 63.298 11.233 1.731-1.227 3.366-2.59 4.874-4.083 17.394-17.213 17.965-48.644 17.137-76.755-.152-5.134-.129-10.267.055-15.392 15.945-17.319 22.938-35.982 20.755-55.485zm-48.487 136.982c-5.641 5.583-13.462 8.093-23.939 7.675-16.158-.645-27.992-15.881-27.524-35.441l1.121-46.984c5.074-.445 9.809-2.842 13.135-6.74 6.453-7.562 6.215-18.722-.553-25.959-8.25-8.823-11.994-17.287-11.126-25.157.997-9.043 9.272-23.231 29.29-36.942 20.017 13.71 28.291 27.898 29.289 36.942.868 7.87-2.876 16.334-11.127 25.157-6.768 7.237-7.006 18.398-.553 25.96h.001c3.6 4.218 8.845 6.709 14.391 6.834.065.002.13.001.195.002-.02 2.995.01 5.992.099 8.989.531 18.031 1.521 51.592-12.699 65.664zm16.226-91.106c-1.845 1.972-5.042 1.967-6.816-.109-1.498-1.756-1.456-4.335.1-5.997 11.374-12.161 16.446-24.621 15.078-37.035-1.129-10.227-6.603-20.669-16.272-31.034-8.797-9.43-18.754-16.305-23.907-19.564-2.445-1.546-5.564-1.547-8.009 0-5.155 3.26-15.116 10.138-23.912 19.568-9.667 10.363-15.139 20.803-16.268 31.03-1.369 12.413 3.704 24.873 15.077 37.034 1.555 1.663 1.597 4.242.098 5.998-1.737 2.036-4.996 2.052-6.815.11-13.225-14.149-19.07-29.024-17.37-44.211 1.712-15.293 10.9-30.268 27.308-44.508 11.995-10.409 23.654-16.566 23.778-16.631 1.32-.693 2.896-.693 4.222.004.116.061 11.777 6.219 23.771 16.627 16.408 14.239 25.596 29.213 27.308 44.508 1.699 15.186-4.145 30.061-17.371 44.21z"/><path d="m135.884 296.209c.184 5.125.207 10.259.056 15.393-.828 28.111-.257 59.542 17.137 76.755 17.185 17.006 48.142 16.052 64.224-1.801 9.023-10.016 13.076-23.644 12.759-36.971 0 0-1.232-51.639-1.232-51.639.395-.359.789-.72 1.156-1.113 16.351-17.494 23.522-36.372 21.313-56.108-1.264-11.293-5.594-22.259-12.881-32.802 7.288-32.664 6.098-57.559-3.569-74.048-9.085-15.499-23.569-23.375-40.852-22.163-25.15 1.76-53.967 23.488-64.237 48.436-7.245 17.603-9.614 36.61-7.076 56.53-4.101 7.818-6.635 15.846-7.553 24.045-2.183 19.503 4.81 38.166 20.755 55.486zm7.731-130.358c8.178-19.866 31.729-37.814 51.427-39.192 11.519-.806 21.101 4.936 26.879 14.793 6.536 11.148 7.891 28.855 4.099 51.724-2.226-2.227-4.588-4.432-7.099-6.612-13.301-11.542-26.1-18.3-26.631-18.579-5.685-2.986-12.47-2.986-18.145-.004-.539.282-13.34 7.042-26.639 18.583-3.93 3.411-7.493 6.884-10.723 10.409.492-10.839 2.769-21.253 6.832-31.122zm-13.595 76.539c1.712-15.295 10.9-30.269 27.308-44.508 11.993-10.408 23.655-16.566 23.778-16.631 1.32-.693 2.896-.693 4.222.004.116.061 11.776 6.218 23.771 16.627 16.408 14.24 25.596 29.215 27.308 44.508 1.699 15.186-4.145 30.061-17.37 44.21-1.832 1.96-5.051 1.958-6.815-.109-1.498-1.756-1.457-4.335.098-5.998 11.373-12.161 16.446-24.621 15.077-37.034-1.129-10.227-6.601-20.666-16.268-31.03-8.796-9.43-18.757-16.308-23.912-19.568-2.445-1.547-5.564-1.547-8.009 0-4.245 2.685-12.555 8.346-20.519 16.105-2.964 2.887-3.026 7.631-.138 10.594 2.885 2.963 7.63 3.027 10.594.139 4.997-4.868 10.172-8.809 14.085-11.527 20.004 13.707 28.276 27.89 29.273 36.93.868 7.87-2.876 16.334-11.126 25.157-6.768 7.237-7.006 18.397-.553 25.959 3.327 3.897 8.061 6.294 13.135 6.74l1.121 46.984c.467 19.56-11.367 34.796-27.524 35.441-10.461.416-18.298-2.093-23.939-7.675-14.22-14.072-13.23-47.633-12.698-65.663.088-2.997.105-5.993.087-8.988.069-.001.138-.001.207-.003 5.546-.125 10.791-2.616 14.392-6.835 6.453-7.562 6.215-18.722-.553-25.96-8.251-8.823-11.995-17.286-11.127-25.156.454-4.113-2.513-7.815-6.626-8.268-4.12-.467-7.815 2.513-8.269 6.625-1.369 12.414 3.704 24.873 15.078 37.034 1.555 1.663 1.598 4.242.1 5.998-1.74 2.038-4.994 2.058-6.816.109-13.228-14.15-19.072-29.025-17.372-44.211z"/></g></g></svg>