<svg id="Capa_1" enable-background="new 0 0 512 512" height="512" viewBox="0 0 512 512" width="512" xmlns="http://www.w3.org/2000/svg"><g><path d="m379.519 7.5h30.616v43.903h-30.616z" fill="#cbc4cc"/><path d="m379.519 7.5h13.006v43.903h-13.006z" fill="#b5adb6"/><path d="m427.177 101.082v-44.679c0-2.762-2.239-5-5-5h-54.699c-2.761 0-5 2.238-5 5v44.679z" fill="#d8aa5e"/><path d="m382.827 101.082v-44.679c0-2.762 2.239-5 5-5h-20.349c-2.762 0-5 2.238-5 5v44.679z" fill="#c99c56"/><g><path d="m267.724 131.082v62.048c0 2.761 2.239 5 5 5h54.699c2.761 0 5-2.239 5-5v-22.349c0-2.761 2.238-5 5-5h152.052c2.761 0 5-2.239 5-5v-54.699c0-2.761-2.239-5-5-5h-191.75c-16.569 0-30.001 13.431-30.001 30z" fill="#cbc4cc"/></g><g><path d="m302.525 193.13v-62.048c0-16.568 13.432-30 30-30h-34.801c-16.569 0-30 13.432-30 30v62.048c0 2.761 2.239 5 5 5h34.801c-2.761 0-5-2.239-5-5z" fill="#b5adb6"/></g><g><path d="m297.361 315.5-15.889 27.521c-8.217 14.232 2.054 32.021 18.487 32.021 16.433 0 26.704-17.79 18.487-32.021l-15.888-27.521c-1.155-2-4.042-2-5.197 0z" fill="#8ac9fe"/></g><g><path d="m302.417 343.021 8.015-13.882-7.875-13.639c-1.155-2-4.042-2-5.196 0l-15.889 27.521c-8.217 14.232 2.054 32.021 18.487 32.021 3.894 0 7.435-1.008 10.473-2.721-9.783-5.518-14.285-18.44-8.015-29.3z" fill="#60b7ff"/></g><g><path d="m359.054 273.5-12.212 21.152c-6.582 11.401 1.646 25.652 14.81 25.652 13.165 0 21.393-14.251 14.81-25.652l-12.212-21.152c-1.154-2-4.041-2-5.196 0z" fill="#8ac9fe"/></g><g><path d="m362.842 294.652 6.81-11.796-5.402-9.356c-1.155-2-4.042-2-5.196 0l-12.212 21.152c-6.582 11.401 1.646 25.652 14.81 25.652 2.953 0 5.655-.722 8-1.963-8.108-4.292-11.916-14.846-6.81-23.689z" fill="#60b7ff"/></g><g><path d="m438.283 408.316c-3.524-11.277-15.595-17.488-26.819-13.8l-80.159 26.338c-3.058-7.091-10.106-12.058-18.319-12.058h-50.913c-8.124-21.472-28.865-36.744-53.182-36.744h-15.014-35.351v111.191l95.804 20.363c11.782 2.084 23.921.458 34.739-4.653l139.277-65.805c8.781-4.873 12.933-15.245 9.937-24.832z" fill="#ea9b58"/><path d="m438.283 408.316c-.438-1.4-1.007-2.722-1.69-3.957-1.871 3.391-4.666 6.301-8.249 8.288l-139.276 65.805c-10.818 5.111-22.957 6.737-34.739 4.653l-95.804-20.364v20.5l95.804 20.363c11.782 2.084 23.921.458 34.739-4.653l139.276-65.805c8.783-4.871 12.935-15.243 9.939-24.83z" fill="#d88a55"/><g><g><path d="m153.68 504.489h-131.309c-2.676 0-4.845-2.169-4.845-4.845v-156.542c0-2.676 2.169-4.845 4.845-4.845h131.309c2.676 0 4.845 2.169 4.845 4.845v156.542c0 2.675-2.169 4.845-4.845 4.845z" fill="#80d261"/></g><g><path d="m56.288 474.969c-2.676 0-4.845-2.169-4.845-4.845v-131.868h-29.072c-2.676 0-4.845 2.169-4.845 4.845v156.542c0 2.676 2.169 4.845 4.845 4.845h131.309c2.676 0 4.845-2.169 4.845-4.845v-24.675h-102.237z" fill="#4fc123"/></g></g></g><g><circle cx="268.5" cy="284.5" r="7.5"/><circle cx="238.5" cy="315.5" r="7.5"/><circle cx="348.5" cy="364.5" r="7.5"/><circle cx="309.5" cy="224.5" r="7.5"/><path d="m489.475 93.582h-54.798v-37.179c0-6.893-5.607-12.5-12.5-12.5h-4.541v-28.903h26.004c4.143 0 7.5-3.358 7.5-7.5s-3.357-7.5-7.5-7.5h-97.625c-4.143 0-7.5 3.358-7.5 7.5s3.357 7.5 7.5 7.5h26.005v28.903h-4.542c-6.893 0-12.5 5.607-12.5 12.5v37.179h-57.253c-20.678 0-37.5 16.822-37.5 37.5v62.048c0 6.893 5.607 12.5 12.5 12.5h54.698c6.893 0 12.5-5.607 12.5-12.5v-19.849h76.603c4.143 0 7.5-3.358 7.5-7.5s-3.357-7.5-7.5-7.5h-79.103c-6.893 0-12.5 5.607-12.5 12.5v19.849h-49.698v-59.548c0-12.407 10.094-22.5 22.5-22.5h189.25v49.699h-35.449c-4.143 0-7.5 3.358-7.5 7.5s3.357 7.5 7.5 7.5h37.949c6.893 0 12.5-5.607 12.5-12.5v-54.699c0-6.893-5.608-12.5-12.5-12.5zm-102.455-78.582h15.616v28.903h-15.616zm-17.042 43.903h49.699v34.679h-49.699z"/><path d="m274.977 368.119c5.215 9.032 14.554 14.424 24.982 14.424s19.768-5.392 24.982-14.423c5.215-9.032 5.215-19.816.001-28.848l-15.889-27.52c-1.87-3.239-5.354-5.251-9.094-5.251s-7.225 2.012-9.094 5.25l-15.89 27.521c-5.213 9.031-5.213 19.815.002 28.847zm12.99-21.348 11.992-20.771 11.993 20.771c2.503 4.336 2.503 9.513-.001 13.849-2.503 4.335-6.986 6.923-11.992 6.923s-9.489-2.588-11.992-6.924-2.503-9.513 0-13.848z"/><path d="m382.958 315.504c4.447-7.702 4.447-16.899 0-24.602l-12.212-21.151c-1.869-3.238-5.353-5.25-9.092-5.251-.001 0-.001 0-.002 0-3.738 0-7.223 2.011-9.093 5.249l-12.213 21.154c-4.447 7.703-4.447 16.899 0 24.602s12.412 12.3 21.306 12.3 16.859-4.599 21.306-12.301zm-29.621-7.501c-.833-1.443-2.501-5.268 0-9.601l8.315-14.402 8.315 14.402c2.501 4.333.833 8.158 0 9.601-.834 1.443-3.313 4.801-8.315 4.801s-7.481-3.357-8.315-4.801z"/><path d="m293.332 244.744v-22.896c0-4.142-3.357-7.5-7.5-7.5s-7.5 3.358-7.5 7.5v22.896c0 4.142 3.357 7.5 7.5 7.5s7.5-3.358 7.5-7.5z"/><path d="m309.4 254.105v22.895c0 4.142 3.357 7.5 7.5 7.5s7.5-3.358 7.5-7.5v-22.895c0-4.142-3.357-7.5-7.5-7.5s-7.5 3.358-7.5 7.5z"/><path d="m431.193 389.136c-6.881-3.542-14.719-4.161-22.069-1.745l-20.625 6.777c-3.936 1.293-6.077 5.531-4.784 9.466 1.292 3.935 5.527 6.079 9.466 4.784l20.625-6.777c3.508-1.152 7.243-.855 10.524.832 3.281 1.688 5.694 4.558 6.795 8.08 1.903 6.091-.714 12.753-6.229 15.929l-139.032 65.689c-9.427 4.455-19.832 5.86-30.104 4.071l-89.733-19.073v-97.617h42.865c20.396 0 38.949 12.819 46.168 31.898l1.833 4.846h56.095c6.863 0 12.447 5.583 12.447 12.447s-5.584 12.447-12.447 12.447h-114.988c-4.143 0-7.5 3.358-7.5 7.5s3.357 7.5 7.5 7.5h114.986c15.135 0 27.447-12.313 27.447-27.447 0-.994-.056-1.974-.16-2.941l19.551-6.424c3.936-1.293 6.077-5.531 4.784-9.466-1.292-3.934-5.527-6.078-9.466-4.784l-20.53 6.746c-5.028-6.431-12.85-10.577-21.627-10.577h-45.966c-10.568-22.177-33.302-36.744-58.13-36.744h-42.865v-21.45c0-6.807-5.538-12.345-12.346-12.345h-41.678c-4.143 0-7.5 3.358-7.5 7.5s3.357 7.5 7.5 7.5h39.025v151.232h-126v-151.234h51.975c4.143 0 7.5-3.358 7.5-7.5s-3.357-7.5-7.5-7.5h-54.629c-6.808 0-12.346 5.538-12.346 12.345v156.542c0 6.807 5.538 12.345 12.346 12.345h131.309c6.808 0 12.346-5.538 12.346-12.345v-7.14l86.744 18.438.254.049c3.812.674 7.637 1.009 11.445 1.009 9.565 0 19.013-2.113 27.803-6.267l139.276-65.805.434-.223c11.837-6.566 17.498-20.708 13.46-33.627-2.308-7.384-7.368-13.401-14.249-16.941z"/></g></g></svg>