<svg id="Capa_1" enable-background="new 0 0 512 512" height="512" viewBox="0 0 512 512" width="512" xmlns="http://www.w3.org/2000/svg"><g><g fill="#f6a96c"><path d="m381.849 327.739-11.21-19.417h-37.756l30.088 52.114z"/><path d="m400.727 360.436-18.878 32.698 28.318 49.047h37.755z"/></g><g fill="#f6a96c"><path d="m219.694 308.322h-37.756l30.089 52.114 18.878-32.697z"/><path d="m249.783 360.436-18.878 32.698 28.317 49.047h37.756z"/></g><path d="m446.358 69.819h-291.402v2.706c26.177 11.616 45.791 59.379 45.791 116.546s-19.614 104.93-45.791 116.546v2.706h87.159l16.38-28.371c.917-1.589 2.613-2.568 4.448-2.568h25.895c3.954 0 6.425 4.28 4.448 7.704l-13.415 23.235h113.189l16.38-28.371c.917-1.589 2.613-2.568 4.448-2.568h25.895c3.954 0 6.425 4.28 4.448 7.704l-13.415 23.235h15.542c32.111 0 58.142-53.391 58.142-119.251s-26.031-119.253-58.142-119.253z" fill="#fd8087"/><path d="m258.496 279.951c.917-1.589 2.613-2.568 4.448-2.568h2.848c11.715-21.816 19.071-53.302 19.071-88.312 0-65.861-26.031-119.251-58.142-119.251h-29.858c32.111 0 58.142 53.391 58.142 119.251s-26.031 119.251-58.142 119.251h29.858c6.756 0 13.242-2.372 19.274-6.718z" fill="#fe646f"/><g><path d="m446.358 69.819h-62.865c32.111 0 58.142 53.391 58.142 119.251 0 35.01-7.356 66.497-19.071 88.312h17.219c3.954 0 6.425 4.28 4.448 7.704l-13.415 23.235h15.542c32.111 0 58.142-53.391 58.142-119.251s-26.031-119.251-58.142-119.251z" fill="#80d261"/></g><path d="m196.862 69.819h-54.257c32.111 0 58.142 53.391 58.142 119.251 0 65.861-26.031 119.251-58.142 119.251h54.257c32.111 0 58.142-53.391 58.142-119.251s-26.03-119.251-58.142-119.251z" fill="#80d261"/><g><path d="m142.605 69.819c-7.299 0-14.282 2.767-20.718 7.803 12.171 7.352 16.276 23.122 9.134 35.493l-16.065 27.825c-5.772 9.998-17.141 14.741-27.864 12.572-1.708 11.231-2.629 23.173-2.629 35.558 0 56.01 18.828 102.993 44.211 115.796v-51.711c-10.301-3.522-17.711-13.28-17.711-24.775v-32.13c0-14.461 11.723-26.184 26.184-26.184h7.67c14.461 0 26.184 11.723 26.184 26.184v32.13c0 11.495-7.41 21.253-17.712 24.775h.001v53.149c27.008-10.289 47.459-58.86 47.459-117.235-.002-65.859-26.033-119.25-58.144-119.25z" fill="#d8aa5e"/></g><g><path d="m134.494 101.337c6.665-12.584 14.761-22.03 23.737-27.155-4.973-2.839-10.212-4.362-15.626-4.362-7.299 0-14.282 2.767-20.718 7.803 8.506 5.138 13.068 14.385 12.607 23.714z" fill="#c99c56"/><g><path d="m128.673 264.086c-1.62-4.098-3.11-8.417-4.457-12.938-7.914-4.504-13.255-13.009-13.255-22.766v-32.13c0-5.683 1.816-10.938 4.892-15.23.705-21.625 4.219-41.667 9.802-58.614l-10.7 18.533c-5.772 9.998-17.141 14.741-27.864 12.572-1.708 11.231-2.629 23.173-2.629 35.558 0 56.01 18.828 102.993 44.211 115.796z" fill="#c99c56"/></g></g><g><path d="m144.816 254.566h-7.67c-2.966 0-5.814-.5-8.473-1.409v113.536c0 6.797 5.51 12.308 12.308 12.308 6.797 0 12.308-5.51 12.308-12.308v-113.537c-2.659.909-5.507 1.41-8.473 1.41z" fill="#d88a55"/><path d="m140.384 366.692v-112.126h-3.238c-2.966 0-5.814-.5-8.473-1.409v113.536c0 6.797 5.51 12.308 12.308 12.308 2.12 0 4.114-.536 5.856-1.48-3.843-2.084-6.453-6.151-6.453-10.829z" fill="#c57a44"/><g><path d="m144.816 254.566h-7.67c-14.461 0-26.184-11.723-26.184-26.184v-32.13c0-14.461 11.723-26.184 26.184-26.184h7.67c14.461 0 26.184 11.723 26.184 26.184v32.13c0 14.461-11.723 26.184-26.184 26.184z" fill="#554e56"/></g><g><path d="m134.269 228.382v-32.13c0-11.738 7.724-21.671 18.365-24.996-2.469-.772-5.095-1.188-7.819-1.188h-7.67c-14.461 0-26.184 11.723-26.184 26.184v32.13c0 14.461 11.723 26.184 26.184 26.184h7.67c2.723 0 5.35-.417 7.819-1.188-10.641-3.326-18.365-13.259-18.365-24.996z" fill="#433f43"/></g></g><g><path d="m79.188 150.524-6.642-3.835c-2.569-1.483-4.785-3.341-6.633-5.457l-56.768 98.325c-3.399 5.887-1.382 13.414 4.505 16.813s13.414 1.382 16.813-4.505l56.768-98.325c-2.757-.542-5.474-1.532-8.043-3.016z" fill="#d88a55"/><path d="m20.717 244.397 55.266-95.723-3.437-1.984c-2.569-1.483-4.785-3.341-6.633-5.457l-56.768 98.324c-3.399 5.887-1.382 13.414 4.505 16.813 2.47 1.426 5.227 1.887 7.848 1.521-2.836-3.821-3.311-9.111-.781-13.494z" fill="#c57a44"/><g><path d="m79.188 150.524-6.642-3.835c-12.524-7.231-16.815-23.244-9.584-35.768l16.065-27.825c7.231-12.524 23.244-16.815 35.768-9.584l6.642 3.835c12.524 7.231 16.815 23.244 9.584 35.768l-16.065 27.825c-7.23 12.524-23.244 16.815-35.768 9.584z" fill="#554e56"/></g><g><path d="m85.543 122.886 16.065-27.825c5.418-9.385 15.769-14.146 25.887-12.901-1.727-1.851-3.752-3.482-6.058-4.813l-6.642-3.835c-12.524-7.231-28.538-2.94-35.768 9.584l-16.065 27.825c-7.231 12.524-2.94 28.537 9.584 35.768l6.642 3.835c3.139 1.812 6.497 2.9 9.881 3.317-7.653-8.199-9.425-20.737-3.526-30.955z" fill="#433f43"/></g></g><g><path d="m258.496 279.951-93.664 162.23h37.756l90.699-157.094c1.977-3.424-.494-7.704-4.448-7.704h-25.895c-1.836 0-3.531.979-4.448 2.568z" fill="#d88a55"/></g><g><path d="m281.961 277.383h-19.018c-1.835 0-3.53.979-4.448 2.568l-93.664 162.23h19.018l93.664-162.23c.918-1.589 2.614-2.568 4.448-2.568z" fill="#c57a44"/></g><g><path d="m409.44 279.951-93.664 162.23h37.756l90.699-157.094c1.977-3.424-.494-7.704-4.448-7.704h-25.895c-1.835 0-3.531.979-4.448 2.568z" fill="#d88a55"/></g><g><path d="m432.961 277.383h-19.074c-1.835 0-3.53.979-4.448 2.568l-93.664 162.23h19.074l93.664-162.23c.918-1.589 2.614-2.568 4.448-2.568z" fill="#c57a44"/></g><g><circle cx="203.539" cy="94.221" r="7.5"/><circle cx="219.974" cy="132.226" r="7.5"/><circle cx="227.164" cy="170.231" r="7.5"/><circle cx="228.191" cy="208.237" r="7.5"/><circle cx="219.974" cy="246.242" r="7.5"/><circle cx="202.512" cy="284.247" r="7.5"/><circle cx="445.951" cy="94.221" r="7.5"/><circle cx="462.386" cy="132.226" r="7.5"/><circle cx="471.631" cy="170.231" r="7.5"/><circle cx="472.658" cy="208.237" r="7.5"/><circle cx="462.386" cy="246.242" r="7.5"/><path d="m504.5 434.681h-52.248l-15.06-26.085c-2.071-3.588-6.658-4.815-10.245-2.745-3.587 2.071-4.816 6.658-2.745 10.245l10.73 18.585h-20.436l-23.987-41.547 10.218-17.698 5.975 10.349c2.072 3.588 6.658 4.815 10.245 2.745 3.587-2.071 4.816-6.658 2.745-10.245l-10.305-17.849 25.759-44.615h11.212c36.809 0 65.642-55.676 65.642-126.751s-28.834-126.751-65.642-126.751h-80.358c-4.142 0-7.5 3.357-7.5 7.5s3.358 7.5 7.5 7.5h17.493c.866 0 1.733.061 2.6.171-1.9 10.392-9.178 44.159-29.271 83.597-1.052 2.064-2.129 4.108-3.219 6.142-14.035-17.193-30.557-33.374-49.409-48.326-23.757-18.842-47.019-32.49-64.768-41.584h91.574c4.142 0 7.5-3.357 7.5-7.5s-3.358-7.5-7.5-7.5h-183.544v.014l-5.469.002c-7.174.122-14.038 2.363-20.439 6.417l-3.003-1.734c-7.792-4.499-16.87-5.693-25.56-3.365-8.691 2.329-15.955 7.902-20.453 15.694l-16.065 27.825c-6.399 11.083-5.761 24.327.514 34.531l-54.331 94.105c-5.461 9.459-2.208 21.598 7.25 27.058 3.112 1.797 6.512 2.649 9.871 2.649 6.851 0 13.523-3.553 17.188-9.899l40.032-69.337c-.01.93-.027 1.856-.027 2.792 0 56.515 18.236 103.266 44.21 120.059v57.563c0 10.922 8.886 19.808 19.808 19.808s19.808-8.886 19.808-19.808v-50.871h16.819l25.759 44.615-42.865 74.244h-63.69c-4.142 0-7.5 3.357-7.5 7.5s3.358 7.5 7.5 7.5h407.687c4.142 0 7.5-3.357 7.5-7.5s-3.358-7.5-7.5-7.5zm-58.142-357.362c12.326 0 24.854 11.195 34.371 30.715 10.493 21.521 16.271 50.3 16.271 81.036s-5.778 59.516-16.271 81.036c-9.517 19.52-22.045 30.715-34.371 30.715h-2.552l6.919-11.984c2.284-3.956 2.284-8.681 0-12.637s-6.375-6.317-10.943-6.317h-5.369c8.434-19.917 13.735-45.052 14.586-72.883v-16.112c-1.431-45.362-14.682-83.567-34.052-103.568h31.411zm-75.905 90.053c18.946-37.34 26.845-69.233 29.682-83.367 6.457 5.228 12.541 13.388 17.73 24.029 10.492 21.52 16.271 50.299 16.271 81.036 0 30.633-5.742 59.317-16.167 80.812h-4.08c-3.266 0-6.36 1.288-8.677 3.478-5.79-27.795-16.501-54.262-32.054-79.002-3.007-4.783-6.206-9.499-9.569-14.152 2.365-4.217 4.66-8.491 6.864-12.834zm-15.25 26.99c1.807 2.641 3.568 5.298 5.254 7.98 17.638 28.057 28.618 58.476 32.83 90.587l-4.557 7.893h-95.868l6.919-11.984c2.284-3.956 2.284-8.68 0-12.636-2.12-3.672-5.804-5.945-9.974-6.256 9.089-7.63 17.742-15.775 25.927-24.428 14.673-15.512 27.88-32.642 39.469-51.156zm17.986 133.377-10.218 17.698-17.099-29.615h20.435zm-349.221-79.624c-1.326 2.297-4.273 3.083-6.568 1.76-1.112-.643-1.908-1.679-2.24-2.919-.333-1.24-.162-2.536.48-3.648l52.326-90.631c.276.17.548.345.83.508l6.643 3.835c.282.163.573.305.858.459zm58.97-104.086-6.643-3.835c-8.922-5.151-11.99-16.601-6.839-25.522l16.065-27.825c3.457-5.987 9.75-9.338 16.212-9.338 3.167 0 6.376.805 9.311 2.499l6.642 3.835c4.322 2.495 7.414 6.524 8.706 11.345s.629 9.855-1.866 14.178l-16.065 27.825c-5.152 8.921-16.6 11.989-25.523 6.838zm62.851 222.663c0 2.651-2.157 4.808-4.808 4.808s-4.808-2.156-4.808-4.808v-104.651c.324.009.646.025.973.025h7.67c.326 0 .649-.015.973-.025zm-.973-119.627h-7.67c-10.302 0-18.684-8.382-18.684-18.684v-32.13c0-10.302 8.382-18.684 18.684-18.684h7.67c10.302 0 18.684 8.382 18.684 18.684v32.13c0 10.303-8.382 18.684-18.684 18.684zm15.973 45.749v-34.784c10.537-5.7 17.711-16.851 17.711-29.648v-32.13c0-18.573-15.111-33.684-33.684-33.684h-7.67c-18.573 0-33.684 15.11-33.684 33.684v32.13c0 12.797 7.174 23.949 17.711 29.648v31.606c-4.668-4.997-9.056-11.564-12.939-19.53-10.493-21.52-16.271-50.3-16.271-81.036 0-9.429.559-18.663 1.619-27.568 2.478-.101 4.963-.46 7.416-1.117 8.691-2.329 15.955-7.902 20.453-15.694l16.065-27.825c4.499-7.792 5.694-16.869 3.365-25.56-1.235-4.608-3.389-8.809-6.295-12.415 2.661-1.026 5.344-1.572 8.019-1.572 12.327 0 24.854 11.195 34.372 30.715 10.493 21.521 16.271 50.3 16.271 81.036s-5.778 59.516-16.271 81.036c-4.773 9.79-10.306 17.47-16.188 22.708zm13.261 8.007c20.529-21.189 34.198-62.816 34.198-111.751 0-48.929-13.665-90.558-34.189-111.751h22.804c24.121 0 46.083 41.393 49.999 94.235.306 4.13 3.907 7.231 8.034 6.925 4.131-.306 7.231-3.903 6.925-8.034-2.138-28.849-9.319-55.447-20.222-74.947 15.615 8.531 34.359 20.155 53.275 35.157 19.674 15.604 36.662 32.569 50.76 50.629-11.862 19.751-25.61 37.91-41.039 54.182-11.959 12.612-24.96 24.102-38.91 34.416h-2.741c-4.501 0-8.694 2.422-10.944 6.319l.001-.001-2.964 5.133c-3.489 2.233-7.027 4.401-10.618 6.496 12.523-19.541 21.175-48.025 23.482-81.312.287-4.132-2.831-7.714-6.963-8.001-4.146-.284-7.715 2.831-8 6.964-3.706 53.462-25.701 95.34-50.075 95.34h-22.813zm20.879 15h20.435l6.881 11.918-10.218 17.698zm-17.107 118.86 86.487-149.798h20.435l-86.486 149.798zm37.756 0 15.327-26.547 15.327 26.547zm47.974 0-23.987-41.547 10.218-17.698 34.205 59.245zm37.756 0-42.865-74.244 25.759-44.615h44.351l25.759 44.615-42.865 74.244zm27.458 0 86.487-149.798h20.435l-86.486 149.798zm37.756 0 15.327-26.547 15.327 26.547z"/></g></g></svg>