<svg id="Capa_1" enable-background="new 0 0 512 512" height="512" viewBox="0 0 512 512" width="512" xmlns="http://www.w3.org/2000/svg"><g><g><g><path d="m166.282 152.418c-12.831-8.172-21.617-22.386-22.223-37.587-.9-22.579 16.476-42.657 39.88-40.846 30.876 2.39 41.922 38.311 64.297 55.085v23.348z" fill="#fee97d"/></g><g><path d="m345.718 152.418c12.831-8.172 21.617-22.386 22.223-37.587.9-22.579-16.476-42.657-39.88-40.846-30.876 2.39-41.922 38.311-64.297 55.085v23.348z" fill="#fee97d"/></g></g><g><g><path d="m248.238 129.075v23.345h-19.979v-23.345c-20.538-15.404-31.527-46.911-57.06-53.843 3.966-1.139 8.241-1.598 12.737-1.249 29.839 2.318 41.157 35.922 62.075 53.334.729.609 1.468 1.189 2.227 1.758z" fill="#fedf30"/></g><g><path d="m367.942 114.83c-.609 15.204-9.39 29.419-22.227 37.59h-19.979c12.836-8.171 21.617-22.386 22.227-37.59.729-18.231-10.479-34.843-27.141-39.598 2.288-.629 4.695-1.049 7.242-1.249 23.395-1.808 40.777 18.271 39.878 40.847z" fill="#fedf30"/></g></g><g><path d="m281.614 152.418h-51.229v-11.473c0-14.146 11.468-25.614 25.614-25.614 14.146 0 25.614 11.468 25.614 25.614v11.473z" fill="#fff5c6"/></g><g><path d="m472.793 438.127h-433.586c-7.775 0-14.079-6.303-14.079-14.079v-217.353h461.743v217.353c0 7.776-6.303 14.079-14.078 14.079z" fill="#ade194"/></g><g><path d="m486.866 206.693v217.357c0 7.772-6.303 14.075-14.075 14.075h-19.979c7.772 0 14.075-6.303 14.075-14.075v-217.357z" fill="#97da7b"/></g><g><path d="m498.613 206.545h-485.226c-3.256 0-5.895-2.639-5.895-5.895v-42.336c0-3.256 2.639-5.895 5.895-5.895h485.225c3.256 0 5.895 2.639 5.895 5.895v42.336c.001 3.256-2.639 5.895-5.894 5.895z" fill="#ade194"/></g><g><path d="m504.508 158.314v42.335c0 3.257-2.637 5.894-5.894 5.894h-19.979c3.257 0 5.894-2.637 5.894-5.894v-42.335c0-3.256-2.637-5.894-5.894-5.894h19.979c3.257 0 5.894 2.638 5.894 5.894z" fill="#97da7b"/></g><g><path d="m230.386 152.418h50.982v285.707h-50.982z" fill="#fee97d"/></g><g><path d="m281.613 140.942v11.478h-20.319v-11.478c0-7.072-2.867-13.476-7.502-18.111-2.268-2.268-4.965-4.116-7.952-5.404 3.117-1.348 6.553-2.098 10.159-2.098 7.073 0 13.476 2.867 18.111 7.502 4.636 4.636 7.503 11.039 7.503 18.111z" fill="#fef0ae"/></g><g><path d="m261.294 152.42h20.32v285.704h-20.32z" fill="#fedf30"/></g><g><g><path d="m177.76 152.418-33.433 30.851c-8.127 7.499-12.749 18.054-12.749 29.112v184.531c0 6.174 6.578 10.122 12.026 7.219l19.569-10.427c2.404-1.281 5.288-1.281 7.693 0l19.569 10.427c5.448 2.903 12.026-1.045 12.026-7.219v-244.494z" fill="#fff5c6"/></g><g><path d="m334.24 152.418 33.433 30.851c8.127 7.499 12.749 18.054 12.749 29.112v184.531c0 6.174-6.578 10.122-12.026 7.219l-19.569-10.427c-2.404-1.281-5.289-1.281-7.693 0l-19.569 10.427c-5.448 2.903-12.026-1.045-12.026-7.219v-244.494z" fill="#fff5c6"/></g></g><g><g><path d="m202.456 152.42v244.492c0 6.174-6.573 10.119-12.017 7.222l-8.581-4.575c.28-.819.43-1.708.43-2.647v-244.492z" fill="#fef0ae"/></g><g><path d="m380.419 212.377v184.535c0 6.174-6.573 10.119-12.027 7.222l-8.571-4.575c.28-.819.43-1.708.43-2.647v-184.535c0-11.058-4.625-21.607-12.747-29.109l-33.435-30.848h20.169l33.435 30.848c8.131 7.502 12.746 18.051 12.746 29.109z" fill="#fef0ae"/></g></g><g><g><path d="m342.213 300.559 17.643-17.643c.526-.526.526-1.378 0-1.903l-17.643-17.643c-.252-.252-.394-.595-.394-.952v-64.927c0-.743-.603-1.346-1.346-1.346h-64.927c-.357 0-.699-.142-.952-.394l-17.643-17.643c-.526-.526-1.378-.526-1.903 0l-17.643 17.643c-.252.252-.595.394-.952.394h-64.927c-.743 0-1.346.603-1.346 1.346v64.927c0 .357-.142.699-.394.952l-17.643 17.643c-.526.526-.526 1.378 0 1.903l17.643 17.643c.252.252.394.595.394.952v64.927c0 .743.603 1.346 1.346 1.346h64.927c.357 0 .699.142.952.394l17.643 17.643c.526.526 1.378.526 1.903 0l17.643-17.643c.252-.252.595-.394.952-.394h64.927c.743 0 1.346-.603 1.346-1.346v-64.928c-.001-.356.141-.699.394-.951z" fill="#f9f3f1"/></g><g><path d="m359.856 282.913-17.643 17.643c-.251.251-.392.599-.392.954v64.924c0 .747-.606 1.346-1.346 1.346h-14.397c.747 0 1.346-.599 1.346-1.346v-64.924c0-.355.14-.702.399-.954l17.643-17.643c.525-.525.525-1.375 0-1.9l-17.643-17.643c-.259-.251-.399-.591-.399-.954v-64.924c0-.747-.599-1.346-1.346-1.346h14.397c.739 0 1.346.599 1.346 1.346v64.924c0 .362.14.702.392.954l17.643 17.643c.525.525.525 1.375 0 1.9z" fill="#efe2dd"/></g><g><g><path d="m316.142 310.571c-10.607 20.488-32 34.485-56.665 34.488-34.959.004-63.209-27.766-63.773-62.721-.502-31.124 21.298-57.247 50.464-63.438 1.456-.309 2.28 1.628 1.051 2.467-14.563 9.941-24.118 26.674-24.096 45.642.034 30.052 24.485 54.75 54.534 55.072 13.884.149 26.605-4.834 36.375-13.171 1.139-.97 2.799.331 2.11 1.661z" fill="#fee97d"/></g></g><g><g><path d="m316.14 310.569c-2.625 5.065-5.901 9.731-9.731 13.887-10.197 6.781-22.472 10.678-35.664 10.53-34.481-.37-62.543-28.713-62.58-63.201-.022-18.021 7.491-34.281 19.559-45.817 5.657-3.261 11.861-5.672 18.442-7.069 1.457-.303 2.285 1.634 1.05 2.47-14.56 9.938-24.114 26.672-24.092 45.639.03 30.051 24.483 54.757 54.535 55.075 13.88.148 26.606-4.836 36.374-13.17 1.138-.969 2.794.325 2.107 1.656z" fill="#fedf30"/></g></g><g><path d="m498.613 144.926h-54.33c-4.138 0-7.492 3.354-7.492 7.492s3.354 7.492 7.492 7.492h52.733v39.142h-111.053c-2.393-8.084-6.917-15.484-13.209-21.289l-19.347-17.853h56.241c4.138 0 7.492-3.354 7.492-7.492s-3.354-7.492-7.492-7.492h-45.072c6.502-8.705 10.426-19.146 10.851-29.796.554-13.891-4.708-27.232-14.437-36.603-9.05-8.717-20.958-12.98-33.507-12.011-22.978 1.778-36.405 19.234-48.251 34.633-2.753 3.578-5.442 7.068-8.182 10.323-4.519-2.317-9.632-3.633-15.049-3.633-5.415 0-10.526 1.315-15.043 3.63-2.742-3.256-5.434-6.739-8.188-10.319-11.846-15.4-25.273-32.855-48.251-34.633-12.558-.972-24.458 3.293-33.507 12.011-9.729 9.371-14.991 22.712-14.437 36.603.424 10.65 4.348 21.09 10.851 29.796h-134.039c-7.382-.001-13.387 6.005-13.387 13.387v42.336c0 7.382 6.005 13.387 13.387 13.387h4.249v210.011c0 11.895 9.676 21.571 21.571 21.571h433.585c11.894 0 21.571-9.676 21.571-21.571v-210.011h4.249c7.382 0 13.387-6.005 13.387-13.387v-42.336c.001-7.382-6.004-13.388-13.386-13.388zm-136.021 43.85c6.569 6.062 10.337 14.666 10.337 23.606v184.53c0 .127 0 .389-.334.59-.333.199-.565.076-.677.017l-19.568-10.426c-4.614-2.459-10.126-2.461-14.74-.001l-19.569 10.427c-.112.06-.343.183-.677-.017-.334-.201-.334-.463-.334-.59v-21.636h23.442c4.873 0 8.838-3.965 8.838-8.838v-62.38l15.837-15.838c1.673-1.67 2.594-3.89 2.594-6.254 0-2.361-.919-4.58-2.589-6.25l-15.842-15.842v-62.381c0-4.873-3.965-8.837-8.838-8.837h-23.442v-28.743h14.281zm-15.085 117.085c.001-.002.002-.003.004-.005l.005-.005c-.003.003-.007.007-.009.01zm-56.398-195.575c10.904-14.176 21.204-27.566 37.53-28.83 8.236-.633 16.03 2.155 21.956 7.864 6.649 6.404 10.243 15.595 9.86 25.214-.468 11.752-6.935 23.218-17.02 30.393h-54.328v-3.98c0-7.434-2.464-14.302-6.616-19.834 2.983-3.537 5.827-7.2 8.618-10.827zm10.938 49.625v28.743h-13.187v-28.743zm-64.169-18.965c0-9.992 8.13-18.122 18.122-18.122s18.122 8.13 18.122 18.122v3.98h-36.244zm0 18.965h35.998v24.527l-11.631-11.632c-3.445-3.437-9.049-3.436-12.494.005l-11.873 11.874zm-76.472-70.591c5.926-5.708 13.723-8.5 21.956-7.864 16.326 1.264 26.625 14.654 37.53 28.83 2.791 3.628 5.627 7.3 8.609 10.837-4.147 5.53-6.607 12.394-6.607 19.823v3.98h-54.328c-10.085-7.175-16.552-18.641-17.02-30.393-.383-9.618 3.211-18.809 9.86-25.213zm61.488 70.591v28.743h-12.94v-28.743zm-207.91 39.142v-39.142h143.609l-19.347 17.853c-6.292 5.805-10.817 13.205-13.209 21.289zm207.91 231.582h-183.687c-3.632 0-6.586-2.955-6.586-6.587v-209.861h91.466v94.863c0 4.138 3.354 7.492 7.492 7.492s7.492-3.354 7.492-7.492v-96.669c0-8.94 3.768-17.544 10.338-23.606l31.28-28.865h14.281v28.743h-23.442c-4.873 0-8.838 3.965-8.838 8.837v62.381l-15.843 15.842c-1.67 1.67-2.589 3.889-2.589 6.25 0 2.364.921 4.584 2.589 6.248l15.843 15.844v62.38c0 4.874 3.965 8.838 8.838 8.838h23.442v21.636c0 .127 0 .389-.334.59-.333.199-.565.076-.677.017l-19.568-10.426c-4.614-2.459-10.126-2.461-14.74-.001l-19.569 10.427c-.111.06-.344.183-.677-.017-.334-.201-.334-.463-.334-.59v-53.129c0-4.138-3.354-7.492-7.492-7.492s-7.492 3.354-7.492 7.492v53.129c0 5.555 2.843 10.579 7.606 13.437 2.499 1.5 5.275 2.253 8.058 2.253 2.52 0 5.046-.617 7.377-1.859l19.571-10.427c.201-.108.442-.107.644.001l19.569 10.427c4.901 2.611 10.672 2.466 15.435-.394 4.763-2.858 7.606-7.882 7.606-13.437v-21.636h12.94v55.361zm50.982-.001h-35.998v-51.389l11.87 11.87c1.669 1.671 3.889 2.591 6.252 2.591 2.36 0 4.58-.919 6.249-2.588l11.626-11.627v51.143zm-4.579-67.755-13.297 13.297-13.297-13.297c-1.669-1.669-3.888-2.588-6.249-2.588h-58.78v-58.781c0-2.33-.945-4.608-2.589-6.248l-13.297-13.297 13.302-13.302c1.666-1.669 2.583-3.887 2.583-6.244v-58.78h58.78c2.361 0 4.58-.919 6.249-2.589l13.298-13.298 13.297 13.297c1.669 1.669 3.888 2.588 6.249 2.588h58.781v58.78c0 2.361.919 4.58 2.589 6.25l13.297 13.297-13.297 13.297c-1.645 1.644-2.589 3.921-2.589 6.248v58.781h-58.781c-2.361.001-4.58.92-6.249 2.589zm210.082 61.169c0 3.632-2.955 6.587-6.587 6.587h-183.932v-55.36h13.187v21.636c0 5.555 2.843 10.579 7.606 13.437 2.499 1.5 5.275 2.253 8.058 2.253 2.52 0 5.046-.617 7.376-1.859l19.571-10.427c.201-.108.442-.107.644.001l19.569 10.427c4.901 2.611 10.672 2.466 15.435-.394 4.763-2.858 7.606-7.882 7.606-13.437v-182.725h91.466v209.861z"/><path d="m320.437 303.016c-3.313-2.632-8.053-2.548-11.269.197-8.745 7.461-19.921 11.524-31.431 11.378-25.954-.278-47.093-21.627-47.123-47.588-.018-15.785 7.768-30.531 20.826-39.446 3.539-2.414 4.833-6.856 3.148-10.799s-5.792-6.074-9.976-5.185c-33.229 7.053-56.948 36.865-56.399 70.887.305 18.883 7.843 36.53 21.227 49.691 13.379 13.157 31.146 20.401 50.03 20.401h.008c26.75-.003 51.012-14.77 63.317-38.536 1.973-3.808 1.003-8.331-2.358-11zm-60.961 34.552c-.003 0-.003 0-.006 0-31.054-.003-55.774-24.313-56.275-55.35-.272-16.849 6.991-32.392 18.912-43.014-4.213 8.525-6.488 18.017-6.477 27.816.039 34.126 27.828 62.188 61.946 62.555 4.307.043 8.567-.35 12.731-1.165-8.981 5.877-19.631 9.157-30.831 9.158z"/><ellipse cx="270.257" cy="267.32" rx="9.608" ry="9.608" transform="matrix(.707 -.707 .707 .707 -109.868 269.397)"/></g></g></g></svg>