<svg id="Capa_1" enable-background="new 0 0 512 512" height="512" viewBox="0 0 512 512" width="512" xmlns="http://www.w3.org/2000/svg"><g><g><g><path d="m398.208 397.147c-3.377-10.807-14.945-16.759-25.701-13.225l-74.465 24.467c-3.098-6.376-9.618-10.783-17.183-10.783h-48.79c-7.785-20.577-27.661-35.212-50.965-35.212h-68.312v102.872l109.132 23.196c11.291 1.997 22.923.439 33.29-4.459l133.469-63.061c8.417-4.668 12.396-14.608 9.525-23.795z" fill="#ea9b58"/></g><g><path d="m290.571 63.008c-3.905-3.905-10.237-3.905-14.142 0l-21.965 21.964c-.937.938-1.464 2.21-1.464 3.536v27.892c-.052-.01-.105-.017-.157-.027 8.605 1.65 16.495 5.31 23.157 10.482v-32.418l23-23z" fill="#d88a55"/></g><path d="m499.05 13.563h-222.221c-5.781 0-11.326 2.297-15.414 6.385l-44.451 44.451c-4.088 4.088-6.385 9.633-6.385 15.414v45.89c8.986-6.485 20.013-10.317 31.941-10.317 3.586 0 7.087.356 10.48 1.015v-27.893c0-1.326.527-2.598 1.464-3.536l21.965-21.964c3.905-3.905 10.237-3.905 14.142 0l26.07 26.07c3.905 3.905 3.905 10.237 0 14.142l-38.467 38.467c-8.719 8.719-8.719 22.856 0 31.575 8.719 8.719 22.856 8.719 31.575 0l47.395-47.395c18.875-2.045 36.598-10.454 50.148-24.006 3.85-3.85 9.073-6.01 14.517-6.01h77.241c3.01 0 5.45-2.44 5.45-5.449v-71.389c0-3.01-2.44-5.45-5.45-5.45z" fill="#ea9b58"/><g><g><path d="m234 86.068c0-6.338 2.518-12.417 7-16.898l48.733-48.733c3.903-3.903 9.017-6.315 14.459-6.873h-27.363c-5.781 0-11.326 2.297-15.414 6.385l-44.451 44.451c-4.088 4.088-6.385 9.633-6.385 15.414v45.89c6.802-4.909 14.774-8.294 23.421-9.651z" fill="#d88a55"/></g></g><path d="m265.692 478.437-151.9-32.768v19.811l108.132 22.984c11.291 1.997 22.923.439 33.29-4.459l11.471-5.42c-.331-.043-.662-.09-.993-.148z" fill="#d88a55"/><g><g><circle cx="285.345" cy="302.782" fill="#fed402" r="54.655"/></g><g><path d="m251.69 302.781c0-26.592 18.995-48.739 44.155-53.637-3.399-.662-6.907-1.018-10.5-1.018-30.185 0-54.655 24.47-54.655 54.655s24.47 54.655 54.655 54.655c3.593 0 7.101-.357 10.5-1.018-25.16-4.897-44.155-27.044-44.155-53.637z" fill="#fac600"/></g><g><ellipse cx="285.345" cy="302.782" fill="#fe7701" rx="23.257" ry="23.257" transform="matrix(.252 -.968 .968 .252 -79.512 502.727)"/></g></g><g><path d="m278.174 173.262c-8.719-8.719-8.719-22.856 0-31.575l6.47-6.47c-10.025-12.113-25.173-19.832-42.125-19.832-30.185 0-54.655 24.47-54.655 54.655s24.47 54.655 54.655 54.655c26.898 0 49.24-19.436 53.792-45.025-6.469.68-13.178-1.449-18.137-6.408z" fill="#fed402"/><g><path d="m208.69 170.04c0-26.623 19.039-48.789 44.242-53.652-3.372-.651-6.851-1.003-10.413-1.003-30.185 0-54.655 24.47-54.655 54.655s24.47 54.655 54.655 54.655c3.562 0 7.041-.352 10.413-1.003-25.203-4.863-44.242-27.029-44.242-53.652z" fill="#fac600"/></g><g><circle cx="242.52" cy="170.04" fill="#fef1da" r="23.257"/></g><g><path d="m240 170.04c0-9.118 5.25-17.005 12.889-20.818-3.122-1.558-6.642-2.44-10.369-2.44-12.845 0-23.257 10.413-23.257 23.257 0 12.845 10.413 23.257 23.257 23.257 3.727 0 7.246-.881 10.369-2.44-7.639-3.811-12.889-11.698-12.889-20.816z" fill="#fae2c0"/></g><g><ellipse cx="285.345" cy="302.782" fill="#fef1da" rx="23.257" ry="23.257" transform="matrix(.252 -.968 .968 .252 -79.512 502.727)"/></g><g><path d="m283 302.781c0-9.083 5.21-16.944 12.801-20.773-3.144-1.586-6.694-2.485-10.456-2.485-12.845 0-23.257 10.413-23.257 23.257 0 12.845 10.413 23.258 23.257 23.258 3.762 0 7.312-.899 10.456-2.485-7.591-3.827-12.801-11.689-12.801-20.772z" fill="#fae2c0"/></g></g><g><path d="m183.683 240.315-13.562 13.562c-1.172 1.172-1.172 3.071 0 4.243l13.562 13.562c1.171 1.172 3.071 1.172 4.243 0l13.562-13.562c1.172-1.172 1.172-3.071 0-4.243l-13.562-13.562c-1.172-1.171-3.071-1.171-4.243 0z" fill="#fe860a"/></g><g><path d="m185.879 258.12c-1.172-1.172-1.172-3.071 0-4.243l7.805-7.805-5.757-5.757c-1.172-1.172-3.071-1.172-4.243 0l-13.562 13.562c-1.172 1.171-1.172 3.071 0 4.243l13.562 13.562c1.172 1.172 3.071 1.172 4.243 0l5.757-5.757z" fill="#fe7701"/></g><g><path d="m345.977 194.753-18.66 18.66c-1.172 1.172-1.172 3.071 0 4.243l18.66 18.66c1.172 1.172 3.071 1.172 4.243 0l18.66-18.66c1.172-1.171 1.172-3.071 0-4.243l-18.66-18.66c-1.173-1.171-3.072-1.171-4.243 0z" fill="#fe860a"/></g><g><path d="m347.879 217.656c-1.172-1.172-1.172-3.071 0-4.243l10.5-10.5-8.16-8.16c-1.172-1.172-3.071-1.172-4.243 0l-18.66 18.66c-1.172 1.172-1.172 3.071 0 4.243l18.66 18.659c1.172 1.172 3.071 1.172 4.243 0l8.16-8.16z" fill="#fe7701"/></g></g><g><g><g><path d="m113.792 493.583v-156.805c0-2.681-2.173-4.854-4.854-4.854h-96.584c-2.681 0-4.854 2.173-4.854 4.854v156.805c0 2.681 2.173 4.854 4.854 4.854h96.585c2.68 0 4.853-2.173 4.853-4.854z" fill="#80d261"/></g><g><path d="m113.792 493.583v-24.716h-67.464c-2.681 0-4.854-2.173-4.854-4.854v-132.089h-29.12c-.67 0-1.309.136-1.889.381-1.161.491-2.092 1.422-2.583 2.583-.246.581-.381 1.219-.381 1.889v156.805c0 .67.136 1.309.381 1.889.246.581.601 1.104 1.04 1.543s.962.794 1.543 1.04 1.219.381 1.889.381h96.585c2.68.002 4.853-2.171 4.853-4.852z" fill="#4fc123"/></g></g></g><g><path d="m223.19 302.781c0 34.272 27.882 62.155 62.155 62.155 27.15 0 50.943-17.367 59.206-43.217 1.261-3.945-.915-8.166-4.86-9.427-3.948-1.264-8.167.914-9.428 4.86-6.268 19.608-24.319 32.783-44.918 32.783-26.001 0-47.155-21.153-47.155-47.155 0-26.001 21.154-47.154 47.155-47.154 19.895 0 37.748 12.59 44.425 31.327 1.39 3.901 5.683 5.937 9.583 4.547 3.902-1.39 5.938-5.681 4.547-9.582-8.801-24.698-32.333-41.292-58.555-41.292-34.273.001-62.155 27.883-62.155 62.155z"/><path d="m254.587 302.781c0 16.96 13.798 30.758 30.758 30.758 16.959 0 30.757-13.798 30.757-30.758 0-16.959-13.798-30.757-30.757-30.757-16.96 0-30.758 13.798-30.758 30.757zm46.516 0c0 8.688-7.069 15.758-15.757 15.758-8.689 0-15.758-7.069-15.758-15.758s7.069-15.757 15.758-15.757c8.688 0 15.757 7.069 15.757 15.757z"/><path d="m178.379 276.983c1.983 1.984 4.62 3.077 7.425 3.077 2.806 0 5.443-1.093 7.425-3.075l13.563-13.563c4.092-4.093 4.092-10.754-.001-14.849l-13.561-13.56c-1.983-1.984-4.62-3.077-7.426-3.077-2.805 0-5.441 1.092-7.424 3.075l-13.563 13.563c-4.092 4.093-4.092 10.754.001 14.849zm7.425-28.182 7.198 7.198-7.198 7.197-7.198-7.198z"/><path d="m348.098 244.694c2.805 0 5.441-1.092 7.425-3.075l18.659-18.659c1.984-1.983 3.076-4.62 3.076-7.426 0-2.804-1.092-5.44-3.075-7.425l-18.66-18.659c-1.983-1.983-4.62-3.075-7.425-3.075s-5.441 1.092-7.424 3.075l-18.66 18.659c-1.983 1.983-3.076 4.62-3.076 7.425 0 2.806 1.093 5.443 3.076 7.425l18.659 18.658c1.982 1.985 4.619 3.077 7.425 3.077zm0-41.455 12.295 12.295-12.295 12.296-12.296-12.296z"/><path d="m499.051 6.063h-45.737c-4.107 0-7.688 3.165-7.811 7.27-.127 4.247 3.278 7.73 7.497 7.73h44v67.288h-75.19c-7.535 0-14.679 3.105-20.027 8.412-12.2 12.108-28.328 19.792-45.447 21.647l-.875.095c-1.134.123-2.191.629-2.998 1.435l-48.017 48.018c-5.781 5.78-15.188 5.781-20.969.001-5.781-5.782-5.781-15.188 0-20.97l38.185-38.185c3.103-3.103 5.114-7.197 5.375-11.577.302-5.074-1.535-9.895-5.093-13.453l-26.07-26.069c-3.558-3.559-8.379-5.396-13.453-5.094-4.38.261-8.474 2.272-11.577 5.375l-21.685 21.685c-2.359 2.361-3.658 5.5-3.658 8.837v19.461c-.989-.047-1.98-.084-2.98-.084-8.673 0-16.934 1.792-24.44 5.015v-33.087c0-3.819 1.487-7.409 4.188-10.109l44.451-44.452c2.681-2.681 6.318-4.188 10.109-4.188h140.858c4.107 0 7.688-3.165 7.811-7.27.127-4.247-3.278-7.73-7.497-7.73h-141.172c-7.826 0-15.184 3.047-20.717 8.581l-44.451 44.451c-5.534 5.533-8.582 12.891-8.582 20.717v42.226c-13.86 11.409-22.714 28.69-22.714 48.002 0 34.272 27.882 62.154 62.155 62.154 28.745 0 52.978-19.62 60.049-46.168 4.572-1.37 8.879-3.855 12.484-7.46l45.573-45.573c19.605-2.717 37.971-11.826 51.971-25.829 2.458-2.459 5.729-3.813 9.213-3.813h77.241c7.152 0 12.949-5.798 12.949-12.949v-71.39c0-7.152-5.798-12.95-12.949-12.95zm-200.051 75.981 12.338 12.338c.637.637.732 1.381.732 1.768 0 .386-.095 1.13-.732 1.767l-26.593 26.594c-.405-.376-.83-.728-1.245-1.093v-25.875zm-38.5 7.499 21.233-21.232c.637-.637 1.38-.731 1.767-.731s1.13.095 1.768.732l3.125 3.125-17.696 17.696c-1.407 1.407-2.197 3.314-2.197 5.304v19.195c-2.58-1.194-5.244-2.238-8-3.074zm-17.98 127.651c-26.001 0-47.155-21.153-47.155-47.154 0-26.002 21.153-47.155 47.155-47.155 12.162 0 23.254 4.637 31.624 12.227l-1.272 1.272c-3.735 3.735-6.264 8.224-7.599 12.98-5.63-6.19-13.745-10.082-22.752-10.082-16.959 0-30.757 13.798-30.757 30.758 0 16.959 13.798 30.757 30.757 30.757 14.238 0 26.244-9.727 29.732-22.883.205.218.407.439.62.652 3.964 3.964 8.777 6.574 13.858 7.836-6.668 17.957-23.962 30.792-44.211 30.792zm15.757-47.154c0 8.688-7.069 15.757-15.758 15.757-8.688 0-15.757-7.068-15.757-15.757s7.069-15.758 15.757-15.758c8.689 0 15.758 7.07 15.758 15.758z"/><path d="m391.556 378.488c-6.668-3.432-14.264-4.032-21.39-1.69l-69.052 22.688c-4.886-5.732-12.151-9.378-20.256-9.378h-43.852c-10.216-21.26-32.057-35.213-55.903-35.213h-59.812v-18.117c0-6.812-5.542-12.354-12.354-12.354h-96.583c-6.812 0-12.354 5.542-12.354 12.353v156.806c0 6.812 5.542 12.354 12.354 12.354h96.585c6.812 0 12.354-5.542 12.354-12.354v-18.842l99.072 21.059.253.05c3.671.649 7.355.972 11.023.972 9.211-.001 18.311-2.035 26.777-6.035l133.469-63.062.434-.223c11.472-6.363 16.958-20.07 13.045-32.592-2.236-7.158-7.141-12.99-13.81-16.422zm-6.324 35.79-133.222 62.946c-8.975 4.241-18.88 5.58-28.656 3.877l-102.062-21.694v-23.97c0-4.143-3.358-7.5-7.5-7.5s-7.5 3.357-7.5 7.5v55.5h-91.292v-151.513h91.292v61.013c0 4.143 3.358 7.5 7.5 7.5s7.5-3.357 7.5-7.5v-30.542h59.812c19.416 0 37.078 12.203 43.95 30.366l1.833 4.847h53.972c6.405 0 11.615 5.21 11.615 11.614s-5.21 11.615-11.615 11.615h-125.135c-4.142 0-7.5 3.357-7.5 7.5s3.358 7.5 7.5 7.5h125.135c14.676 0 26.615-11.939 26.615-26.615 0-1.173-.084-2.327-.232-3.46l67.607-22.214c3.278-1.077 6.775-.803 9.845.778 3.069 1.579 5.327 4.264 6.356 7.559 1.779 5.694-.665 11.921-5.818 14.893z"/></g></g></svg>