<svg id="Capa_1" enable-background="new 0 0 512 512" height="512" viewBox="0 0 512 512" width="512" xmlns="http://www.w3.org/2000/svg"><g><g><circle cx="256" cy="256" fill="#eaa998" r="248.517"/></g><g><path d="m504.517 256c0 137.248-111.269 248.517-248.517 248.517-28.164 0-55.23-4.689-80.471-13.319 19.275 4.799 39.447 7.343 60.209 7.343 137.258 0 248.517-111.269 248.517-248.517 0-109.084-70.275-201.757-168.026-235.188 108.146 26.917 188.288 124.687 188.288 241.164z" fill="#e49280"/></g><g><circle cx="256" cy="256" fill="#dd7f66" r="217.079"/></g><g><path d="m473.081 256c0 119.889-97.192 217.081-217.081 217.081-26.518 0-51.928-4.759-75.413-13.458 17.708 4.669 36.295 7.153 55.46 7.153 119.889 0 217.081-97.182 217.081-217.081 0-93.401-58.992-173.024-141.757-203.642 93.071 24.472 161.71 109.193 161.71 209.947z" fill="#d6694b"/></g><g><g><path d="m421.306 280.894c-.912-.806-.771-2.275.297-2.859 7.79-4.262 13.074-12.531 13.074-22.037s-5.284-17.775-13.074-22.037c-1.068-.584-1.209-2.053-.297-2.859 5.763-5.094 8.502-13.172 6.376-21.106-2.407-8.982-10.301-15.015-19.11-15.481-1.472-.078-2.198-1.831-1.212-2.927 5.899-6.558 7.216-16.406 2.566-24.46-4.116-7.129-11.788-10.906-19.481-10.413-1.222.078-2.092-1.121-1.751-2.296 2.468-8.507.356-18.06-6.35-24.766s-16.259-8.818-24.766-6.35c-1.176.341-2.375-.529-2.296-1.751.492-7.693-3.285-15.365-10.413-19.481-8.053-4.65-17.902-3.333-24.46 2.566-1.096.986-2.849.259-2.927-1.212-.466-8.809-6.498-16.703-15.481-19.11-7.934-2.126-16.013.612-21.106 6.376-.806.912-2.275.771-2.859-.297-4.262-7.79-12.531-13.074-22.037-13.074s-17.775 5.284-22.037 13.074c-.584 1.068-2.053 1.209-2.859.297-5.094-5.763-13.172-8.502-21.106-6.376-8.982 2.407-15.015 10.301-15.481 19.11-.078 1.472-1.831 2.198-2.927 1.212-6.558-5.899-16.406-7.216-24.46-2.566-7.129 4.116-10.906 11.788-10.413 19.481.078 1.222-1.121 2.092-2.296 1.751-8.507-2.468-18.06-.356-24.766 6.35s-8.818 16.259-6.35 24.766c.341 1.176-.529 2.375-1.751 2.296-7.693-.492-15.365 3.285-19.481 10.413-4.65 8.053-3.333 17.902 2.566 24.46.986 1.096.259 2.849-1.212 2.927-8.809.466-16.703 6.498-19.11 15.481-2.126 7.934.612 16.013 6.376 21.106.912.806.771 2.275-.297 2.859-7.79 4.262-13.074 12.531-13.074 22.037s5.284 17.775 13.074 22.037c1.068.584 1.209 2.053.297 2.859-5.763 5.094-8.502 13.172-6.376 21.106 2.407 8.982 10.301 15.015 19.11 15.481 1.472.078 2.198 1.831 1.212 2.927-5.899 6.558-7.216 16.406-2.566 24.46 4.116 7.129 11.788 10.906 19.481 10.413 1.222-.078 2.092 1.121 1.751 2.296-2.468 8.507-.356 18.06 6.35 24.766s16.259 8.818 24.766 6.35c1.176-.341 2.375.529 2.296 1.751-.492 7.693 3.285 15.365 10.413 19.481 8.053 4.65 17.902 3.333 24.46-2.566 1.096-.986 2.849-.259 2.927 1.212.466 8.809 6.498 16.703 15.481 19.11 7.934 2.126 16.013-.612 21.106-6.376.806-.912 2.275-.771 2.859.297 4.262 7.79 12.531 13.074 22.037 13.074s17.775-5.284 22.037-13.074c.584-1.068 2.053-1.209 2.859-.297 5.094 5.763 13.172 8.502 21.106 6.376 8.982-2.407 15.015-10.301 15.481-19.11.078-1.472 1.831-2.198 2.927-1.212 6.558 5.899 16.406 7.216 24.46 2.566 7.129-4.116 10.906-11.788 10.413-19.481-.078-1.222 1.121-2.092 2.296-1.751 8.507 2.468 18.06.356 24.766-6.35s8.818-16.259 6.35-24.766c-.341-1.176.529-2.375 1.751-2.296 7.693.492 15.365-3.285 19.481-10.413 4.65-8.053 3.333-17.902-2.566-24.46-.986-1.096-.259-2.849 1.212-2.927 8.809-.466 16.703-6.498 19.11-15.481 2.125-7.934-.613-16.013-6.376-21.106z" fill="#f9f3f1"/></g><g><path d="m421.307 280.895c-.913-.811-.774-2.277.295-2.858 7.789-4.268 13.08-12.536 13.08-22.039s-5.291-17.772-13.08-22.039c-1.069-.581-1.207-2.046-.295-2.857 5.761-5.097 8.499-13.172 6.379-21.108-2.415-8.978-10.305-15.015-19.117-15.476-1.466-.083-2.194-1.834-1.208-2.931 5.899-6.554 7.217-16.407 2.562-24.454-4.111-7.134-11.789-10.904-19.477-10.416-1.226.074-2.092-1.125-1.751-2.295 2.47-8.508.35-18.057-6.351-24.768-6.71-6.701-16.26-8.821-24.768-6.351-1.171.341-2.369-.525-2.295-1.751.488-7.687-3.281-15.366-10.416-19.477-5.927-3.429-12.831-3.613-18.684-1.115 5.43 2.642 10.022 6.757 12.736 12.196 1.689 3.385 2.65 7.06 2.858 10.836.3 5.456.307 12.534 7.826 11.196 4.338-.772 8.889-.569 12.53 2.062 3.725 2.692 6.353 6.957 7.174 11.47.752 4.135-2.295 10.898 1.766 13.938 3.441 2.575 8.82 1.156 12.763 2.852 6.178 2.659 9.712 8.555 9.895 15.178.148 5.37-4.084 11.541-2.202 16.984 1.513 4.373 6.205 5.256 9.409 7.922 2.489 2.072 4.058 5.378 4.405 8.569.398 3.654-.862 5.991-2.863 8.888-1.499 2.169-3.293 4.417-3.162 7.208.108 2.307 2.017 4.028 3.703 5.36 5.691 4.499 9.255 8.942 9.255 16.536 0 4.968-1.489 9.878-4.265 14-3.198 4.749-11.674 7.565-7.041 14.635 1.063 1.623 2.526 2.964 3.412 4.708 1.932 3.802 1.984 8.597.898 12.653-1.583 5.912-5.439 10.819-11.408 12.443-4.789 1.303-8.312 3.844-7.083 9.295.616 2.73 2.45 4.672 3.239 7.287.98 3.248.614 6.91-1.06 9.87-1.474 2.62-4.391 5.664-7.367 6.482-3.302.908-9.106 1.366-8.635 5.836.27 2.562 1.237 4.999 1.695 7.534 1.384 7.655-1.883 14.888-9.184 17.95-4.067 1.706-8.566.865-12.837 1.105-3.818.215-7.751 2.635-8.032 6.79-.703 10.434-8.349 19.477-19.307 15.196-3.308-1.292-6.638-2.843-10.287-2.282-4.542.698-7.031 6.886-9.255 10.244-2.24 3.382-5.896 5.802-9.932 6.355-5.217.715-8.629-2.137-13.035-4.224-3.108-1.471-6.704-2.337-9.543.178-2.951 2.616-4.233 6.573-6.595 9.638-3.543 4.597-8.012 9.034-13.972 10.036-1.545.26-10.766 2.501-11.661 1.832 4.185 3.125 9.365 4.968 14.979 4.968 9.503 0 17.772-5.291 22.039-13.08.581-1.069 2.046-1.207 2.857-.295 5.097 5.761 13.172 8.499 21.108 6.379 8.978-2.415 15.016-10.305 15.476-19.117.083-1.466 1.834-2.194 2.931-1.208 6.554 5.899 16.407 7.217 24.454 2.563 7.134-4.111 10.904-11.789 10.416-19.477-.074-1.226 1.125-2.092 2.295-1.751 8.508 2.47 18.057.35 24.768-6.351 6.701-6.71 8.821-16.26 6.351-24.768-.341-1.171.525-2.369 1.751-2.295 7.688.489 15.366-3.282 19.477-10.416 4.655-8.047 3.337-17.901-2.562-24.454-.986-1.097-.258-2.848 1.208-2.931 8.812-.461 16.702-6.498 19.117-15.476 2.121-7.94-.616-16.015-6.377-21.112z" fill="#efe2dd"/></g><g><path d="m325.082 302.515-46.851-46.851-22.568 22.568 46.851 46.851c.09 5.566 2.245 11.104 6.491 15.351 8.678 8.678 22.749 8.678 31.427 0s8.678-22.749 0-31.427c-4.246-4.248-9.784-6.402-15.35-6.492z" fill="#eaa998"/></g><g><path d="m340.431 340.431c-.341.341-.691.673-1.06.995.212-5.955-1.945-11.974-6.489-16.518-4.249-4.249-9.789-6.397-15.347-6.489l-49.572-52.485 10.268-10.268 46.853 46.853c5.567.083 11.098 2.24 15.347 6.489 8.683 8.674 8.683 22.749 0 31.423z" fill="#e49280"/></g><g><g><circle cx="376.212" cy="260.418" fill="#fd8087" r="15.903"/></g><g><circle cx="317.336" cy="156.001" fill="#fd8087" r="15.903"/></g><g><circle cx="223.035" cy="362.845" fill="#fd8087" r="15.903"/></g><g><circle cx="135.783" cy="276.321" fill="#fd8087" r="15.903"/></g><g><path d="m392.114 260.413c0 8.784-7.116 15.91-15.9 15.91-5.706 0-10.72-3.014-13.522-7.531.313.018.636.028.959.028 8.784 0 15.9-7.125 15.9-15.91 0-3.069-.866-5.936-2.378-8.369 8.342.497 14.941 7.419 14.941 15.872z" fill="#fe646f"/></g><g><path d="m333.241 156.005c0 8.775-7.125 15.9-15.91 15.9-5.706 0-10.711-3.014-13.513-7.531.313.018.636.028.959.028 8.784 0 15.9-7.125 15.9-15.91 0-3.069-.866-5.936-2.378-8.37 8.333.499 14.942 7.421 14.942 15.883z" fill="#fe646f"/></g><g><path d="m238.936 362.848c0 8.775-7.116 15.9-15.9 15.9-5.706 0-10.711-3.014-13.513-7.531.313.018.627.028.949.028 8.784 0 15.91-7.125 15.91-15.91 0-3.07-.876-5.936-2.387-8.37 8.341.499 14.941 7.422 14.941 15.883z" fill="#fe646f"/></g><g><path d="m151.691 276.323c0 8.784-7.125 15.9-15.91 15.9-5.715 0-10.72-3.014-13.522-7.531.323.018.645.028.968.028 8.775 0 15.9-7.125 15.9-15.9 0-3.079-.876-5.945-2.387-8.379 8.342.497 14.951 7.42 14.951 15.882z" fill="#fe646f"/></g></g><g><ellipse cx="233.598" cy="233.598" fill="#fea95c" rx="60.307" ry="75.888" transform="matrix(.707 -.707 .707 .707 -96.759 233.598)"/></g><g><path d="m287.255 287.255c-5.558 5.558-12.204 9.531-19.514 11.965 1.023-.857 2.009-1.77 2.959-2.719 23.551-23.551 18.62-66.671-11.024-96.306-22.638-22.639-53.149-30.861-76.783-22.979 24.058-20.389 64.911-14.702 93.347 13.743 29.634 29.634 34.566 72.745 11.015 96.296z" fill="#fe9738"/></g><g><path d="m287.471 376.872-12.245-3.547c-3.972-1.152-8.12 1.136-9.269 5.105-1.15 3.969 1.136 8.119 5.105 9.269l12.245 3.547c.696.202 1.396.297 2.085.297 3.245 0 6.235-2.129 7.183-5.402 1.15-3.969-1.135-8.119-5.104-9.269z"/><path d="m478.219 128.815c-2.056-3.585-6.628-4.823-10.213-2.768-3.585 2.056-4.824 6.629-2.768 10.213 20.802 36.269 31.797 77.674 31.797 119.74 0 64.383-25.072 124.912-70.598 170.437-45.525 45.526-106.054 70.598-170.437 70.598s-124.912-25.072-170.438-70.598c-45.525-45.525-70.597-106.054-70.597-170.437s25.072-124.912 70.597-170.437c45.526-45.526 106.055-70.598 170.438-70.598 37.807 0 73.998 8.503 107.568 25.273 32.018 15.995 60.605 39.418 82.673 67.738 2.541 3.26 7.241 3.844 10.501 1.303 3.26-2.54 3.843-7.242 1.303-10.502-23.431-30.068-53.788-54.939-87.79-71.925-35.664-17.818-74.106-26.852-114.255-26.852-68.38 0-132.667 26.629-181.019 74.98-48.352 48.353-74.981 112.64-74.981 181.02s26.629 132.667 74.981 181.02c48.352 48.351 112.639 74.98 181.019 74.98s132.667-26.629 181.019-74.98c48.352-48.353 74.981-112.64 74.981-181.02 0-44.674-11.681-88.653-33.781-127.185z"/><path d="m256 31.439c-59.982 0-116.375 23.358-158.789 65.772-42.414 42.415-65.773 98.807-65.773 158.789s23.358 116.374 65.773 158.789c42.414 42.414 98.806 65.772 158.789 65.772s116.375-23.358 158.789-65.772c42.415-42.414 65.773-98.806 65.773-158.789 0-59.982-23.358-116.374-65.773-158.789-42.414-42.414-98.807-65.772-158.789-65.772zm0 434.157c-115.572 0-209.597-94.025-209.597-209.596s94.025-209.596 209.597-209.596 209.597 94.024 209.597 209.596-94.025 209.596-209.597 209.596z"/><path d="m387.634 124.362c-6.742-6.742-16.005-10.109-25.311-9.46-1.498-8.034-6.4-15.088-13.713-19.31-7.989-4.612-17.462-4.996-25.57-1.446-3.223-8.241-10.192-14.671-19.103-17.059-8.15-2.185-16.605-.663-23.346 3.956-6.119-7.036-15.049-11.206-24.593-11.206-9.543 0-18.473 4.17-24.592 11.205-6.742-4.618-15.197-6.142-23.348-3.955-8.91 2.388-15.879 8.817-19.102 17.059-8.107-3.549-17.581-3.167-25.569 1.446-7.315 4.223-12.216 11.276-13.715 19.31-9.298-.649-18.568 2.717-25.311 9.46s-10.109 16.009-9.461 25.311c-8.033 1.499-15.087 6.4-19.31 13.714-4.612 7.989-4.995 17.462-1.445 25.57-8.242 3.223-14.672 10.193-17.058 19.103-2.185 8.152-.664 16.607 3.955 23.348-7.037 6.118-11.206 15.048-11.206 24.592 0 9.543 4.168 18.471 11.206 24.592-4.618 6.741-6.139 15.196-3.955 23.348 2.387 8.91 8.817 15.879 17.059 19.102-3.549 8.107-3.167 17.582 1.445 25.57 4.223 7.315 11.277 12.216 19.31 13.715-.648 9.302 2.718 18.568 9.461 25.311 6.743 6.742 16.004 10.116 25.311 9.459 1.498 8.034 6.4 15.089 13.714 19.311 7.989 4.613 17.463 4.994 25.569 1.445 3.223 8.242 10.192 14.672 19.103 17.059 8.152 2.184 16.607.662 23.347-3.955 6.118 7.036 15.049 11.206 24.592 11.206 9.544 0 18.474-4.17 24.592-11.206 6.741 4.618 15.194 6.141 23.347 3.955 8.91-2.387 15.88-8.815 19.103-17.059 8.106 3.549 17.58 3.166 25.569-1.445 7.315-4.223 12.216-11.277 13.715-19.311 9.305.647 18.568-2.718 25.31-9.459 6.743-6.743 10.109-16.009 9.461-25.312 8.032-1.498 15.088-6.4 19.31-13.714 4.612-7.988 4.994-17.463 1.445-25.57 8.242-3.223 14.671-10.192 17.059-19.102 2.184-8.152.663-16.607-3.955-23.348 7.036-6.118 11.206-15.049 11.206-24.592s-4.17-18.473-11.206-24.593c4.618-6.74 6.139-15.195 3.955-23.347-2.388-8.91-8.817-15.88-17.059-19.103 3.549-8.107 3.167-17.582-1.445-25.57-4.223-7.314-11.277-12.216-19.31-13.714.648-9.303-2.718-18.569-9.461-25.311zm15.811 46.507c2.92 5.057 2.257 11.373-1.647 15.712-2.404 2.67-3.043 6.391-1.668 9.713 1.375 3.321 4.458 5.503 8.047 5.693 5.832.309 10.766 4.305 12.277 9.946 1.328 4.955-.244 10.152-4.106 13.565-2.258 1.997-3.406 4.977-3.07 7.97.334 2.98 2.103 5.619 4.733 7.058 5.664 3.1 9.184 9.029 9.184 15.473s-3.519 12.373-9.18 15.471c-2.632 1.438-4.402 4.076-4.736 7.059-.336 2.995.813 5.975 3.073 7.972 3.858 3.411 5.43 8.608 4.103 13.563-1.512 5.64-6.446 9.637-12.278 9.945-3.587.19-6.67 2.37-8.046 5.691s-.737 7.042 1.666 9.713c3.906 4.342 4.568 10.658 1.649 15.714-2.572 4.454-7.366 7.008-12.525 6.687-2.974-.194-5.87 1.086-7.738 3.417-1.895 2.362-2.521 5.513-1.675 8.431 1.794 6.185.087 12.849-4.455 17.39-4.542 4.542-11.206 6.248-17.39 4.454-2.916-.847-6.068-.219-8.431 1.675-2.33 1.869-3.607 4.762-3.417 7.741.33 5.153-2.232 9.951-6.686 12.523-5.057 2.917-11.372 2.255-15.714-1.648-2.671-2.405-6.393-3.043-9.714-1.666-3.321 1.376-5.501 4.459-5.69 8.046-.308 5.832-4.305 10.767-9.945 12.278-4.957 1.327-10.153-.245-13.564-4.105-1.997-2.259-4.975-3.403-7.97-3.072-2.98.334-5.619 2.104-7.059 4.734-3.1 5.664-9.028 9.184-15.473 9.184s-12.373-3.519-15.473-9.185c-1.439-2.629-4.077-4.398-7.057-4.732-.344-.038-.687-.057-1.029-.057-2.636 0-5.173 1.129-6.944 3.13-3.41 3.859-8.608 5.432-13.563 4.104-5.64-1.511-9.637-6.446-9.945-12.279-.19-3.587-2.37-6.67-5.691-8.045-3.32-1.377-7.041-.737-9.713 1.665-4.342 3.906-10.657 4.566-15.714 1.649-4.454-2.572-7.017-7.37-6.687-12.522.191-2.977-1.085-5.87-3.415-7.74-2.362-1.897-5.516-2.525-8.433-1.677-6.185 1.794-12.849.089-17.39-4.454-4.542-4.541-6.249-11.205-4.454-17.391.846-2.917.22-6.069-1.675-8.43-1.868-2.329-4.763-3.607-7.74-3.417-5.151.326-9.951-2.232-12.523-6.687-2.919-5.057-2.257-11.372 1.65-15.715 2.402-2.672 3.039-6.393 1.664-9.713-1.375-3.319-4.458-5.5-8.045-5.69-5.832-.309-10.766-4.305-12.278-9.945-1.328-4.955.245-10.153 4.101-13.561 2.261-1.997 3.411-4.978 3.075-7.973-.334-2.982-2.105-5.622-4.733-7.058-5.664-3.1-9.184-9.029-9.184-15.473s3.519-12.373 9.185-15.473c2.629-1.44 4.398-4.078 4.732-7.059.336-2.993-.813-5.973-3.073-7.972-3.859-3.41-5.431-8.607-4.103-13.563 1.511-5.64 6.445-9.637 12.278-9.945 3.588-.19 6.67-2.37 8.046-5.692 1.375-3.32.736-7.042-1.666-9.711-3.906-4.342-4.569-10.658-1.649-15.715 2.572-4.454 7.372-7.008 12.525-6.687 2.973.187 5.87-1.087 7.738-3.417 1.895-2.362 2.521-5.513 1.675-8.431-1.794-6.184-.087-12.848 4.454-17.389 4.542-4.542 11.205-6.251 17.391-4.455 2.919.848 6.07.22 8.432-1.676 2.329-1.871 3.606-4.763 3.415-7.74-.33-5.152 2.233-9.95 6.688-12.522 5.057-2.92 11.37-2.257 15.714 1.648 2.671 2.403 6.394 3.04 9.713 1.666 3.32-1.376 5.501-4.458 5.691-8.047.308-5.832 4.305-10.766 9.945-12.278 4.957-1.329 10.152.245 13.563 4.104 1.997 2.26 4.98 3.41 7.972 3.073 2.981-.334 5.62-2.103 7.059-4.734 3.099-5.663 9.028-9.183 15.472-9.183s12.373 3.519 15.472 9.182c1.439 2.632 4.078 4.402 7.06 4.736 2.994.333 5.975-.814 7.97-3.074 3.411-3.859 8.611-5.432 13.563-4.104 5.641 1.512 9.638 6.446 9.946 12.277.189 3.587 2.369 6.671 5.69 8.047 3.323 1.377 7.045.738 9.713-1.665 4.341-3.908 10.658-4.568 15.715-1.648 4.454 2.572 7.016 7.37 6.686 12.524-.19 2.976 1.088 5.87 3.417 7.739 2.362 1.894 5.513 2.521 8.431 1.675 6.185-1.795 12.848-.087 17.39 4.455s6.249 11.205 4.455 17.387c-.847 2.918-.222 6.07 1.673 8.432 1.869 2.331 4.765 3.616 7.741 3.418 5.15-.33 9.95 2.231 12.522 6.686z"/><path d="m338.835 216.217c1.203 2.862 3.979 4.585 6.901 4.585.966 0 1.949-.188 2.896-.587l11.753-4.94c3.81-1.601 5.6-5.987 3.999-9.797-1.601-3.809-5.989-5.601-9.797-3.998l-11.753 4.94c-3.81 1.601-5.6 5.987-3.999 9.797z"/><path d="m255.527 142.116c1.444 1.355 3.283 2.026 5.118 2.026 1.995 0 3.986-.793 5.458-2.363 2.827-3.014 2.676-7.749-.338-10.577l-9.298-8.723c-3.014-2.829-7.749-2.676-10.576.337-2.827 3.014-2.676 7.749.338 10.577z"/><path d="m169.948 316.895c-4.143-.111-7.57 3.146-7.682 7.277l-.345 12.745c-.112 4.131 3.146 7.57 7.277 7.682.069.002.138.003.207.003 4.038 0 7.365-3.218 7.476-7.28l.345-12.745c.111-4.131-3.147-7.57-7.278-7.682z"/><path d="m352.827 260.417c0 12.895 10.491 23.386 23.386 23.386s23.386-10.491 23.386-23.386-10.49-23.386-23.386-23.386c-12.896.001-23.386 10.492-23.386 23.386zm31.806 0c0 4.643-3.777 8.421-8.421 8.421-4.643 0-8.421-3.777-8.421-8.421 0-4.643 3.777-8.421 8.421-8.421 4.644.001 8.421 3.778 8.421 8.421z"/><path d="m317.336 179.386c12.895 0 23.386-10.491 23.386-23.386s-10.491-23.386-23.386-23.386-23.386 10.491-23.386 23.386c.001 12.895 10.491 23.386 23.386 23.386zm0-31.806c4.643 0 8.421 3.777 8.421 8.421 0 4.643-3.777 8.421-8.421 8.421-4.643 0-8.421-3.777-8.421-8.421s3.778-8.421 8.421-8.421z"/><path d="m223.035 339.459c-12.895 0-23.386 10.491-23.386 23.386s10.491 23.386 23.386 23.386 23.386-10.491 23.386-23.386-10.491-23.386-23.386-23.386zm0 31.807c-4.643 0-8.421-3.777-8.421-8.421 0-4.643 3.777-8.421 8.421-8.421 4.643 0 8.421 3.777 8.421 8.421 0 4.643-3.778 8.421-8.421 8.421z"/><path d="m135.784 252.935c-12.895 0-23.386 10.491-23.386 23.386s10.49 23.386 23.386 23.386c12.895 0 23.386-10.491 23.386-23.386-.001-12.895-10.491-23.386-23.386-23.386zm0 31.806c-4.643 0-8.421-3.777-8.421-8.421 0-4.643 3.777-8.421 8.421-8.421 4.643 0 8.421 3.777 8.421 8.421-.001 4.644-3.778 8.421-8.421 8.421z"/><path d="m328.404 295.256-22.917-22.917c9.973-26.602 1.389-61.331-23.955-86.675-15.524-15.524-35.012-25.324-54.874-27.596-20.502-2.344-38.974 3.542-52.011 16.579-10.367 10.366-16.244 24.207-16.995 40.024-.196 4.127 2.992 7.633 7.119 7.828 4.119.198 7.633-2.991 7.829-7.119.571-12.035 4.939-22.462 12.629-30.151 9.744-9.745 23.853-14.109 39.729-12.294 16.516 1.89 32.851 10.169 45.993 23.312 26.671 26.67 31.613 65.125 11.017 85.722-20.596 20.598-59.051 15.655-85.723-11.017-7.53-7.53-13.44-16.054-17.565-25.336-1.678-3.776-6.099-5.48-9.876-3.799-3.776 1.679-5.477 6.1-3.799 9.876 4.874 10.966 11.824 21.006 20.659 29.841 18.445 18.445 41.859 28.014 63.496 28.013 8.092 0 15.933-1.348 23.175-4.063l22.921 22.921c.806 6.547 3.747 12.606 8.46 17.319 5.61 5.611 13.07 8.701 21.004 8.701s15.394-3.09 21.004-8.7c5.61-5.611 8.7-13.07 8.7-21.004s-3.09-15.394-8.7-21.004c-4.714-4.715-10.773-7.657-17.32-8.461zm6.738 39.886c-2.784 2.784-6.486 4.317-10.423 4.317-7.945 0-14.594-6.603-14.723-14.498-.032-1.943-.817-3.797-2.191-5.17l-21.716-21.715c2.267-1.661 4.429-3.497 6.459-5.527 2.031-2.031 3.854-4.202 5.516-6.47l21.727 21.727c1.374 1.374 3.228 2.159 5.17 2.19 3.854.062 7.469 1.589 10.181 4.301 5.683 5.685 5.677 15.168 0 20.845z"/></g></g></g></svg>