<svg id="Capa_1" enable-background="new 0 0 512 512" height="512" viewBox="0 0 512 512" width="512" xmlns="http://www.w3.org/2000/svg"><g><g><g><circle cx="256" cy="256" fill="#80d261" r="248.5"/></g><path d="m85.08 386.62c-28.648-37.328-44.175-82.777-44.175-130.62 0-47.513 15.536-93.148 44.104-130.505 40.447-65.401 110.371-110.647 191.241-117.17-6.68-.539-13.431-.825-20.25-.825-137.243 0-248.5 111.257-248.5 248.5s111.257 248.5 248.5 248.5c6.819 0 13.57-.286 20.25-.825-80.822-6.519-150.712-51.716-191.17-117.055z" fill="#4fc123"/><g><circle cx="256" cy="256" fill="#fff" r="207.595"/></g><g><path d="m79.811 256c0-109.369 84.576-198.98 191.892-207.006-5.184-.388-10.42-.588-15.703-.588-114.651-.001-207.595 92.943-207.595 207.594s92.944 207.595 207.595 207.595c5.283 0 10.519-.201 15.703-.588-107.316-8.027-191.892-97.639-191.892-207.007z" fill="#f3f0f3"/></g><g><g><g><path d="m155.305 201.889v147.111c0 1.657 1.343 3 3 3h195.39c1.657 0 3-1.343 3-3v-147.111c0-1.221-.739-2.319-1.87-2.779l-97.695-39.721c-.725-.294-1.535-.294-2.26 0l-97.695 39.721c-1.131.459-1.87 1.558-1.87 2.779z" fill="#554e56"/></g><g><path d="m182.61 349v-160.232l-25.435 10.341c-1.131.46-1.87 1.559-1.87 2.779v147.112c0 1.657 1.343 3 3 3h27.305c-1.657 0-3-1.343-3-3z" fill="#433f43"/></g><path d="m280.87 229.678v46.898l23.13 10.424v-47.917z" fill="#fed402"/><g><path d="m256 193.344-100.695 40.941v26.222l100.695-40.94 100.695 40.94v-26.222z" fill="#fac600"/></g><g><path d="m155.305 234.412v26.222l100.695-40.941v-26.222z" fill="#fed402"/></g><g><path d="m182.61 223.31-27.305 11.102v26.222l27.305-11.101z" fill="#fac600"/></g></g></g><g><path d="m253.459 80.794-40.41 59.717c-1.836 2.713 1.288 6.029 4.105 4.358l39.143-23.205c.997-.591 2.241-.57 3.218.055l34.582 22.12c2.808 1.796 6.062-1.543 4.194-4.304l-39.75-58.741c-1.217-1.798-3.865-1.798-5.082 0z" fill="#fd4755"/></g></g><g><g><path d="m92.243 257.44 23.119 22.293c1.27 1.225 3.388.325 3.388-1.44v-44.586c0-1.764-2.118-2.664-3.388-1.44l-23.119 22.293c-.816.787-.816 2.093 0 2.88z" fill="#fd4755"/></g><g><path d="m419.757 257.44-23.119 22.293c-1.27 1.225-3.388.325-3.388-1.44v-44.586c0-1.764 2.118-2.664 3.388-1.44l23.119 22.293c.816.787.816 2.093 0 2.88z" fill="#fd4755"/></g></g><g><path d="m213.049 381.5c-4.142 0-7.5 3.357-7.5 7.5s3.358 7.5 7.5 7.5h85.901c4.143 0 7.5-3.357 7.5-7.5s-3.357-7.5-7.5-7.5z"/><path d="m491.597 155.704c-1.623-3.811-6.029-5.585-9.84-3.959-3.811 1.624-5.583 6.03-3.959 9.84 12.741 29.893 19.202 61.658 19.202 94.415 0 64.374-25.068 124.895-70.587 170.413s-106.039 70.587-170.413 70.587-124.894-25.068-170.413-70.587-70.587-106.039-70.587-170.413 25.068-124.894 70.587-170.413 106.039-70.587 170.413-70.587c42.222 0 83.76 11.074 120.124 32.025 35.288 20.331 65.093 49.501 86.192 84.355 2.146 3.544 6.757 4.677 10.3 2.532 3.544-2.145 4.678-6.757 2.532-10.3-22.407-37.015-54.06-67.993-91.536-89.585-38.638-22.26-82.766-34.027-127.612-34.027-68.38 0-132.667 26.629-181.02 74.98-48.351 48.352-74.98 112.64-74.98 181.02s26.629 132.668 74.98 181.02c48.353 48.351 112.64 74.98 181.02 74.98s132.668-26.629 181.02-74.98 74.98-112.64 74.98-181.02c0-34.789-6.864-68.534-20.403-100.296z"/><path d="m264.752 76.59c-1.968-2.908-5.24-4.645-8.752-4.645s-6.784 1.736-8.752 4.645v.001l-40.411 59.717c-2.792 4.127-2.356 9.541 1.06 13.168 2.066 2.193 4.85 3.338 7.676 3.338 1.847 0 3.712-.489 5.406-1.493l36.794-21.813 32.282 20.649c4.271 2.731 9.724 2.104 13.263-1.527 3.538-3.631 4.025-9.099 1.185-13.298zm-1.194 38.811c-3.384-2.164-7.629-2.237-11.085-.188l-22.124 13.115 25.651-37.907 24.037 35.522z"/><path d="m110.156 226.869-23.119 22.292c-1.847 1.78-2.906 4.273-2.906 6.839s1.06 5.058 2.906 6.838l23.119 22.294c1.809 1.743 4.179 2.664 6.591 2.664 1.253 0 2.517-.249 3.719-.76 3.514-1.493 5.785-4.925 5.785-8.743v-44.586c0-3.818-2.271-7.25-5.785-8.743s-7.561-.745-10.31 1.905zm1.094 38.48-9.695-9.349 9.695-9.349z"/><path d="m237.876 41.673c-53.563 4.472-103.231 28.748-139.853 68.358-36.833 39.838-57.118 91.678-57.118 145.969 0 57.454 22.374 111.469 63 152.095s94.641 63 152.095 63 111.469-22.374 152.095-63 63-94.641 63-152.095c0-54.291-20.285-106.131-57.118-145.969-36.622-39.61-86.289-63.887-139.853-68.358-4.126-.351-7.753 2.722-8.098 6.85s2.722 7.754 6.85 8.098c44.697 3.732 86.475 22.305 119.2 52.697l-18.816 18.816c-2.929 2.93-2.929 7.678 0 10.607 1.465 1.464 3.385 2.196 5.304 2.196s3.839-.732 5.304-2.196l18.819-18.819c.092.099.186.194.277.293 32.562 35.219 51.208 80.524 52.979 128.286h-6.443c-4.143 0-7.5 3.357-7.5 7.5s3.357 7.5 7.5 7.5h6.44c-1.835 49.521-21.747 94.496-53.323 128.51l-18.75-18.75c-2.93-2.928-7.678-2.928-10.607 0-2.929 2.93-2.929 7.678 0 10.607l18.75 18.75c-34.014 31.576-78.989 51.488-128.51 53.322v-26.609c0-4.143-3.357-7.5-7.5-7.5-4.142 0-7.5 3.357-7.5 7.5v26.609c-49.521-1.835-94.496-21.747-128.511-53.323l18.75-18.751c2.929-2.929 2.929-7.678 0-10.606s-7.678-2.929-10.606.001l-18.749 18.75c-31.577-34.015-51.489-78.989-53.324-128.511h6.44c4.142 0 7.5-3.357 7.5-7.5s-3.358-7.5-7.5-7.5h-6.442c1.772-47.762 20.417-93.067 52.98-128.286.092-.099.186-.195.278-.293l18.818 18.819c1.464 1.465 3.384 2.197 5.303 2.197s3.839-.732 5.303-2.196c2.929-2.929 2.929-7.678 0-10.606l-18.815-18.816c32.725-30.392 74.503-48.966 119.2-52.697 4.128-.344 7.194-3.97 6.85-8.098-.346-4.129-3.969-7.217-8.099-6.851z"/><path d="m395.254 287.796c2.411 0 4.783-.921 6.591-2.665l23.114-22.289c1.85-1.78 2.91-4.274 2.91-6.842s-1.061-5.062-2.906-6.838l-23.119-22.295c-2.75-2.649-6.797-3.396-10.311-1.903-3.513 1.493-5.783 4.926-5.783 8.743v44.586c0 3.818 2.271 7.251 5.786 8.744 1.201.511 2.465.759 3.718.759zm5.496-41.145 9.695 9.349-9.695 9.349z"/><path d="m356.695 299.5c4.143 0 7.5-3.357 7.5-7.5v-90.111c0-4.292-2.568-8.109-6.545-9.727l-97.693-39.72c-2.552-1.039-5.363-1.04-7.912-.001l-97.697 39.721c-3.975 1.618-6.543 5.436-6.543 9.727v147.111c0 5.79 4.71 10.5 10.5 10.5h195.391c5.79 0 10.5-4.71 10.5-10.5v-22c0-4.143-3.357-7.5-7.5-7.5s-7.5 3.357-7.5 7.5v17.5h-85.696v-113.788l9.87 4.013v41.851c0 2.95 1.729 5.626 4.419 6.838l23.13 10.424c.983.443 2.033.662 3.081.662 1.423 0 2.839-.404 4.07-1.201 2.139-1.381 3.43-3.753 3.43-6.299v-36.772l37.695 15.326v26.446c0 4.143 3.358 7.5 7.5 7.5zm-108.195 45h-85.695v-78.946l85.695-34.842zm0-129.98-85.695 34.842v-10.03l85.695-34.842zm0-26.223-85.695 34.843v-18.223l85.695-34.842zm15-18.222 85.695 34.842v18.223l-85.695-34.843zm33 105.319-8.13-3.664v-30.905l8.13 3.305zm-33-60.874v-10.03l85.695 34.842v10.03z"/></g></g></svg>