<svg id="Capa_1" enable-background="new 0 0 512 512" height="512" viewBox="0 0 512 512" width="512" xmlns="http://www.w3.org/2000/svg"><g><g><path d="m289.553 366.743h-67.107v-197.098c0-3.681 2.984-6.664 6.664-6.664h53.778c3.681 0 6.664 2.984 6.664 6.664v197.098z" fill="#f9f3f1"/></g><g><path d="m289.553 169.646v197.092h-20.176v-197.092c0-3.684-2.985-6.669-6.669-6.669h20.176c3.684 0 6.669 2.985 6.669 6.669z" fill="#efe2dd"/></g><g><path d="m222.794 470.261h66.41v34.252h-66.41z" fill="#dd7f66"/></g><g><path d="m150.687 369.334v31.5c0 11.289 4.307 22.171 12.111 30.327 12.846 13.426 34.745 32.6 59.979 39.1h66.444c25.234-6.5 47.133-25.673 59.979-39.1 7.804-8.156 12.111-19.039 12.111-30.327v-31.5c0-1.431-1.16-2.591-2.591-2.591h-205.442c-1.431 0-2.591 1.16-2.591 2.591z" fill="#eaa998"/></g><g><path d="m269.367 470.262h19.836v34.252h-19.836z" fill="#d6694b"/></g><g><path d="m361.311 369.334v31.497c0 11.291-4.303 22.172-12.109 30.328-12.848 13.427-34.741 32.605-59.978 39.103h-19.846c25.237-6.499 47.14-25.676 59.978-39.103 7.807-8.156 12.119-19.037 12.119-30.328v-31.497c0-1.428-1.168-2.596-2.596-2.596h19.846c1.428 0 2.586 1.168 2.586 2.596z" fill="#e49280"/></g><g><path d="m292.643 51.03c-7.418-16.589-23.202-26.188-32.311-41.101-1.989-3.256-6.676-3.256-8.664 0-9.109 14.913-24.894 24.512-32.311 41.101-12.278 27.464 8.942 51.415 36.644 51.415s48.92-23.952 36.642-51.415z" fill="#fea95c"/></g><g><path d="m273.851 98.853c6.16-9.224 7.751-21.31 2.007-34.164-7.719-17.253-24.481-26.947-33.364-42.919 3.383-3.713 6.563-7.568 9.187-11.867 1.981-3.246 6.667-3.222 8.649.023 9.109 14.916 24.897 24.51 32.311 41.108 9.438 21.107-.918 40.142-18.79 47.819z" fill="#fe9738"/></g><g><circle cx="256" cy="80.816" fill="#fee97d" r="21.885"/></g><g><path d="m277.883 80.814c0 12.089-9.793 21.883-21.883 21.883-5.031 0-9.654-1.687-13.347-4.532 9.684-2.246 16.911-10.931 16.911-21.314 0-7.068-3.354-13.347-8.545-17.351 1.597-.369 3.264-.569 4.982-.569 12.088 0 21.882 9.793 21.882 21.883z" fill="#fedf30"/></g><g><path d="m298.705 149.479c0-11.682-9.47-21.152-21.152-21.152h-43.107c-11.682 0-21.152 9.47-21.152 21.152v21.814c0 13.185 10.689 23.874 23.874 23.874h.966c12.32 0 22.307 9.987 22.307 22.307v63.835c0 10.566 8.566 19.132 19.132 19.132 10.566 0 19.132-8.566 19.132-19.132z" fill="#cbc4cc"/></g><g><path d="m298.707 149.477v131.836c0 5.281-2.136 10.063-5.601 13.527-3.464 3.464-8.256 5.601-13.537 5.601-3.764 0-7.278-1.088-10.233-2.965 1.198-.749 2.306-1.637 3.304-2.636 3.464-3.464 5.601-8.246 5.601-13.527v-131.836c0-11.68-9.474-21.154-21.154-21.154h20.465c11.681 0 21.155 9.474 21.155 21.154z" fill="#b5adb6"/></g><path d="m358.722 359.256h-61.682v-57.886c5.602-4.884 9.152-12.063 9.152-20.061v-76.746c0-4.136-3.352-7.487-7.487-7.487s-7.487 3.352-7.487 7.487v76.746c0 6.421-5.224 11.644-11.645 11.644s-11.644-5.224-11.644-11.644v-63.835c0-16.428-13.366-29.794-29.795-29.794h-.966c-9.035 0-16.387-7.351-16.387-16.387v-21.813c0-7.535 6.13-13.665 13.665-13.665h43.107c7.535 0 13.665 6.13 13.665 13.665v20.568c0 4.136 3.352 7.487 7.487 7.487s7.487-3.352 7.487-7.487v-20.568c0-15.793-12.847-28.64-28.64-28.64h-14.066v-11.445c14.135-1.933 26.405-9.285 33.694-20.527 7.855-12.116 8.671-26.639 2.298-40.894-4.693-10.497-12.052-18.189-19.168-25.627-5.15-5.383-10.015-10.469-13.589-16.321-2.305-3.774-6.313-6.026-10.722-6.026s-8.416 2.253-10.721 6.026c-3.574 5.85-8.438 10.935-13.589 16.319-7.116 7.439-14.475 15.131-19.169 25.629-6.372 14.254-5.557 28.777 2.299 40.893 7.289 11.242 19.559 18.594 33.693 20.527v11.445h-14.066c-15.792 0-28.639 12.847-28.639 28.64v21.813c0 8.624 3.5 16.445 9.152 22.12v165.843h-8.404c-4.135 0-7.487 3.352-7.487 7.487s3.352 7.487 7.487 7.487h147.271v26.604c0 9.456-3.564 18.388-10.035 25.152-23.055 24.095-42.785 33.32-55.543 36.788h-64.496c-12.759-3.469-32.489-12.693-55.543-36.788-6.47-6.764-10.034-15.696-10.034-25.152v-26.603h13.665c4.135 0 7.487-3.352 7.487-7.487s-3.352-7.487-7.487-7.487h-18.561c-5.557 0-10.078 4.521-10.078 10.078v31.501c0 13.331 5.039 25.939 14.189 35.503 13.346 13.949 33.866 31.614 57.919 39.523v28.652c0 4.135 3.352 7.487 7.487 7.487h66.411c4.136 0 7.487-3.352 7.487-7.487v-28.652c24.052-7.909 44.572-25.574 57.918-39.523 9.151-9.564 14.19-22.172 14.19-35.503v-31.501c-.002-5.558-4.523-10.078-10.08-10.078zm-132.062-279.735c-4.299-7.483-4.483-16.456-.469-25.435 3.636-8.131 9.797-14.571 16.319-21.389 4.655-4.866 9.444-9.873 13.489-15.71 4.045 5.838 8.835 10.844 13.49 15.711 6.523 6.818 12.684 13.258 16.319 21.388 4.014 8.979 3.83 17.952-.469 25.434-.681-15.596-13.579-28.076-29.34-28.076-15.761-.001-28.658 12.48-29.339 28.077zm14.942 1.295c0-7.94 6.459-14.398 14.398-14.398 7.94 0 14.398 6.459 14.398 14.398 0 6.77-4.701 12.447-11.007 13.978-1.751.425-5.044.422-6.783 0-6.305-1.531-11.006-7.209-11.006-13.978zm40.464 278.44h-52.132v-157.453c2.324.551 4.744.852 7.234.852h.966c8.172 0 14.82 6.648 14.82 14.82v63.835c0 14.677 11.942 26.619 26.619 26.619.841 0 1.672-.044 2.493-.121zm-.348 137.769h-51.436v-19.277h51.436z"/></g></svg>