<svg id="Capa_1" enable-background="new 0 0 512 512" height="512" viewBox="0 0 512 512" width="512" xmlns="http://www.w3.org/2000/svg"><g><g><path d="m322.241 360.443-17.391-11.149h-48.564-.634-48.564l-17.391 11.149s-61.686 44.638-59.261 106.49v37.596h125.216.634 125.216v-37.596c2.425-61.851-59.261-106.49-59.261-106.49z" fill="#fee97d"/></g><g><path d="m381.502 466.936v37.591h-18.337v-37.591c2.42-61.855-59.265-106.488-59.265-106.488l-17.391-11.156h18.338l17.391 11.156c-.002 0 61.694 44.633 59.264 106.488z" fill="#fedf30"/></g><g><path d="m197.396 394.914s-4.009 35.621 38.349 61.479c7.244 4.422 16.543-.778 16.543-9.265v-52.213h-54.892z" fill="#c8effe"/></g><g><path d="m252.283 394.911v52.213c0 8.486-9.293 13.686-16.535 9.273-2.52-1.544-4.881-3.118-7.082-4.721 1.882-1.902 3.088-4.532 3.088-7.58v-49.185z" fill="#99e6fc"/></g><g><path d="m339.707 339.863-83.738 3.685-83.738-3.685c-7.541 8.648-9.294 21.131-5.388 31.794 11.995 32.742 60.135 40.325 89.126 39.402 28.991.923 77.131-6.66 89.126-39.402 3.906-10.662 2.153-23.145-5.388-31.794z" fill="#c8effe"/></g><g><path d="m345.096 371.653c-11.993 32.75-60.132 40.33-89.127 39.404-3.436.11-7.152.1-11.036-.06 28.876-1.245 67.533-11.206 78.111-42.083 3.157-9.214 2.62-19.682-1.683-28.248l18.347-.807c7.539 8.656 9.292 21.137 5.388 31.794z" fill="#99e6fc"/></g><g><path d="m358.541 51.125c-18.762-20.389-42.725-33.072-67.523-39.44-21.982-5.645-48.167-5.628-70.1 0-24.798 6.368-48.76 19.052-67.523 39.44-40.384 43.886-47.823 115.582-39.122 176.834 4.317 30.39 14.401 60.043 31.883 83.333 27.637 36.82 69.214 50.784 109.812 52.16 40.598-1.376 82.175-15.34 109.812-52.16 17.482-23.29 27.566-52.943 31.883-83.333 8.701-61.252 1.262-132.949-39.122-176.834z" fill="#c8effe"/></g><g><path d="m397.668 227.962c-4.323 30.39-14.403 60.042-31.884 83.33-27.641 36.814-69.216 50.779-109.815 52.163-3.217-.11-6.444-.299-9.662-.568 37.442-3.177 74.694-17.7 100.134-51.596 17.491-23.288 27.571-52.94 31.884-83.33 8.706-61.257 1.265-132.954-39.115-176.84-18.766-20.389-42.731-33.069-67.523-39.434-8.038-2.062-16.634-3.377-25.379-3.924 15.16-.956 30.778.349 44.713 3.924 24.792 6.365 48.757 19.045 67.523 39.434 40.379 43.888 47.819 115.584 39.124 176.841z" fill="#99e6fc"/></g><g><path d="m363.296 169.625v41.969c0 59.275-48.053 107.328-107.328 107.328s-107.328-48.053-107.328-107.328v-41.969c0-3.823.195-7.594.596-11.314 5.642-53.952 51.28-96.013 106.732-96.013 29.637 0 56.469 12.013 75.892 31.436 16.915 16.915 28.219 39.462 30.84 64.577.401 3.72.596 7.492.596 11.314z" fill="#f6a96c"/></g><g><path d="m363.294 169.623v41.974c0 59.275-48.05 107.325-107.325 107.325-3.416 0-6.793-.159-10.13-.478 54.524-5.1 97.195-50.988 97.195-106.847v-41.974c0-3.825-.199-7.59-.597-11.315-2.62-25.111-13.925-47.661-30.848-64.574-17.182-17.192-40.171-28.577-65.78-30.958 3.347-.319 6.733-.478 10.16-.478 29.633 0 56.466 12.012 75.889 31.436 16.913 16.913 28.218 39.464 30.838 64.574.409 3.725.598 7.49.598 11.315z" fill="#ea9b58"/></g><g><path d="m189.528 80.158c-18.044 15.542-35.552 39.065-39.847 74.55h106.288 106.29c-4.295-35.485-21.805-59.008-39.849-74.55-38.578-33.23-94.305-33.23-132.882 0z" fill="#fee97d"/></g><g><path d="m362.258 154.712h-19.941c-5.618-31.585-21.973-53.01-38.786-67.493-26.336-22.68-60.66-29.882-92.065-21.595 35.858-17.65 79.196-12.809 110.941 14.532 18.047 15.54 35.558 39.067 39.851 74.556z" fill="#fedf30"/></g><g><path d="m209.984 195.114c-4.126 0-7.47 3.344-7.47 7.47v17.791c0 4.126 3.344 7.47 7.47 7.47s7.47-3.344 7.47-7.47v-17.791c.001-4.126-3.343-7.47-7.47-7.47z"/><path d="m301.952 195.114c-4.126 0-7.47 3.344-7.47 7.47v17.791c0 4.126 3.344 7.47 7.47 7.47s7.47-3.344 7.47-7.47v-17.791c.001-4.126-3.343-7.47-7.47-7.47z"/><path d="m275.056 257.511c-3.146-2.668-7.861-2.28-10.529.868-2.138 2.521-5.256 3.968-8.558 3.968-3.301 0-6.421-1.446-8.559-3.969-2.666-3.147-7.381-3.536-10.529-.868-3.148 2.667-3.536 7.382-.868 10.529 4.982 5.878 12.255 9.249 19.955 9.249s14.973-3.37 19.954-9.248c2.67-3.147 2.282-7.861-.866-10.529z"/><path d="m360.945 120.214c-7.393-17.701-19.156-33.223-33.66-45.716-41.323-35.595-101.31-35.595-142.632 0-24.289 20.924-38.551 47.608-42.388 79.313-.01.079-.009.158-.016.238-.458 5.187-1.077 10.31-1.077 15.576v41.97c0 63.3 51.498 114.798 114.797 114.798 63.3 0 114.798-51.498 114.798-114.798 0 0 0-41.969 0-41.97 0-4.025-.191-8.065-.571-12.096-1.206-12.793-4.313-25.491-9.251-37.315zm-166.542-34.396c35.674-30.729 87.457-30.727 123.131 0 19.207 16.545 31.289 37.174 35.994 61.42h-195.118c4.705-24.246 16.787-44.875 35.993-61.42zm161.423 125.777c0 55.061-44.796 99.858-99.858 99.858s-99.857-44.796-99.857-99.858v-41.97c0-2.51.097-4.999.279-7.446h199.156c.182 2.445.28 4.937.28 7.446z"/><path d="m371.755 315.776c16.93-22.555 28.446-52.558 33.305-86.767 10.251-72.173-5.128-120.661-15.207-143.139-1.689-3.765-6.112-5.446-9.873-3.76-3.765 1.689-5.448 6.109-3.76 9.873 16.266 36.273 21.255 84.191 14.048 134.926-4.505 31.723-15.038 59.352-30.46 79.899-28.982 38.612-72.411 48.062-103.838 49.169-31.426-1.107-74.855-10.557-103.837-49.169-15.421-20.546-25.955-48.174-30.461-79.899-4.579-32.233-4.198-64.22 1.101-92.503 6.082-32.467 18.235-58.785 36.122-78.222 16.443-17.868 38.533-30.753 63.883-37.264 20.793-5.335 45.609-5.335 66.385 0 25.352 6.51 47.442 19.396 63.884 37.264 2.107 2.289 4.165 4.714 6.119 7.208 2.544 3.249 7.241 3.819 10.489 1.274 3.247-2.545 3.817-7.241 1.272-10.488-2.196-2.805-4.514-5.534-6.887-8.111-18.4-19.997-43.007-34.388-71.162-41.618-23.102-5.931-50.696-5.931-73.815 0-28.153 7.23-52.761 21.621-71.162 41.618-19.812 21.53-33.208 50.325-39.814 85.587-5.594 29.865-6.012 63.53-1.208 97.356 4.86 34.21 16.376 64.214 33.306 86.767 7.046 9.388 14.823 17.232 23.033 23.783-6.246 10.027-7.64 23.063-3.387 34.669.337.919.707 1.816 1.091 2.701-5.018 5.527-10.281 11.956-15.251 19.217-2.33 3.404-1.459 8.054 1.945 10.385 3.405 2.329 8.055 1.46 10.385-1.945 3.642-5.321 7.485-10.18 11.253-14.522 5.696 6.556 12.999 11.808 21.241 15.932 2.109 14.076 10.466 37.914 41.36 56.774 2.972 1.814 6.26 2.724 9.556 2.724 3.076 0 6.158-.793 8.992-2.383 5.86-3.289 9.359-9.263 9.359-15.982v-28.53c29.47.215 64.548-7.397 82.924-28.549 1.416 1.633 2.841 3.331 4.266 5.111 12.999 16.243 28.25 41.829 27.088 71.479-.004.097-.006.195-.006.293v30.126h-43.09v-34.242c0-4.126-3.344-7.47-7.47-7.47s-7.47 3.344-7.47 7.47v34.242h-120.066v-34.242c0-4.126-3.344-7.47-7.47-7.47s-7.47 3.344-7.47 7.47v34.242h-43.09v-30.126c0-.097-.002-.196-.006-.293-.427-10.899 1.315-22.041 5.178-33.114 1.36-3.896-.697-8.155-4.592-9.514-3.901-1.364-8.156.697-9.514 4.592-4.466 12.8-6.486 25.743-6.006 38.473v37.452c0 4.126 3.344 7.47 7.47 7.47h251.066c4.126 0 7.47-3.344 7.47-7.47v-37.454c1.02-27.066-9.476-55.157-30.358-81.25-2.551-3.188-5.105-6.157-7.598-8.902.384-.885.757-1.778 1.094-2.696 4.252-11.606 2.858-24.642-3.388-34.669 8.207-6.551 15.985-14.395 23.031-23.783zm-126.937 131.352c0 1.725-1.084 2.59-1.729 2.952-.526.295-1.913.875-3.451-.063-20.035-12.231-28.625-26.558-32.268-37.434 12.1 3.614 25.087 5.456 37.449 5.909v28.636zm93.263-78.04c-3.341 9.12-10.429 16.118-18.636 21.035-10.355 6.204-22.316 9.542-34.15 11.496-28.372 4.683-62.875 3.947-88.873-9.325-9.827-5.016-18.682-12.609-22.565-23.207-2.575-7.03-1.906-14.823 1.583-20.893 12.921 8.067 27.188 13.823 41.95 17.503 31.104 7.755 64.344 5.941 94.337-5.329 2.201-.827 25.358-11.152 24.771-12.173 3.488 6.07 4.158 13.863 1.583 20.893z"/></g></g></svg>