<svg id="Capa_1" enable-background="new 0 0 512 512" height="512" viewBox="0 0 512 512" width="512" xmlns="http://www.w3.org/2000/svg"><g><g><g><path d="m503.036 252.465-68.391-68.391c-.938-.938-1.464-2.209-1.464-3.535v-96.72c0-2.761-2.238-5-5-5h-96.719c-1.326 0-2.598-.527-3.535-1.464l-68.392-68.391c-1.953-1.953-5.118-1.953-7.071 0l-68.391 68.391c-.938.938-2.209 1.464-3.535 1.464h-96.719c-2.761 0-5 2.238-5 5v96.719c0 1.326-.527 2.598-1.464 3.535l-68.391 68.392c-1.953 1.952-1.953 5.118 0 7.071l68.391 68.391c.938.938 1.464 2.209 1.464 3.535v96.719c0 2.761 2.238 5 5 5h96.719c1.326 0 2.598.527 3.535 1.464l68.391 68.391c1.952 1.952 5.118 1.952 7.071 0l68.391-68.391c.938-.938 2.209-1.464 3.535-1.464h96.719c2.761 0 5-2.238 5-5v-96.719c0-1.326.527-2.598 1.464-3.535l68.391-68.391c1.953-1.953 1.953-5.119.001-7.071z" fill="#80d261"/></g><g><path d="m195.035 398.182h-76.217c-2.761 0-5-2.238-5-5v-76.217c0-1.326-.527-2.598-1.464-3.535l-53.895-53.895c-1.952-1.953-1.952-5.118 0-7.071l53.895-53.895c.938-.938 1.464-2.209 1.464-3.535v-76.217c0-2.761 2.239-5 5-5h76.217c1.326 0 2.598-.527 3.535-1.464l53.895-53.895c1.952-1.952 5.118-1.952 7.071 0l53.895 53.895c.938.938 2.209 1.464 3.535 1.464h76.217c2.761 0 5 2.239 5 5v76.217c0 1.326.527 2.598 1.464 3.535l53.895 53.895c1.952 1.952 1.952 5.118 0 7.071l-53.895 53.895c-.938.938-1.464 2.209-1.464 3.535v76.217c0 2.761-2.238 5-5 5h-76.217c-1.326 0-2.598.527-3.535 1.464l-53.895 53.895c-1.953 1.952-5.118 1.952-7.071 0l-53.895-53.895c-.938-.937-2.209-1.464-3.535-1.464z" fill="#fef1da"/></g><g><g><path d="m155.812 393.183v-76.218c0-1.326-.527-2.598-1.464-3.535l-53.895-53.895c-1.953-1.953-1.953-5.118 0-7.071l53.895-53.895c.938-.938 1.464-2.209 1.464-3.535v-76.217c0-2.761 2.238-5 5-5h-41.994c-2.761 0-5 2.238-5 5v76.217c0 1.326-.527 2.598-1.464 3.535l-53.895 53.895c-1.953 1.953-1.953 5.118 0 7.071l53.895 53.895c.938.938 1.464 2.209 1.464 3.535v76.218c0 2.761 2.239 5 5 5h41.994c-2.762-.001-5-2.239-5-5z" fill="#fae2c0"/></g></g></g><g><path d="m118.817 405.683h75.183l53.16 53.16c2.361 2.362 5.5 3.663 8.84 3.663s6.479-1.301 8.839-3.661l53.161-53.162h75.183c6.893 0 12.5-5.607 12.5-12.5v-75.183l53.16-53.16c2.362-2.361 3.663-5.5 3.663-8.84s-1.301-6.479-3.661-8.839l-53.162-53.161v-22c0-4.143-3.357-7.5-7.5-7.5s-7.5 3.357-7.5 7.5v23.035c0 3.339 1.3 6.478 3.66 8.839l52.127 52.126-52.127 52.126c-2.36 2.361-3.66 5.5-3.66 8.839v73.718h-73.718c-3.339 0-6.478 1.3-8.839 3.66l-52.126 52.127-52.126-52.127c-2.361-2.36-5.5-3.66-8.839-3.66h-73.718v-73.718c0-3.339-1.3-6.478-3.66-8.839l-52.127-52.126 52.127-52.126c2.36-2.361 3.66-5.5 3.66-8.839v-73.718h73.718c3.339 0 6.478-1.3 8.839-3.66l52.126-52.127 52.126 52.127c2.361 2.36 5.5 3.66 8.839 3.66h73.718v15.683c0 4.143 3.357 7.5 7.5 7.5s7.5-3.357 7.5-7.5v-18.183c0-6.893-5.607-12.5-12.5-12.5h-75.183l-53.16-53.16c-2.361-2.362-5.5-3.663-8.84-3.663s-6.479 1.301-8.839 3.661l-53.161 53.162h-75.183c-6.893 0-12.5 5.607-12.5 12.5v75.183l-53.16 53.16c-2.362 2.361-3.663 5.5-3.663 8.84s1.301 6.479 3.661 8.839l53.162 53.161v75.183c0 6.892 5.608 12.5 12.5 12.5z"/><path d="m195.02 227.407v-78.406c0-4.143-3.357-7.5-7.5-7.5s-7.5 3.357-7.5 7.5v78.406c0 10.966-8.921 19.887-19.886 19.887-3.985 0-7.829-1.173-11.113-3.392-6.848-4.626-9.307-13.707-5.846-21.592l1.227-2.794c1.665-3.793-.06-8.217-3.853-9.882-3.791-1.664-8.217.06-9.882 3.853l-1.227 2.794c-6.375 14.522-1.671 31.366 11.184 40.051 5.773 3.9 12.521 5.962 19.51 5.962 19.236 0 34.886-15.65 34.886-34.887z"/><path d="m395.964 240.777c-1.538-3.846-5.903-5.717-9.749-4.179-2.184.873-4.336 1.687-6.456 2.444-2.466-5.681-7.796-14.87-18.089-20.797-11.073-6.377-24.69-7.331-40.475-2.84-3.984 1.135-6.295 5.283-5.161 9.267 1.135 3.985 5.287 6.295 9.267 5.161 11.661-3.319 21.329-2.872 28.735 1.326 5.92 3.356 9.387 8.573 11.233 12.276-25.297 6.231-44.474 2.764-54.016-10.265-22.008-30.05-29.756-84.646-29.832-85.191-.547-3.975-4.121-6.826-8.12-6.446-3.995.369-6.992 3.817-6.801 7.825 1.644 34.451-7.405 61.398-26.896 80.094-14.561 13.966-29.933 18.004-30.17 18.064-4.008.997-6.458 5.048-5.474 9.063.838 3.424 3.904 5.718 7.278 5.718.591 0 1.191-.07 1.79-.218.763-.187 18.873-4.763 36.33-21.205 10.105-9.517 21.243-24.324 27.45-46.372 5.078 16.19 12.323 33.854 22.342 47.532 16.396 22.386 50.159 25.48 92.634 8.493 3.847-1.539 5.718-5.904 4.18-9.75z"/><path d="m229.558 195.712c.104 4.075 3.44 7.308 7.493 7.308.065 0 .131-.001.196-.003 4.141-.105 7.411-3.549 7.305-7.689-.86-33.6-32.355-48.071-33.696-48.671-3.768-1.686-8.182-.001-9.884 3.763-1.701 3.765-.025 8.202 3.733 9.918.989.45 24.236 11.336 24.853 35.374z"/><path d="m167.596 332.5c4.143 0 7.5-3.357 7.5-7.5v-40.311c0-4.143-3.357-7.5-7.5-7.5s-7.5 3.357-7.5 7.5v12.655h-13.096v-12.655c0-4.143-3.357-7.5-7.5-7.5s-7.5 3.357-7.5 7.5v40.311c0 4.143 3.357 7.5 7.5 7.5s7.5-3.357 7.5-7.5v-12.655h13.096v12.655c0 4.143 3.357 7.5 7.5 7.5z"/><path d="m241.5 277.189c-4.143 0-7.5 3.357-7.5 7.5v40.311c0 4.143 3.357 7.5 7.5 7.5h28.096c4.143 0 7.5-3.357 7.5-7.5s-3.357-7.5-7.5-7.5h-20.596v-32.811c0-4.142-3.357-7.5-7.5-7.5z"/><path d="m184.66 331.941c3.837 1.572 8.214-.269 9.781-4.102l1.092-2.669h16.915l1.092 2.669c1.188 2.904 3.989 4.662 6.944 4.662.945 0 1.907-.18 2.837-.561 3.834-1.568 5.67-5.947 4.102-9.781l-16.49-40.311c-1.153-2.818-3.896-4.66-6.941-4.66s-5.788 1.842-6.941 4.66l-16.491 40.311c-1.57 3.835.266 8.214 4.1 9.782zm19.331-27.444 2.321 5.674h-4.642z"/><path d="m344.404 277.189c-4.143 0-7.5 3.357-7.5 7.5v40.311c0 4.143 3.357 7.5 7.5 7.5h28.096c4.143 0 7.5-3.357 7.5-7.5s-3.357-7.5-7.5-7.5h-20.596v-32.811c0-4.142-3.357-7.5-7.5-7.5z"/><path d="m315.703 327.84c1.188 2.904 3.989 4.662 6.944 4.662.945 0 1.907-.18 2.837-.561 3.834-1.568 5.67-5.947 4.102-9.781l-16.49-40.311c-1.153-2.818-3.896-4.66-6.941-4.66s-5.788 1.842-6.941 4.66l-16.491 40.311c-1.568 3.834.268 8.213 4.102 9.781 3.838 1.572 8.215-.269 9.781-4.102l1.092-2.669h16.915zm-11.87-17.669 2.321-5.674 2.321 5.674z"/><path d="m208 369.5h96c4.143 0 7.5-3.357 7.5-7.5s-3.357-7.5-7.5-7.5h-96c-4.143 0-7.5 3.357-7.5 7.5s3.357 7.5 7.5 7.5z"/><path d="m508.339 247.161-67.658-67.657v-95.685c0-6.893-5.607-12.5-12.5-12.5h-95.685l-67.657-67.659c-2.361-2.36-5.5-3.66-8.839-3.66s-6.478 1.3-8.839 3.66l-67.657 67.659h-95.685c-6.893 0-12.5 5.607-12.5 12.5v95.685l-67.656 67.656c-2.362 2.361-3.663 5.5-3.663 8.84s1.301 6.479 3.661 8.839l67.658 67.657v26.504c0 4.143 3.357 7.5 7.5 7.5s7.5-3.357 7.5-7.5v-27.538c0-3.337-1.299-6.476-3.66-8.84l-66.623-66.622 66.623-66.622c2.36-2.361 3.66-5.5 3.66-8.839v-94.22h94.22c3.339 0 6.478-1.3 8.839-3.66l66.622-66.624 66.622 66.624c2.361 2.36 5.5 3.66 8.839 3.66h94.22v94.22c0 3.339 1.3 6.478 3.66 8.839l66.623 66.622-66.625 66.625c-2.359 2.361-3.658 5.5-3.658 8.837v94.219h-32.681c-4.143 0-7.5 3.357-7.5 7.5s3.357 7.5 7.5 7.5h35.181c6.893 0 12.5-5.607 12.5-12.5v-95.685l67.656-67.656c2.362-2.361 3.663-5.5 3.663-8.84s-1.301-6.479-3.661-8.839z"/><path d="m358 425.681h-26.539c-3.339 0-6.478 1.3-8.839 3.66l-66.622 66.623-66.622-66.623c-2.361-2.36-5.5-3.66-8.839-3.66h-94.22v-31.681c0-4.143-3.357-7.5-7.5-7.5s-7.5 3.357-7.5 7.5v34.181c0 6.893 5.607 12.5 12.5 12.5h95.685l67.656 67.656c2.361 2.362 5.5 3.663 8.84 3.663s6.479-1.301 8.839-3.661l67.657-67.658h25.504c4.143 0 7.5-3.357 7.5-7.5s-3.357-7.5-7.5-7.5z"/></g></g></svg>