<svg id="Capa_1" enable-background="new 0 0 512 512" height="512" viewBox="0 0 512 512" width="512" xmlns="http://www.w3.org/2000/svg"><g><g><path d="m263.519 435.463h-15.037s-24.045 10.777-30.398 57.638c-.824 6.081 5.005 11.404 12.485 11.404h50.863c7.48 0 13.309-5.323 12.485-11.404-6.353-46.862-30.398-57.638-30.398-57.638z" fill="#fee97d"/></g><g><path d="m281.432 504.505h-19.596c7.475 0 13.311-5.326 12.481-11.402-5.146-38.023-21.945-52.283-28.11-56.32 1.429-.939 2.278-1.319 2.278-1.319h15.029s24.053 10.772 30.399 57.639c.83 6.075-5.006 11.402-12.481 11.402z" fill="#fedf30"/></g><g><g><g><circle cx="256" cy="27.354" fill="#eaa998" r="19.859"/></g><g><circle cx="256" cy="332.29" fill="#eaa998" r="19.859"/></g></g><g><path d="m275.856 27.351c0 10.972-8.884 19.866-19.856 19.866-7.165 0-13.431-3.787-16.928-9.473.26.01.52.02.789.02 10.962 0 19.856-8.894 19.856-19.866 0-3.807-1.069-7.365-2.928-10.383 10.613.41 19.067 9.144 19.067 19.836z" fill="#e49280"/></g><g><path d="m236.141 332.284c0 10.972 8.884 19.866 19.856 19.866 7.165 0 13.431-3.787 16.928-9.473-.26.01-.52.02-.789.02-10.962 0-19.856-8.894-19.856-19.866 0-3.807 1.069-7.365 2.928-10.383-10.613.409-19.067 9.143-19.067 19.836z" fill="#e49280"/></g></g><g><g><g><circle cx="216.538" cy="32.549" fill="#eaa998" r="19.859"/></g><g><circle cx="295.462" cy="327.095" fill="#eaa998" r="19.859"/></g></g><g><path d="m235.717 27.408c2.84 10.598-3.439 21.488-14.038 24.328-6.921 1.854-13.953-.182-18.803-4.769.254-.058.507-.115.768-.185 10.589-2.837 16.878-13.73 14.038-24.328-.985-3.678-2.939-6.837-5.515-9.271 10.356-2.352 20.783 3.896 23.55 14.225z" fill="#e49280"/></g><g><path d="m276.277 332.228c2.84 10.598 13.723 16.89 24.321 14.05 6.921-1.854 11.993-7.134 13.899-13.532-.248.077-.497.154-.757.224-10.589 2.837-21.481-3.452-24.321-14.05-.985-3.678-.873-7.391.141-10.787-10.145 3.143-16.05 13.767-13.283 24.095z" fill="#e49280"/></g></g><g><g><g><circle cx="179.766" cy="47.781" fill="#eaa998" r="19.859"/></g><g><circle cx="332.234" cy="311.863" fill="#eaa998" r="19.859"/></g></g><g><path d="m196.96 37.851c5.486 9.502 2.24 21.646-7.263 27.132-6.205 3.582-13.525 3.435-19.397.26.23-.121.46-.243.694-.377 9.494-5.481 12.749-17.63 7.263-27.132-1.904-3.297-4.608-5.843-7.727-7.528 9.396-4.952 21.084-1.615 26.43 7.645z" fill="#e49280"/></g><g><path d="m315.032 321.787c5.486 9.502 17.626 12.763 27.129 7.276 6.205-3.582 9.738-9.995 9.923-16.668-.22.139-.44.277-.674.412-9.494 5.481-21.643 2.226-27.129-7.276-1.904-3.297-2.756-6.913-2.656-10.456-8.985 5.662-11.939 17.452-6.593 26.712z" fill="#e49280"/></g></g><g><g><g><circle cx="148.189" cy="72.011" fill="#eaa998" r="19.859"/></g><g><circle cx="363.811" cy="287.633" fill="#eaa998" r="19.859"/></g></g><g><path d="m162.227 57.969c7.759 7.759 7.766 20.329.007 28.088-5.066 5.066-12.175 6.819-18.669 5.271.191-.177.382-.353.572-.544 7.751-7.751 7.752-20.329-.007-28.088-2.692-2.692-5.964-4.452-9.412-5.271 7.795-7.215 19.948-7.017 27.509.544z" fill="#e49280"/></g><g><path d="m349.764 301.671c7.759 7.759 20.329 7.766 28.088.007 5.066-5.066 6.819-12.175 5.271-18.669-.177.191-.353.382-.544.572-7.751 7.751-20.329 7.751-28.088-.007-2.692-2.692-4.452-5.964-5.271-9.412-7.215 7.795-7.017 19.949.544 27.509z" fill="#e49280"/></g></g><g><g><g><circle cx="123.959" cy="103.588" fill="#eaa998" r="19.859"/></g><g><circle cx="388.041" cy="256.056" fill="#eaa998" r="19.859"/></g></g><g><path d="m133.884 86.391c9.502 5.486 12.763 17.626 7.276 27.129-3.582 6.205-9.995 9.737-16.668 9.923.139-.22.277-.44.412-.674 5.481-9.494 2.226-21.643-7.276-27.129-3.297-1.904-6.913-2.756-10.456-2.656 5.662-8.985 17.452-11.939 26.712-6.593z" fill="#e49280"/></g><g><path d="m378.106 273.252c9.502 5.486 21.646 2.239 27.132-7.263 3.582-6.205 3.435-13.525.26-19.397-.121.23-.242.46-.377.694-5.481 9.494-17.63 12.749-27.132 7.263-3.297-1.904-5.843-4.608-7.528-7.727-4.952 9.395-1.615 21.083 7.645 26.43z" fill="#e49280"/></g></g><g><g><g><circle cx="108.727" cy="140.361" fill="#eaa998" r="19.859"/></g><g><circle cx="403.273" cy="219.284" fill="#eaa998" r="19.859"/></g></g><g><path d="m113.864 121.18c10.598 2.84 16.89 13.723 14.05 24.321-1.854 6.921-7.134 11.993-13.532 13.899.077-.248.154-.497.224-.757 2.837-10.589-3.452-21.481-14.05-24.321-3.678-.985-7.391-.873-10.787.141 3.142-10.145 13.766-16.05 24.095-13.283z" fill="#e49280"/></g><g><path d="m398.126 238.465c10.598 2.84 21.488-3.439 24.328-14.038 1.854-6.921-.182-13.953-4.769-18.803-.058.254-.115.507-.185.768-2.837 10.589-13.73 16.878-24.328 14.038-3.678-.985-6.837-2.939-9.271-5.515-2.351 10.356 3.897 20.782 14.225 23.55z" fill="#e49280"/></g></g><g><g><g><circle cx="103.532" cy="179.822" fill="#eaa998" r="19.859"/></g><g><circle cx="408.468" cy="179.822" fill="#eaa998" r="19.859"/></g></g><g><path d="m103.529 159.966c10.972 0 19.866 8.884 19.866 19.856 0 7.165-3.787 13.431-9.473 16.928.01-.26.02-.52.02-.789 0-10.962-8.894-19.856-19.866-19.856-3.807 0-7.365 1.069-10.383 2.928.41-10.613 9.144-19.067 19.836-19.067z" fill="#e49280"/></g><g><path d="m408.461 199.682c10.972 0 19.866-8.884 19.866-19.856 0-7.165-3.787-13.431-9.473-16.928.01.26.02.52.02.789 0 10.962-8.894 19.856-19.866 19.856-3.807 0-7.365-1.069-10.383-2.928.41 10.613 9.144 19.067 19.836 19.067z" fill="#e49280"/></g></g><g><g><g><circle cx="108.727" cy="219.284" fill="#eaa998" r="19.859"/></g><g><circle cx="403.273" cy="140.361" fill="#eaa998" r="19.859"/></g></g><g><path d="m103.585 200.105c10.598-2.84 21.488 3.439 24.328 14.038 1.854 6.921-.182 13.953-4.769 18.803-.058-.254-.115-.507-.185-.768-2.837-10.589-13.73-16.878-24.328-14.038-3.678.985-6.837 2.939-9.271 5.515-2.351-10.356 3.897-20.782 14.225-23.55z" fill="#e49280"/></g><g><path d="m408.406 159.545c10.598-2.84 16.89-13.723 14.05-24.321-1.854-6.921-7.134-11.993-13.532-13.899.077.248.154.497.224.757 2.837 10.589-3.452 21.481-14.05 24.321-3.678.985-7.391.873-10.787-.141 3.143 10.145 13.767 16.05 24.095 13.283z" fill="#e49280"/></g></g><g><g><g><circle cx="123.959" cy="256.056" fill="#eaa998" r="19.859"/></g><g><circle cx="388.041" cy="103.588" fill="#eaa998" r="19.859"/></g></g><g><path d="m114.028 238.862c9.502-5.486 21.646-2.24 27.132 7.263 3.582 6.205 3.435 13.525.26 19.397-.121-.23-.242-.46-.377-.694-5.481-9.494-17.63-12.749-27.132-7.263-3.297 1.904-5.843 4.608-7.528 7.727-4.951-9.396-1.615-21.084 7.645-26.43z" fill="#e49280"/></g><g><path d="m397.965 120.79c9.502-5.486 12.763-17.626 7.276-27.129-3.582-6.205-9.995-9.738-16.668-9.923.139.22.277.44.412.674 5.481 9.494 2.226 21.643-7.276 27.129-3.297 1.904-6.913 2.756-10.456 2.656 5.661 8.985 17.452 11.939 26.712 6.593z" fill="#e49280"/></g></g><g><g><g><circle cx="148.189" cy="287.633" fill="#eaa998" r="19.859"/></g><g><circle cx="363.811" cy="72.011" fill="#eaa998" r="19.859"/></g></g><g><path d="m134.147 273.595c7.759-7.759 20.329-7.766 28.088-.007 5.066 5.066 6.819 12.175 5.271 18.669-.177-.191-.353-.382-.544-.572-7.751-7.751-20.329-7.752-28.088.007-2.692 2.692-4.452 5.964-5.271 9.412-7.215-7.795-7.017-19.948.544-27.509z" fill="#e49280"/></g><g><path d="m377.849 86.058c7.759-7.759 7.766-20.329.007-28.088-5.066-5.066-12.175-6.819-18.669-5.271.191.177.382.353.572.544 7.751 7.751 7.751 20.329-.007 28.088-2.692 2.692-5.964 4.452-9.412 5.271 7.795 7.215 19.948 7.017 27.509-.544z" fill="#e49280"/></g></g><g><g><g><circle cx="179.766" cy="311.863" fill="#eaa998" r="19.859"/></g><g><circle cx="332.234" cy="47.781" fill="#eaa998" r="19.859"/></g></g><g><path d="m162.569 301.938c5.486-9.502 17.626-12.763 27.129-7.276 6.205 3.582 9.737 9.995 9.923 16.668-.22-.139-.44-.277-.674-.412-9.494-5.481-21.643-2.226-27.129 7.276-1.904 3.297-2.756 6.913-2.656 10.456-8.985-5.662-11.939-17.452-6.593-26.712z" fill="#e49280"/></g><g><path d="m349.429 57.716c5.486-9.502 2.24-21.646-7.263-27.132-6.205-3.582-13.525-3.435-19.397-.26.23.121.46.243.694.377 9.494 5.481 12.749 17.63 7.263 27.132-1.904 3.297-4.608 5.843-7.727 7.528 9.396 4.952 21.084 1.615 26.43-7.645z" fill="#e49280"/></g></g><g><g><g><circle cx="216.538" cy="327.095" fill="#eaa998" r="19.859"/></g><g><circle cx="295.462" cy="32.549" fill="#eaa998" r="19.859"/></g></g><g><path d="m197.358 321.959c2.84-10.598 13.723-16.89 24.321-14.05 6.921 1.854 11.993 7.134 13.899 13.532-.248-.077-.497-.154-.757-.224-10.589-2.837-21.481 3.452-24.321 14.05-.985 3.678-.873 7.391.141 10.787-10.145-3.143-16.05-13.767-13.283-24.095z" fill="#e49280"/></g><g><path d="m314.643 37.696c2.84-10.598-3.439-21.488-14.038-24.328-6.921-1.854-13.953.182-18.803 4.769.254.058.507.115.768.185 10.589 2.837 16.878 13.73 14.038 24.328-.985 3.678-2.939 6.837-5.515 9.271 10.356 2.351 20.782-3.897 23.55-14.225z" fill="#e49280"/></g></g><g><path d="m256 445.065c-9.205 0-16.736-7.531-16.736-16.736v-64.633c0-9.205 7.531-16.736 16.736-16.736 9.205 0 16.736 7.531 16.736 16.736v64.633c0 9.205-7.531 16.736-16.736 16.736z" fill="#ade194"/></g><g><path d="m272.738 363.694v64.634c0 9.203-7.535 16.738-16.738 16.738-3.038 0-5.896-.819-8.364-2.258 4.986-2.908 8.364-8.324 8.364-14.48v-64.634c0-4.607-1.879-8.784-4.917-11.822-1.029-1.029-2.188-1.919-3.448-2.658 2.468-1.439 5.326-2.258 8.364-2.258 4.597 0 8.784 1.879 11.822 4.917 3.029 3.037 4.917 7.214 4.917 11.821z" fill="#97da7b"/></g><path d="m435.822 179.822c0-9.119-4.49-17.204-11.37-22.177 5.359-6.584 7.603-15.556 5.242-24.365-1.891-7.058-6.417-12.957-12.745-16.609-1.279-.738-2.602-1.362-3.954-1.879.591-1.323 1.085-2.698 1.468-4.124 1.89-7.058.92-14.429-2.733-20.757-4.556-7.891-12.479-12.647-20.918-13.518.23-1.436.353-2.899.353-4.381 0-7.307-2.845-14.177-8.012-19.342-5.166-5.167-12.035-8.013-19.342-8.013-1.482 0-2.946.123-4.382.353-.871-8.439-5.628-16.362-13.519-20.919-7.897-4.559-17.144-4.713-24.891-1.241-3.023-7.933-9.671-14.363-18.479-16.723-8.806-2.359-17.779-.116-24.364 5.243-4.971-6.88-13.057-11.37-22.176-11.37s-17.204 4.49-22.177 11.371c-6.585-5.36-15.559-7.604-24.364-5.243-8.808 2.36-15.456 8.789-18.479 16.722-7.746-3.471-16.993-3.317-24.891 1.242-7.891 4.556-12.647 12.48-13.519 20.919-1.436-.23-2.899-.353-4.381-.353-7.306 0-14.176 2.846-19.341 8.012-5.167 5.166-8.013 12.035-8.013 19.343 0 1.482.123 2.944.353 4.38-8.439.871-16.362 5.628-20.917 13.52-3.654 6.328-4.624 13.698-2.733 20.757.382 1.426.877 2.802 1.468 4.124-1.353.518-2.676 1.141-3.954 1.879-6.327 3.653-10.854 9.552-12.745 16.609-2.361 8.808-.116 17.78 5.243 24.365-6.88 4.973-11.37 13.058-11.37 22.177s4.49 17.204 11.37 22.177c-5.359 6.584-7.603 15.556-5.242 24.365 2.359 8.803 8.787 15.434 16.712 18.46-.596 1.331-1.096 2.717-1.481 4.153-1.89 7.057-.92 14.429 2.733 20.757s9.552 10.854 16.609 12.745c1.427.382 2.866.633 4.307.783-.229 1.433-.351 2.893-.351 4.372 0 7.307 2.845 14.177 8.012 19.342 5.166 5.167 12.035 8.013 19.342 8.013 1.482 0 2.945-.123 4.381-.353.871 8.439 5.627 16.362 13.519 20.918 4.215 2.434 8.893 3.677 13.633 3.677 2.376 0 4.768-.312 7.124-.944 1.426-.382 2.802-.877 4.125-1.468.518 1.353 1.141 2.675 1.879 3.954 3.654 6.328 9.553 10.854 16.609 12.744 2.363.633 4.737.936 7.074.936 6.377 0 12.463-2.268 17.282-6.19.574.795 1.204 1.543 1.859 2.27-2.465 3.794-3.904 8.313-3.904 13.164v16.565c0 4.14 3.355 7.495 7.495 7.495s7.495-3.355 7.495-7.495v-16.565c0-5.096 4.146-9.242 9.241-9.242s9.241 4.146 9.241 9.242v64.633c0 5.095-4.146 9.24-9.241 9.24s-9.241-4.146-9.241-9.24v-13.24c0-4.14-3.355-7.495-7.495-7.495s-7.495 3.355-7.495 7.495v13.24c0 3.302.666 6.451 1.868 9.323-1.243 1.294-2.531 2.747-3.837 4.389-9.884 12.421-16.324 29.262-19.144 50.054-.635 4.693.8 9.321 4.042 13.031 3.816 4.369 9.602 6.874 15.871 6.874h50.862c6.269 0 12.054-2.505 15.871-6.874 3.242-3.71 4.677-8.338 4.041-13.032-3.944-29.093-14.529-45.562-22.998-54.397 1.214-2.883 1.886-6.048 1.886-9.368v-64.633c0-4.852-1.439-9.371-3.904-13.164.655-.726 1.285-1.475 1.858-2.269 4.818 3.922 10.904 6.189 17.282 6.189 2.336 0 4.711-.302 7.073-.936 7.057-1.89 12.957-6.416 16.61-12.744.738-1.279 1.361-2.601 1.879-3.954 1.323.59 2.698 1.085 4.125 1.468 2.357.631 4.748.944 7.124.944 4.74 0 9.418-1.243 13.633-3.677 7.892-4.556 12.648-12.479 13.519-20.918 1.436.23 2.899.353 4.381.353 7.306 0 14.176-2.846 19.341-8.012 5.167-5.166 8.013-12.035 8.013-19.343 0-1.479-.122-2.939-.351-4.372 1.441-.15 2.88-.401 4.307-.783 7.058-1.891 12.957-6.417 16.609-12.745 3.654-6.328 4.624-13.699 2.733-20.757-.385-1.437-.885-2.822-1.481-4.154 7.926-3.026 14.354-9.657 16.712-18.459 2.361-8.808.116-17.78-5.242-24.365 6.878-4.975 11.367-13.06 11.367-22.179zm-26.367-50.169c2.86 1.651 4.907 4.317 5.762 7.508 1.764 6.585-2.158 13.378-8.743 15.144-6.591 1.764-13.38-2.16-15.145-8.744-.855-3.19-.416-6.522 1.235-9.382 3.314-5.74 11.272-7.771 16.891-4.526zm-27.597-36.773c5.905-3.41 13.482-1.379 16.89 4.526 3.409 5.904 1.379 13.481-4.525 16.89-5.894 3.404-13.512 1.327-16.89-4.526-3.408-5.904-1.332-13.508 4.525-16.89zm-26.789-29.612c2.335-2.335 5.439-3.621 8.743-3.621 3.302 0 6.407 1.286 8.743 3.622 4.899 4.899 4.931 12.554-.001 17.486-4.868 4.868-12.669 4.815-17.486-.001-4.785-4.785-4.777-12.708.001-17.486zm-33.543-21.67c3.337-5.781 11.166-7.831 16.891-4.526 5.904 3.409 7.935 10.987 4.526 16.891-3.408 5.904-10.986 7.936-16.89 4.525-5.878-3.392-7.903-11.041-4.527-16.89zm-38.008-12.249c1.479-5.518 6.488-9.166 11.947-9.166 7.985 0 14.012 7.842 11.941 15.566-1.766 6.586-8.557 10.506-15.144 8.744-6.587-1.765-10.509-8.558-8.744-15.144zm-27.518-14.36c6.817 0 12.364 5.547 12.364 12.365s-5.547 12.364-12.364 12.364-12.364-5.547-12.364-12.364c0-6.818 5.547-12.365 12.364-12.365zm-42.661 5.617c6.493-1.739 13.398 2.229 15.144 8.744 1.764 6.585-2.158 13.378-8.744 15.144-6.58 1.763-13.379-2.158-15.144-8.744-1.764-6.586 2.157-13.379 8.744-15.144zm-39.756 16.466c5.646-3.26 13.588-1.193 16.891 4.526 3.389 5.869 1.369 13.488-4.526 16.89-5.907 3.409-13.482 1.379-16.89-4.525-3.409-5.903-1.379-13.481 4.525-16.891zm-34.136 26.196c2.335-2.335 5.439-3.621 8.742-3.621 6.811 0 12.365 5.523 12.365 12.365 0 6.824-5.564 12.364-12.365 12.364-3.302 0-6.407-1.286-8.743-3.622-4.761-4.761-4.772-12.714.001-17.486zm-26.196 34.138c2.287-3.962 6.452-6.18 10.729-6.18 5.595 0 10.47 3.741 11.922 9.162.5 1.864.563 3.835.167 5.725-1.682 8.023-11.15 12.308-18.293 8.183-5.904-3.41-7.934-10.986-4.525-16.89zm-16.468 39.755c.855-3.191 2.901-5.857 5.761-7.508 5.92-3.418 13.464-1.411 16.891 4.526 1.651 2.86 2.09 6.192 1.235 9.382-1.765 6.585-8.561 10.508-15.144 8.744-6.585-1.766-10.507-8.559-8.743-15.144zm-5.616 42.661c0-6.818 5.547-12.364 12.365-12.364 6.817 0 12.364 5.547 12.364 12.364s-5.547 12.364-12.364 12.364c-6.818.001-12.365-5.546-12.365-12.364zm5.616 42.661c-1.008-3.762-.146-7.855 2.277-10.902 1.762-2.216 4.047-3.587 6.478-4.198 6.174-1.551 13.285 1.804 15.132 8.701 1.712 6.389-2.269 13.408-8.744 15.144-6.581 1.764-13.377-2.158-15.143-8.745zm23.975 45.516c-3.344-.894-5.967-3.019-7.537-5.743-3.442-5.973-1.431-13.452 4.555-16.907 5.754-3.322 13.513-1.325 16.89 4.525 1.651 2.86 2.09 6.193 1.235 9.383-1.712 6.392-8.645 10.48-15.143 8.742zm36.173 28.378c-4.756 4.755-12.734 4.751-17.486-.001-2.335-2.335-3.621-5.439-3.621-8.743 0-6.682 5.631-12.364 12.364-12.364 6.882 0 12.365 5.542 12.365 12.364.001 3.303-1.285 6.407-3.622 8.744zm33.543 21.669c-1.651 2.86-4.317 4.906-7.508 5.761-3.191.856-6.523.416-9.383-1.235-5.904-3.409-7.934-10.985-4.526-16.89 3.409-5.903 10.985-7.937 16.89-4.526 2.86 1.651 4.907 4.318 5.762 7.508.855 3.189.416 6.522-1.235 9.382zm38.008 12.249c-1.764 6.584-8.557 10.507-15.145 8.743-3.19-.855-5.856-2.9-7.507-5.761-3.389-5.871-1.323-13.513 4.526-16.89 9.375-5.413 20.91 3.521 18.126 13.908zm36.187 10.78c-2.694-1.036-5.615-1.609-8.669-1.609s-5.975.574-8.669 1.61c-2.276-2.24-3.695-5.346-3.695-8.785 0-6.818 5.547-12.364 12.364-12.364s12.364 5.547 12.364 12.364c0 3.438-1.419 6.544-3.695 8.784zm21.82 153.032c.019.131.072.53-.475 1.156-.738.845-2.329 1.747-4.583 1.747h-50.862c-2.253 0-3.845-.902-4.583-1.747-.548-.626-.494-1.026-.476-1.155 2.636-19.442 8.359-31.952 13.783-39.807-1.042 2.718-2.075 5.673-2.957 8.684-1.162 3.973 1.115 8.136 5.087 9.299.703.206 1.412.303 2.109.303 3.243 0 6.233-2.122 7.19-5.391 1.533-5.238 3.647-10.393 5.279-14.054 1.628 3.652 3.737 8.795 5.276 14.054.957 3.269 3.947 5.391 7.19 5.391.697 0 1.406-.099 2.109-.303 3.973-1.163 6.25-5.326 5.087-9.299-.852-2.909-1.844-5.761-2.85-8.401 5.398 7.903 11.081 20.379 13.676 39.523zm19.681-160.83c-1.651 2.86-4.317 4.906-7.508 5.761-6.581 1.763-13.379-2.157-15.144-8.743-1.764-6.585 2.158-13.378 8.744-15.144 3.284-.878 6.405-.483 9.382 1.235 5.944 3.434 7.948 10.963 4.526 16.891zm32.247-10.706c-2.862 1.651-6.196 2.087-9.383 1.235-6.479-1.736-10.488-8.631-8.743-15.144 1.437-5.362 6.353-9.162 11.922-9.162 4.277 0 8.442 2.218 10.73 6.18 3.407 5.906 1.378 13.482-4.526 16.891zm34.135-26.196c-4.815 4.79-12.447 4.79-17.283.126-2.394-2.309-3.822-5.534-3.822-8.868 0-6.732 5.595-12.364 12.365-12.364 6.829 0 12.098 5.098 12.392 11.9.147 3.435-1.222 6.788-3.652 9.206zm26.179-34.146c-1.582 2.741-4.201 4.888-7.49 5.77-6.92 1.856-14.186-2.818-15.39-9.87-.697-4.08-4.573-6.826-8.649-6.125-4.001.683-6.708 4.421-6.154 8.413-6.263.624-12.07 3.365-16.578 7.874-4.511 4.51-7.252 10.319-7.875 16.583-6.006-.976-12.37.027-18.037 3.299-5.519 3.187-9.668 8.083-11.893 13.965-5.733-2.587-12.128-3.116-18.283-1.465-6.327 1.695-11.541 5.491-15.097 10.434-4.715-3.854-10.733-6.171-17.284-6.171s-12.569 2.317-17.284 6.171c-3.557-4.943-8.77-8.739-15.097-10.434-6.157-1.651-12.551-1.121-18.283 1.465-2.225-5.883-6.373-10.778-11.893-13.965-5.667-3.272-12.031-4.276-18.037-3.299-.623-6.264-3.364-12.072-7.874-16.582-4.506-4.507-10.309-7.247-16.567-7.873 1.014-6.207-.13-12.521-3.317-18.04-3.186-5.519-8.082-9.667-13.964-11.892 2.586-5.733 3.115-12.127 1.465-18.283-1.696-6.327-5.491-11.54-10.434-15.097 3.854-4.715 6.171-10.733 6.171-17.284 0-6.556-2.321-12.58-6.181-17.297 4.944-3.557 8.748-8.758 10.443-15.085 1.65-6.156 1.121-12.551-1.465-18.283 5.883-2.225 10.778-6.373 13.964-11.893 3.187-5.519 4.331-11.832 3.317-18.039 6.258-.627 12.06-3.366 16.566-7.872 4.51-4.51 7.251-10.317 7.875-16.58 1.467.24 2.938.373 4.405.373 4.739 0 9.417-1.243 13.632-3.677 5.527-3.191 9.68-8.095 11.903-13.989 3.475 1.564 7.282 2.426 11.199 2.426 2.337 0 4.712-.302 7.074-.936 6.327-1.695 11.541-5.491 15.097-10.434 4.715 3.854 10.733 6.171 17.284 6.171s12.569-2.317 17.284-6.171c3.557 4.943 8.77 8.738 15.097 10.434 2.363.633 4.736.936 7.074.936 3.917 0 7.724-.862 11.199-2.426 2.223 5.894 6.375 10.798 11.903 13.989 4.215 2.434 8.892 3.677 13.633 3.677 1.466 0 2.938-.134 4.404-.373.624 6.263 3.365 12.07 7.874 16.579 4.506 4.507 10.309 7.247 16.567 7.873-1.014 6.207.13 12.52 3.317 18.039 3.186 5.519 8.081 9.668 13.964 11.893-2.586 5.733-3.115 12.127-1.465 18.283 1.696 6.328 5.5 11.529 10.443 15.085-3.86 4.717-6.181 10.74-6.181 17.296 0 6.551 2.317 12.57 6.172 17.285-4.943 3.557-8.739 8.77-10.434 15.097-1.728 6.447-1.06 13.154 1.852 19.089-1.746 1.73-2.61 4.279-2.069 6.863.849 4.051 4.823 6.643 8.874 5.798 6.333-1.321 12.802 2.654 14.476 8.902.877 3.271.335 6.621-1.253 9.373zm16.486-39.745c-1.766 6.586-8.559 10.507-15.144 8.744-6.598-1.767-10.495-8.61-8.744-15.144 1.479-5.518 6.488-9.166 11.947-9.166 7.975 0 14.018 7.821 11.941 15.566zm-6.749-30.297c-6.817 0-12.364-5.547-12.364-12.364 0-6.818 5.547-12.364 12.364-12.364 6.819 0 12.365 5.547 12.365 12.364s-5.547 12.364-12.365 12.364z"/></g></svg>