<svg id="Capa_1" enable-background="new 0 0 512 512" height="512" viewBox="0 0 512 512" width="512" xmlns="http://www.w3.org/2000/svg"><g><g><g><path d="m361.307 293.893-35.102 20.266v26.378l35.102 20.267z" fill="#cbc4cc"/><path d="m361.307 340.179-35.102-20.266v20.624l35.102 20.267z" fill="#b5adb6"/><g><path d="m379.708 375.823h-13.401c-2.761 0-5-2.239-5-5v-86.948c0-2.761 2.239-5 5-5h13.401c2.761 0 5 2.239 5 5v86.948c0 2.761-2.238 5-5 5z" fill="#685e68"/></g><g><path d="m379.708 344h-13.401c-2.761 0-5-2.239-5-5v31.823c0 2.761 2.239 5 5 5h13.401c2.761 0 5-2.239 5-5v-31.823c0 2.761-2.238 5-5 5z" fill="#433f43"/></g></g><g><path d="m150.695 293.893v66.911l35.102-20.267v-26.378z" fill="#cbc4cc"/><path d="m150.695 340.179v20.625l35.102-20.267v-20.624z" fill="#b5adb6"/><g><path d="m132.293 375.823h13.401c2.762 0 5-2.239 5-5v-86.948c0-2.761-2.238-5-5-5h-13.401c-2.761 0-5 2.239-5 5v86.948c0 2.761 2.239 5 5 5z" fill="#685e68"/></g><g><path d="m145.695 344h-13.401c-2.761 0-5-2.239-5-5v31.823c0 2.761 2.239 5 5 5h13.401c2.762 0 5-2.239 5-5v-31.823c0 2.761-2.239 5-5 5z" fill="#433f43"/></g></g></g><g><path d="m199.526 247.085h112.95c14.978-14.771 23.758-32.64 23.758-51.902 0-37.342-32.935-69.481-80.233-83.865-47.298 14.384-80.233 46.523-80.233 83.865 0 19.262 8.78 37.132 23.758 51.902z" fill="#d8aa5e"/><path d="m199.526 247.085h41.762c-14.978-14.77-23.754-32.64-23.754-51.902 0-31.555 23.52-59.393 59.35-75.943-6.571-3.035-13.554-5.692-20.883-7.921-47.298 14.384-80.233 46.523-80.233 83.865 0 19.261 8.78 37.131 23.758 51.901z" fill="#c99c56"/></g><path d="m185.797 247.085h140.408v188.325h-140.408z" fill="#fef1da"/><path d="m185.797 247.085h26.204v188.325h-26.204z" fill="#fae2c0"/><path d="m288.317 435.41v-67.694c0-10.32-4.885-20.031-13.171-26.183l-17.357-12.887c-1.062-.788-2.515-.788-3.577 0l-17.357 12.887c-8.286 6.152-13.171 15.863-13.171 26.183v67.694z" fill="#fed402"/><path d="m244.369 435.41v-56.855c0-10.32 4.885-20.031 13.171-26.183l16.103-11.956-15.853-11.77c-1.062-.788-2.515-.788-3.577 0l-17.357 12.887c-8.286 6.152-13.171 15.863-13.171 26.183v67.694z" fill="#fac600"/><g><path d="m379.708 504.5h-247.415c-2.761 0-5-2.239-5-5v-59.09c0-2.761 2.239-5 5-5h247.415c2.761 0 5 2.239 5 5v59.09c0 2.761-2.238 5-5 5z" fill="#d8aa5e"/></g><g><path d="m163.586 478c-2.761 0-5-2.239-5-5v-37.59h-26.292c-2.761 0-5 2.239-5 5v59.09c0 2.761 2.239 5 5 5h247.415c2.761 0 5-2.239 5-5v-21.5z" fill="#c99c56"/></g><g><path d="m278.859 278.287h-45.717c-2.762 0-5-2.239-5-5v-26.202h55.717v26.202c0 2.761-2.238 5-5 5z" fill="#fed402"/></g><g><path d="m249.001 273.287v-26.202h-20.859v26.202c0 2.761 2.239 5 5 5h20.859c-2.762 0-5-2.239-5-5z" fill="#fac600"/></g><g><path d="m299.802 47.146c-4.062 11.486-15.016 19.714-27.893 19.715-16.301 0-29.58-13.279-29.58-29.58 0-12.877 8.229-23.831 19.715-27.893 1.003-.355.767-1.834-.296-1.867-.428-.013-.857-.02-1.288-.02-22.771 0-41.231 18.46-41.231 41.231 0 22.838 18.393 41.231 41.231 41.231 22.771 0 41.231-18.46 41.231-41.231 0-.431-.007-.861-.02-1.288-.035-1.065-1.515-1.301-1.869-.298z" fill="#fed402"/></g><g><g><path d="m270.77 79.462c-22.839 0-41.231-18.393-41.231-41.231 0-8.584 2.625-16.553 7.113-23.154-10.539 7.469-17.425 19.753-17.425 33.654 0 22.839 18.393 41.231 41.231 41.231 14.187 0 26.699-7.167 34.117-18.077-6.725 4.766-14.934 7.577-23.805 7.577z" fill="#fac600"/></g></g><g><path d="m379.708 271.374h-13.401c-6.893 0-12.5 5.607-12.5 12.5v5.689l-20.102 11.606v-46.584h11.444c4.142 0 7.5-3.357 7.5-7.5s-3.358-7.5-7.5-7.5h-16.365c6.191-8.657 10.61-18.01 12.966-27.836.966-4.028-1.517-8.076-5.545-9.042-4.025-.97-8.076 1.517-9.042 5.544-2.708 11.293-8.828 21.904-17.737 31.334h-106.752c-12.421-13.124-19.406-28.448-19.406-44.402 0-32.221 28.466-61.881 72.733-76.009 35.441 11.318 61.461 32.958 69.822 58.186 1.303 3.932 5.547 6.064 9.479 4.76 3.932-1.303 6.063-5.547 4.76-9.479-9.623-29.036-38.049-53.716-76.56-66.777v-8.506c25.457-1.577 45.688-22.778 45.688-48.627 0-.508-.008-1.015-.023-1.522-.127-4.067-3.138-7.474-7.159-8.1-4.015-.628-7.919 1.702-9.276 5.535v.002c-3.113 8.802-11.48 14.715-20.823 14.715-5.881 0-11.421-2.301-15.6-6.479-4.179-4.18-6.48-9.72-6.48-15.601 0-9.342 5.914-17.709 14.72-20.823 3.832-1.358 6.159-5.26 5.532-9.277-.627-4.02-4.033-7.029-8.111-7.157-.503-.016-1.006-.024-1.512-.024-26.87 0-48.731 21.86-48.731 48.73 0 22.746 15.666 41.897 36.773 47.242v9.885c-48.929 16.57-80.233 51.19-80.233 89.325 0 15.744 5.36 30.879 15.07 44.402h-16.484c-4.142 0-7.5 3.357-7.5 7.5s3.358 7.5 7.5 7.5h11.444v46.584l-20.102-11.606v-5.689c0-6.893-5.607-12.5-12.5-12.5h-13.401c-6.893 0-12.5 5.607-12.5 12.5v86.948c0 6.893 5.607 12.5 12.5 12.5h13.401c6.893 0 12.5-5.607 12.5-12.5v-5.688l20.102-11.606v74.382h-46.003c-6.893 0-12.5 5.607-12.5 12.5v59.09c0 6.893 5.607 12.5 12.5 12.5h247.415c6.893 0 12.5-5.607 12.5-12.5v-59.09c0-6.893-5.607-12.5-12.5-12.5h-46.003v-74.382l20.102 11.606v5.688c0 6.893 5.607 12.5 12.5 12.5h13.401c6.893 0 12.5-5.607 12.5-12.5v-86.948c-.001-6.892-5.608-12.499-12.501-12.499zm-152.981-222.644c0-9.569 4.007-18.222 10.43-24.367-1.513 4.059-2.329 8.42-2.329 12.917 0 9.888 3.861 19.194 10.874 26.207 7.012 7.012 16.319 10.874 26.207 10.873 4.497 0 8.859-.816 12.918-2.329-6.145 6.425-14.797 10.431-24.368 10.431-18.6 0-33.732-15.132-33.732-33.732zm-83.532 319.592h-8.401v-81.948h8.401zm92.447-113.737h40.718v16.202h-40.718zm-42.345 0h27.345v18.702c0 6.893 5.607 12.5 12.5 12.5h45.718c6.893 0 12.5-5.607 12.5-12.5v-18.702h27.345v173.325h-22.888v-13.91c0-4.143-3.358-7.5-7.5-7.5s-7.5 3.357-7.5 7.5v13.91h-49.632v-60.193c0-7.909 3.791-15.446 10.141-20.162l14.675-10.895 14.674 10.895c6.351 4.716 10.142 12.253 10.142 20.162v11.283c0 4.143 3.358 7.5 7.5 7.5s7.5-3.357 7.5-7.5v-11.283c0-12.634-6.056-24.673-16.2-32.205l-17.354-12.886c-3.746-2.783-8.779-2.782-12.521-.001l-17.357 12.887c-10.144 7.532-16.199 19.571-16.199 32.205v60.193h-22.888v-173.325zm-35.102 93.229v-40.93l20.102 11.606v17.718zm219.013 95.096v54.09h-242.415v-54.09zm-23.401-95.096-20.102-11.606v-17.718l20.102-11.606zm23.401 20.508h-8.401v-81.948h8.401z"/><path d="m42.455 344.382c-.893-4.044-4.896-6.596-8.941-5.705-4.045.894-6.599 4.896-5.706 8.941 3.788 17.149 12.349 32.771 24.756 45.179 1.464 1.464 3.384 2.196 5.303 2.196s3.839-.732 5.303-2.197c2.929-2.929 2.929-7.678 0-10.606-10.381-10.381-17.544-23.456-20.715-37.808z"/><path d="m33.282 318.356c.493.098.984.145 1.468.145 3.506 0 6.64-2.471 7.348-6.041 2.975-14.987 10.261-28.623 21.072-39.434 2.929-2.93 2.929-7.678 0-10.607-2.929-2.928-7.678-2.928-10.606 0-12.917 12.918-21.625 29.212-25.179 47.121-.806 4.063 1.834 8.01 5.897 8.816z"/><path d="m82.87 292.726c2.929-2.93 2.929-7.678 0-10.607-2.929-2.928-7.678-2.928-10.606 0-25.083 25.084-25.083 65.896 0 90.979 1.464 1.464 3.384 2.196 5.303 2.196s3.839-.732 5.303-2.196c2.929-2.93 2.929-7.678 0-10.607-19.234-19.234-19.234-50.531 0-69.765z"/><path d="m102.569 301.817c-2.929-2.928-7.678-2.928-10.606 0-14.221 14.221-14.221 37.36 0 51.581 1.464 1.464 3.384 2.196 5.303 2.196s3.839-.732 5.303-2.196c2.929-2.93 2.929-7.678 0-10.607-8.372-8.372-8.372-21.994 0-30.366 2.929-2.93 2.929-7.678 0-10.608z"/><path d="m457.797 262.419c-2.928-2.927-7.677-2.929-10.606 0-2.929 2.93-2.929 7.678 0 10.607 14.554 14.554 22.569 33.938 22.569 54.582s-8.015 40.027-22.569 54.581c-2.929 2.93-2.929 7.678 0 10.607 1.464 1.464 3.384 2.196 5.303 2.196s3.839-.732 5.303-2.196c17.387-17.387 26.962-40.538 26.962-65.188s-9.575-47.801-26.962-65.189z"/><path d="m438.098 282.118c-2.928-2.928-7.677-2.928-10.606 0-2.929 2.93-2.929 7.678 0 10.607 19.234 19.234 19.234 50.531 0 69.765-2.929 2.93-2.929 7.678 0 10.607 1.464 1.464 3.384 2.196 5.303 2.196s3.839-.732 5.303-2.196c25.082-25.082 25.082-65.895 0-90.979z"/><path d="m418.399 301.817c-2.929-2.928-7.678-2.928-10.606 0-2.929 2.93-2.929 7.678 0 10.607 8.372 8.372 8.372 21.994 0 30.366-2.929 2.93-2.929 7.678 0 10.607 1.464 1.464 3.384 2.196 5.303 2.196s3.839-.732 5.303-2.196c14.22-14.219 14.22-37.359 0-51.58z"/></g></g></svg>