<svg id="Capa_1" enable-background="new 0 0 512.001 512.001" height="512" viewBox="0 0 512.001 512.001" width="512" xmlns="http://www.w3.org/2000/svg"><g><g><g><path d="m7.501 256c0 137.241 111.259 248.5 248.5 248.5s248.499-111.259 248.499-248.5-111.259-248.5-248.5-248.5-248.499 111.26-248.499 248.5zm410.662 121.195c-2.449 3.272-7.211 3.649-10.101.759l-274.015-274.015c-2.89-2.89-2.513-7.653.759-10.101 33.792-25.284 75.744-40.267 121.191-40.268 111.677-.002 202.434 90.754 202.433 202.431 0 45.449-14.983 87.401-40.267 121.194zm-364.592-121.196c0-45.448 14.983-87.4 40.268-121.193 2.449-3.272 7.211-3.649 10.101-.759l274.015 274.015c2.89 2.89 2.513 7.653-.759 10.101-33.793 25.284-75.745 40.267-121.192 40.268-111.678.001-202.434-90.755-202.433-202.432z" fill="#fd8087"/><path d="m330.539 18.879c90.362 37.199 153.983 126.123 153.983 229.9 0 137.241-111.259 248.5-248.5 248.5-25.912 0-50.885-3.966-74.369-11.318 29.088 11.947 60.954 18.54 94.347 18.54 137.241 0 248.5-111.259 248.5-248.5 0-111.27-73.14-205.467-173.961-237.122z" fill="#fe646f"/></g><g><g fill="#cbc4cc"><path d="m250.342 206.039-26.604-7.367c-4.618-1.279-9.567.025-12.955 3.414l-13.119 13.119-13.119 13.119c-3.388 3.388-4.692 8.337-3.414 12.955l7.367 26.604 41.024-20.821z"/><path d="m323.502 279.198 7.367 26.604c1.279 4.618-.025 9.567-3.414 12.955l-13.119 13.119-13.119 13.119c-3.388 3.388-8.337 4.692-12.955 3.414l-26.604-7.367 20.821-41.024z"/></g><g fill="#b5adb6"><path d="m229.521 247.063-41.025 20.817-4.931-17.806c20.529-11.482 37.485-28.438 48.968-48.968l17.806 4.932z"/><path d="m327.457 318.755-26.243 26.243c-3.386 3.386-8.331 4.691-12.955 3.413l-22.697-6.29c6.096 1.211 12.433-.696 16.869-5.132l37.017-37.017c4.436-4.436 6.343-10.773 5.132-16.869l6.29 22.697c1.278 4.624-.027 9.569-3.413 12.955z"/></g><path d="m252.068 365.177c18.279-43.137 52.43-77.288 95.567-95.567 5.917-2.507 11.424-5.55 16.234-9.507 33.556-27.61 28.96-71.955 2.783-97.215-25.26-26.177-69.606-30.773-97.215 2.783-3.957 4.809-6.999 10.317-9.507 16.234-18.279 43.137-52.43 77.288-95.567 95.567-5.917 2.507-11.424 5.55-16.234 9.507-33.556 27.61-28.96 71.955-2.783 97.215 25.26 26.177 69.606 30.773 97.215-2.783 3.958-4.81 7-10.317 9.507-16.234z" fill="#f9f3f1"/><path d="m242.563 381.407c-27.609 33.564-71.953 28.967-97.219 2.79-2.175-2.095-4.195-4.329-6.062-6.678 25.842 20.61 65.221 21.914 90.541-8.853 3.955-4.811 6.993-10.312 9.502-16.234 18.281-43.133 52.434-77.286 95.567-95.567 5.922-2.509 11.422-5.547 16.233-9.502 30.767-25.32 29.462-64.699 8.853-90.541 2.349 1.867 4.583 3.888 6.678 6.062 26.177 25.267 30.774 69.611-2.79 97.219-4.804 3.961-10.312 6.993-16.227 9.508-43.14 18.274-77.293 52.427-95.567 95.567-2.516 5.917-5.548 11.424-9.509 16.229z" fill="#efe2dd"/><path d="m287.548 196.383c20.014 0 36.239-16.225 36.239-36.239 0-4.716-.918-9.42-2.713-13.783-4.567-11.098-15.439-17.534-22.707-26.753-3.486-4.422-7.281-9.383-9.395-14.723-.511-1.292-2.337-1.292-2.849 0-2.115 5.341-5.909 10.301-9.395 14.723-7.268 9.219-18.14 15.655-22.707 26.753-1.795 4.362-2.713 9.066-2.713 13.783.001 20.014 16.225 36.239 36.24 36.239z" fill="#fd8087"/><path d="m323.794 160.141c0 17.883-12.951 32.734-29.988 35.7 6.064-6.821 9.754-15.818 9.754-25.682 0-5.031-.989-10.051-2.889-14.697-4.877-11.841-16.477-18.718-24.221-28.549-.945-1.197-1.911-2.428-2.856-3.691 1.087-1.164 2.142-2.362 3.131-3.614 3.493-4.427 7.294-9.381 9.392-14.731.516-1.285 2.351-1.285 2.845 0 2.12 5.35 5.921 10.304 9.414 14.731 7.261 9.216 18.136 15.664 22.705 26.758 1.779 4.351 2.713 9.063 2.713 13.775z" fill="#fe646f"/></g></g><g><g><g><path d="m437.02 74.981c-48.352-48.352-112.64-74.981-181.02-74.981s-132.667 26.629-181.019 74.981-74.981 112.639-74.981 181.019c0 36.319 7.453 71.416 22.15 104.316 14.197 31.779 34.404 59.926 60.06 83.657 3.038 2.811 7.778 2.624 10.587-.413 2.81-3.038 2.625-7.778-.413-10.587-24.16-22.348-43.188-48.85-56.554-78.769-13.831-30.963-20.845-64.004-20.845-98.204 0-64.378 25.07-124.903 70.592-170.424s106.046-70.592 170.423-70.592 124.902 25.07 170.424 70.592 70.592 106.047 70.592 170.424c0 64.378-25.07 124.903-70.592 170.424s-106.046 70.593-170.424 70.593c-49.418 0-96.909-14.846-137.339-42.931-3.396-2.36-8.066-1.519-10.427 1.878-2.361 3.399-1.519 8.068 1.879 10.427 42.952 29.838 93.399 45.61 145.887 45.61 68.38 0 132.667-26.629 181.019-74.981 48.353-48.352 74.981-112.639 74.981-181.02s-26.628-132.667-74.98-181.019z"/><path d="m402.767 383.255c2.665 2.665 6.264 4.145 10.004 4.145.337 0 .676-.012 1.014-.036 4.118-.296 7.901-2.365 10.38-5.678 27.321-36.513 41.762-79.975 41.762-125.684 0-56.015-21.852-108.717-61.533-148.397s-92.382-61.532-148.397-61.531c-45.708 0-89.168 14.441-125.682 41.761-3.313 2.479-5.383 6.263-5.678 10.382-.293 4.097 1.204 8.112 4.109 11.017l48.438 48.438c2.926 2.925 7.67 2.925 10.595 0 2.926-2.926 2.926-7.67 0-10.596l-47.774-47.773c33.754-25.022 73.843-38.244 115.992-38.244 52.013-.001 100.951 20.293 137.802 57.143 36.85 36.85 57.145 85.789 57.144 137.801 0 42.151-13.222 82.239-38.244 115.993l-49.238-49.238c-2.926-2.925-7.67-2.925-10.595 0-2.926 2.927-2.926 7.67 0 10.596z"/><path d="m98.216 124.637c-4.118.295-7.902 2.365-10.38 5.678-27.321 36.513-41.762 79.975-41.762 125.684 0 56.015 21.852 108.717 61.533 148.397s92.382 61.532 148.397 61.531c45.709 0 89.169-14.441 125.683-41.761 3.313-2.479 5.383-6.263 5.678-10.382.293-4.097-1.204-8.112-4.109-11.017l-44.879-44.879c-2.925-2.924-7.669-2.926-10.595 0-2.926 2.927-2.926 7.669 0 10.596l44.215 44.215c-33.755 25.022-73.844 38.244-115.993 38.244-52.012.001-100.951-20.293-137.801-57.143-36.85-36.849-57.144-85.789-57.144-137.801 0-42.15 13.222-82.239 38.244-115.993l47.775 47.774c2.926 2.924 7.67 2.924 10.595 0 2.926-2.927 2.926-7.67 0-10.596l-48.438-48.437c-2.907-2.905-6.926-4.406-11.019-4.11z"/><path d="m368.45 264.322c16.259-13.377 25.647-31.713 26.435-51.631.826-20.892-7.599-41.48-23.118-56.506-14.478-14.953-34.122-23.287-54.222-23.146-2.257-2.56-4.662-4.855-6.934-7.022-2.759-2.63-5.365-5.115-7.47-7.784-3.076-3.902-5.961-7.719-7.462-11.509-1.35-3.411-4.593-5.616-8.262-5.616-3.668 0-6.911 2.205-8.261 5.615-2.994 7.565-9.163 13.794-14.932 19.295-5.154 4.913-10.995 10.482-14.225 18.331-2.011 4.887-3.031 10.064-3.031 15.385 0 7.185 1.892 13.933 5.19 19.787-2.35 5.362-4.959 10.566-7.8 15.607l-18.569-5.142c-7.197-1.995-14.949.049-20.231 5.329l-26.195 26.196c-5.281 5.282-7.323 13.033-5.33 20.23l5.145 18.581c-5.66 3.19-11.525 6.086-17.587 8.654-7.153 3.031-13.054 6.499-18.044 10.603-16.259 13.378-25.647 31.714-26.435 51.631-.826 20.893 7.598 41.481 23.119 56.508 14.353 14.823 33.777 23.173 53.695 23.173 21.26 0 41.019-10.177 54.442-26.49 4.104-4.988 7.573-10.89 10.604-18.044 2.569-6.062 5.466-11.926 8.655-17.587l18.579 5.145c1.823.505 3.682.751 5.527.751 5.439 0 10.761-2.137 14.704-6.081l26.195-26.196c5.281-5.281 7.323-13.033 5.33-20.229l-5.145-18.58c5.66-3.189 11.524-6.087 17.586-8.656 7.156-3.028 13.058-6.497 18.047-10.602zm-104.593-114.27c2.018-4.904 6.239-8.928 10.708-13.188 4.75-4.528 9.064-9.248 12.853-14.582 1.28 1.802 2.625 3.54 3.956 5.229 2.762 3.504 5.881 6.477 8.897 9.352 6.641 6.331 12.611 13.103 12.611 22.872 0 14.041-11.423 25.464-25.464 25.464s-25.464-11.423-25.464-25.464c0-3.309.658-6.657 1.903-9.683zm-73.897 82.056 26.194-26.195c1.099-1.098 2.582-1.694 4.097-1.694.514 0 1.032.068 1.54.209l14.294 3.958c-11.793 17.101-26.555 31.856-43.653 43.653l-3.958-14.294c-.554-2.006.015-4.166 1.486-5.637zm132.078 79.688-26.194 26.195c-1.473 1.471-3.633 2.039-5.637 1.486l-14.296-3.959c11.795-17.1 26.554-31.858 43.654-43.654l3.958 14.295c.556 2.006-.014 4.166-1.485 5.637zm-76.861 48.716c-2.461 5.809-5.202 10.509-8.378 14.37-13.618 16.552-29.623 20.546-40.651 20.983-16.423.665-33.332-6.32-45.226-18.646-.062-.064-.125-.127-.189-.188-12.325-11.895-19.296-28.801-18.646-45.226.437-11.028 4.431-27.033 20.982-40.651 3.862-3.176 8.562-5.918 14.37-8.379 42.131-17.852 75.733-49.923 95.504-90.864 6.8 5.185 15.282 8.273 24.475 8.273 22.303 0 40.448-18.145 40.448-40.448 0-3.789-.527-7.502-1.55-11.092 12.907 1.955 25.391 8.331 34.762 18.042.062.064.125.127.189.189 12.326 11.893 19.296 28.8 18.647 45.225-.437 11.028-4.431 27.033-20.984 40.652-3.861 3.177-8.561 5.918-14.369 8.378-45.016 19.073-80.311 54.369-99.384 99.382z"/></g></g></g></g></svg>