<svg id="Capa_1" enable-background="new 0 0 512 512" height="512" viewBox="0 0 512 512" width="512" xmlns="http://www.w3.org/2000/svg"><g><path d="m243.18 355.5h12.959v-79.645c-20.819-19.193-33.884-46.677-33.884-77.159 0-2.731.105-5.437.311-8.116-6.036-3.296-12.65-5.666-19.661-6.89-2.367-.413-4.07-2.509-4.07-4.912v-47.855h-61.712v47.855c0 2.403-1.703 4.498-4.07 4.912-30.242 5.28-53.234 31.655-53.234 63.408v252.402c0 2.761 2.239 5 5 5h153.36v-144c.001-2.761 2.24-5 5.001-5z" fill="#4fc123"/><path d="m137.124 130.923v47.855c0 2.403-1.703 4.498-4.07 4.912-30.242 5.28-53.234 31.655-53.234 63.408v252.402c0 2.761 2.239 5 5 5h26.18v-236.402c0-31.754 22.991-58.129 53.234-63.408 2.367-.413 4.07-2.509 4.07-4.912v-68.855z" fill="#47a920"/><path d="m137.124 43.866h61.712v87.057h-61.712z" fill="#d8aa5e"/><path d="m137.124 43.866h31.165v87.057h-31.165z" fill="#c99c56"/><g><path d="m198.835 43.866h-61.712v-31.366c0-2.761 2.239-5 5-5h51.712c2.761 0 5 2.239 5 5z" fill="#d88a55"/></g><g><path d="m173.288 7.5h-31.165c-2.761 0-5 2.239-5 5v31.366h31.165v-31.366c0-2.761 2.239-5 5-5z" fill="#c57a44"/></g><g><path d="m204.855 436.176h-73.752c-2.762 0-5-2.239-5-5v-166.319c0-2.761 2.239-5 5-5h73.752c2.761 0 5 2.239 5 5v166.319c0 2.762-2.238 5-5 5z" fill="#fff"/></g><g><path d="m157.248 431.176v-166.319c0-2.761 2.238-5 5-5h-31.145c-2.762 0-5 2.239-5 5v166.319c0 2.761 2.238 5 5 5h31.145c-2.761 0-5-2.238-5-5z" fill="#f3f0f3"/></g><g><path d="m126.104 431.176c0 2.761 2.239 5 5 5h73.752c2.761 0 5-2.239 5-5v-63.496h-83.752z" fill="#fed402"/></g><g><path d="m157.248 431.176v-63.496h-31.145v63.496c0 .345.035.682.102 1.008.4 1.953 1.938 3.491 3.891 3.891.326.067.662.102 1.008.102h31.145c-2.762-.001-5.001-2.239-5.001-5.001z" fill="#fac600"/></g><g><path d="m361.063 139.111-93.431 93.431c6.111 10.717 15.023 19.629 25.74 25.741l93.431-93.43c-6.111-10.719-15.023-19.631-25.74-25.742z" fill="#fd4755"/><g><path d="m277.954 246.305 96.873-96.872c-4.125-3.988-8.747-7.461-13.764-10.322l-93.431 93.431c2.861 5.017 6.334 9.638 10.322 13.763z" fill="#fb2b3a"/></g><g><g><path d="m327.218 303.659c-57.876 0-104.962-47.086-104.962-104.962s47.086-104.962 104.962-104.962c57.877 0 104.962 47.086 104.962 104.962s-47.086 104.962-104.962 104.962zm0-173.522c-37.804 0-68.559 30.756-68.559 68.559 0 37.804 30.755 68.559 68.559 68.559s68.559-30.755 68.559-68.559c0-37.803-30.755-68.559-68.559-68.559z" fill="#fd4755"/></g></g><g><g><path d="m243.075 198.696c0-54.364 41.545-99.203 94.552-104.447-3.425-.339-6.897-.516-10.41-.516-57.876 0-104.962 47.086-104.962 104.962 0 57.877 47.086 104.962 104.962 104.962 3.513 0 6.985-.177 10.41-.516-53.007-5.241-94.552-50.081-94.552-104.445z" fill="#fb2b3a"/></g></g></g><g><path d="m365.291 504.5h-127.111v-144c0-2.761 2.238-5 5-5h122.111c2.762 0 5 2.239 5 5v139c0 2.761-2.238 5-5 5z" fill="#8ac9fe"/></g><g><path d="m265.611 393.59 4.278-4.278v-28.812c0-2.761 2.239-5 5-5h-31.709c-2.761 0-5 2.239-5 5v35.5h26.58c-.083-.861.191-1.75.851-2.41z" fill="#60b7ff"/></g><path d="m238.18 396h132.111v77h-132.111z" fill="#fed402"/><path d="m265.611 397.833c-.512-.512-.787-1.164-.851-1.833h-26.58v77h31.709v-70.889z" fill="#fac600"/><g><path d="m365.291 504.5h-127.111v-31.5h132.111v26.5c0 2.761-2.238 5-5 5z" fill="#8ac9fe"/></g><path d="m238.18 473h31.709v31.5h-31.709z" fill="#60b7ff"/><g><path d="m281.322 413.544-15.711-15.711c-1.172-1.172-1.172-3.071 0-4.243l15.711-15.711c1.172-1.172 3.071-1.172 4.243 0l15.711 15.711c1.172 1.172 1.172 3.071 0 4.243l-15.711 15.711c-1.172 1.172-3.071 1.172-4.243 0z" fill="#fff"/></g><g><path d="m319.77 451.121-15.712-15.711c-1.171-1.172-1.171-3.071 0-4.243l15.712-15.711c1.171-1.172 3.071-1.172 4.243 0l15.711 15.711c1.172 1.172 1.172 3.071 0 4.243l-15.711 15.711c-1.172 1.172-3.071 1.172-4.243 0z" fill="#fff"/></g><g><path d="m181 292.5h-26.041c-4.142 0-7.5 3.357-7.5 7.5s3.358 7.5 7.5 7.5h26.041c4.142 0 7.5-3.357 7.5-7.5s-3.358-7.5-7.5-7.5z"/><path d="m181 318.5h-26.041c-4.142 0-7.5 3.357-7.5 7.5s3.358 7.5 7.5 7.5h26.041c4.142 0 7.5-3.357 7.5-7.5s-3.358-7.5-7.5-7.5z"/><path d="m204.855 252.357h-73.752c-6.893 0-12.5 5.607-12.5 12.5v166.318c0 6.893 5.607 12.5 12.5 12.5h73.752c6.893 0 12.5-5.607 12.5-12.5v-100.175c0-4.143-3.358-7.5-7.5-7.5s-7.5 3.357-7.5 7.5v29.181h-68.752v-92.823h68.752v28.642c0 4.143 3.358 7.5 7.5 7.5s7.5-3.357 7.5-7.5v-31.143c0-6.892-5.607-12.5-12.5-12.5zm-2.5 122.824v53.495h-68.752v-53.495z"/><path d="m327.218 274.756c41.939 0 76.059-34.12 76.059-76.06s-34.12-76.06-76.059-76.06-76.059 34.12-76.059 76.06 34.12 76.06 76.059 76.06zm50.048-110.974-28.368 28.367c-2.929 2.93-2.929 7.678 0 10.607 2.928 2.928 7.677 2.928 10.606 0l25.053-25.053c2.405 6.549 3.719 13.62 3.719 20.992 0 33.668-27.391 61.06-61.059 61.06-7.373 0-14.445-1.314-20.994-3.719l28.532-28.531c2.929-2.93 2.929-7.678 0-10.607-2.928-2.927-7.677-2.929-10.606 0l-31.847 31.847c-5.887-4.12-11.014-9.247-15.133-15.134l84.963-84.962c5.887 4.119 11.015 9.246 15.134 15.133zm-50.048-26.145c7.373 0 14.444 1.314 20.993 3.719l-78.333 78.333c-2.405-6.549-3.719-13.62-3.719-20.992 0-33.669 27.391-61.06 61.059-61.06z"/><path d="m327.218 311.158c62.012 0 112.462-50.45 112.462-112.462s-50.45-112.462-112.462-112.462c-55.489 0-101.714 40.397-110.826 93.325-3.241-1.177-6.595-2.14-10.056-2.851v-164.208c0-6.893-5.607-12.5-12.5-12.5h-51.712c-6.893 0-12.5 5.607-12.5 12.5v164.208c-33.336 6.848-57.304 36.108-57.304 70.39v252.402c0 6.893 5.607 12.5 12.5 12.5h280.472c6.893 0 12.5-5.607 12.5-12.5v-139c0-6.893-5.607-12.5-12.5-12.5h-23.292c-4.142 0-7.5 3.357-7.5 7.5s3.358 7.5 7.5 7.5h20.792v25.5h-56.019c-.066-.07-.125-.145-.193-.214l-15.71-15.709c-1.983-1.984-4.62-3.077-7.425-3.077-2.806 0-5.443 1.093-7.425 3.075l-15.712 15.713c-.068.068-.126.142-.191.212h-14.437v-25.5h61.32c4.142 0 7.5-3.357 7.5-7.5s-3.358-7.5-7.5-7.5h-43.361v-56.59c18.098 12.449 40 19.748 63.579 19.748zm0-209.924c53.741 0 97.462 43.722 97.462 97.462s-43.722 97.462-97.462 97.462-97.462-43.722-97.462-97.462 43.721-97.462 97.462-97.462zm-182.594-86.234h46.712v21.366h-46.712zm0 36.366h46.712v72.058h-46.712zm218.168 445.634h-117.112v-16.5h117.111v16.5zm-79.348-110.636 9.347 9.348-9.347 9.347-9.348-9.347zm-22.773 17.136 15.348 15.348c1.983 1.983 4.62 3.075 7.425 3.075s5.442-1.093 7.424-3.075l15.347-15.348h56.576v62h-117.111v-62zm-12.032-55.5h-5.459c-6.893 0-12.5 5.607-12.5 12.5v136.5h-143.36v-249.902c0-27.704 19.776-51.264 47.023-56.02 5.957-1.04 10.28-6.213 10.28-12.3v-40.354h46.712v40.354c0 6.087 4.323 11.26 10.28 12.3 4.64.81 9.059 2.171 13.204 4.001-.038 1.202-.064 2.406-.064 3.617 0 31.461 12.991 59.94 33.884 80.371z"/><path d="m314.467 456.425c1.983 1.982 4.62 3.075 7.424 3.075 2.805 0 5.442-1.093 7.424-3.075l15.711-15.711c4.094-4.095 4.094-10.756 0-14.851l-15.71-15.709c-1.983-1.984-4.62-3.077-7.425-3.077s-5.442 1.093-7.424 3.075l-15.713 15.713c-4.092 4.093-4.092 10.754.001 14.849zm7.425-32.484 9.347 9.347-9.347 9.348-9.348-9.348z"/></g></g></svg>