<svg id="Capa_1" enable-background="new 0 0 512 512" height="512" viewBox="0 0 512 512" width="512" xmlns="http://www.w3.org/2000/svg"><g><g><path d="m360.213 504.504h-208.426c-16.974 0-30.734-13.76-30.734-30.734v-435.54c0-16.974 13.76-30.734 30.734-30.734h208.427c16.974 0 30.734 13.76 30.734 30.734v435.54c0 16.974-13.76 30.734-30.735 30.734z" fill="#7a6d79"/></g><g><path d="m390.944 38.233v435.534c0 16.98-13.752 30.733-30.733 30.733h-21.558c16.97 0 30.733-13.752 30.733-30.733v-435.534c0-16.98-13.762-30.733-30.733-30.733h21.558c16.981 0 30.733 13.753 30.733 30.733z" fill="#685e68"/></g><g><path d="m300.447 42.451-8.313 14.549h-72.267l-8.313-14.548h-47.719c-5.211 0-9.435 4.224-9.435 9.435v408.227c0 5.211 4.224 9.435 9.435 9.435h184.333c5.211 0 9.435-4.224 9.435-9.435v-408.227c0-5.211-4.224-9.435-9.435-9.435h-47.721z" fill="#c8effe"/></g><g><path d="m357.603 51.885v408.229c0 5.207-4.228 9.435-9.435 9.435h-12.593c1.309-1.639 2.099-3.718 2.099-5.977v-413.186c0-3.308-1.679-6.217-4.238-7.936h14.732c5.207.001 9.435 4.228 9.435 9.435z" fill="#99e6fc"/></g><g><path d="m316.015 216.288 10.959-10.959c.851-.851.851-2.23 0-3.081l-10.959-10.959c-.409-.409-.638-.963-.638-1.541v-43.158c0-1.203-.975-2.179-2.179-2.179h-43.158c-.578 0-1.132-.23-1.541-.638l-10.959-10.959c-.851-.851-2.23-.851-3.081 0l-10.959 10.959c-.409.409-.963.638-1.541.638h-43.157c-1.203 0-2.179.975-2.179 2.179v43.157c0 .578-.23 1.132-.638 1.541l-10.959 10.959c-.851.851-.851 2.23 0 3.081l10.959 10.959c.409.409.638.963.638 1.541v43.157c0 1.203.975 2.179 2.179 2.179h43.157c.578 0 1.132.23 1.541.638l10.959 10.959c.851.851 2.23.851 3.081 0l10.959-10.959c.409-.409.963-.638 1.541-.638h43.157c1.203 0 2.179-.975 2.179-2.179v-43.157c.001-.578.23-1.132.639-1.54z" fill="#ade194"/></g><g><path d="m250.003 263.166h20.039c-.58 0-1.129.23-1.539.64l-10.964 10.954c-.85.849-2.229.849-3.078 0l-8.475-8.475 2.479-2.479c.409-.41.959-.64 1.538-.64z" fill="#97da7b"/></g><g><path d="m268.503 143.773c.41.41.959.64 1.539.64h-20.039c-.58 0-1.129-.23-1.539-.64l-2.479-2.479 8.475-8.485c.85-.85 2.229-.85 3.078 0z" fill="#97da7b"/></g><g><path d="m326.97 205.329-10.954 10.964c-.41.4-.64.959-.64 1.539v43.156c0 1.199-.979 2.179-2.179 2.179h-20.039c1.199 0 2.179-.979 2.179-2.179v-43.156c0-.58.23-1.139.64-1.539l10.954-10.964c.859-.85.859-2.229 0-3.078l-10.954-10.964c-.41-.41-.64-.959-.64-1.539v-43.156c0-1.209-.979-2.179-2.179-2.179h20.039c1.199 0 2.179.969 2.179 2.179v43.156c0 .58.23 1.129.64 1.539l10.954 10.964c.859.849.859 2.228 0 3.078z" fill="#97da7b"/></g><g><circle cx="256" cy="203.788" fill="#fff5c6" r="34.264"/></g><g><path d="m290.261 203.789c0 18.919-15.341 34.261-34.261 34.261-9.575 0-18.22-3.928-24.446-10.254 1.389.17 2.798.26 4.228.26 18.919 0 34.261-15.341 34.261-34.261 0-9.345-3.758-17.84-9.824-24.016 16.929 2.078 30.042 16.51 30.042 34.01z" fill="#fef0ae"/></g><g><path d="m360.214 0h-208.428c-21.08 0-38.23 17.15-38.23 38.23v435.54c0 21.08 17.15 38.23 38.23 38.23h140.634c4.14 0 7.496-3.355 7.496-7.496 0-4.14-3.356-7.496-7.496-7.496h-140.634c-12.814 0-23.238-10.425-23.238-23.239v-435.539c0-12.814 10.425-23.239 23.238-23.239h208.427c12.814 0 23.238 10.425 23.238 23.239v435.54c0 12.814-10.425 23.239-23.238 23.239h-32.977c-4.14 0-7.496 3.356-7.496 7.496s3.356 7.496 7.496 7.496h32.977c21.08 0 38.23-17.151 38.23-38.23v-435.541c0-21.08-17.149-38.23-38.229-38.23z"/><path d="m154.398 139.261c-4.14 0-7.496 3.355-7.496 7.496v313.356c0 9.335 7.595 16.931 16.931 16.931h184.333c9.336 0 16.931-7.595 16.931-16.931v-408.226c0-9.336-7.595-16.931-16.931-16.931h-47.72c-2.69 0-5.174 1.442-6.508 3.777l-6.155 10.771h-63.568l-6.155-10.771c-1.334-2.335-3.818-3.777-6.508-3.777h-47.72c-9.336 0-16.931 7.595-16.931 16.931v60.015c0 4.14 3.356 7.496 7.496 7.496s7.496-3.356 7.496-7.496v-60.015c0-1.07.87-1.939 1.939-1.939h43.37l6.155 10.771c1.334 2.336 3.818 3.777 6.508 3.777h72.268c2.69 0 5.174-1.442 6.508-3.777l6.155-10.771h43.37c1.069 0 1.939.87 1.939 1.939v408.227c0 1.07-.87 1.939-1.939 1.939h-184.333c-1.069 0-1.939-.87-1.939-1.939v-313.357c0-4.14-3.356-7.496-7.496-7.496z"/><path d="m313.198 136.915h-40.956l-9.401-9.402c-3.772-3.771-9.909-3.772-13.682.001l-9.401 9.401h-40.956c-5.335 0-9.675 4.34-9.675 9.675v40.954l-9.403 9.404c-3.769 3.771-3.769 9.907.001 13.68l9.402 9.403v40.954c0 5.334 4.34 9.674 9.675 9.674h40.955l9.402 9.403c1.827 1.827 4.257 2.833 6.841 2.833s5.014-1.006 6.841-2.834l9.402-9.402h40.955c5.335 0 9.675-4.34 9.675-9.674v-40.954l9.403-9.404c3.769-3.771 3.769-9.907-.001-13.68l-9.402-9.403v-40.954c-.001-5.335-4.34-9.675-9.675-9.675zm-2.477 74.066c-1.831 1.827-2.84 4.258-2.84 6.847v37.84h-37.84c-2.582 0-5.01 1.005-6.841 2.834l-7.2 7.199-7.202-7.203c-1.828-1.825-4.256-2.83-6.838-2.83h-37.84v-37.84c0-2.588-1.009-5.02-2.834-6.84l-7.2-7.201 7.193-7.193c1.831-1.827 2.84-4.258 2.84-6.847v-37.841h37.84c2.583 0 5.011-1.005 6.841-2.833l7.2-7.199 7.202 7.203c1.827 1.824 4.255 2.83 6.838 2.83h37.84v37.841c0 2.588 1.009 5.02 2.834 6.84l7.2 7.201z"/><path d="m256 162.028c-23.027 0-41.76 18.734-41.76 41.76 0 23.027 18.734 41.76 41.76 41.76s41.76-18.734 41.76-41.76c0-23.027-18.733-41.76-41.76-41.76zm0 68.528c-14.76 0-26.769-12.009-26.769-26.769s12.008-26.768 26.769-26.768 26.769 12.008 26.769 26.768-12.009 26.769-26.769 26.769z"/><path d="m319.321 310.759h-126.642c-4.14 0-7.496 3.356-7.496 7.496s3.356 7.496 7.496 7.496h126.641c4.14 0 7.496-3.356 7.496-7.496s-3.356-7.496-7.495-7.496z"/><path d="m326.816 349.039c0-4.14-3.356-7.496-7.496-7.496h-126.641c-4.14 0-7.496 3.355-7.496 7.496 0 4.14 3.356 7.496 7.496 7.496h126.641c4.14 0 7.496-3.356 7.496-7.496z"/><path d="m192.679 372.329c-4.14 0-7.496 3.355-7.496 7.496s3.356 7.496 7.496 7.496h63.321c4.14 0 7.496-3.355 7.496-7.496s-3.356-7.496-7.496-7.496z"/></g></g></svg>