<svg id="Capa_1" enable-background="new 0 0 512 512" height="512" viewBox="0 0 512 512" width="512" xmlns="http://www.w3.org/2000/svg"><g><g><g><path d="m378.549 7.5h-324.509c-3.048 0-5.519 2.471-5.519 5.519v128.038c0 3.048 2.471 5.519 5.519 5.519h24.835v-8.83c0-3.048 2.471-5.519 5.519-5.519h2.759v-48.567c0-3.048 2.471-5.519 5.519-5.519h36.424v-16.557c0-3.048 2.471-5.519 5.519-5.519h36.424v-16.556c0-3.048 2.471-5.519 5.519-5.519h30.906c3.048 0 5.519 2.471 5.519 5.519v16.557h36.424c3.048 0 5.519 2.471 5.519 5.519v16.557h36.425c1.143 0 2.205.348 3.086.943 1.468.992 2.433 2.671 2.433 4.576 0-3.048 2.471-5.518 5.519-5.518h30.906c3.048 0 5.519 2.471 5.519 5.519v48.566h9.382c3.048 0 5.519 2.471 5.519 5.519v8.83h24.835c3.048 0 5.519-2.471 5.519-5.519v-128.039c-.001-3.048-2.472-5.519-5.52-5.519z" fill="#685e68"/><path d="m78.875 137.745c0-3.048 2.471-5.519 5.519-5.519h2.759v-48.566c0-3.048 2.471-5.519 5.519-5.519h8.33v-65.122c0-3.048 2.471-5.519 5.519-5.519h-52.481c-3.048 0-5.519 2.471-5.519 5.519v128.038c0 3.048 2.471 5.519 5.519 5.519h24.835z" fill="#554e56"/><g><path d="m123.269 132.226c2.847 0 5.226 2.165 5.494 4.999l.333 3.523v-62.607h-36.424c-3.048 0-5.519 2.471-5.519 5.519v48.566z" fill="#ea9b58"/></g><g><path d="m108.059 132.226v-48.566c0-3.048 2.471-5.519 5.519-5.519h-20.906c-3.048 0-5.519 2.471-5.519 5.519v48.566z" fill="#d88a55"/></g><g><path d="m131.572 166.9c.805 8.501 7.943 14.996 16.483 14.996h22.985v-28.698h-40.765z" fill="#fff"/></g><g><path d="m131.572 166.9c.805 8.501 7.943 14.996 16.483 14.996h2.004v-28.698h-19.784z" fill="#f3f0f3"/></g><path d="m130.275 153.198h40.765v-97.132h-36.424c-3.048 0-5.519 2.471-5.519 5.519v79.164z" fill="#ea9b58"/><path d="m130.275 153.198h19.784v-91.613c0-3.048 2.471-5.519 5.519-5.519h-20.962c-3.048 0-5.519 2.471-5.519 5.519v79.164z" fill="#d88a55"/><path d="m171.04 131.123h41.943v50.774h-41.943z" fill="#fff"/><g><path d="m171.04 131.123h20.962v50.774h-20.962z" fill="#f3f0f3"/></g><path d="m212.983 153.198h41.943v28.698h-41.943z" fill="#fff"/><g><path d="m212.983 153.198h20.076v28.698h-20.076z" fill="#f3f0f3"/></g><g><path d="m284.535 181.896c4.877 0 9.291-2.124 12.336-5.525v-92.711c0-3.048-2.471-5.519-5.519-5.519h-36.425v103.755z" fill="#fff"/></g><path d="m254.927 153.198h20.132v28.698h-20.132z" fill="#f3f0f3"/><g><path d="m296.87 153.198v-69.538c0-3.048-2.471-5.519-5.519-5.519h-36.424v75.057z" fill="#ea9b58"/></g><g><path d="m254.927 78.141h20.132v75.057h-20.132z" fill="#d88a55"/></g><g><path d="m301.017 166.9 2.809-29.675c.268-2.834 2.648-4.999 5.494-4.999h29.493v-48.566c0-3.048-2.471-5.519-5.519-5.519h-30.906c-3.048 0-5.519 2.471-5.519 5.519v92.711c2.287-2.554 3.803-5.825 4.148-9.471z" fill="#ea9b58"/></g><g><path d="m301.017 166.9 2.809-29.675c.268-2.834 2.648-4.999 5.494-4.999h7.738v-48.566c0-3.048 2.471-5.519 5.519-5.519h-20.189c-3.048 0-5.519 2.471-5.519 5.519v92.711c2.287-2.554 3.803-5.825 4.148-9.471z" fill="#d88a55"/></g><g><path d="m353.715 137.745c0-3.048-2.471-5.519-5.519-5.519h-38.875c-2.846 0-5.226 2.165-5.494 4.999l-2.809 29.675c-.805 8.501-7.943 14.996-16.483 14.996h-136.48c-8.539 0-15.678-6.495-16.483-14.996l-2.809-29.675c-.268-2.834-2.648-4.999-5.494-4.999h-38.875c-3.048 0-5.519 2.471-5.519 5.519v75.057h274.84z" fill="#cbc4cc"/></g><path d="m110.002 137.745c0-3.048 2.471-5.519 5.519-5.519h-31.127c-3.048 0-5.519 2.471-5.519 5.519v75.057h31.127z" fill="#b5adb6"/><g><path d="m253.559 399.542c0-56.265 44.502-102.326 100.156-104.848v-81.892h-274.84v251.66c0 6.096 4.942 11.038 11.038 11.038h196.241c-20.071-19.13-32.595-46.109-32.595-75.958z" fill="#fef1da"/></g><g><path d="m110.002 464.462v-251.66h-31.127v251.66c0 6.096 4.942 11.038 11.038 11.038h31.127c-6.096 0-11.038-4.942-11.038-11.038z" fill="#fae2c0"/></g><g><path d="m171.04 131.123h41.943v-91.614c0-3.048-2.471-5.519-5.519-5.519h-30.906c-3.048 0-5.519 2.471-5.519 5.519v91.614z" fill="#ea9b58"/></g><g><path d="m197.521 33.991h-20.962c-3.048 0-5.519 2.471-5.519 5.519v91.613h20.962v-91.614c0-3.048 2.471-5.518 5.519-5.518z" fill="#d88a55"/></g><g><path d="m212.983 153.198h41.943v-91.613c0-3.048-2.471-5.519-5.519-5.519h-36.424z" fill="#ea9b58"/></g><g><path d="m212.983 56.066h20.076v97.132h-20.076z" fill="#d88a55"/></g><path d="m292.455 318.045v-5.866c0-2.174-1.405-4.099-3.475-4.762l-71.161-22.783c-.992-.318-2.057-.318-3.049 0l-71.161 22.783c-2.071.663-3.475 2.588-3.475 4.762v41.468c0 2.174 1.405 4.099 3.475 4.762l71.161 22.783c.992.317 2.057.317 3.049 0l40.513-12.971c6.242-19.925 18.279-37.308 34.123-50.176z" fill="#4fc123"/><path d="m247.179 370.719-84.111-26.929c-2.447-.784-4.108-3.059-4.108-5.629v-35.66l-15.351 4.915c-2.071.663-3.475 2.588-3.475 4.762v41.468c0 2.174 1.405 4.099 3.475 4.762l71.161 22.783c.992.317 2.058.317 3.049 0l32.045-10.26c-.896.136-1.814.066-2.685-.212z" fill="#47a920"/><g><g><path d="m353.715 284.848v-72.046h-91.062z" fill="#fd4755"/></g><g><path d="m169.936 212.802h-91.061v72.046z" fill="#fd4755"/></g><g><path d="m110.002 212.802h-31.127v72.046l31.127-24.628z" fill="#fb2b3a"/></g></g></g></g><g><g><ellipse cx="358.521" cy="399.542" fill="#fff" rx="77.038" ry="77.038" transform="matrix(.987 -.16 .16 .987 -59.37 62.588)"/></g><g><path d="m392.367 339.956-93.431 93.43c6.111 10.717 15.023 19.629 25.74 25.741l93.432-93.431c-6.112-10.716-15.025-19.629-25.741-25.74z" fill="#fd4755"/><path d="m309.188 447.077 96.87-96.869c-4.107-3.959-8.703-7.408-13.691-10.253l-93.431 93.431c2.844 4.989 6.293 9.584 10.252 13.691z" fill="#fb2b3a"/><g><g><path d="m358.521 504.504c-57.876 0-104.962-47.086-104.962-104.962s47.086-104.962 104.962-104.962 104.962 47.086 104.962 104.962c.001 57.876-47.085 104.962-104.962 104.962zm0-173.522c-37.804 0-68.559 30.755-68.559 68.559s30.755 68.559 68.559 68.559 68.559-30.755 68.559-68.559-30.755-68.559-68.559-68.559z" fill="#fd4755"/></g></g><g><g><path d="m274.078 399.542c0-54.415 41.624-99.287 94.703-104.46-3.376-.329-6.798-.502-10.259-.502-57.876 0-104.962 47.086-104.962 104.962s47.086 104.962 104.962 104.962c3.461 0 6.883-.173 10.259-.502-53.08-5.174-94.703-50.045-94.703-104.46z" fill="#fb2b3a"/></g></g></g></g><g><path d="m249.483 324.107h-66.377c-4.142 0-7.5 3.357-7.5 7.5s3.358 7.5 7.5 7.5h66.377c4.142 0 7.5-3.357 7.5-7.5s-3.358-7.5-7.5-7.5z"/><path d="m381.211 326.8c-27.818-8.169-56.396-1.071-76.449 18.982-20.054 20.054-27.149 48.633-18.982 76.449 7.113 24.228 25.824 42.938 50.052 50.052 7.6 2.231 15.255 3.323 22.778 3.323 20.016-.001 39.096-7.731 53.671-22.306 20.053-20.053 27.149-48.632 18.982-76.449-7.113-24.227-25.824-42.938-50.052-50.051zm-80.174 93.878c-.307-.883-.6-1.773-.865-2.673-6.598-22.469-.917-45.503 15.196-61.616 11.693-11.693 27.03-17.892 43.152-17.892 6.094 0 12.301.886 18.464 2.695.901.264 1.79.557 2.673.865zm115.834-39.6c6.597 22.47.916 45.504-15.196 61.616-16.113 16.113-39.146 21.793-61.616 15.196-.901-.264-1.79-.558-2.674-.865l24.946-24.946c2.929-2.93 2.929-7.678 0-10.607-2.93-2.927-7.678-2.929-10.607 0l-28.397 28.397c-5.903-4.088-11.045-9.23-15.133-15.133l85.523-85.523c5.903 4.088 11.046 9.231 15.134 15.134l-32.378 32.378c-2.929 2.93-2.929 7.678 0 10.607 2.93 2.928 7.678 2.928 10.607 0l28.926-28.927c.307.884.6 1.773.865 2.673z"/><path d="m428.873 311.856c-19.542-15.708-43.119-24.158-67.658-24.732v-133.049h17.335c7.179 0 13.02-5.84 13.02-13.019v-66.056c0-4.143-3.357-7.5-7.5-7.5s-7.5 3.357-7.5 7.5v64.075h-15.354v-1.33c0-7.179-5.84-13.019-13.019-13.019h-1.882v-41.066c0-7.179-5.841-13.019-13.02-13.019h-30.905c-1.975 0-3.841.455-5.519 1.245-1.678-.79-3.544-1.245-5.519-1.245h-28.924v-9.057c0-7.179-5.84-13.019-13.019-13.019h-28.925v-9.055c0-7.179-5.84-13.02-13.019-13.02h-30.906c-7.179 0-13.019 5.841-13.019 13.02v9.057h-28.924c-7.179 0-13.019 5.84-13.019 13.019v9.057h-28.925c-7.179 0-13.019 5.84-13.019 13.019v41.973c-4.839 1.901-8.278 6.607-8.278 12.112v1.33h-15.354v-124.077h320.548v25c0 4.143 3.357 7.5 7.5 7.5s7.5-3.357 7.5-7.5v-26.981c0-7.179-5.841-13.019-13.02-13.019h-324.509c-7.179 0-13.019 5.84-13.019 13.019v128.038c0 7.179 5.84 13.019 13.019 13.019h17.335v197.802 112.585c0 10.222 8.316 18.538 18.538 18.538h50.09c4.142 0 7.5-3.357 7.5-7.5s-3.358-7.5-7.5-7.5h-50.09c-1.951 0-3.538-1.587-3.538-3.538v-175.986l86.17-68.176h87.5l85.372 67.545c-6.044.685-12.106 1.835-18.143 3.48-10.699 2.916-20.751 7.427-29.893 13.25-1.512-1.974-3.612-3.503-6.114-4.304l-71.161-22.782c-2.493-.799-5.129-.799-7.623 0l-71.161 22.782c-5.197 1.664-8.688 6.448-8.688 11.904v41.469c0 5.456 3.492 10.24 8.688 11.904l71.162 22.784c1.247.398 2.529.598 3.811.598s2.564-.199 3.811-.599l27.721-8.875c-5.507 31.669 2.096 63.302 21.529 88.541h-94.354c-4.142 0-7.5 3.357-7.5 7.5s3.358 7.5 7.5 7.5h108.248c20.591 18.522 47.526 29.001 75.436 29 1.83 0 3.669-.045 5.505-.136 57.938-2.865 103.789-48.717 106.652-106.654 1.775-35.901-13.915-70.8-41.97-93.352zm-124.502-226.214h26.943v39.085h-21.993c-1.753 0-3.422.348-4.95.971zm6.922 52.291c0 .002-.001.004-.001.005zm-48.866-52.291h26.943v60.057h-26.943zm-.001 75.056h26.944v12.311c-1.401.881-3.059 1.387-4.836 1.387h-22.108zm-41.943-29.575v-52.981-14.576h26.943v14.575 67.557h-26.943zm0 29.575h26.943v13.698h-26.943zm-41.943-104.632v-14.576h26.943v14.576 67.557h-26.943zm0 97.132v-14.575h26.943v14.575 21.198h-26.943zm-41.943-75.056v-14.576h26.943v14.575 52.981 14.575h-26.441l-.502-5.305zm26.943 82.556v13.698h-15.485c-4.697 0-8.574-3.527-9.016-8.204l-.52-5.494zm-68.887-75.056h26.943v39.085h-26.943zm-8.278 183.709v-49.049h61.994zm0-64.049v-65.575h35.091l2.639 27.88c1.176 12.422 11.472 21.79 23.95 21.79h136.48c12.478 0 22.773-9.368 23.949-21.79l2.64-27.88h35.091v65.575zm197.845 15h61.994v49.05zm-67.926 153.503-68.661-21.983v-37.818l68.661-21.982 68.475 21.923c-14.863 12.766-26.282 29.433-32.64 48.388zm239.567 30.665c-2.48 50.201-42.208 89.93-92.41 92.412-31.117 1.552-61.373-12.063-80.924-36.388-19.839-24.681-26.308-56.849-17.748-88.257 8.777-32.203 34.235-57.661 66.439-66.438 9.091-2.478 18.242-3.696 27.26-3.696 22.14 0 43.46 7.348 60.998 21.444 24.321 19.552 37.924 49.803 36.385 80.923z"/></g></g></svg>