<svg id="Capa_1" enable-background="new 0 0 511.921 511.921" height="512" viewBox="0 0 511.921 511.921" width="512" xmlns="http://www.w3.org/2000/svg"><g><g><g><path d="m384.555 475.057c-.103-11.316-1.363-22.607-4.1-33.587-2.709-10.863-6.687-21.303-13.244-30.592-14.841-21.025-37.177-40.277-61.479-50.058-6.34-2.552-10.503-8.684-10.53-15.518l-.166-41.873h-78.151l-.166 41.873c-.027 6.834-4.19 12.966-10.53 15.518-24.302 9.781-46.639 29.033-61.479 50.058-6.556 9.288-10.534 19.726-13.243 30.588-2.737 10.977-3.998 22.265-4.101 33.578-.113 12.349-.206 29.393.134 29.393h256.922c.339.001.246-17.033.133-29.38z" fill="#f6a96c"/></g><g><path d="m384.425 504.434h-20.923c.339 0 .249-17.032.14-29.375-.11-11.315-1.367-12.063-4.101-23.039-2.714-10.866-5.428-24.466-11.993-33.755-14.837-21.023-38.435-37.118-62.731-46.896-6.346-2.554-10.506-8.691-10.537-15.526l-.16-52.413h20.913l.17 41.867c.03 6.835 4.191 12.971 10.526 15.526 24.306 9.778 46.637 29.026 61.483 50.059 6.555 9.289 10.537 19.726 13.241 30.592 2.744 10.976 4.001 22.271 4.101 33.585.11 12.344.21 29.375-.129 29.375z" fill="#ea9b58"/></g><g><path d="m334.276 439.089v65.345h-206.78c-.339 0-.239-17.042-.13-29.395.1-11.305 1.367-22.6 4.101-33.575 2.704-10.856 6.685-21.303 13.241-30.582 11.145-15.795 26.511-30.572 43.763-41.099 26.274 21.827 68.754 46.358 131.418 53.313 8.175.908 14.387 7.768 14.387 15.993z" fill="#f9f3f1"/></g><g><path d="m334.276 439.09v65.345h-20.584v-49.979c0-8.222-6.216-15.087-14.388-15.994-62.66-6.954-105.146-31.48-131.418-53.311-.08.05-.17.1-.249.15 6.476-5.777 13.49-11.026 20.834-15.516 26.272 21.832 68.757 46.357 131.418 53.311 8.171.908 14.387 7.772 14.387 15.994z" fill="#efe2dd"/></g><g><g><path d="m146.181 227.95c-3.091 1.326-6.377 2.06-9.953 2.06-14.122 0-25.571-11.448-25.571-25.571 0-14.122 11.448-25.571 25.571-25.571 3.531 0 6.894.716 9.953 2.009z" fill="#f6a96c"/></g><g><path d="m365.74 227.95c3.091 1.326 6.377 2.06 9.953 2.06 14.122 0 25.571-11.448 25.571-25.571 0-14.122-11.448-25.571-25.571-25.571-3.531 0-6.894.716-9.953 2.009z" fill="#f6a96c"/></g></g><g><g><path d="m146.184 180.874v47.075c-3.093 1.327-6.376 2.065-9.958 2.065-2.724 0-5.348-.429-7.803-1.217v-48.712c2.455-.788 5.079-1.217 7.803-1.217 3.533.001 6.895.719 9.958 2.006z" fill="#ea9b58"/></g><g><path d="m401.267 204.442c0 14.119-11.455 25.573-25.573 25.573-3.582 0-6.865-.739-9.958-2.065v-3.722c9.259-3.832 15.775-12.971 15.775-23.618 0-8.8-4.45-16.573-11.225-21.163 1.746-.379 3.552-.579 5.408-.579 14.119.001 25.573 11.445 25.573 25.574z" fill="#ea9b58"/></g></g><g><path d="m367.006 156.117v54.419c0 61.328-49.717 111.046-111.045 111.046s-111.045-49.717-111.045-111.046v-54.419c0-3.955.202-7.857.617-11.706 5.837-55.82 53.056-99.339 110.429-99.339 30.664 0 58.425 12.429 78.521 32.525 17.501 17.501 29.197 40.829 31.908 66.814.413 3.849.615 7.751.615 11.706z" fill="#f6a96c"/></g><g><path d="m367.003 156.119v54.419c0 61.324-49.719 111.043-111.043 111.043-3.363 0-6.695-.15-9.978-.449 56.654-5.039 101.065-52.633 101.065-110.594v-54.419c0-3.961-.2-7.863-.619-11.704-2.704-25.992-14.398-49.32-31.899-66.821-17.89-17.89-41.867-29.704-68.557-32.069 3.283-.299 6.615-.449 9.988-.449 30.662 0 58.43 12.422 78.525 32.518 17.501 17.501 29.195 40.829 31.899 66.821.42 3.842.619 7.743.619 11.704z" fill="#ea9b58"/></g><g><path d="m144.915 123.594h222.091v31.589h-222.091z" fill="#7a6d79"/></g><g><path d="m345.781 123.592h21.223v31.59h-21.223z" fill="#685e68"/></g><g><path d="m144.915 123.594v-5.065c0-61.329 49.717-111.045 111.045-111.045 61.329 0 111.045 49.717 111.045 111.045v5.065z" fill="#b5adb6"/></g><g><path d="m367.003 118.533v5.059h-21.223v-5.059c0-30.662-12.432-58.43-32.518-78.525-17.75-17.751-41.478-29.514-67.909-32.029 3.492-.329 7.024-.499 10.606-.499 30.672 0 58.43 12.432 78.525 32.528 20.097 20.095 32.519 47.863 32.519 78.525z" fill="#a79ba7"/></g><g><path d="m196.912 65.541-27.853 27.852c-.923.923-2.42.923-3.344 0l-13.784-13.784c5.099-13.65 12.812-26.022 22.54-36.509z" fill="#f9f3f1"/></g><g><path d="m255.953 65.538-27.85 27.85c-.923.923-2.42.923-3.344 0l-27.85-27.85 27.85-27.85c.923-.923 2.42-.923 3.344 0z" fill="#f9f3f1"/></g><g><path d="m314.997 65.538-27.85 27.85c-.923.923-2.42.923-3.344 0l-27.85-27.85 27.85-27.85c.923-.923 2.42-.923 3.344 0z" fill="#f9f3f1"/></g><g><path d="m359.989 79.609-13.784 13.784c-.923.923-2.42.923-3.344 0l-27.852-27.852 22.44-22.44c9.728 10.486 17.441 22.859 22.54 36.508z" fill="#f9f3f1"/></g><g><path d="m359.989 79.609-13.779 13.78c-.926.926-2.427.926-3.352 0l-14.398-14.398 9.038-6.767c2.838-2.125 3.61-6.081 1.722-9.081-2.761-4.386-6.429-8.587-9.293-12.518l7.523-7.523c9.727 10.485 17.44 22.858 22.539 36.507z" fill="#efe2dd"/></g><g><path d="m196.912 65.541-27.848 27.848c-.926.926-2.427.926-3.352 0l-8.292-8.291 13.796-13.803c3.176-3.178 3.176-8.329-.002-11.506l-5.693-5.692c2.734-3.862 5.737-7.533 8.95-10.996z" fill="#efe2dd"/></g><g><path d="m255.95 65.541-27.848 27.848c-.918.918-2.415.918-3.343 0l-8.302-8.301 13.799-13.792c3.18-3.178 3.18-8.332 0-11.51l-13.799-13.792 8.302-8.301c.928-.928 2.425-.928 3.343 0z" fill="#efe2dd"/></g><g><path d="m314.999 65.541-27.848 27.848c-.928.918-2.425.918-3.353 0l-8.291-8.291 13.796-13.803c3.176-3.178 3.176-8.328-.001-11.505l-13.794-13.795 8.291-8.301c.928-.928 2.425-.928 3.353 0z" fill="#efe2dd"/></g></g><g><path d="m274.154 257.916c-3.153-2.672-7.875-2.282-10.547.871-1.909 2.253-4.697 3.545-7.647 3.545s-5.737-1.293-7.648-3.547c-2.673-3.152-7.393-3.543-10.547-.869-3.153 2.672-3.542 7.395-.87 10.547 4.76 5.615 11.709 8.836 19.065 8.836 7.357 0 14.307-3.22 19.065-8.836 2.672-3.154 2.282-7.876-.871-10.547z"/><path d="m208.149 204.798c-4.133 0-7.483 3.35-7.483 7.483v13.899c0 4.133 3.35 7.483 7.483 7.483s7.483-3.35 7.483-7.483v-13.899c0-4.133-3.35-7.483-7.483-7.483z"/><path d="m303.772 204.798c-4.133 0-7.483 3.35-7.483 7.483v13.899c0 4.133 3.35 7.483 7.483 7.483s7.483-3.35 7.483-7.483v-13.899c0-4.133-3.35-7.483-7.483-7.483z"/><path d="m209.984 170.519c-8.372 3.092-16.111 8.082-22.379 14.432-2.904 2.942-2.874 7.679.068 10.583 1.458 1.44 3.358 2.158 5.257 2.158 1.931 0 3.862-.743 5.326-2.226 4.738-4.799 10.587-8.571 16.914-10.908 3.877-1.431 5.86-5.735 4.428-9.613-1.433-3.874-5.737-5.856-9.614-4.426z"/><path d="m301.938 170.519c-3.879-1.431-8.181.551-9.612 4.427-1.432 3.877.55 8.181 4.427 9.613 6.328 2.338 12.176 6.109 16.913 10.907 1.465 1.483 3.395 2.227 5.326 2.227 1.899 0 3.799-.718 5.257-2.157 2.942-2.904 2.972-7.642.069-10.583-6.269-6.351-14.008-11.342-22.38-14.434z"/><path d="m241.867 445.563c-3.817-1.585-8.196.232-9.778 4.05-1.581 3.819.232 8.196 4.05 9.777 17.26 7.149 35.175 12.686 53.246 16.457.515.108 1.03.16 1.537.16 3.469 0 6.581-2.426 7.318-5.957.844-4.046-1.751-8.01-5.797-8.854-17.16-3.582-34.176-8.842-50.576-15.633z"/><path d="m371.461 237.216c1.398.183 2.81.277 4.232.277 18.226 0 33.054-14.828 33.054-33.054s-14.828-33.053-33.054-33.053c-.403 0-.802.027-1.203.041v-52.899c-.001-65.356-53.172-118.528-118.53-118.528-65.357 0-118.528 53.172-118.528 118.528v52.896c-.401-.015-.801-.039-1.204-.039-18.226 0-33.054 14.827-33.054 33.053s14.828 33.054 33.054 33.054c1.422 0 2.833-.099 4.231-.285 8.56 37.082 34.57 67.561 68.879 82.297l-.102 25.768c-.015 3.805-2.307 7.183-5.841 8.605-24.51 9.865-48.129 29.068-64.799 52.685-6.386 9.047-11.093 19.872-14.39 33.093-2.756 11.052-4.21 22.936-4.322 35.321-.293 32.115-.293 32.115 2.291 34.724 1.405 1.418 3.329 2.221 5.326 2.221h256.922c1.996 0 3.92-.803 5.326-2.221 2.584-2.609 2.584-2.609 2.291-34.712-.113-12.395-1.568-24.282-4.322-35.33-3.298-13.224-8.006-24.05-14.392-33.096-16.67-23.616-40.287-42.82-64.797-52.685-3.533-1.422-5.826-4.8-5.842-8.606l-.102-25.766c34.306-14.734 60.315-45.21 68.876-82.289zm3.028-26.68v-24.143c.399-.026.8-.04 1.203-.04 9.974 0 18.088 8.114 18.088 18.087 0 9.974-8.114 18.088-18.088 18.088-.608 0-1.205-.04-1.798-.1.393-3.913.595-7.879.595-11.892zm-238.261 11.991c-9.973 0-18.087-8.114-18.087-18.088 0-9.973 8.114-18.087 18.087-18.087.404 0 .805.014 1.204.04v24.143c0 4.013.203 7.979.594 11.891-.593.06-1.19.101-1.798.101zm214.954-144.695-6.649 6.65-18.942-18.941 11.411-11.411c5.724 7.187 10.511 15.15 14.18 23.702zm-95.221-62.865c27.404 0 52.353 10.702 70.896 28.142l-11.853 11.853-22.563-22.562c-1.859-1.862-4.333-2.887-6.965-2.887-2.633 0-5.107 1.025-6.964 2.884l-22.558 22.558-22.557-22.557c-1.86-1.861-4.334-2.886-6.964-2.886-2.631 0-5.105 1.025-6.964 2.884l-22.559 22.56-11.846-11.846c18.543-17.441 43.492-28.143 70.897-28.143zm48.453 50.572-18.939 18.937-18.938-18.937 18.938-18.939zm-59.044 0-18.938 18.938-18.939-18.938 18.938-18.939zm-70.452-11.409 11.411 11.411-18.941 18.941-6.649-6.649c3.669-8.553 8.456-16.516 14.179-23.703zm-22.52 76.947h43.273c4.133 0 7.483-3.35 7.483-7.483s-3.35-7.483-7.483-7.483h-43.245c.178-7.714 1.207-15.22 2.991-22.432l5.006 5.005c1.86 1.861 4.334 2.886 6.964 2.886 2.631 0 5.105-1.025 6.964-2.884l22.561-22.561 22.555 22.554c1.86 1.861 4.334 2.886 6.965 2.886s5.104-1.025 6.963-2.884l22.559-22.558 22.556 22.555c1.859 1.862 4.333 2.887 6.966 2.887 2.632 0 5.106-1.025 6.962-2.884l22.564-22.563 22.568 22.568c1.921 1.92 4.442 2.879 6.964 2.879s5.043-.96 6.964-2.88l5.006-5.007c1.783 7.213 2.813 14.719 2.99 22.433h-129.07c-4.133 0-7.483 3.35-7.483 7.483s3.35 7.483 7.483 7.483h129.098v16.623h-207.124zm150.541 236.686c21.586 8.688 43.327 26.419 58.159 47.431 5.372 7.609 9.216 16.533 12.096 28.086 2.471 9.91 3.776 20.624 3.878 31.845.1 10.976.114 17.707.095 21.829h-35.407v-57.865c0-12.025-9.047-22.097-21.048-23.43-3.118-.346-6.285-.749-9.412-1.199-4.09-.595-7.885 2.249-8.474 6.339-.59 4.091 2.248 7.885 6.338 8.474 3.29.474 6.62.899 9.898 1.262 4.407.49 7.731 4.167 7.731 8.555v57.863l-141.661.002v-34.222c0-4.133-3.35-7.483-7.483-7.483s-7.483 3.35-7.483 7.483v34.222h-35.413c-.019-4.129-.003-10.862.096-21.841.102-11.211 1.407-21.923 3.879-31.836 2.84-11.391 6.797-20.577 12.096-28.083 1.327-1.88 2.713-3.731 4.146-5.554 15.017 12.841 31.377 24.269 48.738 34.005 1.158.649 2.414.957 3.654.957 2.619 0 5.162-1.377 6.534-3.823 2.021-3.605.738-8.167-2.867-10.188-16.456-9.229-31.963-20.051-46.199-32.209 7.109-7.319 14.968-13.892 23.16-19.368 24.931 19.697 54.099 34.208 86.8 43.147.661.18 1.324.267 1.977.267 3.29 0 6.305-2.186 7.214-5.512 1.09-3.986-1.258-8.102-5.245-9.191-28.69-7.844-54.447-20.215-76.734-36.821 2.323-1.14 4.652-2.203 6.981-3.14 9.207-3.707 15.18-12.511 15.219-22.432l.082-20.571c10.087 2.801 20.709 4.304 31.676 4.304s21.589-1.504 31.676-4.304l.082 20.572c.041 9.919 6.015 18.723 15.221 22.429zm-46.979-53.665c-57.104 0-103.562-46.458-103.562-103.563v-47.869h207.124v47.869c.001 57.105-46.457 103.563-103.562 103.563z"/></g></g></svg>