<svg id="Capa_1" enable-background="new 0 0 512 512" height="512" viewBox="0 0 512 512" width="512" xmlns="http://www.w3.org/2000/svg"><g><g><path d="m286.11 45.287h-60.22v-7.685c0-16.629 13.481-30.11 30.11-30.11 16.629 0 30.11 13.481 30.11 30.11z" fill="#fee97d"/></g><g><path d="m286.108 37.6v7.692h-21.727v-5.055c0-8.321-3.366-15.843-8.821-21.298-3.756-3.746-8.491-6.513-13.785-7.882 4.236-2.278 9.08-3.566 14.225-3.566 8.311 0 15.843 3.367 21.288 8.821 5.454 5.445 8.82 12.967 8.82 21.288z" fill="#fedf30"/></g><g><path d="m374.414 45.287h-236.828c-10.112 0-18.569 7.683-19.537 17.749l-37.221 387.363h350.345l-37.222-387.363c-.967-10.066-9.425-17.749-19.537-17.749z" fill="#ade194"/></g><g><path d="m443.703 504.508h-375.406c-4.869 0-8.817-3.947-8.817-8.817v-36.475c0-4.869 3.947-8.817 8.817-8.817h375.407c4.869 0 8.817 3.947 8.817 8.817v36.475c-.001 4.87-3.948 8.817-8.818 8.817z" fill="#cbc4cc"/></g><g><path d="m431.176 450.395h-21.348l-37.221-387.362c-.969-10.059-9.43-17.741-19.539-17.741h21.348c10.109 0 18.57 7.682 19.539 17.741z" fill="#97da7b"/></g><g><path d="m452.523 459.216v36.472c0 4.875-3.946 8.821-8.821 8.821h-21.348c4.875 0 8.821-3.946 8.821-8.821v-36.472c0-4.865-3.946-8.821-8.821-8.821h21.348c4.875 0 8.821 3.956 8.821 8.821z" fill="#b5adb6"/></g><g><g><path d="m149.892 247.848-33.703 33.693c-.867.867-2.273.867-3.14 0l-14.593-14.593 3.98-41.472c.049-.513.276-.993.64-1.358l9.973-9.973c.867-.867 2.273-.867 3.14 0z" fill="#fee97d"/></g><g><path d="m220.581 247.844-33.701 33.701c-.867.867-2.273.867-3.14 0l-33.701-33.701 33.701-33.701c.867-.867 2.273-.867 3.14 0z" fill="#fee97d"/></g><g><path d="m291.271 247.844-33.701 33.701c-.867.867-2.273.867-3.14 0l-33.701-33.701 33.701-33.701c.867-.867 2.273-.867 3.14 0z" fill="#fee97d"/></g><g><path d="m361.96 247.844-33.701 33.701c-.867.867-2.273.867-3.14 0l-33.701-33.701 33.701-33.701c.867-.867 2.273-.867 3.14 0z" fill="#fee97d"/></g><g><path d="m413.544 266.948-14.593 14.593c-.867.867-2.273.867-3.14 0l-33.703-33.693 33.703-33.703c.867-.867 2.273-.867 3.14 0l9.973 9.973c.365.365.591.845.64 1.358z" fill="#fee97d"/></g><g><path d="m149.892 247.848-33.705 33.695c-.866.866-2.27.866-3.136 0l-7.242-7.242 22.427-22.427c2.223-2.223 2.223-5.827.001-8.051l-22.428-22.436 7.242-7.242c.866-.866 2.271-.866 3.137 0z" fill="#fedf30"/></g><g><path d="m220.577 247.848-33.695 33.695c-.869.869-2.278.869-3.147 0l-7.242-7.242 22.435-22.426c2.224-2.223 2.224-5.829.001-8.053l-22.435-22.435 7.243-7.243c.869-.869 2.278-.869 3.146 0z" fill="#fedf30"/></g><g><path d="m291.273 247.848-33.705 33.695c-.866.866-2.27.866-3.136 0l-7.242-7.242 22.427-22.427c2.223-2.223 2.223-5.827.001-8.051l-22.428-22.436 7.242-7.242c.866-.866 2.271-.866 3.137 0z" fill="#fedf30"/></g><g><path d="m361.959 247.848-33.694 33.695c-.869.869-2.278.869-3.147 0l-7.242-7.242 22.427-22.427c2.223-2.223 2.223-5.827.001-8.051l-22.428-22.436 7.242-7.242c.869-.869 2.278-.869 3.147 0z" fill="#fedf30"/></g><g><path d="m413.544 266.948-14.595 14.595c-.866.866-2.271.866-3.137 0l-8.831-8.831 14.859-23.148c1.248-1.944 1.197-4.45-.129-6.343l-14.411-20.567 8.511-8.511c.866-.866 2.271-.866 3.137 0l9.979 9.979c.36.36.589.839.639 1.349z" fill="#fedf30"/></g></g><g><path d="m422.884 364.106h-333.768l3.366-35.043h327.036z" fill="#f9f3f1"/></g><g><path d="m422.884 364.106h-21.347l-3.367-35.043h21.348z" fill="#efe2dd"/></g><g><path d="m403.904 166.624h-295.808l3.366-35.043h289.076z" fill="#f9f3f1"/></g><g><path d="m403.904 166.624h-21.347l-3.367-35.043h21.348z" fill="#efe2dd"/></g><g><path d="m443.703 442.908h-5.724l-36.57-380.589c-1.344-13.981-12.949-24.524-26.995-24.524h-80.811v-.194c0-20.733-16.869-37.601-37.603-37.601s-37.602 16.868-37.602 37.601v.194h-80.812c-14.046 0-25.651 10.543-26.995 24.524l-36.57 380.589h-5.724c-8.993 0-16.309 7.316-16.309 16.309v36.474c0 8.993 7.316 16.309 16.309 16.309h273.363c4.138 0 7.492-3.354 7.492-7.492s-3.354-7.492-7.492-7.492h-273.363c-.731 0-1.325-.594-1.325-1.325v-36.474c0-.731.594-1.325 1.325-1.325h375.406c.731 0 1.325.594 1.325 1.325v36.474c0 .731-.594 1.325-1.325 1.325h-66.962c-4.138 0-7.492 3.354-7.492 7.492s3.354 7.492 7.492 7.492h66.962c8.993 0 16.309-7.317 16.309-16.309v-36.474c0-8.993-7.316-16.309-16.309-16.309zm-41.421-214.836 3.415 35.543.051.534-8.368 8.368-24.676-24.669 24.676-24.676zm-168.899-190.471c0-12.471 10.147-22.617 22.618-22.617s22.618 10.146 22.618 22.617v.194h-45.236zm-107.876 26.152c.601-6.256 5.795-10.974 12.079-10.974h236.828c6.285 0 11.478 4.718 12.079 10.974l5.798 60.336h-272.582zm-10.605 110.363h70.409c4.138 0 7.492-3.354 7.492-7.492s-3.354-7.492-7.492-7.492h-68.969l1.517-15.792.41-4.267h275.461l.41 4.267 1.517 15.792h-175.08c-4.138 0-7.492 3.354-7.492 7.492s3.354 7.492 7.492 7.492h176.52l3.105 32.309c-3.319-1.002-7.072-.196-9.689 2.422l-28.476 28.476-28.479-28.479c-3.787-3.786-9.949-3.788-13.736 0l-28.476 28.476-28.476-28.476c-3.786-3.786-9.949-3.788-13.737 0l-28.476 28.476-28.476-28.476c-3.786-3.786-9.948-3.788-13.736 0l-28.479 28.479-28.476-28.473c-1.835-1.836-4.275-2.848-6.871-2.848-.97 0-1.918.142-2.821.414zm236.463 73.728-24.676 24.675-24.675-24.675 24.675-24.675zm-70.689 0-24.676 24.675-24.675-24.675 24.675-24.676zm-70.69 0-24.676 24.675-24.675-24.675 24.675-24.675zm-103 8.65 2.731-28.421 4.902-4.902 24.676 24.676-24.675 24.668-8.368-8.367zm-2.593 26.987 3.355 3.355c1.835 1.836 4.275 2.848 6.871 2.848 2.594 0 5.033-1.011 6.867-2.845l28.481-28.473 28.476 28.476c1.893 1.894 4.381 2.84 6.868 2.84 2.488 0 4.975-.946 6.869-2.84l28.476-28.476 28.476 28.476c1.894 1.894 4.381 2.84 6.868 2.84 2.488 0 4.975-.946 6.869-2.84l28.476-28.476 28.476 28.476c1.893 1.894 4.381 2.84 6.868 2.84 2.488 0 4.975-.946 6.869-2.84l28.476-28.476 28.48 28.473c1.894 1.894 4.381 2.84 6.869 2.84 2.487 0 4.974-.946 6.868-2.84l3.357-3.357 3.66 38.089h-310.535zm-5.1 53.075h313.414l1.927 20.058h-317.268zm-10.219 106.352 6.852-71.31h320.148l6.852 71.31z"/><path d="m362.108 215.091c4.138 0 7.492-3.354 7.492-7.492s-3.354-7.492-7.492-7.492-7.492 3.354-7.492 7.492 3.355 7.492 7.492 7.492z"/><path d="m362.108 280.597c-4.138 0-7.492 3.354-7.492 7.492s3.354 7.492 7.492 7.492 7.492-3.354 7.492-7.492-3.354-7.492-7.492-7.492z"/><circle cx="291.851" cy="207.599" r="7.492"/><path d="m291.851 280.597c-4.138 0-7.492 3.354-7.492 7.492s3.354 7.492 7.492 7.492 7.492-3.354 7.492-7.492-3.354-7.492-7.492-7.492z"/><path d="m220.712 215.091c4.138 0 7.492-3.354 7.492-7.492s-3.354-7.492-7.492-7.492-7.492 3.354-7.492 7.492 3.354 7.492 7.492 7.492z"/><path d="m220.712 280.597c-4.138 0-7.492 3.354-7.492 7.492s3.354 7.492 7.492 7.492 7.492-3.354 7.492-7.492-3.354-7.492-7.492-7.492z"/><path d="m149.892 215.091c4.138 0 7.492-3.354 7.492-7.492s-3.354-7.492-7.492-7.492-7.492 3.354-7.492 7.492 3.354 7.492 7.492 7.492z"/><path d="m149.892 280.597c-4.138 0-7.492 3.354-7.492 7.492s3.354 7.492 7.492 7.492 7.492-3.354 7.492-7.492-3.354-7.492-7.492-7.492z"/></g></g></svg>