<svg id="Capa_1" enable-background="new 0 0 512 512" height="512" viewBox="0 0 512 512" width="512" xmlns="http://www.w3.org/2000/svg"><g><g><g fill="#ea9b58"><path d="m205.162 386.237-83.313 94.275h52.356l65.605-74.238z"/><path d="m273.705 407.989 64.09 72.523h52.355l-81.757-92.515z"/></g><g><g><path d="m205.162 386.237-83.313 94.275h20.838l76.266-86.3z" fill="#c57a44"/></g><path d="m273.705 407.989 64.09 72.523h20.838l-71.122-80.48z" fill="#c57a44"/></g><g><path d="m257.991 347.382 198.209-114.434-10.805-23.172c-1.2-2.573-4.346-3.565-6.804-2.145l-148.747 85.879c-18.341 10.59-30.263 29.631-31.969 50.545h-.422c-1.706-20.914-13.629-39.955-31.969-50.545l-148.749-85.88c-2.458-1.419-5.605-.427-6.804 2.145l-10.666 22.873z" fill="#fef1da"/></g><g><path d="m88.262 248.235 12.473-26.749-24-13.856c-2.458-1.419-5.605-.427-6.804 2.145l-10.242 21.963c6.729 3.885 16.666 9.622 28.573 16.497z" fill="#fae2c0"/></g><path d="m255.531 372.418c1.66.959 3.706.959 5.366 0l215.969-124.689-7.932-17.011c-1.24-2.658-4.491-3.683-7.031-2.217l-203.912 117.727s-207.758-119.949-207.758-119.949c-2.519-1.454-5.744-.459-7.005 2.162l-8.06 16.75z" fill="#80d261"/><g><path d="m67.557 263.891 8.168-16.976c1.024-2.128 3.342-3.184 5.526-2.728-18.671-10.78-31.018-17.908-31.018-17.908-2.519-1.455-5.744-.459-7.005 2.162l-8.06 16.751z" fill="#4fc123"/></g><g><path d="m485.115 242.965-224.218 129.453c-1.66.959-3.706.959-5.366 0l-233.504-134.814-.642.312-13.364 28.66c-1.175 2.52-.23 5.521 2.177 6.913l245.334 141.877c1.659.96 3.705.961 5.366.004l240.897-138.839c2.412-1.39 3.36-4.394 2.184-6.917l-11.317-24.269c-1.331-2.853-4.82-3.954-7.547-2.38z" fill="#d8aa5e"/></g><g><g><path d="m37.696 268.619c-2.407-1.392-3.352-4.393-2.177-6.913l5.993-12.852-19.485-11.249-.642.312-13.364 28.659c-1.175 2.52-.23 5.521 2.177 6.913l245.334 141.877c1.659.96 3.705.961 5.366.004l15.306-8.821z" fill="#c99c56"/></g></g></g><g><g><path d="m402.989 31.488h-293.979c-2.761 0-5 2.238-5 5v137.99c0 2.761 2.238 5 5 5h169.212c1.786 0 3.437.953 4.33 2.5l19.115 33.107c1.924 3.333 6.735 3.333 8.66 0l19.115-33.107c.893-1.547 2.544-2.5 4.33-2.5h69.219c2.761 0 5-2.238 5-5v-137.99c-.002-2.762-2.241-5-5.002-5z" fill="#fed402"/></g><g><g><path d="m144.008 174.478v-137.99c0-2.761 2.238-5 5-5h-39.998c-2.761 0-5 2.238-5 5v137.99c0 2.761 2.238 5 5 5h39.997c-2.761-.001-4.999-2.239-4.999-5z" fill="#fac600"/></g></g></g><g><path d="m510.775 266.444-11.316-24.268c-1.52-3.26-4.36-5.751-7.792-6.833-3.43-1.083-7.187-.671-10.302 1.128l-1.162.671-4.473-9.593c-1.477-3.168-4.236-5.587-7.57-6.639-2.981-.94-6.209-.712-9.022.594l-6.946-14.896c-1.457-3.128-4.18-5.516-7.471-6.554-3.291-1.037-6.892-.642-9.88 1.082l-148.747 85.879c-12.422 7.172-22.223 17.781-28.431 30.287-6.208-12.506-16.01-23.115-28.431-30.287l-148.747-85.88c-2.988-1.724-6.589-2.119-9.88-1.082-3.291 1.038-6.014 3.427-7.47 6.552l-6.783 14.546-2.368-1.367c-3.004-1.733-6.627-2.141-9.936-1.119-3.313 1.022-6.075 3.401-7.578 6.524l-4.554 9.465-6.139-3.545c-2.156-1.244-4.789-1.338-7.03-.25l-.643.313c-1.548.753-2.79 2.016-3.516 3.575l-13.363 28.657c-2.84 6.086-.596 13.213 5.219 16.576l187.028 108.16-75.004 84.873h-86.768c-4.142 0-7.499 3.357-7.499 7.499s3.357 7.499 7.499 7.499h448.599c4.142 0 7.499-3.357 7.499-7.499s-3.357-7.499-7.499-7.499h-86.768l-27.083-30.647c-2.744-3.103-7.482-3.397-10.586-.653-3.103 2.743-3.396 7.482-.653 10.586l18.306 20.714h-32.34l-55.771-63.11 21.426-12.349 25.203 28.519c2.742 3.101 7.482 3.395 10.586.653 3.103-2.743 3.396-7.482.653-10.586l-23.18-26.23 185.447-106.881c5.827-3.358 8.079-10.488 5.236-16.585zm-217.182 33.559 146.232-84.427 6.25 13.402-178.12 102.837c4.276-13.277 13.307-24.692 25.638-31.812zm-244.775-65.882 96.262 55.577c3.588 2.069 8.173.842 10.244-2.745s.842-8.173-2.745-10.244l-83.188-48.029 6.11-13.103 146.232 84.427c12.192 7.04 21.175 18.274 25.512 31.361l-64.354-37.156c-3.589-2.07-8.174-.843-10.244 2.745-2.071 3.587-.842 8.173 2.745 10.244l78.85 45.525c2.32 1.34 5.179 1.34 7.499 0l201.548-116.364 3.875 8.31-208.951 120.638-213.271-123.132zm89.667 238.892 68.234-77.212 21.401 12.377-57.296 64.836h-32.339zm182.674 0h-130.318l50.526-57.175 10.413 6.022c1.986 1.147 4.212 1.72 6.438 1.72 2.222 0 4.443-.571 6.424-1.713l7.499-4.322zm-62.939-64.756-242.576-140.283 9.33-20.009 226.806 130.947c3.968 2.292 8.899 2.292 12.866.001l222.202-128.289 9.506 20.386z"/><path d="m109.01 186.977h167.768l18.393 31.858c2.26 3.913 6.306 6.249 10.824 6.249s8.565-2.336 10.824-6.25l18.393-31.857h67.775c6.892 0 12.499-5.607 12.499-12.499v-42.888c0-4.142-3.357-7.5-7.499-7.5s-7.5 3.357-7.5 7.5v40.388h-66.719c-4.453 0-8.601 2.395-10.824 6.25l-16.95 29.357-16.949-29.355c-2.224-3.856-6.373-6.251-10.825-6.251h-166.71v-132.991h288.98v57.605c0 4.142 3.357 7.5 7.5 7.5 4.142 0 7.499-3.357 7.499-7.5v-60.105c0-6.892-5.607-12.499-12.499-12.499h-293.98c-6.892 0-12.499 5.607-12.499 12.499v137.99c0 6.892 5.607 12.499 12.499 12.499z"/><path d="m369.992 58.986h-227.984c-4.142 0-7.499 3.357-7.499 7.5s3.357 7.5 7.499 7.5h227.984c4.142 0 7.499-3.357 7.499-7.5s-3.357-7.5-7.499-7.5z"/><path d="m369.992 84.984h-227.984c-4.142 0-7.499 3.357-7.499 7.499s3.357 7.499 7.499 7.499h227.984c4.142 0 7.499-3.357 7.499-7.499s-3.357-7.499-7.499-7.499z"/><path d="m377.491 118.482c0-4.142-3.357-7.5-7.499-7.5h-227.984c-4.142 0-7.499 3.357-7.499 7.5s3.357 7.5 7.499 7.5h227.984c4.142 0 7.499-3.358 7.499-7.5z"/><path d="m142.008 136.981c-4.142 0-7.499 3.357-7.499 7.5 0 4.142 3.357 7.499 7.499 7.499h97.993c4.142 0 7.499-3.357 7.499-7.499s-3.357-7.5-7.499-7.5z"/></g></g></svg>