<svg id="Capa_1" enable-background="new 0 0 512 512" height="512" viewBox="0 0 512 512" width="512" xmlns="http://www.w3.org/2000/svg"><g><g><path d="m256 7.495c-107.577 0-194.786 87.209-194.786 194.786 0 25.351 4.932 50.634 14.582 74.082 24.547 59.649 82.985 94.245 122.049 143.797 18.737 23.768 39.133 50.431 50.499 79.137 2.748 6.942 12.563 6.942 15.312 0 11.366-28.707 31.762-55.37 50.499-79.137 39.064-49.552 97.502-84.148 122.049-143.797 9.649-23.448 14.582-48.732 14.582-74.082 0-107.577-87.208-194.786-194.786-194.786z" fill="#fee97d"/></g><g><path d="m450.79 202.28c0 25.356-4.937 50.631-14.582 74.088-24.546 59.646-82.993 94.237-122.051 143.789-18.739 23.767-39.138 50.431-50.501 79.145-2.748 6.936-12.563 6.936-15.311 0-.88-2.229-1.819-4.447-2.808-6.646.12-.22.22-.46.32-.71 11.374-28.704 31.762-55.369 50.501-79.135 39.068-49.552 97.505-84.153 122.051-143.799 9.645-23.447 14.582-48.732 14.582-74.078 0-77.846-45.664-145.028-111.677-176.21 75.457 26.845 129.476 98.884 129.476 183.556z" fill="#fed402"/></g><g><circle cx="256" cy="200.771" fill="#f9f3f1" r="145.05"/></g><g><path d="m401.049 200.771c0 80.105-64.943 145.048-145.048 145.048-16.79 0-32.921-2.858-47.923-8.105 8.745 1.649 17.76 2.509 26.985 2.509 80.105 0 145.048-64.933 145.048-145.048 0-63.314-40.577-117.154-97.135-136.943 67.221 12.642 118.073 71.649 118.073 142.539z" fill="#efe2dd"/></g><g><path d="m334.288 217.077 14.296-14.296c1.11-1.11 1.11-2.909 0-4.019l-14.296-14.296c-.533-.533-.832-1.256-.832-2.01v-56.297c0-1.57-1.272-2.842-2.842-2.842h-56.297c-.754 0-1.477-.299-2.01-.832l-14.296-14.296c-1.11-1.11-2.909-1.11-4.019 0l-14.296 14.296c-.533.533-1.256.832-2.01.832h-56.297c-1.57 0-2.842 1.272-2.842 2.842v56.297c0 .754-.299 1.477-.832 2.01l-14.296 14.296c-1.11 1.11-1.11 2.909 0 4.019l14.296 14.296c.533.533.832 1.256.832 2.01v56.297c0 1.57 1.272 2.842 2.842 2.842h56.297c.754 0 1.477.299 2.01.832l14.296 14.296c1.11 1.11 2.909 1.11 4.019 0l14.296-14.296c.533-.533 1.256-.832 2.01-.832h56.297c1.57 0 2.842-1.272 2.842-2.842v-56.297c-.001-.754.299-1.477.832-2.01z" fill="#ade194"/></g><g><path d="m253.832 278.227h20.488c-.76 0-1.479.3-2.019.83l-14.292 14.302c-1.109 1.109-2.908 1.109-4.018 0l-8.235-8.235 6.067-6.067c.53-.53 1.259-.83 2.009-.83z" fill="#97da7b"/></g><g><path d="m272.301 122.485c.54.53 1.259.83 2.019.83h-20.488c-.75 0-1.479-.3-2.009-.83l-6.067-6.066 8.235-8.235c1.109-1.109 2.908-1.109 4.018 0z" fill="#97da7b"/></g><g><path d="m348.588 202.78-14.302 14.302c-.53.53-.83 1.249-.83 2.009v56.298c0 1.569-1.269 2.838-2.848 2.838h-20.478c1.569 0 2.838-1.269 2.838-2.838v-56.298c0-.76.3-1.479.84-2.009l14.292-14.302c1.109-1.109 1.109-2.908 0-4.018l-14.292-14.292c-.54-.54-.84-1.259-.84-2.019v-56.288c0-1.569-1.269-2.848-2.838-2.848h20.478c1.579 0 2.848 1.279 2.848 2.848v56.288c0 .76.3 1.479.83 2.019l14.302 14.292c1.11 1.11 1.11 2.909 0 4.018z" fill="#97da7b"/></g><g><circle cx="256" cy="200.771" fill="#fff5c6" r="50.11"/></g><g><path d="m306.112 200.771c0 27.674-22.437 50.112-50.112 50.112-12.263 0-23.497-4.408-32.202-11.723 3.438.75 7.006 1.139 10.664 1.139 27.674 0 50.112-22.437 50.112-50.112 0-15.411-6.956-29.204-17.91-38.388 22.558 4.887 39.448 24.956 39.448 48.972z" fill="#fef0ae"/></g><g><path d="m256 0c-111.538 0-202.282 90.743-202.282 202.281 0 26.629 5.096 52.513 15.147 76.935 16.116 39.162 46.275 67.917 75.442 95.724 16.518 15.75 33.599 32.035 47.652 49.86 19.933 25.285 38.712 50.22 49.417 77.256 2.391 6.042 8.131 9.944 14.624 9.944s12.233-3.902 14.625-9.943c10.703-27.035 29.482-51.971 49.416-77.256 6.518-8.266 13.932-16.578 23.333-26.157 2.9-2.954 2.856-7.7-.1-10.599-2.952-2.9-7.7-2.857-10.599.099-9.791 9.975-17.545 18.673-24.406 27.375-20.649 26.194-40.133 52.101-51.582 81.02-.074.186-.185.469-.686.469s-.612-.283-.686-.469c-11.451-28.921-30.934-54.827-51.583-81.02-14.711-18.66-32.183-35.319-49.08-51.429-29.323-27.957-57.02-54.365-71.923-90.58-9.171-22.284-14.019-46.915-14.019-71.229 0-103.271 84.018-187.29 187.29-187.29s187.29 84.018 187.29 187.29c0 24.316-4.847 48.947-14.018 71.229-14.902 36.213-43.793 63.759-71.733 90.399-2.996 2.857-3.109 7.601-.252 10.598 2.857 2.996 7.602 3.11 10.597.252 29.073-27.72 59.136-56.384 75.25-95.543 10.05-24.42 15.146-50.305 15.146-76.935.002-111.538-90.741-202.281-202.28-202.281z"/><path d="m408.546 200.771c0-84.114-68.432-152.546-152.546-152.546s-152.546 68.432-152.546 152.546 68.432 152.546 152.546 152.546 152.546-68.432 152.546-152.546zm-152.546 137.555c-75.848 0-137.554-61.706-137.554-137.554s61.707-137.554 137.554-137.554 137.554 61.706 137.554 137.554c.001 75.847-61.706 137.554-137.554 137.554z"/><path d="m353.884 193.461-12.933-12.932v-54.371c0-5.7-4.637-10.337-10.337-10.337h-54.371l-12.932-12.934c-1.953-1.952-4.549-3.028-7.31-3.028s-5.357 1.076-7.31 3.029l-12.932 12.933h-54.371c-5.7 0-10.338 4.637-10.338 10.337v54.372l-12.933 12.931c-1.952 1.953-3.028 4.549-3.028 7.31s1.076 5.357 3.029 7.31l12.932 12.931v54.372c0 5.7 4.638 10.338 10.338 10.338h54.372l12.931 12.933c1.953 1.952 4.549 3.028 7.31 3.028s5.357-1.075 7.31-3.029l12.931-12.932h54.372c5.7 0 10.337-4.638 10.337-10.338v-54.371l12.934-12.932c1.952-1.953 3.028-4.549 3.028-7.31-.001-2.761-1.076-5.357-3.029-7.31zm-24.896 18.315c-.002.002-.004.004-.006.005-1.949 1.953-3.023 4.548-3.023 7.305v51.645h-51.644c-2.762 0-5.358 1.075-7.311 3.028l-11.004 11.005-11.009-11.011c-1.953-1.948-4.547-3.022-7.306-3.022h-51.645v-51.645c0-2.758-1.074-5.352-3.028-7.31l-11.006-11.004 11.007-11.005c1.952-1.952 3.027-4.548 3.027-7.31v-51.644h51.645c2.757 0 5.353-1.074 7.311-3.029l11.004-11.005 11.004 11.006c1.953 1.952 4.549 3.028 7.311 3.028h51.644v51.644c0 2.761 1.076 5.357 3.029 7.31l11.006 11.005z"/><path d="m256 143.165c-9.057 0-17.731 2.045-25.779 6.079-3.701 1.854-5.197 6.359-3.343 10.06 1.855 3.701 6.359 5.198 10.06 3.343 5.945-2.979 12.358-4.49 19.063-4.49 23.498 0 42.615 19.117 42.615 42.615 0 23.497-19.117 42.615-42.615 42.615s-42.615-19.117-42.615-42.615c0-6.29 1.336-12.342 3.97-17.991 1.75-3.751.127-8.211-3.625-9.961-3.75-1.749-8.211-.127-9.961 3.625-3.567 7.647-5.376 15.832-5.376 24.327 0 31.764 25.842 57.606 57.606 57.606s57.606-25.842 57.606-57.606c.001-31.765-25.841-57.607-57.606-57.607z"/></g></g></svg>