<svg id="Capa_1" enable-background="new 0 0 512 512" height="512" viewBox="0 0 512 512" width="512" xmlns="http://www.w3.org/2000/svg"><g><g><g fill="#c57a44"><path d="m136.671 357.894c3.795-3.795 6.268-8.71 7.054-14.018l4.096-90.96c.786-5.308 3.26-10.223 7.054-14.018l45.771-45.771c9.801-14.786 9.025-26.58 5.999-34.5-2.454-6.42-10.701-8.188-15.561-3.328l-59.904 59.904c-3.795 3.795-6.268 8.709-7.054 14.018l-4.096 90.96c-.786 5.309-3.259 10.223-7.054 14.018l-47.516 47.515c-1.628 1.628-1.628 4.266 0 5.894l20.749 20.749z"/><path d="m341.475 160.888c6.664 6.664 6.664 17.467 0 24.131l-84.829 84.829 9.629 9.629 104.637-104.637c.771-.771 1.601-1.442 2.47-2.034 4.53-6.642 3.859-15.768-2.034-21.661-6.664-6.664-17.468-6.664-24.131 0l-7.922 7.922c.761.543 1.497 1.138 2.18 1.821z"/><path d="m213.425 229.951-16.977 16.976.239 34.618 120.656-120.656c.771-.771 1.602-1.442 2.47-2.035 4.53-6.642 3.858-15.768-2.035-21.661-6.664-6.664-17.468-6.664-24.131 0l-61.771 61.771c-1.475 8.661-6.564 19.1-18.451 30.987z"/></g><g><g><g><g><g><path d="m259.66 9.096c4.277 12.556 9.188 17.468 21.745 21.745 2.127.725 2.127 3.748 0 4.472-12.556 4.277-17.468 9.188-21.745 21.745-.725 2.127-3.748 2.127-4.472 0-4.277-12.557-9.188-17.468-21.745-21.745-2.127-.725-2.127-3.748 0-4.472 12.557-4.277 17.468-9.188 21.745-21.745.724-2.128 3.747-2.128 4.472 0z" fill="#fed402"/></g></g></g><g><g><g><g><path d="m245.079 25.102c-2.992 2.287-6.723 4.065-11.636 5.738-2.127.725-2.127 3.748 0 4.472 12.557 4.277 17.468 9.188 21.745 21.745.724 2.127 3.747 2.127 4.472 0 1.687-4.953 3.481-8.704 5.796-11.708-4.073-11.374-8.925-16.183-20.377-20.247z" fill="#fac600"/></g></g></g></g><g><g><g><path d="m335.291 43.526c5.248 15.408 11.275 21.435 26.682 26.682 2.61.889 2.61 4.599 0 5.488-15.408 5.248-21.435 11.275-26.682 26.682-.889 2.61-4.598 2.61-5.488 0-5.248-15.408-11.275-21.435-26.682-26.682-2.61-.889-2.61-4.599 0-5.488 15.408-5.248 21.435-11.275 26.682-26.682.89-2.61 4.599-2.61 5.488 0z" fill="#fed402"/></g></g></g><g><g><g><g><path d="m314.908 64.9c-3.212 2.008-7.054 3.697-11.787 5.309-2.61.889-2.61 4.599 0 5.488 15.408 5.248 21.434 11.275 26.682 26.682.889 2.611 4.599 2.611 5.488 0 1.627-4.776 3.329-8.647 5.362-11.876-5.104-14.549-11.107-20.508-25.745-25.603z" fill="#fac600"/></g></g></g></g><g><g><g><path d="m248.018 88.169c4.046 11.88 8.693 16.527 20.573 20.573 2.013.686 2.013 3.546 0 4.231-11.88 4.046-16.527 8.693-20.573 20.573-.686 2.013-3.546 2.013-4.231 0-4.046-11.88-8.693-16.527-20.573-20.573-2.013-.686-2.013-3.546 0-4.231 11.88-4.046 16.527-8.693 20.573-20.573.686-2.013 3.546-2.013 4.231 0z" fill="#fed402"/></g></g></g><g><g><g><g><path d="m235.343 102.407c-3.005 2.617-6.85 4.537-12.129 6.335-2.013.686-2.013 3.546 0 4.231 11.88 4.046 16.527 8.693 20.573 20.573.685 2.013 3.546 2.013 4.231 0 1.705-5.007 3.525-8.72 5.941-11.654-3.797-10.929-8.204-15.628-18.616-19.485z" fill="#fac600"/></g></g></g></g></g></g><g><path d="m442.757 262.17c-6.664-6.664-17.467-6.664-24.131 0l-84.829 84.829-9.63-9.629 104.637-104.637c6.664-6.664 6.664-17.467 0-24.131s-17.468-6.664-24.131 0l-104.637 104.636-9.629-9.629 104.637-104.637c6.664-6.664 6.664-17.468 0-24.131-6.664-6.664-17.467-6.664-24.131 0l-104.637 104.637-9.629-9.629 84.829-84.829c6.664-6.664 6.664-17.468 0-24.131-6.664-6.664-17.468-6.664-24.131 0l-120.657 120.656-.239-34.618 16.976-16.976c16.538-16.538 19.918-30.274 18.717-40.32l.001-.001c-.324-2.712-.98-5.157-1.804-7.313-2.454-6.418-10.701-8.183-15.559-3.324l-59.904 59.904c-3.795 3.795-6.268 8.71-7.054 14.018l-4.096 90.96c-.786 5.309-3.26 10.224-7.054 14.018l-50.463 50.463 94.923 94.923c1.627 1.628 4.266 1.628 5.894 0l50.423-50.423c1.944-1.944 4.196-3.554 6.664-4.766l59.177-28.583c8.177-3.95 15.631-9.248 22.049-15.672l117.417-117.533c6.664-6.665 6.664-17.468.001-24.132z" fill="#ea9b58"/></g><g><g><g><path d="m117.156 411.303c-1.627-1.628-1.627-4.266 0-5.894l47.516-47.516c3.795-3.795 6.268-8.71 7.054-14.018l4.096-90.96c.786-5.308 3.26-10.223 7.054-14.018l49.267-49.267c-.324-2.712-.98-5.157-1.804-7.313-2.454-6.418-10.701-8.183-15.559-3.324l-59.904 59.904c-3.795 3.795-6.268 8.71-7.054 14.018l-4.096 90.96c-.786 5.309-3.259 10.223-7.054 14.018l-50.463 50.463 94.923 94.923c1.627 1.628 4.266 1.628 5.894 0l11.053-11.053z" fill="#d88a55"/></g></g></g></g><g><path d="m300.704 82.796c13.19 4.493 17.509 8.811 22.001 22.003 1.435 4.209 5.39 7.038 9.843 7.038s8.408-2.829 9.844-7.04c4.491-13.19 8.81-17.508 21.999-22.001 4.211-1.434 7.041-5.39 7.041-9.844 0-4.453-2.83-8.409-7.04-9.843-13.19-4.493-17.509-8.811-22-22.001 0 0 0-.001-.001-.002-1.435-4.209-5.39-7.038-9.843-7.038s-8.408 2.829-9.844 7.04c-4.491 13.19-8.81 17.508-21.998 22-4.213 1.434-7.043 5.39-7.043 9.844 0 4.455 2.83 8.411 7.041 9.844zm31.844-26.435c3.974 7.57 9.02 12.617 16.592 16.591-7.572 3.975-12.618 9.021-16.592 16.592-3.974-7.572-9.019-12.616-16.592-16.591 7.572-3.974 12.618-9.02 16.592-16.592z"/><path d="m231.025 42.412c10.349 3.524 13.538 6.714 17.063 17.064 1.36 3.993 5.112 6.676 9.335 6.676 4.224 0 7.976-2.683 9.336-6.677 3.524-10.35 6.714-13.539 17.064-17.063 3.993-1.36 6.676-5.112 6.676-9.336s-2.683-7.976-6.677-9.336c-10.35-3.524-13.539-6.714-17.063-17.063-1.36-3.993-5.112-6.677-9.335-6.677s-7.975 2.684-9.335 6.678c-3.525 10.349-6.715 13.538-17.064 17.063-3.993 1.36-6.676 5.112-6.676 9.336s2.682 7.975 6.676 9.335zm26.399-20.08c2.776 4.555 6.189 7.968 10.745 10.744-4.556 2.776-7.969 6.189-10.745 10.745-2.776-4.556-6.189-7.969-10.744-10.745 4.554-2.776 7.967-6.188 10.744-10.744z"/><path d="m220.797 120.072c9.638 3.283 12.608 6.254 15.891 15.892 1.343 3.942 5.046 6.592 9.215 6.592 4.17 0 7.873-2.649 9.216-6.592 3.282-9.638 6.253-12.608 15.892-15.892 3.942-1.343 6.592-5.046 6.592-9.215s-2.649-7.872-6.592-9.215c-9.639-3.283-12.609-6.254-15.892-15.892-1.343-3.942-5.046-6.592-9.216-6.592-4.169 0-7.872 2.649-9.215 6.592-3.282 9.638-6.253 12.608-15.891 15.892-3.942 1.343-6.592 5.046-6.592 9.215s2.649 7.872 6.592 9.215zm25.106-18.606c2.478 3.906 5.485 6.913 9.392 9.392-3.906 2.479-6.914 5.486-9.392 9.392-2.479-3.906-5.485-6.913-9.392-9.392 3.907-2.479 6.914-5.486 9.392-9.392z"/><path d="m448.06 256.866c-7.563-7.563-18.874-9.152-28.014-4.77l14.062-14.062c9.576-9.577 9.576-25.16 0-34.737-8.163-8.161-20.688-9.369-30.138-3.618 2.327-3.81 3.571-8.196 3.571-12.773 0-6.562-2.556-12.729-7.194-17.369-4.581-4.58-10.535-6.944-16.549-7.143-.193-6.015-2.565-11.97-7.146-16.552-4.64-4.64-10.809-7.194-17.369-7.194-6.562 0-12.729 2.556-17.368 7.194l-4.043 4.042c-2.424-.888-4.999-1.371-7.642-1.458-.197-6.01-2.569-11.959-7.147-16.538-9.576-9.576-25.16-9.576-34.738 0l-50.172 50.172c-.251-.816-.523-1.626-.828-2.423-2.064-5.399-6.671-9.343-12.322-10.548-3-.641-6.042-.448-8.849.477-.014-5.287-1.089-9.87-2.522-13.618-2.064-5.402-6.672-9.348-12.325-10.554-5.643-1.208-11.458.514-15.545 4.599l-24.021 24.021c-2.929 2.93-2.929 7.678 0 10.607 2.93 2.928 7.678 2.928 10.607 0l24.021-24.021c.627-.629 1.327-.639 1.808-.536.482.103 1.124.401 1.443 1.238 3.131 8.191 1.492 17.276-4.841 27.063l-45.227 45.227c-4.897 4.898-8.154 11.37-9.169 18.224-.037.252-.062.507-.073.761l-4.078 90.543c-.602 3.563-2.328 6.914-4.884 9.47l-45.16 45.16-13.088-13.089 45.159-45.159c4.898-4.899 8.155-11.371 9.17-18.224.037-.252.062-.507.073-.762l4.077-90.542c.603-3.563 2.329-6.915 4.885-9.47l11.135-11.135c2.929-2.93 2.929-7.678 0-10.607-2.93-2.928-7.678-2.928-10.607 0l-11.135 11.135c-4.896 4.897-8.153 11.368-9.17 18.221-.037.253-.062.508-.073.764l-4.077 90.543c-.602 3.563-2.328 6.914-4.885 9.47l-47.517 47.518c-4.547 4.55-4.546 11.951.001 16.499l115.671 115.67c2.203 2.205 5.134 3.419 8.252 3.419 3.117 0 6.048-1.214 8.25-3.417l17.751-17.751c2.929-2.93 2.929-7.678 0-10.607-2.93-2.928-7.678-2.928-10.607 0l-15.394 15.395-87.264-87.263 45.16-45.16c4.898-4.899 8.154-11.371 9.169-18.223.037-.252.062-.507.073-.761l4.078-90.543c.602-3.563 2.328-6.915 4.884-9.47l59.903-59.904c.628-.629 1.329-.64 1.811-.536.48.103 1.122.4 1.44 1.234.678 1.772 1.136 3.632 1.361 5.527 1.227 10.256-4.504 22.057-16.572 34.126l-16.977 16.976c-1.42 1.42-2.211 3.349-2.197 5.355l.239 34.618c.021 3.024 1.856 5.739 4.654 6.888 2.798 1.146 6.012.5 8.149-1.636l120.656-120.657c1.806-1.806 4.207-2.801 6.762-2.801 2.554 0 4.956.995 6.762 2.802 3.729 3.728 3.729 9.795 0 13.523l-84.829 84.828c-1.406 1.407-2.196 3.314-2.196 5.304s.79 3.896 2.196 5.304l9.63 9.63c2.93 2.928 7.678 2.928 10.607 0l104.637-104.637c3.729-3.73 9.796-3.729 13.524 0 1.806 1.806 2.801 4.207 2.801 6.762s-.995 4.956-2.802 6.762l-104.635 104.636c-2.929 2.93-2.929 7.678 0 10.606l9.629 9.63c1.406 1.407 3.314 2.197 5.304 2.197s3.896-.79 5.304-2.196l104.637-104.637c3.729-3.729 9.796-3.73 13.524 0 3.729 3.728 3.729 9.795 0 13.523l-104.638 104.637c-1.406 1.407-2.196 3.314-2.196 5.304s.79 3.897 2.197 5.304l9.63 9.629c2.928 2.928 7.677 2.928 10.606 0l84.829-84.828c3.729-3.729 9.795-3.729 13.523 0 1.807 1.806 2.802 4.208 2.802 6.762 0 2.555-.995 4.956-2.804 6.765l-20.594 20.614c-2.928 2.931-2.926 7.68.005 10.606 2.933 2.928 7.682 2.925 10.606-.005l20.591-20.611c4.64-4.64 7.195-10.808 7.195-17.369.002-6.561-2.553-12.73-7.193-17.37zm-133.864-103.192c-.748.593-1.47 1.226-2.155 1.911l-107.977 107.978-.094-13.551 14.759-14.758c10.924-10.924 17.626-21.843 20.073-32.609l60.148-60.148c3.729-3.729 9.797-3.729 13.525.001 3.022 3.018 3.594 7.573 1.721 11.176zm53.559 13.972c-.74.586-1.462 1.207-2.146 1.891l-14.061 14.062c3.728-7.773 3.119-17.109-1.795-24.383l2.768-2.768c1.806-1.806 4.207-2.801 6.762-2.801 2.554 0 4.956.995 6.762 2.802 3.026 3.025 3.595 7.591 1.71 11.197z"/><path d="m392.121 326.375-72.088 72.158c-5.837 5.843-12.567 10.627-20.005 14.22l-59.222 28.604c-3.213 1.578-6.127 3.662-8.662 6.195l-7.923 7.923c-2.929 2.93-2.929 7.678 0 10.607 1.465 1.464 3.385 2.196 5.304 2.196s3.839-.732 5.304-2.196l7.921-7.922c1.366-1.365 2.937-2.489 4.624-3.317l59.179-28.584c8.958-4.327 17.063-10.089 24.092-17.125l72.088-72.158c2.928-2.931 2.926-7.679-.005-10.606-2.93-2.928-7.679-2.925-10.607.005z"/></g></g></svg>