<svg id="Capa_1" enable-background="new 0 0 512 512" height="512" viewBox="0 0 512 512" width="512" xmlns="http://www.w3.org/2000/svg"><g><g><g><g><path d="m394.94 214.072c-7.089 6.742-7.78 17.809-1.584 25.38l13.441 17.973h-107.373c-11.627 0-18.888 7.261-18.888 16.219v.277c0 8.957 7.261 16.219 16.219 16.219h-15.157c-8.957 0-16.219 7.261-16.219 16.219 0 8.957 7.261 16.219 16.219 16.219h26.928c-8.957 0-16.219 7.261-16.219 16.219 0 8.957 7.261 16.219 16.219 16.219h19.052 20.007c-8.957 0-16.219 7.261-16.219 16.219 0 8.957 7.261 16.219 16.219 16.219h85.608c6.864 0 13.553-2.166 19.113-6.19l17.679-12.795c5.561-4.024 12.249-6.191 19.113-6.191h15.409v-93.741h-18.001c-8.891 0-17.397-3.631-23.546-10.053l-41.642-43.794c-7.122-7.438-18.917-7.714-26.378-.618z" fill="#f6a96c"/></g><g><path d="m299.424 257.422h107.375l-.001.586c-.009 9.198-7.468 16.649-16.666 16.649h-90.709c-7.635 0-13.391 3.137-16.442 7.833-1.551-2.49-2.447-5.429-2.447-8.566v-.276c.001-8.962 7.266-16.226 18.89-16.226z" fill="#ea9b58"/></g><g><path d="m282.001 290.142h116.87c0 9.204-7.461 16.666-16.666 16.666h-100.61c-5.911 0-11.082 3.163-13.908 7.885-1.568-2.611-2.426-5.696-2.297-8.98.344-8.77 7.836-15.571 16.611-15.571z" fill="#ea9b58"/></g><g><path d="m475.991 323.022v42.014c-2.111.913-4.121 2.064-6.009 3.431l-17.674 12.793c-5.564 4.029-12.248 6.193-19.117 6.193h-85.604c-4.482 0-8.534-1.811-11.473-4.751-2.939-2.932-4.75-6.991-4.75-11.466 0-8.964 7.26-16.224 16.224-16.224h-39.063c-4.482 0-8.534-1.819-11.466-4.751s-4.751-6.984-4.751-11.466c0-8.956 7.26-16.216 16.216-16.216h-26.922c-8.864 0-16.063-7.107-16.216-15.932h103.708l-13.438-17.974c-6.201-7.575-5.51-18.641 1.581-25.38 7.46-7.099 19.255-6.823 26.377.614l41.642 43.798c6.155 6.424 14.658 10.054 23.546 10.054h21.93c2.903.002 5.259 2.357 5.259 5.263z" fill="#d88a55"/></g><g><path d="m421.319 214.689 41.639 43.793c6.153 6.42 14.658 10.056 23.551 10.056h18v18.105h-24.851c-8.893 0-17.398-3.636-23.551-10.056l-41.639-43.793c-6.704-7.006-17.553-7.652-25.025-1.775-1.112-6.023.767-12.452 5.498-16.95 7.463-7.093 19.252-6.817 26.378.62z" fill="#ea9b58"/></g></g><g><g><path d="m357.237 279.133c-7.089 6.742-7.78 17.809-1.584 25.38l13.441 17.973h-107.373c-11.627 0-18.888 7.261-18.888 16.219v.277c0 8.957 7.261 16.219 16.219 16.219h-15.157c-8.957 0-16.219 7.261-16.219 16.219 0 8.957 7.261 16.219 16.219 16.219h26.928c-8.957 0-16.219 7.261-16.219 16.219 0 8.957 7.261 16.219 16.219 16.219h19.052 20.007c-8.957 0-16.219 7.261-16.219 16.219 0 8.957 7.261 16.219 16.219 16.219h85.608c6.864 0 13.553-2.166 19.113-6.19l17.679-12.795c5.561-4.024 12.249-6.191 19.113-6.191h24.598v-93.741h-27.189c-8.891 0-17.397-3.631-23.546-10.053l-41.642-43.794c-7.123-7.438-18.918-7.714-26.379-.618z" fill="#f6a96c"/></g><g><path d="m383.616 279.749 41.639 43.793c6.153 6.42 14.658 10.056 23.551 10.056h27.189v18.105h-34.04c-8.893 0-17.398-3.636-23.551-10.056l-41.639-43.793c-6.704-7.006-17.553-7.652-25.025-1.775-1.112-6.023.767-12.452 5.498-16.95 7.464-7.092 19.252-6.816 26.378.62z" fill="#ea9b58"/></g><g><path d="m261.721 322.482h107.375l-.001.586c-.009 9.198-7.468 16.649-16.666 16.649h-90.709c-7.635 0-13.391 3.137-16.442 7.833-1.551-2.49-2.447-5.429-2.447-8.566v-.276c.001-8.961 7.266-16.226 18.89-16.226z" fill="#ea9b58"/></g><g><path d="m244.298 355.202h116.87c0 9.204-7.461 16.666-16.666 16.666h-100.61c-5.911 0-11.082 3.163-13.908 7.885-1.568-2.611-2.426-5.696-2.297-8.98.344-8.769 7.836-15.571 16.611-15.571z" fill="#ea9b58"/></g><g><path d="m271.213 387.638h89.956v.569c0 9.204-7.461 16.666-16.666 16.666h-73.682c-5.791 0-10.866 3.033-13.736 7.6-1.641-2.591-2.554-5.686-2.477-9.004.205-8.87 7.732-15.831 16.605-15.831z" fill="#ea9b58"/></g><g><path d="m309.883 420.073h51.285v.569c0 9.204-7.461 16.666-16.666 16.666h-34.62c-4.481 0-8.54 1.818-11.47 4.748-.862.862-1.62 1.818-2.266 2.852-1.577-2.49-2.482-5.446-2.482-8.617 0-4.472 1.818-8.531 4.748-11.47 2.932-2.93 6.99-4.748 11.471-4.748z" fill="#ea9b58"/></g></g></g><g><g><g><path d="m117.06 64.61c7.089 6.742 7.78 17.809 1.584 25.38l-13.441 17.973h107.373c11.627 0 18.888 7.261 18.888 16.219v.277c0 8.957-7.261 16.219-16.219 16.219h15.157c8.957 0 16.219 7.261 16.219 16.219 0 8.957-7.261 16.219-16.219 16.219h-26.928c8.957 0 16.219 7.261 16.219 16.219 0 8.957-7.261 16.219-16.219 16.219h-19.052-20.007c8.957 0 16.219 7.261 16.219 16.219 0 8.957-7.261 16.219-16.219 16.219h-85.606c-6.864 0-13.553-2.166-19.113-6.191l-17.679-12.795c-5.561-4.024-12.249-6.191-19.113-6.191h-15.41v-93.741h18.001c8.891 0 17.397-3.631 23.546-10.053l41.642-43.794c7.121-7.437 18.916-7.713 26.377-.617z" fill="#f6a96c"/></g><g><path d="m212.576 107.96h-107.375l.001.586c.009 9.198 7.468 16.649 16.666 16.649h90.709c7.635 0 13.391 3.137 16.442 7.833 1.551-2.49 2.447-5.429 2.447-8.566v-.276c-.001-8.962-7.266-16.226-18.89-16.226z" fill="#ea9b58"/></g><g><path d="m229.999 140.68h-116.87c0 9.204 7.461 16.666 16.666 16.666h100.611c5.911 0 11.082 3.163 13.908 7.885 1.568-2.611 2.426-5.696 2.297-8.98-.345-8.769-7.837-15.571-16.612-15.571z" fill="#ea9b58"/></g><g><path d="m36.009 173.56v42.014c2.11.913 4.121 2.064 6.009 3.431l17.674 12.793c5.564 4.029 12.248 6.193 19.117 6.193h85.604c4.482 0 8.534-1.811 11.473-4.751 2.939-2.932 4.75-6.991 4.75-11.466 0-8.964-7.26-16.224-16.224-16.224h39.063c4.482 0 8.534-1.819 11.466-4.751s4.751-6.984 4.751-11.466c0-8.956-7.26-16.216-16.216-16.216h26.922c8.864 0 16.063-7.107 16.216-15.932h-103.706l13.438-17.974c6.201-7.575 5.51-18.641-1.581-25.38-7.46-7.099-19.255-6.823-26.377.614l-41.642 43.798c-6.155 6.424-14.658 10.054-23.546 10.054h-21.93c-2.905.002-5.261 2.358-5.261 5.263z" fill="#d88a55"/></g><g><path d="m90.681 65.227-41.639 43.793c-6.153 6.42-14.658 10.056-23.551 10.056h-18v18.105h24.851c8.893 0 17.398-3.636 23.551-10.056l41.639-43.793c6.704-7.006 17.553-7.652 25.025-1.775 1.112-6.023-.767-12.452-5.498-16.95-7.463-7.092-19.252-6.817-26.378.62z" fill="#ea9b58"/></g></g><g><g><path d="m154.763 129.671c7.089 6.742 7.78 17.809 1.584 25.38l-13.441 17.973h107.373c11.627 0 18.888 7.261 18.888 16.219v.277c0 8.957-7.261 16.219-16.219 16.219h15.157c8.957 0 16.219 7.261 16.219 16.219 0 8.957-7.261 16.219-16.219 16.219h-26.928c8.957 0 16.219 7.261 16.219 16.219 0 8.957-7.261 16.219-16.219 16.219h-19.052-20.005c8.957 0 16.219 7.261 16.219 16.219 0 8.957-7.261 16.219-16.219 16.219h-85.608c-6.864 0-13.553-2.166-19.113-6.19l-17.679-12.795c-5.561-4.024-12.249-6.191-19.113-6.191h-24.599v-93.741h27.189c8.891 0 17.397-3.631 23.546-10.053l41.642-43.794c7.122-7.438 18.917-7.714 26.378-.618z" fill="#f6a96c"/></g><g><path d="m128.384 130.288-41.639 43.793c-6.153 6.42-14.658 10.056-23.551 10.056h-27.189v18.105h34.04c8.893 0 17.398-3.636 23.551-10.056l41.639-43.793c6.704-7.006 17.553-7.652 25.025-1.775 1.112-6.023-.767-12.452-5.498-16.95-7.464-7.093-19.252-6.817-26.378.62z" fill="#ea9b58"/></g><g><path d="m250.279 173.021h-107.375l.001.586c.009 9.198 7.468 16.649 16.666 16.649h90.709c7.635 0 13.391 3.137 16.442 7.833 1.551-2.49 2.447-5.429 2.447-8.566v-.276c-.001-8.962-7.266-16.226-18.89-16.226z" fill="#ea9b58"/></g><g><path d="m267.702 205.741h-116.87c0 9.204 7.461 16.666 16.666 16.666h100.611c5.911 0 11.082 3.163 13.908 7.885 1.568-2.611 2.426-5.696 2.297-8.98-.345-8.77-7.837-15.571-16.612-15.571z" fill="#ea9b58"/></g><g><path d="m240.787 238.176h-89.956v.569c0 9.204 7.461 16.666 16.666 16.666h73.682c5.791 0 10.866 3.033 13.736 7.6 1.641-2.591 2.554-5.686 2.477-9.004-.205-8.87-7.732-15.831-16.605-15.831z" fill="#ea9b58"/></g><g><path d="m202.117 270.611h-51.285v.569c0 9.204 7.461 16.666 16.666 16.666h34.62c4.481 0 8.54 1.818 11.47 4.748.862.862 1.62 1.818 2.266 2.852 1.577-2.49 2.482-5.446 2.482-8.617 0-4.472-1.818-8.531-4.748-11.47-2.932-2.929-6.99-4.748-11.471-4.748z" fill="#ea9b58"/></g><g><path d="m504.506 327.522c-4.139 0-7.494 3.355-7.494 7.494v19.767h-2.688c-4.139 0-7.494 3.354-7.494 7.494s3.355 7.494 7.494 7.494h10.181c4.139 0 7.494-3.355 7.494-7.494v-27.26c.001-4.14-3.354-7.495-7.493-7.495z"/><path d="m504.506 261.043h-18.001c-6.812 0-13.422-2.822-18.116-7.723l-41.66-43.814c-9.951-10.391-26.529-10.777-36.954-.864-9.832 9.351-10.841 24.874-2.331 35.418l4.391 5.871h-92.412c-15.287 0-26.382 9.972-26.382 23.713v.277c0 3.426.731 6.686 2.044 9.63-8.003 2.274-14.398 8.657-16.495 17.048-1.003 4.015 1.439 8.083 5.454 9.086.61.152 1.221.226 1.822.226 3.358 0 6.414-2.275 7.264-5.68.97-3.885 4.452-6.597 8.466-6.597h62.855c.778 4.099 2.521 8.058 5.289 11.487l4.391 5.871h-92.412c-15.287 0-26.382 9.972-26.382 23.713v.277c0 3.428.731 6.689 2.046 9.634-9.92 2.837-17.203 11.986-17.203 22.804 0 13.075 10.638 23.713 23.713 23.713h4.878c-1.073 2.702-1.663 5.646-1.663 8.725 0 13.075 10.638 23.713 23.713 23.713h17.008c-1.073 2.702-1.663 5.646-1.663 8.725 0 13.075 10.638 23.713 23.713 23.713h85.608c8.495 0 16.624-2.633 23.507-7.614l17.681-12.795c4.308-3.119 9.398-4.768 14.719-4.768h24.597c4.139 0 7.494-3.354 7.494-7.494v-93.74c0-4.139-3.355-7.494-7.494-7.494h-27.189c-6.812 0-13.422-2.822-18.116-7.724l-41.66-43.813c-9.951-10.391-26.529-10.778-36.954-.863-2.718 2.585-4.736 5.65-6.091 8.943h-49.227c-4.811 0-8.725-3.914-8.725-8.725v-.277c0-5.218 4.579-8.725 11.394-8.725h100.465c1.255 6.488 4.462 12.181 9.501 16.724 5.633 5.077 13.17 7.908 20.735 7.908 1.255 0 2.512-.078 3.76-.236 4.105-.522 7.011-4.274 6.489-8.38-.522-4.104-4.273-7.003-8.379-6.489-4.436.565-9.251-.946-12.571-3.936-3.662-3.302-5.343-7.488-5.14-12.799.068-1.776-.397-3.257-1.437-4.698-.018-.025-.031-.052-.05-.078l-13.441-17.973c-.065-.087-.133-.173-.202-.258-3.69-4.509-3.274-11.187.949-15.203 4.458-4.239 11.546-4.074 15.783.35l41.661 43.814c7.524 7.858 18.08 12.364 28.958 12.364h10.507v24.348c0 4.139 3.355 7.494 7.494 7.494s7.494-3.354 7.494-7.494v-31.842c.001-4.139-3.354-7.493-7.493-7.493zm-142.105 23.519c4.459-4.238 11.547-4.074 15.783.351l41.66 43.813c7.524 7.858 18.08 12.365 28.959 12.365h19.695v78.752h-17.103c-8.497 0-16.626 2.634-23.507 7.614l-17.68 12.794c-4.31 3.119-9.4 4.768-14.72 4.768h-85.608c-4.811 0-8.725-3.914-8.725-8.725s3.914-8.725 8.725-8.725h44.929c4.139 0 7.494-3.355 7.494-7.494s-3.355-7.494-7.494-7.494h-83.987c-4.811 0-8.725-3.914-8.725-8.725s3.914-8.725 8.725-8.725c.007 0 .013-.001.019-.001h83.968c4.139 0 7.494-3.354 7.494-7.494s-3.355-7.494-7.494-7.494l-110.915.001c-4.811 0-8.725-3.914-8.725-8.725s3.914-8.725 8.725-8.725h110.915c4.139 0 7.494-3.355 7.494-7.494s-3.355-7.494-7.494-7.494h-95.757c-4.811 0-8.725-3.914-8.725-8.725v-.277c0-5.218 4.579-8.725 11.394-8.725h107.373c2.836 0 5.43-1.601 6.701-4.138 1.27-2.536 1-5.573-.699-7.844l-13.441-17.973c-.065-.087-.133-.173-.202-.258-3.691-4.508-3.274-11.187.948-15.203z"/><path d="m351.424 99.732c1.183.685 2.474 1.01 3.749 1.01 2.586 0 5.102-1.34 6.492-3.739l7.549-13.036c2.074-3.582.852-8.166-2.729-10.24-3.581-2.075-8.166-.854-10.24 2.729l-7.549 13.036c-2.075 3.582-.853 8.166 2.728 10.24z"/><path d="m307.983 88.029h.01c4.134 0 7.488-3.349 7.494-7.484l.021-15.064c.006-4.138-3.345-7.498-7.484-7.504-.003 0-.007 0-.01 0-4.134 0-7.488 3.349-7.494 7.484l-.02 15.065c-.006 4.138 3.345 7.497 7.483 7.503z"/><path d="m254.279 96.858c1.387 2.409 3.908 3.757 6.501 3.757 1.268 0 2.554-.322 3.731-1 3.587-2.065 4.821-6.646 2.756-10.233l-7.514-13.055c-2.064-3.588-6.646-4.823-10.233-2.757-3.587 2.065-4.821 6.646-2.756 10.233z"/><path d="m402.272 167.575c-4.134 0-7.488 3.349-7.494 7.484-.006 4.138 3.345 7.498 7.483 7.503l15.064.021h.01c4.134 0 7.488-3.349 7.494-7.484.006-4.138-3.345-7.498-7.483-7.504l-15.064-.021c-.003.001-.006.001-.01.001z"/><path d="m389.695 135.343c1.268 0 2.553-.322 3.731-.999l13.056-7.514c3.587-2.064 4.822-6.645 2.757-10.233-2.064-3.587-6.646-4.82-10.233-2.757l-13.056 7.514c-3.587 2.064-4.822 6.645-2.758 10.233 1.388 2.408 3.909 3.756 6.503 3.756z"/><path d="m224.17 278.107h17.008c13.075 0 23.713-10.637 23.713-23.712 0-3.08-.59-6.023-1.663-8.725h4.878c13.075 0 23.713-10.637 23.713-23.713 0-10.818-7.283-19.968-17.203-22.804 1.314-2.945 2.046-6.206 2.046-9.633v-.276c0-13.74-11.095-23.713-26.382-23.713h-92.412l4.391-5.871c2.768-3.429 4.512-7.388 5.29-11.488h62.855c4.014 0 7.495 2.713 8.466 6.597 1.003 4.015 5.074 6.455 9.087 5.453 4.016-1.003 6.457-5.072 5.454-9.087-2.096-8.391-8.491-14.773-16.495-17.046 1.313-2.944 2.044-6.204 2.044-9.63v-.277c0-13.74-11.095-23.713-26.382-23.713h-92.412l4.391-5.871c8.51-10.545 7.502-26.068-2.331-35.419-10.426-9.916-27.004-9.525-36.973.883l-41.623 43.775c-4.712 4.921-11.322 7.742-18.134 7.742h-18.002c-4.139 0-7.494 3.355-7.494 7.494v93.741c0 4.139 3.355 7.494 7.494 7.494h10.181c4.139 0 7.494-3.354 7.494-7.494s-3.355-7.494-7.494-7.494h-2.688v-78.754h10.507c10.879 0 21.434-4.506 28.977-12.383l41.624-43.773c4.256-4.444 11.343-4.609 15.802-.37 4.223 4.016 4.64 10.694.949 15.204-.069.085-.137.171-.202.258l-13.441 17.973c-.019.025-.032.054-.051.079-2.268 3.108-1.072 7.103-2.112 10.577-.805 2.688-2.385 5.043-4.464 6.916-3.32 2.992-8.137 4.5-12.571 3.938-4.106-.525-7.857 2.384-8.379 6.489-.522 4.106 2.383 7.858 6.489 8.38 1.248.158 2.504.236 3.76.236 7.564 0 15.103-2.833 20.735-7.909 5.04-4.542 8.247-10.235 9.502-16.723h100.465c6.815 0 11.394 3.507 11.394 8.725v.277c0 4.812-3.914 8.725-8.725 8.725h-49.227c-1.355-3.293-3.373-6.359-6.091-8.944-10.426-9.915-27.003-9.527-36.973.883l-41.623 43.775c-4.712 4.921-11.322 7.743-18.134 7.743h-27.19c-4.139 0-7.494 3.355-7.494 7.494v93.741c0 4.139 3.355 7.494 7.494 7.494h24.597c5.321 0 10.411 1.648 14.72 4.767l17.68 12.795c6.882 4.98 15.01 7.613 23.507 7.613h6.355c4.139 0 7.494-3.354 7.494-7.494s-3.355-7.494-7.494-7.494h-6.355c-5.321 0-10.411-1.648-14.72-4.768l-17.68-12.795c-6.882-4.98-15.01-7.613-23.507-7.613h-17.103v-78.754h19.695c10.879 0 21.434-4.506 28.977-12.383l41.623-43.775c4.255-4.443 11.343-4.609 15.802-.37 4.223 4.016 4.64 10.694.949 15.203-.069.085-.137.171-.203.259l-13.441 17.974c-1.699 2.272-1.969 5.307-.699 7.843 1.27 2.537 3.864 4.138 6.7 4.138h107.373c6.815 0 11.394 3.507 11.394 8.725v.276c0 4.811-3.914 8.725-8.725 8.725 0 0 0 0-.001 0h-95.757c-4.139 0-7.494 3.354-7.494 7.494s3.355 7.494 7.494 7.494h110.915c4.811 0 8.725 3.914 8.725 8.725 0 4.812-3.914 8.725-8.725 8.725h-110.913c-4.139 0-7.494 3.354-7.494 7.494s3.355 7.494 7.494 7.494h83.988c4.81.001 8.724 3.914 8.724 8.725s-3.914 8.725-8.725 8.725h-83.987c-4.139 0-7.494 3.354-7.494 7.494s3.355 7.494 7.494 7.494h44.93c4.81.001 8.724 3.914 8.724 8.725 0 4.812-3.914 8.725-8.725 8.725h-44.929c-4.139 0-7.494 3.354-7.494 7.494s3.355 7.494 7.494 7.494h44.929c13.075 0 23.713-10.637 23.713-23.713-.001-3.079-.591-6.023-1.663-8.725z"/></g></g></g></g></svg>