<svg id="Capa_1" enable-background="new 0 0 512 512" height="512" viewBox="0 0 512 512" width="512" xmlns="http://www.w3.org/2000/svg"><g><path d="m200.972 317.755h110.057c30.007-24.83 42.103-69.025 21.401-107.802l-41.141-77.063c-1.934-3.623-2.946-7.667-2.946-11.774v-108.616c0-2.761-2.239-5-5-5h-54.685c-2.761 0-5 2.239-5 5v47.552c2.156 1.019 4.551 1.966 7.252 2.886 2.529.861 2.529 4.455 0 5.316-2.701.92-5.097 1.867-7.252 2.886v49.974c0 4.107-1.012 8.151-2.946 11.774l-41.141 77.063c-20.702 38.779-8.606 82.974 21.401 107.804z" fill="#fed402"/><path d="m200.972 317.755h22.528v-5.179c-25.746-25.479-35.018-66.412-15.686-102.623l41.141-77.063c1.934-3.623 2.946-7.667 2.946-11.774v-108.616c0-2.761 2.239-5 5-5h-28.243c-2.761 0-5 2.239-5 5v47.552c2.156 1.019 4.551 1.966 7.252 2.886 2.529.861 2.529 4.455 0 5.316-2.701.92-5.097 1.867-7.252 2.886v49.974c0 4.107-1.012 8.151-2.946 11.774l-41.141 77.063c-20.702 38.779-8.606 82.974 21.401 107.804z" fill="#fac600"/><path d="m288.5 317.755v-18.755c0-2.761-2.239-5-5-5h-55c-2.761 0-5 2.239-5 5v18.755z" fill="#d8aa5e"/><path d="m254 317.755v-18.755c0-2.761 2.239-5 5-5h-30.5c-2.761 0-5 2.239-5 5v18.755z" fill="#c99c56"/><path d="m196.264 388.066h119.473l20.392-31.011c1.097-1.667 1.097-3.827 0-5.494l-20.749-31.553c-.925-1.406-2.495-2.253-4.178-2.253h-110.404c-1.683 0-3.253.847-4.178 2.253l-20.749 31.553c-1.096 1.667-1.096 3.827 0 5.494z" fill="#cbc4cc"/><path d="m196.264 388.066h41.951l-20.392-31.011c-1.096-1.667-1.096-3.827 0-5.494l20.749-31.553c.925-1.406 2.495-2.253 4.178-2.253h-41.951c-1.683 0-3.253.847-4.178 2.253l-20.749 31.553c-1.096 1.667-1.096 3.827 0 5.494z" fill="#b5adb6"/><path d="m337.396 465.61v-57.896c0-10.851-8.797-19.648-19.648-19.648h-123.496c-10.851 0-19.648 8.797-19.648 19.648v57.896z" fill="#d8aa5e"/><path d="m216.208 464.611v-56.897c0-10.851 8.797-19.648 19.648-19.648h-41.604c-10.851 0-19.648 8.797-19.648 19.648v56.897z" fill="#c99c56"/><g><path d="m382.562 375.87h-11.562c-2.761 0-5-2.239-5-5v-33.124c0-2.761 2.239-5 5-5h11.562c2.761 0 5 2.239 5 5v33.124c0 2.761-2.239 5-5 5z" fill="#d8aa5e"/></g><g><path d="m225.093 211.467c-13.737 23.792 3.434 53.533 30.907 53.533 27.473 0 44.644-29.741 30.907-53.533l-30.907-53.533z" fill="#fe860a"/></g><g><path d="m245.835 211.467 20.536-35.57-10.371-17.963-30.907 53.533c-13.737 23.792 3.434 53.533 30.907 53.533 3.658 0 7.127-.541 10.371-1.512-21.12-6.317-32.444-31.397-20.536-52.021z" fill="#fe7701"/></g><g><path d="m256 265c12.909 0 23.541-6.568 29.763-15.998l-13.567-23.499c-1.155-2-4.042-2-5.196 0l-6.67 11.553c-1.924 3.333-6.736 3.333-8.66 0l-6.67-11.553c-1.155-2-4.041-2-5.196 0l-13.567 23.499c6.222 9.43 16.854 15.998 29.763 15.998z" fill="#fff"/></g><g><path d="m378.754 504.5h-245.508c-2.761 0-5-2.239-5-5v-29.889c0-2.761 2.239-5 5-5h245.508c2.761 0 5 2.239 5 5v29.889c0 2.761-2.239 5-5 5z" fill="#cbc4cc"/></g><g><path d="m191 499.5v-29.889c0-2.761 2.239-5 5-5h-62.754c-2.761 0-5 2.239-5 5v29.889c0 2.761 2.239 5 5 5h62.754c-2.761 0-5-2.239-5-5z" fill="#b5adb6"/></g><g><path d="m205.061 37.09c5.084 14.926 10.922 20.765 25.848 25.848 2.529.861 2.529 4.455 0 5.316-14.926 5.084-20.765 10.922-25.848 25.849-.861 2.529-4.455 2.529-5.316 0-5.084-14.926-10.922-20.765-25.848-25.849-2.529-.861-2.529-4.455 0-5.316 14.926-5.084 20.765-10.922 25.848-25.848.861-2.529 4.455-2.529 5.316 0z" fill="#fe860a"/></g><g><path d="m166.607 107.462c3.92 11.509 8.421 16.01 19.93 19.93 1.95.664 1.95 3.435 0 4.099-11.509 3.92-16.01 8.421-19.93 19.93-.664 1.95-3.435 1.95-4.099 0-3.92-11.509-8.421-16.01-19.93-19.93-1.95-.664-1.95-3.435 0-4.099 11.509-3.92 16.01-8.421 19.93-19.93.665-1.95 3.435-1.95 4.099 0z" fill="#fe860a"/></g><g><circle cx="206.5" cy="354.308" r="7.5"/><circle cx="239.5" cy="354.308" r="7.5"/><circle cx="272.5" cy="354.308" r="7.5"/><circle cx="305.5" cy="354.308" r="7.5"/><path d="m407.817 293.988-20.064-14.97c-3.32-2.477-8.02-1.794-10.496 1.526-2.477 3.32-1.793 8.02 1.526 10.497l20.064 14.97c1.346 1.004 2.919 1.488 4.479 1.488 2.287 0 4.544-1.041 6.017-3.015 2.478-3.319 1.794-8.018-1.526-10.496z"/><path d="m421 236.97h-28.375c-4.142 0-7.5 3.357-7.5 7.5s3.358 7.5 7.5 7.5h28.375c4.142 0 7.5-3.357 7.5-7.5s-3.358-7.5-7.5-7.5z"/><path d="m383.274 211.47c1.56 0 3.133-.484 4.479-1.488l20.064-14.97c3.32-2.478 4.003-7.177 1.526-10.497-2.478-3.319-7.176-4.002-10.496-1.526l-20.064 14.97c-3.32 2.478-4.003 7.177-1.526 10.497 1.472 1.973 3.73 3.014 6.017 3.014z"/><path d="m134.743 280.545c-2.477-3.32-7.176-4.003-10.496-1.526l-20.064 14.97c-3.32 2.478-4.003 7.177-1.526 10.497 1.473 1.974 3.73 3.015 6.017 3.015 1.56 0 3.133-.484 4.479-1.488l20.064-14.97c3.32-2.479 4.003-7.178 1.526-10.498z"/><path d="m126.875 244.47c0-4.143-3.358-7.5-7.5-7.5h-28.375c-4.142 0-7.5 3.357-7.5 7.5s3.358 7.5 7.5 7.5h28.375c4.143 0 7.5-3.358 7.5-7.5z"/><path d="m104.183 195.012 20.064 14.97c1.346 1.004 2.919 1.488 4.479 1.488 2.287 0 4.544-1.041 6.017-3.015 2.477-3.32 1.793-8.02-1.526-10.497l-20.064-14.97c-3.32-2.477-8.019-1.794-10.496 1.526s-1.794 8.02 1.526 10.498z"/><path d="m140.16 138.591c9.355 3.187 12.063 5.894 15.249 15.25 1.333 3.913 5.01 6.543 9.149 6.543s7.815-2.63 9.149-6.544c3.187-9.355 5.894-12.063 15.249-15.249 3.915-1.333 6.544-5.01 6.544-9.148 0-4.14-2.63-7.816-6.544-9.149-9.354-3.187-12.062-5.894-15.249-15.249 0 0 0 0 0-.001-1.333-3.913-5.01-6.543-9.148-6.543-4.139 0-7.816 2.63-9.149 6.544-3.186 9.355-5.894 12.063-15.249 15.249-3.915 1.333-6.544 5.01-6.544 9.149-.001 4.138 2.629 7.815 6.543 9.148zm24.398-17.808c2.313 3.561 5.098 6.346 8.659 8.658-3.561 2.314-6.345 5.099-8.659 8.659-2.313-3.561-5.099-6.346-8.659-8.658 3.56-2.313 6.346-5.098 8.659-8.659z"/><path d="m382.562 325.246h-11.562c-6.893 0-12.5 5.607-12.5 12.5v9.063h-16.52l-19.394-29.492c12.159-12.232 20.888-27.669 25.011-44.583 5.427-22.267 2.39-45.816-8.552-66.313l-41.141-77.063c-1.349-2.526-2.062-5.377-2.062-8.242v-41.116c0-4.143-3.358-7.5-7.5-7.5s-7.5 3.357-7.5 7.5v41.115c0 5.32 1.324 10.613 3.83 15.307l41.141 77.063c17.508 32.795 10.004 72.516-17.541 96.771h-12.272v-11.256c0-6.893-5.607-12.5-12.5-12.5h-20v-14.657c12.513-2.149 23.371-9.626 29.902-20.937 7.807-13.521 7.807-29.667 0-43.189l-30.907-53.533c-1.34-2.32-3.815-3.75-6.495-3.75s-5.155 1.43-6.495 3.75l-30.907 53.533c-7.807 13.521-7.807 29.667 0 43.188 6.53 11.312 17.389 18.789 29.902 20.938v14.657h-20c-6.893 0-12.5 5.607-12.5 12.5v11.255h-12.272c-27.545-24.255-35.049-63.975-17.541-96.771l41.141-77.063c2.505-4.693 3.83-9.986 3.83-15.307v-44.99c.696-.258 1.416-.514 2.17-.771 4.174-1.422 6.979-5.343 6.979-9.758s-2.804-8.336-6.979-9.758c-.754-.257-1.474-.513-2.17-.771v-40.066h49.686v30c0 4.143 3.358 7.5 7.5 7.5s7.5-3.357 7.5-7.5v-32.5c0-6.893-5.607-12.5-12.5-12.5h-54.686c-6.893 0-12.5 5.607-12.5 12.5v31.36c-1.463-2.477-2.725-5.456-3.997-9.187-1.422-4.174-5.343-6.979-9.757-6.979-4.415 0-8.336 2.806-9.758 6.979-4.322 12.69-8.476 16.845-21.167 21.166-4.174 1.422-6.979 5.343-6.979 9.758s2.804 8.336 6.979 9.758c12.691 4.322 16.845 8.477 21.167 21.168 1.421 4.173 5.343 6.978 9.757 6.978s8.335-2.805 9.757-6.979c1.271-3.732 2.533-6.711 3.997-9.188v33.781c0 2.865-.713 5.716-2.062 8.242l-41.141 77.063c-10.942 20.497-13.979 44.047-8.552 66.313 4.123 16.914 12.852 32.352 25.011 44.583l-19.809 30.124c-2.743 4.172-2.743 9.563 0 13.736l14.142 21.506c-9.768 4.115-16.643 13.785-16.643 25.031v1.786h-4.103c-4.142 0-7.5 3.357-7.5 7.5s3.358 7.5 7.5 7.5h4.104v9h-4.104c-4.142 0-7.5 3.357-7.5 7.5s3.358 7.5 7.5 7.5h4.104v8.61h-33.858c-6.893 0-12.5 5.607-12.5 12.5v29.89c0 6.893 5.607 12.5 12.5 12.5h245.508c6.893 0 12.5-5.607 12.5-12.5v-29.89c0-6.893-5.607-12.5-12.5-12.5h-33.858v-8.61h4.104c4.142 0 7.5-3.357 7.5-7.5s-3.358-7.5-7.5-7.5h-4.104v-9h4.104c4.142 0 7.5-3.357 7.5-7.5s-3.358-7.5-7.5-7.5h-4.104v-1.786c0-11.246-6.875-20.917-16.643-25.031l13.726-20.874h16.521v9.062c0 6.893 5.607 12.5 12.5 12.5h11.562c6.893 0 12.5-5.607 12.5-12.5v-33.124c0-6.892-5.607-12.5-12.5-12.5zm-180.159-244.008c-3.793-7.014-8.628-11.848-15.642-15.642 7.014-3.793 11.848-8.627 15.642-15.641 3.793 7.014 8.627 11.848 15.641 15.641-7.013 3.795-11.847 8.629-15.641 15.642zm30.906 140.515-5.472 9.478c-.382-5.473.867-11.018 3.751-16.014l24.412-42.283 24.412 42.283c2.884 4.996 4.133 10.541 3.751 16.014l-5.472-9.478c-1.87-3.238-5.354-5.25-9.093-5.25s-7.224 2.012-9.093 5.25l-4.505 7.803-4.505-7.803c-1.87-3.238-5.354-5.25-9.093-5.25s-7.224 2.012-9.093 5.25zm1.937 26.644 7.156-12.394 2.773 4.803c2.259 3.913 6.306 6.25 10.825 6.25s8.566-2.337 10.825-6.25l2.773-4.803 7.156 12.394c-5.263 5.777-12.67 9.103-20.754 9.103-8.085 0-15.491-3.326-20.754-9.103zm-4.246 53.103h50v8.755h-50zm145.254 170.61v24.89h-240.508v-24.89h141.254c4.142 0 7.5-3.357 7.5-7.5s-3.358-7.5-7.5-7.5h-94.896v-8.61h147.792v8.61h-17.896c-4.142 0-7.5 3.357-7.5 7.5s3.358 7.5 7.5 7.5zm-46.358-64.396v1.786h-73.896c-4.142 0-7.5 3.357-7.5 7.5s3.358 7.5 7.5 7.5h73.896v9h-147.792v-9h38.896c4.142 0 7.5-3.357 7.5-7.5s-3.358-7.5-7.5-7.5h-38.896v-1.786c0-6.698 5.45-12.147 12.148-12.147h123.496c6.698-.001 12.148 5.449 12.148 12.147zm-18.205-27.148h-111.382l-17.268-26.258 19.105-29.054h107.707l19.105 29.053zm68.371-12.196h-6.562v-28.124h6.562z"/></g></g></svg>