<svg id="Capa_1" enable-background="new 0 0 512.015 512.015" height="512" viewBox="0 0 512.015 512.015" width="512" xmlns="http://www.w3.org/2000/svg"><g><g><path d="m464.28 299.387 38.033-38.033c2.953-2.953 2.953-7.74 0-10.693l-38.033-38.033c-1.418-1.418-2.215-3.341-2.215-5.346v-149.771c0-4.176-3.385-7.561-7.561-7.561h-149.771c-2.005 0-3.928-.797-5.346-2.215l-38.033-38.033c-2.953-2.953-7.74-2.953-10.693 0l-38.033 38.033c-1.418 1.418-3.341 2.215-5.346 2.215h-149.771c-4.176 0-7.561 3.385-7.561 7.561v149.772c0 2.005-.797 3.928-2.215 5.346l-38.033 38.032c-2.953 2.953-2.953 7.74 0 10.693l38.033 38.033c1.418 1.418 2.215 3.341 2.215 5.346v149.772c0 4.176 3.385 7.561 7.561 7.561h149.772c2.005 0 3.928.797 5.346 2.215l38.033 38.033c2.953 2.953 7.74 2.953 10.693 0l38.033-38.033c1.418-1.418 3.341-2.215 5.346-2.215h149.772c4.176 0 7.561-3.385 7.561-7.561v-149.772c-.002-2.005.795-3.928 2.213-5.346z" fill="#7a6d79"/></g><g><path d="m284.9 462.062h19.828c-1.997 0-3.924.799-5.341 2.216l-38.028 38.038c-2.955 2.945-7.747 2.945-10.702 0l-4.563-4.573 33.465-33.465c1.418-1.418 3.335-2.216 5.341-2.216z" fill="#685e68"/></g><g><path d="m299.387 47.737c1.418 1.418 3.345 2.216 5.341 2.216h-19.828c-2.007 0-3.924-.799-5.341-2.216l-33.465-33.465 4.563-4.573c2.955-2.945 7.747-2.945 10.702 0z" fill="#685e68"/></g><g><path d="m502.316 261.359-38.038 38.028c-1.418 1.418-2.216 3.345-2.216 5.341v149.776c0 4.173-3.385 7.558-7.558 7.558h-19.828c4.173 0 7.558-3.384 7.558-7.558v-149.776c0-1.997.799-3.924 2.216-5.341l38.028-38.028c2.955-2.955 2.955-7.747 0-10.693l-38.028-38.038c-1.418-1.418-2.216-3.345-2.216-5.341v-149.776c0-4.173-3.384-7.558-7.558-7.558h19.828c4.173 0 7.558 3.384 7.558 7.558v149.776c0 1.997.798 3.924 2.216 5.341l38.038 38.038c2.945 2.945 2.945 7.738 0 10.693z" fill="#685e68"/></g><g><circle cx="256.008" cy="256.008" fill="#fee97d" r="224.272"/></g><g><path d="m480.282 256.008c0 123.858-100.416 224.275-224.275 224.275-38.557 0-74.838-9.724-106.526-26.866 26.447 10.972 55.45 17.022 85.86 17.022 123.868 0 224.274-100.416 224.274-224.274 0-85.291-47.602-159.46-117.698-197.388 81.228 33.713 138.365 113.803 138.365 207.231z" fill="#fedf30"/></g><g><circle cx="256.008" cy="256.008" fill="#f9f3f1" r="190.381"/></g><g><path d="m446.387 256.008c0 105.149-85.231 190.38-190.38 190.38-34.314 0-66.501-9.075-94.296-24.949 22.873 9.724 48.042 15.105 74.469 15.105 105.138 0 190.38-85.231 190.38-190.38 0-70.835-38.687-132.634-96.083-165.43 68.138 28.992 115.91 96.552 115.91 175.274z" fill="#f3eae6"/></g><g><path d="m252.359 127.13-27.494 69.626c-2.272 5.755-1.068 12.301 3.103 16.871l28.04 30.717 28.04-30.717c4.171-4.57 5.375-11.116 3.103-16.871l-27.494-69.626c-1.308-3.309-5.991-3.309-7.298 0z" fill="#fee97d"/></g><g><path d="m284.052 213.627-28.044 30.72-13.818-15.135 20.027-21.954c4.173-4.563 5.381-11.112 3.105-16.873l-18.969-48.032 6.01-15.225c1.298-3.305 5.99-3.305 7.288 0l27.495 69.627c2.277 5.76 1.069 12.299-3.094 16.872z" fill="#fedf30"/></g><g><circle cx="256.008" cy="256.008" fill="#7a6d79" r="19.831"/></g><g><path d="m275.835 256.008c0 10.952-8.875 19.828-19.828 19.828-6.609 0-12.46-3.235-16.054-8.207 10.762-.21 19.419-9.005 19.419-19.818 0-4.343-1.398-8.356-3.774-11.621.13-.01.269-.01.409-.01 10.953 0 19.828 8.875 19.828 19.828z" fill="#685e68"/></g><g><path d="m245.394 124.379-27.494 69.627c-3.298 8.353-1.517 18.036 4.538 24.67l15.443 16.917c-5.634 5.008-9.192 12.302-9.192 20.415 0 15.063 12.255 27.319 27.319 27.319s27.319-12.255 27.319-27.319c0-8.113-3.559-15.407-9.193-20.415l15.444-16.918c6.054-6.633 7.835-16.316 4.537-24.669l-27.494-69.627c-1.732-4.385-5.898-7.22-10.613-7.22s-8.881 2.835-10.614 7.22zm10.614 143.972c-6.806 0-12.344-5.537-12.344-12.343s5.537-12.343 12.344-12.343 12.344 5.537 12.344 12.343c-.001 6.806-5.538 12.343-12.344 12.343zm24.177-68.844c1.213 3.071.558 6.633-1.668 9.072l-18.615 20.392c-1.273-.183-2.572-.282-3.895-.282s-2.622.1-3.895.282l-18.614-20.391c-2.227-2.44-2.882-6.002-1.669-9.073l24.178-61.23z"/><path d="m507.607 245.366-22.142-22.159c-2.806-19.927-8.164-39.237-15.912-57.546v-108.15c0-8.298-6.751-15.049-15.049-15.049l-108.188-.016c-18.303-7.742-37.607-13.095-57.528-15.899l-22.139-22.138c-2.843-2.843-6.622-4.409-10.641-4.409s-7.799 1.566-10.641 4.408l-22.16 22.142c-19.927 2.806-39.237 8.164-57.546 15.912h-108.15c-8.298 0-15.049 6.751-15.049 15.049l-.016 108.186c-7.743 18.304-13.096 37.608-15.899 57.53l-22.14 22.139c-5.866 5.867-5.866 15.414 0 21.283l22.142 22.159c2.806 19.928 8.164 39.237 15.912 57.546v108.15c0 8.298 6.751 15.049 15.049 15.049l108.188.016c18.304 7.742 37.607 13.095 57.529 15.899l22.139 22.138c2.843 2.843 6.622 4.409 10.641 4.409s7.799-1.566 10.641-4.408l22.16-22.142c19.928-2.806 39.238-8.164 57.546-15.912h51.131c4.135 0 7.488-3.352 7.488-7.488s-3.352-7.488-7.488-7.488h-21.806c15.893-9.617 30.735-21.218 44.207-34.69s25.074-28.315 34.691-44.208v78.825c0 .04-.033.073-.072.073l-22.372-.004h-.001c-4.135 0-7.487 3.352-7.488 7.487 0 4.135 3.351 7.488 7.486 7.489l22.373.004c8.298 0 15.049-6.75 15.049-15.049l.015-108.186c7.743-18.304 13.096-37.608 15.899-57.53l22.14-22.14c5.868-5.867 5.868-15.414.001-21.282zm-483.153 20.151-9.456-9.456c-.029-.029-.029-.076 0-.104l9.457-9.457c-.127 3.16-.206 6.328-.206 9.508-.001 3.18.078 6.349.205 9.509zm430.05-208.079c.04 0 .073.033.073.073v78.825c-9.617-15.893-21.219-30.736-34.691-44.208s-28.315-25.074-44.208-34.691h78.826zm-198.548-42.441c.024-.023.078-.024.103.001l9.456 9.456c-3.159-.127-6.327-.206-9.508-.206s-6.349.08-9.508.206zm-198.518 42.514c0-.04.033-.073.073-.073h78.826c-15.893 9.617-30.736 21.219-44.208 34.691s-25.074 28.315-34.691 44.208zm.073 397.066c-.04 0-.073-.033-.073-.073v-78.825c9.617 15.893 21.219 30.736 34.691 44.208s28.315 25.073 44.207 34.69zm198.548 42.441c-.024.022-.078.025-.103-.001l-9.456-9.456c3.159.126 6.327.206 9.508.206s6.349-.08 9.508-.206zm153.238-87.72c-40.945 40.945-95.385 63.494-153.29 63.494s-112.345-22.549-153.29-63.494-63.495-95.385-63.495-153.29 22.55-112.345 63.495-153.29 95.385-63.494 153.29-63.494 112.345 22.549 153.29 63.494 63.495 95.385 63.495 153.29-22.55 112.345-63.495 153.29zm78.264-143.782c.127-3.16.206-6.328.206-9.509s-.08-6.349-.206-9.509l9.456 9.456c.029.029.029.076 0 .104z"/><path d="m256.008 58.139c-49.889 0-97.541 18.625-134.177 52.443-3.039 2.805-3.229 7.542-.424 10.58 2.805 3.039 7.542 3.229 10.581.423 33.862-31.257 77.906-48.471 124.02-48.471 100.847 0 182.893 82.046 182.893 182.893s-82.046 182.893-182.893 182.893-182.893-82.045-182.893-182.892c0-39.669 12.485-77.401 36.103-109.119 2.47-3.317 1.784-8.007-1.533-10.478-3.317-2.469-8.008-1.782-10.478 1.534-25.558 34.322-39.068 75.148-39.068 118.063 0 109.105 88.764 197.869 197.868 197.869s197.868-88.763 197.868-197.869-88.763-197.869-197.867-197.869z"/><path d="m263.495 100.25v-5.807c0-4.136-3.352-7.488-7.488-7.488s-7.488 3.352-7.488 7.488v5.807c0 4.136 3.352 7.488 7.488 7.488s7.488-3.353 7.488-7.488z"/><path d="m248.52 411.765v5.807c0 4.136 3.352 7.488 7.488 7.488s7.488-3.352 7.488-7.488v-5.807c0-4.136-3.352-7.488-7.488-7.488s-7.488 3.353-7.488 7.488z"/><path d="m171.644 124.861c1.387 2.402 3.904 3.745 6.491 3.745 1.27 0 2.558-.324 3.737-1.004 3.582-2.068 4.809-6.647 2.741-10.229l-2.903-5.029c-2.068-3.582-6.647-4.808-10.228-2.741-3.582 2.068-4.809 6.647-2.741 10.229z"/><path d="m327.402 394.642 2.903 5.029c1.387 2.402 3.904 3.745 6.491 3.745 1.27 0 2.558-.324 3.737-1.004 3.582-2.068 4.809-6.647 2.741-10.229l-2.903-5.029c-2.068-3.582-6.647-4.807-10.228-2.74-3.582 2.067-4.809 6.647-2.741 10.228z"/><path d="m112.344 181.71 5.029 2.903c1.179.681 2.467 1.004 3.737 1.004 2.588 0 5.104-1.343 6.491-3.745 2.068-3.581.841-8.161-2.741-10.229l-5.029-2.903c-3.583-2.068-8.161-.841-10.228 2.741-2.067 3.581-.84 8.161 2.741 10.229z"/><path d="m387.154 340.371 5.029 2.904c1.179.68 2.467 1.004 3.737 1.004 2.588 0 5.104-1.343 6.491-3.745 2.068-3.581.841-8.161-2.741-10.229l-5.029-2.903c-3.583-2.067-8.161-.842-10.228 2.74s-.84 8.161 2.741 10.229z"/><path d="m94.442 248.52c-4.135 0-7.488 3.352-7.488 7.488s3.352 7.488 7.488 7.488h5.807c4.135 0 7.488-3.352 7.488-7.488s-3.352-7.488-7.488-7.488z"/><path d="m417.573 263.495c4.135 0 7.488-3.352 7.488-7.488s-3.352-7.488-7.488-7.488h-5.807c-4.135 0-7.488 3.352-7.488 7.488s3.352 7.488 7.488 7.488z"/><path d="m117.373 327.402-5.029 2.903c-3.582 2.068-4.809 6.647-2.741 10.229 1.387 2.402 3.904 3.745 6.491 3.745 1.27 0 2.558-.324 3.737-1.004l5.029-2.904c3.582-2.068 4.809-6.647 2.741-10.229-2.067-3.581-6.647-4.806-10.228-2.74z"/><path d="m390.905 185.617c1.27 0 2.558-.324 3.737-1.004l5.029-2.903c3.582-2.068 4.809-6.647 2.741-10.229s-6.648-4.808-10.228-2.741l-5.029 2.903c-3.582 2.068-4.809 6.647-2.741 10.229 1.386 2.403 3.903 3.745 6.491 3.745z"/><path d="m171.481 402.412c1.179.68 2.467 1.004 3.737 1.004 2.588 0 5.104-1.343 6.491-3.745l2.903-5.029c2.068-3.581.841-8.16-2.741-10.228s-8.161-.842-10.228 2.74l-2.903 5.029c-2.067 3.581-.84 8.161 2.741 10.229z"/><path d="m330.143 127.602c1.179.681 2.467 1.004 3.737 1.004 2.588 0 5.104-1.343 6.491-3.745l2.903-5.029c2.068-3.581.841-8.161-2.741-10.229s-8.161-.841-10.228 2.741l-2.903 5.029c-2.068 3.581-.841 8.161 2.741 10.229z"/></g></g></svg>