<svg id="Capa_1" enable-background="new 0 0 512 512" height="512" viewBox="0 0 512 512" width="512" xmlns="http://www.w3.org/2000/svg"><g><g><path d="m147.746 455.799h-65.615v-409.975c0-21.183 17.172-38.355 38.355-38.355h27.26z" fill="#fee97d"/></g><g><path d="m127.827 7.471h19.917v448.332h-19.917z" fill="#fedf30"/></g><g><path d="m429.869 438.853h-282.123v-431.384h271.68c5.767 0 10.442 4.675 10.442 10.442v420.942z" fill="#ade194"/></g><g><path d="m429.872 17.907v420.947h-19.917v-420.947c0-5.766-4.68-10.436-10.446-10.436h19.917c5.765 0 10.446 4.67 10.446 10.436z" fill="#97da7b"/></g><g><path d="m429.869 419.102-305.092.137c-23.553 0-42.646 19.093-42.646 42.646 0 23.553 19.093 42.646 42.646 42.646l289.023-.13c8.876-.004 16.069-7.2 16.069-16.076z" fill="#f9f3f1"/></g><g><path d="m429.872 419.107v69.22c0 8.873-7.2 16.073-16.073 16.073h-19.917c8.873 0 16.073-7.2 16.073-16.073v-69.21z" fill="#f3eae6"/></g><g><path d="m360.037 38.672h-142.459c-3.262 0-6.225 1.864-7.655 4.796-2.703 5.543-9.043 14.594-22.979 20.015-3.277 1.275-5.448 4.419-5.448 7.935v283.734c0 3.516 2.171 6.66 5.448 7.935 13.936 5.421 20.275 14.473 22.979 20.015 1.43 2.932 4.393 4.796 7.655 4.796h142.459c3.262 0 6.225-1.864 7.655-4.796 2.703-5.543 9.043-14.594 22.979-20.015 3.277-1.275 5.448-4.419 5.448-7.935v-283.734c0-3.516-2.171-6.66-5.448-7.935-13.936-5.421-20.275-14.473-22.979-20.015-1.43-2.932-4.393-4.796-7.655-4.796z" fill="#dbf1d0"/></g><g><path d="m396.123 71.423v283.732c0 3.515-2.171 6.662-5.457 7.937-13.932 5.417-20.275 14.469-22.974 20.016-1.434 2.928-4.392 4.79-7.658 4.79h-19.917c3.266 0 6.224-1.862 7.658-4.79 2.699-5.547 9.042-22.074 22.974-27.501 3.286-1.275 5.457-4.412 5.457-7.927v-266.378c0-3.515-2.171-6.662-5.457-7.937-13.932-5.417-20.275-24.358-22.974-29.895-1.434-2.938-4.392-4.8-7.658-4.8h19.917c3.266 0 6.224 1.862 7.658 4.8 2.699 5.537 9.042 14.589 22.974 20.016 3.286 1.275 5.457 4.412 5.457 7.937z" fill="#c1e9af"/></g><g><g><g><path d="m363.338 248.738c-13.145 25.389-39.655 42.736-70.221 42.739-43.322.005-78.332-34.409-79.031-77.726-.622-38.571 26.393-70.943 62.536-78.614 1.805-.383 2.826 2.017 1.302 3.057-18.047 12.319-29.888 33.055-29.861 56.562.043 37.241 30.342 67.848 67.581 68.248 17.206.185 32.97-5.991 45.077-16.321 1.414-1.206 3.471.406 2.617 2.055z" fill="#fee97d"/></g></g><g><g><path d="m363.335 248.735c-3.253 6.277-7.313 12.059-12.059 17.209-12.637 8.403-27.848 13.232-44.196 13.049-42.73-.458-77.506-35.582-77.552-78.321-.028-22.332 9.283-42.483 24.238-56.778 7.01-4.041 14.698-7.029 22.854-8.76 1.805-.376 2.832 2.025 1.301 3.061-18.043 12.316-29.883 33.053-29.855 56.558.037 37.241 30.341 67.857 67.582 68.251 17.2.183 32.971-5.993 45.076-16.32 1.411-1.202 3.463.401 2.611 2.051z" fill="#fedf30"/></g></g><g><path d="m419.426 0h-23.304c-4.125 0-7.469 3.343-7.469 7.469 0 4.125 3.344 7.469 7.469 7.469h23.304c1.64 0 2.974 1.333 2.974 2.973v393.726l-267.185.121v-396.82h205.824c4.125 0 7.469-3.344 7.469-7.469s-3.344-7.469-7.469-7.469h-240.552c-25.268 0-45.825 20.556-45.825 45.824v416.062c0 27.633 22.482 50.114 50.118 50.114l289.022-.13c12.978-.006 23.535-10.567 23.535-23.544v-470.416c.001-9.875-8.034-17.91-17.911-17.91zm-329.826 45.824c0-17.031 13.856-30.886 30.887-30.886h19.791v396.827l-15.5.007c-13.696 0-26.122 5.528-35.177 14.463v-380.411zm332.8 408.456h-274.654c-4.125 0-7.469 3.344-7.469 7.469s3.344 7.469 7.469 7.469h274.654v19.108c0 4.744-3.86 8.604-8.604 8.606l-289.019.13c-19.397 0-35.177-15.781-35.177-35.177s15.781-35.312 35.181-35.312h297.619z"/><path d="m217.578 31.203c-6.157 0-11.663 3.446-14.368 8.991-2.011 4.124-7.151 11.73-18.974 16.329-6.202 2.413-10.209 8.259-10.209 14.896v202c0 4.125 3.344 7.469 7.469 7.469s7.469-3.344 7.469-7.469v-202c0-.43.27-.813.687-.974 16.563-6.443 24.016-17.616 26.984-23.702.181-.371.542-.602.942-.602h142.458c.401 0 .761.231.942.602 2.969 6.087 10.423 17.259 26.984 23.701.417.162.688.546.688.975v283.734c0 .429-.27.812-.687.973-16.562 6.443-24.016 17.615-26.984 23.701-.182.372-.543.603-.943.603h-142.458c-.4 0-.761-.23-.942-.602-2.969-6.086-10.422-17.259-26.983-23.701-.418-.162-.688-.545-.688-.974v-47.025c0-4.125-3.344-7.469-7.469-7.469s-7.469 3.343-7.469 7.469v47.025c0 6.635 4.007 12.482 10.21 14.896 11.822 4.598 16.962 12.204 18.973 16.328 2.705 5.545 8.211 8.991 14.368 8.991h142.458c6.157 0 11.662-3.445 14.369-8.991 2.011-4.124 7.152-11.73 18.974-16.329 6.202-2.413 10.208-8.259 10.208-14.895v-283.734c0-6.635-4.007-12.483-10.209-14.897-11.822-4.598-16.962-12.204-18.974-16.329-2.706-5.545-8.211-8.99-14.368-8.99z"/><path d="m282.137 144.362c3.659-2.498 4.996-7.091 3.251-11.17-1.744-4.076-5.985-6.277-10.316-5.361-40.331 8.562-69.12 44.747-68.453 86.041.37 22.921 9.519 44.341 25.762 60.314 16.238 15.967 37.803 24.76 60.736 24.76 32.469-.004 61.917-17.927 76.853-46.775 2.039-3.938 1.037-8.615-2.438-11.374-3.483-2.766-8.276-2.682-11.658.204-11.3 9.643-25.447 14.691-40.149 14.534-33.151-.355-60.154-27.625-60.192-60.787-.023-20.163 9.922-38.998 26.604-50.386zm33.428 126.111c8.228.087 16.418-1.171 24.153-3.67-12.739 10.94-29.143 17.205-46.603 17.207-.003 0-.005 0-.008 0-18.979-.001-36.827-7.271-50.253-20.474-13.43-13.206-20.994-30.929-21.3-49.904-.399-24.694 11.927-47.177 31.387-60.422-7.963 12.183-12.363 26.575-12.346 41.556.048 41.301 33.68 75.263 74.97 75.707z"/><circle cx="301.261" cy="198.75" r="9.958"/></g></g></g></svg>