<svg id="Capa_1" enable-background="new 0 0 512 512" height="512" viewBox="0 0 512 512" width="512" xmlns="http://www.w3.org/2000/svg"><g><g><path d="m256 165.887c-70.564 0-127.767 57.203-127.767 127.767h255.533c.001-70.564-57.202-127.767-127.766-127.767z" fill="#fe860a"/></g><g><path d="m276.883 167.595c-6.796-1.117-13.77-1.708-20.883-1.708-70.564 0-127.767 57.203-127.767 127.766h41.767c0-63.45 46.255-116.088 106.883-126.058z" fill="#fe7701"/></g><g><path d="m504.5 286.154h-113.461c-1.462-27.027-10.798-52.56-27.267-74.243-2.505-3.299-7.211-3.94-10.509-1.437-3.299 2.506-3.941 7.211-1.437 10.509 14.472 19.054 22.769 41.448 24.212 65.171h-240.074c3.883-62.837 56.238-112.767 120.036-112.767 26.419 0 51.49 8.407 72.504 24.313 3.306 2.5 8.008 1.848 10.507-1.454 2.499-3.303 1.849-8.007-1.454-10.507-23.642-17.894-51.843-27.352-81.557-27.352-72.069 0-131.15 56.656-135.055 127.767h-113.445c-4.142 0-7.5 3.357-7.5 7.5s3.358 7.5 7.5 7.5h497c4.143 0 7.5-3.357 7.5-7.5s-3.357-7.5-7.5-7.5z"/><path d="m403.693 440.681h-295.386c-4.142 0-7.5 3.357-7.5 7.5s3.358 7.5 7.5 7.5h295.387c4.143 0 7.5-3.357 7.5-7.5s-3.358-7.5-7.501-7.5z"/><path d="m256 126.5c4.143 0 7.5-3.357 7.5-7.5v-39.644c0-4.143-3.357-7.5-7.5-7.5-4.142 0-7.5 3.357-7.5 7.5v39.644c0 4.143 3.358 7.5 7.5 7.5z"/><path d="m299.706 133.271c.659.179 1.32.265 1.972.265 3.301 0 6.325-2.196 7.232-5.535l16.904-62.214c1.086-3.997-1.273-8.118-5.271-9.204-4-1.083-8.117 1.273-9.204 5.271l-16.904 62.214c-1.085 3.996 1.274 8.117 5.271 9.203z"/><path d="m340.107 151.265c1.193.7 2.499 1.032 3.789 1.032 2.573 0 5.079-1.325 6.476-3.705l17.861-30.44c2.096-3.573.899-8.168-2.673-10.265-3.573-2.098-8.168-.9-10.265 2.673l-17.86 30.44c-2.096 3.574-.9 8.168 2.672 10.265z"/><path d="m379.737 181.476c1.893 0 3.787-.712 5.246-2.142l46.064-45.104c2.96-2.897 3.01-7.646.111-10.605-2.897-2.961-7.646-3.012-10.605-.111l-46.064 45.104c-2.96 2.897-3.01 7.646-.111 10.605 1.469 1.501 3.413 2.253 5.359 2.253z"/><path d="m400.118 215.189c1.373 2.458 3.925 3.843 6.554 3.843 1.238 0 2.494-.307 3.651-.954l32.335-18.068c3.616-2.021 4.909-6.59 2.889-10.205-2.02-3.616-6.592-4.912-10.205-2.889l-32.335 18.068c-3.616 2.02-4.909 6.59-2.889 10.205z"/><path d="m415.526 256.645c.85 3.41 3.909 5.688 7.271 5.688.601 0 1.211-.073 1.819-.225l62.556-15.59c4.02-1.002 6.466-5.072 5.464-9.091-1.002-4.02-5.076-6.462-9.091-5.464l-62.556 15.59c-4.018 1.003-6.465 5.073-5.463 9.092z"/><path d="m203.089 128c.907 3.339 3.932 5.535 7.233 5.535.651 0 1.313-.086 1.971-.265 3.998-1.086 6.357-5.207 5.271-9.204l-16.904-62.214c-1.086-3.997-5.205-6.354-9.204-5.271-3.998 1.086-6.357 5.207-5.271 9.204z"/><path d="m161.628 148.592c1.396 2.38 3.902 3.705 6.476 3.705 1.29 0 2.596-.333 3.789-1.032 3.573-2.097 4.77-6.691 2.673-10.265l-19.035-32.44c-2.097-3.573-6.693-4.77-10.264-2.673-3.573 2.097-4.77 6.691-2.673 10.265z"/><path d="m127.017 179.334c1.459 1.43 3.354 2.142 5.247 2.142 1.946 0 3.891-.753 5.359-2.253 2.898-2.96 2.848-7.708-.112-10.605l-46.064-45.104c-2.959-2.899-7.708-2.849-10.606.111s-2.848 7.708.112 10.605z"/><path d="m66.341 198.332 35.335 19.745c1.158.647 2.414.954 3.652.954 2.629 0 5.181-1.385 6.554-3.843 2.021-3.615.727-8.185-2.889-10.205l-35.335-19.745c-3.617-2.022-8.186-.728-10.206 2.889-2.02 3.615-.726 8.185 2.889 10.205z"/><path d="m24.827 246.519 62.556 15.59c.609.152 1.219.225 1.819.225 3.362 0 6.422-2.278 7.271-5.688 1.001-4.02-1.444-8.089-5.464-9.091l-62.556-15.59c-4.017-1.005-8.089 1.444-9.091 5.464-1.001 4.019 1.445 8.088 5.465 9.09z"/><path d="m251.5 343.214c0-4.143-3.358-7.5-7.5-7.5h-202.065c-4.142 0-7.5 3.357-7.5 7.5s3.358 7.5 7.5 7.5h202.065c4.142 0 7.5-3.357 7.5-7.5z"/><path d="m470.064 335.714h-21c-4.143 0-7.5 3.357-7.5 7.5s3.357 7.5 7.5 7.5h21c4.143 0 7.5-3.357 7.5-7.5s-3.357-7.5-7.5-7.5z"/><path d="m303.183 339.059c6.437 7.517 14.55 11.655 23.297 11.655s16.86-4.139 23.297-11.655c6.437 7.517 14.55 11.655 23.297 11.655s16.86-4.139 23.297-11.655c6.437 7.517 14.55 11.655 23.297 11.655 4.143 0 7.5-3.357 7.5-7.5s-3.357-7.5-7.5-7.5c-6.157 0-12.353-5.096-16.574-13.632-1.265-2.557-3.87-4.175-6.723-4.175s-5.458 1.618-6.723 4.175c-4.222 8.536-10.417 13.632-16.574 13.632s-12.353-5.096-16.574-13.632c-1.265-2.557-3.87-4.175-6.723-4.175s-5.458 1.618-6.723 4.175c-4.222 8.536-10.417 13.632-16.574 13.632s-12.353-5.096-16.574-13.632c-1.265-2.557-3.87-4.175-6.723-4.175s-5.458 1.618-6.723 4.175c-4.222 8.536-10.417 13.632-16.574 13.632-4.143 0-7.5 3.357-7.5 7.5s3.357 7.5 7.5 7.5c8.747 0 16.86-4.139 23.297-11.655z"/><path d="m442.961 388.198h-198.097c-4.142 0-7.5 3.357-7.5 7.5s3.358 7.5 7.5 7.5h198.097c4.143 0 7.5-3.357 7.5-7.5s-3.357-7.5-7.5-7.5z"/><path d="m138.93 391.542c6.437 7.517 14.549 11.655 23.297 11.655 8.747 0 16.86-4.14 23.297-11.655 6.437 7.516 14.549 11.655 23.297 11.655 4.142 0 7.5-3.357 7.5-7.5s-3.358-7.5-7.5-7.5c-6.157 0-12.353-5.096-16.574-13.632-1.264-2.557-3.87-4.175-6.723-4.175s-5.458 1.618-6.723 4.175c-4.222 8.536-10.417 13.632-16.574 13.632s-12.353-5.096-16.574-13.632c-1.264-2.557-3.87-4.175-6.723-4.175s-5.458 1.618-6.723 4.175c-4.221 8.536-10.417 13.632-16.574 13.632s-12.353-5.096-16.574-13.632c-1.264-2.557-3.87-4.175-6.723-4.175s-5.458 1.618-6.723 4.175c-4.222 8.536-10.417 13.632-16.574 13.632-4.142 0-7.5 3.357-7.5 7.5s3.358 7.5 7.5 7.5c8.747 0 16.86-4.14 23.297-11.655 6.437 7.516 14.549 11.655 23.297 11.655s16.86-4.138 23.297-11.655z"/></g></g></svg>