<svg id="Capa_1" enable-background="new 0 0 512 512" height="512" viewBox="0 0 512 512" width="512" xmlns="http://www.w3.org/2000/svg"><g><g><g><path d="m7.494 256c0 137.244 111.262 248.506 248.506 248.506s248.505-111.262 248.505-248.506-111.261-248.506-248.505-248.506-248.506 111.262-248.506 248.506zm410.672 121.197c-2.449 3.273-7.211 3.649-10.101.759l-274.022-274.021c-2.89-2.89-2.513-7.653.759-10.101 33.793-25.285 75.746-40.268 121.194-40.268 111.68-.002 202.439 90.756 202.438 202.436 0 45.448-14.983 87.402-40.268 121.195zm-364.601-121.199c0-45.449 14.984-87.402 40.269-121.195 2.449-3.273 7.211-3.649 10.101-.759l274.021 274.021c2.89 2.89 2.513 7.653-.759 10.101-33.793 25.285-75.746 40.268-121.195 40.268-111.679.002-202.437-90.756-202.437-202.436z" fill="#fd8087"/></g><g><path d="m330.541 18.872c90.364 37.2 153.986 126.126 153.986 229.905 0 137.244-111.262 248.506-248.506 248.506-25.912 0-50.886-3.966-74.371-11.318 29.089 11.947 60.955 18.54 94.35 18.54 137.244 0 248.506-111.261 248.506-248.506-.001-111.271-73.143-205.47-173.965-237.127z" fill="#fe646f"/></g></g><g><path d="m348.018 186.864h-184.036c-3.087 0-5.589-2.502-5.589-5.589v-23.177c0-3.087 2.502-5.589 5.589-5.589h184.036c3.087 0 5.589 2.502 5.589 5.589v23.177c0 3.086-2.502 5.589-5.589 5.589z" fill="#7a6d79"/></g><g><path d="m353.606 158.094v23.175c0 3.087-2.497 5.594-5.584 5.594h-20.538c3.087 0 5.594-2.507 5.594-5.594v-23.175c0-3.087-2.507-5.584-5.594-5.584h20.538c3.087 0 5.584 2.498 5.584 5.584z" fill="#685e68"/></g><g><path d="m174.121 186.864 25.137 196.501c.409 3.194 3.127 5.587 6.347 5.587h100.79c3.22 0 5.938-2.393 6.347-5.587l25.137-196.501z" fill="#f9f3f1"/></g><g><path d="m337.883 186.864-25.143 196.5c-.41 3.197-3.127 5.584-6.343 5.584h-21.577c3.217 0 5.934-2.387 6.343-5.584l25.133-196.501h21.587z" fill="#f3eae6"/></g><g><path d="m324.136 123.048h-136.272c-3.435 0-6.371 2.473-6.954 5.858l-4.07 23.602h158.32l-4.07-23.602c-.584-3.385-3.52-5.858-6.954-5.858z" fill="#b5adb6"/></g><g><path d="m335.156 152.51h-20.358l-4.066-23.605c-.589-3.386-3.526-5.854-6.963-5.854h20.368c3.436 0 6.373 2.467 6.953 5.854z" fill="#a79ba7"/></g><g><path d="m437.019 74.981c-48.352-48.352-112.639-74.981-181.019-74.981s-132.667 26.629-181.019 74.981-74.981 112.639-74.981 181.019 26.629 132.667 74.981 181.019 112.639 74.981 181.019 74.981c36.319 0 71.415-7.452 104.316-22.15 31.779-14.197 59.925-34.404 83.657-60.06 2.809-3.038 2.625-7.778-.413-10.587s-7.778-2.624-10.587.413c-22.348 24.161-48.85 43.188-78.769 56.554-30.965 13.833-64.005 20.847-98.204 20.847-64.378 0-124.902-25.07-170.424-70.592s-70.592-106.047-70.592-170.425 25.07-124.902 70.592-170.424 106.046-70.592 170.424-70.592 124.902 25.07 170.424 70.592 70.592 106.046 70.592 170.424c0 49.417-14.845 96.909-42.931 137.338-2.361 3.399-1.52 8.068 1.878 10.427 3.398 2.36 8.068 1.519 10.427-1.878 29.839-42.952 45.61-93.399 45.61-145.887 0-68.38-26.629-132.667-74.981-181.019z"/><path d="m412.771 387.399c.337 0 .675-.012 1.013-.036 4.119-.295 7.903-2.365 10.382-5.677 27.321-36.513 41.761-79.974 41.762-125.684 0-56.015-21.853-108.716-61.534-148.397-39.68-39.679-92.382-61.532-148.396-61.531-45.708 0-89.169 14.441-125.683 41.761-3.313 2.479-5.383 6.263-5.677 10.382-.294 4.097 1.205 8.112 4.109 11.016l19.112 19.113c2.926 2.926 7.67 2.927 10.595.001 2.927-2.926 2.927-7.67.001-10.595l-18.449-18.451c33.754-25.021 73.842-38.242 115.992-38.242 52.012-.001 100.95 20.293 137.801 57.143 36.851 36.849 57.145 85.789 57.145 137.801-.001 42.15-13.222 82.239-38.243 115.993l-53.794-53.793c-2.928-2.927-7.671-2.925-10.596 0-2.926 2.927-2.926 7.669 0 10.596l54.457 54.456c2.663 2.663 6.263 4.144 10.003 4.144z"/><path d="m121.476 162.181c2.927 2.925 7.67 2.925 10.596 0 2.926-2.927 2.926-7.67 0-10.596l-22.838-22.838c-2.905-2.905-6.929-4.405-11.018-4.11-4.119.295-7.903 2.365-10.382 5.678-27.321 36.513-41.761 79.974-41.762 125.684 0 56.015 21.853 108.716 61.533 148.397 39.68 39.679 92.382 61.532 148.397 61.531 45.708 0 89.169-14.441 125.683-41.761 3.313-2.479 5.383-6.263 5.677-10.382.294-4.097-1.205-8.112-4.109-11.017l-34.102-34.102c-2.927-2.925-7.67-2.925-10.596 0-2.926 2.927-2.926 7.669 0 10.596l33.439 33.439c-33.754 25.021-73.842 38.242-115.992 38.242-52.012.001-100.951-20.293-137.802-57.143-36.851-36.849-57.144-85.789-57.144-137.801.001-42.15 13.222-82.239 38.243-115.993z"/><path d="m208.604 130.541c4.138 0 7.492-3.354 7.492-7.492s-3.354-7.492-7.492-7.492h-20.74c-7.102 0-13.132 5.079-14.337 12.076l-2.998 17.384h-6.548c-7.213 0-13.081 5.868-13.081 13.081v23.177c0 7.213 5.868 13.082 13.081 13.082h3.545l24.301 189.957c.883 6.916 6.806 12.131 13.778 12.131h100.789c6.972 0 12.896-5.215 13.778-12.128l24.301-189.96h3.545c7.213 0 13.081-5.869 13.081-13.082v-23.177c0-7.213-5.868-13.081-13.081-13.081h-6.548l-2.998-17.384c-1.206-6.997-7.235-12.076-14.337-12.076h-81.994c-4.138 0-7.492 3.354-7.492 7.492s3.354 7.492 7.492 7.492h81.628l2.495 14.476h-140.53l2.495-14.476zm96.828 250.918h-98.864l-23.935-187.104h146.734zm40.683-221.458v19.371h-180.23v-19.371z"/></g></g></svg>