<svg id="Capa_1" enable-background="new 0 0 512 512" height="512" viewBox="0 0 512 512" width="512" xmlns="http://www.w3.org/2000/svg"><g><g><path d="m47.689 248.849h246.712v145.405h-246.712z" fill="#60b7ff"/><path d="m47.689 248.849h37.712v145.405h-37.712z" fill="#26a6fe"/><path d="m97.746 287.882h146.597v65.552h-146.597z" fill="#fff"/><path d="m127.543 59.537h87.005v41.523h-87.005z" fill="#60b7ff"/><path d="m127.543 60.537h31.453v40.523h-31.453z" fill="#26a6fe"/><g><path d="m230.041 60.537h-117.992c-3.291 0-5.959-2.668-5.959-5.959v-30.988c0-3.291 2.668-5.959 5.959-5.959h117.993c3.291 0 5.959 2.668 5.959 5.959v30.988c0 3.291-2.668 5.959-5.96 5.959z" fill="#80d261"/></g><g><path d="m148.089 54.578v-30.988c0-3.291 2.668-5.959 5.959-5.959h-41.999c-3.291 0-5.959 2.668-5.959 5.959v30.988c0 3.291 2.668 5.959 5.959 5.959h41.999c-3.291 0-5.959-2.668-5.959-5.959z" fill="#4fc123"/></g><g><path d="m298.936 248.849h-255.782c-2.761 0-5-2.239-5-5v-58.897c0-46.332 37.56-83.892 83.892-83.892h97.997c46.332 0 83.892 37.56 83.892 83.892v58.897c.001 2.761-2.238 5-4.999 5z" fill="#8ac9fe"/></g><g><path d="m80 243.849v-58.897c0-46.332 37.56-83.892 83.892-83.892h-41.846c-46.333 0-83.892 37.56-83.892 83.892v58.897c0 2.761 2.239 5 5 5h41.846c-2.761 0-5-2.239-5-5z" fill="#60b7ff"/></g><g><path d="m267.215 494.369h-192.34c-20.28 0-36.721-16.44-36.721-36.721v-58.394c0-2.761 2.239-5 5-5h255.782c2.761 0 5 2.239 5 5v58.394c0 20.281-16.441 36.721-36.721 36.721z" fill="#8ac9fe"/></g><g><path d="m80 457.648v-58.394c0-2.761 2.239-5 5-5h-41.846c-2.761 0-5 2.239-5 5v58.394c0 20.281 16.44 36.721 36.721 36.721h41.846c-20.281 0-36.721-16.44-36.721-36.721z" fill="#60b7ff"/></g><g><g><path d="m450.307 494.369h-89.389l-23.836-137.062h137.062z" fill="#fef1da"/></g><g><path d="m337.082 357.307 23.836 137.062h37.856l-23.836-137.062z" fill="#fae2c0"/></g></g><g><path d="m415.423 250.586-18.938 32.801c-9.793 16.962 2.448 38.164 22.034 38.164 19.586 0 31.827-21.203 22.034-38.164l-18.938-32.801c-1.375-2.384-4.816-2.384-6.192 0z" fill="#8ac9fe"/></g><g><path d="m417.485 283.387 11.534-19.978-7.403-12.823c-1.376-2.384-4.817-2.384-6.193 0l-18.938 32.801c-9.793 16.962 2.448 38.164 22.034 38.164 3.817 0 7.349-.814 10.5-2.236-13.015-5.875-19.419-22.271-11.534-35.928z" fill="#60b7ff"/></g><g><path d="m367.832 184.085-14.121 24.458c-7.302 12.648 1.826 28.457 16.43 28.457 14.604 0 23.732-15.81 16.43-28.457l-14.121-24.458c-1.027-1.778-3.592-1.778-4.618 0z" fill="#8ac9fe"/></g><g><path d="m371.57 208.543 7.5-12.991-6.621-11.468c-1.026-1.777-3.592-1.777-4.618 0l-14.121 24.458c-7.301 12.648 1.826 28.458 16.431 28.458 3.3 0 6.315-.813 8.929-2.208-8.956-4.78-13.152-16.459-7.5-26.249z" fill="#60b7ff"/></g></g><g><path d="m97.746 280.382c-4.143 0-7.5 3.357-7.5 7.5v65.552c0 4.143 3.357 7.5 7.5 7.5h146.598c4.143 0 7.5-3.357 7.5-7.5v-65.552c0-4.143-3.357-7.5-7.5-7.5zm139.098 65.552h-131.598v-50.552h131.598z"/><path d="m141.249 328.157h59.592c4.143 0 7.5-3.357 7.5-7.5s-3.357-7.5-7.5-7.5h-59.592c-4.143 0-7.5 3.357-7.5 7.5s3.357 7.5 7.5 7.5z"/><path d="m389.99 279.637c-5.955 10.314-5.955 22.63-.001 32.943 5.955 10.314 16.62 16.472 28.53 16.472 11.909 0 22.574-6.157 28.529-16.472s5.955-22.629 0-32.943l-18.938-32.8c-1.972-3.417-5.646-5.539-9.592-5.539-3.944 0-7.619 2.122-9.591 5.539v-.001zm28.53-19.414 15.539 26.914c3.243 5.618 3.243 12.325 0 17.943s-9.053 8.972-15.54 8.972c-6.486 0-12.296-3.354-15.539-8.972-3.243-5.617-3.243-12.325.001-17.943z"/><path d="m370.141 244.5c9.569 0 18.14-4.948 22.925-13.235 4.785-8.288 4.785-18.184 0-26.472l-14.12-24.456c-1.81-3.137-5.184-5.085-8.805-5.085s-6.994 1.947-8.804 5.083l-14.121 24.458c-4.785 8.288-4.785 18.184 0 26.472 4.785 8.287 13.355 13.235 22.925 13.235zm-9.935-32.207 9.935-17.207 9.935 17.207c2.073 3.592 2.073 7.88 0 11.472-2.074 3.591-5.787 5.735-9.935 5.735s-7.86-2.145-9.935-5.735c-2.073-3.592-2.073-7.88 0-11.472z"/><path d="m504.5 486.869h-45.277l7.137-41.037c.71-4.081-2.022-7.965-6.104-8.674-4.078-.717-7.965 2.023-8.674 6.104l-7.585 43.607h-76.771l-21.228-122.063h119.228l-7.643 43.948c-.71 4.081 2.022 7.965 6.104 8.674 4.075.711 7.964-2.022 8.674-6.104l8.09-46.519h2.035c4.143 0 7.5-3.357 7.5-7.5s-3.357-7.5-7.5-7.5h-153.748c-4.143 0-7.5 3.357-7.5 7.5s3.357 7.5 7.5 7.5h2.036l21.227 122.063h-51.637c6.882-7.798 11.071-18.027 11.071-29.221v-58.395c0-5.869-4.071-10.793-9.534-12.13v-73.122c0-4.143-3.357-7.5-7.5-7.5s-7.5 3.357-7.5 7.5v72.754h-231.712v-130.405h231.712v22.651c0 4.143 3.357 7.5 7.5 7.5s7.5-3.357 7.5-7.5v-23.022c5.463-1.337 9.534-6.26 9.534-12.13v-16.348h1.142c4.143 0 7.5-3.357 7.5-7.5s-3.357-7.5-7.5-7.5h-1.142v-13h1.142c4.143 0 7.5-3.357 7.5-7.5s-3.357-7.5-7.5-7.5h-1.147c-.242-49.518-40.061-89.848-89.382-90.915v-25.548h7.993c7.422 0 13.46-6.038 13.46-13.459v-30.988c0-7.421-6.038-13.459-13.46-13.459h-117.992c-7.421 0-13.459 6.038-13.459 13.459v30.988c0 7.421 6.038 13.459 13.459 13.459h7.994v25.548c-49.322 1.066-89.141 41.397-89.383 90.915h-1.146c-4.143 0-7.5 3.357-7.5 7.5s3.357 7.5 7.5 7.5h1.141v13h-1.141c-4.143 0-7.5 3.357-7.5 7.5s3.357 7.5 7.5 7.5h1.141v16.349c0 5.87 4.072 10.793 9.535 12.13v131.146c-5.464 1.336-9.535 6.26-9.535 12.13v58.395c0 11.194 4.189 21.423 11.071 29.221h-34.226c-4.143 0-7.5 3.357-7.5 7.5s3.357 7.5 7.5 7.5h497c4.143 0 7.5-3.357 7.5-7.5s-3.357-7.502-7.5-7.502zm-339.5-418.832c4.143 0 7.5-3.357 7.5-7.5s-3.357-7.5-7.5-7.5h-51.41v-27.906h114.911v27.906h-28.501c-4.143 0-7.5 3.357-7.5 7.5s3.357 7.5 7.5 7.5h7.048v25.523h-72.005v-25.523zm-42.954 40.523h97.998c41.97 0 76.135 34.026 76.38 75.94h-250.758c.245-41.915 34.409-75.94 76.38-75.94zm-76.392 90.94h250.781v13h-250.781zm250.782 28v13.849h-250.782v-13.849zm0 230.148c0 16.112-13.108 29.221-29.221 29.221h-192.34c-16.112 0-29.221-13.108-29.221-29.221v-55.895h250.781v55.895z"/></g></g></svg>