<svg id="Capa_1" enable-background="new 0 0 512 512" height="512" viewBox="0 0 512 512" width="512" xmlns="http://www.w3.org/2000/svg"><g><g><circle cx="256" cy="256" fill="#ade194" r="248.517"/></g><g><path d="m274.836 8.191c118.831 18.626 209.728 121.455 209.728 245.504 0 137.248-111.269 248.517-248.517 248.517-6.335 0-12.62-.239-18.836-.708 12.64 1.985 25.59 3.013 38.789 3.013 137.248 0 248.517-111.269 248.517-248.517 0-130.913-101.233-238.181-229.681-247.809z" fill="#97da7b"/></g><g><circle cx="256" cy="256" fill="#f9f3f1" r="201.561"/></g><g><path d="m457.557 256c0 111.319-90.238 201.557-201.557 201.557-29.461 0-57.445-6.325-82.676-17.688 19.744 6.455 40.824 9.947 62.723 9.947 111.319 0 201.557-90.248 201.557-201.567 0-81.818-48.756-152.253-118.791-183.829 80.561 26.397 138.744 102.19 138.744 191.58z" fill="#f3eae6"/></g><g><circle cx="256" cy="256" fill="#fee97d" r="137.09"/></g><g><path d="m393.088 256c0 75.712-61.376 137.088-137.088 137.088-19.115 0-37.312-3.911-53.844-10.984 10.795 2.734 22.108 4.19 33.751 4.19 75.712 0 137.088-61.376 137.088-137.088 0-56.597-34.3-105.183-83.245-126.104 59.391 15.035 103.338 68.828 103.338 132.898z" fill="#fedf30"/></g><g><g><path d="m279.764 298.416 20.905-19.662c6.551-6.161 6.867-16.465.706-23.015-6.161-6.549-16.465-6.866-23.014-.705l-22.361 21.031-22.361-21.031c-6.551-6.161-16.855-5.844-23.014.705-6.161 6.55-5.845 16.854.706 23.015l20.905 19.662-20.905 19.662c-6.551 6.161-6.867 16.465-.706 23.015 3.204 3.406 7.529 5.127 11.863 5.127 3.999 0 8.008-1.465 11.151-4.421l22.361-21.032 22.361 21.031c3.144 2.957 7.151 4.421 11.151 4.421 4.334 0 8.66-1.721 11.863-5.127 6.161-6.55 5.845-16.854-.706-23.015z" fill="#7a6d79"/></g><g><path d="m300.665 318.075c6.556 6.165 6.871 16.466.706 23.022-3.202 3.397-7.522 5.123-11.853 5.123-4.005 0-8.01-1.465-11.158-4.418l-2.811-2.648c4.472-6.512 3.658-15.489-2.269-21.079l-9.172-8.625c-6.36-5.981-6.362-16.085-.003-22.068l9.175-8.632c5.926-5.579 6.741-14.555 2.269-21.068l2.811-2.648c6.556-6.165 16.857-5.84 23.011.705 6.165 6.545 5.85 16.857-.706 23.011l-20.905 19.668z" fill="#685e68"/></g></g><g><path d="m256 111.427c-79.718 0-144.573 64.855-144.573 144.573 0 62.382 39.742 117.52 98.892 137.206 3.922 1.306 8.157-.817 9.462-4.737s-.815-8.157-4.737-9.462c-53.026-17.647-88.652-67.079-88.652-123.006 0-71.466 58.142-129.608 129.608-129.608s129.608 58.141 129.608 129.607-58.142 129.608-129.608 129.608c-2.929 0-5.892-.099-8.806-.295-4.144-.252-7.691 2.841-7.968 6.964s2.841 7.691 6.964 7.968c3.247.218 6.547.328 9.809.328 79.718 0 144.573-64.855 144.573-144.573s-64.854-144.573-144.572-144.573z"/><path d="m444.537 82.822c-2.798-3.044-7.53-3.241-10.573-.446-3.043 2.796-3.242 7.53-.446 10.573 40.959 44.568 63.517 102.474 63.517 163.051 0 64.383-25.072 124.912-70.598 170.437-45.525 45.526-106.054 70.598-170.437 70.598s-124.912-25.072-170.437-70.598c-45.526-45.525-70.598-106.054-70.598-170.437s25.072-124.912 70.598-170.437c45.525-45.526 106.054-70.598 170.437-70.598 55.862 0 110.312 19.546 153.318 55.038 3.184 2.631 7.902 2.179 10.533-1.008 2.63-3.187 2.179-7.903-1.009-10.533-45.679-37.7-103.511-58.462-162.842-58.462-68.38 0-132.667 26.629-181.02 74.98-48.351 48.353-74.98 112.64-74.98 181.02s26.629 132.667 74.98 181.02c48.353 48.351 112.64 74.98 181.02 74.98s132.667-26.629 181.02-74.98c48.351-48.353 74.98-112.64 74.98-181.02 0-64.337-23.958-125.84-67.463-173.178z"/><path d="m256 46.957c-115.267 0-209.043 93.776-209.043 209.043s93.776 209.043 209.043 209.043 209.043-93.776 209.043-209.043-93.776-209.043-209.043-209.043zm0 403.121c-107.015 0-194.078-87.063-194.078-194.078s87.063-194.078 194.078-194.078 194.078 87.063 194.078 194.078-87.063 194.078-194.078 194.078z"/><path d="m273.235 347.248c4.425 4.162 10.206 6.454 16.277 6.454 6.531 0 12.842-2.727 17.314-7.482 4.349-4.624 6.637-10.664 6.443-17.009-.195-6.345-2.849-12.234-7.473-16.582l-15.11-14.212 15.109-14.211c4.625-4.349 7.279-10.238 7.474-16.583.194-6.344-2.094-12.386-6.443-17.01-8.98-9.545-24.048-10.007-33.591-1.029l-17.235 16.209-17.235-16.21c-9.547-8.978-24.616-8.515-33.591 1.029-4.349 4.624-6.637 10.665-6.443 17.01.195 6.345 2.849 12.234 7.473 16.582l15.11 14.212-15.109 14.211c-4.625 4.349-7.279 10.238-7.474 16.583-.194 6.345 2.094 12.385 6.443 17.009 4.474 4.755 10.784 7.482 17.314 7.482 6.073 0 11.854-2.292 16.277-6.454l17.235-16.208zm-44.723-10.9c-3.484 3.276-9.295 2.959-12.438-.382-3.274-3.481-3.084-9.176.383-12.437.016-.015 20.905-19.662 20.905-19.662 1.503-1.414 2.356-3.386 2.356-5.45s-.852-4.036-2.356-5.45l-20.906-19.663c-3.39-3.187-3.596-9.022-.381-12.438 3.325-3.534 8.905-3.704 12.437-.381l22.362 21.032c2.882 2.71 7.371 2.71 10.253 0l22.362-21.032c3.534-3.322 9.113-3.152 12.438.383 3.419 3.635 3.271 9-.384 12.438-.001.001-20.905 19.662-20.905 19.662-1.503 1.414-2.356 3.385-2.356 5.45s.852 4.037 2.356 5.45c0 0 20.858 19.618 20.906 19.663 3.58 3.368 3.695 8.913.382 12.437-3.186 3.386-9.027 3.589-12.438.382-.051-.048-22.362-21.032-22.362-21.032-1.441-1.354-3.283-2.031-5.127-2.031s-3.686.677-5.127 2.031z"/><path d="m207.358 221.525v-19.73c0-4.133-3.35-7.482-7.483-7.482s-7.482 3.349-7.482 7.482v19.73c0 4.133 3.35 7.482 7.482 7.482 4.134.001 7.483-3.349 7.483-7.482z"/><path d="m312.124 229.008c4.133 0 7.482-3.349 7.482-7.482v-19.73c0-4.133-3.35-7.482-7.482-7.482-4.133 0-7.483 3.349-7.483 7.482v19.73c.001 4.132 3.35 7.482 7.483 7.482z"/></g></g></svg>