<svg id="Capa_1" enable-background="new 0 0 512 512" height="512" viewBox="0 0 512 512" width="512" xmlns="http://www.w3.org/2000/svg"><g><g><g><g><path d="m233.421 88.35c-32.376 9.846-54.921 31.845-54.921 57.407 0 13.483 6.278 25.973 16.958 36.213h75.927c10.68-10.24 16.958-22.73 16.958-36.213-.001-25.562-22.545-47.561-54.922-57.407z" fill="#4fc123"/><path d="m195.458 181.97h31.516c-10.687-10.239-16.974-22.727-16.974-36.213 0-21.168 15.469-39.885 39.171-51.289-4.919-2.367-10.185-4.426-15.75-6.118-32.376 9.846-54.921 31.845-54.921 57.407 0 13.483 6.278 25.973 16.958 36.213z" fill="#47a920"/></g><path d="m193.138 368.145c23.712 16.05 51.067 27.12 80.566 31.72v-217.895h-80.566z" fill="#fef1da"/><path d="m193.138 181.97v186.175c9.839 6.66 20.31 12.452 31.296 17.291v-203.466z" fill="#fae2c0"/><g><path d="m244.5 258.748h-22.158c-1.105 0-2-.895-2-2v-28.953c0-7.223 5.856-13.079 13.079-13.079 7.223 0 13.079 5.856 13.079 13.079v28.953c0 1.104-.895 2-2 2z" fill="#80d261"/></g><g><path d="m230.842 256.748v-28.953c0-5.355 3.222-9.951 7.829-11.974-1.608-.706-3.381-1.104-5.25-1.104-7.223 0-13.079 5.856-13.079 13.079v28.953c0 1.104.895 2 2 2h10.5c-1.104-.001-2-.897-2-2.001z" fill="#4fc123"/></g><g><path d="m244.5 336.262h-22.158c-1.105 0-2-.896-2-2v-28.953c0-7.223 5.856-13.079 13.079-13.079 7.223 0 13.079 5.856 13.079 13.079v28.953c0 1.105-.895 2-2 2z" fill="#80d261"/></g><g><path d="m230.842 334.262v-28.953c0-5.355 3.222-9.951 7.829-11.975-1.608-.706-3.381-1.104-5.25-1.104-7.223 0-13.079 5.856-13.079 13.079v28.953c0 1.104.895 2 2 2h10.5c-1.104 0-2-.895-2-2z" fill="#4fc123"/></g></g><g><g><path d="m311.653 279.277h75.927c10.68-10.24 16.958-22.73 16.958-36.213 0-25.561-22.545-47.561-54.921-57.407-32.377 9.846-54.921 31.846-54.921 57.407 0 13.483 6.278 25.973 16.957 36.213z" fill="#4fc123"/><g><path d="m311.654 279.277h31.319c-10.687-10.239-16.973-22.727-16.973-36.213 0-21.197 15.512-39.937 39.269-51.336-4.891-2.347-10.124-4.39-15.652-6.071-32.377 9.846-54.921 31.846-54.921 57.407 0 13.483 6.278 25.973 16.958 36.213z" fill="#47a920"/></g></g><path d="m389.9 383.132v-103.855h-80.566v122.927c28.781-.666 56.051-7.439 80.566-19.072z" fill="#fef1da"/><path d="m340.434 399.038v-119.761h-31.1v122.927c10.593-.245 20.978-1.328 31.1-3.166z" fill="#fae2c0"/><g><path d="m360.696 354.5h-22.158c-1.105 0-2-.895-2-2v-28.953c0-7.223 5.856-13.079 13.079-13.079 7.223 0 13.079 5.856 13.079 13.079v28.953c0 1.105-.895 2-2 2z" fill="#80d261"/></g><g><path d="m346.842 352.5v-28.953c0-5.393 3.266-10.021 7.927-12.022-1.582-.679-3.322-1.057-5.152-1.057-7.223 0-13.079 5.856-13.079 13.079v28.953c0 1.105.896 2 2 2h10.304c-1.104 0-2-.895-2-2z" fill="#4fc123"/></g></g><g><path d="m410.275 116.305c4.533 13.857 9.563 18.887 23.42 23.42 1.851.605 1.851 3.205 0 3.81-13.857 4.533-18.887 9.563-23.42 23.42-.605 1.851-3.205 1.851-3.81 0-4.533-13.857-9.563-18.887-23.42-23.42-1.851-.605-1.851-3.205 0-3.81 13.857-4.533 18.887-9.563 23.42-23.42.605-1.85 3.204-1.85 3.81 0z" fill="#fed402"/></g><g><path d="m397.159 27.045c4.533 13.857 9.563 18.887 23.42 23.42 1.851.605 1.851 3.205 0 3.81-13.857 4.533-18.887 9.563-23.42 23.42-.605 1.851-3.205 1.851-3.81 0-4.533-13.857-9.563-18.887-23.42-23.42-1.851-.605-1.851-3.205 0-3.81 13.857-4.533 18.887-9.563 23.42-23.42.606-1.851 3.205-1.851 3.81 0z" fill="#fed402"/></g><g><path d="m330.288 74.356-14.933 14.933c-.781.781-.781 2.047 0 2.828l14.933 14.933c.781.781 2.047.781 2.828 0l14.933-14.933c.781-.781.781-2.047 0-2.828l-14.933-14.933c-.78-.781-2.047-.781-2.828 0z" fill="#fed402"/></g></g><g><path d="m502.584 225.02c-10.912 99.677-95.367 177.24-197.949 177.24-109.99 0-199.155-89.165-199.155-199.155 0-96.783 69.042-177.429 160.557-195.404-3.329-.132-6.675-.201-10.037-.201-137.243 0-248.5 111.257-248.5 248.5s111.257 248.5 248.5 248.5 248.5-111.257 248.5-248.5c0-10.492-.654-20.83-1.916-30.98z" fill="#fed402"/></g><g><g><path d="m286.5 474c-137.243 0-248.5-111.257-248.5-248.5 0-60.856 21.888-116.592 58.205-159.795-54.229 45.584-88.705 113.908-88.705 190.295 0 137.243 111.257 248.5 248.5 248.5 76.387 0 144.711-34.477 190.295-88.705-43.203 36.317-98.939 58.205-159.795 58.205z" fill="#fac600"/></g></g><g><path d="m233.421 207.216c-11.348 0-20.579 9.231-20.579 20.579v28.953c0 5.238 4.262 9.5 9.5 9.5h22.158c5.238 0 9.5-4.262 9.5-9.5v-28.953c0-11.348-9.231-20.579-20.579-20.579zm5.579 44.032h-11.158v-23.453c0-3.076 2.503-5.579 5.579-5.579s5.579 2.503 5.579 5.579z"/><path d="m233.421 284.729c-11.348 0-20.579 9.231-20.579 20.579v28.953c0 5.238 4.262 9.5 9.5 9.5h22.158c5.238 0 9.5-4.262 9.5-9.5v-28.953c0-11.347-9.231-20.579-20.579-20.579zm5.579 44.033h-11.158v-23.453c0-3.076 2.503-5.579 5.579-5.579s5.579 2.503 5.579 5.579z"/><path d="m329.038 323.547v28.953c0 5.238 4.262 9.5 9.5 9.5h22.158c5.238 0 9.5-4.262 9.5-9.5v-28.953c0-11.348-9.231-20.579-20.579-20.579s-20.579 9.231-20.579 20.579zm26.158 0v23.453h-11.158v-23.453c0-3.076 2.503-5.579 5.579-5.579s5.579 2.503 5.579 5.579z"/><path d="m417.402 113.974c-1.282-3.921-4.913-6.556-9.033-6.556-4.119 0-7.75 2.635-9.032 6.556-3.775 11.541-7.083 14.849-18.624 18.624-3.921 1.282-6.556 4.913-6.556 9.032 0 4.12 2.635 7.751 6.556 9.033 11.541 3.775 14.849 7.083 18.624 18.624 1.282 3.921 4.913 6.556 9.032 6.556 4.12 0 7.751-2.635 9.033-6.556 3.775-11.541 7.083-14.849 18.623-18.623 3.922-1.283 6.558-4.913 6.558-9.034 0-4.12-2.636-7.75-6.557-9.032-11.541-3.776-14.848-7.083-18.624-18.624zm-9.033 38.7c-2.841-4.703-6.34-8.202-11.043-11.044 4.703-2.841 8.202-6.34 11.044-11.043 2.841 4.703 6.34 8.202 11.043 11.043-4.703 2.842-8.202 6.341-11.044 11.044z"/><path d="m367.598 61.402c11.541 3.776 14.849 7.083 18.624 18.624 1.282 3.921 4.913 6.556 9.033 6.556 4.119 0 7.75-2.635 9.033-6.557 3.774-11.54 7.081-14.847 18.623-18.623 3.921-1.282 6.556-4.913 6.556-9.032 0-4.12-2.635-7.751-6.556-9.033-11.542-3.776-14.849-7.083-18.623-18.623-.001-.001-.001-.001-.001-.001-1.282-3.921-4.913-6.556-9.032-6.556-4.12 0-7.751 2.635-9.033 6.556-3.775 11.541-7.083 14.848-18.623 18.623-3.922 1.283-6.558 4.913-6.558 9.034 0 4.12 2.636 7.75 6.557 9.032zm27.656-20.076c2.841 4.703 6.341 8.203 11.044 11.044-4.704 2.841-8.203 6.34-11.044 11.043-2.841-4.704-6.34-8.202-11.044-11.043 4.704-2.842 8.203-6.341 11.044-11.044z"/><path d="m324.984 112.354c1.853 1.852 4.285 2.777 6.719 2.777 2.433 0 4.865-.926 6.718-2.777l14.936-14.937c3.697-3.702 3.697-9.727-.003-13.433l-14.933-14.933c-3.705-3.704-9.731-3.702-13.437 0l-14.933 14.933c-3.704 3.705-3.704 9.731 0 13.437zm6.718-28.806 7.155 7.155-7.155 7.154-7.154-7.154z"/><path d="m510.026 224.094c-.467-3.758-3.661-6.574-7.441-6.574-.019 0-.038 0-.057 0-3.805.028-6.985 2.901-7.399 6.684-5.104 46.622-27.183 89.682-62.167 121.247-10.941 9.872-22.88 18.364-35.562 25.386v-25.837c0-4.143-3.357-7.5-7.5-7.5s-7.5 3.357-7.5 7.5v33.294c-20.6 9.148-42.771 14.625-65.566 16.07v-107.587h65.566v23.223c0 4.143 3.357 7.5 7.5 7.5s7.5-3.357 7.5-7.5v-23.223h3.486c4.143 0 7.5-3.357 7.5-7.5 0-3.36-2.209-6.202-5.253-7.157 5.761-8.95 8.905-18.819 8.905-29.056 0-26.716-21.376-50.934-54.921-62.821v-20.797c0-4.143-3.357-7.5-7.5-7.5s-7.5 3.357-7.5 7.5v20.797c-33.544 11.887-54.921 36.105-54.921 62.821 0 10.237 3.144 20.105 8.905 29.056-3.044.955-5.253 3.797-5.253 7.157 0 4.143 3.357 7.5 7.5 7.5h3.486v107.958c-6.927-.1-13.812-.57-20.63-1.403v-203.862h3.486c4.143 0 7.5-3.357 7.5-7.5 0-3.36-2.209-6.202-5.253-7.157 5.76-8.95 8.905-18.819 8.905-29.056 0-8.695-2.217-17.189-6.59-25.246-1.978-3.641-6.528-4.993-10.169-3.015-3.641 1.976-4.99 6.528-3.015 10.169 3.167 5.837 4.773 11.924 4.773 18.092 0 10.285-4.535 20.184-12.589 28.713h-69.663c-8.054-8.529-12.589-18.428-12.589-28.713 0-20.831 18.533-40.106 47.421-49.544 7.521 2.459 14.451 5.629 20.626 9.438 3.524 2.172 8.146 1.079 10.321-2.446 2.174-3.525 1.079-8.146-2.446-10.321-6.388-3.94-13.438-7.267-21.001-9.946v-20.799c0-4.143-3.357-7.5-7.5-7.5s-7.5 3.357-7.5 7.5v20.797c-33.544 11.888-54.921 36.105-54.921 62.821 0 10.237 3.144 20.106 8.905 29.056-3.045.955-5.253 3.797-5.253 7.157 0 4.143 3.357 7.5 7.5 7.5h3.486v163.86c-22.972-18.208-41.52-41.419-54.168-68.007-1.778-3.74-6.255-5.332-9.994-3.551-3.74 1.779-5.33 6.254-3.551 9.994 16.548 34.789 42.445 64.234 74.893 85.152 33.325 21.484 71.991 32.841 111.817 32.841 51.229 0 100.372-18.884 138.375-53.173 23.073-20.817 40.938-46.273 52.595-74.414-5.845 54.479-29.898 104.947-69.191 144.239-45.52 45.521-106.041 70.589-170.414 70.589s-124.894-25.068-170.413-70.588c-45.519-45.518-70.587-106.039-70.587-170.412 0-64.374 25.068-124.895 70.587-170.413 34.476-34.475 77.551-57.218 124.394-66.225-67.246 34.731-112 105.007-112 183.743 0 18.486 2.456 36.85 7.302 54.581 1.091 3.995 5.217 6.354 9.211 5.258 3.996-1.092 6.35-5.216 5.258-9.211-4.492-16.443-6.771-33.477-6.771-50.628 0-91.376 64.978-170.46 154.502-188.045 3.733-.733 6.326-4.145 6.032-7.938-.293-3.793-3.38-6.766-7.181-6.916-3.471-.137-6.947-.206-10.334-.206-68.38 0-132.668 26.629-181.02 74.98s-74.98 112.64-74.98 181.02 26.629 132.667 74.98 181.02c48.352 48.351 112.64 74.98 181.02 74.98s132.668-26.629 181.02-74.98c48.351-48.353 74.98-112.64 74.98-181.02 0-10.646-.664-21.38-1.974-31.906zm-160.409-30.573c28.887 9.437 47.421 28.713 47.421 49.544 0 10.285-4.535 20.184-12.59 28.713h-69.662c-8.054-8.529-12.59-18.427-12.59-28.713 0-20.832 18.534-40.108 47.421-49.544zm-148.979 170.585v-174.636h65.566v201.421c-23.132-4.711-45.237-13.671-65.259-26.579-.104-.067-.204-.139-.307-.206z"/></g></g></svg>