<svg id="Capa_1" enable-background="new 0 0 512 512" height="512" viewBox="0 0 512 512" width="512" xmlns="http://www.w3.org/2000/svg"><g><g><circle cx="256" cy="256" fill="#ade194" r="248.517"/></g><g><path d="m274.836 8.191c118.831 18.626 209.728 121.455 209.728 245.504 0 137.248-111.269 248.517-248.517 248.517-6.335 0-12.62-.239-18.836-.708 12.64 1.985 25.59 3.013 38.789 3.013 137.248 0 248.517-111.269 248.517-248.517 0-130.913-101.233-238.181-229.681-247.809z" fill="#97da7b"/></g><g><circle cx="256" cy="256" fill="#f9f3f1" r="201.561"/></g><g><path d="m457.557 256c0 111.319-90.238 201.557-201.557 201.557-29.461 0-57.445-6.325-82.676-17.688 19.744 6.455 40.824 9.947 62.723 9.947 111.319 0 201.557-90.248 201.557-201.567 0-81.818-48.756-152.253-118.791-183.829 80.561 26.397 138.744 102.19 138.744 191.58z" fill="#f3eae6"/></g><g><path d="m370.462 274.895h-228.924c-8.326 0-15.075-6.749-15.075-15.075v-7.07c0-8.326 6.749-15.075 15.075-15.075h228.924c8.326 0 15.075 6.749 15.075 15.075v7.07c0 8.326-6.749 15.075-15.075 15.075z" fill="#7a6d79"/></g><g><path d="m385.536 252.748v7.073c0 8.32-6.744 15.075-15.075 15.075h-20.472c8.321 0 15.075-6.754 15.075-15.075v-7.073c0-8.32-6.754-15.075-15.075-15.075h20.472c8.331 0 15.075 6.754 15.075 15.075z" fill="#685e68"/></g><g><path d="m270.405 150.123h-28.809v-38.908c0-7.956 6.449-14.405 14.405-14.405 7.956 0 14.405 6.449 14.405 14.405v38.908z" fill="#7a6d79"/></g><g><path d="m270.406 111.22v38.899h-14.406v-38.899c0-3.981-1.616-7.582-4.22-10.186-.888-.888-1.886-1.656-2.983-2.285 2.115-1.227 4.579-1.936 7.203-1.936 3.971 0 7.582 1.616 10.186 4.22s4.22 6.206 4.22 10.187z" fill="#685e68"/></g><g><path d="m365.199 237.675h-218.398v-4.368c0-60.309 48.89-109.199 109.199-109.199 60.309 0 109.199 48.89 109.199 109.199z" fill="#b5adb6"/></g><g><path d="m365.204 233.303v4.37h-20.482v-1.157c0-30.159-12.221-57.455-31.985-77.219-19.754-19.764-47.06-31.985-77.209-31.985-2.245 0-4.479.07-6.694.209 8.68-2.225 17.788-3.412 27.166-3.412 30.149 0 57.455 12.221 77.219 31.985 19.763 19.754 31.985 47.05 31.985 77.209z" fill="#a79ba7"/></g><g><path d="m437.019 74.98c-48.352-48.351-112.639-74.98-181.019-74.98s-132.667 26.629-181.019 74.98c-48.352 48.353-74.981 112.64-74.981 181.02s26.629 132.667 74.981 181.02c48.352 48.351 112.639 74.98 181.019 74.98s132.667-26.629 181.019-74.98c48.352-48.353 74.981-112.64 74.981-181.02s-26.629-132.667-74.981-181.02zm-10.581 351.457c-45.526 45.526-106.055 70.598-170.438 70.598s-124.912-25.072-170.438-70.598c-45.525-45.525-70.597-106.054-70.597-170.437s25.072-124.912 70.598-170.437c45.525-45.526 106.054-70.598 170.437-70.598s124.912 25.072 170.438 70.598c45.526 45.525 70.598 106.054 70.598 170.437-.001 64.383-25.073 124.912-70.598 170.437z"/><path d="m256 46.957c-115.267 0-209.043 93.776-209.043 209.043 0 60.434 26.149 117.889 71.741 157.633 3.115 2.716 7.842 2.391 10.557-.723 2.716-3.116 2.392-7.842-.723-10.557-42.332-36.901-66.61-90.244-66.61-146.353 0-107.015 87.063-194.078 194.078-194.078s194.078 87.063 194.078 194.078-87.063 194.078-194.078 194.078c-35.338 0-69.925-9.587-100.023-27.725-3.541-2.132-8.138-.993-10.271 2.547s-.993 8.138 2.547 10.271c32.429 19.543 69.688 29.872 107.747 29.872 115.267 0 209.043-93.776 209.043-209.043s-93.776-209.043-209.043-209.043z"/><path d="m269.017 404.347c8.61 0 16.315-3.947 21.402-10.126 4.321 4.831 10.783 8.472 20.487 9.561 2.703.303 6.142.565 9.955.565 8.477 0 18.797-1.296 26.939-6.321 9.076-5.601 9.98-12.9 9.711-16.754-.716-10.233-10.719-19.14-19.711-23.083-3.805-1.668-14.086-4.249-21.737-2.96-4.075.688-6.821 4.548-6.134 8.624.687 4.073 4.547 6.821 8.623 6.133 3.862-.652 11.269 1.045 13.236 1.908 5.848 2.565 10.604 7.709 10.794 10.424.078 1.121-1.622 2.345-2.641 2.975-5.743 3.545-15.973 4.896-27.366 3.619-12.311-1.382-15.871-7.505-15.871-27.304v-53.772c0-4.133-3.35-7.482-7.482-7.482s-7.482 3.35-7.482 7.482l.028 68.801c0 7.029-5.719 12.748-12.748 12.748s-12.748-5.719-12.748-12.748c0-4.133-3.35-7.483-7.482-7.483s-7.482 3.35-7.482 7.483c-.004 15.279 12.428 27.71 27.709 27.71z"/><path d="m161.933 357.257c-4.132 0-7.482 3.35-7.482 7.482v5.644c0 18.728 15.237 33.964 33.965 33.964s33.964-15.237 33.964-33.964v-62.55c0-4.133-3.35-7.482-7.482-7.482s-7.482 3.35-7.482 7.482v62.55c0 10.476-8.523 18.999-18.999 18.999s-19-8.523-19-18.999v-5.644c-.002-4.133-3.352-7.482-7.484-7.482z"/><path d="m245.389 313.513c6.346 5.385 11.192 12.37 14.012 20.203 1.099 3.051 3.975 4.949 7.041 4.949.841 0 1.698-.143 2.535-.444 3.888-1.4 5.905-5.687 4.505-9.575-3.706-10.29-10.072-19.468-18.409-26.543-3.151-2.674-7.873-2.286-10.547.864-2.674 3.151-2.288 7.873.863 10.546z"/><path d="m256 89.328c-12.069 0-21.887 9.819-21.887 21.887v7.479c-52.958 10.092-93.34 56.088-94.753 111.606-11.42 1.099-20.38 10.747-20.38 22.45v7.07c0 12.439 10.119 22.557 22.557 22.557h228.924c12.438 0 22.557-10.119 22.557-22.557v-7.07c0-11.704-8.961-21.352-20.381-22.45-.437-17.616-4.708-34.463-12.726-50.117-1.884-3.678-6.393-5.128-10.071-3.249-3.678 1.884-5.133 6.393-3.249 10.071 6.91 13.491 10.631 28.006 11.078 43.188h-203.339c1.65-54.653 46.624-98.602 101.67-98.602 27.17 0 52.713 10.581 71.925 29.792 2.921 2.921 7.659 2.921 10.582 0 2.922-2.923 2.922-7.66 0-10.582-16.786-16.788-37.789-27.822-60.619-32.131v-7.456c-.001-12.068-9.819-21.886-21.888-21.886zm114.462 155.829c4.186 0 7.593 3.406 7.593 7.593v7.07c0 4.187-3.406 7.593-7.593 7.593h-228.924c-4.186 0-7.593-3.406-7.593-7.593v-7.07c0-4.186 3.406-7.593 7.593-7.593zm-107.54-128.322c-2.296-.134-4.603-.209-6.922-.209-2.324 0-4.631.076-6.922.211v-5.622c0-3.817 3.106-6.922 6.922-6.922 3.817 0 6.922 3.105 6.922 6.922z"/></g></g></svg>