<svg id="Capa_1" enable-background="new 0 0 512 512" height="512" viewBox="0 0 512 512" width="512" xmlns="http://www.w3.org/2000/svg"><g><g><g><path d="m307.221 342.48c-2.065-2.713-3.266-6.085-3.266-9.68v-30.549c-11.035 4.873-23.229 7.602-36.068 7.602h-23.773c-12.839 0-25.033-2.728-36.068-7.602v30.549c0 7.209-4.826 13.526-11.781 15.422l-119.85 32.673c-18.548 5.056-31.415 21.901-31.415 41.125v77.152c0 2.943 2.385 5.328 5.328 5.328h60.672z" fill="#ea9b58"/></g><path d="m208.046 302.252v30.548c0 7.209-4.826 13.526-11.781 15.422l-119.85 32.673c-18.548 5.056-31.415 21.901-31.415 41.125v77.152c0 2.943 2.385 5.328 5.328 5.328h23.672v-76.146c0-10.861 7.27-20.378 17.748-23.234l133.517-36.398c6.955-1.896 11.781-8.213 11.781-15.422v-43.749c-10.251-.802-20.012-3.33-29-7.299z" fill="#d88a55"/><g><path d="m467 499.172v-77.152c0-19.224-12.868-36.07-31.415-41.126l-119.85-32.672c-3.488-.951-6.439-3.014-8.515-5.742l-196.219 162.02h350.672c2.942 0 5.327-2.385 5.327-5.328z" fill="#fef1da"/></g><g><path d="m467 499.172v-77.152c0-19.224-12.868-36.07-31.415-41.126l-119.85-32.672c-3.488-.951-6.439-3.014-8.515-5.742l-196.219 162.02h350.672c2.942 0 5.327-2.385 5.327-5.328z" fill="#fef1da"/></g><g><path d="m315.736 348.223c-3.488-.951-6.439-3.014-8.515-5.743l-196.221 162.02h31l185.411-153.095z" fill="#fae2c0"/></g><path d="m385.688 367.292-32.092-8.749-170.596 145.957h40l162.687-137.208z" fill="#fff"/><g><path d="m467 499.172v-77.152c0-19.224-12.868-36.07-31.415-41.126l-49.899-13.603-162.685 137.209h238.672c2.942 0 5.327-2.385 5.327-5.328z" fill="#fef1da"/></g><g><path d="m385.687 367.292-162.687 137.208h36l153.893-129.792z" fill="#fae2c0"/></g></g><g><path d="m137.827 155.93h16.882v-31.697c0-15.593 12.64-28.233 28.233-28.233h146.117c15.593 0 28.233 12.64 28.233 28.233v31.697h16.882c2.414 0 4.745.351 6.951.994v-87.801c0-34.033-27.589-61.623-61.622-61.623h-127.005c-34.033 0-61.622 27.589-61.622 61.623v87.801c2.206-.643 4.537-.994 6.951-.994z" fill="#554e56"/><path d="m137.827 155.93h16.882v-31.697c0-15.593 12.64-28.233 28.233-28.233h.058v-26.877c0-34.034 27.589-61.623 61.622-61.623h-52.125c-34.033 0-61.622 27.589-61.622 61.623v87.801c2.207-.643 4.538-.994 6.952-.994z" fill="#433f43"/><g fill="#ea9b58"><path d="m154.709 191.147v-35.217h-16.882c-13.711 0-24.826 11.115-24.826 24.826v18.868c0 13.711 11.115 24.826 24.826 24.826h23.972c-4.543-10.175-7.09-21.438-7.09-33.303z"/><path d="m374.174 155.93h-16.882v35.217c0 11.865-2.547 23.128-7.091 33.303h23.972c13.711 0 24.826-11.115 24.826-24.826v-18.868c.001-13.711-11.114-24.826-24.825-24.826z"/></g><path d="m350.202 224.451c-12.756 28.567-41.393 48.488-74.701 48.488h-39c-33.308 0-61.945-19.921-74.701-48.488h-6.997c2.094 47.519 41.276 85.403 89.311 85.403h23.773c48.035 0 87.217-37.884 89.311-85.403z" fill="#554e56"/><path d="m196.486 262.476c-15.272-8.586-27.499-21.928-34.687-38.025h-6.997c2.094 47.519 41.276 85.403 89.311 85.403h23.773c1.26 0 2.512-.033 3.759-.084-32.59-1.35-60.67-20.147-75.159-47.294z" fill="#433f43"/><g><path d="m275.501 272.939h-39.001c-45.172 0-81.791-36.619-81.791-81.792v-66.914c0-15.593 12.64-28.233 28.233-28.233h146.117c15.593 0 28.233 12.64 28.233 28.233v66.914c0 45.173-36.619 81.792-81.791 81.792z" fill="#ea9b58"/></g><g><path d="m186 191.147v-66.914c0-15.593 12.64-28.233 28.233-28.233h-31.291c-15.593 0-28.233 12.64-28.233 28.233v66.914c0 45.172 36.619 81.792 81.791 81.792h31.291c-45.172 0-81.791-36.62-81.791-81.792z" fill="#d88a55"/></g></g><g><path d="m467 445.5c4.142 0 7.5-3.357 7.5-7.5v-15.98c0-22.544-15.191-42.431-36.942-48.361l-119.85-32.672c-3.682-1.004-6.253-4.37-6.253-8.186v-25.817c28.349-14.333 48.749-42.186 52.651-75.032h10.068c17.825 0 32.326-14.502 32.326-32.327v-18.868c0-12.632-7.287-23.588-17.875-28.903v-24.854c0-4.143-3.358-7.5-7.5-7.5s-7.5 3.357-7.5 7.5v21.43h-8.833v-24.196c0-19.703-16.03-35.733-35.733-35.733h-146.117c-19.703 0-35.733 16.03-35.733 35.733v24.196h-8.833v-79.307c0-29.844 24.279-54.123 54.123-54.123h127.005c29.843 0 54.123 24.279 54.123 54.123v22.877c0 4.143 3.358 7.5 7.5 7.5s7.5-3.357 7.5-7.5v-22.877c-.002-38.114-31.01-69.123-69.124-69.123h-127.005c-38.114 0-69.123 31.009-69.123 69.123v82.729c-10.588 5.315-17.875 16.271-17.875 28.903v18.868c0 17.825 14.501 32.327 32.326 32.327h10.068c3.903 32.846 24.302 60.699 52.651 75.032v25.818c0 3.816-2.572 7.183-6.253 8.187l-119.85 32.672c-21.751 5.929-36.942 25.816-36.942 48.361v77.152c0 7.073 5.755 12.828 12.828 12.828h411.345c7.073 0 12.828-5.755 12.828-12.828v-26.172c0-4.143-3.358-7.5-7.5-7.5s-7.5 3.357-7.5 7.5v24h-215.975l143.986-121.437 46.1 12.567c15.242 4.155 25.888 18.091 25.888 33.889v15.981c0 4.143 3.358 7.5 7.5 7.5zm-102.208-282.07h9.382c9.554 0 17.326 7.772 17.326 17.326v18.868c0 9.555-7.772 17.327-17.326 17.327h-9.382zm-217.583 53.521h-9.382c-9.554 0-17.326-7.772-17.326-17.327v-18.868c0-9.554 7.772-17.326 17.326-17.326h9.382zm15-92.718c0-11.433 9.301-20.733 20.733-20.733h146.117c11.432 0 20.733 9.301 20.733 20.733v66.914c0 40.964-33.327 74.291-74.292 74.291h-39c-40.964 0-74.291-33.327-74.291-74.291zm4.3 122.295c16.369 20.645 41.659 33.911 69.991 33.911h39c28.332 0 53.622-13.266 69.992-33.911-10.915 32.41-41.561 55.826-77.605 55.826h-23.773c-36.044 0-66.69-23.416-77.605-55.826zm-55.509 192.926c-4.142 0-7.5 3.357-7.5 7.5v50.046h-51v-74.98c0-15.799 10.646-29.734 25.888-33.889l119.851-32.673c10.191-2.778 17.308-12.096 17.308-22.658v-19.769c9.037 2.795 18.625 4.323 28.568 4.323h23.773c9.943 0 19.531-1.528 28.568-4.323v19.77c0 2.693.468 5.303 1.327 7.747l-179.283 148.033v-41.627c0-4.142-3.357-7.5-7.5-7.5zm109.26 57.546h-16.956l69.578-59.529c3.147-2.693 3.516-7.428.823-10.575-2.693-3.146-7.428-3.516-10.575-.823l-82.901 70.927h-48.366l175.142-144.616c2.039 1.352 4.307 2.406 6.758 3.075l24.192 6.595-48.23 41.264c-3.147 2.693-3.516 7.428-.823 10.575 1.483 1.733 3.586 2.624 5.702 2.624 1.725 0 3.459-.592 4.873-1.801l55.977-47.893 14.475 3.946z"/><path d="m252.525 215.926h11.917c6.874 0 12.465-5.592 12.465-12.465v-7.944c0-4.143-3.358-7.5-7.5-7.5s-7.5 3.357-7.5 7.5v5.409h-9.382c-1.34 0-2.431-1.091-2.431-2.431v-36.654c0-4.143-3.358-7.5-7.5-7.5s-7.5 3.357-7.5 7.5v36.654c0 9.611 7.82 17.431 17.431 17.431z"/><path d="m201.879 154.252c-4.142 0-7.5 3.357-7.5 7.5v13.827c0 4.143 3.358 7.5 7.5 7.5s7.5-3.357 7.5-7.5v-13.827c0-4.143-3.358-7.5-7.5-7.5z"/><path d="m310.122 154.252c-4.142 0-7.5 3.357-7.5 7.5v13.827c0 4.143 3.358 7.5 7.5 7.5s7.5-3.357 7.5-7.5v-13.827c0-4.143-3.358-7.5-7.5-7.5z"/><path d="m228.744 134c0-4.143-3.358-7.5-7.5-7.5h-39.722c-4.142 0-7.5 3.357-7.5 7.5s3.358 7.5 7.5 7.5h39.722c4.142 0 7.5-3.357 7.5-7.5z"/><path d="m290.757 141.5h39.722c4.142 0 7.5-3.357 7.5-7.5s-3.358-7.5-7.5-7.5h-39.722c-4.142 0-7.5 3.357-7.5 7.5s3.358 7.5 7.5 7.5z"/><path d="m218.83 224.768c-2.929 2.93-2.929 7.678 0 10.607 10.248 10.248 23.709 15.372 37.171 15.372s26.923-5.124 37.171-15.372c2.929-2.93 2.929-7.678 0-10.607-2.929-2.928-7.678-2.928-10.606 0-14.647 14.648-38.481 14.648-53.129 0-2.93-2.928-7.679-2.928-10.607 0z"/></g></g></svg>