<svg id="Capa_1" enable-background="new 0 0 512 512" height="512" viewBox="0 0 512 512" width="512" xmlns="http://www.w3.org/2000/svg"><g><g><g><g><g><path d="m144.905 171.814v34.025c0 21.628 17.533 39.161 39.161 39.161 21.628 0 39.161-17.533 39.161-39.161v-34.025z" fill="#cbc4cc"/></g><g><path d="m176 205.839v-34.025h-31.095v34.025c0 21.628 17.533 39.161 39.161 39.161 5.525 0 10.78-1.15 15.547-3.215-13.891-6.017-23.613-19.843-23.613-35.946z" fill="#b5adb6"/></g></g><path d="m164.055 372.45v56.813c12.629 6.237 26.029 11.142 40.021 14.51v-111.344z" fill="#8ac9fe"/><path d="m164.055 372.45v56.813c6.769 3.343 13.758 6.307 20.945 8.851v-86.608z" fill="#60b7ff"/></g><g><path d="m300.234 307.751c-11.052 0-20.011 8.959-20.011 20.011v118.847c13.887-2.249 27.287-5.967 40.021-11.019v-107.828c.001-11.051-8.959-20.011-20.01-20.011z" fill="#8ac9fe"/><path d="m310.622 310.683c-3.031-1.848-6.579-2.932-10.388-2.932-11.052 0-20.011 8.959-20.011 20.011v118.847c7.06-1.143 13.993-2.666 20.777-4.555v-114.292c0-7.242 3.86-13.566 9.622-17.079z" fill="#60b7ff"/><g fill="#cbc4cc"><path d="m353.377 183.129-61.113 61.113c2.6.496 5.261.758 7.97.758 27.852 0 50.708-27.189 53.143-61.871z"/><path d="m300.234 108.994c-29.475 0-53.37 30.446-53.37 68.003 0 14.933 3.787 28.732 10.191 39.95l83.894-83.894c-9.789-14.711-24.392-24.059-40.715-24.059z"/></g><g><path d="m278 176.997c0-30.656 15.922-56.565 37.802-65.055-4.926-1.911-10.151-2.948-15.568-2.948-29.475 0-53.37 30.446-53.37 68.003 0 14.933 3.787 28.732 10.191 39.95l22.688-22.688c-1.133-5.513-1.743-11.296-1.743-17.262z" fill="#b5adb6"/></g></g></g><path d="m423.25 377.5c-7.507 0-14.767-1.039-21.667-2.945-35.369 45.343-90.499 74.556-152.329 74.556-45.296 0-86.994-15.684-119.965-41.896l271.181-271.181c18.361 23.096 31.546 50.477 37.803 80.374 21.936 4.103 40.765 17.006 52.676 34.921-2.49-131.359-109.739-237.083-241.695-237.083-133.517 0-241.754 108.237-241.754 241.754s108.237 241.754 241.754 241.754c93.792 0 175.108-53.413 215.193-131.48-12.081 7.124-26.157 11.226-41.197 11.226zm-367.107-121.5c0-106.482 86.63-193.112 193.112-193.112 45.296 0 86.994 15.683 119.965 41.896l-271.182 271.181c-26.212-32.972-41.895-74.669-41.895-119.965z" fill="#fd4755"/><g><g><path d="m270.246 496.754c-133.517 0-241.754-108.237-241.754-241.754 0-126.073 96.509-229.587 219.676-240.74-133.016.586-240.668 108.586-240.668 241.74 0 133.517 108.237 241.754 241.754 241.754 7.445 0 14.805-.355 22.078-1.014-.363.002-.723.014-1.086.014z" fill="#fb2b3a"/></g></g><g><g><circle cx="423.25" cy="296.25" fill="#80d261" r="81.25"/></g><g><path d="m362.5 296.25c0-41.399 30.969-75.541 71-80.584-3.36-.423-6.776-.666-10.25-.666-44.873 0-81.25 36.377-81.25 81.25s36.377 81.25 81.25 81.25c3.474 0 6.89-.243 10.25-.666-40.031-5.043-71-39.185-71-80.584z" fill="#4fc123"/></g><g><circle cx="423.25" cy="296.25" fill="#fff" r="51.25"/></g><g><path d="m398 296.25c0-23.812 16.242-43.827 38.25-49.582-4.152-1.086-8.508-1.668-13-1.668-28.305 0-51.25 22.945-51.25 51.25s22.945 51.25 51.25 51.25c4.492 0 8.848-.582 13-1.668-22.008-5.755-38.25-25.77-38.25-49.582z" fill="#f3f0f3"/></g></g><g><path d="m376.707 104.358c-.121-2.134-1.147-4.115-2.82-5.445-35.816-28.474-78.913-43.524-124.632-43.524-52.235 0-101.729 20.046-139.364 56.445-37.541 36.308-59.241 84.926-61.103 136.897-.148 4.14 3.087 7.615 7.227 7.764 4.114.11 7.615-3.088 7.764-7.227 1.722-48.076 21.802-93.055 56.54-126.652 5.466-5.287 11.203-10.199 17.177-14.727-.054.362-.09.729-.09 1.105v96.845c0 23.176 16.986 42.451 39.161 46.05v34.941l-77.752 77.752c-17.483-24.166-28.919-52.229-33.216-81.665-.599-4.099-4.408-6.931-8.504-6.338-4.099.598-6.937 4.405-6.338 8.504 5.083 34.824 19.402 67.865 41.412 95.549 1.33 1.673 3.311 2.699 5.444 2.821.143.008.285.012.427.012 1.983 0 3.893-.786 5.303-2.196l271.181-271.181c1.509-1.512 2.304-3.596 2.183-5.73zm-224.302 101.481v-26.524h63.322v26.524c0 17.458-14.203 31.661-31.661 31.661s-31.661-14.203-31.661-31.661zm106.854-1.702c-3.125-8.167-4.895-17.383-4.895-27.14 0-33.361 20.577-60.503 45.87-60.503 11.878 0 22.705 6.003 30.86 15.808zm82.391-82.391c-10.871-12.553-25.427-20.252-41.416-20.252-33.563 0-60.87 33.87-60.87 75.503 0 14.055 3.122 27.218 8.537 38.498l-56.335 56.335v-19.941c22.175-3.599 39.161-22.874 39.161-46.05v-96.845c0-4.143-3.358-7.5-7.5-7.5s-7.5 3.357-7.5 7.5v55.32h-11.107v-55.32c0-4.143-3.358-7.5-7.5-7.5s-7.5 3.357-7.5 7.5v55.32h-11.107v-55.32c0-4.143-3.358-7.5-7.5-7.5s-7.5 3.357-7.5 7.5v55.32h-11.107v-55.32c0-3.667-2.633-6.714-6.111-7.366 30.289-20.304 65.876-31.239 102.96-31.239 39.474 0 76.84 12.132 108.586 35.167z"/><path d="m498.408 249.104c-1.727-63.995-27.456-123.905-72.905-169.354-47.077-47.077-109.67-73.004-176.249-73.004s-129.171 25.927-176.249 73.005c-47.078 47.077-73.005 109.671-73.005 176.249s25.927 129.172 73.005 176.249c47.078 47.078 109.671 73.005 176.25 73.005s129.171-25.927 176.249-73.005c18.163-18.163 33.169-38.639 44.761-60.759 25.045-15.707 41.735-43.559 41.735-75.24 0-17.311-4.987-33.476-13.592-47.146zm-83.511 172.539c-44.245 44.245-103.071 68.611-165.643 68.611s-121.398-24.366-165.643-68.611c-44.244-44.245-68.611-103.072-68.611-165.643s24.367-121.398 68.612-165.643 103.071-68.611 165.643-68.611 121.398 24.366 165.643 68.611c38.016 38.016 61.335 86.802 67.151 139.476-10.551-9.352-23.337-16.233-37.445-19.73-6.655-28.506-19.548-55.196-38.261-78.735-1.33-1.673-3.311-2.699-5.444-2.821-2.132-.118-4.218.673-5.729 2.185l-271.184 271.18c-1.511 1.512-2.306 3.596-2.185 5.729.122 2.135 1.147 4.115 2.82 5.445 35.817 28.474 78.914 43.524 124.632 43.524 62.471 0 118.345-28.719 155.165-73.629 6.073 1.319 12.372 2.019 18.832 2.019 8.211 0 16.164-1.126 23.716-3.223-9.104 14.252-19.822 27.619-32.069 39.866zm-94.652-36.143c-4.142 0-7.5 3.357-7.5 7.5v37.41c-8.094 2.957-16.449 5.363-25.021 7.178v-109.826c0-6.897 5.612-12.51 12.511-12.51s12.511 5.612 12.511 12.51v30.238c0 4.143 3.358 7.5 7.5 7.5s7.5-3.357 7.5-7.5v-30.238c0-12.569-8.476-23.188-20.011-26.462v-49.393c27.519-4.216 49.395-31.29 52.87-65.397l39.096-39.096c13.364 18.418 23.041 38.732 28.824 60.248-1.745-.103-3.503-.161-5.273-.161-48.937 0-88.75 39.813-88.75 88.75 0 36.769 22.478 68.386 54.413 81.836-16.888 19.295-37.693 35.073-61.168 46.077v-31.164c-.002-4.143-3.36-7.5-7.502-7.5zm-47.522-57.738v112.355c-7.689.975-15.519 1.495-23.469 1.495-12.822 0-25.42-1.288-37.677-3.806v-102.27l81.157-81.157v46.921c-11.534 3.273-20.011 13.893-20.011 26.462zm38.729-92.102 28.533-28.533c-6.122 14.001-16.365 24.482-28.533 28.533zm-114.875 114.875v83.521c-8.556-2.529-16.912-5.68-25.021-9.444v-49.056zm-40.021 40.022v26.231c-5.433-3.159-10.736-6.605-15.888-10.343zm266.694-20.557c-40.666 0-73.75-33.084-73.75-73.75s33.084-73.75 73.75-73.75 73.75 33.084 73.75 73.75-33.084 73.75-73.75 73.75z"/><path d="m423.25 237.5c-32.395 0-58.75 26.355-58.75 58.75s26.355 58.75 58.75 58.75c24.491 0 46.644-15.433 55.125-38.402 1.435-3.886-.552-8.198-4.438-9.634s-8.199.553-9.633 4.438c-6.316 17.106-22.814 28.598-41.054 28.598-24.124 0-43.75-19.626-43.75-43.75s19.626-43.75 43.75-43.75c18.44 0 34.998 11.664 41.203 29.024 1.394 3.9 5.687 5.931 9.587 4.538 3.9-1.395 5.932-5.687 4.538-9.587-8.332-23.312-30.567-38.975-55.328-38.975z"/><path d="m423.25 259c-4.142 0-7.5 3.357-7.5 7.5v22.497c-3.231.835-5.622 3.761-5.622 7.253 0 3.526 2.436 6.475 5.714 7.277.542 3.61 3.647 6.38 7.407 6.38 3.683 0 6.74-2.657 7.373-6.157h17.523c4.142 0 7.5-3.357 7.5-7.5s-3.358-7.5-7.5-7.5h-17.395v-22.25c0-4.143-3.358-7.5-7.5-7.5z"/></g></g></svg>