<svg id="Capa_1" enable-background="new 0 0 512 512" height="512" viewBox="0 0 512 512" width="512" xmlns="http://www.w3.org/2000/svg"><g><g><path d="m48.366 198.947v281.469c0 13.304 10.785 24.089 24.089 24.089h367.091c13.304 0 24.089-10.785 24.089-24.089v-281.469z" fill="#fee97d"/></g><g><path d="m463.635 198.944v281.468c0 13.303-10.785 24.088-24.088 24.088h-19.99c13.303 0 24.088-10.785 24.088-24.088v-281.468z" fill="#fedf30"/></g><g><path d="m256 22.661-207.634 176.286 207.634 195.957 207.634-195.957z" fill="#fff5c6"/></g><g><path d="m463.635 198.944-13.963 13.173-193.672-164.437-193.672 164.437-13.963-13.173 207.635-176.281z" fill="#fef0ae"/></g><g><path d="m408.331 251.139v-237.992c0-3.121-2.53-5.651-5.651-5.651h-293.36c-3.121 0-5.651 2.53-5.651 5.651v237.992l152.331 143.765z" fill="#f9f3f1"/></g><g><path d="m408.333 13.157v237.98l-152.333 143.768-16.262-15.352 138.989-130.155c6.135-5.745 9.616-13.774 9.616-22.179v-214.071c0-3.119-2.529-5.647-5.657-5.647h19.99c3.124-.001 5.657 2.532 5.657 5.656z" fill="#efe2dd"/></g><g><path d="m256 213.353-24.218 20.506c-2.44 2.066-3.848 5.102-3.848 8.3v28.92c0 5.665 6.684 8.68 10.93 4.931l12.782-11.284c2.487-2.195 6.219-2.195 8.706 0l12.782 11.284c4.247 3.749 10.93.734 10.93-4.931v-28.92c0-3.198-1.407-6.233-3.848-8.3z" fill="#ade194"/></g><g><path d="m249.719 235.452-80.671-80.671c-3.469-3.469-3.469-9.093 0-12.562l80.671-80.671c3.469-3.469 9.093-3.469 12.562 0l80.671 80.671c3.469 3.469 3.469 9.093 0 12.562l-80.671 80.671c-3.469 3.468-9.093 3.468-12.562 0z" fill="#fee97d"/></g><g><path d="m342.956 154.776-80.679 80.679c-3.468 3.468-9.085 3.468-12.554 0l-4.078-4.078 76.591-76.601c3.468-3.468 3.468-9.086 0-12.554l-76.591-76.601 4.078-4.078c3.468-3.468 9.086-3.468 12.554 0l80.679 80.679c3.468 3.469 3.468 9.086 0 12.554z" fill="#fedf30"/></g><g><path d="m265.141 95.407h43.951v43.951h-43.951z" fill="#ade194" transform="matrix(.707 .707 -.707 .707 167.097 -168.642)"/></g><g><path d="m290.113 85.082h14.647v43.956h-14.647z" fill="#97da7b" transform="matrix(.707 -.707 .707 .707 11.351 241.542)"/></g><g><path d="m202.986 95.407h43.951v43.951h-43.951z" fill="#ade194" transform="matrix(.707 .707 -.707 .707 148.892 -124.691)"/></g><g><path d="m265.141 157.563h43.951v43.951h-43.951z" fill="#ade194" transform="matrix(.707 .707 -.707 .707 211.047 -150.437)"/></g><g><path d="m275.498 182.575h43.956v14.647h-43.956z" fill="#97da7b" transform="matrix(.707 -.707 .707 .707 -47.15 265.968)"/></g><g><path d="m203.076 157.473h43.951v43.951h-43.951z" fill="#ade194" transform="matrix(.707 .707 -.707 .707 192.805 -106.576)"/></g><g><path d="m456.369 497.643c-4.338 4.238-10.265 6.857-16.821 6.857h-367.096c-6.557 0-12.484-2.619-16.821-6.857l188.529-177.92c6.647-6.273 17.033-6.273 23.681 0z" fill="#fedf30"/></g><g><path d="m456.369 497.643c-4.338 4.238-10.265 6.857-16.821 6.857h-4.628l-188.075-177.501c-1.879-1.769-4.048-3.048-6.357-3.818l3.668-3.458c6.647-6.277 17.041-6.277 23.688 0z" fill="#fac600"/></g><g><path d="m256 51.449c-4.375 0-8.488 1.704-11.582 4.797l-80.671 80.671c-3.094 3.094-4.797 7.207-4.797 11.582s1.704 8.488 4.797 11.582l65.826 65.826-2.635 2.231c-4.131 3.498-6.5 8.608-6.5 14.02v28.92c0 5.607 3.175 10.523 8.287 12.829 1.892.853 3.875 1.271 5.836 1.271 3.34 0 6.617-1.212 9.265-3.55l12.174-10.747 12.174 10.748c4.203 3.713 9.99 4.584 15.101 2.279 5.112-2.306 8.287-7.222 8.287-12.829v-28.92c0-5.412-2.369-10.523-6.499-14.02l-2.635-2.231 41.068-41.068c.002-.002 24.758-24.758 24.758-24.758 3.094-3.094 4.797-7.207 4.797-11.582s-1.704-8.488-4.797-11.582l-80.671-80.671c-3.095-3.094-7.208-4.798-11.583-4.798zm-31.038 45.457 20.476 20.476-20.477 20.477-20.476-20.477zm10.69 51.465 20.387-20.387 20.476 20.477-20.386 20.386zm40.863 62.245-19.535 19.535c-.336.336-.718.407-.98.407s-.645-.071-.98-.407l-19.496-19.496 20.515-20.515zm-102.167-61.137c-.336-.335-.406-.719-.406-.98 0-.262.07-.645.406-.98l19.535-19.535 20.476 20.476-20.515 20.515zm50.703 50.446-20.477-20.477 20.477-20.476 20.477 20.476zm51.518 69.116-11.254-9.935c-5.311-4.689-13.32-4.689-18.63 0l-11.255 9.936v-26.884c0-.996.436-1.936 1.196-2.579l3.584-3.035 4.208 4.208c3.094 3.093 7.207 4.797 11.582 4.797s8.488-1.704 11.582-4.797l4.208-4.208 3.584 3.035c.759.643 1.195 1.583 1.195 2.579zm10.548-69.026-20.476-20.476 20.477-20.477 20.477 20.477zm50.535-52.495c.336.335.406.718.406.98 0 .261-.07.645-.406.98l-19.457 19.457-20.476-20.476 20.437-20.437zm-30.098-30.098-20.438 20.438-20.477-20.477 20.437-20.438zm-51.515-10.641-20.476-20.476 19.457-19.457c.336-.336.718-.407.98-.407s.645.071.98.407l19.495 19.495z"/><path d="m471.128 198.75c-.01-.331-.049-.675-.103-1.004-.289-1.779-1.168-3.349-2.54-4.514-.056-.047-52.658-44.708-52.658-44.708v-135.377c.001-7.25-5.897-13.147-13.146-13.147h-32.009c-4.14 0-7.496 3.356-7.496 7.496 0 4.141 3.356 7.496 7.496 7.496h30.164v232.914l-99.085 93.512-28.766-27.147c-9.525-8.991-24.447-8.989-33.97 0l-28.766 27.147-99.084-93.512v-232.914h224.263c4.14 0 7.496-3.356 7.496-7.496s-3.356-7.496-7.496-7.496h-226.109c-7.249 0-13.147 5.897-13.147 13.147v135.378s-52.534 44.602-52.657 44.708c-1.643 1.395-2.645 3.569-2.645 5.715v281.469c0 10.742 5.791 21.114 14.885 26.803 2.704 1.691 5.816 3.015 8.895 3.804 2.56.656 5.161.978 7.804.978h367.091c17.146 0 31.584-14.496 31.584-31.585.001-.002-.001-281.635-.001-281.667zm-55.3-30.558 36.571 31.05-36.571 34.515zm-319.656 0v65.565l-36.571-34.515zm346.777 328.461c-1.114.23-2.266.35-3.402.35-.17 0-367.252-.007-367.331-.008-1.066-.013-2.122-.123-3.167-.342-.385-.081-.762-.186-1.137-.293l57.929-54.67c3.011-2.841 3.148-7.585.307-10.596s-7.586-3.15-10.597-.306l-58.651 55.352c-.66-1.787-1.039-3.71-1.039-5.723v-264.088l143.465 135.397-58.729 55.424c-3.011 2.841-3.148 7.585-.307 10.596 2.842 3.011 7.586 3.15 10.597.307l98.417-92.878c3.754-3.543 9.635-3.543 13.39 0l181.393 171.185c-.376.107-.752.213-1.138.293zm13.189-16.238c0 2.014-.379 3.936-1.039 5.723l-142.427-134.412 143.465-135.397v264.086z"/></g></g></svg>