<svg id="Capa_1" enable-background="new 0 0 512 512" height="512" viewBox="0 0 512 512" width="512" xmlns="http://www.w3.org/2000/svg"><g><g><g><path d="m331.39 206.081c-8.852 8.418-9.715 22.238-1.978 31.692l16.784 22.444h-158.791c-14.518 0-23.586 9.067-23.586 20.253v.346c0 11.185 9.068 20.253 20.253 20.253h-18.927c-11.185 0-20.253 9.068-20.253 20.253s9.067 20.253 20.253 20.253h33.625c-11.185 0-20.253 9.068-20.253 20.253 0 11.185 9.068 20.253 20.253 20.253h23.79 24.983c-11.185 0-20.253 9.067-20.253 20.253 0 11.185 9.068 20.253 20.253 20.253h131.613c8.571 0 16.924-2.705 23.867-7.73l22.076-15.977c6.944-5.025 15.296-7.73 23.867-7.73h55.562v-117.058h-58.798c-11.103 0-21.724-4.535-29.403-12.554l-51.999-54.687c-8.892-9.286-23.621-9.63-32.938-.77z" fill="#f6a96c"/></g><g><path d="m187.405 260.213h158.794l-.001.731c-.011 11.485-9.325 20.79-20.811 20.79h-137.982c-9.534 0-16.722 3.917-20.531 9.781-1.937-3.11-3.056-6.779-3.056-10.696v-.344c0-11.19 9.071-20.262 23.587-20.262z" fill="#ea9b58"/></g><g><path d="m165.649 301.071h170.651c0 11.493-9.317 20.811-20.811 20.811h-150.347c-7.382 0-13.838 3.949-17.368 9.846-1.958-3.26-3.029-7.113-2.868-11.214.43-10.949 9.784-19.443 20.743-19.443z" fill="#ea9b58"/></g><g><path d="m364.331 206.852 51.995 54.685c7.683 8.017 18.304 12.558 29.409 12.558h58.798v22.608h-67.353c-11.105 0-21.726-4.541-29.409-12.558l-51.995-54.685c-8.372-8.748-21.919-9.556-31.249-2.217-1.388-7.522.958-15.549 6.865-21.166 9.319-8.856 24.04-8.512 32.939.775z" fill="#ea9b58"/></g><g><path d="m457.934 335.56h-59.288c-11.098 0-21.716-4.533-29.402-12.554l-51.999-54.692c-8.893-9.286-23.623-9.631-32.938-.767-8.855 8.414-9.717 22.233-1.974 31.692l16.78 22.444h-154.214c.192 11.021 9.181 19.895 20.249 19.895h33.618c-11.184 0-20.25 9.066-20.25 20.25 0 5.597 2.271 10.657 5.932 14.317 3.661 3.661 8.721 5.932 14.317 5.932h48.779c-11.193 0-20.259 9.066-20.259 20.259 0 5.587 2.262 10.657 5.932 14.317 3.671 3.67 8.731 5.932 14.327 5.932h131.608c8.577 0 16.924-2.702 23.872-7.734l22.071-15.975c2.358-1.706 4.868-3.143 7.504-4.284 0 0 8.091-3.445 16.367-3.445h15.537v-49.017c0-3.628-2.941-6.57-6.569-6.57z" fill="#d88a55"/></g></g><g><path d="m77.692 8.234c30.451-1.248 56.988 16.091 69.21 41.598 5.387 11.243 17.978 17.263 30.052 14.156 6.66-1.714 13.686-2.514 20.94-2.259 37.566 1.326 69.925 34.244 70.641 71.826.3 15.763-4.538 31.389-13.752 44.187-4.453 6.185-9.871 11.67-16.005 16.203-8.028 5.933-18.268 12.256-21.514 22.476-3.315 10.434.286 21.398 8.541 28.426 9.082 7.732 14.573 19.552 13.621 32.619-1.396 19.166-16.951 34.659-36.122 35.985-22.795 1.577-41.777-16.446-41.779-38.903-.001-7.985-1.474-12.143-9.663-13.615-25.159-4.522-43.849-27.084-43.849-52.646 0-14.316 5.628-27.312 14.786-36.912 3.362-3.525 4.411-8.666 2.876-13.289-.026-.079-.052-.158-.078-.237-2.473-7.532-10.461-11.137-17.83-8.213-8.353 3.315-17.459 5.139-26.993 5.139-41.645 0-75.179-34.729-73.22-76.806 1.754-37.686 32.442-68.19 70.138-69.735z" fill="#b5adb6"/></g><g><path d="m161.195 63.051c-1.405.269-2.789.588-4.164.936-12.073 3.108-24.665-2.909-30.054-14.155-10.441-21.796-31.34-37.625-56.195-40.992 2.271-.309 4.582-.508 6.913-.608 30.443-1.245 56.981 16.088 69.204 41.6 2.989 6.236 8.189 10.868 14.296 13.219z" fill="#a79ba7"/></g><g><path d="m268.531 133.56c.309 15.759-4.533 31.389-13.747 44.18-4.453 6.186-9.872 11.675-16.008 16.208-8.029 5.937-18.27 12.253-21.517 22.473-3.307 10.44.289 21.398 8.547 28.431 9.085 7.73 14.574 19.545 13.617 32.614-1.395 19.166-16.945 34.657-36.121 35.991-4.433.309-8.726-.129-12.751-1.195 15.759-4.174 27.733-18.09 28.949-34.796.956-13.07-4.532-24.884-13.618-32.615-11.451-9.744-12.427-25.804-4.848-38.248 5.203-8.541 12.897-15.257 20.414-21.701 16.078-13.781 27.586-28.871 27.159-51.343-.668-35.145-29.008-66.215-63.406-71.176 4.124-.588 8.368-.807 12.691-.658 37.566 1.326 69.922 34.249 70.639 71.835z" fill="#a79ba7"/></g><g><g><path d="m284.309 287.324c-8.852 8.418-9.715 22.238-1.978 31.692l16.784 22.444h-158.791c-14.518 0-23.586 9.067-23.586 20.253v.346c0 11.185 9.068 20.253 20.253 20.253h-18.927c-11.185 0-20.253 9.068-20.253 20.253s9.067 20.253 20.253 20.253h33.625c-11.185 0-20.253 9.068-20.253 20.253 0 11.185 9.068 20.253 20.253 20.253h23.79 24.983c-11.185 0-20.253 9.067-20.253 20.253 0 11.185 9.068 20.253 20.253 20.253h131.613c8.571 0 16.924-2.705 23.867-7.73l22.076-15.977c6.944-5.025 15.296-7.73 23.867-7.73h62.615v-117.058h-65.85c-11.103 0-21.724-4.535-29.403-12.554l-51.999-54.687c-8.893-9.286-23.622-9.63-32.939-.77z" fill="#f6a96c"/></g><g><path d="m317.25 288.095 51.995 54.685c7.683 8.017 18.304 12.558 29.409 12.558h65.85v22.608h-74.404c-11.105 0-21.726-4.541-29.409-12.558l-51.995-54.685c-8.372-8.748-21.919-9.556-31.249-2.217-1.388-7.522.958-15.549 6.865-21.166 9.319-8.856 24.039-8.512 32.938.775z" fill="#ea9b58"/></g><g><path d="m140.325 341.456h158.794l-.001.731c-.012 11.485-9.325 20.79-20.811 20.79h-137.982c-9.534 0-16.722 3.917-20.531 9.781-1.937-3.11-3.056-6.779-3.056-10.696v-.344c0-11.191 9.071-20.262 23.587-20.262z" fill="#ea9b58"/></g><g><path d="m118.568 382.314h170.651c0 11.493-9.317 20.811-20.811 20.811h-150.347c-7.382 0-13.838 3.949-17.368 9.846-1.958-3.26-3.029-7.113-2.868-11.214.43-10.95 9.785-19.443 20.743-19.443z" fill="#ea9b58"/></g><g><path d="m152.177 422.817h137.042v.71c0 11.493-9.317 20.811-20.811 20.811h-116.72c-7.231 0-13.569 3.788-17.152 9.491-2.049-3.236-3.189-7.101-3.093-11.243.255-11.077 9.654-19.769 20.734-19.769z" fill="#ea9b58"/></g><g><path d="m200.466 463.32h88.753v.71c0 11.493-9.317 20.811-20.811 20.811h-67.942c-5.596 0-10.664 2.27-14.322 5.929-1.076 1.076-2.023 2.27-2.83 3.562-1.969-3.11-3.099-6.801-3.099-10.761 0-5.585 2.27-10.653 5.929-14.322 3.658-3.659 8.726-5.929 14.322-5.929z" fill="#ea9b58"/></g><g><circle cx="116.626" cy="72.596" r="7.471"/><circle cx="97.633" cy="43.954" r="7.471"/><circle cx="361.144" cy="148.447" r="7.471"/><path d="m98.287 285.664c4.126 0 7.471-3.345 7.471-7.471s-3.345-7.471-7.471-7.471-7.471 3.345-7.471 7.471 3.345 7.471 7.471 7.471z"/><path d="m74.819 294.19c-4.126 0-7.471 3.345-7.471 7.471s3.345 7.471 7.471 7.471 7.471-3.345 7.471-7.471-3.345-7.471-7.471-7.471z"/><path d="m98.287 336.893c4.126 0 7.471-3.345 7.471-7.471s-3.345-7.471-7.471-7.471-7.471 3.345-7.471 7.471 3.345 7.471 7.471 7.471z"/><path d="m376.086 185.803c4.126 0 7.471-3.345 7.471-7.471s-3.345-7.471-7.471-7.471-7.471 3.345-7.471 7.471 3.345 7.471 7.471 7.471z"/><circle cx="221.704" cy="152.693" r="7.471"/><path d="m199.291 182.74c-4.126 0-7.471 3.345-7.471 7.471s3.345 7.471 7.471 7.471 7.471-3.345 7.471-7.471-3.345-7.471-7.471-7.471z"/><path d="m504.529 266.621h-58.799c-9.019 0-17.769-3.736-23.988-10.23l-52.017-54.706c-11.71-12.226-31.214-12.681-43.483-1.018-11.578 11.009-12.758 29.294-2.723 41.703l7.76 10.377h-89.682c-2.71-5.085-6.381-9.698-10.95-13.588-6.199-5.277-8.599-13.122-6.263-20.474 2.113-6.652 9.084-11.679 15.824-16.541 1.025-.74 2.034-1.467 3.01-2.189 6.777-5.008 12.708-11.012 17.628-17.846 10.107-14.038 15.49-31.331 15.159-48.694-.457-23.969-12.731-47.408-32.833-62.7-3.283-2.497-7.972-1.862-10.47 1.422s-1.861 7.971 1.423 10.469c16.498 12.552 26.569 31.652 26.94 51.093.27 14.156-4.114 28.247-12.346 39.68-4.014 5.574-8.853 10.473-14.383 14.56-.931.688-1.893 1.381-2.87 2.086-7.892 5.693-17.715 12.778-21.324 24.135-4.127 12.99.12 27.269 10.818 36.376 7.741 6.59 11.755 16.207 11.013 26.388-1.129 15.502-13.676 28.002-29.186 29.075-8.865.619-17.308-2.368-23.767-8.394-6.464-6.032-10.025-14.221-10.026-23.057-.001-8.964-1.88-18.464-15.812-20.968-21.492-3.863-37.7-23.335-37.7-45.293 0-11.879 4.518-23.156 12.721-31.755 5.247-5.5 6.995-13.472 4.558-20.81l-.068-.204c-1.828-5.569-5.702-9.978-10.907-12.415-5.269-2.468-11.228-2.613-16.777-.411-7.712 3.061-15.867 4.612-24.237 4.612-18.165 0-35.08-7.24-47.627-20.384-12.539-13.136-18.977-30.397-18.13-48.603 1.571-33.73 29.235-61.235 62.981-62.616 26.364-1.082 50.773 13.583 62.166 37.361 6.948 14.499 23.203 22.136 38.651 18.163 6.103-1.57 12.438-2.25 18.816-2.027 2.62.092 5.272.363 7.883.805 4.074.695 7.925-2.051 8.613-6.119s-2.052-7.925-6.12-8.613c-3.26-.552-6.575-.89-9.851-1.005-7.813-.273-15.572.561-23.065 2.488-8.558 2.203-17.58-2.066-21.453-10.148-13.973-29.171-43.891-47.169-76.25-45.837-41.416 1.697-75.368 35.455-77.295 76.853-1.039 22.324 6.861 43.496 22.247 59.615 15.394 16.127 36.147 25.009 58.436 25.009 10.266 0 20.274-1.906 29.749-5.666 1.68-.666 3.431-.646 4.93.054 1.015.476 2.366 1.476 3.043 3.537l.089.267c.688 2.072.232 4.286-1.192 5.779-10.867 11.39-16.852 26.33-16.852 42.069 0 29.082 21.495 54.876 49.999 60 3.314.595 3.512.631 3.513 6.263.001 6.916 1.578 13.696 4.489 19.855-9.825 2.397-17.757 10.021-20.296 20.179-1 4.003 1.434 8.06 5.438 9.06 4.005 1.003 8.059-1.433 9.059-5.437 1.422-5.692 6.522-9.667 12.401-9.667h3.695c8.703 8.115 19.83 12.481 31.64 12.481 11.497 0 23.087-4.488 31.672-12.481h37.779c.744 5.376 2.896 10.606 6.509 15.073l7.759 10.376h-143.874c-17.996 0-31.057 11.659-31.057 27.723v.346c0 4.819 1.235 9.354 3.407 13.306-12.716 2.516-22.335 13.756-22.335 27.199 0 15.287 12.437 27.724 27.724 27.724h9.027c-1.996 3.827-3.126 8.176-3.126 12.782 0 15.287 12.437 27.723 27.724 27.723h24.175c-1.996 3.827-3.126 8.176-3.126 12.782 0 15.287 12.437 27.724 27.724 27.724h131.613c10.209 0 19.977-3.164 28.248-9.149l22.075-15.977c5.707-4.129 12.445-6.312 19.487-6.312h62.616c4.127 0 7.471-3.344 7.471-7.471v-117.053c0-4.127-3.344-7.471-7.471-7.471h-24.608c-4.127 0-7.471 3.344-7.471 7.471s3.344 7.471 7.471 7.471h17.137v102.114h-55.143c-10.208 0-19.976 3.164-28.248 9.148l-22.076 15.977c-5.706 4.129-12.444 6.313-19.487 6.313h-131.613c-7.048 0-12.782-5.734-12.782-12.782s5.734-12.782 12.782-12.782h80.816c4.127 0 7.471-3.344 7.471-7.471s-3.345-7.471-7.471-7.471h-129.589c-7.048 0-12.781-5.734-12.781-12.782 0-7.047 5.734-12.781 12.801-12.782h129.57c4.127 0 7.471-3.344 7.471-7.471s-3.345-7.471-7.471-7.471l-163.214.001c-7.048 0-12.782-5.734-12.782-12.782s5.734-12.782 12.782-12.782h163.214c4.127 0 7.471-3.344 7.471-7.471 0-4.126-3.345-7.471-7.471-7.471h-144.288c-7.048 0-12.781-5.734-12.781-12.781v-.346c0-7.644 6.476-12.781 16.114-12.781h158.792c2.828 0 5.414-1.596 6.68-4.126 1.267-2.528.996-5.556-.698-7.821l-16.785-22.444c-.065-.087-.132-.172-.2-.257-5.23-6.391-4.639-15.856 1.344-21.547 6.319-6.007 16.367-5.772 22.376.505l52.017 54.705c9.042 9.442 21.726 14.858 34.8 14.858h6.362c4.127 0 7.471-3.344 7.471-7.471s-3.344-7.471-7.471-7.471h-6.362c-9.019 0-17.769-3.736-23.989-10.231l-52.018-54.705c-11.71-12.228-31.217-12.684-43.483-1.017-3.519 3.346-6.071 7.366-7.646 11.688h-28.612c2.184-4.824 3.573-10.075 3.974-15.589.255-3.502.112-6.955-.379-10.321h92.662c1.266 8.339 5.172 15.63 11.538 21.368 6.688 6.029 15.639 9.392 24.624 9.392 1.49 0 2.981-.093 4.462-.28 4.093-.52 6.99-4.26 6.47-8.354-.521-4.094-4.261-6.977-8.354-6.47-6.155.788-12.588-1.233-17.199-5.387-5.013-4.519-7.317-10.227-7.04-17.453.066-1.719-.427-3.287-1.432-4.683-.018-.025-.031-.053-.05-.078l-16.785-22.444c-.065-.086-.131-.172-.2-.257-5.231-6.391-4.639-15.856 1.344-21.547 6.319-6.007 16.366-5.771 22.376.505l52.018 54.707c9.042 9.442 21.726 14.857 34.799 14.857h51.328v102.114h-8.467c-4.127 0-7.471 3.344-7.471 7.471s3.344 7.471 7.471 7.471h15.938c4.127 0 7.471-3.344 7.471-7.471v-117.058c0-4.127-3.344-7.471-7.471-7.471z"/></g></g></g></svg>