<svg id="Capa_1" enable-background="new 0 0 512 512" height="512" viewBox="0 0 512 512" width="512" xmlns="http://www.w3.org/2000/svg"><g><g><path d="m228.986 110.97c0 2.298-.602 4.453-1.648 6.326l13.353 6.11 27.489-21.44c5.661-4.416 6.671-12.585 2.255-18.246s-12.585-6.671-18.246-2.255l-26.61 20.755c2.11 2.31 3.407 5.375 3.407 8.75z" fill="#80d261"/></g><path d="m270.392 136.995-43.053-19.699c-2.222 3.98-6.471 6.674-11.352 6.674 7.18 0 13 5.82 13 13 0 3.156-1.126 6.049-2.997 8.301l33.585 15.367c6.529 2.987 14.243.116 17.23-6.412 2.987-6.529.116-14.244-6.413-17.231z" fill="#80d261"/><path d="m234.173 31.309h-115.792c-3.849 0-6.255 4.167-4.33 7.5l34.157 59.162h56.139l34.157-59.162c1.924-3.334-.482-7.5-4.331-7.5z" fill="#d8aa5e"/><path d="m179.821 97.97-34.157-59.162c-1.924-3.333.481-7.5 4.33-7.5h-31.613c-3.849 0-6.255 4.167-4.33 7.5l34.157 59.162z" fill="#c99c56"/><path d="m290.96 234.898-72.246-85.219c-.88.188-1.791.292-2.727.292h-79.419c-.755 0-1.49-.078-2.209-.201l-72.562 85.09c-27.602 32.368-33.697 77.897-15.583 116.386l5.453 11.586 64.013 21.033.382-.785c3.273-6.737 9.942-10.923 17.403-10.923h52.659l.245-.646c8.34-22.047 29.779-36.859 53.348-36.859h72.76c9.822-34.388 2.096-71.9-21.517-99.754z" fill="#d8aa5e"/><path d="m165.27 149.97h-28.703c-.755 0-1.49-.078-2.209-.201l-72.561 85.091c-27.602 32.368-33.697 77.897-15.583 116.386l4.867 10.341 9.01 2.961 27.76 9.121-10.553-22.422c-18.115-38.489-12.019-84.018 15.583-116.386z" fill="#c99c56"/><g><path d="m178.069 197.511 17.584 16.685c.484.459 1.125.715 1.792.715h24.825c1.438 0 2.603 1.165 2.603 2.603v24.825c0 .667.256 1.308.715 1.792l16.685 17.584c.953 1.004.953 2.579 0 3.583l-16.685 17.584c-.459.484-.715 1.125-.715 1.792v24.825c0 1.438-1.165 2.603-2.603 2.603h-24.825c-.667 0-1.308.256-1.792.715l-17.584 16.685c-1.004.953-2.579.953-3.584 0l-17.584-16.685c-.484-.459-1.125-.715-1.792-.715h-24.825c-1.438 0-2.603-1.165-2.603-2.603v-24.825c0-.667-.256-1.308-.715-1.792l-16.685-17.584c-.953-1.004-.953-2.579 0-3.583l16.685-17.584c.459-.484.715-1.125.715-1.792v-24.825c0-1.438 1.165-2.603 2.603-2.603h24.825c.667 0 1.308-.256 1.792-.715l17.584-16.685c1.004-.953 2.579-.953 3.584 0z" fill="#c53287"/></g><g><g><path d="m148.682 309.498v-24.824c0-.667-.256-1.308-.715-1.792l-16.685-17.583c-.953-1.004-.953-2.579 0-3.583l16.685-17.584c.459-.484.715-1.125.715-1.792v-24.825c0-1.438 1.165-2.603 2.603-2.603h-21c-1.438 0-2.603 1.166-2.603 2.603v24.825c0 .667-.256 1.308-.715 1.792l-16.685 17.584c-.953 1.004-.953 2.579 0 3.583l16.685 17.583c.459.484.715 1.125.715 1.792v24.824c0 1.438 1.165 2.603 2.603 2.603h21c-1.438 0-2.603-1.165-2.603-2.603z" fill="#a82975"/></g></g><g><path d="m172.401 291.877c-3.774-3.581-8.716-5.552-13.917-5.552h-5.025v-5.025c0-5.199-1.97-10.139-5.548-13.913l-3.683-3.881 3.678-3.876c3.583-3.778 5.553-8.719 5.553-13.917v-5.025h5.025c5.201 0 10.144-1.971 13.917-5.551l3.877-3.679 3.876 3.678c3.773 3.58 8.716 5.552 13.917 5.552h5.025v5.025c0 5.198 1.97 10.139 5.547 13.912l3.683 3.882-3.678 3.876c-3.583 3.779-5.553 8.72-5.553 13.917v5.025h-5.025c-5.201 0-10.144 1.972-13.917 5.552l-3.876 3.678z" fill="#80d261"/></g><g><g><path d="m168.669 267.387-3.683-3.881 3.678-3.876c3.583-3.778 5.553-8.719 5.553-13.917v-12.3l-1.816 1.723c-3.773 3.58-8.715 5.552-13.917 5.552h-5.025v5.025c0 5.198-1.97 10.139-5.553 13.917l-3.678 3.876 3.683 3.881c3.578 3.773 5.548 8.714 5.548 13.913v5.025h5.025c5.201 0 10.144 1.972 13.917 5.552l1.815 1.723v-12.3c.001-5.199-1.969-10.14-5.547-13.913z" fill="#4fc123"/></g></g><path d="m359 333.651h-119.283c-24.821 0-45.992 15.589-54.284 37.506h-51.968c-8.058 0-15.002 4.694-18.303 11.485l-79.315-26.061c-11.456-3.764-23.778 2.576-27.375 14.086-3.058 9.785 1.18 20.373 10.145 25.346l142.163 67.168c11.042 5.217 23.432 6.877 35.458 4.75l131.793-28.013c1.744-.371 3.522-.558 5.305-.558h25.664z" fill="#ea9b58"/><path d="m359 414.528h-22.163c-1.783 0-3.561.187-5.305.558l-131.793 28.013c-12.026 2.127-24.416.468-35.458-4.75l-142.163-67.169c-3.83-2.124-6.787-5.278-8.691-8.951-2.208 2.321-3.933 5.17-4.954 8.438-3.058 9.785 1.18 20.373 10.145 25.346l142.163 67.168c11.042 5.217 23.432 6.877 35.458 4.75l131.793-28.013c1.744-.371 3.522-.558 5.305-.558h25.663z" fill="#d88a55"/><g><g><path d="m215.986 123.97h-79.419c-7.18 0-13-5.82-13-13 0-7.18 5.82-13 13-13h79.419c7.18 0 13 5.82 13 13 0 7.18-5.82 13-13 13z" fill="#80d261"/></g><g><path d="m154.986 110.97c0-7.18 5.82-13 13-13h-31.419c-7.18 0-13 5.82-13 13 0 7.18 5.82 13 13 13h31.419c-7.179 0-13-5.82-13-13z" fill="#4fc123"/></g><g><path d="m215.986 149.97h-79.419c-7.18 0-13-5.82-13-13 0-7.18 5.82-13 13-13h79.419c7.18 0 13 5.82 13 13 0 7.18-5.82 13-13 13z" fill="#80d261"/></g><g><path d="m154.986 136.97c0-7.18 5.82-13 13-13h-31.419c-7.18 0-13 5.82-13 13 0 7.18 5.82 13 13 13h31.419c-7.179 0-13-5.82-13-13z" fill="#4fc123"/></g></g><g><g><path d="m499.5 480.691h-135.5c-2.761 0-5-2.239-5-5v-161.538c0-2.761 2.239-5 5-5h135.5c2.761 0 5 2.239 5 5v161.538c0 2.762-2.239 5-5 5z" fill="#fed402"/></g><g><path d="m380 475.691v-161.538c0-2.761 2.239-5 5-5h-21c-2.761 0-5 2.239-5 5v161.538c0 2.761 2.239 5 5 5h21c-2.762 0-5-2.238-5-5z" fill="#fac600"/></g><g><path d="m439.096 371.579-18.979-18.979 18.979-18.979c1.206-1.205 1.206-3.16 0-4.365l-19.199-19.199c-1.205-1.206-3.16-1.206-4.365 0l-19.199 19.199c-1.205 1.205-1.205 3.16 0 4.365l18.979 18.979-18.979 18.978c-1.205 1.206-1.205 3.16 0 4.365l18.979 18.978-18.979 18.979c-1.205 1.206-1.205 3.16 0 4.365l18.979 18.979-18.979 18.979c-1.205 1.205-1.205 3.16 0 4.365l19.199 19.199c1.205 1.205 3.16 1.205 4.365 0l19.199-19.199c1.206-1.206 1.206-3.16 0-4.365l-18.978-18.979 18.978-18.979c1.206-1.206 1.206-3.16 0-4.365l-18.979-18.979 18.979-18.978c1.205-1.205 1.205-3.159 0-4.364z" fill="#c53287"/></g></g><g><path d="m130.285 319.601h22.871l16.167 15.341c1.95 1.851 4.452 2.775 6.955 2.775 2.502 0 5.004-.926 6.954-2.775l16.167-15.341h22.871c5.571 0 10.103-4.532 10.103-10.103v-22.871l15.339-16.165c3.703-3.9 3.703-10.011.001-13.909l-15.34-16.167v-22.871c0-5.571-4.532-10.104-10.103-10.104h-22.872l-16.166-15.34c-3.9-3.701-10.009-3.7-13.909 0l-16.167 15.34h-22.871c-5.571 0-10.103 4.532-10.103 10.104v22.871l-15.339 16.165c-3.703 3.9-3.703 10.011-.001 13.909l15.34 16.167v22.871c0 5.57 4.532 10.103 10.103 10.103zm-11.364-56.095 13.485-14.211c1.79-1.885 2.776-4.355 2.776-6.956v-19.928h19.928c2.6 0 5.07-.986 6.954-2.774l14.213-13.486 14.213 13.487c1.886 1.788 4.355 2.773 6.954 2.773h19.928v19.928c0 2.601.986 5.071 2.774 6.954l13.486 14.213-13.485 14.212c-1.79 1.885-2.776 4.355-2.776 6.955v19.928h-19.928c-2.599 0-5.068.985-6.955 2.774l-14.213 13.487-14.211-13.485c-1.885-1.79-4.355-2.776-6.956-2.776h-19.928v-19.928c0-2.6-.986-5.07-2.774-6.953z"/><path d="m142.468 272.547c2.251 2.374 3.49 5.482 3.49 8.753v5.025c0 4.143 3.358 7.5 7.5 7.5h5.025c3.273 0 6.382 1.24 8.755 3.492l3.876 3.678c1.447 1.373 3.304 2.06 5.162 2.06s3.715-.687 5.162-2.06l3.876-3.678c2.373-2.252 5.482-3.492 8.754-3.492h5.025c4.142 0 7.5-3.357 7.5-7.5v-5.025c0-3.27 1.242-6.38 3.493-8.756l3.678-3.876c2.747-2.894 2.746-7.432 0-10.325l-3.68-3.877c-2.25-2.375-3.49-5.483-3.49-8.753v-5.025c0-4.143-3.358-7.5-7.5-7.5h-5.025c-3.271 0-6.381-1.24-8.755-3.493l-3.875-3.678c-2.894-2.746-7.432-2.746-10.325 0l-3.876 3.679c-2.373 2.252-5.482 3.492-8.754 3.492h-5.025c-4.142 0-7.5 3.357-7.5 7.5v5.025c0 3.271-1.241 6.38-3.493 8.755l-3.678 3.876c-2.746 2.894-2.746 7.431 0 10.324zm18.39-24.46c5.681-.482 11.04-2.69 15.419-6.363 4.38 3.672 9.739 5.881 15.419 6.363.482 5.679 2.69 11.037 6.364 15.42-3.672 4.382-5.881 9.74-6.364 15.419-5.681.482-11.04 2.69-15.419 6.362-4.379-3.672-9.738-5.88-15.419-6.362-.482-5.681-2.69-11.039-6.363-15.42 3.672-4.381 5.88-9.739 6.363-15.419z"/><path d="m504.5 363.5c4.143 0 7.5-3.357 7.5-7.5v-41.847c0-6.893-5.607-12.5-12.5-12.5h-135.5c-6.893 0-12.5 5.607-12.5 12.5v11.998h-29.352c6.25-33.727-2.686-69.23-25.468-96.103l-26.597-31.373c-2.678-3.159-7.411-3.551-10.57-.871-3.16 2.679-3.55 7.411-.871 10.57l26.597 31.373c20.451 24.123 28.082 56.236 21.617 86.403h-35.869-9c-4.143 0-7.5 3.357-7.5 7.5s3.357 7.5 7.5 7.5h9 80.513v90.709h-18.163c-2.3 0-4.608.242-6.864.722l-131.663 27.986c-10.519 1.836-21.174.395-30.826-4.167l-141.918-67.053c-5.696-3.275-8.4-10.153-6.435-16.442 1.136-3.635 3.626-6.596 7.012-8.339 3.387-1.743 7.245-2.049 10.862-.859l72.393 23.786c-.191 1.315-.295 2.658-.295 4.025 0 15.361 12.498 27.859 27.86 27.859h133.287c4.143 0 7.5-3.357 7.5-7.5s-3.357-7.5-7.5-7.5h-133.285c-7.091 0-12.86-5.769-12.86-12.859s5.769-12.86 12.86-12.86h51.968c3.118 0 5.911-1.93 7.015-4.846 6.038-15.958 19.562-27.708 36.178-31.431 4.042-.905 6.584-4.916 5.679-8.958-.906-4.042-4.918-6.589-8.958-5.679-19.837 4.443-36.275 17.701-44.872 35.913h-47.01c-8.602 0-16.304 3.92-21.419 10.066l-55.555-18.253-3.491-7.417c-16.823-35.745-11.13-78.267 14.503-108.327l70.144-82.256h77.839l20.523 24.208c2.678 3.16 7.412 3.551 10.571.871 3.159-2.679 3.549-7.411.871-10.57l-11.966-14.115 20.97 9.595c2.756 1.261 5.649 1.857 8.5 1.857 7.777 0 15.229-4.447 18.672-11.969 2.278-4.979 2.48-10.548.571-15.681-1.91-5.132-5.705-9.213-10.685-11.491l-18.469-8.451 17.75-13.845c4.318-3.367 7.065-8.215 7.737-13.649s-.813-10.805-4.181-15.122c-3.367-4.318-8.215-7.066-13.649-7.738-5.43-.673-10.804.812-15.123 4.181l-22.122 17.255c-2.468-1.292-5.229-2.082-8.156-2.269l27.7-47.978c2.26-3.913 2.259-8.587 0-12.5s-6.306-6.25-10.825-6.25h-115.794c-4.52 0-8.566 2.337-10.826 6.251-2.259 3.913-2.259 8.586 0 12.499l27.7 47.978c-10.692.682-19.188 9.573-19.188 20.434 0 4.931 1.751 9.459 4.663 13-2.911 3.541-4.663 8.069-4.663 13 0 5.92 2.538 11.246 6.564 14.992l-66.541 78.03c-28.19 33.059-35.37 79.229-18.981 119.137-7.148-2.053-14.678-1.325-21.329 2.097-6.986 3.595-12.123 9.704-14.466 17.202-4.099 13.117 1.648 27.476 13.666 34.142.142.079.287.153.434.223l142.163 67.169c8.952 4.23 18.571 6.382 28.313 6.382 3.876 0 7.775-.342 11.656-1.027.084-.016.169-.032.253-.05l131.791-28.013c1.231-.262 2.492-.395 3.747-.395h18.163v28.831c0 6.893 5.607 12.5 12.5 12.5h135.5c6.893 0 12.5-5.607 12.5-12.5v-84.691c0-4.143-3.357-7.5-7.5-7.5s-7.5 3.357-7.5 7.5v82.191h-59.901l7.297-7.298c2.002-2 3.104-4.659 3.104-7.488 0-2.827-1.102-5.486-3.101-7.486l-13.676-13.675 13.673-13.673c2.002-2 3.104-4.659 3.104-7.488 0-2.827-1.102-5.486-3.101-7.486l-13.676-13.675 13.676-13.674c1.999-2 3.101-4.659 3.101-7.486 0-2.828-1.102-5.487-3.101-7.487 0 0 0 0-.001 0l-13.675-13.674 13.676-13.675c1.999-2 3.101-4.659 3.101-7.486 0-2.829-1.102-5.488-3.101-7.486l-7.3-7.3h59.901v39.346c0 4.143 3.357 7.5 7.5 7.5zm-367.933-232.03h79.419c3.033 0 5.5 2.467 5.5 5.5s-2.467 5.5-5.5 5.5h-79.419c-3.033 0-5.5-2.467-5.5-5.5s2.468-5.5 5.5-5.5zm133.571 15.428c.513 1.377.458 2.871-.153 4.206-1.262 2.759-4.533 3.976-7.289 2.713h-.001l-26.749-12.24c.343-1.484.541-3.022.541-4.608 0-2.829-.577-5.526-1.618-7.98l32.403 14.826c1.336.612 2.353 1.706 2.866 3.083zm-13.335-59.52c.977-.762 2.153-1.164 3.372-1.164.227 0 .456.014.686.042 1.458.181 2.759.918 3.662 2.076s1.302 2.6 1.121 4.058c-.18 1.458-.917 2.758-2.075 3.661l-23.898 18.64-3.308-1.514c.078-.726.123-1.461.123-2.207 0-2.393-.433-4.681-1.19-6.817zm-26.96-48.569-29.827 51.661h-47.479l-29.826-51.661zm-93.276 66.661h79.419c3.033 0 5.5 2.467 5.5 5.5s-2.467 5.5-5.5 5.5h-79.419c-3.033 0-5.5-2.467-5.5-5.5s2.468-5.5 5.5-5.5zm254.462 275.778 13.675 13.674-13.678 13.678c-4.125 4.128-4.124 10.843.002 14.97l13.676 13.675-13.678 13.678c-4.125 4.128-4.124 10.843.002 14.97l7.3 7.3h-31.828v-156.54h31.828l-7.3 7.3c-4.126 4.127-4.127 10.842 0 14.973l13.676 13.675-13.678 13.677c-4.123 4.125-4.123 10.841.003 14.97zm26.685 90.115-12.958-12.958 12.958-12.958 12.958 12.958zm0-42.322-12.958-12.958 12.958-12.958 12.958 12.958zm0-42.322-12.958-12.958 12.958-12.957 12.958 12.958zm0-42.322-12.958-12.958 12.958-12.958 12.958 12.958z"/></g></g></svg>