<svg id="Capa_1" enable-background="new 0 0 512 512" height="512" viewBox="0 0 512 512" width="512" xmlns="http://www.w3.org/2000/svg"><g><g><path d="m261.778 8.631c-3.706-1.527-7.85-1.527-11.556 0-24.711 10.181-120.249 57.063-120.249 173.323v312.146c0 5.756 4.666 10.423 10.423 10.423h231.209c5.756 0 10.423-4.666 10.423-10.423v-312.146c-.001-116.26-95.539-163.142-120.25-173.323z" fill="#ade194"/></g><g><path d="m382.022 181.959v312.146c0 5.752-4.665 10.417-10.417 10.417h-20.735c5.762 0 10.427-4.665 10.427-10.417v-312.146c0-110.003-85.53-157.892-115.665-171.36 1.715-.758 3.25-1.416 4.586-1.964 3.708-1.535 7.855-1.535 11.563 0 24.703 10.178 120.241 57.06 120.241 173.324z" fill="#97da7b"/></g><g><path d="m371.604 512h-231.208c-9.87 0-17.9-8.029-17.9-17.9v-131.851c0-4.13 3.347-7.476 7.476-7.476 4.13 0 7.476 3.347 7.476 7.476v131.851c0 1.625 1.322 2.947 2.947 2.947h231.208c1.625 0 2.947-1.322 2.947-2.947v-312.146c0-20.681-3.183-40.364-9.461-58.5-1.351-3.902.716-8.16 4.619-9.51 3.899-1.352 8.16.716 9.51 4.619 6.825 19.713 10.285 41.04 10.285 63.391v312.146c.001 9.871-8.029 17.9-17.899 17.9z"/></g><g><path d="m129.973 334.795c-4.13 0-7.476-3.347-7.476-7.476v-145.365c0-51.488 17.83-95.79 52.995-131.674 28.103-28.678 59.632-43.514 71.883-48.562 5.563-2.292 11.69-2.292 17.252 0 19.649 8.096 68.667 32.496 99.379 84.116 2.112 3.548.946 8.136-2.602 10.248-3.546 2.112-8.136.946-10.248-2.602-29.211-49.094-77.975-72.065-92.225-77.936-1.891-.779-3.972-.779-5.859 0-11.399 4.696-40.735 18.501-66.9 45.201-32.329 32.992-48.721 73.771-48.721 121.209v145.365c-.002 4.129-3.349 7.476-7.478 7.476z"/></g><g><path d="m310.534 187.631c14.095-11.825 23.096-20.607 24.347-38.963s-5.265-37.116-17.625-50.745c-5.865-6.467-12.897-11.745-19.437-17.53-15.225-13.469-27.859-23.116-37.062-39.134-2.095-3.646-7.421-3.646-9.516 0-9.202 16.018-21.836 25.665-37.062 39.134-6.539 5.785-13.571 11.063-19.437 17.53-12.36 13.628-18.876 32.389-17.625 50.745s10.252 27.138 24.347 38.963c0 0-40.657 20.567-40.657 61.48v214.103c0 5.672 4.598 10.271 10.271 10.271h169.84c5.672 0 10.271-4.598 10.271-10.271v-214.103c.001-40.913-40.655-61.48-40.655-61.48z" fill="#fee97d"/></g><g><path d="m351.19 249.107v214.105c0 5.672-4.595 10.278-10.268 10.278h-19.678c5.672 0 10.278-4.605 10.278-10.278v-214.105c0-27.493-21.263-45.776-35.209-54.817-5.463-3.549-5.881-11.404-.817-15.511 10.138-8.204 18.791-16.558 19.718-30.115 1.246-18.352-5.263-37.113-17.624-50.74-5.871-6.47-12.899-11.743-19.439-17.535-12.59-11.145-23.416-19.658-31.979-31.341 1.794-2.432 3.489-5.014 5.074-7.786 2.093-3.648 7.417-3.648 9.51 0 9.201 16.019 21.841 25.659 37.063 39.127 6.539 5.792 13.577 11.065 19.439 17.535 12.361 13.627 18.87 32.388 17.624 50.74-1.256 18.362-10.248 27.144-24.343 38.967-.001 0 40.651 20.565 40.651 61.476z" fill="#fedf30"/></g><path d="m358.664 248.984c-.017-6.121-.822-12.107-2.461-18.005-2.856-10.279-8.195-19.716-15.053-27.85-2.92-3.463-6.11-6.697-9.502-9.698-.667-.59-8.185-7.181-8.594-6.803 11.02-10.181 18.253-22.308 19.287-37.452 1.399-20.525-5.725-41.037-19.546-56.277-6.084-6.708-13.368-12.219-20.02-18.106-10.172-9.002-20.57-17.036-29.1-27.796-2.372-2.992-4.53-6.152-6.433-9.463-2.3-4.001-6.606-6.486-11.241-6.486s-8.942 2.485-11.241 6.486c-3.521 6.129-7.608 11.255-12.274 16.126-9.221 9.627-19.718 17.846-29.821 26.487-4.698 4.018-9.301 8.17-13.458 12.753-13.821 15.239-20.945 35.75-19.546 56.276 1.035 15.19 8.267 27.263 19.287 37.452-.413-.382-7.975 6.254-8.646 6.848-3.413 3.023-6.62 6.283-9.554 9.775-6.892 8.204-12.236 17.73-15.052 28.1-1.344 4.947-2.362 9.818-2.362 14.976v216.887c0 9.802 7.946 17.748 17.748 17.748h169.838c9.802 0 17.748-7.946 17.748-17.748v-214.1c-.001-.043-.004-.086-.004-.13zm-25.913-32.137-19.857 19.85-17.874-17.874 19.699-19.699c5.215 3.758 12.21 9.694 18.032 17.723zm-58.881 58.836-17.859 17.859-17.859-17.859 17.859-17.859zm-35.718-56.86 17.859-17.859 17.859 17.859-17.859 17.859zm7.284 85.291-17.859 17.858-17.858-17.858 17.858-17.859zm0 56.859-17.859 17.859-17.858-17.859 17.858-17.858zm-7.285-28.43 17.859-17.859 17.859 17.859-17.859 17.859zm46.293 10.573 17.859 17.858-17.859 17.859-17.858-17.859zm-17.857-39.002 17.858-17.859 17.859 17.859-17.859 17.858zm0-56.861 17.858-17.859 17.859 17.859-17.859 17.859zm0-56.861 17.858-17.859 17.859 17.859-17.859 17.859zm0-56.861 17.858-17.858 17.859 17.858-17.859 17.859zm7.283 28.431-17.859 17.859-17.859-17.859 17.859-17.859zm-46.293-10.572-17.858-17.859 17.858-17.858 17.859 17.858zm17.859 39.002-17.859 17.859-17.858-17.859 17.858-17.859zm0 56.861-17.859 17.859-17.858-17.859 17.858-17.859zm-28.433 28.43-17.883 17.884-17.88-17.881 17.88-17.887zm-.001 56.86-17.883 17.883-17.889-17.883 17.886-17.886zm0 56.861-17.887 17.887-17.886-17.887 17.887-17.887zm10.575 10.572 17.859 17.858-17.859 17.859-17.858-17.859zm10.575-10.571 17.86-17.86 17.858 17.859-17.859 17.859zm46.292 10.571 17.859 17.858-17.859 17.859-17.858-17.859zm10.575-10.571 17.876-17.876 17.875 17.875-17.876 17.876zm17.873-38.989-17.873-17.872 17.876-17.875 17.875 17.876zm.001-56.86-17.873-17.873 17.873-17.873 17.876 17.876zm13.163-162.591c.458 2.05.811 4.118 1.058 6.198l-3.629-3.627zm-.072 26.209c-1.798 6.021-5.79 11.856-15.311 20.44l-15.652-15.652 17.873-17.873zm-21.668-61.369c2.627 2.308 5.13 4.635 7.402 7.14 3.409 3.758 6.324 7.987 8.691 12.519l-7.513 7.514-17.876-17.875zm-30.31-26.552c6.104 5.777 12.544 11.184 18.853 16.733.023.021.046.04.069.06l-8.483 8.483-17.859-17.86c0 .001 7.42-7.416 7.42-7.416zm-18.006-21.392c2.39 3.826 4.965 7.295 7.697 10.554l-7.687 7.683-7.699-7.694c2.73-3.255 5.301-6.72 7.689-10.543zm.011 39.38 17.859 17.86-17.859 17.859-17.859-17.859zm-36.877-1.248c1.165-1.03 18.809-16.811 18.869-16.751.003.003 7.433 7.428 7.433 7.428l-17.86 17.86-8.492-8.493c.013-.012.026-.023.05-.044zm-18.852 16.953c2.275-2.509 4.783-4.84 7.414-7.151l9.306 9.307-17.886 17.886-7.524-7.524c2.366-4.531 5.282-8.76 8.69-12.518zm-14.338 28.019 2.571 2.571-3.629 3.627c.248-2.08.601-4.149 1.058-6.198zm.072 26.209 13.103-13.097 17.884 17.884-15.663 15.663c-9.531-8.589-13.525-14.426-15.324-20.45zm11.277 41.939 19.709 19.71-17.885 17.885-19.866-19.867c5.828-8.034 12.83-13.972 18.042-17.728zm-29.007 49.998c0-1.232.047-2.469.137-3.702.297-4.066 1.069-8.096 2.302-11.966.097-.306 1.159-2.823 1.034-2.947l16.758 16.758-17.858 17.864-2.373-2.373c0-.001 0-13.631 0-13.634zm0 39.511 2.372-2.37 17.858 17.859-17.861 17.862-2.37-2.37v-30.981zm0 56.866 2.37-2.37 17.859 17.853-17.86 17.86-2.37-2.369v-30.974zm0 56.859 2.37-2.369 17.86 17.86-17.859 17.853-2.37-2.371v-30.973zm2.794 63.661c-1.541 0-2.794-1.254-2.794-2.794v-4.01l2.37-2.37 9.173 9.173h-8.749zm28.036-1.86-17.885-17.885 17.889-17.882 17.882 17.882zm19.287 1.86 9.173-9.173 9.173 9.173zm37.607-1.886-17.858-17.858 17.859-17.859 17.857 17.858zm19.261 1.886 9.173-9.173 9.173 9.173zm37.623-1.87-17.874-17.873 17.872-17.872 17.877 17.871zm30.82-.924c0 1.54-1.253 2.794-2.794 2.794h-8.749l9.173-9.173 2.37 2.37zm0-29.895-2.37 2.371-17.859-17.853 17.86-17.86 2.37 2.369v30.973zm0-56.858-2.37 2.369-17.86-17.86 17.859-17.853 2.37 2.37v30.974zm0-56.858-2.37 2.37-17.86-17.861 17.864-17.858 2.366 2.366zm0-56.857-2.367 2.369-17.863-17.862 16.759-16.753c1.429 3.724 2.496 7.724 3.046 12.002.279 2.18.424 4.402.424 6.608.001.011.001 13.636.001 13.636z"/></g></svg>