<svg id="Capa_1" enable-background="new 0 0 512 512" height="512" viewBox="0 0 512 512" width="512" xmlns="http://www.w3.org/2000/svg"><g><path d="m264.266 145.029c-1.466.093-2.941.157-4.43.157-3.543 0-7.022-.267-10.418-.779-8.687 2.781-14.98 10.915-14.98 20.525 0 11.905 9.65 21.555 21.555 21.555s21.555-9.65 21.555-21.555c-.001-8.971-5.485-16.658-13.282-19.903z" fill="#fe860a"/><path d="m266.27 145.981c-.649-.353-1.323-.666-2.01-.952-1.464.093-2.936.157-4.424.157-3.543 0-7.022-.267-10.419-.779-8.687 2.781-14.98 10.915-14.98 20.525 0 11.905 9.65 21.555 21.555 21.555 3.721 0 7.223-.943 10.277-2.604-6.717-3.651-11.277-10.769-11.277-18.951s4.56-15.3 11.278-18.951z" fill="#fe7701"/><g><g><path d="m325.527 73.697c-6.782 19.178-25.073 32.917-46.573 32.917-27.219 0-49.39-22.172-49.39-49.39 0-21.501 13.74-39.791 32.917-46.573 1.675-.592 1.281-3.063-.495-3.118-.714-.022-1.432-.033-2.151-.033-38.021 0-68.843 30.822-68.843 68.843 0 38.133 30.71 68.844 68.844 68.843 38.021 0 68.843-30.822 68.843-68.843 0-.72-.011-1.437-.033-2.151-.056-1.776-2.526-2.17-3.119-.495z" fill="#fed402"/></g><g><g><path d="m280.836 135c-38.133 0-68.844-30.71-68.844-68.844 0-23.065 11.354-43.465 28.766-55.957-28.737 8.274-49.766 34.745-49.766 66.144 0 38.133 30.71 68.844 68.844 68.844 14.956 0 28.787-4.785 40.077-12.886-6.06 1.745-12.456 2.699-19.077 2.699z" fill="#fac600"/></g></g><g><path d="m280.768 28.956 8.152 13.351c.175.287.457.492.784.569l15.216 3.627c.918.219 1.279 1.331.665 2.047l-10.178 11.878c-.219.255-.326.587-.299.921l1.253 15.593c.076.94-.87 1.627-1.741 1.265l-14.442-6.01c-.31-.129-.659-.129-.969 0l-14.442 6.01c-.871.362-1.817-.325-1.741-1.265l1.253-15.593c.027-.335-.081-.666-.299-.921l-10.181-11.878c-.614-.716-.253-1.828.665-2.047l15.217-3.627c.327-.078.609-.283.784-.569l8.152-13.351c.491-.805 1.66-.805 2.151 0z" fill="#fed402"/></g><g><g><path d="m278.522 71.637 1.253-15.593c.027-.335-.081-.667-.299-.921l-10.178-11.878c-.064-.075-.112-.157-.156-.239l-14.677 3.499c-.918.219-1.279 1.331-.665 2.047l10.178 11.879c.219.255.326.587.299.921l-1.253 15.593c-.075.94.87 1.627 1.741 1.265l13.952-5.806c-.137-.22-.218-.479-.195-.767z" fill="#fac600"/></g></g></g><path d="m121.267 471.09h269.451c12.416-21.229 22.053-44.099 27.453-67.801 8.791-37.433 1.099-71.376-26.419-105.085-27.163-32.982-74.153-65.731-135.759-84-61.605 18.271-108.595 51.017-135.758 84-27.519 33.709-35.211 67.654-26.42 105.086 5.397 23.7 15.035 46.57 27.452 67.8z" fill="#d8aa5e"/><path d="m390.72 471.09c8.806-15.062 16.213-30.948 21.7-47.373-2.422-4.696-5.651-8.991-9.611-12.654l-14.28-13.21c-1.15-1.064-2.925-1.064-4.074 0l-14.28 13.21c-9.389 8.686-14.727 20.895-14.727 33.685v26.342z" fill="#fef1da"/><path d="m376.021 471.09v-26.342c0-12.79 5.338-25 14.727-33.685l6.031-5.579-8.249-7.631c-1.15-1.064-2.925-1.064-4.074 0l-14.28 13.21c-9.389 8.686-14.727 20.895-14.727 33.685v26.342z" fill="#fae2c0"/><path d="m330.536 471.09v-26.342c0-12.79-5.338-25-14.727-33.685l-14.28-13.21c-1.15-1.064-2.925-1.064-4.074 0l-14.28 13.21c-9.389 8.686-14.727 20.895-14.727 33.685v26.342z" fill="#fef1da"/><path d="m288.992 471.09v-26.342c0-12.79 5.338-25 14.727-33.685l6.045-5.592-8.235-7.618c-1.15-1.064-2.925-1.064-4.074 0l-14.28 13.21c-9.389 8.686-14.727 20.895-14.727 33.685v26.342z" fill="#fae2c0"/><path d="m243.536 471.09v-26.342c0-12.79-5.338-25-14.727-33.685l-14.28-13.21c-1.15-1.064-2.925-1.064-4.074 0l-14.28 13.21c-9.389 8.686-14.727 20.895-14.727 33.685v26.342z" fill="#fef1da"/><path d="m201.992 471.09v-26.342c0-12.79 5.338-25 14.727-33.685l6.045-5.592-8.235-7.618c-1.15-1.064-2.925-1.064-4.074 0l-14.28 13.21c-9.389 8.686-14.727 20.895-14.727 33.685v26.342z" fill="#fae2c0"/><g><path d="m101.115 401.574c.422 1.852.881 3.704 1.358 5.555.528-.531 1.058-1.061 1.609-1.571l14.28-13.211c3.996-3.697 10.261-3.7 14.261.001l14.049 12.997c-.164-.686-.336-1.369-.492-2.056-8.791-37.432-1.099-71.377 26.42-105.086 21.524-26.135 55.512-52.111 99.343-70.864-5.248-1.895-10.567-3.668-15.95-5.304-53.708 16.326-100.989 45.749-129.97 80.937-25.459 31.186-33.381 62.526-24.908 98.602z" fill="#c99c56"/></g><path d="m156.536 471.09v-26.342c0-12.79-5.338-25-14.727-33.685l-14.28-13.21c-1.15-1.064-2.925-1.064-4.074 0l-14.28 13.21c-3.96 3.663-7.189 7.959-9.611 12.655 5.487 16.424 12.895 32.311 21.7 47.372z" fill="#fef1da"/><g><g><path d="m120.02 444.748c0-12.79 5.338-25 14.727-33.685l3.531-3.267-10.749-9.943c-1.15-1.064-2.925-1.064-4.074 0l-14.28 13.21c-3.96 3.663-7.189 7.959-9.611 12.655 5.227 15.646 12.195 30.805 20.456 45.227z" fill="#fae2c0"/></g></g><g><path d="m415.661 504.5h-319.337c-2.886 0-5.226-2.34-5.226-5.226v-22.958c0-2.886 2.34-5.226 5.226-5.226h319.337c2.886 0 5.226 2.34 5.226 5.226v22.958c0 2.886-2.34 5.226-5.226 5.226z" fill="#e8b800"/></g><g><path d="m153.992 499.274v-22.958c0-2.886 2.34-5.226 5.226-5.226h-62.894c-2.886 0-5.226 2.34-5.226 5.226v22.958c0 2.886 2.34 5.226 5.226 5.226h62.895c-2.887 0-5.227-2.34-5.227-5.226z" fill="#d7aa02"/></g><g><path d="m252.724 39.209c-2.992.714-5.347 2.886-6.298 5.812-.952 2.926-.326 6.068 1.678 8.41l8.489 9.906-1.044 13c-.249 3.068 1.089 5.981 3.579 7.792 2.493 1.813 5.677 2.186 8.52 1.004l12.045-5.013 12.047 5.013c1.095.456 2.241.68 3.379.68 1.813 0 3.604-.569 5.135-1.681 2.489-1.809 3.829-4.72 3.583-7.789l-1.045-13.005 8.494-9.911c2-2.338 2.626-5.48 1.674-8.407-.952-2.926-3.308-5.098-6.3-5.812l-12.691-3.025-6.798-11.135c-.001-.002-.002-.004-.003-.005-1.605-2.624-4.399-4.19-7.475-4.19-.002 0-.003 0-.004 0-3.077.001-5.871 1.57-7.474 4.195l-6.798 11.135zm18.683 10.966c2.255-.533 4.243-1.974 5.459-3.96l2.826-4.629 2.821 4.621c1.211 1.988 3.204 3.435 5.451 3.965l5.277 1.258-3.526 4.114c-1.507 1.756-2.267 4.087-2.084 6.407l.435 5.406-5.015-2.086c-2.138-.888-4.588-.886-6.726.002l-5.008 2.085.434-5.397c.188-2.315-.57-4.654-2.079-6.412l-3.53-4.119z"/><path d="m415.66 463.59h-12.202c10.145-19.301 17.534-38.923 22.014-58.586 8.479-36.1 2.187-68.803-19.235-99.979-2.346-3.414-7.017-4.28-10.429-1.935-3.414 2.346-4.28 7.015-1.935 10.429 19.157 27.88 24.558 55.86 16.984 88.104-.418 1.836-.873 3.671-1.345 5.506-.528-.532-1.058-1.062-1.61-1.572l-14.279-13.21c-4-3.701-10.265-3.698-14.261-.001l-14.28 13.211c-10.889 10.072-17.134 24.356-17.134 39.19v18.842h-9.912v-18.842c0-14.834-6.245-29.118-17.134-39.19l-14.279-13.21c-4-3.701-10.265-3.698-14.261-.001l-14.28 13.211c-10.889 10.072-17.134 24.356-17.134 39.19v18.842h-9.912v-18.842c0-14.834-6.245-29.118-17.134-39.19l-14.279-13.21c-4-3.701-10.265-3.698-14.261-.001l-14.28 13.211c-10.889 10.072-17.134 24.356-17.134 39.19v18.842h-9.912v-18.842c0-14.834-6.245-29.118-17.134-39.19l-14.279-13.21c-4-3.701-10.265-3.698-14.261-.001l-14.28 13.211c-.551.51-1.081 1.04-1.609 1.571-.477-1.851-.936-3.703-1.358-5.555-8.474-36.076-.552-67.416 24.907-98.604 28.98-35.188 76.262-64.61 129.97-80.937 45.566 13.85 86.737 37.213 116.132 65.932 2.964 2.896 7.712 2.838 10.605-.123 2.895-2.963 2.84-7.711-.123-10.605-30.401-29.704-72.532-53.929-119.114-68.58v-15.656c12.396-3.316 21.555-14.641 21.555-28.068 0-5.563-1.58-10.759-4.302-15.181 31.959-9.117 55.434-38.563 55.434-73.408 0-.8-.012-1.595-.037-2.388-.137-4.378-3.379-8.045-7.708-8.718-4.316-.661-8.52 1.835-9.977 5.958-4.646 13.135-15.464 23.066-28.939 26.567-4.009 1.041-6.415 5.136-5.373 9.145 1.041 4.01 5.138 6.417 9.145 5.373 8.688-2.257 16.562-6.48 23.112-12.203-9.297 22.072-31.151 37.608-56.565 37.608-33.825 0-61.344-27.519-61.344-61.344 0-25.44 15.565-47.313 37.675-56.593-8.881 10.156-14.103 23.385-14.103 37.475-.001 21.475 11.929 40.901 31.135 50.698 3.691 1.882 8.207.416 10.089-3.272 1.883-3.689.417-8.207-3.272-10.089-14.157-7.223-22.952-21.528-22.951-37.337 0-17.723 11.219-33.597 27.919-39.503 4.124-1.46 6.629-5.656 5.956-9.979-.674-4.328-4.34-7.569-8.728-7.707-.79-.021-1.583-.034-2.377-.034-42.096 0-76.344 34.247-76.344 76.343 0 32.52 20.447 60.34 49.154 71.321-3.584 4.83-5.708 10.805-5.708 17.269 0 13.427 9.158 24.752 21.555 28.068v15.652c-55.178 17.356-103.809 48.065-134.068 84.807-28.275 34.636-37.405 71.122-27.923 111.495 4.487 19.696 11.878 39.33 22.025 58.635h-12.204c-7.017 0-12.726 5.709-12.726 12.727v22.957c0 7.018 5.709 12.727 12.726 12.727h79.669c4.143 0 7.5-3.357 7.5-7.5s-3.357-7.5-7.5-7.5h-77.394v-18.41h314.789v18.409h-202.395c-4.143 0-7.5 3.357-7.5 7.5s3.357 7.5 7.5 7.5h204.668c7.018 0 12.727-5.709 12.727-12.727v-22.957c0-7.017-5.709-12.726-12.727-12.726zm-173.722-298.657c0-5.739 3.461-10.677 8.401-12.858 3.114.388 6.279.612 9.497.612.976 0 1.942-.037 2.909-.074 4.348 2.393 7.302 7.016 7.302 12.32 0 7.75-6.305 14.055-14.055 14.055s-14.054-6.305-14.054-14.055zm-92.902 298.657h-23.421c-7.288-12.911-13.266-25.972-17.867-39.103 1.815-2.927 3.997-5.584 6.52-7.918l11.225-10.384 11.225 10.384c7.829 7.242 12.319 17.513 12.319 28.179v18.842zm87 0h-47.088v-18.842c0-10.666 4.49-20.937 12.319-28.179l11.225-10.384 11.225 10.384c7.829 7.242 12.319 17.513 12.319 28.179zm87 0h-47.088v-18.842c0-10.666 4.49-20.937 12.319-28.179l11.225-10.384 11.225 10.384c7.829 7.242 12.319 17.513 12.319 28.179zm39.912 0v-18.842c0-10.666 4.49-20.937 12.319-28.179l11.225-10.384 11.224 10.383c2.525 2.337 4.708 4.994 6.522 7.921-4.599 13.124-10.579 26.186-17.869 39.101z"/></g></g></svg>