<svg id="Capa_1" enable-background="new 0 0 511.914 511.914" height="512" viewBox="0 0 511.914 511.914" width="512" xmlns="http://www.w3.org/2000/svg"><g><g><path d="m322.599 360.179c-.022-.014-17.421-11.168-17.421-11.168h-98.441s-17.399 11.154-17.421 11.168c-48.084 30.826-74.249 78.758-76.913 144.252h287.108c-2.663-65.494-28.827-113.426-76.912-144.252z" fill="#7a6d79"/></g><g><path d="m399.513 504.427h-20.254c-2.664-65.492-28.835-113.423-76.916-144.244-.02-.02-17.421-11.175-17.421-11.175h20.254s17.401 11.155 17.421 11.175c48.082 30.821 74.252 78.752 76.916 144.244z" fill="#685e68"/></g><g><path d="m417.883 312.04c-8.808-43.463-13.763-84.015-18.298-128.148-1.691-16.451-2.915-32.95-6.02-49.254-6.2-32.554-17.621-63.034-41.848-87.297-41.576-41.637-106.178-51.988-158.62-24.665-12.206 6.359-23.192 14.944-32.898 24.664-24.227 24.263-35.648 54.743-41.848 87.297-3.105 16.305-4.33 32.803-6.02 49.254-4.535 44.133-9.49 84.685-18.298 128.148-9.584 47.289-9.021 100.044 39.901 127.106 36.893 20.407 82.714 24.721 124.112 25.81 36.413.958 88.009-8.148 119.939-25.811 48.92-27.061 49.482-79.815 39.898-127.104z" fill="#b5adb6"/></g><g><path d="m377.982 439.145c-31.928 17.66-83.521 26.77-119.939 25.811-2.005-.05-4.011-.11-6.036-.19 34.382-1.576 76.377-10.436 103.835-25.622 48.929-27.059 49.488-79.82 39.9-127.103-8.8-43.462-13.759-84.02-18.299-128.15-1.686-16.453-2.913-32.946-6.016-49.259-6.196-32.547-17.62-63.028-41.845-87.293-23.277-23.307-53.778-36.817-85.317-39.401 39.072-3.183 78.752 10.656 107.447 39.401 24.235 24.265 35.649 54.746 41.855 87.293 3.103 16.313 4.33 32.806 6.016 49.259 4.54 44.13 9.489 84.689 18.299 128.15 9.588 47.284 9.019 100.045-39.9 127.104z" fill="#a79ba7"/></g><g><path d="m363.467 172.031v42.04c0 59.375-48.134 107.51-107.509 107.51s-107.509-48.134-107.509-107.51v-42.04c0-3.829.196-7.607.597-11.334 5.651-54.043 51.367-96.176 106.912-96.176 29.688 0 56.565 12.034 76.02 31.489 16.944 16.944 28.267 39.528 30.892 64.687.402 3.727.597 7.505.597 11.334z" fill="#f6a96c"/></g><g><path d="m363.465 172.029v42.045c0 59.376-48.131 107.507-107.507 107.507-3.432 0-6.825-.16-10.177-.489 54.597-5.118 97.32-51.074 97.32-107.018v-42.045c0-3.831-.2-7.603-.599-11.334-2.624-25.153-13.948-47.742-30.89-64.684-17.211-17.211-40.229-28.615-65.871-31.01 3.362-.319 6.775-.479 10.217-.479 29.683 0 56.562 12.033 76.018 31.489 16.942 16.942 28.266 39.53 30.89 64.684.409 3.731.599 7.503.599 11.334z" fill="#ea9b58"/></g><g><path d="m363.056 223.383c-4.709 55.015-50.855 98.198-107.098 98.198s-102.388-43.183-107.098-98.198z" fill="#7a6d79"/></g><g><path d="m363.056 223.383c-4.709 55.015-50.855 98.198-107.098 98.198-12.142 0-23.806-2.015-34.692-5.727 5.059.739 10.227 1.118 15.485 1.118 54.656 0 99.784-40.788 106.599-93.588h19.706z" fill="#685e68"/></g><g><path d="m363.465 172.029v14.707c-4.58-6.186-10.007-11.773-15.904-16.742-13.1-11.035-27.558-19.037-42.963-24.624-31.359-11.374-65.921-11.374-97.28 0-15.405 5.587-29.862 13.589-42.963 24.624-5.897 4.969-11.324 10.556-15.904 16.742v-14.707c0-3.831.19-7.603.599-11.334 5.647-54.038 51.364-96.173 106.908-96.173 29.683 0 56.562 12.033 76.018 31.489 16.942 16.942 28.266 39.53 30.89 64.684.409 3.731.599 7.503.599 11.334z" fill="#f9f3f1"/></g><g><path d="m363.465 172.029v14.707c-4.58-6.186-10.007-11.773-15.904-16.742-.848-.718-1.706-1.417-2.564-2.105-.03-.289-.06-.589-.09-.878-2.624-25.153-13.949-47.742-30.89-64.684-19.456-19.456-46.335-31.489-76.018-31.489-9.169 0-18.059 1.147-26.55 3.312 13.559-6.186 28.635-9.628 44.509-9.628 29.683 0 56.562 12.033 76.018 31.489 16.942 16.942 28.266 39.53 30.89 64.684.409 3.731.599 7.503.599 11.334z" fill="#efe2dd"/></g><g><path d="m425.217 310.554c-9.177-45.283-14.7-91.281-19.154-137.185-1.276-13.14-2.596-26.727-5.148-40.132-7.581-39.804-21.531-68.779-43.903-91.184-31.807-31.853-78.192-47.155-122.759-40.535-15.552 2.31-30.672 7.258-44.613 14.521-45.234 23.567-69.399 68.681-78.639 117.197-3.142 16.495-4.404 33.256-6.114 49.89-4.714 45.881-9.611 85.108-18.188 127.427-5.951 29.368-6.591 53.661-1.956 74.267 4.931 21.92 15.948 39.53 32.819 52.532-7.407 19.997-11.638 42.273-12.635 66.774-.083 2.035.668 4.017 2.079 5.487 1.411 1.469 3.361 2.301 5.398 2.301h287.108c2.037 0 3.987-.831 5.398-2.301 1.411-1.469 2.162-3.451 2.079-5.487-.996-24.51-5.233-46.79-12.647-66.791 5.555-4.279 10.505-9.043 14.758-14.28 2.605-3.208 2.118-7.919-1.089-10.526-3.209-2.608-7.922-2.118-10.527 1.089-6.058 7.458-13.837 13.843-23.123 18.979-31.645 17.505-82.371 25.764-116.119 24.878-39.308-1.034-84.384-4.798-120.687-24.877-20.538-11.361-33.037-28.063-38.21-51.062-4.164-18.505-3.502-40.752 2.022-68.01 9.279-45.783 14.887-92.371 19.383-138.713 1.242-12.804 2.528-26.044 4.952-38.776 6.994-36.721 19.638-63.224 39.792-83.41 28.869-28.908 69.169-42.465 109.828-36.087 27.2 4.267 51.785 16.745 71.098 36.087 20.155 20.184 32.799 46.687 39.793 83.409 3.099 16.28 4.242 32.231 5.927 48.619 4.761 46.32 9.712 85.961 18.409 128.869 5.948 29.35 6.263 52.985.964 72.254-1.096 3.985 1.246 8.104 5.23 9.2 3.99 1.104 8.105-1.245 9.2-5.23 5.937-21.585 5.699-47.491-.726-79.194zm-294.783 135.205c39.096 21.581 86.344 25.597 127.414 26.677 41.042 1.079 87.376-6.664 123.62-26.669 5.393 15.562 8.79 32.673 10.127 51.181h-271.275c1.337-18.507 4.723-35.627 10.114-51.189z"/><path d="m209.896 200.534c4.133 0 7.483-3.35 7.483-7.483v-14.918c0-4.133-3.35-7.483-7.483-7.483s-7.483 3.35-7.483 7.483v14.918c0 4.133 3.35 7.483 7.483 7.483z"/><path d="m302.02 200.534c4.133 0 7.483-3.35 7.483-7.483v-14.918c0-4.133-3.35-7.483-7.483-7.483s-7.483 3.35-7.483 7.483v14.918c0 4.133 3.35 7.483 7.483 7.483z"/><path d="m173.035 116.079c2.315-3.423 1.416-8.075-2.008-10.389-3.422-2.316-8.074-1.416-10.39 2.008-10.501 15.532-17.083 33.59-19.025 52.181-.424 3.866-.639 7.929-.642 12.075 0 .026-.004.051-.004.077v42.041c0 63.406 51.586 114.992 114.993 114.992 63.406 0 114.992-51.585 114.992-114.992v-42.041c0-.017-.002-.034-.002-.052-.002-4.149-.217-8.22-.639-12.062-2.716-26.032-14.451-50.607-33.042-69.199-21.719-21.719-50.595-33.68-81.309-33.68-25.866 0-50.297 8.389-70.651 24.261-3.259 2.541-3.842 7.243-1.3 10.501 2.54 3.261 7.244 3.841 10.501 1.3 17.7-13.801 38.949-21.096 61.449-21.096 26.716 0 51.834 10.404 70.726 29.297 16.172 16.171 26.379 37.54 28.744 60.208.207 1.888.357 3.835.448 5.822-1.136-1.035-2.301-2.056-3.494-3.061-13.183-11.105-28.401-19.831-45.232-25.936-33.011-11.972-69.371-11.974-102.383 0-16.831 6.104-32.051 14.83-45.234 25.937-1.193 1.005-2.358 2.026-3.493 3.059.092-1.993.242-3.95.451-5.858 1.694-16.192 7.415-31.888 16.544-45.393zm181.514 114.893c-.429 2.526-.953 5.003-1.578 7.49-10.917 43.404-50.269 75.635-97.012 75.635-21.844 0-43.343-7.285-60.687-20.565-19.89-15.229-33.677-37.824-37.895-62.502-.009-.054-.018-.109-.027-.164h197.218c-.007.035-.013.071-.019.106zm-185.373-55.255c11.832-9.968 25.523-17.811 40.694-23.313 29.72-10.78 62.457-10.78 92.176 0 15.17 5.501 28.862 13.345 40.693 23.312 5.063 4.266 9.508 8.819 13.244 13.556v24.799c0 .611-.012 1.219-.023 1.828h-200.005c-.011-.609-.023-26.626-.023-26.626 3.735-4.737 8.18-9.289 13.244-13.556z"/></g></g></svg>