<svg id="Capa_1" enable-background="new 0 0 512 512" height="512" viewBox="0 0 512 512" width="512" xmlns="http://www.w3.org/2000/svg"><g><g><path d="m139.367 454.698c-11.363 0-20.575-9.212-20.575-20.575v-43.207c0-11.364 9.212-20.575 20.575-20.575h1.577v-49.58l-20.077 6.628c-13.591 4.487-23.716 15.421-27.444 28.734l-35.257 102.886c-7.637 22.299 8.935 45.491 32.506 45.491h59.627v-49.802z" fill="#8ac9fe"/><path d="m94.867 459.009 11.446-33.401-1.02 1.02c-1.465 1.464-3.385 2.196-5.304 2.196s-3.839-.732-5.304-2.196c-2.929-2.93-2.929-7.678 0-10.607l16.605-16.605v-8.499c0-10.964 6.321-20.474 15.509-25.092l3.325-9.702c.809-2.887 1.936-5.652 3.319-8.272v-16.715l-10.225 3.375c-11.009 3.634-19.447 12.469-22.573 23.634-.039.137-.081.273-.128.409l-35.256 102.886c-2.845 8.307-1.548 17.17 3.558 24.315s13.071 11.245 21.853 11.245h15.265c-10.764-8.635-16.033-23.498-11.07-37.991z" fill="#60b7ff"/><path d="m453.834 459.009-33.78-98.638c-3.475-15.663-14.94-28.702-30.634-33.884l-17.347-5.727v49.58h1.577c11.364 0 20.575 9.212 20.575 20.575v43.207c0 11.363-9.212 20.575-20.575 20.575h-10.932v49.803h58.61c23.571 0 40.143-23.192 32.506-45.491z" fill="#8ac9fe"/></g><g><path d="m347.323 454.698c-6.187 0-11.575-4.658-12.016-10.829-.118-1.645.113-3.221.614-4.669 0 .001-.001.002-.001.003l-77.401 33.99c-1.281.563-2.74.563-4.021 0l-77.401-33.99c.5 1.448.73 3.022.613 4.667-.442 6.171-5.829 10.829-12.016 10.829h-15.395v49.801h212.419v-49.802z" fill="#fef1da"/></g><g><path d="m177.097 439.203c.5 1.448.73 3.022.613 4.667-.442 6.171-5.829 10.829-12.016 10.829h-15.395v49.801h31.282v-63.328z" fill="#fae2c0"/></g><g><path d="m147.954 305.068 106.544 46.788c1.281.563 2.74.563 4.021 0l106.544-46.788c3.304-1.451 7.01.969 7.01 4.578v.002-186.584c0-63.824-51.74-115.564-115.565-115.564-63.825 0-115.565 51.74-115.565 115.565v186.581c0-3.609 3.707-6.029 7.011-4.578z" fill="#fd8087"/></g><path d="m147.954 305.068 2.564 1.126v-23.179c0-4.091 4.645-6.451 7.949-4.038l24.403 17.822v-53.548c-11.015-13.479-17.628-30.696-17.628-49.461v-55.322c0-16.939 8.082-31.986 20.594-41.512 10.291-44.558 46.348-79.254 91.636-87.553-6.799-1.247-13.805-1.903-20.964-1.903-63.825 0-115.565 51.74-115.565 115.565v186.581c0-3.609 3.707-6.029 7.011-4.578z" fill="#fe646f"/><g><path d="m254.498 351.856c1.281.563 2.74.563 4.021 0l103.979-45.662v-23.179c0-4.091-4.645-6.451-7.949-4.038l-98.041 71.601-98.041-71.601c-3.304-2.413-7.949-.053-7.949 4.038v23.179z" fill="#fff"/></g><g><g><path d="m171.021 315.198v-27.053l-12.554-9.168c-3.304-2.413-7.949-.053-7.949 4.038v23.179z" fill="#f3f0f3"/></g></g><g><path d="m269.546 272.018h-26.076c-43.204 0-78.228-35.024-78.228-78.228v-55.322c0-28.803 23.349-52.152 52.152-52.152h78.228c28.803 0 52.152 23.349 52.152 52.152v55.322c0 43.204-35.024 78.228-78.228 78.228z" fill="#ea9b58"/></g><g><path d="m196.468 193.79v-55.322c0-8.104 1.848-15.775 5.146-22.617-21.088 6.688-36.372 26.414-36.372 49.715v28.224c0 43.204 35.024 78.228 78.228 78.228h26.076c.864 0 1.718-.038 2.575-.065-42.009-1.362-75.653-35.822-75.653-78.163z" fill="#d88a55"/></g><g><path d="m295.622 86.316h-78.228c-28.803 0-52.152 23.349-52.152 52.152v27.098c0-28.803 23.349-52.152 52.152-52.152h78.228c28.803 0 52.152 23.349 52.152 52.152v-27.098c0-28.803-23.349-52.152-52.152-52.152z" fill="#fff"/></g><g><g><path d="m248.62 86.316h-31.226c-28.803 0-52.152 23.349-52.152 52.152v27.098c0-23.301 15.284-43.028 36.372-49.715 8.425-17.476 26.307-29.535 47.006-29.535z" fill="#f3f0f3"/></g></g><path d="m341.206 432.847c-3.538-2.009-5.929-5.804-5.929-10.164s2.391-8.155 5.929-10.164c-3.538-2.009-5.929-5.804-5.929-10.164s2.391-8.155 5.929-10.164c-3.769-2.14-6.236-6.306-5.899-11.022.442-6.171 5.829-10.829 12.016-10.829h24.749v-60.694c0-3.609-3.706-6.029-7.01-4.578l-106.544 46.788c-1.281.563-2.74.563-4.021 0l-106.544-46.788c-3.304-1.451-7.01.969-7.01 4.578v60.694h24.75c6.187 0 11.575 4.658 12.016 10.829.338 4.716-2.13 8.883-5.899 11.022 3.538 2.009 5.929 5.804 5.929 10.164 0 4.359-2.391 8.154-5.929 10.164 3.538 2.009 5.929 5.804 5.929 10.164 0 4.359-2.391 8.154-5.929 10.164 2.455 1.394 4.351 3.651 5.286 6.356l77.401 33.99c1.281.563 2.74.563 4.021 0l77.401-33.99c.936-2.706 2.832-4.963 5.287-6.356z" fill="#47a920"/><path d="m147.954 305.068c-3.304-1.451-7.01.969-7.01 4.578v60.694h24.75c6.187 0 11.575 4.658 12.016 10.829.338 4.716-2.13 8.883-5.899 11.022 3.538 2.009 5.929 5.804 5.929 10.164 0 4.359-2.391 8.154-5.929 10.164 3.538 2.009 5.929 5.804 5.929 10.164 0 4.359-2.391 8.154-5.929 10.164 2.455 1.394 4.351 3.651 5.286 6.356l77.401 33.99c.641.281 1.325.422 2.01.422v-121.337c-.685 0-1.37-.141-2.01-.422z" fill="#80d261"/><path d="m165.693 370.34c.441 0 .876.03 1.307.076v-50.194c0-2.533 1.753-4.499 3.948-5.057l-22.994-10.098c-3.304-1.451-7.01.969-7.01 4.578v60.694h24.749z" fill="#4fc123"/><g><g><path d="m177.74 402.356c0-4.359-2.392-8.154-5.929-10.164 3.768-2.14 6.236-6.306 5.899-11.022-.442-6.171-5.829-10.829-12.016-10.829h-26.326c-11.363 0-20.575 9.212-20.575 20.575v43.207c0 11.363 9.212 20.575 20.575 20.575h26.326c6.187 0 11.575-4.658 12.016-10.829.338-4.716-2.13-8.882-5.899-11.022 3.538-2.009 5.929-5.804 5.929-10.164 0-4.359-2.392-8.154-5.929-10.164 3.538-2.009 5.929-5.804 5.929-10.163z" fill="#ea9b58"/></g><g><path d="m139.051 434.123v-43.207c0-11.364 9.212-20.575 20.575-20.575h-20.26c-11.363 0-20.575 9.212-20.575 20.575v43.207c0 11.363 9.212 20.575 20.575 20.575h20.26c-11.363 0-20.575-9.212-20.575-20.575z" fill="#c57a44"/></g><g><path d="m335.276 402.356c0-4.359 2.392-8.154 5.929-10.164-3.768-2.14-6.236-6.306-5.899-11.022.442-6.171 5.829-10.829 12.016-10.829h26.326c11.363 0 20.575 9.212 20.575 20.575v43.207c0 11.363-9.212 20.575-20.575 20.575h-26.326c-6.187 0-11.575-4.658-12.016-10.829-.338-4.716 2.13-8.882 5.899-11.022-3.538-2.009-5.929-5.804-5.929-10.164 0-4.359 2.392-8.154 5.929-10.164-3.537-2.009-5.929-5.804-5.929-10.163z" fill="#ea9b58"/></g><g><path d="m356.051 434.123v-43.207c0-10.861 8.421-19.735 19.087-20.5-.494-.035-.986-.075-1.489-.075h-26.326c-6.187 0-11.575 4.658-12.016 10.829-.338 4.716 2.13 8.883 5.899 11.022-3.538 2.009-5.929 5.804-5.929 10.164 0 4.359 2.391 8.154 5.929 10.164-3.538 2.009-5.929 5.804-5.929 10.164 0 4.359 2.391 8.154 5.929 10.164-3.769 2.14-6.236 6.306-5.899 11.022.442 6.171 5.829 10.829 12.016 10.829h26.326c.502 0 .995-.04 1.489-.075-10.666-.766-19.087-9.64-19.087-20.501z" fill="#c57a44"/></g></g><g><path d="m217.395 78.815c-32.893 0-59.652 26.76-59.652 59.652v55.322c0 47.271 38.458 85.728 85.729 85.728h26.075c47.271 0 85.729-38.457 85.729-85.728v-55.322c0-32.893-26.76-59.652-59.652-59.652zm122.879 86.751v28.224c0 38.999-31.729 70.728-70.729 70.728h-26.075c-39 0-70.729-31.729-70.729-70.728v-28.224c0-24.621 20.031-44.652 44.652-44.652h78.228c24.622 0 44.653 20.031 44.653 44.652zm-2.683-42.351c-10.785-10.69-25.619-17.301-41.969-17.301h-78.228c-16.35 0-31.184 6.61-41.969 17.301 6.246-17.133 22.702-29.399 41.969-29.399h78.228c19.267-.001 35.723 12.266 41.969 29.399z"/><path d="m255.111 213.847h11.485c4.143 0 7.5-3.357 7.5-7.5s-3.357-7.5-7.5-7.5h-11.485c-.657 0-1.192-.534-1.192-1.191v-25.643c0-4.143-3.357-7.5-7.5-7.5s-7.5 3.357-7.5 7.5v25.643c0 8.927 7.264 16.191 16.192 16.191z"/><path d="m280.638 221.904c-13.305 13.307-34.954 13.307-48.259 0-2.93-2.928-7.678-2.928-10.607 0-2.929 2.93-2.929 7.678 0 10.607 9.577 9.576 22.157 14.365 34.736 14.365 12.58 0 25.16-4.789 34.737-14.365 2.929-2.93 2.929-7.678 0-10.607-2.93-2.927-7.678-2.927-10.607 0z"/><path d="m208.794 164.432c-4.143 0-7.5 3.357-7.5 7.5v12.771c0 4.143 3.357 7.5 7.5 7.5s7.5-3.357 7.5-7.5v-12.771c0-4.143-3.357-7.5-7.5-7.5z"/><path d="m220.904 156.052c1.465 1.465 3.384 2.197 5.304 2.197 1.919 0 3.839-.732 5.303-2.196 2.93-2.929 2.93-7.678.001-10.606-6.072-6.072-14.14-9.417-22.718-9.417s-16.646 3.345-22.719 9.416c-2.929 2.93-2.929 7.678 0 10.607 2.93 2.928 7.678 2.928 10.607 0 3.238-3.239 7.54-5.023 12.111-5.023s8.873 1.783 12.111 5.022z"/><path d="m304.223 164.432c-4.143 0-7.5 3.357-7.5 7.5v12.771c0 4.143 3.357 7.5 7.5 7.5s7.5-3.357 7.5-7.5v-12.771c0-4.143-3.358-7.5-7.5-7.5z"/><path d="m304.223 136.029c-8.578 0-16.646 3.345-22.719 9.416-2.929 2.93-2.929 7.678 0 10.607 2.93 2.928 7.678 2.928 10.607 0 3.238-3.239 7.54-5.023 12.111-5.023s8.872 1.784 12.11 5.022c1.465 1.465 3.384 2.197 5.304 2.197 1.919 0 3.839-.732 5.303-2.196 2.93-2.929 2.93-7.678.001-10.606-6.072-6.072-14.139-9.417-22.717-9.417z"/><path d="m460.93 456.579-5.418-15.821c-1.342-3.919-5.605-6.005-9.525-4.666-3.919 1.342-6.008 5.606-4.666 9.525l5.418 15.821c2.846 8.309 1.549 17.172-3.557 24.317s-13.072 11.245-21.854 11.245h-51.11v-34.802h3.432c15.48 0 28.075-12.595 28.075-28.075v-13.494l5.999 5.999c1.465 1.464 3.385 2.196 5.304 2.196s3.839-.732 5.304-2.196c2.929-2.93 2.929-7.678 0-10.607l-16.606-16.606v-8.498c0-13.448-9.507-24.713-22.151-27.441v-32.341l7.495 2.474c12.89 4.256 22.724 15.133 25.663 28.387.061.272.137.542.227.806l17.017 49.688c1.343 3.92 5.611 6.007 9.525 4.666 3.919-1.342 6.008-5.607 4.666-9.525l-16.887-49.308c-4.192-18.195-17.763-33.099-35.508-38.958l-12.198-4.027v-81.338c0-4.143-3.357-7.5-7.5-7.5s-7.5 3.357-7.5 7.5v38.711c-.449-.307-.92-.591-1.415-.842-4.217-2.141-9.212-1.741-13.032 1.051l-93.618 68.37-93.617-68.37c-3.82-2.79-8.813-3.191-13.032-1.051-.495.251-.966.535-1.415.842v-149.647c-.003-59.586 48.475-108.064 108.062-108.064 59.588 0 108.065 48.478 108.065 108.064v75.936c0 4.143 3.357 7.5 7.5 7.5s7.5-3.357 7.5-7.5v-75.936c0-67.858-55.207-123.064-123.065-123.064s-123.065 55.206-123.065 123.064v192.274l-14.927 4.928c-15.69 5.18-27.733 17.737-32.256 33.619l-35.19 102.694c-4.435 12.948-2.414 26.762 5.544 37.898 7.957 11.136 20.371 17.523 34.058 17.523h330.656c13.687 0 26.101-6.387 34.058-17.522 7.958-11.137 9.978-24.951 5.544-37.899zm-87.281-78.738c7.21 0 13.075 5.865 13.075 13.075v43.207c0 7.21-5.865 13.075-13.075 13.075h-26.326c-2.349 0-4.383-1.734-4.536-3.863-.14-1.957 1.005-3.332 2.122-3.967 2.346-1.332 3.796-3.823 3.796-6.521s-1.449-5.189-3.796-6.521c-1.315-.747-2.133-2.143-2.133-3.643 0-1.499.817-2.895 2.133-3.642 2.346-1.332 3.796-3.823 3.796-6.521s-1.45-5.189-3.796-6.521c-1.315-.747-2.133-2.143-2.133-3.643 0-1.499.817-2.895 2.133-3.642 2.346-1.332 3.796-3.822 3.796-6.521s-1.449-5.189-3.795-6.521c-1.118-.636-2.263-2.011-2.123-3.966.153-2.131 2.188-3.865 4.536-3.865zm-18.651-89.905v13.361l-45.888 20.151zm-196.979.001 45.885 33.51-45.885-20.15zm-9.576 25.538 100.564 44.162v27.363c0 4.143 3.357 7.5 7.5 7.5s7.5-3.357 7.5-7.5v-27.363l100.564-44.163v49.366h-17.249c-10.218 0-18.782 7.815-19.497 17.795-.3 4.188.738 8.21 2.857 11.584-1.866 2.996-2.907 6.497-2.907 10.136 0 3.65 1.048 7.162 2.925 10.164-1.877 3.002-2.925 6.514-2.925 10.163 0 3.639 1.041 7.141 2.907 10.136-.135.214-.252.439-.378.658l-66.298 29.115v-42.591c0-4.143-3.357-7.5-7.5-7.5s-7.5 3.357-7.5 7.5v42.591l-66.297-29.114c-.126-.22-.244-.444-.378-.659 1.866-2.996 2.907-6.497 2.907-10.136 0-3.65-1.047-7.161-2.925-10.163 1.878-3.002 2.925-6.514 2.925-10.164 0-3.639-1.041-7.14-2.908-10.136 2.12-3.375 3.158-7.396 2.858-11.586-.715-9.978-9.279-17.793-19.497-17.793h-17.25v-49.365zm-9.076 64.366h26.326c2.349 0 4.383 1.734 4.536 3.863.14 1.956-1.005 3.332-2.123 3.967-2.347 1.333-3.796 3.823-3.796 6.522 0 2.698 1.45 5.188 3.797 6.521 1.315.746 2.133 2.142 2.133 3.641 0 1.5-.817 2.896-2.133 3.642-2.347 1.333-3.797 3.823-3.797 6.522s1.45 5.189 3.797 6.522c1.315.746 2.133 2.142 2.133 3.641 0 1.5-.817 2.896-2.133 3.642-2.347 1.333-3.797 3.823-3.797 6.522s1.45 5.189 3.797 6.522c1.117.634 2.262 2.009 2.122 3.964-.153 2.131-2.188 3.865-4.536 3.865h-26.326c-7.21 0-13.076-5.865-13.076-13.075v-43.207c0-7.209 5.866-13.074 13.076-13.074zm3.432 119.159h-52.127c-8.782 0-16.748-4.099-21.854-11.244s-6.402-16.009-3.558-24.315l35.257-102.887c.047-.136.089-.272.128-.409 3.126-11.165 11.564-20 22.573-23.634l10.225-3.375v32.34c-12.645 2.727-22.152 13.992-22.152 27.441v8.499l-16.605 16.605c-2.929 2.93-2.929 7.678 0 10.607 1.465 1.464 3.385 2.196 5.304 2.196s3.839-.732 5.304-2.196l5.998-5.998v13.493c0 15.48 12.595 28.075 28.076 28.075h3.432v34.802zm212.419 0h-197.419v-34.802h7.895c8.082 0 15.112-4.899 18.059-11.881l67.73 29.744c.076.033.156.056.233.088 1.526.635 3.135.967 4.792.967.271 0 .538-.016.802-.044 1.444-.092 2.876-.419 4.225-1.011l67.729-29.743c2.947 6.982 9.977 11.881 18.06 11.881h7.895v34.801z"/></g></g></svg>