<svg id="Capa_1" enable-background="new 0 0 511.96 511.96" height="512" viewBox="0 0 511.96 511.96" width="512" xmlns="http://www.w3.org/2000/svg"><g><g><path d="m49.519 302.715v61.428h100.338c10.893 0 19.724 8.831 19.724 19.724v120.617h172.799v-120.617c0-10.893 8.831-19.724 19.724-19.724h100.338v-61.428z" fill="#c8effe"/><g fill="#f6a96c"><path d="m146.154 227.985c-3.092 1.326-6.378 2.061-9.955 2.061-14.125 0-25.575-11.45-25.575-25.575s11.45-25.575 25.575-25.575c3.531 0 6.895.716 9.955 2.01z"/><path d="m365.752 227.985c3.092 1.326 6.378 2.061 9.955 2.061 14.125 0 25.575-11.45 25.575-25.575s-11.45-25.575-25.575-25.575c-3.531 0-6.895.716-9.955 2.01z"/></g><g fill="#ea9b58"><path d="m146.158 180.901v47.084c-3.094 1.327-6.377 2.066-9.96 2.066-2.724 0-5.349-.429-7.804-1.218v-48.72c2.455-.788 5.08-1.217 7.804-1.217 3.533-.001 6.896.717 9.96 2.005z"/><path d="m401.286 204.473c0 14.121-11.457 25.578-25.578 25.578-3.583 0-6.866-.739-9.96-2.066v-3.722c9.261-3.832 15.778-12.973 15.778-23.622 0-8.802-4.451-16.576-11.227-21.167 1.746-.379 3.553-.579 5.409-.579 14.122 0 25.578 11.447 25.578 25.578z"/></g><g><path d="m255.955 426.212c-4.134 0-7.485-3.351-7.485-7.485v-107.476c0-4.134 3.351-7.485 7.485-7.485s7.485 3.351 7.485 7.485v107.477c0 4.134-3.352 7.484-7.485 7.484z" fill="#62dbfb"/></g><path d="m367.019 156.139v54.428c0 26.445-9.243 50.732-24.675 69.806-2.2 2.719-11.437 7.023-13.879 9.521-20.165 20.627-41.387 25.758-72.512 25.758-26.495 0-43.952-6.032-63.042-21.516-4.138-3.356-14.902-4.27-18.516-8.179-18.315-19.803-29.507-46.29-29.507-75.391v-54.428c0-3.956.202-7.859.617-11.708 5.838-55.83 53.066-99.357 110.449-99.357 30.67 0 58.436 12.432 78.535 32.531 17.504 17.504 29.202 40.836 31.914 66.826.414 3.85.616 7.753.616 11.709z" fill="#f6a96c"/><path d="m367.016 156.142v54.429c0 22.483-6.682 43.406-18.168 60.892-.488.743-6.113 2.91-6.618 3.64-20.043 28.977-48.38 46.531-86.277 46.531-3.363 0-6.696-.15-9.98-.449 56.664-5.039 101.083-52.642 101.083-110.614v-54.429c0-3.962-.2-7.864-.619-11.706-2.704-25.997-14.4-49.329-31.905-66.833-17.893-17.893-41.874-29.709-68.57-32.074 3.283-.299 6.617-.449 9.99-.449 30.667 0 58.441 12.425 78.539 32.523 17.504 17.504 29.2 40.837 31.905 66.833.421 3.841.62 7.744.62 11.706z" fill="#ea9b58"/><path d="m144.888 123.61h222.131v31.595h-222.131z" fill="#7a6d79"/><path d="m345.79 123.608h21.227v31.595h-21.227z" fill="#685e68"/><g><g><path d="m208.134 233.496c-4.021 0-7.28-3.259-7.28-7.28v-13.902c0-4.021 3.26-7.28 7.28-7.28 4.021 0 7.28 3.259 7.28 7.28v13.902c0 4.021-3.26 7.28-7.28 7.28z" fill="#7a6d79"/></g><g><path d="m303.773 233.496c-4.021 0-7.28-3.259-7.28-7.28v-13.902c0-4.021 3.26-7.28 7.28-7.28s7.28 3.259 7.28 7.28v13.902c.001 4.021-3.259 7.28-7.28 7.28z" fill="#7a6d79"/></g><g><path d="m192.91 197.517c-1.848 0-3.696-.699-5.115-2.1-2.861-2.825-2.89-7.435-.065-10.296 6.251-6.331 13.965-11.305 22.309-14.386 3.772-1.39 7.959.536 9.352 4.308 1.393 3.771-.536 7.958-4.308 9.351-6.355 2.347-12.231 6.136-16.992 10.958-1.424 1.442-3.302 2.165-5.181 2.165z" fill="#7a6d79"/></g><g><path d="m318.996 197.517c-1.879 0-3.757-.722-5.181-2.165-4.76-4.821-10.636-8.61-16.991-10.958-3.772-1.393-5.701-5.58-4.308-9.352 1.393-3.77 5.577-5.7 9.352-4.307 8.345 3.081 16.058 8.056 22.308 14.386 2.825 2.861 2.796 7.471-.065 10.296-1.419 1.4-3.268 2.1-5.115 2.1z" fill="#7a6d79"/></g></g><path d="m144.888 123.61v-5.066c0-13.696 2.479-26.814 7.013-38.928.599-1.6 3.405-1.438 4.075-3.002 3.614-8.441 8.594-16.764 14.085-23.975 2.171-2.85 1.953-6.916 4.384-9.541 20.287-21.907 49.296-35.619 81.508-35.619 32.212 0 61.221 13.713 81.508 35.619 0 0 .596 3.591 1.923 5.195 7.172 8.669 13.387 19.229 17.682 29.819.374.922 2.589.569 2.939 1.504 4.534 12.114 7.013 25.232 7.013 38.928v5.066z" fill="#b5adb6"/><path d="m367.016 118.548v5.06h-21.226v-5.06c0-30.667-12.435-58.441-32.524-78.539-17.754-17.754-41.485-29.52-67.921-32.034 3.493-.329 7.025-.499 10.608-.499 30.677 0 58.441 12.435 78.539 32.533 1.01 1.01 2 2.039 2.971 3.087.783.845.415 4.028 1.172 4.898 7.932 9.116 13.491 17.855 18.131 29.219.411 1.007 2.856 1.382 3.238 2.403 4.534 12.117 7.012 25.236 7.012 38.932z" fill="#a79ba7"/><g fill="#f9f3f1"><path d="m196.894 65.547-27.857 27.857c-.924.924-2.421.924-3.344 0l-13.786-13.786c5.1-13.652 12.814-26.027 22.544-36.515z"/><path d="m255.946 65.544-27.804 27.804c-.951.951-2.494.951-3.445 0l-27.804-27.804 27.804-27.804c.951-.951 2.494-.951 3.445 0z"/><path d="m315 65.544-27.804 27.804c-.951.951-2.494.951-3.445 0l-27.804-27.804 27.804-27.804c.951-.951 2.494-.951 3.445 0z"/><path d="m360.001 79.618-13.786 13.786c-.924.924-2.421.924-3.344 0l-27.857-27.857 22.444-22.444c9.729 10.488 17.443 22.863 22.543 36.515z"/></g><path d="m360.001 79.618-13.782 13.782c-.926.926-2.427.926-3.353 0l-14.401-14.4 9.04-6.769c2.839-2.125 3.611-6.082 1.722-9.083-2.761-4.387-6.43-8.589-9.295-12.521l7.525-7.525c9.73 10.489 17.444 22.864 22.544 36.516z" fill="#efe2dd"/><path d="m196.894 65.547-27.853 27.853c-.926.926-2.427.926-3.353 0l-8.293-8.293 13.798-13.805c3.177-3.178 3.176-8.33-.002-11.508l-5.694-5.693c2.735-3.862 5.738-7.535 8.952-10.998z" fill="#efe2dd"/><path d="m255.943 65.547-27.853 27.853c-.918.918-2.415.918-3.343 0l-8.303-8.303 13.801-13.794c3.18-3.178 3.18-8.334 0-11.512l-13.801-13.794 8.303-8.303c.928-.928 2.425-.928 3.343 0z" fill="#efe2dd"/><path d="m315.003 65.547-27.853 27.853c-.928.918-2.425.918-3.353 0l-8.293-8.293 13.798-13.805c3.177-3.178 3.176-8.33-.001-11.508l-13.797-13.797 8.293-8.303c.928-.928 2.425-.928 3.353 0z" fill="#efe2dd"/><path d="m348.838 271.456c-19.829 30.228-54.03 50.178-92.88 50.178-38.691 0-72.771-19.79-92.651-49.798l30.877-2.026c3.553-.22 6.996-1.128 10.159-2.634 3.164-1.487 6.048-3.573 8.493-6.167 5.978-6.357 13.143-11.337 20.987-14.74 7.864-3.393 16.386-5.19 25.119-5.19 17.464 0 34.15 7.215 46.106 19.929 4.88 5.189 11.546 8.343 18.652 8.802z" fill="#b5adb6"/><path d="m348.838 271.456c-.02.03-.04.06-.06.1-19.849 30.168-54.01 50.078-92.82 50.078-3.363 0-6.696-.15-9.98-.449 35.218-3.133 65.696-22.704 83.719-50.986z" fill="#a79ba7"/><path d="m147.945 249.351-24.194-8.273-11.77-19.952 7.801-9.94c7.794-9.931 22.163-11.664 32.094-3.869 9.931 7.794 11.664 22.163 3.869 32.094z" fill="#d88a55"/><path d="m160.623 225.31c0 4.94-1.597 9.91-4.88 14.101l-7.794 9.94-16.786-13.173 2.665-3.393c3.283-4.191 4.88-9.161 4.88-14.101 0-5.678-2.116-11.307-6.187-15.638 6.527-1.527 13.672-.19 19.36 4.271 5.738 4.51 8.742 11.217 8.742 17.993z" fill="#c57a44"/><g><path d="m255.483 288.414c-7.164 0-13.931-3.136-18.565-8.604-2.6-3.068-2.221-7.662.846-10.262 3.068-2.598 7.663-2.219 10.261.847 1.863 2.197 4.581 3.458 7.458 3.458 2.876 0 5.594-1.261 7.458-3.458 2.6-3.066 7.194-3.447 10.261-.845 3.067 2.6 3.445 7.194.845 10.262-4.635 5.467-11.402 8.602-18.564 8.602z" fill="#7a6d79"/></g><path d="m33.246 358.339c-12.231-9.572-14.387-27.246-4.816-39.477l75.937-98.98c1.279-1.667 3.671-1.97 5.325-.676l38.343 30.005c1.632 1.277 1.93 3.63.669 5.274l-75.981 99.038c-9.571 12.232-27.246 14.388-39.477 4.816z" fill="#c8effe"/><path d="m148.707 254.49-75.985 99.038c-9.57 12.225-27.244 14.38-39.479 4.81-.978-.768-1.896-1.587-2.734-2.455 8.972.17 17.903-3.742 23.861-11.347l79.927-104.177c.319-.419.549-.888.679-1.367l13.063 10.219c1.626 1.278 1.926 3.633.668 5.279z" fill="#99e6fc"/><path d="m364.015 249.351 24.194-8.273 11.77-19.952-7.801-9.94c-7.794-9.931-22.163-11.664-32.094-3.869-9.931 7.794-11.664 22.163-3.87 32.094z" fill="#d88a55"/><path d="m399.975 221.123-11.765 19.958-5.3 1.815 3.883-6.591-7.795-9.94c-6.514-8.3-17.619-10.872-26.889-6.941 1.223-4.63 3.922-8.911 7.979-12.105 9.931-7.795 24.297-6.067 32.092 3.863z" fill="#c57a44"/><path d="m478.714 358.339c12.231-9.572 14.387-27.246 4.816-39.477l-75.937-98.98c-1.279-1.667-3.671-1.97-5.325-.676l-38.343 30.005c-1.632 1.277-1.93 3.63-.669 5.274l75.981 99.038c9.571 12.232 27.246 14.388 39.477 4.816z" fill="#c8effe"/><path d="m478.711 358.336c-1.961 1.534-4.058 2.767-6.242 3.699 4.388-9.659 3.378-21.366-3.611-30.296l-78.93-102.878 12.338-9.649c1.66-1.301 4.048-1 5.329.67l75.93 98.985c9.572 12.23 7.417 29.898-4.814 39.469z" fill="#99e6fc"/></g><g><g><path d="m208.162 204.829c-4.133 0-7.484 3.351-7.484 7.485v13.902c0 4.134 3.351 7.484 7.484 7.484 4.134 0 7.484-3.35 7.484-7.484v-13.902c0-4.134-3.351-7.485-7.484-7.485z"/><path d="m303.798 204.829c-4.133 0-7.484 3.351-7.484 7.485v13.902c0 4.134 3.351 7.484 7.484 7.484 4.134 0 7.484-3.35 7.484-7.484v-13.902c.001-4.134-3.35-7.485-7.484-7.485z"/><path d="m192.939 197.722c1.932 0 3.863-.744 5.327-2.227 4.738-4.799 10.587-8.571 16.916-10.909 3.877-1.432 5.86-5.736 4.428-9.614-1.432-3.876-5.735-5.859-9.614-4.427-8.373 3.092-16.113 8.084-22.382 14.435-2.904 2.941-2.873 7.68.068 10.583 1.458 1.441 3.358 2.159 5.257 2.159z"/><path d="m296.778 184.586c6.329 2.338 12.178 6.11 16.916 10.909 1.464 1.484 3.395 2.227 5.327 2.227 1.899 0 3.799-.718 5.258-2.159 2.942-2.903 2.972-7.642.068-10.583-6.269-6.351-14.009-11.343-22.382-14.435-3.88-1.431-8.182.55-9.614 4.427-1.433 3.878.549 8.182 4.427 9.614z"/><path d="m487.666 314.303-75.936-98.977c-1.045-1.362-2.362-2.433-3.849-3.185.591-2.462.908-5.029.908-7.671 0-18.229-14.83-33.06-33.059-33.06-.404 0-.802.034-1.204.049v-52.914c.001-65.365-53.179-118.545-118.546-118.545s-118.547 53.18-118.547 118.546v52.908c-.401-.015-.8-.043-1.204-.043-18.229 0-33.059 14.831-33.059 33.06 0 2.641.316 5.208.908 7.67-1.489.748-2.804 1.822-3.849 3.185l-75.891 98.921c-5.861 7.49-8.455 16.814-7.303 26.254s5.911 17.867 13.4 23.728c5.13 4.015 11.026 6.389 17.058 7.212.504.111 1.026.176 1.563.179 1.087.1 100.385.002 100.385.002 6.749 0 12.239 5.49 12.239 12.239v120.613c0 4.134 3.351 7.484 7.484 7.484h173.63c4.133 0 7.484-3.351 7.484-7.484v-52.425c0-4.134-3.351-7.485-7.484-7.485-4.134 0-7.484 3.351-7.484 7.485v44.94h-158.661v-113.127c0-15.003-12.205-27.208-27.208-27.208h-67.889l35.642-46.457h74.649c16.529 10.685 35.871 17.362 56.652 18.667v89.858c0 4.134 3.351 7.484 7.484 7.484s7.484-3.35 7.484-7.484v-89.858c20.795-1.303 40.156-7.976 56.696-18.667h74.606l35.642 46.457h-67.89c-15.003 0-27.208 12.205-27.208 27.208v32.612c0 4.134 3.351 7.484 7.484 7.484s7.484-3.35 7.484-7.484v-32.612c0-6.749 5.49-12.239 12.239-12.239 0 0 99.318.099 100.424-.004.515-.006 1.015-.067 1.5-.172 6.04-.822 11.946-3.198 17.083-7.218 7.49-5.861 12.249-14.288 13.4-23.728s-1.439-18.765-7.257-26.198zm-113.139-127.883c.399-.026.8-.04 1.204-.04 9.744 0 17.692 7.75 18.055 17.407-5.287-5.264-12.172-8.24-19.259-8.742zm-11.621 26.784c2.81-2.205 6.153-3.273 9.475-3.273 4.562 0 9.082 2.017 12.11 5.876l3.18 4.051-24.188 18.982-3.18-4.052c-5.233-6.667-4.066-16.35 2.603-21.584zm-11.69-135.359-6.65 6.65-18.945-18.944 11.412-11.412c5.725 7.188 10.513 15.152 14.183 23.706zm-95.236-62.876c27.408 0 52.361 10.704 70.906 28.147l-11.854 11.854-22.57-22.57c-3.839-3.838-10.087-3.836-13.927.001l-22.562 22.562-22.564-22.563c-3.839-3.836-10.086-3.834-13.926.002l-22.562 22.562-11.847-11.847c18.545-17.444 43.498-28.148 70.906-28.148zm48.46 50.58-18.941 18.941-18.942-18.941 18.941-18.942zm-59.051 0-18.942 18.941-18.942-18.941 18.942-18.942zm-70.463-11.411 11.412 11.412-18.945 18.944-6.65-6.65c3.671-8.553 8.458-16.517 14.183-23.706zm-22.524 76.959h32.405c4.133 0 7.484-3.35 7.484-7.484s-3.351-7.484-7.484-7.484h-32.377c.178-7.715 1.208-15.223 2.991-22.437l5.008 5.008c1.92 1.92 4.442 2.88 6.965 2.88 2.522 0 5.045-.96 6.965-2.88l22.565-22.564 22.558 22.557c1.86 1.861 4.334 2.886 6.966 2.886 2.631 0 5.104-1.024 6.965-2.885l22.562-22.561 22.56 22.559c1.86 1.861 4.334 2.886 6.966 2.886s5.106-1.025 6.965-2.885l22.567-22.566 22.569 22.573c1.92 1.92 4.442 2.88 6.965 2.88 2.522 0 5.045-.96 6.965-2.88l5.008-5.008c1.784 7.214 2.813 14.721 2.991 22.437h-138.89c-4.133 0-7.484 3.35-7.484 7.484s3.351 7.484 7.484 7.484h138.917v16.625h-207.156zm0 31.594h207.155v35.122c-2.055.96-4.035 2.158-5.894 3.616-13.161 10.33-15.465 29.441-5.136 42.602l3.715 4.733c-2.068 5.193-4.534 10.184-7.379 14.926l-20.657-1.353c-5.222-.337-10.081-2.631-13.681-6.459-13.319-14.164-32.11-22.287-51.557-22.287-9.71 0-19.159 1.952-28.097 5.808-8.927 3.873-16.82 9.417-23.454 16.472-1.795 1.904-3.891 3.427-6.264 4.543-2.344 1.117-4.834 1.763-7.43 1.923l-26.402 1.732c-2.941-4.855-5.481-9.977-7.601-15.31l3.712-4.729c10.329-13.161 8.025-32.272-5.136-42.603-1.859-1.458-3.839-2.656-5.894-3.615zm-3.348 50.512c6.669 5.234 7.836 14.917 2.603 21.585l-3.18 4.052-24.188-18.982 3.18-4.052c5.234-6.669 14.916-7.836 21.585-2.603zm-12.825-26.823c.404 0 .805.014 1.204.04v8.626c-7.087.502-13.972 3.477-19.259 8.74.364-9.657 8.311-17.406 18.055-17.406zm-67.6 162.526c-7.012 8.961-20.008 10.545-28.969 3.535-4.341-3.397-7.099-8.282-7.767-13.753-.668-5.472.836-10.876 4.277-15.273l73.595-95.927 32.468 25.48zm60.05-53.678 22.502-29.331c5.774 10.893 13.205 20.775 21.939 29.331zm127.301 18.918c-31.199 0-59.219-13.866-78.224-35.758l16.918-1.111c4.489-.277 8.834-1.402 12.882-3.331 4.047-1.902 7.666-4.529 10.761-7.813 5.237-5.57 11.465-9.943 18.498-12.995 7.041-3.038 14.494-4.577 22.153-4.577 15.334 0 30.151 6.405 40.653 17.573 6.21 6.603 14.599 10.559 23.614 11.142l11.287.739c-19.01 22.106-47.168 36.131-78.542 36.131zm82.895-18.918c8.731-8.551 16.133-18.445 21.901-29.333l22.505 29.333zm141.192 43.46c-.668 5.471-3.426 10.355-7.767 13.753-8.961 7.013-21.956 5.426-28.925-3.478l-73.647-95.994 32.468-25.48 73.639 95.984c3.396 4.34 4.899 9.743 4.232 15.215z"/><path d="m273.36 269.392c-3.154-2.674-7.875-2.283-10.549.869-1.824 2.152-4.485 3.385-7.302 3.385-2.816 0-5.478-1.234-7.302-3.386-2.673-3.151-7.395-3.542-10.549-.868-3.153 2.673-3.542 7.396-.869 10.549 4.674 5.513 11.497 8.675 18.72 8.675s14.047-3.162 18.72-8.676c2.673-3.153 2.284-7.875-.869-10.548z"/></g></g></g></svg>