<svg id="Capa_1" enable-background="new 0 0 512 512" height="512" viewBox="0 0 512 512" width="512" xmlns="http://www.w3.org/2000/svg"><g><g><path d="m104.051 223.38c0-14.569 11.811-26.38 26.38-26.38h17.938v-22.378-20.248c0-8.284 6.716-15 15-15h185.261c8.284 0 15 6.716 15 15v42.626h17.938c14.569 0 26.38 11.811 26.38 26.38v.415c18.988-22.027 30.052-48.419 30.052-76.795 0-77.044-81.484-139.5-182-139.5s-182 62.456-182 139.5c0 28.376 11.064 54.768 30.051 76.794z" fill="#fdf6ec"/></g><g><path d="m104.051 223.38c0-13.135 9.602-24.024 22.168-26.041-7.887-15.616-12.219-32.589-12.219-50.339 0-71.862 70.896-131.024 162-138.658-6.569-.55-13.24-.842-20-.842-100.516 0-182 62.456-182 139.5 0 28.376 11.064 54.768 30.051 76.794z" fill="#fae2c0"/></g><g><path d="m331.049 19.876-96.203 119.497h48.198l73.383-108.712c-8.037-4.084-16.512-7.705-25.378-10.785z" fill="#fae2c0"/></g><path d="m363.631 197h12.89l40.987-114.353c-14.305-21.049-35.406-38.947-61.075-51.991l-73.387 108.718h65.586c8.284 0 15 6.716 15 15v42.626z" fill="#fef1da"/><g><path d="m455.838 400.968-110.429-17.158c-2.296-.357-4.004-2.246-4.195-4.526-17.426 20.618-43.473 33.716-72.583 33.716h-25.261c-29.11 0-55.158-13.098-72.584-33.717-.19 2.28-1.898 4.169-4.195 4.526l-110.429 17.159c-12.179 1.892-21.162 12.378-21.162 24.703v73.829c0 2.761 2.239 5 5 5h432c2.761 0 5-2.239 5-5v-73.829c0-12.325-8.983-22.811-21.162-24.703z" fill="#fef1da"/><g><g><path d="m88 412.254c0-6.423 2.192-12.398 5.915-17.152l-37.754 5.866c-12.178 1.892-21.161 12.378-21.161 24.703v73.829c0 2.761 2.239 5 5 5h48z" fill="#fae2c0"/></g></g><path d="m268.631 413h-25.261c-26.333 0-50.162-10.717-67.369-28.024v119.524h160v-119.524c-17.208 17.307-41.037 28.024-67.37 28.024z" fill="#fe860a"/><path d="m268.631 413h-25.261c-9.516 0-18.702-1.406-27.369-4.009v95.509h80v-95.509c-8.669 2.603-17.855 4.009-27.37 4.009z" fill="#fef1da"/><path d="m216 408.991v95.509h20v-91.782c-6.9-.53-13.591-1.802-20-3.727z" fill="#fae2c0"/><g fill="#ea9b58"><path d="m381.569 197h-17.938v72.809h17.938c14.569 0 26.38-11.811 26.38-26.38v-20.049c0-14.569-11.811-26.38-26.38-26.38z"/><path d="m148.369 197h-17.938c-14.569 0-26.38 11.811-26.38 26.38v20.049c0 14.569 11.811 26.38 26.38 26.38h17.938z"/></g><path d="m336.924 283.02c-5.392 5.18-14.24 2.751-16.41-4.405-6.774-22.342-26.395-39.084-50.269-41.642v.495c0 2.914-2.362 5.276-5.276 5.276h-12.662c-4.15 0-7.729-2.401-9.453-5.885-24.37 2.153-44.491 19.072-51.368 41.756-2.169 7.156-11.018 9.585-16.41 4.405-16.46-15.813-26.706-38.046-26.706-62.674v97.654c0 52.467 42.533 95 95 95h25.261c52.467 0 95-42.533 95-95v-97.654c0 24.628-10.246 46.861-26.707 62.674z" fill="#554e56"/><path d="m179.739 318v-32.454c-1.667-.376-3.279-1.197-4.663-2.526-16.46-15.813-26.706-38.046-26.706-62.674v97.654c0 52.467 42.533 95 95 95h25.261c1.022 0 2.04-.022 3.054-.054-51.053-1.613-91.946-43.501-91.946-94.946z" fill="#433f43"/><path d="m148.369 220.346c0 24.628 10.246 46.861 26.706 62.674 5.392 5.18 14.24 2.751 16.41-4.405 6.878-22.684 26.998-39.603 51.368-41.756 1.724 3.483 5.303 5.885 9.453 5.885h12.662c2.914 0 5.276-2.362 5.276-5.276v-.495c23.874 2.558 43.495 19.3 50.269 41.642 2.169 7.156 11.018 9.585 16.41 4.405 16.46-15.813 26.706-38.046 26.706-62.674v-45.724h-215.26z" fill="#ea9b58"/><path d="m179.739 174.622h-31.37v45.724c0 24.628 10.246 46.861 26.706 62.674 5.392 5.18 14.24 2.751 16.41-4.405.945-3.118 2.145-6.125 3.567-9.002-9.656-14.002-15.314-30.973-15.314-49.268v-45.723z" fill="#c57a44"/><g><path d="m148.369 174.622h215.261v-20.248c0-8.284-6.716-15-15-15h-185.261c-8.284 0-15 6.716-15 15z" fill="#fff"/></g><path d="m179.739 139.374h-16.37c-8.284 0-15 6.716-15 15v20.248h31.37z" fill="#f3f0f3"/><g><path d="m229.976 265.744c-3.164 0-5.504 2.897-4.904 6.004 2.803 14.525 15.585 25.496 30.928 25.496s28.125-10.971 30.928-25.496c.6-3.107-1.74-6.004-4.904-6.004z" fill="#fd8087"/></g><g><path d="m246.049 271.749c-.6-3.107 1.74-6.004 4.904-6.004h-20.977c-3.164 0-5.504 2.897-4.904 6.004 2.803 14.525 15.585 25.496 30.928 25.496 3.679 0 7.207-.636 10.489-1.795-10.407-3.676-18.309-12.659-20.44-23.701z" fill="#fe646f"/></g></g><g><path d="m456.99 393.557-104.781-16.281c11.911-16.745 18.921-37.207 18.921-59.276v-40.691h10.438c18.682 0 33.88-15.198 33.88-33.88v-16.816c19.563-23.492 30.052-50.894 30.052-79.613 0-39.648-19.975-76.794-56.244-104.594-35.677-27.345-83.002-42.406-133.256-42.406s-97.579 15.061-133.256 42.406c-36.269 27.8-56.244 64.946-56.244 104.594 0 28.719 10.489 56.121 30.051 79.613v16.816c0 18.682 15.199 33.88 33.88 33.88h10.438v40.691c0 22.071 7.018 42.529 18.933 59.274l-22.24 3.455c-4.093.636-6.896 4.47-6.26 8.563.635 4.093 4.465 6.896 8.563 6.26l27.878-4.331c.258-.04.505-.106.756-.161v105.94h-126v-71.328c0-8.687 6.23-15.959 14.813-17.293l47.954-7.451c4.093-.636 6.896-4.47 6.26-8.563-.636-4.094-4.473-6.896-8.563-6.26l-47.955 7.451c-15.94 2.478-27.51 15.983-27.51 32.115v73.829c0 6.893 5.607 12.5 12.5 12.5h432c6.893 0 12.5-5.607 12.5-12.5v-73.828c.002-16.132-11.568-29.638-27.508-32.115zm-100.86-173.211c0 21.812-8.666 42.148-24.401 57.266-.801.77-1.659.748-2.238.599-.512-.134-1.427-.542-1.799-1.771-4.065-13.407-12.493-25.455-23.732-33.924-7.868-5.929-16.764-9.951-26.214-11.939v-1.55c0-4.143-3.358-7.5-7.5-7.5s-7.5 3.357-7.5 7.5v6.218h-10.438c-1.683 0-3.052-1.369-3.052-3.052v-28.57c0-4.143-3.358-7.5-7.5-7.5s-7.5 3.357-7.5 7.5v26.955c-9.45 1.988-18.345 6.01-26.214 11.939-11.239 8.469-19.667 20.517-23.732 33.924-.373 1.229-1.287 1.637-1.799 1.771-.58.149-1.438.17-2.238-.598-15.736-15.118-24.402-35.455-24.402-57.267v-38.224h200.259zm0-53.224h-200.26v-12.748c0-4.136 3.365-7.5 7.5-7.5h185.26c4.135 0 7.5 3.364 7.5 7.5zm44.319 76.307c0 10.41-8.47 18.88-18.88 18.88h-10.439v-57.809h10.438c10.411 0 18.88 8.47 18.88 18.88v20.049zm30.051-96.429c0 21.649-6.944 42.088-19.209 60.134-4.927-8.978-13.803-15.49-24.274-17.19l32.156-89.716c7.311 14.546 11.327 30.31 11.327 46.772zm-21.565-63.506c.067.093.134.187.201.28l-37.894 105.726h-.111v-35.126c0-12.406-10.093-22.5-22.5-22.5h-51.419l62.19-91.135c20.317 11.344 37.278 25.935 49.533 42.755zm-268.065 178.815h-10.438c-10.411 0-18.88-8.47-18.88-18.88v-20.049c0-10.41 8.47-18.88 18.88-18.88h10.438zm0-107.935v35.126h-10.438c-12.799 0-23.96 7.135-29.722 17.634-12.266-18.046-19.21-38.485-19.21-60.134 0-72.785 78.28-132 174.5-132 21.952 0 42.96 3.097 62.326 8.721l-38.311 47.586c-2.597 3.227-2.087 7.947 1.139 10.545 3.227 2.6 7.948 2.088 10.545-1.139l42.506-51.678c3.794 1.446 7.518 2.982 11.148 4.626l-66.296 98.212h-28.546l19.239-23.897c2.598-3.227 2.088-7.947-1.139-10.545-3.226-2.599-7.947-2.088-10.545 1.139l-26.811 33.304h-67.885c-12.407 0-22.5 10.094-22.5 22.5zm15 117.105c3.946 6.093 8.628 11.78 14.011 16.951 3.3 3.17 7.579 4.865 11.996 4.865 1.47 0 2.956-.188 4.425-.572 5.947-1.554 10.568-6.015 12.362-11.932 5.794-19.11 21.633-32.753 40.786-35.949 3.277 3.33 7.828 5.402 12.857 5.402h12.663c4.083 0 7.715-1.932 10.056-4.922 18.034 3.916 32.769 17.189 38.312 35.469 1.793 5.917 6.415 10.378 12.362 11.932 5.886 1.538 12.023-.067 16.421-4.294 5.382-5.171 10.065-10.857 14.01-16.95v46.521c0 48.248-39.252 87.5-87.5 87.5h-25.261c-48.248 0-87.5-39.252-87.5-87.5zm67.63 225.521v-78.443c6.43 1.269 13.072 1.943 19.87 1.943h25.261c6.797 0 13.439-.671 19.87-1.94v78.44zm-40-95.854c7.617 5.5 16.021 9.969 25 13.229v82.625h-25zm286 95.854h-126v-33c0-4.143-3.358-7.5-7.5-7.5s-7.5 3.357-7.5 7.5v33h-25v-82.611c8.982-3.26 17.381-7.742 25-13.243v27.854c0 4.143 3.358 7.5 7.5 7.5s7.5-3.357 7.5-7.5v-37.94c.252.055.5.121.758.161l110.429 17.158c8.583 1.334 14.813 8.606 14.813 17.293z"/><path d="m198.492 223.122c4.142 0 7.5-3.357 7.5-7.5v-14.692c0-4.143-3.358-7.5-7.5-7.5s-7.5 3.357-7.5 7.5v14.692c0 4.143 3.358 7.5 7.5 7.5z"/><path d="m313.508 223.122c4.142 0 7.5-3.357 7.5-7.5v-14.692c0-4.143-3.358-7.5-7.5-7.5s-7.5 3.357-7.5 7.5v14.692c0 4.143 3.358 7.5 7.5 7.5z"/><path d="m256 304.744c18.657 0 34.761-13.279 38.292-31.573.715-3.702-.248-7.489-2.642-10.391-2.379-2.883-5.888-4.536-9.626-4.536h-52.049c-3.738 0-7.247 1.653-9.626 4.536-2.394 2.901-3.357 6.688-2.642 10.389 3.532 18.296 19.636 31.575 38.293 31.575zm22.808-31.5c-3.186 9.719-12.344 16.5-22.808 16.5-10.463 0-19.622-6.782-22.808-16.5z"/><circle cx="256.5" cy="441.5" r="7.5"/><circle cx="256" cy="477.5" r="7.5"/></g></g></svg>