<svg id="Capa_1" enable-background="new 0 0 512 512" height="512" viewBox="0 0 512 512" width="512" xmlns="http://www.w3.org/2000/svg"><g><g><g><path d="m7.495 256c0 137.244 111.261 248.505 248.505 248.505s248.505-111.261 248.505-248.505-111.262-248.505-248.505-248.505-248.505 111.261-248.505 248.505zm410.67 121.197c-2.449 3.272-7.211 3.649-10.101.759l-274.02-274.02c-2.89-2.89-2.513-7.653.759-10.101 33.793-25.284 75.746-40.268 121.193-40.268 111.679-.002 202.438 90.756 202.437 202.435 0 45.448-14.983 87.401-40.268 121.195zm-364.599-121.199c0-45.448 14.984-87.402 40.268-121.195 2.449-3.273 7.211-3.649 10.101-.759l274.02 274.02c2.89 2.89 2.513 7.653-.759 10.101-33.793 25.285-75.746 40.268-121.194 40.268-111.679.002-202.437-90.756-202.436-202.435z" fill="#fd8087"/><g><path d="m334.635 294.188c-9.738-23.922-29.004-46.11-52.87-56.769-24.351-10.875-55.599-1.088-74.737 15.637-12.741 11.135-23.277 25.434-29.667 41.133-7.399 18.176-11.573 39.248-5.226 58.362 3.163 9.525 11.18 18.029 21.167 19.046 12.038 1.227 22.652-4.668 32.936-10.053 12.735-6.668 27.245-12.846 41.358-8.345 16.97 5.412 32.362 20.309 51.099 18.399 9.987-1.018 18.004-9.521 21.167-19.046 6.347-19.115 2.172-40.187-5.227-58.364z" fill="#7a6d79"/><path d="m339.863 352.555c-3.165 9.516-11.185 18.025-21.17 19.042-4.152.427-8.152.02-12.03-.926 5.058-3.583 8.926-9.129 10.9-15.073 6.351-19.114 2.168-40.182-5.231-58.359-9.73-23.928-28.996-46.115-52.863-56.771-6.565-2.931-13.638-4.366-20.834-4.56 14.361-4.204 29.78-4.448 43.133 1.516 23.867 10.656 43.133 32.844 52.863 56.761 7.4 18.178 11.573 39.256 5.232 58.37z" fill="#685e68"/><g fill="#7a6d79"><g><circle cx="144.924" cy="226.473" r="25.325"/><circle cx="367.073" cy="226.473" r="25.325"/></g><g><circle cx="212.587" cy="169.695" r="29.462"/><circle cx="299.41" cy="169.695" r="29.462"/></g></g><g fill="#685e68"><g><path d="m170.251 226.473c0 13.984-11.338 25.322-25.322 25.322-9.231 0-17.302-4.936-21.729-12.305.458.031.916.041 1.374.041 13.984 0 25.322-11.338 25.322-25.322 0-4.763-1.313-9.221-3.603-13.027 13.353.712 23.958 11.765 23.958 25.291z"/><path d="m392.4 226.473c0 13.984-11.338 25.322-25.332 25.322-9.221 0-17.292-4.926-21.709-12.295.448.02.896.031 1.354.031 13.994 0 25.332-11.338 25.332-25.322 0-4.763-1.313-9.221-3.593-13.017 13.353.712 23.948 11.765 23.948 25.281z"/></g><g><path d="m242.045 169.692c0 16.274-13.19 29.464-29.454 29.464-9.964 0-18.768-4.936-24.091-12.508 1.221.163 2.473.245 3.735.245 16.264 0 29.454-13.19 29.454-29.465 0-6.31-1.985-12.152-5.374-16.946 14.504 1.822 25.73 14.208 25.73 29.21z"/><path d="m328.871 169.692c0 16.274-13.19 29.464-29.464 29.464-9.954 0-18.758-4.936-24.081-12.508 1.221.163 2.463.245 3.725.245 16.274 0 29.464-13.19 29.464-29.465 0-6.31-1.985-12.152-5.364-16.946 14.504 1.832 25.72 14.218 25.72 29.21z"/></g></g></g><path d="m330.54 18.873c90.363 37.2 153.986 126.125 153.986 229.904 0 137.243-111.261 248.505-248.505 248.505-25.912 0-50.886-3.966-74.371-11.318 29.089 11.947 60.955 18.54 94.349 18.54 137.243 0 248.505-111.261 248.505-248.505.001-111.27-73.141-205.469-173.964-237.126z" fill="#fe646f"/></g></g><g><g><g><path d="m35.831 354.204c-13.832-30.964-20.846-64.005-20.846-98.204 0-64.378 25.07-124.902 70.592-170.424 45.521-45.522 106.045-70.592 170.423-70.592 31.116 0 61.397 5.843 90.001 17.365 3.837 1.545 8.202-.313 9.749-4.151 1.546-3.838-.312-8.202-4.15-9.748-30.393-12.243-62.557-18.45-95.6-18.45-68.38 0-132.667 26.629-181.019 74.981s-74.981 112.639-74.981 181.019c0 36.319 7.453 71.416 22.15 104.316 14.197 31.779 34.404 59.926 60.06 83.657 1.441 1.334 3.266 1.992 5.085 1.992 2.015 0 4.026-.809 5.502-2.405 2.81-3.038 2.625-7.778-.413-10.587-24.159-22.348-43.187-48.85-56.553-78.769z"/><path d="m476.586 126.007c-22.489-38.08-54.625-69.88-92.935-91.959-3.585-2.064-8.166-.836-10.232 2.75-2.066 3.585-.835 8.166 2.75 10.232 36.076 20.791 66.338 50.737 87.515 86.597 21.806 36.925 33.332 79.242 33.332 122.373 0 64.378-25.07 124.902-70.592 170.424s-106.046 70.592-170.424 70.592c-49.418 0-96.909-14.845-137.339-42.931-3.398-2.362-8.067-1.52-10.427 1.878-2.361 3.399-1.519 8.068 1.879 10.427 42.952 29.839 93.399 45.61 145.887 45.61 68.38 0 132.667-26.629 181.019-74.981s74.981-112.639 74.981-181.019c0-45.81-12.247-90.76-35.414-129.993z"/><path d="m402.767 383.254c2.665 2.665 6.264 4.145 10.004 4.145.337 0 .676-.012 1.014-.036 4.118-.296 7.901-2.365 10.38-5.677 27.32-36.513 41.762-79.974 41.762-125.684 0-56.015-21.852-108.716-61.533-148.397-39.68-39.679-92.382-61.532-148.397-61.531-45.708 0-89.168 14.441-125.682 41.761-3.313 2.479-5.383 6.263-5.678 10.382-.293 4.097 1.204 8.112 4.109 11.016l8.204 8.205c2.926 2.926 7.669 2.927 10.596.001 2.926-2.926 2.926-7.669 0-10.595l-7.541-7.542c33.755-25.022 73.843-38.243 115.992-38.243 52.013-.001 100.951 20.293 137.802 57.143 36.85 36.849 57.145 85.789 57.144 137.801 0 42.15-13.222 82.239-38.244 115.993l-7.954-7.954c-2.926-2.925-7.67-2.925-10.595 0-2.926 2.927-2.926 7.67 0 10.596z"/><path d="m108.348 149.051c2.926 2.925 7.67 2.926 10.595-.001 2.926-2.926 2.926-7.669 0-10.595l-9.709-9.708c-2.905-2.905-6.923-4.411-11.018-4.11-4.118.295-7.902 2.365-10.38 5.678-27.32 36.513-41.762 79.974-41.762 125.684 0 56.015 21.852 108.716 61.533 148.397 39.68 39.679 92.382 61.532 148.396 61.531 45.709 0 89.169-14.441 125.683-41.761 3.313-2.479 5.383-6.263 5.678-10.382.293-4.097-1.204-8.112-4.109-11.016l-8.204-8.205c-2.926-2.926-7.67-2.927-10.596-.001s-2.926 7.669 0 10.595l7.541 7.542c-33.755 25.022-73.844 38.243-115.993 38.243-52.012.001-100.951-20.293-137.801-57.143-36.85-36.849-57.144-85.789-57.144-137.801 0-42.15 13.222-82.239 38.243-115.993z"/></g></g><g><path d="m240.946 227.993c-13.914 3.338-27.388 10.255-37.94 19.476-13.757 12.022-24.521 26.957-31.128 43.188-9.384 23.051-11.217 44.652-5.3 62.467 4.322 13.015 15.223 22.574 27.125 23.786 13.578 1.392 25.127-4.681 35.32-10.031l1.241-.651c11.591-6.07 23.835-11.199 34.841-7.691 5.29 1.687 10.592 4.53 16.204 7.541 9.703 5.203 20.575 11.034 33.003 11.034 1.31 0 2.637-.064 3.981-.202 11.903-1.213 22.804-10.772 27.126-23.786 5.916-17.814 4.083-39.415-5.3-62.467v-.001c-10.849-26.65-31.7-48.981-55.775-59.733-12.713-5.679-27.72-6.691-43.398-2.93zm37.287 16.611c20.633 9.216 38.58 28.543 48.008 51.703v-.001c10.131 24.891 8.289 42.069 4.959 52.097-2.455 7.393-8.387 12.986-14.425 13.602-9.539.971-18.694-3.935-28.382-9.131-5.963-3.199-12.13-6.506-18.734-8.612-3.367-1.073-7.21-1.921-11.948-1.921-8.128 0-18.889 2.492-34.397 10.613l-1.255.658c-9.129 4.793-17.753 9.313-26.836 8.393-6.038-.616-11.97-6.209-14.425-13.602-3.33-10.029-5.173-27.208 4.959-52.096 5.73-14.077 15.104-27.064 27.109-37.555 16.31-14.253 44.002-23.689 65.367-14.148z"/><path d="m146.98 194.672c-17.837 0-32.348 14.511-32.348 32.347s14.511 32.348 32.348 32.348c17.836 0 32.348-14.512 32.348-32.348s-14.512-32.347-32.348-32.347zm0 49.711c-9.574 0-17.364-7.79-17.364-17.364s7.79-17.363 17.364-17.363 17.364 7.79 17.364 17.363c-.001 9.575-7.79 17.364-17.364 17.364z"/><path d="m397.365 227.019c0-17.836-14.511-32.347-32.348-32.347-17.836 0-32.348 14.511-32.348 32.347s14.511 32.348 32.348 32.348 32.348-14.512 32.348-32.348zm-32.348 17.364c-9.574 0-17.364-7.79-17.364-17.364s7.79-17.363 17.364-17.363 17.364 7.79 17.364 17.363c0 9.575-7.789 17.364-17.364 17.364z"/><path d="m213.391 134.883c-20.076 0-36.409 16.333-36.409 36.409 0 20.075 16.333 36.409 36.409 36.409s36.409-16.333 36.409-36.409-16.334-36.409-36.409-36.409zm0 57.834c-11.814 0-21.424-9.611-21.424-21.425 0-11.813 9.611-21.425 21.424-21.425 11.814 0 21.425 9.612 21.425 21.425-.001 11.814-9.612 21.425-21.425 21.425z"/><path d="m335.015 171.292c0-20.076-16.333-36.409-36.409-36.409s-36.409 16.333-36.409 36.409c0 20.075 16.333 36.409 36.409 36.409s36.409-16.334 36.409-36.409zm-57.833 0c0-11.813 9.611-21.425 21.424-21.425 11.814 0 21.425 9.612 21.425 21.425 0 11.814-9.611 21.425-21.425 21.425s-21.424-9.611-21.424-21.425z"/></g></g></g></svg>