<svg id="Capa_1" enable-background="new 0 0 512 512" height="512" viewBox="0 0 512 512" width="512" xmlns="http://www.w3.org/2000/svg"><g><g><g><g><path d="m336.812 201.662c17.654-19.106 27.863-41.681 27.863-65.87 0-50.579-44.61-94.111-108.675-113.594-64.065 19.482-108.675 63.014-108.675 113.594 0 24.189 10.209 46.764 27.863 65.87h-33.845v288.138h229.314v-288.138z" fill="#c53287"/></g></g><g><g><path d="m336.812 201.662c17.654-19.106 27.863-41.681 27.863-65.87 0-50.579-44.61-94.111-108.675-113.594-64.065 19.482-108.675 63.014-108.675 113.594 0 24.189 10.209 46.764 27.863 65.87h-33.845v288.138h229.314v-288.138z" fill="#c53287"/></g></g><g><g><path d="m375.357 504.5h-238.714c-5.523 0-10-4.477-10-10v-297.538c0-5.523 4.477-10 10-10h9.685c-9.026-16.148-13.703-33.466-13.703-51.169 0-28.371 11.927-55.595 34.491-78.723 21.057-21.584 50.314-38.506 84.607-48.935 2.789-.846 5.765-.846 8.554 0 34.293 10.429 63.55 27.35 84.607 48.935 22.564 23.129 34.491 50.352 34.491 78.723 0 17.704-4.677 35.022-13.703 51.169h9.685c5.523 0 10 4.477 10 10v297.538c0 5.523-4.477 10-10 10zm-214.315-29.399h189.915c2.761 0 5-2.239 5-5v-248.74c0-2.761-2.239-5-5-5h-17.999c-12.034-4.8-13.599-17.472-6.943-24.676 15.674-16.963 23.959-36.291 23.959-55.893 0-41.292-36.732-79.496-93.975-98.182-57.243 18.687-93.975 56.89-93.975 98.182 0 20.641 9.186 40.978 26.514 58.57 4.772 12.167-3.501 21.999-13.35 21.999h-14.146c-2.761 0-5 2.239-5 5v248.74c0 2.761 2.239 5 5 5z" fill="#d8aa5e"/></g></g></g><g><g><path d="m278.064 158.546c-24.105-.662-43.764-20.321-44.426-44.426-.286-10.41 2.913-20.058 8.51-27.872 1.45-2.024-.516-4.73-2.868-3.915-22.337 7.745-38.192 29.357-37.24 54.543 1.088 28.788 24.48 52.18 53.268 53.268 25.186.952 46.797-14.903 54.543-37.24.816-2.352-1.891-4.318-3.915-2.868-7.814 5.597-17.462 8.795-27.872 8.51z" fill="#fed402"/></g></g><g><g><path d="m269.308 176.959c-28.788-1.088-52.18-24.479-53.268-53.268-.501-13.258 3.66-25.523 10.967-35.299-15.615 10.276-25.733 28.219-24.967 48.482 1.088 28.788 24.48 52.179 53.268 53.267 19.058.72 36.064-8.187 46.569-22.24-9.287 6.113-20.516 9.514-32.569 9.058z" fill="#fac600"/></g></g><g><g><path d="m283.95 90.35 5.087 8.332c.353.577.921.991 1.579 1.147l9.496 2.263c1.849.441 2.577 2.681 1.34 4.124l-6.352 7.413c-.44.514-.657 1.182-.603 1.857l.782 9.73c.152 1.894-1.754 3.279-3.508 2.549l-9.013-3.75c-.625-.26-1.327-.26-1.952 0l-9.013 3.75c-1.755.73-3.66-.655-3.508-2.549l.782-9.73c.054-.675-.163-1.343-.603-1.857l-6.352-7.413c-1.237-1.443-.509-3.684 1.34-4.124l9.496-2.263c.658-.157 1.227-.57 1.579-1.147l5.087-8.332c.99-1.622 3.345-1.622 4.336 0z" fill="#fed402"/></g></g><g><path d="m325.478 293.952-19.478 11.466v49.881c0 .995-.513 1.92-1.357 2.447l-47.115 29.404c-.935.583-2.12.583-3.054 0l-47.115-29.404c-.844-.527-1.357-1.452-1.357-2.447v-49.881l-19.478-11.466c-2-1.177-4.522.264-4.522 2.585v77.667c0 1.063.562 2.046 1.478 2.585l71 41.796c.939.553 2.104.553 3.044 0l71-41.796c.916-.539 1.478-1.522 1.478-2.585v-77.667c-.002-2.321-2.524-3.763-4.524-2.585z" fill="#4fc123"/><g><g><path d="m206 301.477v53.821c0 .995.513 1.92 1.357 2.447l47.115 29.404c.935.583 2.12.583 3.054 0l47.115-29.404c.844-.527 1.357-1.452 1.357-2.447v-53.821c0-2.265-2.49-3.646-4.412-2.447l-44.061 27.498c-.935.583-2.12.583-3.054 0l-44.061-27.498c-1.92-1.199-4.41.182-4.41 2.447z" fill="#fef1da"/></g></g><path d="m232.135 312.587-21.723-13.557c-1.921-1.199-4.412.182-4.412 2.447v53.821c0 .995.513 1.92 1.357 2.447l7.967 4.972 39.148 24.432c.467.292.997.438 1.527.438v-60.106z" fill="#fff"/><path d="m207.357 357.745 10.389 6.484 8.254 5.151v-60.622l-8.027-5.009-7.562-4.719c-1.921-1.199-4.412.182-4.412 2.447v53.821c.001.995.514 1.92 1.358 2.447z" fill="#f3f0f3"/></g><g><path d="m248.162 79.391c-2.612-3.496-7.14-4.885-11.265-3.454-26.241 9.099-43.166 33.884-42.116 61.676 1.231 32.554 27.695 59.018 60.248 60.249.818.03 1.631.046 2.443.046 26.791-.001 50.401-16.694 59.233-42.164 1.43-4.126.042-8.653-3.455-11.264-3.518-2.628-8.282-2.673-11.855-.113-6.79 4.864-14.835 7.301-23.21 7.083-20.19-.555-36.439-16.804-36.993-36.993-.23-8.395 2.219-16.419 7.084-23.211 2.559-3.573 2.513-8.337-.114-11.855zm29.612 86.995c.001 0 .001 0 0 0 6.199.176 12.251-.711 17.982-2.587-9.198 12.388-24.005 19.763-40.163 19.129-24.79-.936-44.943-21.089-45.88-45.88-.61-16.15 6.74-30.965 19.129-40.163-1.876 5.731-2.757 11.786-2.587 17.982.772 28.117 23.402 50.747 51.519 51.519z"/><path d="m308.87 102.053c-1.085-3.342-3.773-5.824-7.195-6.642l-7.459-1.777-3.996-6.545c-1.831-2.999-5.022-4.79-8.537-4.79-3.514 0-6.706 1.791-8.537 4.79l-3.996 6.545-7.462 1.778c-3.418.816-6.106 3.298-7.192 6.64-1.085 3.342-.368 6.93 1.918 9.598l4.989 5.822-.614 7.646c-.281 3.503 1.249 6.828 4.093 8.893 1.747 1.269 3.792 1.919 5.861 1.919 1.299 0 2.608-.257 3.859-.777l7.08-2.947 7.079 2.946c3.244 1.351 6.879.925 9.723-1.142 2.844-2.065 4.373-5.39 4.091-8.893l-.614-7.644 4.99-5.823c2.287-2.668 3.004-6.255 1.919-9.597zm-19.591 7.256c-1.722 2.009-2.589 4.673-2.377 7.311l.131 1.628-1.508-.627c-2.441-1.016-5.24-1.016-7.684 0l-1.507.627.131-1.627c.212-2.638-.654-5.303-2.375-7.31l-1.062-1.239 1.592-.379c2.571-.614 4.835-2.26 6.213-4.517l.851-1.394.852 1.395c1.378 2.256 3.642 3.902 6.217 4.517l1.588.378z"/><path d="m205.263 244.543h101.474c4.126 0 7.471-3.345 7.471-7.471 0-4.127-3.345-7.471-7.471-7.471h-101.474c-4.126 0-7.471 3.345-7.471 7.471-.001 4.126 3.345 7.471 7.471 7.471z"/><path d="m221.767 259.486c-4.126 0-7.471 3.345-7.471 7.471s3.345 7.471 7.471 7.471h68.465c4.126 0 7.471-3.345 7.471-7.471s-3.345-7.471-7.471-7.471z"/><path d="m202.206 436.806c-4.126 0-7.471 3.345-7.471 7.471 0 4.127 3.345 7.471 7.471 7.471h107.588c4.126 0 7.471-3.345 7.471-7.471 0-4.127-3.345-7.471-7.471-7.471z"/><path d="m337.189 373.753v-77.37c0-3.742-2.018-7.222-5.267-9.08-3.249-1.856-7.271-1.833-10.499.066l-11.204 6.595c-.666-.661-1.423-1.239-2.266-1.707-3.287-1.824-7.308-1.719-10.494.271l-41.459 25.872-41.458-25.873c-3.187-1.989-7.209-2.093-10.495-.271-.843.467-1.6 1.046-2.266 1.707l-11.205-6.596c-3.226-1.897-7.248-1.921-10.497-.065-3.249 1.858-5.267 5.338-5.267 9.08v21.381c0 4.127 3.345 7.471 7.471 7.471s7.471-3.345 7.471-7.471v-13.541l8.966 5.278v45.42c0 3.595 1.821 6.875 4.868 8.775l46.931 29.29c1.665 1.041 3.574 1.56 5.482 1.56 1.907 0 3.814-.52 5.476-1.559l46.933-29.29c3.05-1.902 4.87-5.182 4.87-8.777v-45.419l8.966-5.278v66.967l-66.246 38.999-66.246-38.999v-18.56c0-4.127-3.345-7.471-7.471-7.471s-7.471 3.345-7.471 7.471v21.123c0 3.688 1.974 7.142 5.154 9.013l70.73 41.638c1.636.963 3.47 1.444 5.304 1.444 1.835 0 3.67-.482 5.307-1.445l70.729-41.637c3.178-1.871 5.153-5.324 5.153-9.012zm-38.851-21.384-42.338 26.422-42.338-26.422v-42.776l36.857 23.002c3.33 2.082 7.633 2.08 10.958.002l36.861-23.004z"/><path d="m377.207 180.883c6.088-14.048 9.168-28.684 9.168-43.654 0-25.732-9.328-50.945-26.975-72.914-2.584-3.216-7.287-3.732-10.504-1.145-3.217 2.584-3.73 7.287-1.146 10.504 15.493 19.286 23.682 41.264 23.682 63.555 0 16.328-4.273 32.251-12.701 47.328-1.293 2.313-1.264 5.139.078 7.426 1.341 2.286 3.794 3.691 6.444 3.691h9.648c1.373 0 2.49 1.117 2.49 2.49v296.402c0 1.374-1.117 2.49-2.49 2.49h-237.802c-1.373 0-2.49-1.117-2.49-2.49v-296.401c0-1.374 1.117-2.49 2.49-2.49h9.648c2.65 0 5.103-1.405 6.444-3.691 1.342-2.286 1.371-5.112.078-7.426-8.428-15.077-12.701-31-12.701-47.328 0-26.275 11.147-51.589 32.236-73.206 20.101-20.606 48.148-36.795 81.104-46.816 1.368-.414 2.815-.415 4.179-.001 25.391 7.72 47.58 18.924 65.95 33.297 3.249 2.544 7.946 1.968 10.488-1.279 2.543-3.25 1.969-7.946-1.28-10.488-19.826-15.514-43.651-29.52-70.816-37.78-4.206-1.276-8.652-1.275-12.863.001-35.363 10.753-65.605 30.23-87.458 52.631-23.867 24.465-36.482 53.387-36.482 83.64 0 14.97 3.079 29.606 9.168 43.654-8.527 1.131-15.127 8.45-15.127 17.281v296.402c0 9.613 7.821 17.433 17.433 17.433h237.802c9.613 0 17.433-7.821 17.433-17.433v-296.401c-.001-8.832-6.601-16.15-15.128-17.282z"/><path d="m357.088 136.252c0-22.127-9.51-43.745-27.501-62.518-17.452-18.21-42.096-32.869-71.268-42.392-1.507-.492-3.131-.492-4.638 0-29.172 9.523-53.816 24.182-71.268 42.392-17.991 18.773-27.501 40.391-27.501 62.518 0 22.14 9.454 43.668 27.36 62.353.785 2.775.495 5.334-.852 7.308-1.336 1.959-3.55 3.129-5.924 3.129h-14.091c-6.866 0-12.452 5.586-12.452 12.452v247.79c0 6.866 5.586 12.452 12.452 12.452h189.19c6.866 0 12.452-5.586 12.452-12.452v-116.654c0-4.127-3.345-7.471-7.471-7.471s-7.471 3.345-7.471 7.471v114.163h-184.209v-242.809h11.601c7.318 0 14.148-3.608 18.27-9.652 4.355-6.388 5.079-14.574 1.985-22.462-.369-.941-.924-1.796-1.632-2.515-15.873-16.116-24.263-34.478-24.263-53.103 0-37.015 33.728-72.133 86.145-89.934 52.417 17.801 86.145 52.918 86.145 89.934 0 17.615-7.567 35.115-21.883 50.609-4.944 5.351-6.936 12.786-5.328 19.89 1.698 7.499 7.152 13.587 14.963 16.702.881.352 1.82.532 2.768.532h15.439v93.779c0 4.127 3.345 7.471 7.471 7.471s7.471-3.345 7.471-7.471v-96.27c0-6.866-5.586-12.452-12.452-12.452h-16.334c-2.557-1.312-4.227-3.265-4.753-5.59-.521-2.304.125-4.714 1.728-6.45 16.911-18.303 25.851-39.31 25.851-60.75z"/></g></g></svg>