<svg id="Capa_1" enable-background="new 0 0 512 512" height="512" viewBox="0 0 512 512" width="512" xmlns="http://www.w3.org/2000/svg"><g><path d="m34.691 448.921v50.579c0 2.761 2.239 5 5 5h432.618c2.761 0 5-2.239 5-5v-50.579z" fill="#e8b800"/><path d="m34.691 448.921h442.618v27.789h-442.618z" fill="#fed402"/><g><path d="m80 499.5v-22.789h-45.309v22.789c0 2.761 2.239 5 5 5h45.309c-2.761 0-5-2.239-5-5z" fill="#d7aa02"/></g><path d="m34.691 448.921h45.309v27.789h-45.309z" fill="#fac600"/><path d="m34.691 130.414h442.618v318.507h-442.618z" fill="#fef1da"/><path d="m34.691 130.414h45.309v318.507h-45.309z" fill="#fae2c0"/><g><path d="m477.309 130.414h-442.618v-73.222c0-8.284 6.716-15 15-15h412.618c8.284 0 15 6.716 15 15z" fill="#80d261"/></g><g><path d="m70.563 77.864v-35.672h-20.872c-8.284 0-15 6.716-15 15v73.222h45.309v-40.445c-5.414-1.371-9.437-6.27-9.437-12.105z" fill="#4fc123"/></g><g><g><g><path d="m270.194 162.096 33.775 32.05c.929.882 2.161 1.373 3.442 1.373h47.684c2.761 0 5 2.239 5 5v47.684c0 1.281.491 2.513 1.373 3.442l32.05 33.775c1.831 1.929 1.831 4.954 0 6.883l-32.05 33.775c-.882.929-1.373 2.161-1.373 3.442v47.684c0 2.761-2.239 5-5 5h-47.684c-1.281 0-2.513.491-3.442 1.373l-33.775 32.05c-1.929 1.831-4.954 1.831-6.883 0l-33.775-32.05c-.929-.882-2.161-1.373-3.442-1.373h-47.684c-2.761 0-5-2.239-5-5v-47.684c0-1.281-.491-2.513-1.373-3.442l-32.05-33.775c-1.831-1.929-1.831-4.954 0-6.883l32.05-33.775c.882-.929 1.373-2.161 1.373-3.442v-47.684c0-2.761 2.239-5 5-5h47.684c1.281 0 2.513-.491 3.442-1.373l33.775-32.05c1.929-1.83 4.954-1.83 6.883 0z" fill="#fff"/></g></g><g><g><g><path d="m204.519 377.204v-47.684c0-1.281-.491-2.513-1.373-3.442l-32.05-33.775c-1.831-1.929-1.831-4.954 0-6.883l32.05-33.775c.882-.929 1.373-2.161 1.373-3.442v-47.684c0-2.761 2.239-5 5-5h-31.11c-2.761 0-5 2.239-5 5v47.684c0 1.281-.491 2.513-1.373 3.442l-32.05 33.775c-1.831 1.929-1.831 4.954 0 6.883l32.05 33.775c.882.929 1.373 2.161 1.373 3.442v47.684c0 2.761 2.239 5 5 5h31.11c-2.761 0-5-2.238-5-5z" fill="#f3f0f3"/></g></g></g><g><g><path d="m291.085 316.99c-28.465-.781-51.68-23.996-52.461-52.461-.337-12.293 3.439-23.686 10.049-32.914 1.712-2.39-.609-5.586-3.387-4.623-26.377 9.146-45.1 34.667-43.975 64.408 1.285 33.995 28.907 61.618 62.902 62.902 29.741 1.124 55.262-17.598 64.408-43.976.963-2.778-2.233-5.099-4.623-3.387-9.226 6.611-20.619 10.388-32.913 10.051z" fill="#fed402"/></g></g><g><g><path d="m281.416 342.952c-33.995-1.285-61.617-28.907-62.902-62.902-.762-20.148 7.593-38.352 21.257-50.847-23.425 10.605-39.504 34.576-38.46 62.198 1.285 33.995 28.907 61.617 62.902 62.902 18.016.681 34.475-5.929 46.692-17.104-8.939 4.046-18.946 6.151-29.489 5.753z" fill="#fac600"/></g></g><g><g><path d="m298.036 236.459 6.007 9.839c.416.682 1.088 1.17 1.865 1.355l11.213 2.673c2.183.52 3.043 3.166 1.582 4.87l-7.501 8.753c-.52.607-.776 1.396-.712 2.192l.923 11.49c.18 2.237-2.071 3.872-4.143 3.01l-10.643-4.429c-.738-.307-1.567-.307-2.305 0l-10.643 4.429c-2.072.862-4.323-.773-4.143-3.01l.923-11.49c.064-.797-.192-1.586-.712-2.192l-7.501-8.754c-1.46-1.704-.601-4.35 1.583-4.87l11.213-2.673c.777-.185 1.449-.673 1.865-1.355l6.007-9.839c1.17-1.915 3.952-1.915 5.122.001z" fill="#fed402"/></g></g></g><g><g><g><path d="m104.501 82.865h-21.438c-2.761 0-5-2.239-5-5v-65.365c0-2.761 2.239-5 5-5h21.438c2.761 0 5 2.239 5 5v65.365c0 2.761-2.239 5-5 5z" fill="#685e68"/></g></g><g><path d="m93 77.865v-65.365c0-2.761 2.239-5 5-5h-14.937c-2.761 0-5 2.239-5 5v65.365c0 2.761 2.239 5 5 5h14.937c-2.761 0-5-2.239-5-5z" fill="#554e56"/></g><g><g><path d="m428.938 82.865h-21.438c-2.762 0-5-2.239-5-5v-65.365c0-2.761 2.238-5 5-5h21.438c2.761 0 5 2.239 5 5v65.365c0 2.761-2.239 5-5 5z" fill="#685e68"/></g></g><g><path d="m417.437 77.865v-65.365c0-2.761 2.239-5 5-5h-14.937c-2.761 0-5 2.239-5 5v65.365c0 2.761 2.239 5 5 5h14.937c-2.761 0-5-2.239-5-5z" fill="#554e56"/></g></g><g><path d="m477.309 359.5c4.143 0 7.5-3.357 7.5-7.5v-294.809c0-12.406-10.094-22.5-22.5-22.5h-20.871v-22.191c0-6.893-5.607-12.5-12.5-12.5h-21.438c-6.892 0-12.5 5.607-12.5 12.5v22.191h-45c-4.143 0-7.5 3.357-7.5 7.5s3.357 7.5 7.5 7.5h45v28.173c0 6.893 5.607 12.5 12.5 12.5h21.438c6.893 0 12.5-5.607 12.5-12.5v-28.173h20.871c4.136 0 7.5 3.364 7.5 7.5v65.723h-427.618v-65.723c0-4.136 3.365-7.5 7.5-7.5h20.872v28.173c0 6.893 5.607 12.5 12.5 12.5h21.438c6.893 0 12.5-5.607 12.5-12.5v-28.173h198c4.143 0 7.5-3.357 7.5-7.5s-3.357-7.5-7.5-7.5h-198v-22.191c0-6.893-5.607-12.5-12.5-12.5h-21.438c-6.893 0-12.5 5.607-12.5 12.5v22.191h-20.872c-12.407 0-22.5 10.094-22.5 22.5v442.309c0 6.893 5.607 12.5 12.5 12.5h432.618c6.893 0 12.5-5.607 12.5-12.5v-112.5c0-4.143-3.357-7.5-7.5-7.5s-7.5 3.357-7.5 7.5v54.422h-427.618v-303.508h427.618v214.086c0 4.143 3.357 7.5 7.5 7.5zm-50.871-284.136h-16.438v-60.364h16.438zm-340.875-60.364h16.438v60.364h-16.438zm384.246 441.422v12.789h-320.809c-4.142 0-7.5 3.357-7.5 7.5s3.358 7.5 7.5 7.5h320.809v12.789h-427.618v-12.789h71.809c4.142 0 7.5-3.357 7.5-7.5s-3.358-7.5-7.5-7.5h-71.809v-12.789z"/><path d="m178.409 389.704h46.687l33.05 31.362c2.413 2.291 5.51 3.436 8.605 3.436 3.097 0 6.192-1.145 8.604-3.435l33.053-31.363h46.687c6.893 0 12.5-5.607 12.5-12.5v-46.687l31.364-33.053c4.575-4.824 4.575-12.382-.001-17.207l-31.363-33.053v-46.687c0-6.893-5.607-12.5-12.5-12.5h-46.688l-33.052-31.362c-4.825-4.58-12.386-4.58-17.207 0l-33.051 31.362h-46.688c-6.893 0-12.5 5.607-12.5 12.5v46.687l-31.363 33.053c-4.578 4.824-4.578 12.384 0 17.208l31.363 33.052v46.687c0 6.893 5.608 12.5 12.5 12.5zm-31.349-100.843 30.415-32.053c2.214-2.332 3.434-5.389 3.434-8.605v-45.185h45.184c3.214 0 6.269-1.218 8.604-3.432l32.054-30.417 32.056 30.418c2.332 2.212 5.388 3.431 8.603 3.431h45.185v45.185c0 3.217 1.22 6.273 3.433 8.604l30.417 32.055-30.418 32.056c-2.213 2.333-3.432 5.389-3.432 8.604v45.184h-45.185c-3.217 0-6.273 1.22-8.604 3.433l-32.055 30.417-32.054-30.417c-2.333-2.214-5.389-3.433-8.605-3.433h-45.184v-45.184c0-3.215-1.219-6.271-3.433-8.604z"/><path d="m263.931 361.798c.953.035 1.898.054 2.846.054 31.177-.003 58.654-19.429 68.933-49.068 1.501-4.332.043-9.084-3.628-11.824-3.694-2.757-8.698-2.804-12.449-.116-8.292 5.94-18.079 8.923-28.341 8.649-24.652-.677-44.493-20.518-45.17-45.17-.281-10.248 2.709-20.049 8.648-28.34 2.689-3.753 2.643-8.757-.117-12.452-2.741-3.672-7.495-5.127-11.823-3.624-30.539 10.59-50.235 39.435-49.013 71.777 1.432 37.883 32.23 68.681 70.114 70.114zm-28.36-121.862c-3.163 7.788-4.681 16.174-4.444 24.799.895 32.61 27.142 58.857 59.752 59.752 8.639.257 17.013-1.28 24.801-4.444-10.865 17.167-30.093 27.597-51.183 26.766-30.091-1.137-54.554-25.6-55.691-55.69-.797-21.097 9.6-40.318 26.765-51.183z"/><path d="m272.834 267.408-.772 9.623c-.296 3.678 1.31 7.167 4.294 9.336 1.834 1.332 3.98 2.015 6.153 2.015 1.364 0 2.739-.27 4.053-.815l8.913-3.71 8.914 3.71c3.408 1.416 7.221.968 10.206-1.2 2.984-2.168 4.59-5.658 4.294-9.335l-.772-9.624 6.281-7.33c2.4-2.801 3.154-6.567 2.015-10.076-1.14-3.51-3.963-6.115-7.552-6.972l-9.393-2.238-5.03-8.238c-1.922-3.15-5.272-5.031-8.962-5.031s-7.041 1.881-8.962 5.029l-5.031 8.24-9.394 2.239c-3.588.855-6.411 3.461-7.551 6.971-1.14 3.509-.386 7.275 2.014 10.074zm13.949-12.461c2.701-.645 5.08-2.373 6.525-4.741l2.166-3.548 2.166 3.547c1.446 2.369 3.824 4.098 6.527 4.743l4.044.964-2.705 3.157c-1.808 2.11-2.716 4.908-2.492 7.672l.332 4.145-3.842-1.6c-1.299-.539-2.663-.809-4.028-.809-1.366 0-2.733.271-4.036.811l-3.837 1.598.333-4.148c.221-2.77-.689-5.565-2.494-7.668l-2.705-3.157z"/><path d="m165.133 84.455c0 4.143 3.358 7.5 7.5 7.5h166.736c4.143 0 7.5-3.357 7.5-7.5s-3.357-7.5-7.5-7.5h-166.736c-4.143 0-7.5 3.358-7.5 7.5z"/></g></g></svg>