<svg id="Capa_1" enable-background="new 0 0 512 512" height="512" viewBox="0 0 512 512" width="512" xmlns="http://www.w3.org/2000/svg"><g><g><path d="m256 7.495c-107.577 0-194.786 87.209-194.786 194.786 0 25.351 4.932 50.634 14.582 74.082 24.547 59.649 82.985 94.245 122.049 143.797 18.737 23.768 39.133 50.431 50.499 79.137 2.748 6.942 12.563 6.942 15.312 0 11.366-28.707 31.762-55.37 50.499-79.137 39.064-49.552 97.502-84.148 122.049-143.797 9.649-23.448 14.582-48.732 14.582-74.082 0-107.577-87.208-194.786-194.786-194.786z" fill="#ade194"/></g><g><path d="m450.79 202.28c0 25.356-4.937 50.631-14.582 74.088-24.546 59.646-82.993 94.237-122.051 143.789-18.739 23.767-39.138 50.431-50.501 79.145-2.748 6.936-12.563 6.936-15.311 0-.88-2.229-1.819-4.447-2.808-6.646.12-.22.22-.46.32-.71 11.374-28.704 31.762-55.369 50.501-79.135 39.068-49.552 97.505-84.153 122.051-143.799 9.645-23.447 14.582-48.732 14.582-74.078 0-77.846-45.664-145.028-111.677-176.21 75.457 26.845 129.476 98.884 129.476 183.556z" fill="#97da7b"/></g><g><circle cx="256" cy="200.771" fill="#f9f3f1" r="145.05"/></g><g><path d="m401.048 200.771c0 80.105-64.943 145.048-145.048 145.048-16.79 0-32.921-2.858-47.923-8.105 8.745 1.649 17.76 2.509 26.985 2.509 80.105 0 145.048-64.933 145.048-145.048 0-63.314-40.577-117.154-97.135-136.943 67.222 12.642 118.073 71.649 118.073 142.539z" fill="#efe2dd"/></g><g><path d="m318.654 288.805h-125.308c-4.907 0-8.884-3.978-8.884-8.884v-158.299c0-4.907 3.978-8.884 8.884-8.884h125.308c4.907 0 8.884 3.978 8.884 8.884v158.299c0 4.907-3.977 8.884-8.884 8.884z" fill="#b5adb6"/></g><g><path d="m327.54 121.626v158.291c0 4.907-3.978 8.885-8.885 8.885h-19.989c4.907 0 8.885-3.978 8.885-8.885v-158.291c0-4.907-3.978-8.885-8.885-8.885h19.989c4.907 0 8.885 3.978 8.885 8.885z" fill="#a79ba7"/></g><g><path d="m256.42 288.805h-37.789v-60.18c0-10.435 8.459-18.895 18.895-18.895 10.435 0 18.895 8.459 18.895 18.895v60.18z" fill="#7a6d79"/></g><g><path d="m256.42 228.625v60.176h-18.889v-60.176c0-5.217-2.119-9.944-5.537-13.362-1.159-1.159-2.479-2.179-3.908-2.998 2.778-1.619 6.007-2.539 9.445-2.539 5.217 0 9.934 2.119 13.352 5.537s5.537 8.145 5.537 13.362z" fill="#685e68"/></g><g><path d="m184.462 139.417h143.076v37.145h-143.076z" fill="#fee97d"/></g><g><path d="m307.551 139.417h19.987v37.145h-19.987z" fill="#fedf30"/></g><g><path d="m256 0c-32.498 0-63.537 7.474-92.254 22.216-27.388 14.059-51.611 34.571-70.052 59.319-2.473 3.319-1.788 8.016 1.532 10.489 3.318 2.473 8.015 1.788 10.489-1.531 17.08-22.923 39.514-41.921 64.876-54.94 26.58-13.644 55.315-20.562 85.409-20.562 103.272 0 187.29 84.018 187.29 187.29 0 24.316-4.847 48.947-14.018 71.229-14.904 36.216-42.601 62.623-71.924 90.581-16.897 16.11-34.368 32.768-49.08 51.428-20.649 26.194-40.133 52.101-51.582 81.02-.074.186-.186.469-.687.469s-.612-.283-.687-.469c-11.451-28.921-30.933-54.827-51.582-81.02-14.711-18.66-32.183-35.319-49.08-51.429-29.323-27.958-57.02-54.365-71.924-90.58-9.17-22.283-14.018-46.914-14.018-71.229 0-29.063 6.471-56.911 19.226-82.753l.396-.798c1.842-3.708.33-8.206-3.377-10.049-3.708-1.842-8.206-.33-10.049 3.377l-.406.816c-13.791 27.942-20.783 58.023-20.783 89.406 0 26.629 5.096 52.513 15.146 76.935 16.116 39.162 46.276 67.916 75.442 95.724 16.518 15.749 33.6 32.035 47.653 49.861 19.933 25.284 38.711 50.22 49.416 77.256 2.394 6.042 8.135 9.944 14.628 9.944s12.233-3.902 14.626-9.943c10.703-27.034 29.482-51.971 49.415-77.256 14.053-17.825 31.134-34.111 47.652-49.86 29.167-27.809 59.327-56.564 75.443-95.725 10.05-24.42 15.146-50.305 15.146-76.935 0-111.538-90.743-202.281-202.282-202.281z"/><path d="m256 353.317c84.114 0 152.546-68.432 152.546-152.546s-68.432-152.546-152.546-152.546-152.546 68.432-152.546 152.546c.001 84.114 68.432 152.546 152.546 152.546zm0-290.1c75.848 0 137.554 61.706 137.554 137.554s-61.706 137.554-137.554 137.554-137.554-61.707-137.554-137.554 61.706-137.554 137.554-137.554z"/><path d="m193.346 296.301h125.308c9.032 0 16.379-7.347 16.379-16.38v-18.307c0-4.14-3.355-7.496-7.496-7.496s-7.496 3.355-7.496 7.496v18.307c0 .765-.623 1.388-1.388 1.388h-54.738v-52.684c0-14.551-11.839-26.39-26.391-26.39s-26.39 11.839-26.39 26.39v52.684h-17.789c-.766 0-1.388-.623-1.388-1.388v-95.864h128.084v42.617c0 4.14 3.355 7.496 7.496 7.496s7.496-3.355 7.496-7.496v-105.052c0-9.032-7.347-16.38-16.379-16.38h-125.308c-9.032 0-16.38 7.348-16.38 16.38v158.299c0 9.032 7.348 16.38 16.38 16.38zm32.781-67.676c0-6.285 5.113-11.399 11.399-11.399s11.399 5.113 11.399 11.399v52.684h-22.798zm-34.169-59.559v-22.154h128.084v22.154zm1.388-48.832h125.308c.765 0 1.388.623 1.388 1.388v10.299h-128.084v-10.299c0-.766.623-1.388 1.388-1.388z"/></g></g></svg>