<svg id="Capa_1" enable-background="new 0 0 512.107 512.107" height="512" viewBox="0 0 512.107 512.107" width="512" xmlns="http://www.w3.org/2000/svg"><g><g><g><path d="m123.07 504.612c-9.467 0-17.142-7.675-17.142-17.142v-353.912c0-69.512 56.552-126.063 126.063-126.063 69.513 0 126.064 56.552 126.064 126.063v23.047c0 9.467-7.675 17.142-17.142 17.142s-17.142-7.675-17.142-17.142v-23.047c0-50.607-41.172-91.779-91.779-91.779s-91.78 41.172-91.78 91.779v353.912c0 9.468-7.675 17.142-17.142 17.142z" fill="#b5adb6"/></g></g><g><g><path d="m214.911 41.776c2.878 0 5.726.13 8.544.4-46.619 4.307-83.245 43.651-83.245 91.379v353.915c0 9.464-7.675 17.139-17.139 17.139-3.108 0-6.036-.829-8.544-2.279 5.147-2.958 8.604-8.504 8.604-14.86v-353.915c.001-50.606 41.173-91.779 91.78-91.779z" fill="#a79ba7"/></g><g><path d="m358.056 133.555v23.055c0 9.464-7.675 17.139-17.139 17.139-3.108 0-6.036-.83-8.544-2.279 5.147-2.958 8.604-8.504 8.604-14.86v-23.055c0-66.636-51.975-121.359-117.522-125.766 2.818-.19 5.666-.29 8.534-.29 69.514 0 126.067 56.552 126.067 126.056z" fill="#a79ba7"/></g></g><g><path d="m445.213 222.116h-208.6v-6.672c0-57.603 46.697-104.3 104.3-104.3 57.603 0 104.3 46.697 104.3 104.3z" fill="#7a6d79"/></g><g><path d="m448.944 256.053h-216.062c-9.372 0-16.969-7.597-16.969-16.969 0-9.372 7.597-16.969 16.969-16.969h216.062c9.372 0 16.969 7.597 16.969 16.969 0 9.372-7.597 16.969-16.969 16.969z" fill="#b5adb6"/></g><g><path d="m445.218 215.44v6.676h-21.706v-6.676c0-28.801-11.672-54.873-30.55-73.751-16.479-16.479-38.434-27.462-62.898-29.99 3.568-.37 7.185-.56 10.853-.56 28.801 0 54.874 11.672 73.751 30.55s30.55 44.951 30.55 73.751z" fill="#685e68"/></g><g><path d="m465.914 239.085c0 4.687-1.899 8.934-4.967 12.002s-7.315 4.967-12.002 4.967h-21.705c4.687 0 8.934-1.899 12.002-4.967s4.967-7.315 4.967-12.002c0-9.374-7.595-16.969-16.969-16.969h21.706c9.373 0 16.968 7.595 16.968 16.969z" fill="#a79ba7"/></g><g><path d="m184.828 504.612h-121.73c-9.336 0-16.904-7.568-16.904-16.904 0-9.336 7.568-16.904 16.904-16.904h121.73c9.336 0 16.904 7.568 16.904 16.904.001 9.336-7.568 16.904-16.904 16.904z" fill="#7a6d79"/></g><g><path d="m201.73 487.71c0 4.667-1.889 8.894-4.947 11.952s-7.285 4.947-11.952 4.947h-19.987c4.667 0 8.894-1.889 11.952-4.947s4.947-7.285 4.947-11.952c0-9.334-7.565-16.909-16.899-16.909h19.987c9.334 0 16.899 7.575 16.899 16.909z" fill="#685e68"/></g><g><g><path d="m183.971 377.628 10.958-10.958c.851-.851.851-2.23 0-3.081l-10.958-10.958c-.409-.409-.638-.963-.638-1.54v-43.153c0-1.203-.975-2.178-2.178-2.178h-43.153c-.578 0-1.132-.23-1.54-.638l-10.958-10.958c-.851-.851-2.23-.851-3.081 0l-10.958 10.958c-.409.409-.963.638-1.54.638h-43.155c-1.203 0-2.178.975-2.178 2.178v43.153c0 .578-.23 1.132-.638 1.54l-10.958 10.958c-.851.851-.851 2.23 0 3.081l10.958 10.958c.409.409.638.963.638 1.54v43.153c0 1.203.975 2.178 2.178 2.178h43.153c.578 0 1.132.23 1.54.638l10.958 10.958c.851.851 2.23.851 3.081 0l10.958-10.958c.409-.409.963-.638 1.54-.638h43.153c1.203 0 2.178-.975 2.178-2.178v-43.153c.002-.578.231-1.132.64-1.54z" fill="#ade194"/></g><g><path d="m118.016 424.497h19.987c-.58 0-1.129.23-1.539.639l-10.963 10.963c-.85.849-2.229.849-3.078 0l-8.454-8.455 2.508-2.508c.41-.409.959-.639 1.539-.639z" fill="#97da7b"/></g><g><path d="m136.464 305.116c.41.41.959.639 1.539.639h-19.987c-.58 0-1.129-.23-1.539-.639l-2.508-2.508 8.454-8.445c.85-.849 2.229-.849 3.078 0z" fill="#97da7b"/></g><g><path d="m194.925 366.665-10.953 10.962c-.41.41-.64.96-.64 1.539v43.151c0 1.209-.979 2.178-2.178 2.178h-19.987c1.199 0 2.178-.969 2.178-2.178v-43.151c0-.579.23-1.129.64-1.539l10.953-10.962c.859-.85.859-2.229 0-3.078l-10.953-10.953c-.41-.41-.64-.97-.64-1.549v-43.151c0-1.199-.979-2.179-2.178-2.179h19.987c1.199 0 2.178.979 2.178 2.179v43.151c0 .579.23 1.139.64 1.549l10.953 10.953c.859.85.859 2.229 0 3.078z" fill="#97da7b"/></g><g><circle cx="123.962" cy="365.129" fill="#f9f3f1" r="34.261"/></g><g><path d="m158.219 365.131c0 18.917-15.34 34.257-34.257 34.257-9.574 0-18.218-3.927-24.444-10.253 1.389.17 2.798.26 4.227.26 18.917 0 34.257-15.34 34.257-34.257 0-9.344-3.758-17.838-9.823-24.014 16.929 2.078 30.04 16.508 30.04 34.007z" fill="#efe2dd"/></g></g><g><path d="m253.958 281.935c-4.14 0-7.495 3.355-7.495 7.495v19.257c0 4.14 3.355 7.495 7.495 7.495s7.495-3.355 7.495-7.495v-19.257c0-4.14-3.355-7.495-7.495-7.495z"/><path d="m311.928 281.935c-4.14 0-7.495 3.355-7.495 7.495v19.257c0 4.14 3.355 7.495 7.495 7.495s7.495-3.355 7.495-7.495v-19.257c0-4.14-3.355-7.495-7.495-7.495z"/><path d="m369.898 281.935c-4.14 0-7.495 3.355-7.495 7.495v19.257c0 4.14 3.355 7.495 7.495 7.495s7.495-3.355 7.495-7.495v-19.257c0-4.14-3.355-7.495-7.495-7.495z"/><path d="m427.868 281.935c-4.14 0-7.495 3.355-7.495 7.495v19.257c0 4.14 3.355 7.495 7.495 7.495s7.495-3.355 7.495-7.495v-19.257c.001-4.14-3.355-7.495-7.495-7.495z"/><path d="m253.958 348.006c-4.14 0-7.495 3.355-7.495 7.495v19.258c0 4.14 3.355 7.495 7.495 7.495s7.495-3.355 7.495-7.495v-19.258c0-4.14-3.355-7.495-7.495-7.495z"/><path d="m311.928 348.006c-4.14 0-7.495 3.355-7.495 7.495v19.258c0 4.14 3.355 7.495 7.495 7.495s7.495-3.355 7.495-7.495v-19.258c0-4.14-3.355-7.495-7.495-7.495z"/><path d="m369.898 348.006c-4.14 0-7.495 3.355-7.495 7.495v19.258c0 4.14 3.355 7.495 7.495 7.495s7.495-3.355 7.495-7.495v-19.258c0-4.14-3.355-7.495-7.495-7.495z"/><path d="m427.868 348.006c-4.14 0-7.495 3.355-7.495 7.495v19.258c0 4.14 3.355 7.495 7.495 7.495s7.495-3.355 7.495-7.495v-19.258c.001-4.14-3.355-7.495-7.495-7.495z"/><path d="m282.943 310.674c-4.14 0-7.495 3.355-7.495 7.495v19.258c0 4.14 3.355 7.495 7.495 7.495s7.495-3.355 7.495-7.495v-19.258c0-4.139-3.355-7.495-7.495-7.495z"/><path d="m340.913 310.674c-4.14 0-7.495 3.355-7.495 7.495v19.258c0 4.14 3.355 7.495 7.495 7.495s7.495-3.355 7.495-7.495v-19.258c0-4.139-3.356-7.495-7.495-7.495z"/><path d="m398.883 310.674c-4.14 0-7.495 3.355-7.495 7.495v19.258c0 4.14 3.355 7.495 7.495 7.495s7.495-3.355 7.495-7.495v-19.258c0-4.139-3.355-7.495-7.495-7.495z"/><path d="m452.703 214.91c-.254-53.978-38.956-99.033-90.072-109.138-12.822-60.352-66.521-105.772-130.64-105.772-30.329 0-60.046 10.486-83.675 29.528-23.271 18.752-39.771 45.003-46.459 73.917-.933 4.033 1.58 8.058 5.612 8.991 4.04.936 8.059-1.58 8.991-5.613 5.937-25.661 20.59-48.966 41.261-65.624 20.974-16.901 47.35-26.209 74.27-26.209 55.104 0 101.538 37.789 114.775 88.811-1.939-.101-3.89-.153-5.853-.153-4.741 0-9.413.299-14 .875-12.449-40.615-50.281-70.239-94.921-70.239-54.74 0-99.275 44.534-99.275 99.274v157.218l-1.914-1.914c-1.828-1.827-4.257-2.833-6.841-2.833-2.585 0-5.016 1.007-6.84 2.833l-3.7 3.7v-152.512c0-4.14-3.355-7.495-7.495-7.495s-7.495 3.355-7.495 7.495v158.214h-31.662c-5.333 0-9.673 4.34-9.673 9.673v40.95l-9.401 9.401c-3.771 3.772-3.771 9.909 0 13.68l9.401 9.402v40.95c0 5.334 4.34 9.674 9.673 9.674h31.663v31.313h-35.335c-13.454 0-24.399 10.946-24.399 24.4s10.945 24.399 24.399 24.399h121.73c13.454 0 24.4-10.945 24.4-24.399s-10.946-24.4-24.4-24.4h-37.121v-31.313h33.448c5.333 0 9.673-4.34 9.673-9.674v-40.95l9.405-9.405c3.765-3.77 3.765-9.904-.003-13.677l-9.402-9.401v-40.95c0-5.333-4.34-9.673-9.673-9.673h-33.448v-164.706c0-46.474 37.81-84.284 84.285-84.284 37.35 0 69.077 24.432 80.103 58.147-47.557 12.699-82.723 56.041-82.966 107.489-11.714 1.811-20.71 11.962-20.71 24.175 0 13.49 10.974 24.464 24.463 24.464h139.785c4.14 0 7.495-3.355 7.495-7.495s-3.355-7.495-7.495-7.495h-139.785c-5.223 0-9.473-4.25-9.473-9.474 0-5.223 4.25-9.473 9.473-9.473h216.063c5.223 0 9.473 4.25 9.473 9.473 0 5.224-4.25 9.474-9.473 9.474h-41.329c-4.14 0-7.495 3.355-7.495 7.495s3.355 7.495 7.495 7.495h41.329c13.489 0 24.463-10.974 24.463-24.464-.001-12.212-8.994-22.361-20.705-24.175zm-267.875 263.388c5.189 0 9.41 4.221 9.41 9.41 0 5.188-4.221 9.409-9.41 9.409h-121.73c-5.188 0-9.409-4.221-9.409-9.409 0-5.189 4.221-9.41 9.409-9.41zm-71.406-14.99v-25.613l3.697 3.697c1.827 1.83 4.258 2.837 6.843 2.837 2.584 0 5.013-1.006 6.841-2.834l1.914-1.914v23.827zm62.416-150.054v37.836c0 2.588 1.008 5.019 2.833 6.84l7.199 7.198-7.192 7.194c-1.832 1.827-2.84 4.258-2.84 6.846v37.837h-37.836c-2.58 0-5.007 1.003-6.841 2.833l-7.198 7.198-7.205-7.205c-1.827-1.823-4.254-2.826-6.833-2.826h-37.839v-37.837c0-2.588-1.008-5.019-2.833-6.839l-7.199-7.2 7.193-7.193c1.832-1.827 2.84-4.258 2.84-6.846v-37.836h37.837c2.579 0 5.006-1.004 6.84-2.833l7.198-7.199 7.205 7.205c1.827 1.823 4.255 2.827 6.834 2.827zm68.274-98.633c.442-53.003 43.697-95.983 96.802-95.983 53.104 0 96.359 42.98 96.801 95.983z"/><path d="m82.207 365.129c0 23.024 18.732 41.755 41.755 41.755 23.025 0 41.756-18.732 41.756-41.755 0-23.025-18.732-41.756-41.756-41.756s-41.755 18.732-41.755 41.756zm68.522 0c0 14.759-12.008 26.765-26.766 26.765-14.759 0-26.765-12.007-26.765-26.765s12.007-26.766 26.765-26.766 26.766 12.008 26.766 26.766z"/><path d="m116.468 365.13c0 4.139 3.356 7.495 7.495 7.495s7.495-3.356 7.495-7.495-3.356-7.495-7.495-7.495-7.495 3.356-7.495 7.495z"/></g></g></svg>