<svg id="Capa_1" enable-background="new 0 0 512 512" height="512" viewBox="0 0 512 512" width="512" xmlns="http://www.w3.org/2000/svg"><g><g><g><path d="m353.234 211.581c-5.127 14.496-18.952 24.882-35.204 24.882-20.574 0-37.334-16.759-37.333-37.334 0-16.252 10.386-30.077 24.882-35.204 1.266-.448.969-2.315-.374-2.357-.54-.017-1.082-.025-1.626-.025-28.74 0-52.038 23.298-52.038 52.038 0 28.825 23.214 52.038 52.038 52.038 28.74 0 52.038-23.298 52.038-52.038 0-.544-.009-1.086-.025-1.626-.043-1.343-1.91-1.64-2.358-.374z" fill="#fed402"/></g><g><g><path d="m313.962 255.076c-28.825 0-52.038-23.214-52.038-52.038 0-11.555 3.771-22.226 10.143-30.861-12.472 9.507-20.526 24.512-20.526 41.404 0 28.825 23.214 52.038 52.038 52.038 17.185 0 32.419-8.334 41.895-21.177-8.748 6.667-19.665 10.634-31.512 10.634z" fill="#fac600"/></g></g></g><g><path d="m79.642 177.079 11.238 18.406c.241.395.63.678 1.08.785l20.977 5c1.265.301 1.763 1.834.917 2.822l-14.032 16.375c-.301.352-.45.809-.413 1.27l1.727 21.496c.104 1.296-1.2 2.243-2.4 1.744l-19.91-8.285c-.427-.178-.908-.178-1.336 0l-19.91 8.285c-1.201.499-2.505-.448-2.401-1.744l1.727-21.496c.037-.462-.111-.919-.413-1.27l-14.032-16.376c-.846-.987-.348-2.52.917-2.822l20.977-5c.45-.107.839-.39 1.08-.785l11.238-18.406c.679-1.109 2.291-1.109 2.969.001z" fill="#fed402"/></g><g><g><path d="m76.633 216.624c.037-.461-.111-.919-.413-1.27l-14.032-16.375c-.567-.663-.52-1.563-.052-2.18l-18.757 4.471c-1.265.302-1.763 1.834-.917 2.822l14.032 16.375c.301.352.45.809.413 1.27l-1.727 21.496c-.104 1.296 1.2 2.243 2.401 1.744l17.355-7.221z" fill="#fac600"/></g></g><g><path d="m439.159 280.418-35.78-25.995c-1.59.448-3.26.704-4.992.704s-3.403-.256-4.992-.704l-35.78 25.995c-11.048 8.027-15.671 22.255-11.451 35.243l1.501 4.619h101.445l1.501-4.619c4.219-12.988-.404-27.216-11.452-35.243z" fill="#c53287"/><path d="m403.379 254.423c-1.59.448-3.26.704-4.992.704s-3.403-.256-4.992-.704l-35.78 25.995c-11.048 8.027-15.671 22.255-11.451 35.243l1.501 4.619h28.631c-1.508-11.318 3.221-22.771 12.701-29.658l32.104-23.325z" fill="#a82975"/><g><path d="m336.668 320.28h123.438v158.107h-123.438z" fill="#fe860a"/></g><g><path d="m336.668 320.28h20.894v158.107h-20.894z" fill="#fe7701"/></g><g><path d="m373.172 389.651v88.736h50.428v-88.736c0-10.388-4.335-20.305-11.961-27.36l-13.253-12.26-13.253 12.26c-7.625 7.055-11.961 16.972-11.961 27.36z" fill="#fed402"/></g><g><path d="m394 400.263c0-10.388 4.336-20.305 11.961-27.36l8.421-7.791c-.86-.983-1.774-1.926-2.743-2.822l-13.253-12.26-13.253 12.26c-7.626 7.054-11.961 16.971-11.961 27.36v88.736h20.828z" fill="#fac600"/></g><g><circle cx="398.387" cy="236.719" fill="#fe860a" r="18.407"/></g></g><g><g><circle cx="183.047" cy="170.878" fill="#fed402" r="15.993"/></g><g><path d="m182 170.878c0-6.132 3.455-11.452 8.52-14.135-2.231-1.182-4.772-1.858-7.473-1.858-8.833 0-15.993 7.16-15.993 15.993s7.16 15.993 15.993 15.993c2.701 0 5.242-.676 7.473-1.858-5.065-2.683-8.52-8.003-8.52-14.135z" fill="#fac600"/></g><path d="m211.721 266.412v-18.969c0-15.836-12.838-28.674-28.674-28.674s-28.674 12.838-28.674 28.674v18.969z" fill="#fe860a"/><path d="m175 266.412v-18.969c0-12.199 7.622-22.612 18.361-26.755-3.202-1.235-6.677-1.919-10.314-1.919-15.836 0-28.674 12.838-28.674 28.674v18.969z" fill="#fe7701"/><g><path d="m120.651 304.112 32.862 80.357h59.068l32.862-80.357z" fill="#fe860a"/></g><g><path d="m161.696 304.112 11.245 80.357h20.212l11.245-80.357z" fill="#fff"/></g><g><path d="m211.907 266.412h-57.719l-33.537 37.7h124.792z" fill="#c53287"/></g><g><path d="m154.188 266.412-33.537 37.7h31.349l33.536-37.7z" fill="#a82975"/></g><g><path d="m147.721 384.47h70.652v27.036h-70.652z" fill="#c53287"/></g><g><path d="m147.721 384.469h31.279v27.036h-31.279z" fill="#a82975"/></g></g><g><g><path d="m77.907 105.076 50.463-71.464h-100.926z" fill="#80d261"/></g><g><path d="m59 33.612h-31.556l50.463 71.464 15.778-22.344z" fill="#4fc123"/></g><g><path d="m149.144 105.076 50.463-71.464h-100.926z" fill="#c53287"/></g><g><path d="m130 33.612h-31.319l50.463 71.464 15.659-22.176z" fill="#a82975"/></g><g><path d="m220.381 105.076 50.463-71.464h-100.926z" fill="#80d261"/></g><g><path d="m201 33.612h-31.082l50.463 71.464 15.541-22.008z" fill="#4fc123"/></g><g><path d="m291.618 105.076 50.464-71.464h-100.927z" fill="#c53287"/></g><g><path d="m273 33.612h-31.845l50.464 71.464 15.922-22.548z" fill="#a82975"/></g><g><path d="m362.856 105.076 50.463-71.464h-100.926z" fill="#80d261"/></g><g><path d="m344 33.612h-31.607l50.463 71.464 15.803-22.38z" fill="#4fc123"/></g><g><path d="m434.093 105.076 50.463-71.464h-100.926z" fill="#c53287"/></g><g><path d="m411.074 33.612h-27.444l50.463 71.464 13.722-19.432z" fill="#a82975"/></g></g><g><path d="m461.23 174.981-20.204 20.204c-1.269 1.269-1.269 3.325 0 4.594l20.204 20.204c1.268 1.268 3.325 1.268 4.594 0l20.204-20.204c1.269-1.269 1.269-3.325 0-4.594l-20.204-20.204c-1.269-1.269-3.325-1.269-4.594 0z" fill="#fed402"/></g><g><path d="m462.046 199.779c-1.269-1.269-1.269-3.325 0-4.594l11.991-11.991-8.213-8.213c-1.268-1.268-3.325-1.268-4.594 0l-20.204 20.205c-1.269 1.269-1.269 3.325 0 4.594l20.204 20.204c1.269 1.269 3.325 1.269 4.594 0l8.213-8.213z" fill="#fac600"/></g><g><path d="m61.681 358.318-20.204 20.204c-1.269 1.269-1.269 3.325 0 4.594l20.204 20.204c1.269 1.268 3.325 1.268 4.594 0l20.204-20.204c1.269-1.269 1.269-3.325 0-4.594l-20.204-20.204c-1.269-1.269-3.325-1.269-4.594 0z" fill="#fed402"/></g><g><path d="m62.046 383.116c-1.269-1.269-1.269-3.325 0-4.594l12.217-12.217-7.988-7.988c-1.268-1.269-3.325-1.269-4.594 0l-20.204 20.204c-1.269 1.269-1.269 3.325 0 4.594l20.204 20.204c1.269 1.269 3.325 1.269 4.594 0l7.988-7.988z" fill="#fac600"/></g><g><path d="m267.156 432.433-20.205 20.204c-1.268 1.269-1.268 3.325 0 4.594l20.205 20.204c1.269 1.268 3.325 1.268 4.594 0l20.204-20.204c1.269-1.269 1.269-3.325 0-4.594l-20.204-20.204c-1.269-1.269-3.326-1.269-4.594 0z" fill="#fed402"/></g><g><path d="m267.951 457.231c-1.269-1.269-1.269-3.325 0-4.594l12.001-12.001-8.203-8.203c-1.269-1.269-3.325-1.269-4.594 0l-20.204 20.205c-1.269 1.269-1.269 3.325 0 4.594l20.204 20.205c1.269 1.268 3.325 1.268 4.594 0l8.203-8.203z" fill="#fac600"/></g><g><path d="m460.105 391.5c4.143 0 7.5-3.357 7.5-7.5v-56.22h10.366c4.143 0 7.5-3.357 7.5-7.5s-3.357-7.5-7.5-7.5h-17.866-1.063c2.626-14.583-3.22-29.525-15.475-38.43l-26.757-19.439c4.623-4.682 7.483-11.108 7.483-18.191 0-11.678-7.768-21.572-18.407-24.796v-39.924c0-4.143-3.357-7.5-7.5-7.5s-7.5 3.357-7.5 7.5v39.924c-10.639 3.224-18.407 13.118-18.407 24.796 0 7.083 2.86 13.51 7.483 18.191l-26.757 19.439c-12.256 8.905-18.102 23.846-15.475 38.43h-1.063-17.866c-4.143 0-7.5 3.357-7.5 7.5s3.357 7.5 7.5 7.5h10.366v143.107h-10.366c-4.143 0-7.5 3.357-7.5 7.5s3.357 7.5 7.5 7.5h159.17c4.143 0 7.5-3.357 7.5-7.5s-3.357-7.5-7.5-7.5h-10.366v-51.887c0-4.143-3.357-7.5-7.5-7.5s-7.5 3.357-7.5 7.5v51.887h-21.505v-81.235c0-12.439-5.237-24.419-14.368-32.866l-13.253-12.26c-2.875-2.658-7.311-2.658-10.186 0l-13.253 12.26c-9.131 8.447-14.368 20.427-14.368 32.866v81.235h-21.505v-143.107h108.438v56.22c0 4.142 3.358 7.5 7.5 7.5zm-79.432-1.849c0-8.272 3.482-16.238 9.554-21.854l8.16-7.549 8.16 7.549c6.071 5.616 9.554 13.582 9.554 21.854v81.235h-35.428zm17.714-163.839c6.015 0 10.907 4.893 10.907 10.907s-4.893 10.907-10.907 10.907-10.907-4.893-10.907-10.907 4.892-10.907 10.907-10.907zm45.249 86.968h-90.498c-2.918-9.771.597-20.273 8.884-26.295l33.128-24.068c1.061.133 2.14.209 3.236.209s2.175-.076 3.236-.209l33.128 24.068c8.287 6.021 11.803 16.523 8.886 26.295z"/><path d="m504.5 26.113h-497c-4.143 0-7.5 3.357-7.5 7.5s3.357 7.5 7.5 7.5h16.058l47.1 66.702v64.788c-.132.185-.265.371-.385.567l-9.987 16.357c-.001.001-.002.002-.004.003l-18.397 4.386c-2.616.624-4.954 2.24-6.218 4.614-1.859 3.491-1.377 7.55 1.1 10.441l12.47 14.553c.001.001.002.003.001.005l-1.535 19.108c-.258 3.236 1.156 6.306 3.783 8.213 1.612 1.171 3.5 1.771 5.411 1.771 1.2 0 2.409-.237 3.564-.718l17.694-7.363h.005l17.692 7.361c2.995 1.25 6.352.855 8.978-1.051 2.627-1.907 4.041-4.977 3.782-8.217l-1.534-19.104c0-.002 0-.003.001-.005l12.471-14.554c2.11-2.464 2.772-5.777 1.77-8.864-1.003-3.086-3.485-5.378-6.644-6.132l-18.643-4.444c-.002 0-.003-.001-.004-.003l-9.987-16.357c-.113-.227-.251-.44-.385-.655v-65.414l27.867-39.464 29.491 41.765c1.406 1.99 3.69 3.174 6.127 3.174s4.721-1.184 6.127-3.174l20.276-28.715v67.931c-9.286 3.138-15.993 11.927-15.993 22.259s6.707 19.121 15.993 22.258v18.919c-16.359 3.463-28.674 18.012-28.674 35.388v15.907l-31.825 35.778c-1.902 2.139-2.422 5.174-1.339 7.823l29.312 71.677c-1.707 1.375-2.801 3.479-2.801 5.841v19.536h-8.843c-4.143 0-7.5 3.357-7.5 7.5s3.357 7.5 7.5 7.5h103.339c4.143 0 7.5-3.357 7.5-7.5s-3.357-7.5-7.5-7.5h-8.844v-19.536c0-2.362-1.094-4.466-2.8-5.841l29.312-71.677c1.083-2.649.563-5.685-1.339-7.823l-31.824-35.778v-15.907c0-17.376-12.315-31.925-28.675-35.388v-18.919c9.286-3.138 15.993-11.927 15.993-22.258 0-10.333-6.707-19.122-15.993-22.259v-72.79l23.707 33.573c1.406 1.99 3.69 3.174 6.127 3.174s4.721-1.184 6.127-3.174l29.495-41.764 27.182 38.495v51.511c-22.814 8.345-39.142 30.27-39.142 55.938 0 32.829 26.709 59.538 59.538 59.538s59.538-26.709 59.538-59.538c0-.626-.009-1.249-.029-1.855-.128-4.19-3.228-7.701-7.371-8.347-4.146-.648-8.155 1.753-9.552 5.701-4.207 11.893-15.513 19.883-28.134 19.883-16.45 0-29.834-13.383-29.834-29.833 0-12.622 7.99-23.928 19.884-28.134 3.947-1.396 6.345-5.414 5.701-9.551-.645-4.142-4.153-7.242-8.346-7.373-.616-.02-1.235-.029-1.857-.029-1.82 0-3.618.095-5.396.256v-45.514l29.055-41.147 29.492 41.766c1.406 1.99 3.69 3.174 6.127 3.174s4.721-1.184 6.127-3.174l21.904-31.021v58.617c0 4.143 3.357 7.5 7.5 7.5s7.5-3.357 7.5-7.5v-58.865l22.079 31.268c1.406 1.99 3.69 3.174 6.127 3.174s4.721-1.184 6.127-3.174l48.221-68.29h16.059c4.143 0 7.5-3.357 7.5-7.5s-3.357-7.5-7.5-7.5zm-414.279 177.452 11.788 2.81c.005.001.007.007.003.01l-7.889 9.206c-1.586 1.854-2.385 4.314-2.188 6.747l.97 12.078c0 .005-.004.008-.009.007l-11.192-4.657c-2.252-.936-4.838-.937-7.096.001l-11.188 4.656c-.004.002-.009-.002-.009-.007l.97-12.078c.196-2.433-.603-4.893-2.192-6.751l-7.885-9.202c-.003-.003-.001-.009.003-.01l11.774-2.807c2.38-.563 4.477-2.083 5.756-4.175l6.315-10.343c.002-.004.008-.004.011 0l6.318 10.347c1.277 2.088 3.373 3.608 5.74 4.168zm-12.315-111.49-35.984-50.962h52.874l9.548 13.522zm71.238 0-35.985-50.962h52.874l9.548 13.522zm-17.323 219.538h23.352l9.146 65.356h-5.769zm79.052 92.392h-55.652v-12.036h55.652zm-3.328-27.036h-5.769l2.399-17.146c.574-4.102-2.286-7.893-6.389-8.467-4.097-.565-7.893 2.285-8.467 6.389l-2.69 19.225h-7.166l-9.145-65.356h25.457l-1.605 11.467c-.574 4.102 2.286 7.893 6.389 8.467 4.096.56 7.893-2.285 8.467-6.389l1.896-13.545h23.351zm21.188-80.356h-91.373l20.193-22.701h50.987zm-24.511-49.169v11.468h-42.349v-11.468c0-11.676 9.499-21.175 21.174-21.175 11.676 0 21.175 9.499 21.175 21.175zm-12.682-76.566c0 4.684-3.81 8.493-8.493 8.493s-8.493-3.81-8.493-8.493 3.81-8.494 8.493-8.494 8.493 3.811 8.493 8.494zm28.841-78.804-35.985-50.961h52.874l9.548 13.521zm97.649 151.888c8.313 0 16.244-2.307 23.065-6.403-7.924 12.356-21.78 20.56-37.518 20.56-24.559 0-44.538-19.979-44.538-44.538 0-15.737 8.203-29.594 20.56-37.518-4.097 6.821-6.403 14.754-6.403 23.066 0 24.721 20.113 44.833 44.834 44.833zm-26.412-151.888-35.985-50.961h52.874l9.548 13.521zm71.237 0-35.985-50.961h52.874l9.548 13.521zm71.238 0-35.985-50.961h71.969z"/><path d="m471.128 169.677c-2.03-2.029-4.729-3.147-7.601-3.147s-5.57 1.118-7.6 3.147l-20.206 20.204c-4.19 4.191-4.19 11.01 0 15.201l20.205 20.205c2.096 2.095 4.847 3.142 7.6 3.142 2.752 0 5.505-1.047 7.602-3.143l20.204-20.204c4.19-4.191 4.19-11.01 0-15.201zm-7.601 41.997-14.192-14.192 14.192-14.191 14.191 14.191z"/><path d="m71.578 353.014c-4.191-4.189-11.01-4.189-15.201 0l-20.204 20.204c-4.19 4.191-4.19 11.01 0 15.201l20.204 20.204c2.096 2.096 4.848 3.143 7.601 3.143 2.752 0 5.505-1.048 7.6-3.143l20.206-20.204c4.19-4.191 4.19-11.01-.001-15.201zm-7.6 41.996-14.191-14.191 14.191-14.191 14.192 14.191z"/><path d="m277.054 427.129c-4.189-4.188-11.007-4.19-15.198-.003-.001.001-.002.002-.003.002l-20.205 20.205c-4.19 4.191-4.19 11.01.001 15.201l20.204 20.204c2.096 2.095 4.849 3.143 7.601 3.143s5.505-1.048 7.601-3.143l20.204-20.204c4.19-4.191 4.19-11.01 0-15.201zm-7.601 41.996-14.192-14.191 14.192-14.191 14.191 14.191z"/></g></g></svg>