<svg id="Capa_1" enable-background="new 0 0 512 512" height="512" viewBox="0 0 512 512" width="512" xmlns="http://www.w3.org/2000/svg"><g><g><path d="m423.156 241.758 30.524-30.524c2.37-2.37 2.37-6.212 0-8.582l-30.524-30.524c-1.138-1.138-1.777-2.681-1.777-4.291v-120.205c0-3.351-2.717-6.068-6.068-6.068h-120.205c-1.609 0-3.153-.639-4.291-1.777l-30.524-30.525c-2.37-2.37-6.212-2.37-8.582 0l-30.524 30.524c-1.138 1.138-2.681 1.777-4.291 1.777h-120.205c-3.351 0-6.068 2.717-6.068 6.068v120.204c0 1.609-.639 3.153-1.777 4.291l-30.524 30.524c-2.37 2.37-2.37 6.212 0 8.582l30.524 30.524c1.138 1.138 1.777 2.681 1.777 4.291v120.204c0 3.351 2.717 6.068 6.068 6.068h120.204c1.609 0 3.153.639 4.291 1.777l30.524 30.524c2.37 2.37 6.212 2.37 8.582 0l30.524-30.524c1.138-1.138 2.681-1.777 4.291-1.777h120.204c3.351 0 6.068-2.717 6.068-6.068v-120.202c.002-1.61.641-3.153 1.779-4.291z" fill="#ade194"/></g><g><path d="m276.558 372.319h18.55c-1.608 0-3.157.639-4.295 1.778l-30.516 30.526c-2.377 2.367-6.213 2.367-8.591 0l-4.985-4.985 25.542-25.542c1.138-1.138 2.686-1.777 4.295-1.777z" fill="#97da7b"/></g><g><path d="m290.812 39.784c1.139 1.139 2.687 1.778 4.295 1.778h-18.55c-1.608 0-3.157-.639-4.295-1.778l-25.542-25.542 4.985-4.985c2.377-2.367 6.213-2.367 8.591 0z" fill="#97da7b"/></g><g><path d="m453.683 211.235-30.526 30.526c-1.139 1.139-1.778 2.677-1.778 4.285v120.208c0 3.346-2.717 6.063-6.063 6.063h-18.56c3.356 0 6.073-2.717 6.073-6.063v-120.207c0-1.608.639-3.147 1.778-4.285l30.527-30.526c2.367-2.367 2.367-6.213 0-8.581l-30.527-30.526c-1.139-1.139-1.778-2.687-1.778-4.295v-120.199c0-3.356-2.717-6.073-6.073-6.073h18.56c3.346 0 6.063 2.717 6.063 6.073v120.198c0 1.608.639 3.157 1.778 4.295l30.526 30.526c2.368 2.368 2.368 6.214 0 8.581z" fill="#97da7b"/></g><g><path d="m388.858 235.598 27.189-27.189c.81-.81.81-2.123 0-2.933l-27.189-27.189c-.389-.389-.607-.916-.607-1.466v-100.055c0-1.145-.929-2.074-2.074-2.074h-100.055c-.55 0-1.078-.219-1.466-.607l-27.189-27.189c-.81-.81-2.123-.81-2.933 0l-27.188 27.189c-.389.389-.916.607-1.466.607h-100.056c-1.145 0-2.074.929-2.074 2.074v100.055c0 .55-.219 1.078-.607 1.466l-27.189 27.189c-.81.81-.81 2.123 0 2.933l27.189 27.189c.389.389.607.916.607 1.466v100.055c0 1.145.929 2.074 2.074 2.074h100.055c.55 0 1.078.219 1.466.607l27.188 27.188c.81.81 2.123.81 2.933 0l27.189-27.188c.389-.389.916-.607 1.466-.607h100.055c1.145 0 2.074-.929 2.074-2.074v-100.055c0-.55.219-1.078.608-1.466z" fill="#dbf1d0"/></g><g><path d="m266.219 339.195h19.898c-.549 0-1.069.22-1.458.609l-27.19 27.18c-.809.819-2.128.819-2.937 0l-8.481-8.481 18.71-18.699c.389-.389.909-.609 1.458-.609z" fill="#c1e9af"/></g><g><path d="m284.659 74.086c.39.39.909.609 1.458.609h-19.898c-.549 0-1.069-.22-1.458-.609l-18.71-18.71 8.481-8.481c.809-.809 2.128-.809 2.937 0z" fill="#c1e9af"/></g><g><path d="m416.044 208.408-27.19 27.19c-.39.39-.599.919-.599 1.468v100.05c0 1.149-.929 2.078-2.078 2.078h-19.898c1.149 0 2.078-.929 2.078-2.078v-100.05c0-.549.21-1.079.599-1.468l27.19-27.19c.809-.809.809-2.118 0-2.937l-27.19-27.18c-.39-.39-.599-.919-.599-1.468v-100.06c0-1.139-.929-2.068-2.078-2.068h19.898c1.149 0 2.078.929 2.078 2.068v100.06c0 .549.21 1.079.599 1.468l27.19 27.18c.81.82.81 2.128 0 2.937z" fill="#c1e9af"/></g><g><g><path d="m339.006 224.861c-10.206 0-18.479 8.273-18.479 18.479v-17.107c0-10.206-8.273-18.479-18.479-18.479-10.206 0-18.479 8.273-18.479 18.479v-18.479c0-10.206-8.273-18.479-18.479-18.479s-18.479 8.273-18.479 18.479v-79.754c0-10.158-8.234-18.392-18.392-18.392h-.314c-10.158 0-18.392 8.234-18.392 21.419v152.731l-20.382-15.242c-8.585-7.026-21.136-6.242-28.78 1.797-8.046 8.461-7.734 21.837.7 29.912l49.662 47.221c7.282 6.974 11.4 16.619 11.4 26.701v14.903h106.301v-11.964c0-7.784 2.457-15.369 7.02-21.674l14.509-20.048c4.563-6.306 7.542-13.891 7.542-21.674v-70.35c0-10.205-8.273-18.479-18.479-18.479z" fill="#f6a96c"/></g></g><g><path d="m237.251 313.403-.609 7.262-.241.166c-3.729 2.572-8.776.881-10.422-3.339-1.149-2.945-2.812-5.688-4.93-8.035-4.678-5.185-10.969-8.442-19.053-8.645-1.422-.036-2.8-.513-3.939-1.365l-18.542-13.864c-7.282-5.953-17.421-6.293-24.993-1.348.16-5.015 2.098-9.999 5.834-13.925 7.642-8.041 20.188-8.82 28.778-1.798l20.378 15.243c9.1-.35 16.082 3.007 21.157 8.631 5.063 5.624 7.531 13.505 6.582 21.017z" fill="#ea9b58"/></g><g><path d="m320.529 226.229v48.846c-11.034 0-19.978-8.944-19.978-19.978v-28.868c0-6.523-3.386-12.257-8.491-15.533 2.877-1.858 6.313-2.937 9.989-2.937 10.209 0 18.48 8.271 18.48 18.47z" fill="#ea9b58"/></g><g><path d="m283.57 208.241v66.834c-11.034 0-19.978-8.944-19.978-19.978v-47.338c0-6.533-3.386-12.267-8.491-15.543 2.978-1.923 6.555-3.011 10.376-2.933 10.135.209 18.093 8.821 18.093 18.958z" fill="#ea9b58"/></g><g><path d="m246.61 127.997v147.079c-11.034 0-19.978-8.944-19.978-19.978v-127.1c0-6.493-3.366-12.207-8.451-15.473 2.817-1.898 6.153-2.917 9.719-2.917h.32c10.157-.001 18.39 8.232 18.39 18.389z" fill="#ea9b58"/></g><g><g><path d="m357.489 243.34v70.353c0 7.781-2.987 15.363-7.542 21.666l-14.514 20.048c-4.565 6.313-7.022 13.895-7.022 21.676v11.967h-19.978v-11.967c0-7.781 2.457-15.363 7.022-21.676l14.514-20.048c4.555-6.303 7.542-13.885 7.542-21.666v-70.353c0-6.523-3.386-12.257-8.491-15.543 2.877-1.858 6.313-2.937 9.989-2.937 10.199 0 18.48 8.271 18.48 18.48z" fill="#ea9b58"/></g></g><g><g><path d="m343.541 504.508h-136.026v-108.376c0-3.913 3.172-7.084 7.084-7.084h121.857c3.913 0 7.084 3.172 7.084 7.084v108.376z" fill="#99e6fc"/></g><g><path d="m343.541 430.965h-136.026v-34.834c0-3.913 3.172-7.084 7.084-7.084h121.857c3.913 0 7.084 3.172 7.084 7.084v34.834z" fill="#f9f3f1"/></g><g><path d="m343.543 396.132v108.371h-19.978v-108.371c0-3.916-3.177-7.082-7.082-7.082h19.978c3.906 0 7.082 3.167 7.082 7.082z" fill="#62dbfb"/></g><g><path d="m343.543 396.132v34.832h-19.978v-34.832c0-3.916-3.177-7.082-7.082-7.082h19.978c3.906 0 7.082 3.167 7.082 7.082z" fill="#f3eae6"/></g><path d="m458.979 197.354-30.108-30.107v-45.535c0-4.138-3.354-7.492-7.492-7.492s-7.492 3.354-7.492 7.492v46.124c0 3.624 1.412 7.031 3.971 9.589l29.518 29.518-29.518 29.517c-2.561 2.562-3.971 5.967-3.971 9.589v118.781h-75.295c.803-1.75 1.762-3.437 2.912-5.026l9.495-13.119h35.178c5.274 0 9.566-4.291 9.566-9.566v-97.812l25.604-25.604c3.726-3.73 3.725-9.797-.003-13.525l-25.602-25.601v-97.811c0-5.275-4.291-9.566-9.566-9.566h-97.812l-25.601-25.602c-3.729-3.726-9.795-3.728-13.529 0l-25.6 25.602h-97.812c-5.274 0-9.566 4.291-9.566 9.566v97.811l-25.598 25.599c-1.81 1.808-2.806 4.21-2.806 6.767 0 2.555.995 4.957 2.802 6.765l25.602 25.601v97.811c0 5.274 4.291 9.566 9.566 9.566h73.216l6.492 6.173c3.475 3.327 6.051 7.464 7.558 11.972h-114.975v-118.782c0-3.62-1.41-7.025-3.971-9.589l-29.518-29.517 29.518-29.518c2.561-2.562 3.971-5.967 3.971-9.589v-118.781h118.781c3.622 0 7.027-1.411 9.589-3.971l29.517-29.518 29.515 29.514c2.561 2.563 5.966 3.974 9.59 3.974h118.782v37.446c0 4.138 3.354 7.492 7.492 7.492s7.492-3.354 7.492-7.492v-38.868c0-7.477-6.083-13.56-13.56-13.56h-119.615l-30.107-30.108c-5.285-5.284-13.888-5.286-19.177 0l-30.107 30.108h-119.615c-7.477 0-13.56 6.083-13.56 13.56v119.615l-30.109 30.107c-5.286 5.287-5.286 13.89 0 19.177l30.109 30.107v119.615c0 7.477 6.083 13.56 13.56 13.56h117.931v1.742h-.021c-8.037 0-14.576 6.539-14.576 14.576v47.85c0 4.138 3.354 7.492 7.492 7.492s7.492-3.354 7.492-7.492v-5.523h121.042v58.559h-121.043v-18.695c0-4.138-3.354-7.492-7.492-7.492s-7.492 3.354-7.492 7.492v26.187c0 4.138 3.354 7.492 7.492 7.492h136.025c4.138 0 7.492-3.354 7.492-7.492v-108.378c0-8.037-6.539-14.576-14.576-14.576h-.551v-1.742h79.405c7.477 0 13.56-6.083 13.56-13.56v-119.615l30.108-30.107c5.287-5.287 5.287-13.89.001-19.177zm-327.737 134.347v-94.637c0-2.555-.995-4.957-2.802-6.764l-23.357-23.357 23.351-23.352c1.785-1.78 2.808-4.247 2.808-6.77v-94.637h94.636c2.552 0 4.951-.992 6.765-2.802l23.357-23.357 23.357 23.358c1.807 1.806 4.208 2.801 6.764 2.801h94.637v94.637c0 2.556.995 4.958 2.801 6.764l23.358 23.357-23.358 23.357c-.002.003-.004.005-.006.007-1.803 1.807-2.795 4.207-2.795 6.757v94.637h-19.968c2.753-5.831 4.186-11.936 4.186-18.011v-70.35c0-14.32-11.65-25.971-25.971-25.971-4.211 0-8.188 1.014-11.709 2.801-2.739-11.404-13.016-19.907-25.248-19.907-4.106 0-7.99.961-11.445 2.665-2.27-12.021-12.843-21.145-25.514-21.145-3.926 0-7.648.88-10.987 2.446v-56.228c0-14.272-11.611-25.884-25.884-25.884h-.314c-14.998 0-25.884 12.158-25.884 28.911v137.773l-8.282-6.194c-11.554-9.338-28.569-8.235-38.819 2.543-10.861 11.422-10.436 29.584.968 40.504l27.393 26.046h-52.038zm204.807 91.773h-121.042v-26.935h121.042zm-6.684-72.454c-5.523 7.633-8.443 16.647-8.443 26.067v4.469h-91.318v-7.408c0-12.065-4.998-23.77-13.729-32.131l-49.643-47.203c-5.438-5.207-5.641-13.883-.454-19.339 4.914-5.168 13.087-5.679 18.607-1.161.085.068.171.136.259.201 0 0 20.167 15.081 20.188 15.097 1.537 1.15 3.044 1.702 4.966 1.631 6.322-.232 11.344 1.772 15.299 6.161 3.584 3.976 5.391 9.745 4.716 15.055-.522 4.105 2.383 7.856 6.487 8.378.321.041.64.06.955.06 3.716 0 6.942-2.764 7.423-6.548 1.228-9.659-1.93-19.744-8.45-26.976-5.187-5.756-11.74-9.364-19.223-10.628v-145.718c0-8.331 4.38-13.927 10.9-13.927h.314c6.01 0 10.9 4.89 10.9 10.9v79.755 59.803c0 .776.118 1.524.337 2.228.948 3.05 3.793 5.264 7.155 5.264 4.138 0 7.492-3.354 7.492-7.492v-59.803c0-6.059 4.929-10.988 10.987-10.988s10.987 4.929 10.987 10.988v59.803c0 4.138 3.354 7.492 7.492 7.492s7.492-3.354 7.492-7.492v-41.325c0-6.058 4.929-10.987 10.988-10.987 6.058 0 10.987 4.929 10.987 10.987v41.325c0 4.138 3.354 7.492 7.492 7.492s7.492-3.354 7.492-7.492v-24.22c.001-6.057 4.93-10.986 10.987-10.986 6.059 0 10.988 4.929 10.988 10.987v70.35c0 5.691-2.174 11.829-6.12 17.282z"/></g></g></svg>