<svg id="Capa_1" enable-background="new 0 0 512 512" height="512" viewBox="0 0 512 512" width="512" xmlns="http://www.w3.org/2000/svg"><g><g><path d="m327.822 48.121c1.277-.271 2.6-.42 3.958-.42s2.681.149 3.959.42l13.334-13.334c1.172-1.171 1.172-3.071 0-4.243l-15.171-15.171c-1.172-1.172-3.071-1.172-4.243 0l-15.171 15.171c-1.172 1.172-1.171 3.071 0 4.243z" fill="#80d261"/><path d="m327.822 48.121c1.278-.271 2.6-.42 3.959-.42s2.681.149 3.959.42l5.065-5.065-8.269-8.269c-1.171-1.171-1.171-3.071 0-4.243l8.269-8.269-6.903-6.903c-1.172-1.172-3.071-1.172-4.243 0l-15.171 15.171c-1.172 1.172-1.171 3.071 0 4.243z" fill="#4fc123"/><path d="m424.836 122.322h-30.216v29.563h30.217c27.625 0 50.1 22.475 50.1 50.1 0 7.003-1.432 13.803-4.257 20.209l-38.351 86.99c7.302 11.641 12.261 24.669 14.286 38.548 1.206-1.233 2.218-2.696 2.954-4.366l48.162-109.246c4.492-10.189 6.77-21 6.77-32.135-.001-43.926-35.738-79.663-79.665-79.663z" fill="#c99c56"/><path d="m331.781 467.936c-24.639 0-47.477-7.045-66.253-19.046v48.61h132.507v-48.61c-18.777 12.001-41.615 19.046-66.254 19.046z" fill="#cbc4cc"/><path d="m265.528 448.89v48.61h41.966v-31.905c-15.332-2.994-29.539-8.762-41.966-16.705z" fill="#b5adb6"/><path d="m331.781 75.193c5.443 0 10.709.753 15.707 2.149 2.066-3.039 3.276-6.707 3.276-10.659 0-10.484-8.499-18.983-18.983-18.983s-18.982 8.499-18.982 18.983c0 3.952 1.209 7.62 3.276 10.659 4.996-1.396 10.262-2.149 15.706-2.149z" fill="#d8aa5e"/><path d="m331.781 75.193c.083 0 .166.005.249.006-1.292-2.561-2.03-5.449-2.03-8.515 0-7.384 4.225-13.768 10.382-16.907-2.584-1.317-5.501-2.076-8.601-2.076-10.484 0-18.982 8.499-18.982 18.983 0 3.952 1.21 7.62 3.276 10.659 4.996-1.397 10.262-2.15 15.706-2.15z" fill="#c99c56"/><path d="m388.964 122.322c-5.195-26.85-28.815-47.129-57.183-47.129s-51.988 20.279-57.183 47.129z" fill="#cbc4cc"/><path d="m306.075 122.322c4.198-21.682 20.414-39.071 41.444-44.96-5.008-1.403-10.282-2.169-15.738-2.169-28.367 0-51.988 20.28-57.183 47.129z" fill="#b5adb6"/><g><path d="m394.62 248.737v-126.415h-152.714c-4.384 0-6.645 5.24-3.639 8.429l26.59 28.211c2.623 2.783 4.084 6.464 4.084 10.288v79.486c0 13.73-5.931 26.825-16.355 35.762-22.565 19.348-36.666 46.864-36.666 77.396 0 58.565 51.872 106.041 115.859 106.041s115.859-47.476 115.859-106.041c0-30.533-14.101-58.049-36.666-77.396-10.421-8.936-16.352-22.031-16.352-35.761z" fill="#d8aa5e"/></g><g><path d="m247 361.895c0-30.533 14.101-58.049 36.666-77.396 10.423-8.937 16.355-22.031 16.355-35.762v-79.486c0-3.825-1.461-7.505-4.084-10.288l-26.59-28.211c-3.007-3.19-.745-8.429 3.639-8.429h-31.078c-4.384 0-6.645 5.24-3.639 8.429l26.59 28.211c2.623 2.783 4.084 6.464 4.084 10.288v79.486c0 13.73-5.931 26.824-16.355 35.762-22.565 19.348-36.666 46.864-36.666 77.396 0 58.565 51.872 106.041 115.859 106.041 5.27 0 10.456-.328 15.539-.952-56.638-6.95-100.32-51.347-100.32-105.089z" fill="#c99c56"/></g><g><path d="m215.922 361.895c0 26.106 10.314 50.004 27.407 68.48h176.905c17.093-18.476 27.407-42.374 27.407-68.48 0-21.205-6.807-40.951-18.521-57.52h-194.677c-11.714 16.57-18.521 36.316-18.521 57.52z" fill="#cbc4cc"/></g><g><path d="m243.328 430.376h31.075c-17.094-18.475-27.403-42.375-27.403-68.481 0-21.205 6.806-40.951 18.52-57.52h-31.078c-11.714 16.569-18.52 36.315-18.52 57.52 0 26.107 10.313 50.004 27.406 68.481z" fill="#b5adb6"/></g><g><path d="m183.998 352.047h-134.631c-3.123 0-5.482 2.832-4.918 5.904l18.744 102.032h106.978l18.744-102.032c.565-3.073-1.794-5.904-4.917-5.904z" fill="#cbc4cc"/><path d="m63.01 458.982h41.635l-18.561-101.032c-.564-3.072 1.794-5.904 4.918-5.904h-41.635c-3.123 0-5.482 2.832-4.918 5.904z" fill="#b5adb6"/><g><path d="m43.956 458.982c0 21.273 17.245 38.517 38.517 38.517h68.418c21.273 0 38.517-17.245 38.517-38.517z" fill="#d8aa5e"/></g><g><path d="m96 458.982h-52.044c0 21.273 17.245 38.518 38.517 38.518h52.044c-21.272 0-38.517-17.245-38.517-38.518z" fill="#c99c56"/></g></g></g><g><g><path d="m260.17 388.074-12.619-18.376c-.935-1.361-.937-3.157-.005-4.521l12.619-18.468c1.588-2.324 5.017-2.324 6.605 0l12.619 18.468c.932 1.364.93 3.16-.005 4.521l-12.619 18.376c-1.589 2.314-5.005 2.314-6.595 0z" fill="#80d261"/></g><g><path d="m327.17 388.074-12.619-18.376c-.935-1.361-.937-3.157-.005-4.521l12.619-18.468c1.588-2.324 5.017-2.324 6.605 0l12.619 18.468c.932 1.364.93 3.16-.005 4.521l-12.619 18.376c-1.589 2.314-5.005 2.314-6.595 0z" fill="#80d261"/></g><g><path d="m394.235 388.074-12.619-18.376c-.935-1.361-.937-3.157-.005-4.521l12.619-18.468c1.588-2.324 5.017-2.324 6.605 0l12.619 18.468c.932 1.364.93 3.16-.005 4.521l-12.619 18.376c-1.59 2.314-5.006 2.314-6.595 0z" fill="#80d261"/></g></g><g><path d="m424.836 114.822h-30.001c-5.588-18.879-19.426-34.246-37.334-41.886.49-2.006.763-4.097.763-6.252 0-8.317-3.857-15.747-9.874-20.606l5.987-5.987c1.983-1.983 3.075-4.62 3.075-7.425 0-2.806-1.093-5.443-3.075-7.424l-15.174-15.175c-4.092-4.088-10.752-4.091-14.848.003l-15.168 15.169c-1.985 1.983-3.078 4.621-3.078 7.427 0 2.805 1.092 5.441 3.075 7.425l5.987 5.987c-6.016 4.859-9.874 12.289-9.874 20.606 0 2.155.273 4.246.763 6.252-17.9 7.641-31.729 23.011-37.316 41.887h-26.839c-4.993 0-9.498 2.962-11.477 7.546s-1.045 9.894 2.38 13.528l26.59 28.21c1.316 1.397 2.042 3.225 2.042 5.145v79.486c0 11.624-5.007 22.583-13.736 30.068-24.965 21.405-39.283 51.69-39.283 83.09 0 37.176 19.512 70.236 49.605 90.96v37.144h-73.176c7.484-8.187 12.057-19.078 12.057-31.018 0-4.143-3.357-7.5-7.5-7.5h-10.049l16.932-92.177c.673-3.66-.307-7.399-2.689-10.259s-5.882-4.5-9.604-4.5h-134.63c-3.722 0-7.223 1.641-9.604 4.5-2.383 2.859-3.362 6.599-2.69 10.259l16.934 92.177h-10.05c-4.143 0-7.5 3.357-7.5 7.5 0 11.94 4.573 22.831 12.057 31.018h-41.014c-4.143 0-7.5 3.357-7.5 7.5s3.357 7.5 7.5 7.5h475.383c4.143 0 7.5-3.357 7.5-7.5s-3.357-7.5-7.5-7.5h-77.349v-37.144c30.094-20.724 49.606-53.785 49.606-90.96 0-4.01-.237-8.001-.696-11.958.757-1.109 1.432-2.287 1.986-3.545l19.875-45.083c1.671-3.79-.047-8.217-3.837-9.888-3.792-1.674-8.218.047-9.888 3.837l-13.696 31.065c-2.181-6.068-4.903-11.962-8.152-17.609l36.81-83.494c3.247-7.367 4.894-15.185 4.894-23.235 0-31.761-25.84-57.6-57.601-57.6h-22.717v-14.563h22.717c39.791 0 72.164 32.372 72.164 72.163 0 10.087-2.063 19.882-6.132 29.11l-14.161 32.121c-1.671 3.79.047 8.217 3.837 9.888 3.792 1.673 8.218-.046 9.888-3.837l14.161-32.121c4.916-11.147 7.408-22.977 7.408-35.162 0-48.062-39.102-87.163-87.164-87.163zm-273.944 375.178h-68.419c-14.518 0-26.738-10.025-30.1-23.518h59.627c4.143 0 7.5-3.357 7.5-7.5s-3.357-7.5-7.5-7.5h-42.742l-16.89-91.936h128.628l-16.888 91.936h-17.108c-4.143 0-7.5 3.357-7.5 7.5s3.357 7.5 7.5 7.5h33.991c-3.361 13.492-15.582 23.518-30.099 23.518zm180.889-466.142 8.807 8.808-7.567 7.567c-.411-.019-.824-.031-1.239-.031-.416 0-.829.012-1.241.031l-7.567-7.567zm0 31.343c6.331 0 11.482 5.151 11.482 11.482 0 .684-.078 1.348-.194 2-3.671-.638-7.438-.99-11.289-.99s-7.621.343-11.291.981c-.115-.649-.192-1.31-.192-1.991.001-6.331 5.152-11.482 11.484-11.482zm0 27.492c21.411 0 39.748 13.335 47.19 32.129h-9.944-84.437c7.443-18.794 25.78-32.129 47.191-32.129zm58.753 407.307h-117.507v-28.289c17.478 8.75 37.497 13.725 58.754 13.725s41.275-4.974 58.753-13.725zm-58.753-29.564c-26.159 0-50.183-8.474-68.927-22.561h137.854c-18.744 14.088-42.768 22.561-68.927 22.561zm85.06-37.56h-170.119c-14.584-16.787-23.3-37.975-23.3-60.98 0-17.948 5.185-35.059 14.925-50.02h186.868c9.741 14.961 14.926 32.073 14.926 50.02 0 23.005-8.716 44.193-23.3 60.98zm7.995-263.491c23.49 0 42.601 19.11 42.601 42.6 0 5.954-1.218 11.736-3.619 17.185l-33.058 74.985c-4.426-5.492-9.405-10.637-14.903-15.351-8.73-7.484-13.737-18.443-13.737-30.067v-33.361c0-4.143-3.357-7.5-7.5-7.5s-7.5 3.357-7.5 7.5v33.361c0 16.008 6.916 31.118 18.974 41.455 2.499 2.143 4.864 4.376 7.104 6.684h-162.833c2.24-2.308 4.604-4.541 7.103-6.684 12.058-10.338 18.973-25.447 18.973-41.455v-79.486c0-5.76-2.176-11.24-6.126-15.433l-22.618-23.996h139.422v50.554c0 4.143 3.357 7.5 7.5 7.5s7.5-3.357 7.5-7.5v-20.99h22.717z"/><path d="m74.506 216.088c0 4.143 3.357 7.5 7.5 7.5h60.512c5.275 0 9.566 4.291 9.566 9.566 0 5.276-4.291 9.568-9.566 9.568h-62.064c-13.547 0-24.567 11.021-24.567 24.566 0 13.547 11.021 24.567 24.567 24.567h72.406c5.275 0 9.567 4.292 9.567 9.567v13.964c0 4.143 3.357 7.5 7.5 7.5s7.5-3.357 7.5-7.5v-13.964c0-13.547-11.021-24.567-24.567-24.567h-72.406c-5.275 0-9.567-4.292-9.567-9.567s4.292-9.566 9.567-9.566h62.063c13.546 0 24.566-11.021 24.566-24.568 0-13.546-11.021-24.566-24.566-24.566h-60.511c-4.143 0-7.5 3.357-7.5 7.5z"/><path d="m66.893 188.461h51.004c4.143 0 7.5-3.357 7.5-7.5s-3.357-7.5-7.5-7.5h-51.004c-5.239 0-9.502-4.262-9.502-9.501s4.263-9.502 9.502-9.502h34.002c4.143 0 7.5-3.357 7.5-7.5s-3.357-7.5-7.5-7.5h-34.002c-13.511 0-24.502 10.991-24.502 24.502 0 13.509 10.991 24.501 24.502 24.501z"/><path d="m272.962 342.476c-2.145-3.138-5.694-5.011-9.494-5.011-.001 0-.002 0-.002 0-3.801.001-7.35 1.874-9.493 5.012l-12.62 18.47c-2.657 3.89-2.65 9.112.016 12.997l12.619 18.376h.001c2.146 3.125 5.689 4.989 9.479 4.989h.002c3.79 0 7.333-1.866 9.478-4.989l12.621-18.377c2.665-3.884 2.672-9.106.014-12.998zm-9.494 37.151-8.377-12.198 8.377-12.26 8.377 12.26z"/><path d="m339.962 342.476c-2.145-3.138-5.694-5.011-9.494-5.011-.001 0-.002 0-.002 0-3.801.001-7.35 1.874-9.493 5.012l-12.62 18.47c-2.657 3.89-2.65 9.112.016 12.997l12.619 18.376h.001c2.146 3.125 5.689 4.989 9.479 4.989h.002c3.79 0 7.333-1.866 9.478-4.989l12.621-18.377c2.665-3.884 2.672-9.106.014-12.998zm-9.494 37.151-8.377-12.198 8.377-12.26 8.377 12.26z"/><path d="m407.027 342.478c-2.144-3.139-5.692-5.012-9.493-5.013-.001 0-.001 0-.002 0-3.8 0-7.35 1.873-9.495 5.012l-12.62 18.47c-2.657 3.89-2.65 9.112.016 12.997l12.619 18.375c2.146 3.124 5.688 4.99 9.479 4.99h.002c3.79 0 7.334-1.864 9.48-4.989l12.62-18.377c2.665-3.884 2.672-9.106.014-12.998zm-9.495 37.149-8.377-12.198 8.377-12.26 8.377 12.26z"/></g></g></svg>